<?xml version="1.0" standalone="no"?>
<!DOCTYPE svg PUBLIC "-//W3C//DTD SVG 1.1//EN" "http://www.w3.org/Graphics/SVG/1.1/DTD/svg11.dtd" >
<svg xmlns="http://www.w3.org/2000/svg">
<metadata></metadata>
<defs>
<font id="pf_dindisplay_pro_mediumIt" horiz-adv-x="3723" >
<font-face units-per-em="2048" ascent="1536" descent="-512" />
<missing-glyph horiz-adv-x="505" />
<glyph unicode="fj" horiz-adv-x="1017" d="M-221 -410l37 189q16 -2 31.5 -3t31.5 -1q51 0 85 11t54.5 32.5t31.5 54.5t20 74l172 887h-136l35 182h135l27 131q14 74 35.5 136.5t62.5 108.5t104.5 72.5t160.5 26.5q29 0 57.5 -3t62.5 -7l-30 -193q-12 2 -24.5 2h-24.5q-53 0 -87 -11t-54.5 -31.5t-31 -50.5 t-16.5 -69l-22 -112h499l-194 -1063q-12 -70 -31.5 -131.5t-54.5 -106.5t-91.5 -70.5t-144.5 -25.5q-61 0 -137 12l37 203q104 -10 149 25t62 123l162 852h-291l-174 -904q-16 -78 -37 -142t-59.5 -111.5t-100 -74t-158.5 -26.5q-35 0 -71.5 2t-81.5 12zM821 1298 q0 31 13.5 57.5t34 47t47 33t55.5 12.5q47 0 75.5 -28.5t28.5 -71.5q0 -31 -13 -57.5t-34.5 -47t-49.5 -33t-54 -12.5q-45 0 -74 28.5t-29 71.5z" />
<glyph unicode="ffj" horiz-adv-x="1540" d="M-223 -434l35 188q18 -2 33.5 -3t29.5 -1q51 0 85 11.5t55.5 34t32.5 54t20 72.5l180 912h-137l36 182h136l18 94q14 72 35.5 134.5t62.5 108.5t104.5 72.5t160.5 26.5q31 0 65.5 -2t71.5 -8l-35 -191q-16 2 -31.5 2h-29.5q-53 0 -87 -11t-54.5 -32.5t-31 -51.5 t-18.5 -68l-14 -74h293l26 131q14 74 36 136.5t61.5 108.5t103 72.5t160.5 26.5q29 0 58.5 -3t64.5 -7l-31 -193q-14 2 -26.5 2h-22.5q-55 0 -89 -11t-53.5 -31.5t-30 -50.5t-18.5 -69l-20 -112h497l-192 -1049q-12 -70 -31.5 -130t-54.5 -105t-91.5 -72t-144.5 -27 q-29 0 -63.5 3.5t-73.5 11.5l37 200q104 -10 149.5 25t61.5 123l158 838h-289l-170 -889q-16 -78 -36.5 -143.5t-59.5 -112.5t-100.5 -74t-157.5 -27q-61 0 -142 13l35 190q12 -2 27.5 -3t25.5 -1q51 0 85 11.5t55.5 34t33 54t19.5 72.5l168 875h-293l-182 -926 q-14 -78 -36 -143.5t-61 -112.5t-100 -74t-158 -27q-33 0 -70.5 3.5t-80.5 11.5zM1335 1298q0 31 12.5 57.5t34 47t48 33t55.5 12.5q47 0 75.5 -28.5t28.5 -71.5q0 -31 -13 -57.5t-34.5 -47t-49.5 -33t-56 -12.5q-43 0 -72 28.5t-29 71.5z" />
<glyph unicode="ff" horiz-adv-x="1187" d="M-219 -414l37 189q16 -2 31.5 -3t31.5 -1q51 0 85 11t54.5 32.5t31.5 54.5t20 74l176 893h-137l36 180h136l18 94q14 74 35.5 136.5t62.5 108.5t104.5 72.5t160.5 26.5q61 0 139 -12l-37 -191q-16 2 -31.5 2h-29.5q-53 0 -87 -11t-54.5 -31.5t-32 -50.5t-17.5 -68 l-14 -76h309l25 131q14 74 35.5 136.5t62.5 108.5t104.5 72.5t159.5 26.5q37 0 77 -4t85 -12l-37 -189q-23 4 -44.5 4h-39.5q-53 0 -87 -11t-54.5 -31.5t-30.5 -50.5t-16 -69l-23 -112h234l-35 -180h-234l-157 -856q-16 -78 -38 -143.5t-61 -113t-100.5 -74t-157.5 -26.5 q-33 0 -70.5 3t-80.5 12l36 188q16 -2 32 -3t30 -1q51 0 85 11t55.5 33.5t32.5 54.5t19 73l158 842h-309l-176 -910q-16 -78 -37 -142.5t-59.5 -111.5t-100 -73.5t-158.5 -26.5q-35 0 -71.5 2t-81.5 12z" />
<glyph unicode="fi" horiz-adv-x="1069" d="M-221 -410l37 189q16 -2 31.5 -3t31.5 -1q51 0 85 11t54.5 32.5t31.5 54.5t20 74l172 887h-136l35 182h135l27 131q14 74 35.5 136.5t62.5 108.5t104.5 72.5t160.5 26.5q29 0 57.5 -3t62.5 -7l-30 -193q-12 2 -24.5 2h-24.5q-53 0 -87 -11t-54.5 -31.5t-31 -50.5 t-16.5 -69l-22 -112h503l-131 -676q-10 -49 -10 -78t11.5 -45t34 -23.5t57.5 -11.5l-41 -188h-37q-135 0 -202 71.5t-38 225.5l105 543h-287l-174 -904q-16 -78 -37 -142t-59.5 -111.5t-100 -74t-158.5 -26.5q-35 0 -71.5 2t-81.5 12zM823 1309q2 27 15.5 51t34 42.5t46 30 t52.5 11.5q49 0 78.5 -33t23.5 -80q-6 -57 -51 -97t-98 -40q-47 0 -77 34t-24 81z" />
<glyph unicode="fl" horiz-adv-x="1103" d="M-211 -406l37 189q16 -2 31.5 -3t29.5 -1q51 0 85 11t55.5 32.5t33 54.5t19.5 74l172 885h-135l35 182h135l28 158q18 96 58.5 160.5t96.5 103.5t128 55t154 16q63 0 152 -13t208 -48l-217 -1149q-14 -70 13.5 -90.5t115.5 -22.5l-37 -194h-67q-84 0 -138.5 19.5t-82 56 t-31.5 91t8 122.5l194 1013q-68 20 -145 21q-78 0 -128 -38t-67 -122l-28 -139h225l-35 -182h-223l-174 -902q-16 -78 -36.5 -142t-59.5 -111.5t-100.5 -74t-155.5 -26.5q-35 0 -73 2t-81 12z" />
<glyph unicode="ffi" horiz-adv-x="1562" d="M-219 -422l37 189q16 -2 31.5 -3.5t29.5 -1.5q51 0 84 11.5t54.5 34t32.5 54.5t20 72q45 225 89 448.5t87 451.5h-135q10 47 18 91t16 91h136l18 92q14 72 36.5 134.5t62.5 108.5t103.5 72.5t160.5 26.5q31 0 64.5 -2t70.5 -8q-8 -47 -17.5 -95.5t-17.5 -95.5 q-16 2 -31.5 2h-28.5q-66 0 -102.5 -16t-55 -47t-26.5 -74t-18 -98h295l24 131q14 72 37 134t64 108.5t103 73t159 26.5q29 0 58.5 -2t64.5 -6q-10 -49 -16.5 -96.5t-16.5 -96.5q-12 2 -24.5 2h-22.5q-55 0 -89 -11t-53.5 -32.5t-30 -51.5t-18.5 -69l-20 -110h497l-129 -678 q-8 -41 -8 -76q0 -47 23.5 -61.5t77.5 -20.5q-10 -47 -20.5 -93t-20.5 -93h-37q-117 0 -180.5 51t-63.5 160q0 68 16 149l93 480h-285l-152 -797q-16 -84 -35.5 -161t-57.5 -134t-102.5 -91t-170.5 -34q-33 0 -67 2t-75 8q8 47 16.5 95.5t18.5 95.5q14 -2 27.5 -3t23.5 -1 q51 0 85 11t55.5 33.5t33 54.5t19.5 73q41 213 82 424t82 424h-297l-162 -842q-14 -84 -32.5 -162t-57.5 -137.5t-104.5 -94t-172.5 -34.5q-35 0 -72.5 3t-80.5 11zM1333 1300q0 29 13.5 55.5t34 46t47 32t55.5 12.5q47 0 75.5 -31t28.5 -86q-6 -55 -52 -95t-99 -40 q-45 0 -74 28.5t-29 77.5z" />
<glyph unicode="ffl" horiz-adv-x="1650" d="M-219 -418l37 189q16 -2 31.5 -3t31.5 -1q51 0 85 11t54.5 32.5t31.5 54.5t20 74l176 897h-137l36 180h136l16 92q14 72 36.5 134.5t62.5 108.5t103.5 72.5t160.5 26.5q31 0 65.5 -2t71.5 -8l-37 -191q-16 2 -30.5 2h-26.5q-55 0 -89 -11t-54.5 -32.5t-31 -51.5 t-16.5 -69l-14 -71l311 2l31 158q18 96 58 160.5t96.5 103.5t128 55t153.5 16q61 0 151.5 -13t206.5 -48l-217 -1149q-12 -70 14.5 -90.5t116.5 -22.5l-37 -194h-69q-84 0 -137.5 19.5t-81 56t-32.5 91t7 122.5l197 1013q-35 10 -73 15.5t-73 5.5q-80 0 -129 -38t-65 -122 l-29 -139h225l-34 -182h-226l-166 -863q-14 -78 -35.5 -143.5t-59.5 -112.5t-99.5 -73.5t-157.5 -26.5q-61 0 -143 12l37 191q12 -2 27.5 -3t25.5 -1q51 0 85 11t55.5 33.5t32.5 54.5t19 73l162 848h-311l-176 -914q-16 -78 -37 -142.5t-59.5 -111.5t-100 -73.5 t-158.5 -26.5q-35 0 -71.5 2t-81.5 12z" />
<glyph unicode="ft" horiz-adv-x="1222" d="M-217 -406l35 189q37 -6 67 -6q84 0 127 43t60 131l172 880h-135l34 185h136q18 98 37.5 185t59.5 150.5t111.5 100.5t196.5 37q33 0 67.5 -4t75.5 -10l-36 -189q-23 4 -44.5 4h-39.5q-72 0 -109 -21.5t-55.5 -59.5t-26.5 -88t-20 -105h299l88 241h168l-47 -241h249 l-34 -185h-250l-88 -460q-14 -80 3 -127t107 -47q31 0 72 4t88 8l6 -186q-33 -10 -68.5 -17.5t-69.5 -10.5t-62.5 -4t-47.5 -1q-94 0 -150.5 25.5t-84 69.5t-29.5 105.5t12 135.5l99 505h-295q-39 -211 -80 -416.5t-82 -414.5q-16 -92 -35.5 -169t-57.5 -132t-102.5 -87 t-169.5 -32q-43 2 -78.5 5t-72.5 9z" />
<glyph unicode=" "  horiz-adv-x="505" />
<glyph unicode="&#x09;" horiz-adv-x="505" />
<glyph unicode="&#xa0;" horiz-adv-x="505" />
<glyph unicode="!" horiz-adv-x="514" d="M57 100q0 29 12.5 59.5t35 55.5t52 40t66.5 15q57 0 88 -31.5t31 -78.5q0 -35 -13.5 -66t-36 -54.5t-53 -37.5t-67.5 -14q-53 0 -84 31.5t-31 80.5zM158 406l184 1019h219l-215 -1019h-188z" />
<glyph unicode="&#x22;" horiz-adv-x="667" d="M227 1016l78 409h176l-80 -409h-174zM498 1016l77 409h175l-78 -409h-174z" />
<glyph unicode="#" horiz-adv-x="1089" d="M39 428l31 162h200l84 252h-178l31 159h201l143 422h176l-139 -422h203l141 422h176l-139 -422h186l-33 -159h-207l-84 -252h187l-31 -162h-209l-141 -428h-184l143 428h-199l-141 -428h-184l143 428h-176zM451 590h200l84 252h-200z" />
<glyph unicode="$" horiz-adv-x="1058" d="M-25 180q35 41 70 83t70 83q76 -70 167 -106.5t189 -36.5q53 0 102.5 11t87 36.5t60 68.5t22.5 109q0 45 -16 72.5t-46 46t-70 31t-85 26.5q-49 16 -111.5 39t-116.5 62.5t-91 101t-37 156.5q0 102 37 181t100.5 134t144 86t171.5 39q8 45 16 89t18 89h148l-37 -172 q96 -6 183 -37t163 -92q-61 -86 -133 -176q-72 57 -156 78.5t-157 21.5q-41 0 -87 -12t-86 -39t-67 -68t-27 -96q0 -43 26 -73.5t63.5 -52t80.5 -36t78 -22.5q53 -12 114.5 -34.5t113 -62.5t85 -103.5t33.5 -158.5q0 -96 -35.5 -174.5t-100 -136t-154.5 -91.5t-199 -40 q0 -49 -13.5 -104.5t-23.5 -104.5h-150l41 209q-111 8 -209 52t-176 124z" />
<glyph unicode="%" horiz-adv-x="1689" d="M164 793q0 12 1 24t3 25l63 334q23 115 91.5 181t209.5 66q125 0 200 -69.5t75 -173.5q0 -12 -1 -23.5t-3 -23.5l-58 -342q-23 -115 -102.5 -173.5t-202.5 -58.5q-49 0 -98 14.5t-89 44t-64.5 72.5t-24.5 103zM242 -35l1161 1495h162l-1164 -1495h-159zM338 811 q0 -57 38 -78.5t75 -21.5q41 0 79.5 23.5t51.5 82.5l57 324q2 8 2 24q0 49 -34 77t-81 28q-41 0 -78.5 -24.5t-48.5 -84.5l-59 -321q-2 -8 -2 -15.5v-13.5zM979 225q0 12 1 24.5t3 24.5l64 336q23 113 91 179.5t210 66.5q123 0 198.5 -68.5t75.5 -173.5v-24t-4 -25l-57 -340 q-23 -115 -103 -173t-203 -58q-49 0 -98 14.5t-89 43t-64.5 71.5t-24.5 102zM1153 244q0 -57 38 -79t75 -22q41 0 80.5 25t50.5 84l57 321q2 8 2 25q0 49 -33.5 78t-81.5 29q-41 0 -78.5 -26t-48.5 -85l-59 -322q-2 -8 -2 -15v-13z" />
<glyph unicode="&#x26;" horiz-adv-x="1669" d="M233 887q0 172 67 314t181.5 243.5t267 158t324.5 56.5q154 0 268.5 -49t192.5 -132t117 -193.5t39 -233.5q0 -240 -113 -446t-301 -365q59 -66 125.5 -118t144.5 -87l-110 -154q-41 18 -86 46t-87 60.5t-81 68.5t-68 73q-92 -63 -217 -103t-242 -40q-164 0 -260 82 t-96 237q0 88 31.5 164t87 140.5t130.5 118.5t161 99q-53 111 -54 195q0 78 28 144.5t77 115.5t115.5 76.5t144.5 27.5q117 0 188.5 -65.5t71.5 -163.5q0 -72 -26.5 -129t-70.5 -105.5t-102.5 -89t-122.5 -75.5q45 -94 101.5 -195.5t122.5 -200.5q147 131 239 295t92 363 q0 92 -22.5 178t-74.5 152.5t-138 106.5t-215 40q-150 0 -269.5 -44t-204.5 -124t-131 -190.5t-46 -241.5q0 -25 2 -52.5t6 -58.5l-176 -38q-6 39 -8.5 74.5t-2.5 64.5zM485 336q0 -92 58.5 -138t148.5 -46q74 0 159 25.5t171 76.5q-35 45 -68.5 100.5t-65.5 112.5 t-58.5 111.5t-45.5 99.5q-66 -33 -120 -68t-94 -75.5t-62.5 -90t-22.5 -108.5zM850 1055q0 -33 12 -67t31 -75q80 41 138.5 89.5t58.5 119.5q0 41 -28 68t-75 27q-35 0 -60.5 -16.5t-43 -41t-25.5 -53.5t-8 -51z" />
<glyph unicode="'" horiz-adv-x="530" d="M297 1016l82 409h174l-80 -409h-176z" />
<glyph unicode="(" horiz-adv-x="641" d="M133 430q0 160 47 309.5t127 285.5t183.5 258t216.5 224l104 -75q-96 -102 -180 -222t-145.5 -251.5t-96.5 -271.5t-35 -284q0 -147 37 -295.5t109 -281.5l-131 -86q-106 150 -171 326t-65 364z" />
<glyph unicode=")" horiz-adv-x="641" d="M-80 -174q94 100 177 219t145.5 249t98.5 269t36 281q0 150 -35 301t-111 287l134 75q106 -147 169.5 -319t63.5 -361q0 -162 -48 -312t-128 -288.5t-185.5 -260.5t-220.5 -226z" />
<glyph unicode="*" horiz-adv-x="808" d="M209 1122l78 158l209 -96l24 246h170l-72 -246q20 8 53.5 20.5t70 26.5t69.5 27.5t53 21.5q0 -12 3 -33.5t5 -46t5.5 -47.5t3.5 -33l-246 -57l125 -184q-10 -8 -31.5 -22.5t-46.5 -30t-46.5 -29t-33.5 -21.5l-84 213l-170 -213q-8 6 -24.5 20.5t-35 30t-34.5 29.5t-25 23 l199 184z" />
<glyph unicode="+" horiz-adv-x="1058" d="M70 522l34 166h390l75 385h170l-73 -385h389l-33 -166h-389l-76 -389h-172l76 389h-391z" />
<glyph unicode="," horiz-adv-x="555" d="M4 -195q57 37 97 83t57 102q-37 4 -58.5 32.5t-21.5 69.5q0 66 43 118t121 52q66 0 100.5 -43t34.5 -106q0 -61 -25.5 -123t-69.5 -116t-101.5 -98t-119.5 -73z" />
<glyph unicode="-" horiz-adv-x="821" d="M104 444l39 193h617l-37 -193h-619z" />
<glyph unicode="." horiz-adv-x="518" d="M63 100q0 29 12.5 59.5t34 55.5t52.5 40t67 15q57 0 88 -31.5t31 -78.5q0 -68 -49 -120t-123 -52q-53 0 -83 31.5t-30 80.5z" />
<glyph unicode="/" horiz-adv-x="684" d="M-111 -86l820 1571h170l-822 -1571h-168z" />
<glyph unicode="0" horiz-adv-x="1058" d="M86 346q0 55 12 117l121 579q39 184 157 283.5t314 99.5q70 0 139.5 -20.5t126 -63.5t91 -108.5t34.5 -157.5q0 -45 -8 -86l-112 -610q-18 -102 -62.5 -176t-107 -121t-141.5 -69.5t-167 -22.5q-72 0 -142.5 19.5t-126.5 62.5t-92 110.5t-36 163.5zM307 367 q0 -47 17.5 -80t45 -53.5t61.5 -29.5t67 -9q92 0 157.5 48t87.5 165l115 589q4 12 4 24.5v22.5q0 45 -18.5 78t-46 54.5t-61.5 31t-66 9.5q-92 0 -158 -54.5t-88 -173.5l-111 -567q-6 -29 -6 -55z" />
<glyph unicode="1" horiz-adv-x="1058" d="M348 1153l352 258h201l-272 -1411h-217l219 1135l-195 -140z" />
<glyph unicode="2" horiz-adv-x="1058" d="M14 0q25 135 62 236.5t92 181.5t132 145.5t181 128.5q68 41 136.5 84t122 89t87 95.5t33.5 104.5q0 78 -60.5 115t-142.5 37q-78 0 -155.5 -29t-143.5 -76q-23 43 -45 86t-43 86q88 63 199.5 102t232.5 39q72 0 141.5 -16t125 -54t90.5 -98.5t35 -148.5q0 -86 -34 -160 t-87 -135t-120 -111.5t-134 -89.5q-90 -53 -164 -102t-129 -98.5t-92 -102.5t-55 -114h636q-10 -49 -18 -98.5t-18 -96.5h-865z" />
<glyph unicode="3" horiz-adv-x="1058" d="M4 129q10 12 30.5 35.5t43 50.5t44 50.5t32.5 35.5q47 -47 118.5 -77.5t143.5 -30.5q143 0 218 69.5t75 192.5q0 78 -50.5 124t-132.5 46h-153l37 190h153q39 0 84 16.5t83 48t62.5 76.5t24.5 103q0 45 -19.5 75.5t-50 49t-66.5 26t-67 7.5q-72 0 -148.5 -31t-141.5 -80 l-99 174q84 63 197 103t242 40q76 0 145.5 -17t121.5 -55t84 -98.5t32 -146.5q0 -129 -74 -230.5t-185 -154.5q72 -33 107 -99.5t35 -152.5q0 -123 -43 -214t-116 -150.5t-167 -89t-196 -29.5q-127 0 -236 40t-168 103z" />
<glyph unicode="4" horiz-adv-x="1058" d="M20 211l33 180l660 1020h233l-645 -1005h358l80 413h222l-80 -413h118l-36 -195h-121l-37 -211h-223l41 211h-603z" />
<glyph unicode="5" horiz-adv-x="1058" d="M55 137l140 172q61 -59 134.5 -85.5t147.5 -26.5q98 0 169 46t91 156l31 170q6 27 6 49q0 63 -34.5 93t-92.5 30q-31 0 -68.5 -10t-76.5 -26.5t-75 -36t-60 -35.5l-181 92l131 686h793l-37 -201h-571l-66 -340q84 45 153.5 69t125.5 24q139 0 214 -77t75 -202 q0 -23 -3.5 -45.5t-7.5 -46.5l-35 -221q-39 -203 -166.5 -292t-326.5 -89q-129 0 -236.5 44t-173.5 103z" />
<glyph unicode="6" horiz-adv-x="1058" d="M90 322q0 45 8 84l123 636q35 186 166 284.5t324 98.5q129 0 229 -38.5t160 -104.5l-142 -176q-53 57 -119.5 84t-140.5 27q-41 0 -83 -11.5t-78.5 -37t-64.5 -65.5t-38 -97l-37 -193q109 51 183.5 74.5t132.5 23.5q139 0 210.5 -75.5t71.5 -198.5q0 -23 -3 -47.5 t-7 -48.5l-33 -172q-18 -98 -62 -170t-107.5 -118t-142.5 -68.5t-171 -22.5q-74 0 -142.5 21.5t-120.5 63.5t-84 103.5t-32 143.5zM313 358q0 -43 15.5 -73.5t41 -50t57.5 -28.5t65 -9q92 0 158.5 49t88.5 162l23 114q6 31 6 53q0 66 -37 95.5t-90 29.5q-61 0 -131 -28.5 t-154 -69.5l-39 -194q-2 -12 -3 -24.5t-1 -25.5z" />
<glyph unicode="7" horiz-adv-x="1058" d="M139 0l729 1212h-405l-39 -208h-207l78 407h858l-35 -188l-743 -1223h-236z" />
<glyph unicode="8" horiz-adv-x="1058" d="M78 326q0 78 22.5 141t58.5 113.5t83 85t96 55.5q-53 35 -86 96.5t-33 134.5q0 119 42 207t111.5 146.5t156 88t176.5 29.5q70 0 137 -20.5t120.5 -63.5t85 -107.5t31.5 -150.5q0 -133 -57 -224t-158 -138q66 -31 100.5 -97.5t34.5 -148.5q0 -121 -46 -211t-119.5 -151.5 t-168 -92t-192.5 -30.5q-80 0 -151.5 20.5t-126 62.5t-86 105.5t-31.5 149.5zM309 352q0 -78 52.5 -116.5t132.5 -38.5q55 0 103 16t85 48t58.5 78t21.5 105q0 74 -53 117t-131 43q-49 0 -96.5 -17.5t-86.5 -50t-62.5 -79.5t-23.5 -105zM438 977q0 -78 51.5 -121t122.5 -43 q43 0 87 16.5t80 46t58.5 72.5t22.5 96q0 84 -52 129.5t-122 45.5q-45 0 -89 -15.5t-80 -46.5t-57.5 -76t-21.5 -104z" />
<glyph unicode="9" horiz-adv-x="1058" d="M61 135l146 172q109 -106 256 -106q45 0 88 11t79 35.5t61.5 64.5t37.5 98l39 196q-109 -49 -182.5 -72.5t-132.5 -23.5q-139 0 -211 77t-72 199q0 23 3 46.5t7 48.5l33 168q18 92 62 162.5t107.5 118.5t143.5 71.5t168 23.5q76 0 145.5 -20.5t123 -61t86 -100 t32.5 -137.5q0 -39 -8 -74l-129 -661q-39 -199 -163 -290t-322 -91q-131 0 -231.5 40t-166.5 105zM397 846q0 -66 37 -95.5t90 -29.5q61 0 131 28.5t154 67.5l37 191q6 27 6 51q0 43 -15.5 73.5t-41 49t-57 28t-64.5 9.5q-84 0 -156 -49.5t-94 -161.5l-21 -109 q-6 -29 -6 -53z" />
<glyph unicode=":" horiz-adv-x="577" d="M86 100q0 29 12.5 59.5t34 55.5t52 40t67.5 15q57 0 88 -31.5t31 -78.5q0 -35 -13.5 -66t-36 -54.5t-53 -37.5t-67.5 -14q-53 0 -84 31.5t-31 80.5zM203 694q0 33 12 65t33.5 57.5t52.5 40.5t68 15q57 0 87.5 -32.5t30.5 -79.5q0 -33 -13 -63.5t-35.5 -54.5t-54.5 -38 t-69 -14q-53 0 -82.5 28.5t-29.5 75.5z" />
<glyph unicode=";" horiz-adv-x="555" d="M-10 -195q59 37 98 83t55 102q-37 6 -57 31.5t-20 66.5q0 33 12 63.5t34.5 55t54.5 40t69 15.5q66 0 96 -37t30 -92q0 -68 -26.5 -132t-70.5 -121.5t-100 -103.5t-118 -73zM195 698q0 31 12 63t33.5 56.5t53.5 39.5t68 15q53 0 86 -31.5t33 -78.5q0 -68 -49 -120 t-123 -52q-53 0 -83.5 30.5t-30.5 77.5z" />
<glyph unicode="&#x3c;" horiz-adv-x="1058" d="M90 526l31 160l987 428l-37 -192l-747 -324l624 -322l-37 -178z" />
<glyph unicode="=" horiz-adv-x="1058" d="M31 313l32 166h953l-33 -166h-952zM111 731l32 168h953l-33 -168h-952z" />
<glyph unicode="&#x3e;" horiz-adv-x="1058" d="M35 98l35 193l747 321l-622 324l36 178l822 -428l-31 -160z" />
<glyph unicode="?" horiz-adv-x="970" d="M225 1303q100 70 206.5 100.5t217.5 30.5q78 0 143.5 -22.5t112.5 -64.5t74 -99.5t27 -125.5q0 -88 -47.5 -160.5t-112.5 -148.5q-37 -43 -75 -82t-70.5 -79t-58.5 -83t-36 -96l-14 -72h-221l12 70q12 63 35.5 115.5t57.5 98.5t75 91t86 92q47 49 83 104.5t36 114.5 q0 66 -42 103t-124 37q-72 0 -145.5 -28t-139.5 -75zM295 100q0 31 12 62t35 54.5t53.5 38.5t67.5 15q55 0 87 -32.5t32 -77.5q0 -35 -13.5 -66t-37 -54.5t-54 -37.5t-67.5 -14q-53 0 -84 31.5t-31 80.5z" />
<glyph unicode="@" horiz-adv-x="1738" d="M147 614q0 184 68 345t190.5 279t292.5 186.5t373 68.5q162 0 287 -46t210 -126t129 -188.5t44 -233.5q0 -135 -34 -245.5t-93.5 -188.5t-144.5 -120t-185 -42q-31 0 -63.5 7t-61.5 21.5t-51.5 37t-32.5 53.5q-72 -35 -150 -62.5t-139 -27.5q-111 0 -170 58.5t-59 160.5 q0 33 6 70l43 241q27 141 108 216t212 75q43 0 99 -20.5t134 -67.5l35 78h152l-111 -565q-2 -10 -2 -31q0 -39 20.5 -63.5t67.5 -24.5q37 0 82 23.5t84 73.5t65.5 130t26.5 195q0 98 -35 183t-101.5 146.5t-160.5 97t-213 35.5q-170 0 -310.5 -58t-239.5 -156.5 t-154.5 -228.5t-55.5 -275q0 -111 31 -201t94.5 -153.5t158.5 -98.5t222 -35q57 0 124 12.5t153 43.5l38 -148q-92 -37 -177 -49t-162 -12q-152 0 -271 46t-201.5 129t-127 199.5t-44.5 255.5zM735 596q0 -53 26.5 -76.5t74.5 -23.5q45 0 104 25.5t123 58.5l65 333 q-23 14 -48 28.5t-53 27t-53.5 19.5t-45.5 7q-53 0 -95 -36.5t-57 -114.5l-37 -203q-2 -12 -3 -23.5t-1 -21.5z" />
<glyph unicode="A" horiz-adv-x="1263" d="M-61 0l761 1411h238l217 -1411h-246l-37 305h-524l-158 -305h-251zM455 508h389l-35 276l-39 328h-8l-158 -315z" />
<glyph unicode="B" horiz-adv-x="1245" d="M37 0l274 1411h584q94 0 162.5 -26.5t114 -72.5t67 -106.5t21.5 -128.5q0 -111 -57.5 -198.5t-180.5 -147.5q82 -45 109.5 -120.5t27.5 -155.5q0 -88 -31.5 -170t-92 -145.5t-147.5 -101.5t-196 -38h-655zM311 209h332q57 0 107.5 16.5t87 47t57 75.5t20.5 101 q0 84 -50 128t-136 44h-336zM432 827h332q55 0 101 18.5t78 48.5t50.5 67.5t18.5 76.5q0 82 -50.5 122t-136.5 40h-319z" />
<glyph unicode="C" horiz-adv-x="1122" d="M119 391q0 25 3 49.5t7 53.5l92 473q43 221 180.5 339.5t382.5 118.5q119 0 234 -36.5t190 -104.5l-141 -180q-49 51 -133 79.5t-160 28.5q-131 0 -215 -70.5t-115 -228.5l-82 -413q-6 -37 -6 -72q0 -59 21.5 -101t57.5 -70t83 -41t100 -13q76 0 167.5 26.5t160.5 79.5 l98 -192q-90 -66 -213.5 -98.5t-242.5 -32.5q-90 0 -174 25.5t-149.5 76.5t-105.5 127t-40 176z" />
<glyph unicode="D" horiz-adv-x="1263" d="M45 0l274 1411h512q90 0 167 -24.5t134.5 -71.5t89 -116t31.5 -157q0 -25 -3 -49t-7 -51l-86 -485q-45 -223 -170 -340t-354 -117h-588zM319 207h299q51 0 100.5 14.5t90.5 47t71.5 88t47.5 139.5l80 415q8 39 8 78q0 115 -72 163t-176 48h-256z" />
<glyph unicode="E" horiz-adv-x="1163" d="M47 0l275 1411h935l-40 -211h-703l-74 -387h617l-41 -211h-619l-75 -393h757l-41 -209h-991z" />
<glyph unicode="F" horiz-adv-x="1118" d="M47 0l275 1411h942l-39 -211h-711l-76 -391h619l-41 -211h-619l-116 -598h-234z" />
<glyph unicode="G" horiz-adv-x="1216" d="M121 397q0 27 3 52.5t7 54.5l90 465q20 111 72.5 195.5t128.5 143t173 88t208 29.5q59 0 119.5 -8t117 -24.5t104.5 -42t83 -58.5l-140 -182q-49 51 -128.5 75.5t-155.5 24.5q-61 0 -118.5 -16t-105 -51t-83 -90.5t-50.5 -132.5l-81 -414q-4 -20 -6.5 -40t-2.5 -36 q0 -59 20.5 -103t54.5 -72t79 -41t92 -13q43 0 103.5 13t132.5 60l55 281h-215l39 209h448l-112 -604q-55 -51 -115.5 -85t-122 -53.5t-123 -27.5t-119.5 -8q-92 0 -174 27.5t-144 80.5t-98 130t-36 173z" />
<glyph unicode="H" horiz-adv-x="1269" d="M33 0l274 1411h234l-115 -590h592l115 590h237l-274 -1411h-238l119 610h-592l-119 -610h-233z" />
<glyph unicode="I" horiz-adv-x="559" d="M82 0l274 1411h234l-275 -1411h-233z" />
<glyph unicode="J" horiz-adv-x="1081" d="M-29 111l131 178q61 -49 144.5 -67.5t144.5 -18.5q57 0 107.5 15t90.5 50t68.5 92.5t44.5 141.5l177 909h235l-188 -962q-43 -223 -174 -343t-367 -120q-121 0 -235.5 32.5t-178.5 92.5z" />
<glyph unicode="K" horiz-adv-x="1228" d="M33 0l274 1411h234l-131 -682l696 682h278l-571 -563l336 -848h-250l-258 678l-297 -285l-76 -393h-235z" />
<glyph unicode="L" horiz-adv-x="1118" d="M49 0l275 1411h233l-235 -1202h727l-41 -209h-959z" />
<glyph unicode="M" horiz-adv-x="1562" d="M37 0l270 1411h207q8 -29 29.5 -99.5t49.5 -162.5t57.5 -194.5t56 -192.5t46 -158.5t25.5 -91.5h13q57 82 109 164t108 162q70 100 124 181t100 148.5t86 127t79 116.5h225l-268 -1411h-234l166 860h-8q-8 -12 -42 -61t-80 -116t-99 -143.5t-101.5 -146t-85 -122 t-49.5 -70.5h-170l-207 657h-10l-164 -858h-233z" />
<glyph unicode="N" horiz-adv-x="1351" d="M39 0l268 1411h217q12 -27 47 -101.5t81 -175t97.5 -214t97.5 -215t81 -179l49 -108.5h12q47 250 94 496.5t95 496.5h231l-268 -1411h-219q-12 29 -47 102.5t-80 172t-95.5 208t-96.5 210t-82 179t-50 113.5h-12l-189 -985h-231z" />
<glyph unicode="O" horiz-adv-x="1273" d="M123 420q0 55 12 117l84 432q43 221 186.5 338.5t378.5 117.5q100 0 190.5 -30.5t156 -86t104.5 -134t39 -175.5q0 -23 -2 -45t-6 -47l-86 -465q-41 -217 -185.5 -336.5t-392.5 -119.5q-92 0 -179 27.5t-153.5 83t-106.5 136t-40 187.5zM358 434q0 -61 20.5 -105 t55.5 -73t80 -42t94 -13q147 0 232.5 77.5t115.5 233.5l76 385q4 18 6 34.5t2 33.5q0 61 -22.5 107t-59 77t-84 46t-98.5 15q-127 0 -215 -68.5t-117 -221.5l-77 -408q-8 -39 -9 -78z" />
<glyph unicode="P" horiz-adv-x="1150" d="M33 0l274 1411h572q88 0 153.5 -31.5t109.5 -85t65.5 -122t21.5 -140.5q0 -82 -31 -167t-92.5 -155.5t-150.5 -115.5t-205 -45h-377l-107 -549h-233zM416 762h313q57 0 106.5 19.5t86 53t57 80t20.5 101.5q0 84 -51 134t-143 50h-305z" />
<glyph unicode="Q" horiz-adv-x="1308" d="M123 420q0 55 12 117l84 432q43 221 184.5 338.5t376.5 117.5q100 0 190.5 -30.5t158 -86t106.5 -134t39 -177.5q0 -23 -2 -45t-6 -45l-86 -465q-41 -213 -177.5 -331.5t-369.5 -122.5l-10 -66q-2 -10 -3.5 -19t-1.5 -18q0 -41 33 -57t129 -18l-30 -177q-16 -2 -33 -3 t-33 -1q-139 0 -210 57.5t-71 159.5q0 16 2.5 36t6.5 40l20 88q-66 20 -122 56t-98 87.5t-65.5 118t-23.5 148.5zM358 430q0 -121 74 -175t180 -54q156 0 235 77.5t109 233.5l76 385q6 37 6 66q0 61 -22.5 107t-60 78t-86 47t-97.5 15q-135 0 -217 -68.5t-111 -221.5 l-77 -408q-4 -23 -6.5 -43t-2.5 -39z" />
<glyph unicode="R" horiz-adv-x="1193" d="M35 0l274 1411h592q88 0 152.5 -30.5t106.5 -81t62.5 -116t20.5 -132.5q0 -63 -16.5 -129t-54 -127.5t-99 -114.5t-151.5 -90l143 -590h-252q-31 137 -60.5 274.5t-58.5 274.5h-317q-29 -137 -54.5 -274.5t-52.5 -274.5h-235zM418 762h321q57 0 106.5 19.5t86.5 53 t57.5 82t20.5 105.5q0 80 -47.5 128t-139.5 48h-319z" />
<glyph unicode="S" horiz-adv-x="1165" d="M23 176q10 10 30.5 33.5t42 49.5t42 49.5t30.5 33.5q72 -66 168 -102.5t205 -36.5q152 0 237.5 66.5t85.5 164.5q0 45 -23.5 75t-62.5 50.5t-86 34.5t-96 27q-74 16 -144.5 41.5t-124 66.5t-86 101.5t-32.5 146.5q0 104 40 189t110.5 144.5t166.5 93.5t211 34 q125 0 243 -29t212 -96l-119 -189q-74 53 -162 77t-178 24q-47 0 -97 -13.5t-91 -40t-68.5 -69.5t-27.5 -101q0 -45 23.5 -75.5t60 -52t80.5 -35t85 -21.5q94 -23 171 -51.5t132.5 -70.5t85 -103.5t29.5 -147.5q0 -106 -47 -190t-128 -143.5t-187.5 -91t-223.5 -31.5 q-154 0 -281.5 45t-225.5 143z" />
<glyph unicode="T" horiz-adv-x="1073" d="M188 1198l41 213h1016l-41 -213h-391l-231 -1198h-236l232 1198h-390z" />
<glyph unicode="U" horiz-adv-x="1273" d="M117 393q0 27 2 54.5t8 56.5l176 907h236l-181 -913q-6 -37 -6 -70q0 -61 22.5 -105t57.5 -72t80 -40t88 -12q59 0 116.5 16t104.5 52t82 92.5t51 138.5l176 913h238l-188 -965q-23 -111 -75 -196.5t-129 -144t-175.5 -88t-212.5 -29.5q-92 0 -178 24.5t-150.5 75.5 t-103.5 127t-39 178z" />
<glyph unicode="V" horiz-adv-x="1196" d="M215 1411h244q14 -121 29.5 -238.5t25.5 -238.5q14 -162 28.5 -299t28.5 -285h13l211 436q76 160 153.5 312.5t155.5 312.5h258l-721 -1411h-246z" />
<glyph unicode="W" horiz-adv-x="1812" d="M213 1411h240l24 -604l15 -451h12l198 455l265 600h241l37 -625l21 -430h12l182 435l264 620h246l-635 -1411h-258l-37 586l-20 418h-14l-185 -422l-258 -582h-258z" />
<glyph unicode="X" horiz-adv-x="1171" d="M-59 0l577 723l-278 688h260l178 -498l369 498h276l-547 -688l309 -723h-264l-200 535l-404 -535h-276z" />
<glyph unicode="Y" horiz-adv-x="1120" d="M203 1411h241l95 -367l67 -270h10l199 309l213 328h258l-590 -864l-104 -547h-234l105 547z" />
<glyph unicode="Z" horiz-adv-x="1087" d="M-8 0l39 203l860 997h-639l41 211h919l-36 -197l-871 -1005h674l-41 -209h-946z" />
<glyph unicode="[" horiz-adv-x="559" d="M20 -209l318 1639h379l-29 -148h-186l-262 -1343h188l-29 -148h-379z" />
<glyph unicode="\" horiz-adv-x="684" d="M193 1485h172l208 -1571h-170z" />
<glyph unicode="]" horiz-adv-x="559" d="M-74 -209l29 148h186l260 1343h-186l29 148h379l-320 -1639h-377z" />
<glyph unicode="^" horiz-adv-x="1058" d="M82 608l569 815h158l248 -813h-178l-185 604l-418 -606h-194z" />
<glyph unicode="_" horiz-adv-x="1009" d="M-137 -285l28 144h1010l-29 -144h-1009z" />
<glyph unicode="`" horiz-adv-x="1021" d="M397 1475l176 71l244 -362l-100 -62z" />
<glyph unicode="a" horiz-adv-x="1050" d="M66 256q0 41 10 98l59 305q35 180 133.5 273.5t268.5 93.5q53 0 125.5 -19.5t168.5 -78.5l39 86h197l-199 -1014h-196l-2 94q-63 -31 -112.5 -51t-88.5 -31.5t-69.5 -16.5t-57.5 -5q-135 0 -205.5 69.5t-70.5 196.5zM293 322q0 -66 33.5 -93.5t89.5 -27.5q55 0 133 30.5 t164 73.5l80 430q-49 37 -118 62.5t-134 25.5q-68 0 -119 -43t-72 -143l-51 -254q-6 -35 -6 -61z" />
<glyph unicode="b" horiz-adv-x="1046" d="M33 109l262 1357h219l-106 -546q117 66 195.5 86t131.5 20q141 0 209 -68.5t68 -191.5q0 -51 -13 -109l-53 -280q-41 -209 -158.5 -298t-310.5 -89q-35 0 -85 5t-109.5 19.5t-124 37t-125.5 57.5zM274 242q59 -31 120 -44.5t114 -13.5q88 0 144.5 49.5t74.5 145.5l51 256 q6 33 6 59q0 70 -35.5 97.5t-89.5 27.5q-55 0 -134 -30.5t-158 -79.5z" />
<glyph unicode="c" horiz-adv-x="899" d="M86 311q0 45 8 84l49 267q35 180 152 272t297 92q45 0 94 -7t94 -23.5t85 -44t71 -68.5l-137 -154q-51 61 -111.5 79.5t-101.5 18.5q-90 0 -151.5 -50t-84.5 -161l-43 -217q-2 -12 -3 -24.5t-1 -24.5q0 -43 15.5 -73.5t41 -49t57.5 -28t64 -9.5q45 0 107.5 18.5 t122.5 70.5l123 -164q-90 -72 -187.5 -98.5t-195.5 -26.5q-74 0 -139.5 20.5t-116 60.5t-80 100t-29.5 140z" />
<glyph unicode="d" horiz-adv-x="1050" d="M68 252q0 25 3 50.5t7 53.5l59 306q33 170 145.5 267t278.5 97q53 0 126 -11t153 -46l98 497h215l-283 -1466h-196l-2 100q-111 -66 -191 -88t-135 -22q-131 0 -204.5 66.5t-73.5 195.5zM293 315q0 -66 34.5 -93t92.5 -27q27 0 61.5 7t73.5 20.5t79 32.5t77 42l90 465 q-68 29 -127.5 44t-114.5 15q-72 0 -130 -43t-81 -145l-49 -260q-6 -31 -6 -58z" />
<glyph unicode="e" horiz-adv-x="987" d="M68 322q0 131 28.5 258t91 226t163 159.5t241.5 60.5q180 0 268 -81t88 -197q0 -74 -31.5 -137.5t-99 -109.5t-175 -73t-261.5 -27h-44.5t-43.5 2q-4 -16 -6 -31.5t-2 -29.5q0 -78 52 -120t138 -42q53 0 112.5 21.5t114.5 74.5q31 -41 63 -80.5t60 -80.5 q-96 -76 -192 -100.5t-193 -24.5q-166 0 -269 83t-103 249zM322 575q23 -2 44 -2h40q100 0 161.5 13.5t95 35t45 48t11.5 51.5q0 49 -30.5 79.5t-108.5 30.5q-111 0 -170.5 -68.5t-87.5 -187.5z" />
<glyph unicode="f" horiz-adv-x="661" d="M-219 -406l37 189q16 -2 31.5 -3t31.5 -1q51 0 85 11t54.5 32.5t31.5 54.5t20 74l172 885h-135l34 180h136l26 131q14 74 35.5 136.5t62.5 108.5t104.5 72.5t160.5 26.5q35 0 74.5 -4t86.5 -12l-36 -189q-23 4 -44.5 4h-39.5q-53 0 -87 -11t-54.5 -31.5t-31 -50.5 t-16.5 -69l-22 -112h233l-35 -180h-233l-176 -902q-16 -78 -37 -142t-58.5 -111.5t-99 -74t-158.5 -26.5q-35 0 -71.5 2t-81.5 12z" />
<glyph unicode="g" horiz-adv-x="1038" d="M-8 -270l149 139q18 -25 48 -42t62 -29.5t64.5 -17.5t57.5 -5q45 0 88 10t78.5 33.5t63.5 64.5t40 103l25 116q-117 -70 -196 -87t-132 -17q-141 0 -207.5 68.5t-66.5 191.5q0 27 3 53.5t7 55.5l51 274q39 207 157.5 297t307.5 90q33 0 84 -6t111.5 -19.5t125 -37 t125.5 -58.5l-184 -966q-72 -365 -492 -365q-49 0 -102 10.5t-103.5 29.5t-93.5 48t-71 66zM291 328q0 -68 35.5 -95.5t89.5 -27.5q55 0 134 27.5t159 80.5l90 463q-59 29 -120 42t-114 13q-178 0 -219 -194l-49 -250q-6 -35 -6 -59z" />
<glyph unicode="h" horiz-adv-x="1050" d="M16 0l287 1466h217l-108 -548q63 37 114.5 58t91 32.5t71.5 14.5t59 3q133 0 202.5 -69.5t69.5 -192.5q0 -23 -2 -48.5t-8 -53.5l-127 -662h-219l122 633q6 33 7 59q0 70 -37 97.5t-92 27.5t-130 -26.5t-163 -83.5l-138 -707h-217z" />
<glyph unicode="i" horiz-adv-x="546" d="M117 209q0 43 8 84l139 723h217l-131 -674q-4 -23 -7 -40t-1 -32q0 -51 25.5 -66.5t74.5 -19.5l-41 -188h-36q-117 0 -182.5 51t-65.5 162zM301 1280q0 17 2 25q10 53 52 89t94 36q47 0 75.5 -29t28.5 -72q0 -31 -13.5 -57.5t-35 -47t-48 -32.5t-55.5 -12 q-45 0 -72.5 28.5t-27.5 71.5z" />
<glyph unicode="j" horiz-adv-x="526" d="M-182 -420l37 201q23 -2 44 -2q70 0 105 27q45 34 62 122l210 1088h216l-216 -1116q-12 -70 -31.5 -130.5t-54 -105.5t-91 -71.5t-144.5 -26.5q-29 0 -63.5 3t-73.5 11zM307 1282q0 29 13.5 55.5t34 47t47 33t55.5 12.5q47 0 76.5 -29t29.5 -72q0 -31 -13 -57.5 t-34.5 -46t-49.5 -31.5t-56 -12q-43 0 -73 28.5t-30 71.5z" />
<glyph unicode="k" horiz-adv-x="1005" d="M41 0l278 1466h216l-150 -776h119q59 0 111.5 23.5t93.5 99.5l112 203h242l-143 -254q-35 -59 -75 -107.5t-110 -68.5q39 -14 62.5 -36t36 -49.5t18.5 -59t10 -64.5l51 -377h-219l-41 328q-10 90 -45 122.5t-112 32.5h-150l-92 -483h-213z" />
<glyph unicode="l" horiz-adv-x="528" d="M90 190q0 20 3 44t7 49l228 1183h213l-222 -1165q-2 -12 -3 -21.5t-1 -19.5q0 -43 32 -56.5t104 -15.5l-37 -194h-70q-135 0 -194.5 49t-59.5 147z" />
<glyph unicode="m" horiz-adv-x="1585" d="M12 0l197 1014h199v-101q63 43 108 65.5t79 33t60.5 12.5t55.5 2q86 0 138 -32.5t83 -92.5q125 76 208 100.5t142 24.5q72 0 124 -21.5t85 -58.5t48 -86t15 -106q0 -23 -3 -47.5t-7 -49.5l-127 -657h-219l125 637q6 25 6 49q0 57 -31.5 94t-93.5 37q-47 0 -106.5 -19.5 t-139.5 -72.5q0 -23 -6 -58.5t-10 -58.5l-117 -608h-217l123 633q6 27 6 53q0 53 -26.5 90t-87.5 37q-43 0 -103.5 -24.5t-152.5 -88.5q-35 -176 -68 -350t-68 -350h-219z" />
<glyph unicode="n" horiz-adv-x="1050" d="M16 0l199 1014h195l2 -96q70 39 121 60t90 31.5t68.5 13.5t56.5 3q133 0 202.5 -68.5t69.5 -191.5q0 -23 -2 -48.5t-8 -53.5l-127 -664h-219l122 633q6 33 7 61q0 68 -36 95.5t-93 27.5q-113 0 -293 -110l-138 -707h-217z" />
<glyph unicode="o" horiz-adv-x="1050" d="M96 346q0 23 2 45.5t6 46.5l39 213q35 182 147.5 278.5t309.5 96.5q92 0 166 -27.5t126 -77t80.5 -116t28.5 -143.5q0 -45 -8 -84l-43 -226q-39 -195 -159.5 -278.5t-298.5 -83.5q-74 0 -146 21.5t-127 65.5t-89 110.5t-34 158.5zM315 369q0 -49 16.5 -83t43 -55.5 t59.5 -31t66 -9.5q41 0 78.5 9.5t69.5 32t56.5 63.5t36.5 104l37 179q6 31 6 59q0 92 -56 140t-138 48q-88 0 -150.5 -46t-85.5 -163l-35 -192q-4 -16 -4 -29.5v-25.5z" />
<glyph unicode="p" horiz-adv-x="1042" d="M-61 -406l274 1420h197v-101q117 63 195.5 87t131.5 24q131 0 206 -62.5t75 -195.5q0 -47 -12 -109l-60 -305q-33 -170 -135 -267t-291 -97q-53 0 -122.5 10t-155.5 51l-88 -455h-215zM283 252q78 -37 132 -48t109 -11q72 0 129.5 37.5t77.5 142.5l51 266q8 33 9 63 q0 66 -36 90.5t-91 24.5q-27 0 -63 -8t-75 -22.5t-78.5 -33t-76.5 -38.5z" />
<glyph unicode="q" horiz-adv-x="1034" d="M70 250q0 27 3 53.5t7 54.5l53 283q39 207 153.5 297t315.5 90q33 0 84 -6t109.5 -19.5t123 -37t125.5 -58.5l-249 -1313h-220l97 500q-59 -35 -108.5 -56.5t-89.5 -31.5t-71.5 -13t-58.5 -3q-141 0 -207.5 68.5t-66.5 191.5zM295 322q0 -70 36 -97.5t89 -27.5 q55 0 135 28.5t158 79.5l90 471q-57 29 -117.5 42t-114.5 13q-86 0 -144 -48t-77 -146l-49 -258q-6 -31 -6 -57z" />
<glyph unicode="r" horiz-adv-x="710" d="M37 0l196 1016h193l-6 -146h2q33 27 77 54.5t95 50t106.5 37t108.5 16.5l-33 -231q-139 -20 -232 -47t-159 -64l-131 -686h-217z" />
<glyph unicode="s" horiz-adv-x="942" d="M4 129q66 82 131 156q66 -63 138.5 -87t158.5 -24q88 0 148.5 39t60.5 104q0 43 -37 64.5t-91 36t-118.5 28t-119 40t-91.5 73.5t-37 127q0 88 38 151.5t97.5 104.5t133 61.5t147.5 20.5q117 0 210 -23.5t169 -89.5q-29 -41 -60.5 -82t-60.5 -81q-66 49 -131 67.5 t-137 18.5q-92 0 -140 -40t-48 -87q0 -23 14 -39.5t36.5 -28.5t51.5 -19.5t57 -13.5q49 -8 108.5 -21.5t112 -42t87 -76.5t34.5 -126q0 -88 -36.5 -153.5t-99 -109.5t-144.5 -65.5t-174 -21.5q-111 0 -213.5 26.5t-194.5 112.5z" />
<glyph unicode="t" horiz-adv-x="745" d="M137 831l35 185h139l88 241h168l-47 -241h250l-35 -185h-250l-88 -460q-4 -20 -5 -38t-3 -34q0 -47 25.5 -74.5t93.5 -27.5q31 0 72 4t88 8l6 -186q-33 -10 -69 -17.5t-69.5 -10.5t-62.5 -4t-47 -1q-74 0 -125 15t-82 45t-44 71t-13 92t12 113l98 505h-135z" />
<glyph unicode="u" horiz-adv-x="1056" d="M72 256q0 25 3 50.5t7 53.5l129 654h219l-125 -633q-6 -31 -6 -57q0 -68 36 -96.5t89 -28.5q55 0 131 28.5t168 85.5l137 701h217l-196 -1014h-197l-4 98q-61 -37 -111.5 -59.5t-91.5 -33.5t-73.5 -14t-59.5 -3q-135 0 -203.5 72.5t-68.5 195.5z" />
<glyph unicode="v" horiz-adv-x="962" d="M119 1014h233q2 -12 9.5 -69.5t16.5 -123t16 -122t7 -68.5q2 -8 5.5 -36t7.5 -62.5t8 -75.5t8 -76t7 -62.5t3 -35.5h9l239 448q23 43 38 75t25.5 60.5t14.5 56t4 58.5v37h223v-35q0 -92 -24.5 -158.5t-69.5 -142.5l-399 -682h-211z" />
<glyph unicode="w" horiz-adv-x="1443" d="M119 1016h223l25 -320q6 -94 14 -185t14 -185h13q43 92 90 181t90 181l117 230h196q8 -59 15.5 -119t17.5 -119q14 -92 23.5 -182t23.5 -181h10l199 412q37 82 51 136.5t14 111.5v41h220v-39q0 -78 -17.5 -147.5t-58.5 -147.5l-361 -684h-202q-23 154 -42.5 307.5 t-39.5 306.5q-2 0 -4 1t-5 1q-14 -29 -28.5 -60.5t-36 -74.5t-52 -104.5t-73.5 -149.5q-29 -55 -56.5 -111.5t-56.5 -115.5h-206z" />
<glyph unicode="x" horiz-adv-x="962" d="M-80 0l455 518l-240 498h252l125 -340l270 340h265l-439 -494l258 -522h-256l-141 354l-287 -354h-262z" />
<glyph unicode="y" horiz-adv-x="925" d="M41 -410l229 430l-65 60l-99 936h222l28 -395l27 -398h8l266 508q23 43 38.5 76t24.5 60.5t13 55t4 58.5v37h219v-35q0 -92 -25.5 -158.5t-68.5 -142.5l-598 -1092h-223z" />
<glyph unicode="z" horiz-adv-x="946" d="M-8 0l33 176l647 651h-490l35 187h760l-33 -174l-645 -645h518l-37 -195h-788z" />
<glyph unicode="{" horiz-adv-x="559" d="M51 541l27 139q82 10 133 76.5t70 163.5l53 274q20 106 91 168.5t157 62.5h155l-26 -143h-70q-37 0 -59.5 -14.5t-38 -38t-22.5 -51t-13 -54.5l-49 -250q-12 -59 -36 -103t-52.5 -75.5t-58 -51t-50.5 -28.5l-2 -8q35 -14 70 -60t35 -128q0 -29 -7 -66l-51 -258 q-8 -41 -8 -76q0 -84 78 -83h69l-26 -142h-135q-82 0 -132.5 50.5t-50.5 134.5q0 27 7 55l53 270q8 39 8 80q0 68 -29.5 110t-89.5 46z" />
<glyph unicode="|" horiz-adv-x="454" d="M141 -377v1854h172v-1854h-172z" />
<glyph unicode="}" horiz-adv-x="559" d="M-98 -205l26 142h72q33 0 55.5 15t38 37.5t23.5 51.5t14 55l49 258q10 57 34 100.5t52.5 75t58 51t52.5 27.5l2 8q-33 14 -68 59.5t-35 129.5q-2 16 0.5 33.5t6.5 35.5l47 250q10 45 10 80q0 33 -14.5 55.5t-59.5 22.5h-76l25 137h156q86 0 127 -44t41 -118q0 -31 -7 -63 l-55 -274q-4 -20 -6 -40t-2 -38q0 -66 28.5 -110t90.5 -52l-29 -139q-80 -6 -130 -69.5t-71 -166.5l-53 -278q-20 -104 -91 -168t-157 -64h-155z" />
<glyph unicode="~" horiz-adv-x="1050" d="M68 537q70 92 148.5 140t176.5 48q47 0 93 -20.5t91.5 -44t89.5 -44t87 -20.5q41 0 83 24.5t103 98.5l113 -96q-72 -109 -151 -158t-173 -49q-45 0 -90 20.5t-91 44t-92 44t-94 20.5q-49 0 -90 -24.5t-94 -84.5z" />
<glyph unicode="&#xa1;" horiz-adv-x="514" d="M2 -410l215 1020h189l-185 -1020h-219zM221 856q0 70 49 121t123 51q53 0 83 -31.5t30 -78.5q0 -31 -12.5 -62t-34 -55.5t-52 -40t-67.5 -15.5q-57 0 -88 32t-31 79z" />
<glyph unicode="&#xa2;" horiz-adv-x="892" d="M86 309q0 45 8 86l49 267q33 174 138.5 266t285.5 96l45 229h103l-45 -233q76 -10 147.5 -41t118.5 -96l-137 -154q-41 47 -85 67.5t-83 26.5l-121 -630q43 4 97.5 23.5t103.5 62.5l123 -164q-86 -70 -179.5 -96.5t-185.5 -28.5l-45 -244h-105l50 252q-59 8 -110.5 32.5 t-90.5 63.5t-60.5 93.5t-21.5 121.5zM303 348q0 -61 31 -96t74 -49l120 616q-74 -10 -116.5 -60t-61.5 -143l-43 -217q-4 -14 -4 -26.5v-24.5z" />
<glyph unicode="&#xa3;" horiz-adv-x="1058" d="M20 0l31 162q90 92 153.5 195.5t92.5 226.5h-176l33 159h151q-6 66 -18.5 128.5t-12.5 125.5q0 80 26 158t79 139.5t136 100.5t198 39q147 0 251.5 -56.5t163.5 -179.5l-190 -102q-31 55 -84 96t-141 41q-55 0 -94 -20.5t-64 -54.5t-36 -77t-11 -88q0 -59 14.5 -119.5 t14.5 -130.5h301l-33 -159h-291q-27 -111 -71 -210.5t-115 -185.5h604l-35 -188h-877z" />
<glyph unicode="&#xa4;" horiz-adv-x="1138" d="M72 283l141 137q-74 117 -74 235q0 59 19.5 117.5t54.5 116.5l-141 139l116 117l140 -139q117 74 237 73q66 0 123 -18.5t115 -52.5l24.5 24.5t43 44t43 44t26.5 24.5l117 -119l-139 -137q35 -57 54 -115.5t19 -118.5q0 -63 -18.5 -119.5t-54.5 -115.5q31 -29 69.5 -66 t69.5 -69l-117 -119l-137 139q-55 -37 -113.5 -56.5t-124.5 -19.5q-125 0 -237 76l-140 -139q-6 6 -22 23.5t-35.5 36t-36 34.5t-22.5 23zM309 655q0 -53 19.5 -99t54.5 -81t81 -55.5t99 -20.5t100.5 20.5t82 55.5t54 81t19.5 99t-19.5 100.5t-54 82t-82 54t-100.5 19.5 t-99 -20.5t-81 -55t-54.5 -81t-19.5 -99.5z" />
<glyph unicode="&#xa5;" horiz-adv-x="1058" d="M82 315l27 142h311l16 90l-16 65h-279l29 148h215l-162 651h244l119 -625h14l358 625h261l-414 -651h219l-29 -148h-282l-41 -65l-19 -90h312l-27 -142h-311l-60 -315h-235l59 315h-309z" />
<glyph unicode="&#xa6;" horiz-adv-x="454" d="M141 -377v862h172v-862h-172zM141 608v869h172v-869h-172z" />
<glyph unicode="&#xa7;" horiz-adv-x="911" d="M45 -29l86 148q88 -63 219 -64q33 0 69 10.5t63.5 30t46 50t18.5 73.5q0 47 -37 85t-127 79q-49 25 -93 52.5t-76 61t-51.5 76.5t-19.5 99q0 70 40 148.5t134 146.5q-20 29 -32.5 66.5t-12.5 78.5q0 76 31 136.5t83 103.5t122.5 65.5t148.5 22.5q37 0 77 -5t80 -14.5 t75 -23t59 -31.5l-94 -154q-43 29 -88 44.5t-102 15.5q-29 0 -61 -9.5t-58.5 -26.5t-44 -45t-17.5 -65q0 -72 97 -127q57 -35 110 -65.5t94 -66.5t65.5 -83t24.5 -114q0 -86 -40.5 -153.5t-122.5 -137.5q16 -25 31.5 -66t15.5 -88q0 -86 -38 -150.5t-97.5 -106.5t-131 -62.5 t-141.5 -20.5q-78 0 -165 22.5t-140 63.5zM336 709q0 -43 26.5 -71t65.5 -50.5t82 -43t76 -46.5q43 27 65.5 65.5t22.5 73.5q0 39 -23.5 70.5t-60.5 58.5t-79 49t-79 45q-45 -31 -70.5 -70.5t-25.5 -80.5z" />
<glyph unicode="&#xa8;" horiz-adv-x="1003" d="M344 1270q0 57 44 100t99 43q45 0 72 -27.5t27 -68.5q0 -29 -12.5 -53.5t-33 -45t-46 -31.5t-52.5 -11q-43 0 -70.5 26.5t-27.5 67.5zM748 1270q0 57 43 100t100 43q43 0 70.5 -27.5t27.5 -68.5q0 -57 -45 -99t-100 -42q-41 0 -68.5 26.5t-27.5 67.5z" />
<glyph unicode="&#xa9;" horiz-adv-x="1691" d="M117 707q0 162 57 300t156.5 238.5t232.5 157.5t285 57t285 -56t232 -157.5t156.5 -240t57.5 -299.5q0 -162 -57.5 -299.5t-156.5 -238.5t-232 -158.5t-285 -57.5t-285 56.5t-232.5 157.5t-156.5 238.5t-57 301.5zM260 707q0 -131 45 -245t125 -198t187.5 -132t230.5 -48 t230.5 48t185 132t123 197.5t45.5 245.5q0 131 -45.5 244.5t-123 197.5t-185 131t-230.5 47t-230.5 -48t-187.5 -132t-125 -197.5t-45 -242.5zM528 522v338q0 70 30 124t79 91t110.5 56.5t122.5 19.5q72 0 144.5 -21.5t126.5 -64.5l-80 -121q-45 39 -94 53.5t-93 14.5 q-33 0 -66.5 -10.5t-61 -32t-46 -56t-18.5 -86.5v-266q0 -51 18.5 -86t46 -57.5t61.5 -32.5t66 -10q41 0 89.5 14t93.5 49l76 -119q-53 -41 -122 -62t-139 -21q-63 0 -124.5 18t-110.5 54t-79 89.5t-30 124.5z" />
<glyph unicode="&#xaa;" horiz-adv-x="724" d="M131 748q0 29 6 59l37 197q23 117 90.5 179t188.5 62q35 0 83 -12t113 -47l25 49h151l-127 -668h-151v64q-80 -35 -129 -52.5t-86 -17.5q-96 0 -148.5 51.5t-52.5 135.5zM303 788q0 -41 22.5 -58t57.5 -17t86 20.5t102 46.5l47 262q-35 23 -77.5 37.5t-83.5 14.5t-74 -28 t-43 -83l-33 -162q-2 -10 -3 -17t-1 -16z" />
<glyph unicode="&#xab;" horiz-adv-x="1030" d="M102 469l353 401h209l-359 -411l184 -389h-192zM485 469l351 401h211l-359 -411l184 -389h-194z" />
<glyph unicode="&#xac;" horiz-adv-x="1058" d="M70 522l34 166h951l-109 -555h-190l75 389h-761z" />
<glyph unicode="&#xad;" horiz-adv-x="819" d="M104 444l39 193h617l-37 -193h-619z" />
<glyph unicode="&#xae;" horiz-adv-x="1054" d="M127 1032q0 86 31.5 159t86 126t125 84t150.5 31q82 0 153.5 -31t125 -84t84 -126t30.5 -159t-31.5 -158.5t-85 -126t-125 -84t-151.5 -30.5t-151.5 30.5t-126 84t-85 126t-30.5 158.5zM215 1032q0 -68 23.5 -126t65.5 -101t97.5 -67.5t118.5 -24.5t119.5 24.5t97.5 67.5 t64.5 101.5t23.5 125.5q0 68 -23.5 125t-64.5 100t-97.5 68t-119.5 25t-118.5 -25t-97.5 -68t-65.5 -100t-23.5 -125zM377 817v436h172q57 0 98 -34.5t41 -94.5q0 -35 -18.5 -65.5t-59.5 -52.5l92 -189h-92l-75 174h-72v-174h-86zM463 1071h82q27 0 43 14.5t16 38.5 q0 49 -55 50h-86v-103z" />
<glyph unicode="&#xaf;" horiz-adv-x="1028" d="M391 1214l37 183h594l-37 -183h-594z" />
<glyph unicode="&#xb0;" horiz-adv-x="821" d="M115 1149q0 59 23.5 112.5t63.5 92.5t93 61.5t115 22.5q63 0 117.5 -22.5t94.5 -61.5t61.5 -92.5t21.5 -112.5t-24 -111.5t-63.5 -91.5t-93 -61.5t-114.5 -22.5t-114.5 22.5t-93.5 61.5t-63.5 91.5t-23.5 111.5zM256 1149q0 -61 44 -106.5t110 -45.5t109.5 45.5 t43.5 106.5q0 63 -44 107t-109 44q-63 0 -108.5 -44t-45.5 -107z" />
<glyph unicode="&#xb1;" horiz-adv-x="1058" d="M-20 0l30 164h944l-30 -164h-944zM100 616l33 166h385l70 361h172l-70 -361h383l-33 -166h-383l-69 -356h-172l69 356h-385z" />
<glyph unicode="&#xb2;" horiz-adv-x="667" d="M111 752l22 120q10 59 40 105.5t71 84.5t90 69.5t98 60.5q31 18 65.5 38.5t65.5 44t51.5 49.5t20.5 54q0 41 -36 59.5t-83 18.5q-49 0 -98 -17.5t-96 -47.5l-68 127q63 43 138 66.5t153 23.5q49 0 96 -9.5t84 -33t60.5 -62.5t23.5 -98q0 -53 -22.5 -96t-59.5 -80t-82 -68 t-88 -61q-31 -23 -68.5 -44.5t-72.5 -46t-61.5 -53t-39.5 -61.5h406q-8 -37 -13.5 -73t-13.5 -70h-583z" />
<glyph unicode="&#xb3;" horiz-adv-x="665" d="M109 829l102 127q35 -31 84 -47t92 -16q70 0 119 34t49 93q0 43 -29.5 67.5t-74.5 24.5h-117l26 141h117q18 0 43 7.5t46.5 20.5t36.5 34.5t15 52.5q0 47 -35.5 67.5t-82.5 20.5q-43 0 -96.5 -16.5t-102.5 -48.5l-63 127q70 47 141.5 67.5t155.5 20.5q49 0 95 -10.5 t80.5 -35t56 -63.5t21.5 -96q0 -72 -45 -136.5t-131 -82.5l2 -2q61 -25 85 -70t24 -92q0 -68 -28.5 -119t-77 -87t-108.5 -53.5t-122 -17.5q-84 0 -158.5 23.5t-119.5 64.5z" />
<glyph unicode="&#xb4;" horiz-adv-x="1021" d="M596 1167l229 379l189 -63l-299 -365z" />
<glyph unicode="&#xb6;" horiz-adv-x="1079" d="M197 1008q0 100 36.5 182t98 138t143.5 87t172 31h184l-143 -776h-172q-76 0 -135 25.5t-100 70.5t-62.5 106.5t-21.5 135.5zM406 -115q90 10 146 32t90 55.5t50.5 78.5t26.5 101l239 1294h183l-246 -1327q-18 -96 -49 -170t-86 -125t-140 -78t-210 -31z" />
<glyph unicode="&#xb7;" horiz-adv-x="507" d="M129 543q0 37 16.5 69.5t42 58t58.5 40t67 14.5q55 0 91 -35t36 -88q0 -37 -15 -69.5t-41 -58t-59.5 -41t-70.5 -15.5q-55 0 -90 35.5t-35 89.5z" />
<glyph unicode="&#xb8;" horiz-adv-x="905" d="M139 -391l54 100q41 -20 81.5 -26.5t71.5 -6.5q37 0 74 19.5t37 62.5q0 20 -10.5 32.5t-25.5 18t-32.5 4.5t-32.5 -6l-73 48l120 239l109 -6l-86 -166q49 0 84 -14t56.5 -37t30.5 -50.5t9 -51.5q0 -37 -16.5 -74t-49 -66.5t-81.5 -47t-113 -17.5q-18 0 -44 2t-53.5 7 t-56 14.5t-53.5 21.5z" />
<glyph unicode="&#xb9;" horiz-adv-x="526" d="M205 1438l235 159h150l-164 -845h-168l125 639l-107 -70z" />
<glyph unicode="&#xba;" horiz-adv-x="722" d="M158 809v28.5t4 28.5l24 129q23 119 104 184.5t210 65.5q68 0 119 -20.5t86.5 -54t53 -80t17.5 -97.5v-24.5t-4 -26.5l-24 -137q-20 -115 -99.5 -180.5t-214.5 -65.5q-121 0 -198.5 67.5t-77.5 182.5zM324 815q0 -57 36.5 -83.5t77.5 -26.5q53 0 94 29.5t56 101.5l22 112 q4 10 4 18.5v18.5q0 53 -33.5 83t-84.5 30q-55 0 -97.5 -29t-52.5 -98l-20 -125q-2 -10 -2 -31z" />
<glyph unicode="&#xbb;" horiz-adv-x="1030" d="M20 70l359 411l-184 389h192l195 -401l-351 -399h-211zM403 70l357 411l-182 389h192l195 -401l-353 -399h-209z" />
<glyph unicode="&#xbc;" horiz-adv-x="1689" d="M246 -35l1161 1495h162l-1163 -1495h-160zM326 1253l235 160h150l-164 -846h-168l125 639l-107 -69zM928 121l24 125l416 600h178l-401 -582h196l45 232h170l-45 -232h76l-28 -143h-76l-25 -121h-170l25 121h-385z" />
<glyph unicode="&#xbd;" horiz-adv-x="1689" d="M170 -35l1161 1495h162l-1163 -1495h-160zM272 1253l236 160h149l-163 -846h-168l125 639l-107 -69zM967 0q4 29 9 59.5t11 61.5q12 72 55 126t98.5 96t117 77t112.5 66.5t85 65.5t34 75t-37 59.5t-84 18.5t-96 -17.5t-96 -48.5l-68 127q61 43 136 66.5t155 23.5 q49 0 96 -9t85 -32.5t60.5 -62.5t22.5 -99q0 -57 -24.5 -102t-64.5 -83t-88 -69.5t-95 -62.5q-31 -20 -66 -41t-65.5 -44.5t-54 -50t-36.5 -57.5h406q-8 -37 -14.5 -72.5t-12.5 -70.5h-581z" />
<glyph unicode="&#xbe;" horiz-adv-x="1689" d="M174 645l102 127q35 -31 84.5 -47t92.5 -16q70 0 119 33.5t49 93.5q0 43 -30 67.5t-75 24.5h-117l27 141h117q18 0 42.5 7t46 20.5t37 35t15.5 52.5q0 47 -36 67.5t-83 20.5q-43 0 -96 -16.5t-102 -49.5l-64 127q70 47 141.5 67.5t155.5 20.5q49 0 95 -10t81 -34.5 t56.5 -63.5t21.5 -96q0 -72 -45 -136.5t-131 -83.5l2 -2q61 -25 84.5 -69.5t23.5 -91.5q0 -68 -28.5 -119t-76.5 -87t-108.5 -53.5t-121.5 -17.5q-84 0 -159 23.5t-120 64.5zM336 -35l1161 1495h162l-1163 -1495h-160zM963 121l24 125l416 600h178l-401 -582h196l45 232h170 l-45 -232h76l-29 -143h-75l-25 -121h-170l25 121h-385z" />
<glyph unicode="&#xbf;" horiz-adv-x="970" d="M74 -98q0 68 28.5 128t75.5 120q41 51 87 98t88 94t75 99.5t45 113.5l14 74h222l-15 -72q-12 -63 -37.5 -116.5t-59.5 -101.5t-75 -94t-84 -95q-45 -47 -80.5 -101.5t-35.5 -111.5q0 -59 40.5 -98.5t124.5 -39.5q72 0 147 28t138 75q23 -45 41 -90t39 -91 q-100 -70 -205.5 -100.5t-218.5 -30.5q-78 0 -143.5 22.5t-112.5 64.5t-72.5 99.5t-25.5 125.5zM500 877q0 61 43 105t108 44q55 0 85 -31.5t30 -83.5q0 -57 -39.5 -103t-105.5 -46q-57 0 -89 33.5t-32 81.5z" />
<glyph unicode="&#xc0;" horiz-adv-x="1263" d="M-61 0l761 1411h238l217 -1411h-246l-37 305h-524l-158 -305h-251zM440 1716l131 146l351 -263l-80 -96zM455 508h389l-35 276l-39 328h-8l-158 -315z" />
<glyph unicode="&#xc1;" horiz-adv-x="1263" d="M-61 0l761 1411h238l217 -1411h-246l-37 305h-524l-158 -305h-251zM455 508h389l-35 276l-39 328h-8l-158 -315zM735 1604l373 264l117 -152l-418 -213z" />
<glyph unicode="&#xc2;" horiz-adv-x="1263" d="M-61 0l761 1411h238l217 -1411h-246l-37 305h-524l-158 -305h-251zM455 508h389l-35 276l-39 328h-8l-158 -315zM467 1597l358 261h140l247 -259l-86 -83l-252 170l-344 -175z" />
<glyph unicode="&#xc3;" horiz-adv-x="1263" d="M-61 0l761 1411h238l217 -1411h-246l-37 305h-524l-158 -305h-251zM455 508h389l-35 276l-39 328h-8l-158 -315zM469 1583q57 98 125.5 146.5t140.5 48.5q37 0 70 -13.5t62.5 -31t55 -30.5t50.5 -13q31 0 64.5 20.5t78.5 71.5q27 -16 56.5 -39t58.5 -39 q-59 -106 -125 -150.5t-131 -44.5q-37 0 -70 12.5t-62.5 28t-58 28.5t-57.5 13q-35 0 -65.5 -17.5t-79.5 -68.5z" />
<glyph unicode="&#xc4;" horiz-adv-x="1263" d="M-61 0l761 1411h238l217 -1411h-246l-37 305h-524l-158 -305h-251zM455 508h389l-35 276l-39 328h-8l-158 -315zM543 1624q4 53 47 91t96 38q47 0 73.5 -30.5t22.5 -75.5q-6 -53 -48 -92t-95 -39q-47 0 -74.5 31.5t-21.5 76.5zM952 1626q4 51 47.5 89t94.5 38 q47 0 74.5 -30.5t23.5 -75.5q-6 -53 -49 -92t-94 -39q-47 0 -75 31.5t-22 78.5z" />
<glyph unicode="&#xc5;" horiz-adv-x="1263" d="M-61 0l761 1411h238l217 -1411h-246l-37 305h-524l-158 -305h-251zM455 508h389l-35 276l-39 328h-8l-158 -315zM643 1632q0 51 19.5 97.5t53.5 81t82 56t105 21.5q84 0 138.5 -52t54.5 -130q0 -55 -20.5 -101t-56.5 -80t-84 -52.5t-101 -18.5q-82 0 -136.5 50t-54.5 128 zM770 1651q0 -33 21.5 -54.5t58.5 -21.5q45 0 83 33.5t38 81.5q0 33 -24.5 55t-59.5 22q-47 0 -82 -34.5t-35 -81.5z" />
<glyph unicode="&#xc6;" horiz-adv-x="2031" d="M-10 0l1083 1411h1065l-29 -213h-714l-54 -387h617l-29 -209h-618l-6 -39q-12 -90 -24.5 -178t-27.5 -176h723l-28 -209h-955l51 371l-499 2q-72 -94 -143.5 -187.5t-143.5 -185.5h-268zM682 567l389 -2l92 623h-2z" />
<glyph unicode="&#xc7;" horiz-adv-x="1122" d="M119 391q0 25 3 49.5t7 53.5l92 473q43 221 180.5 339.5t382.5 118.5q119 0 234 -36.5t190 -104.5l-141 -180q-49 51 -133 79.5t-160 28.5q-131 0 -215 -70.5t-115 -228.5l-82 -413q-6 -37 -6 -72q0 -59 21.5 -101t57.5 -70t83 -41t100 -13q76 0 167.5 26.5t160.5 79.5 l98 -192q-88 -66 -210.5 -97.5t-239.5 -33.5l-33 -64q49 0 84 -14t56.5 -37t30.5 -50.5t9 -51.5q0 -37 -16 -74t-49 -66.5t-82 -47t-113 -17.5q-18 0 -43.5 2t-53.5 7t-56.5 14.5t-53.5 21.5l54 100q41 -20 82 -26.5t71 -6.5q37 0 74 19.5t37 62.5q0 20 -10.5 32.5t-25.5 18 t-32.5 4.5t-31.5 -6l-74 48l69 139q-74 12 -141 44t-117.5 81t-80 117.5t-29.5 154.5z" />
<glyph unicode="&#xc8;" horiz-adv-x="1163" d="M47 0l275 1411h935l-40 -211h-703l-74 -387h617l-41 -211h-619l-75 -393h757l-41 -209h-991zM473 1716l131 146l350 -263l-80 -96z" />
<glyph unicode="&#xc9;" horiz-adv-x="1163" d="M47 0l275 1411h935l-40 -211h-703l-74 -387h617l-41 -211h-619l-75 -393h757l-41 -209h-991zM645 1604l373 264l117 -152l-418 -213z" />
<glyph unicode="&#xca;" horiz-adv-x="1163" d="M47 0l275 1411h935l-40 -211h-703l-74 -387h617l-41 -211h-619l-75 -393h757l-41 -209h-991zM442 1597l359 261h139l248 -259l-86 -83l-252 170l-344 -175z" />
<glyph unicode="&#xcb;" horiz-adv-x="1163" d="M47 0l275 1411h935l-40 -211h-703l-74 -387h617l-41 -211h-619l-75 -393h757l-41 -209h-991zM489 1624q4 53 47.5 91t96.5 38q47 0 73.5 -30.5t22.5 -75.5q-6 -53 -48 -92t-95 -39q-47 0 -75 31.5t-22 76.5zM899 1626q4 51 47 89t94 38q47 0 75 -30.5t24 -75.5 q-6 -53 -49 -92t-95 -39q-47 0 -74.5 31.5t-21.5 78.5z" />
<glyph unicode="&#xcc;" horiz-adv-x="559" d="M82 0l274 1411h234l-275 -1411h-233zM104 1716l132 146l350 -263l-80 -96z" />
<glyph unicode="&#xcd;" horiz-adv-x="559" d="M82 0l274 1411h234l-275 -1411h-233zM414 1604l372 264l117 -152l-418 -213z" />
<glyph unicode="&#xce;" horiz-adv-x="559" d="M82 0l274 1411h234l-275 -1411h-233zM137 1597l359 261h139l248 -259l-86 -83l-252 170l-344 -175z" />
<glyph unicode="&#xcf;" horiz-adv-x="559" d="M82 0l274 1411h234l-275 -1411h-233zM186 1632q0 57 43.5 100.5t100.5 43.5q43 0 69.5 -28t26.5 -69q0 -55 -44 -98t-99 -43q-41 0 -69 26.5t-28 67.5zM596 1632q0 57 43 100.5t98 43.5q45 0 72 -28t27 -69q0 -29 -12.5 -53t-33 -44.5t-46 -32t-52.5 -11.5 q-41 0 -68.5 26.5t-27.5 67.5z" />
<glyph unicode="&#xd0;" horiz-adv-x="1263" d="M31 637l32 166h138l118 608h512q90 0 167 -24.5t134.5 -71.5t89 -116t31.5 -157q0 -25 -3 -49t-7 -51l-86 -485q-45 -223 -170 -340t-354 -117h-588l123 637h-137zM319 207h299q51 0 100.5 14.5t90.5 47t71.5 88t47.5 139.5l80 415q8 39 8 78q0 115 -72 163t-176 48h-256 l-78 -397h201l-31 -166h-203z" />
<glyph unicode="&#xd1;" horiz-adv-x="1351" d="M39 0l268 1411h217q12 -27 47 -101.5t81 -175t97.5 -214t97.5 -215t81 -179l49 -108.5h12q47 250 94 496.5t95 496.5h231l-268 -1411h-219q-12 29 -47 102.5t-80 172t-95.5 208t-96.5 210t-82 179t-50 113.5h-12l-189 -985h-231zM500 1585q57 98 125.5 146.5t140.5 48.5 q37 0 69.5 -13.5t62.5 -31t55.5 -30.5t50.5 -13q31 0 64.5 20.5t78.5 71.5q27 -16 56.5 -39t58.5 -39q-59 -106 -125 -150.5t-131 -44.5q-37 0 -70 12.5t-62.5 28t-58.5 28.5t-57 13q-35 0 -65.5 -17t-80.5 -69z" />
<glyph unicode="&#xd2;" horiz-adv-x="1273" d="M123 420q0 55 12 117l84 432q43 221 186.5 338.5t378.5 117.5q100 0 190.5 -30.5t156 -86t104.5 -134t39 -175.5q0 -23 -2 -45t-6 -47l-86 -465q-41 -217 -185.5 -336.5t-392.5 -119.5q-92 0 -179 27.5t-153.5 83t-106.5 136t-40 187.5zM358 434q0 -61 20.5 -105 t55.5 -73t80 -42t94 -13q147 0 232.5 77.5t115.5 233.5l76 385q4 18 6 34.5t2 33.5q0 61 -22.5 107t-59 77t-84 46t-98.5 15q-127 0 -215 -68.5t-117 -221.5l-77 -408q-8 -39 -9 -78zM549 1716l131 146l350 -263l-80 -96z" />
<glyph unicode="&#xd3;" horiz-adv-x="1273" d="M123 420q0 55 12 117l84 432q43 221 186.5 338.5t378.5 117.5q100 0 190.5 -30.5t156 -86t104.5 -134t39 -175.5q0 -23 -2 -45t-6 -47l-86 -465q-41 -217 -185.5 -336.5t-392.5 -119.5q-92 0 -179 27.5t-153.5 83t-106.5 136t-40 187.5zM358 434q0 -61 20.5 -105 t55.5 -73t80 -42t94 -13q147 0 232.5 77.5t115.5 233.5l76 385q4 18 6 34.5t2 33.5q0 61 -22.5 107t-59 77t-84 46t-98.5 15q-127 0 -215 -68.5t-117 -221.5l-77 -408q-8 -39 -9 -78zM719 1604l373 264l116 -152l-417 -213z" />
<glyph unicode="&#xd4;" horiz-adv-x="1273" d="M123 420q0 55 12 117l84 432q43 221 186.5 338.5t378.5 117.5q100 0 190.5 -30.5t156 -86t104.5 -134t39 -175.5q0 -23 -2 -45t-6 -47l-86 -465q-41 -217 -185.5 -336.5t-392.5 -119.5q-92 0 -179 27.5t-153.5 83t-106.5 136t-40 187.5zM358 434q0 -61 20.5 -105 t55.5 -73t80 -42t94 -13q147 0 232.5 77.5t115.5 233.5l76 385q4 18 6 34.5t2 33.5q0 61 -22.5 107t-59 77t-84 46t-98.5 15q-127 0 -215 -68.5t-117 -221.5l-77 -408q-8 -39 -9 -78zM489 1597l359 261h139l248 -259l-86 -83l-252 170l-344 -175z" />
<glyph unicode="&#xd5;" horiz-adv-x="1273" d="M123 420q0 55 12 117l84 432q43 221 186.5 338.5t378.5 117.5q100 0 190.5 -30.5t156 -86t104.5 -134t39 -175.5q0 -23 -2 -45t-6 -47l-86 -465q-41 -217 -185.5 -336.5t-392.5 -119.5q-92 0 -179 27.5t-153.5 83t-106.5 136t-40 187.5zM358 434q0 -61 20.5 -105 t55.5 -73t80 -42t94 -13q147 0 232.5 77.5t115.5 233.5l76 385q4 18 6 34.5t2 33.5q0 61 -22.5 107t-59 77t-84 46t-98.5 15q-127 0 -215 -68.5t-117 -221.5l-77 -408q-8 -39 -9 -78zM479 1583q57 98 125.5 146.5t140.5 48.5q37 0 70 -13.5t62.5 -31t55 -30.5t50.5 -13 q31 0 64.5 20.5t78.5 71.5q27 -16 56.5 -39t58.5 -39q-59 -106 -124.5 -150.5t-131.5 -44.5q-37 0 -69.5 12.5t-62.5 28t-58.5 28.5t-57.5 13q-35 0 -65.5 -17.5t-79.5 -68.5z" />
<glyph unicode="&#xd6;" horiz-adv-x="1273" d="M123 420q0 55 12 117l84 432q43 221 186.5 338.5t378.5 117.5q100 0 190.5 -30.5t156 -86t104.5 -134t39 -175.5q0 -23 -2 -45t-6 -47l-86 -465q-41 -217 -185.5 -336.5t-392.5 -119.5q-92 0 -179 27.5t-153.5 83t-106.5 136t-40 187.5zM358 434q0 -61 20.5 -105 t55.5 -73t80 -42t94 -13q147 0 232.5 77.5t115.5 233.5l76 385q4 18 6 34.5t2 33.5q0 61 -22.5 107t-59 77t-84 46t-98.5 15q-127 0 -215 -68.5t-117 -221.5l-77 -408q-8 -39 -9 -78zM551 1624q4 53 47 91t96 38q47 0 74 -30.5t23 -75.5q-6 -53 -48.5 -92t-95.5 -39 q-47 0 -74.5 31.5t-21.5 76.5zM961 1626q4 51 47 89t94 38q47 0 74.5 -30.5t23.5 -75.5q-6 -53 -49 -92t-94 -39q-47 0 -75 31.5t-21 78.5z" />
<glyph unicode="&#xd7;" horiz-adv-x="1177" d="M100 213l396 328l-265 340l138 106l266 -338l393 324l100 -129l-395 -322l275 -352l-136 -109l-274 353l-399 -328z" />
<glyph unicode="&#xd8;" horiz-adv-x="1273" d="M100 49l99 121q-35 49 -55.5 111.5t-20.5 138.5q0 55 12 117l84 432q43 221 186.5 338.5t378.5 117.5q104 0 193.5 -30.5t155.5 -87.5l102 123l74 -64l-109 -131q74 -102 74 -236q0 -23 -2 -45t-6 -47l-86 -465q-41 -217 -185.5 -336.5t-392.5 -119.5q-96 0 -184 28.5 t-154 85.5l-94 -112zM358 434q0 -37 7 -63l618 753q-37 43 -92 64.5t-115 21.5q-127 0 -215 -68.5t-117 -221.5l-77 -408q-9 -39 -9 -78zM410 279q35 -41 87 -59.5t111 -18.5q147 0 232.5 77.5t115.5 233.5l76 385q4 18 6 34.5t2 33.5q0 18 -2 34.5t-6 32.5z" />
<glyph unicode="&#xd9;" horiz-adv-x="1273" d="M117 393q0 27 2 54.5t8 56.5l176 907h236l-181 -913q-6 -37 -6 -70q0 -61 22.5 -105t57.5 -72t80 -40t88 -12q59 0 116.5 16t104.5 52t82 92.5t51 138.5l176 913h238l-188 -965q-23 -111 -75 -196.5t-129 -144t-175.5 -88t-212.5 -29.5q-92 0 -178 24.5t-150.5 75.5 t-103.5 127t-39 178zM504 1716l131 146l350 -263l-80 -96z" />
<glyph unicode="&#xda;" horiz-adv-x="1273" d="M117 393q0 27 2 54.5t8 56.5l176 907h236l-181 -913q-6 -37 -6 -70q0 -61 22.5 -105t57.5 -72t80 -40t88 -12q59 0 116.5 16t104.5 52t82 92.5t51 138.5l176 913h238l-188 -965q-23 -111 -75 -196.5t-129 -144t-175.5 -88t-212.5 -29.5q-92 0 -178 24.5t-150.5 75.5 t-103.5 127t-39 178zM709 1604l372 264l117 -152l-418 -213z" />
<glyph unicode="&#xdb;" horiz-adv-x="1273" d="M117 393q0 27 2 54.5t8 56.5l176 907h236l-181 -913q-6 -37 -6 -70q0 -61 22.5 -105t57.5 -72t80 -40t88 -12q59 0 116.5 16t104.5 52t82 92.5t51 138.5l176 913h238l-188 -965q-23 -111 -75 -196.5t-129 -144t-175.5 -88t-212.5 -29.5q-92 0 -178 24.5t-150.5 75.5 t-103.5 127t-39 178zM475 1597l359 261h139l248 -259l-86 -83l-252 170l-344 -175z" />
<glyph unicode="&#xdc;" horiz-adv-x="1273" d="M117 393q0 27 2 54.5t8 56.5l176 907h236l-181 -913q-6 -37 -6 -70q0 -61 22.5 -105t57.5 -72t80 -40t88 -12q59 0 116.5 16t104.5 52t82 92.5t51 138.5l176 913h238l-188 -965q-23 -111 -75 -196.5t-129 -144t-175.5 -88t-212.5 -29.5q-92 0 -178 24.5t-150.5 75.5 t-103.5 127t-39 178zM551 1624q4 53 47 91t96 38q47 0 74 -30.5t23 -75.5q-6 -53 -48.5 -92t-95.5 -39q-47 0 -74.5 31.5t-21.5 76.5zM961 1626q4 51 47 89t94 38q47 0 74.5 -30.5t23.5 -75.5q-6 -53 -49 -92t-94 -39q-47 0 -75 31.5t-21 78.5z" />
<glyph unicode="&#xdd;" horiz-adv-x="1120" d="M203 1411h241l95 -367l67 -270h10l199 309l213 328h258l-590 -864l-104 -547h-234l105 547zM618 1604l373 264l117 -152l-418 -213z" />
<glyph unicode="&#xde;" horiz-adv-x="1157" d="M33 0l274 1411h236l-54 -274h334q90 0 157 -33t110 -86t63.5 -121t20.5 -139q0 -94 -32 -181.5t-93.5 -155t-148.5 -107.5t-198 -40h-383l-53 -274h-233zM360 487h314q57 0 106 19.5t86 53.5t57.5 80t20.5 101q0 84 -51 133.5t-143 49.5h-306z" />
<glyph unicode="&#xdf;" horiz-adv-x="1073" d="M47 -2l207 1065q37 188 153.5 289.5t294.5 101.5q100 0 171 -29.5t114 -75.5t62.5 -104.5t19.5 -114.5q0 -29 -7 -67.5t-26.5 -79.5t-54.5 -80t-88 -67q66 -29 95.5 -91.5t29.5 -136.5q0 -18 -2 -36.5t-6 -36.5l-35 -183q-33 -170 -139.5 -267t-286.5 -97q-27 0 -60.5 1 t-72.5 11l43 195q33 -6 67 -7q82 0 147.5 41t86.5 144l35 170q4 12 4 22v21q0 66 -47 102.5t-127 36.5h-31l33 176h20q57 0 98 19.5t68 50t39 67.5t12 72q0 74 -42 118t-120 44q-53 0 -94 -17.5t-68.5 -46t-45 -64.5t-23.5 -73l-209 -1073h-215z" />
<glyph unicode="&#xe0;" horiz-adv-x="1050" d="M66 256q0 41 10 98l59 305q35 180 133.5 273.5t268.5 93.5q53 0 125.5 -19.5t168.5 -78.5l39 86h197l-199 -1014h-196l-2 94q-63 -31 -112.5 -51t-88.5 -31.5t-69.5 -16.5t-57.5 -5q-135 0 -205.5 69.5t-70.5 196.5zM293 322q0 -66 33.5 -93.5t89.5 -27.5q55 0 133 30.5 t164 73.5l80 430q-49 37 -118 62.5t-134 25.5q-68 0 -119 -43t-72 -143l-51 -254q-6 -35 -6 -61zM397 1475l176 71l244 -362l-100 -62z" />
<glyph unicode="&#xe1;" horiz-adv-x="1050" d="M66 256q0 41 10 98l59 305q35 180 133.5 273.5t268.5 93.5q53 0 125.5 -19.5t168.5 -78.5l39 86h197l-199 -1014h-196l-2 94q-63 -31 -112.5 -51t-88.5 -31.5t-69.5 -16.5t-57.5 -5q-135 0 -205.5 69.5t-70.5 196.5zM293 322q0 -66 33.5 -93.5t89.5 -27.5q55 0 133 30.5 t164 73.5l80 430q-49 37 -118 62.5t-134 25.5q-68 0 -119 -43t-72 -143l-51 -254q-6 -35 -6 -61zM563 1167l230 379l188 -63l-299 -365z" />
<glyph unicode="&#xe2;" horiz-adv-x="1050" d="M66 256q0 41 10 98l59 305q35 180 133.5 273.5t268.5 93.5q53 0 125.5 -19.5t168.5 -78.5l39 86h197l-199 -1014h-196l-2 94q-63 -31 -112.5 -51t-88.5 -31.5t-69.5 -16.5t-57.5 -5q-135 0 -205.5 69.5t-70.5 196.5zM293 322q0 -66 33.5 -93.5t89.5 -27.5q55 0 133 30.5 t164 73.5l80 430q-49 37 -118 62.5t-134 25.5q-68 0 -119 -43t-72 -143l-51 -254q-6 -35 -6 -61zM326 1202l354 309h143l236 -311l-98 -76l-224 209l-336 -221z" />
<glyph unicode="&#xe3;" horiz-adv-x="1050" d="M66 256q0 41 10 98l59 305q35 180 133.5 273.5t268.5 93.5q53 0 125.5 -19.5t168.5 -78.5l39 86h197l-199 -1014h-196l-2 94q-63 -31 -112.5 -51t-88.5 -31.5t-69.5 -16.5t-57.5 -5q-135 0 -205.5 69.5t-70.5 196.5zM293 322q0 -66 33.5 -93.5t89.5 -27.5q55 0 133 30.5 t164 73.5l80 430q-49 37 -118 62.5t-134 25.5q-68 0 -119 -43t-72 -143l-51 -254q-6 -35 -6 -61zM299 1249q57 98 125.5 146.5t140.5 48.5q37 0 70 -13.5t62.5 -31t55 -30.5t50.5 -13q31 0 64.5 20.5t78.5 71.5q27 -16 56.5 -39t58.5 -39q-59 -106 -125 -150t-131 -44 q-37 0 -70 12t-62.5 27.5t-58 28.5t-57.5 13q-35 0 -65.5 -17t-79.5 -69z" />
<glyph unicode="&#xe4;" horiz-adv-x="1050" d="M66 256q0 41 10 98l59 305q35 180 133.5 273.5t268.5 93.5q53 0 125.5 -19.5t168.5 -78.5l39 86h197l-199 -1014h-196l-2 94q-63 -31 -112.5 -51t-88.5 -31.5t-69.5 -16.5t-57.5 -5q-135 0 -205.5 69.5t-70.5 196.5zM293 322q0 -66 33.5 -93.5t89.5 -27.5q55 0 133 30.5 t164 73.5l80 430q-49 37 -118 62.5t-134 25.5q-68 0 -119 -43t-72 -143l-51 -254q-6 -35 -6 -61zM367 1270q0 57 44 100t99 43q45 0 71.5 -27.5t26.5 -68.5q0 -29 -12 -53.5t-32.5 -45t-46 -31.5t-52.5 -11q-43 0 -70.5 26.5t-27.5 67.5zM770 1270q0 57 43 100t100 43 q43 0 71 -27.5t28 -68.5q0 -57 -45 -99t-101 -42q-41 0 -68.5 26.5t-27.5 67.5z" />
<glyph unicode="&#xe5;" horiz-adv-x="1050" d="M66 256q0 41 10 98l59 305q35 180 133.5 273.5t268.5 93.5q53 0 125.5 -19.5t168.5 -78.5l39 86h197l-199 -1014h-196l-2 94q-63 -31 -112.5 -51t-88.5 -31.5t-69.5 -16.5t-57.5 -5q-135 0 -205.5 69.5t-70.5 196.5zM293 322q0 -66 33.5 -93.5t89.5 -27.5q55 0 133 30.5 t164 73.5l80 430q-49 37 -118 62.5t-134 25.5q-68 0 -119 -43t-72 -143l-51 -254q-6 -35 -6 -61zM494 1276q0 51 19 97t53 81t82 56.5t106 21.5q84 0 138 -52.5t54 -129.5q0 -55 -20.5 -101.5t-56 -80t-84 -52t-101.5 -18.5q-82 0 -136 50t-54 128zM621 1294q0 -33 21 -54 t58 -21q45 0 83 33.5t38 80.5q0 33 -24.5 55.5t-59.5 22.5q-47 0 -81.5 -35t-34.5 -82z" />
<glyph unicode="&#xe6;" horiz-adv-x="1648" d="M66 229q0 94 37.5 165t98 118t136.5 69.5t151 22.5q45 0 77 -1t60.5 -4t60.5 -7t79 -10q4 31 11 65.5t7 54.5q0 72 -51 99.5t-139 27.5q-53 0 -125 -15t-158 -77l-71 162q119 78 219 101.5t188 23.5q109 0 183.5 -25.5t115.5 -80.5q63 51 138 79.5t173 28.5 q180 0 268.5 -81t88.5 -197q0 -78 -37 -142.5t-107.5 -110.5t-174 -73t-234.5 -27q-23 0 -48.5 1t-51.5 3q-8 -31 -9 -65q0 -70 47.5 -112t141.5 -42q53 0 116.5 20.5t118.5 69.5q31 -41 57.5 -77.5t57.5 -77.5q-96 -76 -192.5 -100.5t-192.5 -24.5q-113 0 -196 35.5 t-130 109.5q-100 -86 -214.5 -114.5t-227.5 -28.5q-129 0 -200.5 63.5t-71.5 173.5zM289 287q0 -49 36 -76t93 -27q43 0 88 9.5t87 27t74.5 39t51.5 45.5l20 121q-39 4 -66.5 7t-52 5t-50 3t-62.5 1q-35 0 -73 -6t-70.5 -23.5t-54 -47t-21.5 -78.5zM985 569q23 -2 42.5 -3 t39.5 -1q150 0 233.5 48.5t83.5 107.5q0 49 -39 79.5t-100 30.5q-111 0 -173 -70.5t-87 -191.5z" />
<glyph unicode="&#xe7;" horiz-adv-x="899" d="M86 311q0 45 8 84l49 267q35 180 152 272t297 92q45 0 94 -7t94 -23.5t85 -44t71 -68.5l-137 -154q-51 61 -111.5 79.5t-101.5 18.5q-90 0 -151.5 -50t-84.5 -161l-43 -217q-2 -12 -3 -24.5t-1 -24.5q0 -43 15.5 -73.5t41 -49t57.5 -28t64 -9.5q45 0 107.5 18.5 t122.5 70.5l123 -164q-82 -66 -170.5 -93.5t-180.5 -31.5l-34 -68q49 0 83.5 -14t56 -37t31 -50.5t9.5 -51.5q0 -37 -16.5 -74t-49.5 -66.5t-82 -47t-112 -17.5q-18 0 -44 2t-53.5 7t-56.5 14.5t-53 21.5l53 100q41 -20 82 -26.5t72 -6.5q37 0 73.5 19.5t36.5 62.5 q0 20 -10 32.5t-25.5 18t-33 4.5t-31.5 -6l-74 48l70 141q-61 8 -113.5 32.5t-91.5 63.5t-61.5 94.5t-22.5 124.5z" />
<glyph unicode="&#xe8;" horiz-adv-x="987" d="M68 322q0 131 28.5 258t91 226t163 159.5t241.5 60.5q180 0 268 -81t88 -197q0 -74 -31.5 -137.5t-99 -109.5t-175 -73t-261.5 -27h-44.5t-43.5 2q-4 -16 -6 -31.5t-2 -29.5q0 -78 52 -120t138 -42q53 0 112.5 21.5t114.5 74.5q31 -41 63 -80.5t60 -80.5 q-96 -76 -192 -100.5t-193 -24.5q-166 0 -269 83t-103 249zM319 1475l177 71l243 -362l-100 -62zM322 575q23 -2 44 -2h40q100 0 161.5 13.5t95 35t45 48t11.5 51.5q0 49 -30.5 79.5t-108.5 30.5q-111 0 -170.5 -68.5t-87.5 -187.5z" />
<glyph unicode="&#xe9;" horiz-adv-x="987" d="M68 322q0 131 28.5 258t91 226t163 159.5t241.5 60.5q180 0 268 -81t88 -197q0 -74 -31.5 -137.5t-99 -109.5t-175 -73t-261.5 -27h-44.5t-43.5 2q-4 -16 -6 -31.5t-2 -29.5q0 -78 52 -120t138 -42q53 0 112.5 21.5t114.5 74.5q31 -41 63 -80.5t60 -80.5 q-96 -76 -192 -100.5t-193 -24.5q-166 0 -269 83t-103 249zM322 575q23 -2 44 -2h40q100 0 161.5 13.5t95 35t45 48t11.5 51.5q0 49 -30.5 79.5t-108.5 30.5q-111 0 -170.5 -68.5t-87.5 -187.5zM530 1167l230 379l188 -63l-299 -365z" />
<glyph unicode="&#xea;" horiz-adv-x="987" d="M68 322q0 131 28.5 258t91 226t163 159.5t241.5 60.5q180 0 268 -81t88 -197q0 -74 -31.5 -137.5t-99 -109.5t-175 -73t-261.5 -27h-44.5t-43.5 2q-4 -16 -6 -31.5t-2 -29.5q0 -78 52 -120t138 -42q53 0 112.5 21.5t114.5 74.5q31 -41 63 -80.5t60 -80.5 q-96 -76 -192 -100.5t-193 -24.5q-166 0 -269 83t-103 249zM264 1202l354 309h144l235 -311l-98 -76l-223 209l-336 -221zM322 575q23 -2 44 -2h40q100 0 161.5 13.5t95 35t45 48t11.5 51.5q0 49 -30.5 79.5t-108.5 30.5q-111 0 -170.5 -68.5t-87.5 -187.5z" />
<glyph unicode="&#xeb;" horiz-adv-x="987" d="M68 322q0 131 28.5 258t91 226t163 159.5t241.5 60.5q180 0 268 -81t88 -197q0 -74 -31.5 -137.5t-99 -109.5t-175 -73t-261.5 -27h-44.5t-43.5 2q-4 -16 -6 -31.5t-2 -29.5q0 -78 52 -120t138 -42q53 0 112.5 21.5t114.5 74.5q31 -41 63 -80.5t60 -80.5 q-96 -76 -192 -100.5t-193 -24.5q-166 0 -269 83t-103 249zM322 575q23 -2 44 -2h40q100 0 161.5 13.5t95 35t45 48t11.5 51.5q0 49 -30.5 79.5t-108.5 30.5q-111 0 -170.5 -68.5t-87.5 -187.5zM322 1270q0 57 44 100t99 43q45 0 71.5 -27.5t26.5 -68.5q0 -29 -12 -53.5 t-32.5 -45t-46.5 -31.5t-52 -11q-43 0 -70.5 26.5t-27.5 67.5zM725 1270q0 57 43 100t100 43q43 0 71 -27.5t28 -68.5q0 -57 -45 -99t-101 -42q-41 0 -68.5 26.5t-27.5 67.5z" />
<glyph unicode="&#xec;" horiz-adv-x="548" d="M123 1475l176 71l244 -362l-101 -62zM164 209q0 43 8 84l139 723h217l-131 -674q-8 -39 -8 -72q0 -53 24.5 -69.5t75.5 -16.5l-40 -188h-37q-117 0 -182.5 51t-65.5 162z" />
<glyph unicode="&#xed;" horiz-adv-x="575" d="M117 209q0 43 8 84l139 723h217l-131 -674q-8 -39 -8 -72q0 -53 24.5 -69.5t75.5 -16.5l-41 -188h-36q-117 0 -182.5 51t-65.5 162zM319 1167l232 379l188 -63l-301 -365z" />
<glyph unicode="&#xee;" horiz-adv-x="661" d="M123 1198l366 313h144l235 -311l-110 -86l-226 219l-335 -221zM207 209q0 43 8 84l139 723h217l-131 -674q-8 -39 -8 -72q0 -53 24.5 -69.5t75.5 -16.5l-40 -188h-37q-117 0 -182.5 51t-65.5 162z" />
<glyph unicode="&#xef;" horiz-adv-x="591" d="M129 1270q0 57 43 100t100 43q43 0 70 -27.5t27 -68.5q0 -55 -44 -98t-100 -43q-41 0 -68.5 26.5t-27.5 67.5zM141 209q0 43 9 84l139 723h217l-131 -674q-8 -39 -8 -72q0 -53 24.5 -69.5t75.5 -16.5l-41 -188h-37q-117 0 -182.5 51t-65.5 162zM530 1270q0 29 12.5 54.5 t33 46t46 31.5t52.5 11q45 0 71.5 -27.5t26.5 -68.5q0 -29 -12 -53.5t-32.5 -45t-47.5 -31.5t-53 -11q-41 0 -69 26.5t-28 67.5z" />
<glyph unicode="&#xf0;" horiz-adv-x="1040" d="M96 344q-2 18 0 36.5t6 37.5l35 184q16 84 50 152.5t86.5 117t125 75t166.5 26.5q33 0 71 -7.5t73.5 -20.5t67.5 -33.5t52 -45.5q6 0 10.5 15.5t5.5 35l2 39t1 27.5q0 43 -6 82t-21 68q-33 -23 -64.5 -44.5t-66.5 -44.5q-16 25 -32.5 48.5t-32.5 48.5l133 88 q-33 33 -85 61.5t-145 50.5l54 168q117 -16 207 -59t141 -102l174 116q16 -25 32.5 -49t32.5 -47l-172 -117q29 -66 39.5 -135t10.5 -141q0 -94 -14.5 -190.5t-33.5 -194.5l-41 -219q-37 -197 -152.5 -288t-299.5 -91q-88 0 -163 26.5t-130 72.5t-86 110.5t-31 142.5z M315 373q0 -86 54.5 -134.5t138.5 -48.5q94 0 153.5 45.5t81.5 159.5l29 144q2 10 3 21t1 22q0 86 -61.5 137t-141.5 51q-92 0 -150 -52t-77 -155l-27 -143q-2 -12 -3 -24.5t-1 -22.5z" />
<glyph unicode="&#xf1;" horiz-adv-x="1050" d="M16 0l199 1014h195l2 -96q70 39 121 60t90 31.5t68.5 13.5t56.5 3q133 0 202.5 -68.5t69.5 -191.5q0 -23 -2 -48.5t-8 -53.5l-127 -664h-219l122 633q6 33 7 61q0 68 -36 95.5t-93 27.5q-113 0 -293 -110l-138 -707h-217zM291 1249q57 98 125.5 146.5t140.5 48.5 q37 0 69.5 -13.5t62.5 -31t55.5 -30.5t50.5 -13q31 0 64.5 20.5t78.5 71.5q27 -16 56.5 -39t58.5 -39q-59 -106 -125 -150t-131 -44q-37 0 -70 12t-62.5 27.5t-58 28.5t-57.5 13q-35 0 -65.5 -17t-80.5 -69z" />
<glyph unicode="&#xf2;" horiz-adv-x="1050" d="M96 346q0 23 2 45.5t6 46.5l39 213q35 182 147.5 278.5t309.5 96.5q92 0 166 -27.5t126 -77t80.5 -116t28.5 -143.5q0 -45 -8 -84l-43 -226q-39 -195 -159.5 -278.5t-298.5 -83.5q-74 0 -146 21.5t-127 65.5t-89 110.5t-34 158.5zM315 369q0 -49 16.5 -83t43 -55.5 t59.5 -31t66 -9.5q41 0 78.5 9.5t69.5 32t56.5 63.5t36.5 104l37 179q6 31 6 59q0 92 -56 140t-138 48q-88 0 -150.5 -46t-85.5 -163l-35 -192q-4 -16 -4 -29.5v-25.5zM360 1475l177 71l243 -362l-100 -62z" />
<glyph unicode="&#xf3;" horiz-adv-x="1050" d="M96 346q0 23 2 45.5t6 46.5l39 213q35 182 147.5 278.5t309.5 96.5q92 0 166 -27.5t126 -77t80.5 -116t28.5 -143.5q0 -45 -8 -84l-43 -226q-39 -195 -159.5 -278.5t-298.5 -83.5q-74 0 -146 21.5t-127 65.5t-89 110.5t-34 158.5zM315 369q0 -49 16.5 -83t43 -55.5 t59.5 -31t66 -9.5q41 0 78.5 9.5t69.5 32t56.5 63.5t36.5 104l37 179q6 31 6 59q0 92 -56 140t-138 48q-88 0 -150.5 -46t-85.5 -163l-35 -192q-4 -16 -4 -29.5v-25.5zM551 1167l229 379l189 -63l-299 -365z" />
<glyph unicode="&#xf4;" horiz-adv-x="1050" d="M96 346q0 23 2 45.5t6 46.5l39 213q35 182 147.5 278.5t309.5 96.5q92 0 166 -27.5t126 -77t80.5 -116t28.5 -143.5q0 -45 -8 -84l-43 -226q-39 -195 -159.5 -278.5t-298.5 -83.5q-74 0 -146 21.5t-127 65.5t-89 110.5t-34 158.5zM301 1202l354 309h144l235 -311l-98 -76 l-223 209l-336 -221zM315 369q0 -49 16.5 -83t43 -55.5t59.5 -31t66 -9.5q41 0 78.5 9.5t69.5 32t56.5 63.5t36.5 104l37 179q6 31 6 59q0 92 -56 140t-138 48q-88 0 -150.5 -46t-85.5 -163l-35 -192q-4 -16 -4 -29.5v-25.5z" />
<glyph unicode="&#xf5;" horiz-adv-x="1050" d="M96 346q0 23 2 45.5t6 46.5l39 213q35 182 147.5 278.5t309.5 96.5q92 0 166 -27.5t126 -77t80.5 -116t28.5 -143.5q0 -45 -8 -84l-43 -226q-39 -195 -159.5 -278.5t-298.5 -83.5q-74 0 -146 21.5t-127 65.5t-89 110.5t-34 158.5zM279 1249q57 98 125.5 146.5t140.5 48.5 q37 0 69.5 -13.5t62.5 -31t55.5 -30.5t49.5 -13q31 0 65 20.5t79 71.5q27 -16 56.5 -39t57.5 -39q-59 -106 -124.5 -150t-131.5 -44q-37 0 -69.5 12t-62 27.5t-58.5 28.5t-57 13q-35 0 -66 -17t-80 -69zM315 369q0 -49 16.5 -83t43 -55.5t59.5 -31t66 -9.5q41 0 78.5 9.5 t69.5 32t56.5 63.5t36.5 104l37 179q6 31 6 59q0 92 -56 140t-138 48q-88 0 -150.5 -46t-85.5 -163l-35 -192q-4 -16 -4 -29.5v-25.5z" />
<glyph unicode="&#xf6;" horiz-adv-x="1050" d="M96 346q0 23 2 45.5t6 46.5l39 213q35 182 147.5 278.5t309.5 96.5q92 0 166 -27.5t126 -77t80.5 -116t28.5 -143.5q0 -45 -8 -84l-43 -226q-39 -195 -159.5 -278.5t-298.5 -83.5q-74 0 -146 21.5t-127 65.5t-89 110.5t-34 158.5zM315 369q0 -49 16.5 -83t43 -55.5 t59.5 -31t66 -9.5q41 0 78.5 9.5t69.5 32t56.5 63.5t36.5 104l37 179q6 31 6 59q0 92 -56 140t-138 48q-88 0 -150.5 -46t-85.5 -163l-35 -192q-4 -16 -4 -29.5v-25.5zM367 1270q0 57 44 100t99 43q45 0 71.5 -27.5t26.5 -68.5q0 -29 -12 -53.5t-32.5 -45t-46 -31.5 t-52.5 -11q-43 0 -70.5 26.5t-27.5 67.5zM770 1270q0 57 43 100t100 43q43 0 71 -27.5t28 -68.5q0 -57 -45 -99t-101 -42q-41 0 -68.5 26.5t-27.5 67.5z" />
<glyph unicode="&#xf7;" horiz-adv-x="1058" d="M68 522l34 164h965l-33 -164h-966zM352 188q0 66 50.5 112t115.5 46q53 0 85 -29.5t32 -76.5q0 -33 -14.5 -63t-38 -51.5t-54 -33.5t-61.5 -12q-51 0 -83 30.5t-32 77.5zM504 965q0 33 14 61.5t38 50t53.5 34.5t62.5 13q49 0 80.5 -30.5t31.5 -77.5q0 -31 -14 -60.5 t-36.5 -51t-53.5 -35t-62 -13.5q-51 0 -82.5 31t-31.5 78z" />
<glyph unicode="&#xf8;" horiz-adv-x="1050" d="M55 47l95 103q-53 82 -54 196q0 23 2 45.5t6 46.5l39 213q35 182 147.5 278.5t309.5 96.5q86 0 155.5 -24.5t123.5 -67.5l86 94l65 -55l-94 -103q31 -43 48 -96t17 -112q0 -45 -8 -84l-43 -226q-39 -195 -159.5 -278.5t-298.5 -83.5q-78 0 -154 23.5t-131 72.5l-90 -96z M315 369q0 -27 2 -37l412 442q-55 51 -139 51q-88 0 -150.5 -46t-85.5 -163l-35 -192q-4 -16 -4 -29.5v-25.5zM356 248q27 -31 65 -44.5t79 -13.5t78.5 9.5t69.5 32t56.5 63.5t36.5 104l37 179q6 31 6 59q0 37 -8 61z" />
<glyph unicode="&#xf9;" horiz-adv-x="1056" d="M72 256q0 25 3 50.5t7 53.5l129 654h219l-125 -633q-6 -31 -6 -57q0 -68 36 -96.5t89 -28.5q55 0 131 28.5t168 85.5l137 701h217l-196 -1014h-197l-4 98q-61 -37 -111.5 -59.5t-91.5 -33.5t-73.5 -14t-59.5 -3q-135 0 -203.5 72.5t-68.5 195.5zM375 1475l176 71 l244 -362l-101 -62z" />
<glyph unicode="&#xfa;" horiz-adv-x="1056" d="M72 256q0 25 3 50.5t7 53.5l129 654h219l-125 -633q-6 -31 -6 -57q0 -68 36 -96.5t89 -28.5q55 0 131 28.5t168 85.5l137 701h217l-196 -1014h-197l-4 98q-61 -37 -111.5 -59.5t-91.5 -33.5t-73.5 -14t-59.5 -3q-135 0 -203.5 72.5t-68.5 195.5zM565 1167l230 379 l188 -63l-299 -365z" />
<glyph unicode="&#xfb;" horiz-adv-x="1056" d="M72 256q0 25 3 50.5t7 53.5l129 654h219l-125 -633q-6 -31 -6 -57q0 -68 36 -96.5t89 -28.5q55 0 131 28.5t168 85.5l137 701h217l-196 -1014h-197l-4 98q-61 -37 -111.5 -59.5t-91.5 -33.5t-73.5 -14t-59.5 -3q-135 0 -203.5 72.5t-68.5 195.5zM301 1202l354 309h144 l235 -311l-98 -76l-223 209l-336 -221z" />
<glyph unicode="&#xfc;" horiz-adv-x="1056" d="M72 256q0 25 3 50.5t7 53.5l129 654h219l-125 -633q-6 -31 -6 -57q0 -68 36 -96.5t89 -28.5q55 0 131 28.5t168 85.5l137 701h217l-196 -1014h-197l-4 98q-61 -37 -111.5 -59.5t-91.5 -33.5t-73.5 -14t-59.5 -3q-135 0 -203.5 72.5t-68.5 195.5zM362 1270q0 57 44.5 100 t99.5 43q45 0 71.5 -27.5t26.5 -68.5q0 -29 -12 -53.5t-32.5 -45t-46.5 -31.5t-52 -11q-43 0 -71 26.5t-28 67.5zM766 1270q0 57 43 100t100 43q43 0 71 -27.5t28 -68.5q0 -57 -45 -99t-101 -42q-41 0 -68.5 26.5t-27.5 67.5z" />
<glyph unicode="&#xfd;" horiz-adv-x="925" d="M41 -410l229 430l-65 60l-99 936h222l28 -395l27 -398h8l266 508q23 43 38.5 76t24.5 60.5t13 55t4 58.5v37h219v-35q0 -92 -25.5 -158.5t-68.5 -142.5l-598 -1092h-223zM475 1167l230 379l188 -63l-299 -365z" />
<glyph unicode="&#xfe;" horiz-adv-x="1042" d="M-61 -406l348 1817h219l-96 -498q117 63 195.5 87t131.5 24q131 0 206 -62.5t75 -195.5q0 -47 -12 -109l-60 -305q-33 -170 -139.5 -267t-286.5 -97q-53 0 -122.5 10t-155.5 51l-88 -455h-215zM283 252q78 -37 132 -48t109 -11q72 0 129.5 37.5t77.5 142.5l51 266 q8 33 9 63q0 66 -36 90.5t-91 24.5q-27 0 -63 -8t-75 -22.5t-78.5 -33t-76.5 -38.5z" />
<glyph unicode="&#xff;" horiz-adv-x="925" d="M41 -410l229 430l-65 60l-99 936h222l28 -395l27 -398h8l266 508q23 43 38.5 76t24.5 60.5t13 55t4 58.5v37h219v-35q0 -92 -25.5 -158.5t-68.5 -142.5l-598 -1092h-223zM289 1270q0 57 44 100t99 43q45 0 71.5 -27.5t26.5 -68.5q0 -29 -12 -53.5t-32.5 -45t-46 -31.5 t-52.5 -11q-43 0 -70.5 26.5t-27.5 67.5zM692 1270q0 57 43.5 100t100.5 43q43 0 70.5 -27.5t27.5 -68.5q0 -57 -45 -99t-101 -42q-41 0 -68.5 26.5t-27.5 67.5z" />
<glyph unicode="&#x100;" horiz-adv-x="1263" d="M-61 0l761 1411h238l217 -1411h-246l-37 305h-524l-158 -305h-251zM455 508h389l-35 276l-39 328h-8l-158 -315zM555 1567l37 184h592l-37 -184h-592z" />
<glyph unicode="&#x101;" horiz-adv-x="1050" d="M66 256q0 41 10 98l59 305q35 180 133.5 273.5t268.5 93.5q53 0 125.5 -19.5t168.5 -78.5l39 86h197l-199 -1014h-196l-2 94q-63 -31 -112.5 -51t-88.5 -31.5t-69.5 -16.5t-57.5 -5q-135 0 -205.5 69.5t-70.5 196.5zM293 322q0 -66 33.5 -93.5t89.5 -27.5q55 0 133 30.5 t164 73.5l80 430q-49 37 -118 62.5t-134 25.5q-68 0 -119 -43t-72 -143l-51 -254q-6 -35 -6 -61zM399 1214l37 183h594l-37 -183h-594z" />
<glyph unicode="&#x102;" horiz-adv-x="1263" d="M-61 0l761 1411h238l217 -1411h-246l-37 305h-524l-158 -305h-251zM455 508h389l-35 276l-39 328h-8l-158 -315zM580 1796h165q-8 -47 17.5 -89t89.5 -42q37 0 65.5 13.5t48 33t32 42t16.5 42.5h170q-10 -45 -34 -95t-66 -92t-103 -70t-147 -28q-82 0 -134.5 29t-81 72 t-37 92t-1.5 92z" />
<glyph unicode="&#x103;" horiz-adv-x="1050" d="M66 256q0 41 10 98l59 305q35 180 133.5 273.5t268.5 93.5q53 0 125.5 -19.5t168.5 -78.5l39 86h197l-199 -1014h-196l-2 94q-63 -31 -112.5 -51t-88.5 -31.5t-69.5 -16.5t-57.5 -5q-135 0 -205.5 69.5t-70.5 196.5zM293 322q0 -66 33.5 -93.5t89.5 -27.5q55 0 133 30.5 t164 73.5l80 430q-49 37 -118 62.5t-134 25.5q-68 0 -119 -43t-72 -143l-51 -254q-6 -35 -6 -61zM418 1458h166q-4 -20 1 -44.5t18 -45t36 -35t57 -14.5q33 0 61.5 13.5t49 32.5t34 44t17.5 49h172q-12 -47 -36.5 -99t-66.5 -95t-102.5 -72t-142.5 -29q-80 0 -133 24.5 t-84 65.5t-42 94.5t-5 110.5z" />
<glyph unicode="&#x104;" horiz-adv-x="1263" d="M-61 0l761 1411h238l217 -1411h-94q-49 -59 -79 -103t-30 -83q0 -61 74 -62q23 0 54.5 7.5t72.5 27.5l27 -117q-51 -29 -105.5 -41t-107.5 -12q-78 0 -124 42t-46 108q0 47 23.5 104t92.5 129h-4l-37 305h-524l-158 -305h-251zM455 508h389l-35 276l-39 328h-8l-158 -315 z" />
<glyph unicode="&#x105;" horiz-adv-x="1050" d="M66 256q0 41 10 98l59 305q35 180 133.5 273.5t268.5 93.5q53 0 125.5 -19.5t168.5 -78.5l39 86h197l-199 -1014h-51q-49 -59 -78.5 -103t-29.5 -83q0 -61 73 -62q23 0 54.5 7.5t72.5 27.5l27 -117q-51 -29 -105.5 -41t-107.5 -12q-78 0 -124 42t-46 108q0 47 23.5 105 t95.5 130l-2 92q-63 -31 -112.5 -51t-88.5 -31.5t-69.5 -16.5t-57.5 -5q-135 0 -205.5 69.5t-70.5 196.5zM293 322q0 -66 33.5 -93.5t89.5 -27.5q55 0 133 30.5t164 73.5l80 430q-49 37 -118 62.5t-134 25.5q-68 0 -119 -43t-72 -143l-51 -254q-6 -35 -6 -61z" />
<glyph unicode="&#x106;" horiz-adv-x="1122" d="M119 391q0 25 3 49.5t7 53.5l92 473q43 221 180.5 339.5t382.5 118.5q119 0 234 -36.5t190 -104.5l-141 -180q-49 51 -133 79.5t-160 28.5q-131 0 -215 -70.5t-115 -228.5l-82 -413q-6 -37 -6 -72q0 -59 21.5 -101t57.5 -70t83 -41t100 -13q76 0 167.5 26.5t160.5 79.5 l98 -192q-90 -66 -213.5 -98.5t-242.5 -32.5q-90 0 -174 25.5t-149.5 76.5t-105.5 127t-40 176zM705 1604l372 264l117 -152l-418 -213z" />
<glyph unicode="&#x107;" horiz-adv-x="899" d="M86 311q0 45 8 84l49 267q35 180 152 272t297 92q45 0 94 -7t94 -23.5t85 -44t71 -68.5l-137 -154q-51 61 -111.5 79.5t-101.5 18.5q-90 0 -151.5 -50t-84.5 -161l-43 -217q-2 -12 -3 -24.5t-1 -24.5q0 -43 15.5 -73.5t41 -49t57.5 -28t64 -9.5q45 0 107.5 18.5 t122.5 70.5l123 -164q-90 -72 -187.5 -98.5t-195.5 -26.5q-74 0 -139.5 20.5t-116 60.5t-80 100t-29.5 140zM502 1167l229 379l189 -63l-299 -365z" />
<glyph unicode="&#x108;" horiz-adv-x="1122" d="M119 391q0 25 3 49.5t7 53.5l92 473q43 221 180.5 339.5t382.5 118.5q119 0 234 -36.5t190 -104.5l-141 -180q-49 51 -133 79.5t-160 28.5q-131 0 -215 -70.5t-115 -228.5l-82 -413q-6 -37 -6 -72q0 -59 21.5 -101t57.5 -70t83 -41t100 -13q76 0 167.5 26.5t160.5 79.5 l98 -192q-90 -66 -213.5 -98.5t-242.5 -32.5q-90 0 -174 25.5t-149.5 76.5t-105.5 127t-40 176zM465 1597l358 261h140l247 -259l-86 -83l-252 170l-344 -175z" />
<glyph unicode="&#x109;" horiz-adv-x="899" d="M86 311q0 45 8 84l49 267q35 180 152 272t297 92q45 0 94 -7t94 -23.5t85 -44t71 -68.5l-137 -154q-51 61 -111.5 79.5t-101.5 18.5q-90 0 -151.5 -50t-84.5 -161l-43 -217q-2 -12 -3 -24.5t-1 -24.5q0 -43 15.5 -73.5t41 -49t57.5 -28t64 -9.5q45 0 107.5 18.5 t122.5 70.5l123 -164q-90 -72 -187.5 -98.5t-195.5 -26.5q-74 0 -139.5 20.5t-116 60.5t-80 100t-29.5 140zM256 1202l354 309h144l235 -311l-98 -76l-223 209l-336 -221z" />
<glyph unicode="&#x10a;" horiz-adv-x="1122" d="M119 391q0 25 3 49.5t7 53.5l92 473q43 221 180.5 339.5t382.5 118.5q119 0 234 -36.5t190 -104.5l-141 -180q-49 51 -133 79.5t-160 28.5q-131 0 -215 -70.5t-115 -228.5l-82 -413q-6 -37 -6 -72q0 -59 21.5 -101t57.5 -70t83 -41t100 -13q76 0 167.5 26.5t160.5 79.5 l98 -192q-90 -66 -213.5 -98.5t-242.5 -32.5q-90 0 -174 25.5t-149.5 76.5t-105.5 127t-40 176zM715 1622q4 55 46 96t101 41q49 0 80 -30.5t27 -83.5q-4 -57 -47.5 -97.5t-100.5 -40.5q-49 0 -79.5 33t-26.5 82z" />
<glyph unicode="&#x10b;" horiz-adv-x="899" d="M86 311q0 45 8 84l49 267q35 180 152 272t297 92q45 0 94 -7t94 -23.5t85 -44t71 -68.5l-137 -154q-51 61 -111.5 79.5t-101.5 18.5q-90 0 -151.5 -50t-84.5 -161l-43 -217q-2 -12 -3 -24.5t-1 -24.5q0 -43 15.5 -73.5t41 -49t57.5 -28t64 -9.5q45 0 107.5 18.5 t122.5 70.5l123 -164q-90 -72 -187.5 -98.5t-195.5 -26.5q-74 0 -139.5 20.5t-116 60.5t-80 100t-29.5 140zM520 1296q4 55 46 96.5t102 41.5q49 0 79.5 -31t26.5 -84q-4 -57 -47 -97t-100 -40q-49 0 -80 32.5t-27 81.5z" />
<glyph unicode="&#x10c;" horiz-adv-x="1122" d="M119 391q0 25 3 49.5t7 53.5l92 473q43 221 180.5 339.5t382.5 118.5q119 0 234 -36.5t190 -104.5l-141 -180q-49 51 -133 79.5t-160 28.5q-131 0 -215 -70.5t-115 -228.5l-82 -413q-6 -37 -6 -72q0 -59 21.5 -101t57.5 -70t83 -41t100 -13q76 0 167.5 26.5t160.5 79.5 l98 -192q-90 -66 -213.5 -98.5t-242.5 -32.5q-90 0 -174 25.5t-149.5 76.5t-105.5 127t-40 176zM494 1765l84 88l251 -167l347 176l63 -93l-360 -262h-140z" />
<glyph unicode="&#x10d;" horiz-adv-x="899" d="M86 311q0 45 8 84l49 267q35 180 152 272t297 92q45 0 94 -7t94 -23.5t85 -44t71 -68.5l-137 -154q-51 61 -111.5 79.5t-101.5 18.5q-90 0 -151.5 -50t-84.5 -161l-43 -217q-2 -12 -3 -24.5t-1 -24.5q0 -43 15.5 -73.5t41 -49t57.5 -28t64 -9.5q45 0 107.5 18.5 t122.5 70.5l123 -164q-90 -72 -187.5 -98.5t-195.5 -26.5q-74 0 -139.5 20.5t-116 60.5t-80 100t-29.5 140zM307 1432l105 84q10 -8 43.5 -41t72.5 -70t73 -69.5t44 -41.5l330 222l76 -89l-357 -311h-143z" />
<glyph unicode="&#x10e;" horiz-adv-x="1263" d="M45 0l274 1411h512q90 0 167 -24.5t134.5 -71.5t89 -116t31.5 -157q0 -25 -3 -49t-7 -51l-86 -485q-45 -223 -170 -340t-354 -117h-588zM319 207h299q51 0 100.5 14.5t90.5 47t71.5 88t47.5 139.5l80 415q8 39 8 78q0 115 -72 163t-176 48h-256zM449 1765l83 88l252 -167 l346 176l64 -93l-360 -262h-140z" />
<glyph unicode="&#x10f;" horiz-adv-x="1310" d="M68 252q0 25 3 50.5t7 53.5l59 306q33 170 145.5 267t278.5 97q53 0 126 -11t153 -46l98 497h215l-283 -1466h-196l-2 100q-111 -66 -191 -88t-135 -22q-131 0 -204.5 66.5t-73.5 195.5zM293 315q0 -66 34.5 -93t92.5 -27q27 0 61.5 7t73.5 20.5t79 32.5t77 42l90 465 q-68 29 -127.5 44t-114.5 15q-72 0 -130 -43t-81 -145l-49 -260q-6 -31 -6 -58zM1163 1087q59 33 95 66t53 84q-37 6 -58.5 38t-21.5 73q0 59 44 107t122 48q66 0 98.5 -41t32.5 -100t-24.5 -114.5t-66.5 -102.5t-98.5 -86t-119.5 -64z" />
<glyph unicode="&#x110;" horiz-adv-x="1263" d="M31 637l32 166h138l118 608h512q90 0 167 -24.5t134.5 -71.5t89 -116t31.5 -157q0 -25 -3 -49t-7 -51l-86 -485q-45 -223 -170 -340t-354 -117h-588l123 637h-137zM319 207h299q51 0 100.5 14.5t90.5 47t71.5 88t47.5 139.5l80 415q8 39 8 78q0 115 -72 163t-176 48h-256 l-78 -397h201l-31 -166h-203z" />
<glyph unicode="&#x111;" horiz-adv-x="1050" d="M68 252q0 25 3 50.5t7 53.5l59 306q33 170 145.5 267t278.5 97q53 0 126 -11t153 -46l37 188h-332l28 152h332l33 157h215l-31 -157h95l-29 -152h-94l-224 -1157h-196l-2 100q-111 -66 -191 -88t-135 -22q-131 0 -204.5 66.5t-73.5 195.5zM293 315q0 -66 34.5 -93 t92.5 -27q27 0 61.5 7t73.5 20.5t79 32.5t77 42l90 465q-68 29 -127.5 44t-114.5 15q-72 0 -130 -43t-81 -145l-49 -260q-6 -31 -6 -58z" />
<glyph unicode="&#x112;" horiz-adv-x="1163" d="M47 0l275 1411h935l-40 -211h-703l-74 -387h617l-41 -211h-619l-75 -393h757l-41 -209h-991zM518 1567l37 184h592l-37 -184h-592z" />
<glyph unicode="&#x113;" horiz-adv-x="987" d="M68 322q0 131 28.5 258t91 226t163 159.5t241.5 60.5q180 0 268 -81t88 -197q0 -74 -31.5 -137.5t-99 -109.5t-175 -73t-261.5 -27h-44.5t-43.5 2q-4 -16 -6 -31.5t-2 -29.5q0 -78 52 -120t138 -42q53 0 112.5 21.5t114.5 74.5q31 -41 63 -80.5t60 -80.5 q-96 -76 -192 -100.5t-193 -24.5q-166 0 -269 83t-103 249zM322 575q23 -2 44 -2h40q100 0 161.5 13.5t95 35t45 48t11.5 51.5q0 49 -30.5 79.5t-108.5 30.5q-111 0 -170.5 -68.5t-87.5 -187.5zM358 1214l37 183h594l-37 -183h-594z" />
<glyph unicode="&#x114;" horiz-adv-x="1163" d="M47 0l275 1411h935l-40 -211h-703l-74 -387h617l-41 -211h-619l-75 -393h757l-41 -209h-991zM549 1796h166q-8 -47 17.5 -89t88.5 -42q37 0 65.5 13.5t48 33t32 42t16.5 42.5h170q-10 -45 -33.5 -95t-65.5 -92t-103.5 -70t-147.5 -28q-82 0 -134.5 29t-81 72t-36.5 92 t-2 92z" />
<glyph unicode="&#x115;" horiz-adv-x="987" d="M68 322q0 131 28.5 258t91 226t163 159.5t241.5 60.5q180 0 268 -81t88 -197q0 -74 -31.5 -137.5t-99 -109.5t-175 -73t-261.5 -27h-44.5t-43.5 2q-4 -16 -6 -31.5t-2 -29.5q0 -78 52 -120t138 -42q53 0 112.5 21.5t114.5 74.5q31 -41 63 -80.5t60 -80.5 q-96 -76 -192 -100.5t-193 -24.5q-166 0 -269 83t-103 249zM322 575q23 -2 44 -2h40q100 0 161.5 13.5t95 35t45 48t11.5 51.5q0 49 -30.5 79.5t-108.5 30.5q-111 0 -170.5 -68.5t-87.5 -187.5zM373 1458h166q-4 -20 1 -44.5t18 -45t35.5 -35t57.5 -14.5q33 0 61.5 13.5 t49 32.5t34 44t17.5 49h172q-12 -47 -36.5 -99t-66.5 -95t-102.5 -72t-142.5 -29q-80 0 -133 24.5t-84 65.5t-42 94.5t-5 110.5z" />
<glyph unicode="&#x116;" horiz-adv-x="1163" d="M47 0l275 1411h935l-40 -211h-703l-74 -387h617l-41 -211h-619l-75 -393h757l-41 -209h-991zM702 1642q4 55 46.5 96.5t101.5 41.5q49 0 80 -31t26 -84q-4 -57 -47 -97t-100 -40q-49 0 -80 32.5t-27 81.5z" />
<glyph unicode="&#x117;" horiz-adv-x="987" d="M68 322q0 131 28.5 258t91 226t163 159.5t241.5 60.5q180 0 268 -81t88 -197q0 -74 -31.5 -137.5t-99 -109.5t-175 -73t-261.5 -27h-44.5t-43.5 2q-4 -16 -6 -31.5t-2 -29.5q0 -78 52 -120t138 -42q53 0 112.5 21.5t114.5 74.5q31 -41 63 -80.5t60 -80.5 q-96 -76 -192 -100.5t-193 -24.5q-166 0 -269 83t-103 249zM322 575q23 -2 44 -2h40q100 0 161.5 13.5t95 35t45 48t11.5 51.5q0 49 -30.5 79.5t-108.5 30.5q-111 0 -170.5 -68.5t-87.5 -187.5zM520 1296q4 55 46 96.5t102 41.5q49 0 79.5 -31t26.5 -84q-4 -57 -47 -97 t-100 -40q-49 0 -80 32.5t-27 81.5z" />
<glyph unicode="&#x118;" horiz-adv-x="1163" d="M47 0l275 1411h935l-40 -211h-703l-74 -387h617l-41 -211h-619l-75 -393h757l-41 -209h-37q-49 -59 -78.5 -103t-29.5 -83q0 -61 74 -62q23 0 54.5 7.5t72.5 27.5l26 -117q-51 -29 -105 -41t-108 -12q-78 0 -124 42t-46 108q0 47 23.5 104t93.5 129h-807z" />
<glyph unicode="&#x119;" horiz-adv-x="987" d="M68 322q0 131 28.5 258t91 226t163 159.5t241.5 60.5q180 0 268 -81t88 -197q0 -74 -31.5 -137.5t-99 -109.5t-175 -73t-261.5 -27h-44.5t-43.5 2q-4 -16 -6 -31.5t-2 -29.5q0 -78 52 -120t138 -42q53 0 112.5 21.5t114.5 74.5q31 -41 63 -80.5t60 -80.5 q-20 -16 -39.5 -29.5t-42.5 -24.5l2 -2q-49 -59 -78.5 -103t-29.5 -83q0 -61 74 -61q23 0 54.5 7t72.5 27l26 -116q-51 -29 -105 -41.5t-108 -12.5q-78 0 -124 42t-46 108q0 35 13.5 78t50.5 92q-53 -6 -105 -6q-166 0 -269 83t-103 249zM322 575q23 -2 44 -2h40 q100 0 161.5 13.5t95 35t45 48t11.5 51.5q0 49 -30.5 79.5t-108.5 30.5q-111 0 -170.5 -68.5t-87.5 -187.5z" />
<glyph unicode="&#x11a;" horiz-adv-x="1163" d="M47 0l275 1411h935l-40 -211h-703l-74 -387h617l-41 -211h-619l-75 -393h757l-41 -209h-991zM461 1765l84 88l252 -167l346 176l63 -93l-360 -262h-139z" />
<glyph unicode="&#x11b;" horiz-adv-x="987" d="M68 322q0 131 28.5 258t91 226t163 159.5t241.5 60.5q180 0 268 -81t88 -197q0 -74 -31.5 -137.5t-99 -109.5t-175 -73t-261.5 -27h-44.5t-43.5 2q-4 -16 -6 -31.5t-2 -29.5q0 -78 52 -120t138 -42q53 0 112.5 21.5t114.5 74.5q31 -41 63 -80.5t60 -80.5 q-96 -76 -192 -100.5t-193 -24.5q-166 0 -269 83t-103 249zM295 1432l104 84q10 -8 44 -41t73 -70t73 -69.5t44 -41.5l330 222l75 -89l-356 -311h-143zM322 575q23 -2 44 -2h40q100 0 161.5 13.5t95 35t45 48t11.5 51.5q0 49 -30.5 79.5t-108.5 30.5q-111 0 -170.5 -68.5 t-87.5 -187.5z" />
<glyph unicode="&#x11c;" horiz-adv-x="1216" d="M121 397q0 27 3 52.5t7 54.5l90 465q20 111 72.5 195.5t128.5 143t173 88t208 29.5q59 0 119.5 -8t117 -24.5t104.5 -42t83 -58.5l-140 -182q-49 51 -128.5 75.5t-155.5 24.5q-61 0 -118.5 -16t-105 -51t-83 -90.5t-50.5 -132.5l-81 -414q-4 -20 -6.5 -40t-2.5 -36 q0 -59 20.5 -103t54.5 -72t79 -41t92 -13q43 0 103.5 13t132.5 60l55 281h-215l39 209h448l-112 -604q-55 -51 -115.5 -85t-122 -53.5t-123 -27.5t-119.5 -8q-92 0 -174 27.5t-144 80.5t-98 130t-36 173zM459 1597l358 261h139l248 -259l-86 -83l-252 170l-344 -175z" />
<glyph unicode="&#x11d;" horiz-adv-x="1038" d="M-8 -270l149 139q18 -25 48 -42t62 -29.5t64.5 -17.5t57.5 -5q45 0 88 10t78.5 33.5t63.5 64.5t40 103l25 116q-117 -70 -196 -87t-132 -17q-141 0 -207.5 68.5t-66.5 191.5q0 27 3 53.5t7 55.5l51 274q39 207 157.5 297t307.5 90q33 0 84 -6t111.5 -19.5t125 -37 t125.5 -58.5l-184 -966q-72 -365 -492 -365q-49 0 -102 10.5t-103.5 29.5t-93.5 48t-71 66zM291 328q0 -68 35.5 -95.5t89.5 -27.5q55 0 134 27.5t159 80.5l90 463q-59 29 -120 42t-114 13q-178 0 -219 -194l-49 -250q-6 -35 -6 -59zM307 1202l355 309h143l235 -311l-98 -76 l-223 209l-336 -221z" />
<glyph unicode="&#x11e;" horiz-adv-x="1216" d="M121 397q0 27 3 52.5t7 54.5l90 465q20 111 72.5 195.5t128.5 143t173 88t208 29.5q59 0 119.5 -8t117 -24.5t104.5 -42t83 -58.5l-140 -182q-49 51 -128.5 75.5t-155.5 24.5q-61 0 -118.5 -16t-105 -51t-83 -90.5t-50.5 -132.5l-81 -414q-4 -20 -6.5 -40t-2.5 -36 q0 -59 20.5 -103t54.5 -72t79 -41t92 -13q43 0 103.5 13t132.5 60l55 281h-215l39 209h448l-112 -604q-55 -51 -115.5 -85t-122 -53.5t-123 -27.5t-119.5 -8q-92 0 -174 27.5t-144 80.5t-98 130t-36 173zM573 1796h166q-8 -47 17.5 -89t89.5 -42q37 0 65.5 13.5t48 33t32 42 t16.5 42.5h170q-10 -45 -34 -95t-66 -92t-103.5 -70t-147.5 -28q-82 0 -134 29t-80.5 72t-37 92t-2.5 92z" />
<glyph unicode="&#x11f;" horiz-adv-x="1038" d="M-8 -270l149 139q18 -25 48 -42t62 -29.5t64.5 -17.5t57.5 -5q45 0 88 10t78.5 33.5t63.5 64.5t40 103l25 116q-117 -70 -196 -87t-132 -17q-141 0 -207.5 68.5t-66.5 191.5q0 27 3 53.5t7 55.5l51 274q39 207 157.5 297t307.5 90q33 0 84 -6t111.5 -19.5t125 -37 t125.5 -58.5l-184 -966q-72 -365 -492 -365q-49 0 -102 10.5t-103.5 29.5t-93.5 48t-71 66zM291 328q0 -68 35.5 -95.5t89.5 -27.5q55 0 134 27.5t159 80.5l90 463q-59 29 -120 42t-114 13q-178 0 -219 -194l-49 -250q-6 -35 -6 -59zM393 1458h166q-4 -20 1 -44.5t18.5 -45 t36 -35t57.5 -14.5q33 0 61.5 13.5t49 32.5t33.5 44t18 49h172q-12 -47 -37 -99t-67 -95t-102.5 -72t-142.5 -29q-80 0 -133 24.5t-83.5 65.5t-42 94.5t-5.5 110.5z" />
<glyph unicode="&#x120;" horiz-adv-x="1216" d="M121 397q0 27 3 52.5t7 54.5l90 465q20 111 72.5 195.5t128.5 143t173 88t208 29.5q59 0 119.5 -8t117 -24.5t104.5 -42t83 -58.5l-140 -182q-49 51 -128.5 75.5t-155.5 24.5q-61 0 -118.5 -16t-105 -51t-83 -90.5t-50.5 -132.5l-81 -414q-4 -20 -6.5 -40t-2.5 -36 q0 -59 20.5 -103t54.5 -72t79 -41t92 -13q43 0 103.5 13t132.5 60l55 281h-215l39 209h448l-112 -604q-55 -51 -115.5 -85t-122 -53.5t-123 -27.5t-119.5 -8q-92 0 -174 27.5t-144 80.5t-98 130t-36 173zM713 1622q4 55 46 96t101 41q49 0 80 -30.5t27 -83.5 q-4 -57 -47.5 -97.5t-100.5 -40.5q-49 0 -79.5 33t-26.5 82z" />
<glyph unicode="&#x121;" horiz-adv-x="1038" d="M-8 -270l149 139q18 -25 48 -42t62 -29.5t64.5 -17.5t57.5 -5q45 0 88 10t78.5 33.5t63.5 64.5t40 103l25 116q-117 -70 -196 -87t-132 -17q-141 0 -207.5 68.5t-66.5 191.5q0 27 3 53.5t7 55.5l51 274q39 207 157.5 297t307.5 90q33 0 84 -6t111.5 -19.5t125 -37 t125.5 -58.5l-184 -966q-72 -365 -492 -365q-49 0 -102 10.5t-103.5 29.5t-93.5 48t-71 66zM291 328q0 -68 35.5 -95.5t89.5 -27.5q55 0 134 27.5t159 80.5l90 463q-59 29 -120 42t-114 13q-178 0 -219 -194l-49 -250q-6 -35 -6 -59zM559 1296q4 55 46 96.5t102 41.5 q49 0 79.5 -31t26.5 -84q-4 -57 -47 -97t-100 -40q-49 0 -80 32.5t-27 81.5z" />
<glyph unicode="&#x122;" horiz-adv-x="1216" d="M121 397q0 27 3 52.5t7 54.5l90 465q20 111 72.5 195.5t128.5 143t173 88t208 29.5q59 0 119.5 -8t117 -24.5t104.5 -42t83 -58.5l-140 -182q-49 51 -128.5 75.5t-155.5 24.5q-61 0 -118.5 -16t-105 -51t-83 -90.5t-50.5 -132.5l-81 -414q-4 -20 -6.5 -40t-2.5 -36 q0 -59 20.5 -103t54.5 -72t79 -41t92 -13q43 0 103.5 13t132.5 60l55 281h-215l39 209h448l-112 -604q-55 -51 -115.5 -85t-122 -53.5t-123 -27.5t-119.5 -8q-92 0 -174 27.5t-144 80.5t-98 130t-36 173zM307 -506q59 33 95 65.5t53 84.5q-37 6 -58.5 37.5t-21.5 72.5 q0 59 44 107.5t122 48.5q66 0 98.5 -41t32.5 -100t-24.5 -114.5t-66.5 -103t-98.5 -86t-120.5 -63.5z" />
<glyph unicode="&#x123;" horiz-adv-x="1038" d="M-8 -270l149 139q18 -25 48 -42t62 -29.5t64.5 -17.5t57.5 -5q45 0 88 10t78.5 33.5t63.5 64.5t40 103l25 116q-117 -70 -196 -87t-132 -17q-141 0 -207.5 68.5t-66.5 191.5q0 27 3 53.5t7 55.5l51 274q39 207 157.5 297t307.5 90q33 0 84 -6t111.5 -19.5t125 -37 t125.5 -58.5l-184 -966q-72 -365 -492 -365q-49 0 -102 10.5t-103.5 29.5t-93.5 48t-71 66zM291 328q0 -68 35.5 -95.5t89.5 -27.5q55 0 134 27.5t159 80.5l90 463q-59 29 -120 42t-114 13q-178 0 -219 -194l-49 -250q-6 -35 -6 -59zM545 1292q0 59 24.5 114.5t67.5 102.5 t99.5 86t119.5 66l55 -94q-59 -33 -95 -66t-52 -84q37 -6 58.5 -37.5t21.5 -72.5q0 -59 -44 -107.5t-122 -48.5q-66 0 -99.5 41t-33.5 100z" />
<glyph unicode="&#x124;" horiz-adv-x="1269" d="M33 0l274 1411h234l-115 -590h592l115 590h237l-274 -1411h-238l119 610h-592l-119 -610h-233zM485 1597l359 261h139l248 -259l-86 -83l-252 170l-344 -175z" />
<glyph unicode="&#x125;" horiz-adv-x="1050" d="M16 0l287 1466h217l-108 -548q63 37 114.5 58t91 32.5t71.5 14.5t59 3q133 0 202.5 -69.5t69.5 -192.5q0 -23 -2 -48.5t-8 -53.5l-127 -662h-219l122 633q6 33 7 59q0 70 -37 97.5t-92 27.5t-130 -26.5t-163 -83.5l-138 -707h-217zM55 1597l359 261h139l248 -259l-86 -83 l-252 170l-344 -175z" />
<glyph unicode="&#x126;" horiz-adv-x="1269" d="M33 0l209 1073h-84l28 154h84l37 184h234l-37 -184h592l37 184h237l-37 -184h82l-31 -154h-79l-209 -1073h-238l119 610h-592l-119 -610h-233zM426 821h592l49 252h-592z" />
<glyph unicode="&#x127;" horiz-adv-x="1050" d="M16 0l226 1157h-113l29 152h114l31 157h217l-33 -157h418l-31 -152h-415l-47 -239q63 37 114.5 58t91 32.5t71.5 14.5t59 3q133 0 202.5 -69.5t69.5 -192.5q0 -23 -2 -48.5t-8 -53.5l-127 -662h-219l122 633q6 33 7 59q0 70 -37 97.5t-92 27.5t-130 -26.5t-163 -83.5 l-138 -707h-217z" />
<glyph unicode="&#x128;" horiz-adv-x="559" d="M82 0l274 1411h234l-275 -1411h-233zM139 1583q57 98 126 146.5t141 48.5q37 0 69.5 -13.5t62 -31t55 -30.5t50.5 -13q31 0 64.5 20.5t78.5 71.5q27 -16 56.5 -39t58.5 -39q-59 -106 -124.5 -150.5t-131.5 -44.5q-37 0 -69.5 12.5t-62.5 28t-58.5 28.5t-57.5 13 q-35 0 -65.5 -17.5t-79.5 -68.5z" />
<glyph unicode="&#x129;" horiz-adv-x="681" d="M115 1249q57 98 125.5 146.5t140.5 48.5q37 0 69.5 -13.5t62.5 -31t55.5 -30.5t49.5 -13q31 0 65 20.5t79 71.5q27 -16 56.5 -39t58.5 -39q-59 -106 -125 -150t-131 -44q-37 0 -70 12t-62.5 27.5t-58.5 28.5t-57 13q-35 0 -66 -17t-80 -69zM190 209q0 43 9 84l139 723 h217l-131 -674q-4 -23 -7 -40t-1 -32q0 -51 25.5 -66.5t74.5 -19.5l-41 -188h-37q-117 0 -182.5 51t-65.5 162z" />
<glyph unicode="&#x12a;" horiz-adv-x="559" d="M82 0l274 1411h234l-275 -1411h-233zM211 1567l37 184h592l-37 -184h-592z" />
<glyph unicode="&#x12b;" horiz-adv-x="604" d="M156 1214l37 183h593l-36 -183h-594zM158 209q0 43 8 84l139 723h217l-131 -674q-4 -23 -7 -40t-1 -32q0 -51 25.5 -66.5t74.5 -19.5l-41 -188h-36q-117 0 -182.5 51t-65.5 162z" />
<glyph unicode="&#x12c;" horiz-adv-x="559" d="M82 0l274 1411h234l-275 -1411h-233zM229 1796h166q-8 -47 17.5 -89t89.5 -42q37 0 65.5 13.5t48 33t31.5 42t17 42.5h170q-10 -45 -34 -95t-66 -92t-103.5 -70t-147.5 -28q-82 0 -134 29t-80.5 72t-37 92t-2.5 92z" />
<glyph unicode="&#x12d;" horiz-adv-x="636" d="M201 209q0 43 8 84l139 723h217l-131 -674q-4 -23 -7 -40t-1 -32q0 -51 25.5 -66.5t74.5 -19.5l-41 -188h-36q-117 0 -182.5 51t-65.5 162zM209 1470h166q-4 -20 1 -44.5t18.5 -45t36 -35t56.5 -14.5q33 0 62 13.5t49 33t33.5 44t17.5 48.5h172q-12 -47 -36.5 -99 t-66.5 -95t-102.5 -71.5t-142.5 -28.5q-80 0 -133 24.5t-84 65.5t-42 94t-5 110z" />
<glyph unicode="&#x12e;" horiz-adv-x="559" d="M8 -233q0 47 23.5 104t93.5 129h-43l274 1411h234l-275 -1411h-43q-49 -59 -78.5 -103t-29.5 -83q0 -61 74 -62q23 0 54.5 7.5t72.5 27.5l26 -117q-51 -29 -105.5 -41t-107.5 -12q-78 0 -124 42t-46 108z" />
<glyph unicode="&#x12f;" horiz-adv-x="546" d="M117 209q0 43 8 84l139 723h217l-131 -674q-4 -23 -7 -40t-1 -32q0 -51 25.5 -66.5t74.5 -19.5l-41 -188h-8q-47 -57 -75.5 -100t-28.5 -82q0 -61 73 -62q23 0 55 7.5t72 27.5l27 -117q-51 -29 -105.5 -41t-107.5 -12q-78 0 -124 42t-46 108q0 49 25.5 107t99.5 134 q-68 20 -104.5 69.5t-36.5 131.5zM301 1280q0 17 2 25q10 53 52 89t94 36q47 0 75.5 -29t28.5 -72q0 -31 -13.5 -57.5t-35 -47t-48 -32.5t-55.5 -12q-45 0 -72.5 28.5t-27.5 71.5z" />
<glyph unicode="&#x130;" horiz-adv-x="559" d="M82 0l274 1411h234l-275 -1411h-233zM389 1622q4 55 46 96t102 41q49 0 79.5 -30.5t26.5 -83.5q-4 -57 -47 -97.5t-100 -40.5q-49 0 -80 33t-27 82z" />
<glyph unicode="&#x131;" horiz-adv-x="546" d="M117 209q0 43 8 84l139 723h217l-131 -674q-4 -23 -7 -40t-1 -32q0 -51 25.5 -66.5t74.5 -19.5l-41 -188h-36q-117 0 -182.5 51t-65.5 162z" />
<glyph unicode="&#x132;" horiz-adv-x="1566" d="M82 0l274 1411h234l-275 -1411h-233zM457 111l131 178q61 -49 144 -67.5t145 -18.5q57 0 107 15t90 50t68.5 92.5t45.5 141.5l176 909h235l-188 -962q-43 -223 -174 -343t-367 -120q-121 0 -235.5 32.5t-177.5 92.5z" />
<glyph unicode="&#x133;" horiz-adv-x="1003" d="M117 209q0 43 8 84l139 723h217l-131 -674q-4 -23 -7 -40t-1 -32q0 -51 25.5 -66.5t74.5 -19.5l-41 -188h-36q-117 0 -182.5 51t-65.5 162zM295 -420l37 201q104 -10 149 24.5t62 122.5l211 1088h215l-215 -1116q-12 -70 -32 -130.5t-54.5 -105.5t-91 -71.5t-144.5 -26.5 q-29 0 -63.5 3t-73.5 11zM301 1280q0 17 2 25q10 53 52 89t94 36q47 0 75.5 -29t28.5 -72q0 -31 -13.5 -57.5t-35 -47t-48 -32.5t-55.5 -12q-45 0 -72.5 28.5t-27.5 71.5zM784 1282q0 29 13.5 55.5t34 47t47 33t55.5 12.5q47 0 76.5 -29t29.5 -72q0 -31 -13 -57.5t-34.5 -46 t-49.5 -31.5t-56 -12q-43 0 -73 28.5t-30 71.5z" />
<glyph unicode="&#x134;" horiz-adv-x="1081" d="M-29 113l131 178q61 -49 144.5 -67.5t144.5 -18.5q57 0 107.5 15.5t90.5 50t68.5 92t44.5 141.5l177 909h235l-188 -962q-43 -223 -174 -343t-367 -120q-121 0 -235.5 32.5t-178.5 92.5zM645 1602l359 260h139l248 -258l-86 -84l-252 170l-344 -174z" />
<glyph unicode="&#x135;" horiz-adv-x="698" d="M-94 -420l37 201q104 -10 149 24.5t62 122.5l211 1088h215l-215 -1116q-12 -70 -32 -130.5t-54.5 -105.5t-91 -71.5t-144.5 -26.5q-29 0 -63.5 3t-73.5 11zM121 1198l366 313h144l235 -311l-108 -86l-226 219l-337 -221z" />
<glyph unicode="&#x136;" horiz-adv-x="1228" d="M33 0l274 1411h234l-131 -682l696 682h278l-571 -563l336 -848h-250l-258 678l-297 -285l-76 -393h-235zM326 -475q59 33 95 65.5t52 83.5q-37 6 -58.5 38t-21.5 73q0 59 44 107.5t122 48.5q66 0 98.5 -41t32.5 -101q0 -59 -24.5 -114.5t-66.5 -102.5t-98.5 -86 t-119.5 -63z" />
<glyph unicode="&#x137;" horiz-adv-x="1005" d="M41 0l278 1466h216l-150 -776h119q59 0 111.5 23.5t93.5 99.5l112 203h242l-143 -254q-35 -59 -75 -107.5t-110 -68.5q39 -14 62.5 -36t36 -49.5t18.5 -59t10 -64.5l51 -377h-219l-41 328q-10 90 -45 122.5t-112 32.5h-150l-92 -483h-213zM207 -506q59 33 95 65.5 t52 84.5q-37 6 -58.5 37.5t-21.5 72.5q0 59 44 107.5t122 48.5q66 0 98.5 -41t32.5 -100t-24.5 -114.5t-66.5 -103t-98 -86t-120 -63.5z" />
<glyph unicode="&#x138;" horiz-adv-x="1017" d="M25 0l186 1016h213l-76 -391h131q31 0 58.5 4t53 17t49.5 41t46 75l117 254h227l-129 -293q-35 -74 -80 -125t-106 -70q68 -23 89 -71.5t34 -124.5l47 -332h-221l-33 287q-6 47 -19.5 75.5t-35 44t-50 20.5t-63.5 5h-150l-77 -432h-211z" />
<glyph unicode="&#x139;" horiz-adv-x="1118" d="M49 0l275 1411h233l-235 -1202h727l-41 -209h-959zM399 1604l373 264l117 -152l-418 -213z" />
<glyph unicode="&#x13a;" horiz-adv-x="528" d="M90 190q0 20 3 44t7 49l228 1183h213l-222 -1165q-2 -12 -3 -21.5t-1 -19.5q0 -43 32 -56.5t104 -15.5l-37 -194h-70q-135 0 -194.5 49t-59.5 147zM387 1638l373 265l117 -152l-418 -213z" />
<glyph unicode="&#x13b;" horiz-adv-x="1118" d="M49 0l275 1411h233l-235 -1202h727l-41 -209h-959zM258 -506q59 33 95 65.5t53 84.5q-37 6 -58.5 37.5t-21.5 72.5q0 59 44 107.5t122 48.5q66 0 98.5 -41t32.5 -100t-25 -114.5t-67 -103t-98 -86t-120 -63.5z" />
<glyph unicode="&#x13c;" horiz-adv-x="528" d="M-43 -504q59 33 95 65.5t52 84.5q-37 6 -58 37.5t-21 72.5q0 59 44 107.5t121 48.5q66 0 99 -41t33 -100t-25 -114.5t-67 -103t-98 -86t-120 -63.5zM90 190q0 20 3 44t7 49l228 1183h213l-222 -1165q-2 -12 -3 -21.5t-1 -19.5q0 -43 32 -56.5t104 -15.5l-37 -194h-70 q-135 0 -194.5 49t-59.5 147z" />
<glyph unicode="&#x13d;" horiz-adv-x="1118" d="M49 0l275 1411h233l-235 -1202h727l-41 -209h-959zM674 1006q59 33 95 65.5t52 83.5q-37 6 -58.5 38t-21.5 73q0 59 44 107t122 48q66 0 98.5 -41t32.5 -100t-24.5 -114.5t-66.5 -102.5t-98 -86t-120 -64z" />
<glyph unicode="&#x13e;" horiz-adv-x="757" d="M90 190q0 20 3 44t7 49l228 1183h213l-222 -1165q-2 -12 -3 -21.5t-1 -19.5q0 -43 32 -56.5t104 -15.5l-37 -194h-70q-135 0 -194.5 49t-59.5 147zM563 1067q59 33 95 65.5t53 84.5q-37 6 -58.5 37.5t-21.5 72.5q0 59 44 107.5t122 48.5q66 0 98.5 -41t32.5 -101 q0 -59 -24.5 -114.5t-66.5 -102.5t-98.5 -86t-120.5 -63z" />
<glyph unicode="&#x13f;" horiz-adv-x="1118" d="M49 0l275 1411h233l-235 -1202h727l-41 -209h-959zM647 725q4 55 46 96t102 41q49 0 79.5 -30.5t26.5 -83.5q-4 -57 -47 -97.5t-100 -40.5q-49 0 -80 33t-27 82z" />
<glyph unicode="&#x140;" horiz-adv-x="704" d="M90 190q0 20 3 44t7 49l228 1183h213l-222 -1165q-2 -12 -3 -21.5t-1 -19.5q0 -43 32 -56.5t104 -15.5l-37 -194h-70q-135 0 -194.5 49t-59.5 147zM537 766q4 55 46 96t101 41q49 0 80 -30.5t27 -84.5q-4 -57 -47.5 -97t-100.5 -40q-49 0 -80 33t-26 82z" />
<glyph unicode="&#x141;" horiz-adv-x="1118" d="M-16 526l186 99l154 786h233l-127 -651l315 166l54 -140l-406 -213l-71 -364h727l-41 -209h-959l84 438l-98 -51z" />
<glyph unicode="&#x142;" horiz-adv-x="661" d="M49 641l199 107l139 718h213l-113 -594l146 78q14 -35 27.5 -68.5t25.5 -68.5q-61 -35 -118.5 -65.5t-114.5 -59.5l-74 -387q-2 -12 -3 -21.5t-1 -19.5q0 -43 31.5 -56.5t103.5 -15.5l-37 -194h-70q-135 0 -194 49t-59 147q0 20 3 44t7 49l53 282l-115 -61z" />
<glyph unicode="&#x143;" horiz-adv-x="1351" d="M39 0l268 1411h217q12 -27 47 -101.5t81 -175t97.5 -214t97.5 -215t81 -179l49 -108.5h12q47 250 94 496.5t95 496.5h231l-268 -1411h-219q-12 29 -47 102.5t-80 172t-95.5 208t-96.5 210t-82 179t-50 113.5h-12l-189 -985h-231zM737 1604l373 264l117 -152l-418 -213z " />
<glyph unicode="&#x144;" horiz-adv-x="1050" d="M16 0l199 1014h195l2 -96q70 39 121 60t90 31.5t68.5 13.5t56.5 3q133 0 202.5 -68.5t69.5 -191.5q0 -23 -2 -48.5t-8 -53.5l-127 -664h-219l122 633q6 33 7 61q0 68 -36 95.5t-93 27.5q-113 0 -293 -110l-138 -707h-217zM508 1167l229 379l189 -63l-299 -365z" />
<glyph unicode="&#x145;" horiz-adv-x="1351" d="M39 0l268 1411h217q12 -27 47 -101.5t81 -175t97.5 -214t97.5 -215t81 -179l49 -108.5h12q47 250 94 496.5t95 496.5h231l-268 -1411h-219q-12 29 -47 102.5t-80 172t-95.5 208t-96.5 210t-82 179t-50 113.5h-12l-189 -985h-231zM377 -465q59 33 95 65.5t52 84.5 q-37 6 -58.5 37.5t-21.5 72.5q0 59 44 107.5t122 48.5q66 0 98.5 -41t32.5 -100t-24.5 -114.5t-66.5 -103t-98 -86t-120 -63.5z" />
<glyph unicode="&#x146;" horiz-adv-x="1050" d="M16 0l199 1014h195l2 -96q70 39 121 60t90 31.5t68.5 13.5t56.5 3q133 0 202.5 -68.5t69.5 -191.5q0 -23 -2 -48.5t-8 -53.5l-127 -664h-219l122 633q6 33 7 61q0 68 -36 95.5t-93 27.5q-113 0 -293 -110l-138 -707h-217zM211 -506q59 33 95 65.5t52 84.5q-37 6 -58 37.5 t-21 72.5q0 59 44 107.5t121 48.5q66 0 98.5 -41t32.5 -100t-24.5 -114.5t-66.5 -103t-98 -86t-120 -63.5z" />
<glyph unicode="&#x147;" horiz-adv-x="1351" d="M39 0l268 1411h217q12 -27 47 -101.5t81 -175t97.5 -214t97.5 -215t81 -179l49 -108.5h12q47 250 94 496.5t95 496.5h231l-268 -1411h-219q-12 29 -47 102.5t-80 172t-95.5 208t-96.5 210t-82 179t-50 113.5h-12l-189 -985h-231zM530 1765l84 88l252 -167l346 176l64 -93 l-361 -262h-139z" />
<glyph unicode="&#x148;" horiz-adv-x="1050" d="M16 0l199 1014h195l2 -96q70 39 121 60t90 31.5t68.5 13.5t56.5 3q133 0 202.5 -68.5t69.5 -191.5q0 -23 -2 -48.5t-8 -53.5l-127 -664h-219l122 633q6 33 7 61q0 68 -36 95.5t-93 27.5q-113 0 -293 -110l-138 -707h-217zM326 1432l104 84q10 -8 44 -41t73 -70 t72.5 -69.5t44.5 -41.5l329 222l76 -89l-356 -311h-144z" />
<glyph unicode="&#x149;" horiz-adv-x="1277" d="M86 983q59 33 95 65.5t52 84.5q-37 6 -58 37.5t-21 72.5q0 59 44 107.5t121 48.5q66 0 99 -41t33 -101q0 -59 -25 -114.5t-67 -102.5t-98 -86t-120 -63zM244 0l198 1014h195l2 -96q70 39 121 60t90 31.5t68.5 13.5t56.5 3q133 0 202.5 -68.5t69.5 -191.5q0 -23 -2 -48.5 t-8 -53.5l-127 -664h-219l123 633q6 33 6 61q0 68 -36 95.5t-93 27.5q-113 0 -293 -110l-137 -707h-217z" />
<glyph unicode="&#x14a;" horiz-adv-x="1320" d="M39 0l260 1411h211l295 -633l160 -350h10l180 983h229l-288 -1558q-23 -123 -89.5 -175.5t-175.5 -52.5q-47 0 -92 11.5t-92 33.5l64 164q25 -6 46 -10t38 -4q78 0 98 96l16 86l-299 641l-149 334h-15l-180 -977h-227z" />
<glyph unicode="&#x14b;" horiz-adv-x="1028" d="M16 0l187 1014h188l2 -101q68 37 121 59.5t95 35t75 15.5t57 3q137 0 196.5 -71.5t59.5 -184.5q0 -27 -3 -52.5t-7 -53.5l-151 -811q-23 -123 -97.5 -175.5t-169.5 -52.5q-47 0 -92 11.5t-90 33.5l62 162q20 -6 41.5 -10t37.5 -4q41 0 68 22.5t37 73.5l133 719q6 31 6 57 q0 59 -30.5 93t-96.5 34q-53 0 -126 -26.5t-159 -75.5l-131 -715h-213z" />
<glyph unicode="&#x14c;" horiz-adv-x="1273" d="M123 420q0 55 12 117l84 432q43 221 186.5 338.5t378.5 117.5q100 0 190.5 -30.5t156 -86t104.5 -134t39 -175.5q0 -23 -2 -45t-6 -47l-86 -465q-41 -217 -185.5 -336.5t-392.5 -119.5q-92 0 -179 27.5t-153.5 83t-106.5 136t-40 187.5zM358 434q0 -61 20.5 -105 t55.5 -73t80 -42t94 -13q147 0 232.5 77.5t115.5 233.5l76 385q4 18 6 34.5t2 33.5q0 61 -22.5 107t-59 77t-84 46t-98.5 15q-127 0 -215 -68.5t-117 -221.5l-77 -408q-8 -39 -9 -78zM571 1567l37 184h592l-37 -184h-592z" />
<glyph unicode="&#x14d;" horiz-adv-x="1050" d="M96 346q0 23 2 45.5t6 46.5l39 213q35 182 147.5 278.5t309.5 96.5q92 0 166 -27.5t126 -77t80.5 -116t28.5 -143.5q0 -45 -8 -84l-43 -226q-39 -195 -159.5 -278.5t-298.5 -83.5q-74 0 -146 21.5t-127 65.5t-89 110.5t-34 158.5zM315 369q0 -49 16.5 -83t43 -55.5 t59.5 -31t66 -9.5q41 0 78.5 9.5t69.5 32t56.5 63.5t36.5 104l37 179q6 31 6 59q0 92 -56 140t-138 48q-88 0 -150.5 -46t-85.5 -163l-35 -192q-4 -16 -4 -29.5v-25.5zM381 1214l37 183h594l-37 -183h-594z" />
<glyph unicode="&#x14e;" horiz-adv-x="1273" d="M123 420q0 55 12 117l84 432q43 221 186.5 338.5t378.5 117.5q100 0 190.5 -30.5t156 -86t104.5 -134t39 -175.5q0 -23 -2 -45t-6 -47l-86 -465q-41 -217 -185.5 -336.5t-392.5 -119.5q-92 0 -179 27.5t-153.5 83t-106.5 136t-40 187.5zM358 434q0 -61 20.5 -105 t55.5 -73t80 -42t94 -13q147 0 232.5 77.5t115.5 233.5l76 385q4 18 6 34.5t2 33.5q0 61 -22.5 107t-59 77t-84 46t-98.5 15q-127 0 -215 -68.5t-117 -221.5l-77 -408q-8 -39 -9 -78zM590 1796h166q-8 -47 17.5 -89t88.5 -42q37 0 65.5 13.5t48 33t32 42t16.5 42.5h170 q-10 -45 -33.5 -95t-65.5 -92t-103.5 -70t-147.5 -28q-82 0 -134.5 29t-81 72t-36.5 92t-2 92z" />
<glyph unicode="&#x14f;" horiz-adv-x="1050" d="M96 346q0 23 2 45.5t6 46.5l39 213q35 182 147.5 278.5t309.5 96.5q92 0 166 -27.5t126 -77t80.5 -116t28.5 -143.5q0 -45 -8 -84l-43 -226q-39 -195 -159.5 -278.5t-298.5 -83.5q-74 0 -146 21.5t-127 65.5t-89 110.5t-34 158.5zM315 369q0 -49 16.5 -83t43 -55.5 t59.5 -31t66 -9.5q41 0 78.5 9.5t69.5 32t56.5 63.5t36.5 104l37 179q6 31 6 59q0 92 -56 140t-138 48q-88 0 -150.5 -46t-85.5 -163l-35 -192q-4 -16 -4 -29.5v-25.5zM403 1458h166q-4 -20 1 -44.5t18.5 -45t36 -35t57.5 -14.5q33 0 61.5 13.5t49 32.5t34 44t17.5 49h172 q-12 -47 -37 -99t-67 -95t-102 -72t-142 -29q-80 0 -133.5 24.5t-84 65.5t-42 94.5t-5.5 110.5z" />
<glyph unicode="&#x150;" horiz-adv-x="1273" d="M123 420q0 55 12 117l84 432q43 221 186.5 338.5t378.5 117.5q100 0 190.5 -30.5t156 -86t104.5 -134t39 -175.5q0 -23 -2 -45t-6 -47l-86 -465q-41 -217 -185.5 -336.5t-392.5 -119.5q-92 0 -179 27.5t-153.5 83t-106.5 136t-40 187.5zM358 434q0 -61 20.5 -105 t55.5 -73t80 -42t94 -13q147 0 232.5 77.5t115.5 233.5l76 385q4 18 6 34.5t2 33.5q0 61 -22.5 107t-59 77t-84 46t-98.5 15q-127 0 -215 -68.5t-117 -221.5l-77 -408q-8 -39 -9 -78zM543 1599l329 271l140 -148l-383 -221zM913 1599l365 271l123 -148l-412 -221z" />
<glyph unicode="&#x151;" horiz-adv-x="1050" d="M96 346q0 23 2 45.5t6 46.5l39 213q35 182 147.5 278.5t309.5 96.5q92 0 166 -27.5t126 -77t80.5 -116t28.5 -143.5q0 -45 -8 -84l-43 -226q-39 -195 -159.5 -278.5t-298.5 -83.5q-74 0 -146 21.5t-127 65.5t-89 110.5t-34 158.5zM315 369q0 -49 16.5 -83t43 -55.5 t59.5 -31t66 -9.5q41 0 78.5 9.5t69.5 32t56.5 63.5t36.5 104l37 179q6 31 6 59q0 92 -56 140t-138 48q-88 0 -150.5 -46t-85.5 -163l-35 -192q-4 -16 -4 -29.5v-25.5zM399 1167l230 379l190 -63l-301 -365zM705 1167l231 379l188 -63l-301 -365z" />
<glyph unicode="&#x152;" horiz-adv-x="1826" d="M119 414q0 57 12 123l84 432q43 221 187 338.5t382 117.5q41 0 94.5 -3t90.5 -11h956l-41 -211h-723l-74 -387h617l-41 -211h-619l-75 -393h721l-39 -209h-932q-68 -12 -144 -12q-102 0 -186 29.5t-144.5 85t-93 134t-32.5 177.5zM352 434q0 -61 20.5 -105t55.5 -73 t80 -42t94 -13q35 0 67.5 5t67.5 21l187 953q-31 16 -71 23t-79 7q-133 0 -218 -68.5t-116 -221.5l-80 -412q-4 -20 -6 -38.5t-2 -35.5z" />
<glyph unicode="&#x153;" horiz-adv-x="1671" d="M92 330q0 35 6 76l45 251q33 182 150 275.5t309 93.5q45 0 93 -9t93.5 -26.5t82 -43t61.5 -58.5q61 70 149.5 103.5t194.5 33.5q176 0 265 -81t89 -210q0 -154 -140 -243t-427 -89h-43.5t-42.5 3q-6 -29 -6 -56q0 -82 48 -126t140 -44q53 0 112.5 21.5t114.5 74.5 q31 -41 63 -80.5t60 -80.5q-94 -76 -191 -100.5t-194 -24.5q-100 0 -176 31.5t-121 95.5q-68 -74 -161 -100.5t-197 -26.5q-74 0 -142.5 22.5t-120.5 66.5t-83 107.5t-31 143.5zM309 360q0 -82 53.5 -127t131.5 -45q39 0 78.5 9.5t72.5 33t58.5 64.5t37.5 104l39 201 q4 12 4 23.5v21.5q0 86 -58 132t-138 46q-86 0 -149.5 -46t-86.5 -163l-39 -211q-2 -10 -3 -21t-1 -22zM1008 575q23 -2 43 -2h39q102 0 164.5 13.5t97 35t47 48t12.5 51.5q0 49 -32.5 79.5t-108.5 30.5q-111 0 -173.5 -68.5t-88.5 -187.5z" />
<glyph unicode="&#x154;" horiz-adv-x="1193" d="M35 0l274 1411h592q88 0 152.5 -30.5t106.5 -81t62.5 -116t20.5 -132.5q0 -63 -16.5 -129t-54 -127.5t-99 -114.5t-151.5 -90l143 -590h-252q-31 137 -60.5 274.5t-58.5 274.5h-317q-29 -137 -54.5 -274.5t-52.5 -274.5h-235zM418 762h321q57 0 106.5 19.5t86.5 53 t57.5 82t20.5 105.5q0 80 -47.5 128t-139.5 48h-319zM631 1604l373 264l116 -152l-418 -213z" />
<glyph unicode="&#x155;" horiz-adv-x="710" d="M37 0l196 1016h193l-6 -146h2q33 27 77 54.5t95 50t106.5 37t108.5 16.5l-33 -231q-139 -20 -232 -47t-159 -64l-131 -686h-217zM401 1167l230 379l188 -63l-299 -365z" />
<glyph unicode="&#x156;" horiz-adv-x="1193" d="M35 0l274 1411h592q88 0 152.5 -30.5t106.5 -81t62.5 -116t20.5 -132.5q0 -63 -16.5 -129t-54 -127.5t-99 -114.5t-151.5 -90l143 -590h-252q-31 137 -60.5 274.5t-58.5 274.5h-317q-29 -137 -54.5 -274.5t-52.5 -274.5h-235zM299 -465q59 33 95 65.5t52 84.5 q-37 6 -58 37.5t-21 72.5q0 59 44 107.5t121 48.5q66 0 99 -41t33 -100t-25 -114.5t-67 -103t-98 -86t-120 -63.5zM418 762h321q57 0 106.5 19.5t86.5 53t57.5 82t20.5 105.5q0 80 -47.5 128t-139.5 48h-319z" />
<glyph unicode="&#x157;" horiz-adv-x="710" d="M-115 -506q59 33 95 65.5t53 84.5q-37 6 -58.5 37.5t-21.5 72.5q0 59 44 107.5t122 48.5q66 0 98.5 -41t32.5 -100t-24.5 -114.5t-66.5 -103t-98.5 -86t-119.5 -63.5zM37 0l196 1016h193l-6 -146h2q33 27 77 54.5t95 50t106.5 37t108.5 16.5l-33 -231q-139 -20 -232 -47 t-159 -64l-131 -686h-217z" />
<glyph unicode="&#x158;" horiz-adv-x="1193" d="M35 0l274 1411h592q88 0 152.5 -30.5t106.5 -81t62.5 -116t20.5 -132.5q0 -63 -16.5 -129t-54 -127.5t-99 -114.5t-151.5 -90l143 -590h-252q-31 137 -60.5 274.5t-58.5 274.5h-317q-29 -137 -54.5 -274.5t-52.5 -274.5h-235zM418 762h321q57 0 106.5 19.5t86.5 53 t57.5 82t20.5 105.5q0 80 -47.5 128t-139.5 48h-319zM436 1765l84 88l252 -167l346 176l64 -93l-361 -262h-139z" />
<glyph unicode="&#x159;" horiz-adv-x="710" d="M37 0l196 1016h193l-6 -146h2q33 27 77 54.5t95 50t106.5 37t108.5 16.5l-33 -231q-139 -20 -232 -47t-159 -64l-131 -686h-217zM176 1432l105 84q10 -8 43.5 -41t72.5 -70t73 -69.5t44 -41.5l330 222l76 -89l-357 -311h-143z" />
<glyph unicode="&#x15a;" horiz-adv-x="1165" d="M23 176q10 10 30.5 33.5t42 49.5t42 49.5t30.5 33.5q72 -66 168 -102.5t205 -36.5q152 0 237.5 66.5t85.5 164.5q0 45 -23.5 75t-62.5 50.5t-86 34.5t-96 27q-74 16 -144.5 41.5t-124 66.5t-86 101.5t-32.5 146.5q0 104 40 189t110.5 144.5t166.5 93.5t211 34 q125 0 243 -29t212 -96l-119 -189q-74 53 -162 77t-178 24q-47 0 -97 -13.5t-91 -40t-68.5 -69.5t-27.5 -101q0 -45 23.5 -75.5t60 -52t80.5 -35t85 -21.5q94 -23 171 -51.5t132.5 -70.5t85 -103.5t29.5 -147.5q0 -106 -47 -190t-128 -143.5t-187.5 -91t-223.5 -31.5 q-154 0 -281.5 45t-225.5 143zM629 1604l372 264l117 -152l-418 -213z" />
<glyph unicode="&#x15b;" horiz-adv-x="942" d="M4 129q66 82 131 156q66 -63 138.5 -87t158.5 -24q88 0 148.5 39t60.5 104q0 43 -37 64.5t-91 36t-118.5 28t-119 40t-91.5 73.5t-37 127q0 88 38 151.5t97.5 104.5t133 61.5t147.5 20.5q117 0 210 -23.5t169 -89.5q-29 -41 -60.5 -82t-60.5 -81q-66 49 -131 67.5 t-137 18.5q-92 0 -140 -40t-48 -87q0 -23 14 -39.5t36.5 -28.5t51.5 -19.5t57 -13.5q49 -8 108.5 -21.5t112 -42t87 -76.5t34.5 -126q0 -88 -36.5 -153.5t-99 -109.5t-144.5 -65.5t-174 -21.5q-111 0 -213.5 26.5t-194.5 112.5zM494 1167l229 379l188 -63l-299 -365z" />
<glyph unicode="&#x15c;" horiz-adv-x="1165" d="M23 176q10 10 30.5 33.5t42 49.5t42 49.5t30.5 33.5q72 -66 168 -102.5t205 -36.5q152 0 237.5 66.5t85.5 164.5q0 45 -23.5 75t-62.5 50.5t-86 34.5t-96 27q-74 16 -144.5 41.5t-124 66.5t-86 101.5t-32.5 146.5q0 104 40 189t110.5 144.5t166.5 93.5t211 34 q125 0 243 -29t212 -96l-119 -189q-74 53 -162 77t-178 24q-47 0 -97 -13.5t-91 -40t-68.5 -69.5t-27.5 -101q0 -45 23.5 -75.5t60 -52t80.5 -35t85 -21.5q94 -23 171 -51.5t132.5 -70.5t85 -103.5t29.5 -147.5q0 -106 -47 -190t-128 -143.5t-187.5 -91t-223.5 -31.5 q-154 0 -281.5 45t-225.5 143zM416 1597l358 261h139l248 -259l-86 -83l-252 170l-344 -175z" />
<glyph unicode="&#x15d;" horiz-adv-x="942" d="M4 129q66 82 131 156q66 -63 138.5 -87t158.5 -24q88 0 148.5 39t60.5 104q0 43 -37 64.5t-91 36t-118.5 28t-119 40t-91.5 73.5t-37 127q0 88 38 151.5t97.5 104.5t133 61.5t147.5 20.5q117 0 210 -23.5t169 -89.5q-29 -41 -60.5 -82t-60.5 -81q-66 49 -131 67.5 t-137 18.5q-92 0 -140 -40t-48 -87q0 -23 14 -39.5t36.5 -28.5t51.5 -19.5t57 -13.5q49 -8 108.5 -21.5t112 -42t87 -76.5t34.5 -126q0 -88 -36.5 -153.5t-99 -109.5t-144.5 -65.5t-174 -21.5q-111 0 -213.5 26.5t-194.5 112.5zM252 1202l354 309h144l235 -311l-98 -76 l-223 209l-336 -221z" />
<glyph unicode="&#x15e;" horiz-adv-x="1165" d="M23 176q10 10 30.5 33.5t42 49.5t42 49.5t30.5 33.5q72 -66 168 -102.5t205 -36.5q152 0 237.5 66.5t85.5 164.5q0 45 -23.5 75t-62.5 50.5t-86 34.5t-96 27q-74 16 -144.5 41.5t-124 66.5t-86 101.5t-32.5 146.5q0 104 40 189t110.5 144.5t167 93.5t210.5 34 q125 0 243 -29t212 -96l-119 -189q-74 53 -162 77t-178 24q-47 0 -97 -13.5t-91 -40t-68.5 -69.5t-27.5 -101q0 -45 23.5 -75.5t60 -52t80.5 -35t85 -21.5q94 -23 171 -51.5t132.5 -70.5t85 -103.5t29.5 -147.5q0 -102 -44 -185t-119.5 -141.5t-177 -92t-214.5 -37.5 l-33 -66q49 0 84 -14t56.5 -37t31 -50.5t9.5 -51.5q0 -37 -16.5 -74t-49.5 -66.5t-82 -47t-112 -17.5q-18 0 -44 2t-53.5 7t-56.5 14.5t-53 21.5l53 100q41 -20 82 -26.5t72 -6.5q37 0 73.5 19.5t36.5 62.5q0 20 -10 32.5t-25.5 18t-33 4.5t-31.5 -6l-74 48l68 137 q-129 10 -236.5 54t-193.5 130z" />
<glyph unicode="&#x15f;" horiz-adv-x="942" d="M4 129q66 82 131 156q66 -63 138.5 -87t158.5 -24q88 0 148.5 39t60.5 104q0 43 -37 64.5t-91 36t-118.5 28t-119 40t-91.5 73.5t-37 127q0 88 38 151.5t97.5 104.5t133 61.5t147.5 20.5q117 0 210 -23.5t169 -89.5q-29 -41 -60.5 -82t-60.5 -81q-66 49 -131 67.5 t-137 18.5q-92 0 -140 -40t-48 -87q0 -23 14 -39.5t36.5 -28.5t51.5 -19.5t57 -13.5q49 -8 108.5 -21.5t112 -42t87 -76.5t34.5 -126q0 -84 -32.5 -146.5t-88 -105.5t-130 -67.5t-158.5 -28.5l-35 -70q49 0 84 -14t56.5 -37t30.5 -50.5t9 -51.5q0 -37 -16.5 -74t-49 -66.5 t-81.5 -47t-113 -17.5q-18 0 -44 2t-53.5 7t-56 14.5t-53.5 21.5l53 100q41 -20 82 -26.5t72 -6.5q37 0 74 19.5t37 62.5q0 20 -10.5 32.5t-26 18t-32.5 4.5t-32 -6l-73 48l67 137q-92 6 -178 34.5t-164 102.5z" />
<glyph unicode="&#x160;" horiz-adv-x="1165" d="M23 176q10 10 30.5 33.5t42 49.5t42 49.5t30.5 33.5q72 -66 168 -102.5t205 -36.5q152 0 237.5 66.5t85.5 164.5q0 45 -23.5 75t-62.5 50.5t-86 34.5t-96 27q-74 16 -144.5 41.5t-124 66.5t-86 101.5t-32.5 146.5q0 104 40 189t110.5 144.5t166.5 93.5t211 34 q125 0 243 -29t212 -96l-119 -189q-74 53 -162 77t-178 24q-47 0 -97 -13.5t-91 -40t-68.5 -69.5t-27.5 -101q0 -45 23.5 -75.5t60 -52t80.5 -35t85 -21.5q94 -23 171 -51.5t132.5 -70.5t85 -103.5t29.5 -147.5q0 -106 -47 -190t-128 -143.5t-187.5 -91t-223.5 -31.5 q-154 0 -281.5 45t-225.5 143zM498 1765l84 88l252 -167l346 176l63 -93l-360 -262h-140z" />
<glyph unicode="&#x161;" horiz-adv-x="942" d="M4 129q66 82 131 156q66 -63 138.5 -87t158.5 -24q88 0 148.5 39t60.5 104q0 43 -37 64.5t-91 36t-118.5 28t-119 40t-91.5 73.5t-37 127q0 88 38 151.5t97.5 104.5t133 61.5t147.5 20.5q117 0 210 -23.5t169 -89.5q-29 -41 -60.5 -82t-60.5 -81q-66 49 -131 67.5 t-137 18.5q-92 0 -140 -40t-48 -87q0 -23 14 -39.5t36.5 -28.5t51.5 -19.5t57 -13.5q49 -8 108.5 -21.5t112 -42t87 -76.5t34.5 -126q0 -88 -36.5 -153.5t-99 -109.5t-144.5 -65.5t-174 -21.5q-111 0 -213.5 26.5t-194.5 112.5zM295 1432l104 84q10 -8 44 -41t73 -70 t73 -69.5t44 -41.5l330 222l75 -89l-356 -311h-143z" />
<glyph unicode="&#x162;" horiz-adv-x="1073" d="M188 1198l41 213h1016l-41 -213h-391l-231 -1198h-236l232 1198h-390zM209 -506q59 33 95 65.5t52 84.5q-37 6 -58.5 37.5t-21.5 72.5q0 59 44.5 107.5t121.5 48.5q66 0 98.5 -41t32.5 -100t-24.5 -114.5t-66.5 -103t-98 -86t-120 -63.5z" />
<glyph unicode="&#x163;" horiz-adv-x="745" d="M23 -506q59 33 95 65.5t52 84.5q-37 6 -58.5 37.5t-21.5 72.5q0 59 44 107.5t122 48.5q66 0 98.5 -41t32.5 -100t-24.5 -114.5t-66.5 -103t-98.5 -86t-119.5 -63.5zM137 831l35 185h139l88 241h168l-47 -241h250l-35 -185h-250l-88 -460q-4 -20 -5 -38t-3 -34 q0 -47 25.5 -74.5t93.5 -27.5q31 0 72 4t88 8l6 -186q-33 -10 -69 -17.5t-69.5 -10.5t-62.5 -4t-47 -1q-74 0 -125 15t-82 45t-44 71t-13 92t12 113l98 505h-135z" />
<glyph unicode="&#x164;" horiz-adv-x="1073" d="M188 1198l41 213h1016l-41 -213h-391l-231 -1198h-236l232 1198h-390zM428 1765l84 88l252 -167l346 176l64 -93l-361 -262h-139z" />
<glyph unicode="&#x165;" horiz-adv-x="815" d="M137 831l35 185h139l88 241h168l-47 -241h250l-35 -185h-250l-88 -460q-4 -20 -5 -38t-3 -34q0 -47 25.5 -74.5t93.5 -27.5q31 0 72 4t88 8l6 -186q-33 -10 -69 -17.5t-69.5 -10.5t-62.5 -4t-47 -1q-74 0 -125 15t-82 45t-44 71t-13 92t12 113l98 505h-135zM662 1198 q59 33 95 65.5t52 84.5q-37 6 -58.5 37.5t-21.5 72.5q0 59 44 107.5t122 48.5q66 0 98.5 -41t32.5 -100t-24.5 -114.5t-66.5 -103t-98.5 -86.5t-119.5 -63z" />
<glyph unicode="&#x166;" horiz-adv-x="1073" d="M180 662l31 163h295l72 373h-390l41 213h1016l-41 -213h-391l-72 -373h310l-31 -163h-311l-127 -662h-236l127 662h-293z" />
<glyph unicode="&#x167;" horiz-adv-x="745" d="M82 485l31 152h120l39 192h-137l37 185h139l90 243h168l-47 -243h252l-37 -185h-252l-36 -192h260l-31 -152h-260l-21 -114q-4 -25 -7 -46.5t-3 -37.5q0 -51 25.5 -74t91.5 -23q27 0 70.5 5.5t91.5 19.5l4 -190q-66 -23 -136.5 -29t-109.5 -6q-143 0 -202.5 58t-59.5 167 q0 55 12 121l29 149h-121z" />
<glyph unicode="&#x168;" horiz-adv-x="1273" d="M117 393q0 27 2 54.5t8 56.5l176 907h236l-181 -913q-6 -37 -6 -70q0 -61 22.5 -105t57.5 -72t80 -40t88 -12q59 0 116.5 16t104.5 52t82 92.5t51 138.5l176 913h238l-188 -965q-23 -111 -75 -196.5t-129 -144t-175.5 -88t-212.5 -29.5q-92 0 -178 24.5t-150.5 75.5 t-103.5 127t-39 178zM479 1583q57 98 125.5 146.5t140.5 48.5q37 0 70 -13.5t62.5 -31t55 -30.5t50.5 -13q31 0 64.5 20.5t78.5 71.5q27 -16 56.5 -39t58.5 -39q-59 -106 -124.5 -150.5t-131.5 -44.5q-37 0 -69.5 12.5t-62.5 28t-58.5 28.5t-57.5 13q-35 0 -65.5 -17.5 t-79.5 -68.5z" />
<glyph unicode="&#x169;" horiz-adv-x="1056" d="M72 256q0 25 3 50.5t7 53.5l129 654h219l-125 -633q-6 -31 -6 -57q0 -68 36 -96.5t89 -28.5q55 0 131 28.5t168 85.5l137 701h217l-196 -1014h-197l-4 98q-61 -37 -111.5 -59.5t-91.5 -33.5t-73.5 -14t-59.5 -3q-135 0 -203.5 72.5t-68.5 195.5zM303 1249 q57 98 125.5 146.5t140.5 48.5q37 0 70 -13.5t62.5 -31t55 -30.5t50.5 -13q31 0 64.5 20.5t78.5 71.5q27 -16 56.5 -39t58.5 -39q-59 -106 -125 -150t-131 -44q-37 0 -69.5 12t-62.5 27.5t-58.5 28.5t-57.5 13q-35 0 -65.5 -17t-79.5 -69z" />
<glyph unicode="&#x16a;" horiz-adv-x="1273" d="M117 393q0 27 2 54.5t8 56.5l176 907h236l-181 -913q-6 -37 -6 -70q0 -61 22.5 -105t57.5 -72t80 -40t88 -12q59 0 116.5 16t104.5 52t82 92.5t51 138.5l176 913h238l-188 -965q-23 -111 -75 -196.5t-129 -144t-175.5 -88t-212.5 -29.5q-92 0 -178 24.5t-150.5 75.5 t-103.5 127t-39 178zM559 1567l37 184h592l-37 -184h-592z" />
<glyph unicode="&#x16b;" horiz-adv-x="1056" d="M72 256q0 25 3 50.5t7 53.5l129 654h219l-125 -633q-6 -31 -6 -57q0 -68 36 -96.5t89 -28.5q55 0 131 28.5t168 85.5l137 701h217l-196 -1014h-197l-4 98q-61 -37 -111.5 -59.5t-91.5 -33.5t-73.5 -14t-59.5 -3q-135 0 -203.5 72.5t-68.5 195.5zM381 1214l37 183h594 l-37 -183h-594z" />
<glyph unicode="&#x16c;" horiz-adv-x="1273" d="M117 393q0 27 2 54.5t8 56.5l176 907h236l-181 -913q-6 -37 -6 -70q0 -61 22.5 -105t57.5 -72t80 -40t88 -12q59 0 116.5 16t104.5 52t82 92.5t51 138.5l176 913h238l-188 -965q-23 -111 -75 -196.5t-129 -144t-175.5 -88t-212.5 -29.5q-92 0 -178 24.5t-150.5 75.5 t-103.5 127t-39 178zM584 1741q0 10 1 19t1 20h164v-15q0 -20 6 -42.5t19 -41t34.5 -30t52.5 -11.5q35 0 62.5 13.5t49 33t34 44t16.5 49.5h174q-14 -49 -38.5 -101.5t-66.5 -95.5t-101.5 -70.5t-141.5 -27.5q-72 0 -123 20.5t-83 56t-46 82t-14 97.5z" />
<glyph unicode="&#x16d;" horiz-adv-x="1056" d="M72 256q0 25 3 50.5t7 53.5l129 654h219l-125 -633q-6 -31 -6 -57q0 -68 36 -96.5t89 -28.5q55 0 131 28.5t168 85.5l137 701h217l-196 -1014h-197l-4 98q-61 -37 -111.5 -59.5t-91.5 -33.5t-73.5 -14t-59.5 -3q-135 0 -203.5 72.5t-68.5 195.5zM412 1458h166 q-4 -20 1 -44.5t18 -45t35.5 -35t57.5 -14.5q33 0 61.5 13.5t49 32.5t34 44t17.5 49h172q-12 -47 -36.5 -99t-66.5 -95t-102.5 -72t-142.5 -29q-80 0 -133.5 24.5t-84 65.5t-41.5 94.5t-5 110.5z" />
<glyph unicode="&#x16e;" horiz-adv-x="1273" d="M117 393q0 27 2 54.5t8 56.5l176 907h236l-181 -913q-6 -37 -6 -70q0 -61 22.5 -105t57.5 -72t80 -40t88 -12q59 0 116.5 16t104.5 52t82 92.5t51 138.5l176 913h238l-188 -965q-23 -111 -75 -196.5t-129 -144t-175.5 -88t-212.5 -29.5q-92 0 -178 24.5t-150.5 75.5 t-103.5 127t-39 178zM647 1612q0 51 19.5 97t53.5 81t82 56.5t105 21.5q84 0 138.5 -52.5t54.5 -129.5q0 -55 -20.5 -101.5t-56.5 -80.5t-84 -52t-101 -18q-82 0 -136.5 50t-54.5 128zM774 1630q0 -33 21.5 -54.5t58.5 -21.5q45 0 83 34t38 81q0 33 -24.5 55.5t-59.5 22.5 q-47 0 -82 -35t-35 -82z" />
<glyph unicode="&#x16f;" horiz-adv-x="1056" d="M72 256q0 25 3 50.5t7 53.5l129 654h219l-125 -633q-6 -31 -6 -57q0 -68 36 -96.5t89 -28.5q55 0 131 28.5t168 85.5l137 701h217l-196 -1014h-197l-4 98q-61 -37 -111.5 -59.5t-91.5 -33.5t-73.5 -14t-59.5 -3q-135 0 -203.5 72.5t-68.5 195.5zM469 1276q0 51 19.5 97 t53 81t82 56.5t105.5 21.5q84 0 138.5 -52.5t54.5 -129.5q0 -55 -20.5 -101.5t-56.5 -80t-84.5 -52t-101.5 -18.5q-82 0 -136 50t-54 128zM596 1294q0 -33 21.5 -54t58.5 -21q45 0 83 33.5t38 80.5q0 33 -24.5 55.5t-59.5 22.5q-47 0 -82 -35t-35 -82z" />
<glyph unicode="&#x170;" horiz-adv-x="1273" d="M117 393q0 27 2 54.5t8 56.5l176 907h236l-181 -913q-6 -37 -6 -70q0 -61 22.5 -105t57.5 -72t80 -40t88 -12q59 0 116.5 16t104.5 52t82 92.5t51 138.5l176 913h238l-188 -965q-23 -111 -75 -196.5t-129 -144t-175.5 -88t-212.5 -29.5q-92 0 -178 24.5t-150.5 75.5 t-103.5 127t-39 178zM567 1599l330 271l139 -148l-383 -221zM938 1599l365 271l122 -148l-411 -221z" />
<glyph unicode="&#x171;" horiz-adv-x="1056" d="M72 256q0 25 3 50.5t7 53.5l129 654h219l-125 -633q-6 -31 -6 -57q0 -68 36 -96.5t89 -28.5q55 0 131 28.5t168 85.5l137 701h217l-196 -1014h-197l-4 98q-61 -37 -111.5 -59.5t-91.5 -33.5t-73.5 -14t-59.5 -3q-135 0 -203.5 72.5t-68.5 195.5zM424 1167l229 379 l191 -63l-301 -365zM729 1167l232 379l188 -63l-301 -365z" />
<glyph unicode="&#x172;" horiz-adv-x="1273" d="M117 393q0 27 2 54.5t8 56.5l176 907h236l-181 -913q-6 -37 -6 -70q0 -61 22.5 -105t57.5 -72t80 -40t88 -12q59 0 116.5 16t104.5 52t82 92.5t51 138.5l176 913h238l-188 -965q-20 -106 -68.5 -188t-119 -140.5t-162 -90t-197.5 -37.5q-43 -53 -68.5 -94t-25.5 -78 q0 -61 73 -62q23 0 54.5 7.5t72.5 27.5l27 -117q-51 -29 -105.5 -41t-107.5 -12q-78 0 -124 42t-46 108q0 47 21.5 101t87.5 124q-78 10 -147 41t-119 80t-79.5 117.5t-29.5 158.5z" />
<glyph unicode="&#x173;" horiz-adv-x="1056" d="M72 256q0 25 3 50.5t7 53.5l129 654h219l-125 -633q-6 -31 -6 -57q0 -68 36 -96.5t89 -28.5q55 0 131 28.5t168 85.5l137 701h217l-196 -1014h-54q-49 -57 -77.5 -101t-28.5 -83q0 -61 74 -62q23 0 54.5 7.5t72.5 27.5l26 -117q-51 -29 -105.5 -41t-107.5 -12 q-78 0 -124 42t-46 108q0 47 23.5 105t95.5 130l-4 94q-61 -37 -111.5 -59.5t-91.5 -33.5t-73.5 -14t-59.5 -3q-135 0 -203.5 72.5t-68.5 195.5z" />
<glyph unicode="&#x174;" horiz-adv-x="1812" d="M213 1411h240l24 -604l15 -451h12l198 455l265 600h241l37 -625l21 -430h12l182 435l264 620h246l-635 -1411h-258l-37 586l-20 418h-14l-185 -422l-258 -582h-258zM750 1597l358 261h139l248 -259l-86 -83l-252 170l-344 -175z" />
<glyph unicode="&#x175;" horiz-adv-x="1443" d="M119 1016h223l25 -320q6 -94 14 -185t14 -185h13q43 92 90 181t90 181l117 230h196q8 -59 15.5 -119t17.5 -119q14 -92 23.5 -182t23.5 -181h10l199 412q37 82 51 136.5t14 111.5v41h220v-39q0 -78 -17.5 -147.5t-58.5 -147.5l-361 -684h-202q-23 154 -42.5 307.5 t-39.5 306.5q-2 0 -4 1t-5 1q-14 -29 -28.5 -60.5t-36 -74.5t-52 -104.5t-73.5 -149.5q-29 -55 -56.5 -111.5t-56.5 -115.5h-206zM514 1202l354 309h144l235 -311l-98 -76l-223 209l-336 -221z" />
<glyph unicode="&#x176;" horiz-adv-x="1120" d="M203 1411h241l95 -367l67 -270h10l199 309l213 328h258l-590 -864l-104 -547h-234l105 547zM403 1597l359 261h139l248 -259l-86 -83l-252 170l-344 -175z" />
<glyph unicode="&#x177;" horiz-adv-x="925" d="M41 -410l229 430l-65 60l-99 936h222l28 -395l27 -398h8l266 508q23 43 38.5 76t24.5 60.5t13 55t4 58.5v37h219v-35q0 -92 -25.5 -158.5t-68.5 -142.5l-598 -1092h-223zM229 1202l355 309h143l236 -311l-99 -76l-223 209l-336 -221z" />
<glyph unicode="&#x178;" horiz-adv-x="1120" d="M203 1411h241l95 -367l67 -270h10l199 309l213 328h258l-590 -864l-104 -547h-234l105 547zM440 1624q4 53 47.5 91t96.5 38q47 0 73.5 -30.5t22.5 -75.5q-6 -53 -48 -92t-95 -39q-47 0 -75 31.5t-22 76.5zM850 1626q4 51 47 89t94 38q47 0 75 -30.5t24 -75.5 q-6 -53 -49.5 -92t-94.5 -39q-47 0 -74.5 31.5t-21.5 78.5z" />
<glyph unicode="&#x179;" horiz-adv-x="1087" d="M-8 0l39 203l860 997h-639l41 211h919l-36 -197l-871 -1005h674l-41 -209h-946zM651 1604l373 264l117 -152l-418 -213z" />
<glyph unicode="&#x17a;" horiz-adv-x="946" d="M-8 0l33 176l647 651h-490l35 187h760l-33 -174l-645 -645h518l-37 -195h-788zM510 1167l229 379l189 -63l-299 -365z" />
<glyph unicode="&#x17b;" horiz-adv-x="1087" d="M-8 0l39 203l860 997h-639l41 211h919l-36 -197l-871 -1005h674l-41 -209h-946zM682 1622q4 55 46 96t101 41q49 0 80 -30.5t27 -83.5q-4 -57 -47.5 -97.5t-100.5 -40.5q-49 0 -79.5 33t-26.5 82z" />
<glyph unicode="&#x17c;" horiz-adv-x="946" d="M-8 0l33 176l647 651h-490l35 187h760l-33 -174l-645 -645h518l-37 -195h-788zM530 1296q4 55 46 96.5t102 41.5q49 0 79.5 -31t26.5 -84q-4 -57 -47 -97t-100 -40q-49 0 -80 32.5t-27 81.5z" />
<glyph unicode="&#x17d;" horiz-adv-x="1087" d="M-8 0l39 203l860 997h-639l41 211h919l-36 -197l-871 -1005h674l-41 -209h-946zM487 1765l84 88l252 -167l346 176l64 -93l-361 -262h-139z" />
<glyph unicode="&#x17e;" horiz-adv-x="946" d="M-8 0l33 176l647 651h-490l35 187h760l-33 -174l-645 -645h518l-37 -195h-788zM309 1432l105 84q10 -8 44 -41t72.5 -70t72.5 -69.5t44 -41.5l330 222l76 -89l-357 -311h-143z" />
<glyph unicode="&#x192;" horiz-adv-x="1058" d="M-37 -147l72 163q41 -16 70.5 -21t56.5 -5q76 0 119 70.5t71 193.5l101 436h-170l12 174h199l30 142q16 72 46 147.5t80 138t123 102.5t177 40q47 0 95.5 -9.5t82.5 -23.5q-4 -14 -12 -39t-17 -50.5t-18.5 -50t-13.5 -38.5q-31 12 -66.5 17t-68.5 5q-43 0 -76 -20.5 t-56.5 -53t-39 -74.5t-25.5 -87l-30 -146h208l-12 -174h-235l-99 -442q-23 -96 -53.5 -177t-77.5 -140.5t-111.5 -92.5t-152.5 -33q-45 0 -103.5 13.5t-105.5 34.5z" />
<glyph unicode="&#x1a0;" horiz-adv-x="1292" d="M123 420q0 55 12 117l84 432q43 221 186.5 338.5t378.5 117.5q94 0 178.5 -26.5t149.5 -75.5q39 0 67.5 10t49 33t35 60.5t24.5 97.5l10 57h175l-15 -76q-23 -123 -78 -205.5t-149 -117.5q20 -41 31.5 -86t11.5 -97q0 -23 -2 -45t-6 -47l-86 -465q-41 -217 -185.5 -336.5 t-392.5 -119.5q-92 0 -179 27.5t-153.5 83t-106.5 136t-40 187.5zM358 434q0 -61 20.5 -105t55.5 -73t80 -42t94 -13q147 0 232.5 77.5t115.5 233.5l76 385q4 18 6 34.5t2 33.5q0 61 -22.5 107t-59 77t-84 46t-98.5 15q-127 0 -215 -68.5t-117 -221.5l-77 -408 q-8 -39 -9 -78z" />
<glyph unicode="&#x1a1;" horiz-adv-x="1105" d="M96 346q0 23 2 45.5t6 46.5l39 213q35 182 147.5 278.5t309.5 96.5q88 0 158.5 -24.5t124.5 -69.5q39 0 66.5 9t49 32.5t36 61.5t26.5 98l10 57h170l-14 -76q-23 -129 -82.5 -214t-163.5 -116q10 -29 15 -59.5t5 -62.5q0 -45 -8 -84l-43 -226q-39 -195 -159.5 -278.5 t-298.5 -83.5q-74 0 -146 21.5t-127 65.5t-89 110.5t-34 158.5zM315 369q0 -49 16.5 -83t43 -55.5t59.5 -31t66 -9.5q41 0 78.5 9.5t69.5 32t56.5 63.5t36.5 104l37 179q6 31 6 59q0 92 -56 140t-138 48q-88 0 -150.5 -46t-85.5 -163l-35 -192q-4 -16 -4 -29.5v-25.5z" />
<glyph unicode="&#x1af;" horiz-adv-x="1419" d="M117 393q0 27 2 54.5t8 56.5l176 907h236l-181 -913q-6 -37 -6 -70q0 -61 22.5 -105t57.5 -72t80 -40t88 -12q59 0 116.5 16t104.5 52t82 92.5t51 138.5l176 913h238l-18 -88q37 2 63.5 12.5t47 33t34.5 60t25 95.5l10 57h170l-12 -76q-31 -164 -118 -254t-251 -92 l-139 -713q-23 -111 -75 -196.5t-129 -144t-175.5 -88t-212.5 -29.5q-92 0 -178 24.5t-150.5 75.5t-103.5 127t-39 178z" />
<glyph unicode="&#x1b0;" horiz-adv-x="1232" d="M72 256q0 25 3 50.5t7 53.5l129 654h219l-125 -633q-6 -31 -6 -57q0 -68 36 -96.5t89 -28.5q55 0 131 28.5t168 85.5l137 701h217l-16 -82q35 2 61.5 12t47 32.5t35 60.5t24.5 96l10 57h170l-14 -76q-29 -162 -115 -253t-252 -93l-147 -768h-197l-4 98 q-61 -37 -111.5 -59.5t-91.5 -33.5t-73.5 -14t-59.5 -3q-135 0 -203.5 72.5t-68.5 195.5z" />
<glyph unicode="&#x1fc;" horiz-adv-x="2031" d="M-10 0l1083 1411h1065l-29 -213h-714l-54 -387h617l-29 -209h-618l-6 -39q-12 -90 -24.5 -178t-27.5 -176h723l-28 -209h-955l51 371l-499 2q-72 -94 -143.5 -187.5t-143.5 -185.5h-268zM682 567l389 -2l92 623h-2zM1464 1604l373 264l117 -152l-418 -213z" />
<glyph unicode="&#x1fd;" horiz-adv-x="1648" d="M66 229q0 94 37.5 165t98 118t136.5 69.5t151 22.5q45 0 77 -1t60.5 -4t60.5 -7t79 -10q4 31 11 65.5t7 54.5q0 72 -51 99.5t-139 27.5q-53 0 -125 -15t-158 -77l-71 162q119 78 219 101.5t188 23.5q109 0 183.5 -25.5t115.5 -80.5q63 51 138 79.5t173 28.5 q180 0 268.5 -81t88.5 -197q0 -78 -37 -142.5t-107.5 -110.5t-174 -73t-234.5 -27q-23 0 -48.5 1t-51.5 3q-8 -31 -9 -65q0 -70 47.5 -112t141.5 -42q53 0 116.5 20.5t118.5 69.5q31 -41 57.5 -77.5t57.5 -77.5q-96 -76 -192.5 -100.5t-192.5 -24.5q-113 0 -196 35.5 t-130 109.5q-100 -86 -214.5 -114.5t-227.5 -28.5q-129 0 -200.5 63.5t-71.5 173.5zM289 287q0 -49 36 -76t93 -27q43 0 88 9.5t87 27t74.5 39t51.5 45.5l20 121q-39 4 -66.5 7t-52 5t-50 3t-62.5 1q-35 0 -73 -6t-70.5 -23.5t-54 -47t-21.5 -78.5zM911 1167l230 379 l188 -63l-299 -365zM985 569q23 -2 42.5 -3t39.5 -1q150 0 233.5 48.5t83.5 107.5q0 49 -39 79.5t-100 30.5q-111 0 -173 -70.5t-87 -191.5z" />
<glyph unicode="&#x1fe;" horiz-adv-x="1273" d="M100 49l99 121q-35 49 -55.5 111.5t-20.5 138.5q0 55 12 117l84 432q43 221 186.5 338.5t378.5 117.5q104 0 193.5 -30.5t155.5 -87.5l102 123l74 -64l-109 -131q74 -102 74 -236q0 -23 -2 -45t-6 -47l-86 -465q-41 -217 -185.5 -336.5t-392.5 -119.5q-96 0 -184 28.5 t-154 85.5l-94 -112zM358 434q0 -37 7 -63l618 753q-37 43 -92 64.5t-115 21.5q-127 0 -215 -68.5t-117 -221.5l-77 -408q-9 -39 -9 -78zM412 279q35 -41 87 -59.5t109 -18.5q147 0 232.5 77.5t115.5 233.5l76 385q4 18 6 34.5t2 33.5q0 16 -2 32.5t-6 32.5 q-72 -86 -151.5 -184t-161.5 -196.5t-161 -194t-146 -176.5zM721 1597q92 66 183 131.5t183 131.5q35 -35 67 -72t65 -72q-104 -53 -209 -106.5t-209 -106.5z" />
<glyph unicode="&#x1ff;" horiz-adv-x="1050" d="M55 47l95 103q-53 82 -54 196q0 23 2 45.5t6 46.5l39 213q35 182 147.5 278.5t309.5 96.5q86 0 155.5 -24.5t123.5 -67.5l86 94l65 -55l-94 -103q31 -43 48 -96t17 -112q0 -45 -8 -84l-43 -226q-39 -195 -159.5 -278.5t-298.5 -83.5q-78 0 -154 23.5t-131 72.5l-90 -96z M315 369q0 -27 2 -37l412 442q-55 51 -139 51q-88 0 -150.5 -46t-85.5 -163l-35 -192q-4 -16 -4 -29.5v-25.5zM356 248q27 -31 65 -44.5t79 -13.5t78.5 9.5t69.5 32t56.5 63.5t36.5 104l37 179q6 31 6 59q0 37 -8 61zM555 1167l231 379l189 -63l-301 -365z" />
<glyph unicode="&#x218;" horiz-adv-x="1165" d="M23 176q10 10 30.5 33.5t42 49.5t42 49.5t30.5 33.5q72 -66 168 -102.5t205 -36.5q152 0 237.5 66.5t85.5 164.5q0 45 -23.5 75t-62.5 50.5t-86 34.5t-96 27q-74 16 -144.5 41.5t-124 66.5t-86 101.5t-32.5 146.5q0 104 40 189t110.5 144.5t166.5 93.5t211 34 q125 0 243 -29t212 -96l-119 -189q-74 53 -162 77t-178 24q-47 0 -97 -13.5t-91 -40t-68.5 -69.5t-27.5 -101q0 -45 23.5 -75.5t60 -52t80.5 -35t85 -21.5q94 -23 171 -51.5t132.5 -70.5t85 -103.5t29.5 -147.5q0 -106 -47 -190t-128 -143.5t-187.5 -91t-223.5 -31.5 q-154 0 -281.5 45t-225.5 143zM274 -506q59 33 95.5 65.5t52.5 84.5q-37 6 -58.5 37.5t-21.5 72.5q0 59 44 107.5t122 48.5q66 0 98.5 -41t32.5 -100t-24.5 -114.5t-66.5 -103t-98.5 -86t-119.5 -63.5z" />
<glyph unicode="&#x219;" horiz-adv-x="942" d="M4 129q66 82 131 156q66 -63 138.5 -87t158.5 -24q88 0 148.5 39t60.5 104q0 43 -37 64.5t-91 36t-118.5 28t-119 40t-91.5 73.5t-37 127q0 88 38 151.5t97.5 104.5t133 61.5t147.5 20.5q117 0 210 -23.5t169 -89.5q-29 -41 -60.5 -82t-60.5 -81q-66 49 -131 67.5 t-137 18.5q-92 0 -140 -40t-48 -87q0 -23 14 -39.5t36.5 -28.5t51.5 -19.5t57 -13.5q49 -8 108.5 -21.5t112 -42t87 -76.5t34.5 -126q0 -88 -36.5 -153.5t-99 -109.5t-144.5 -65.5t-174 -21.5q-111 0 -213.5 26.5t-194.5 112.5zM154 -506q59 33 95 65.5t52 84.5 q-37 6 -58.5 37.5t-21.5 72.5q0 59 44 107.5t122 48.5q66 0 98.5 -41t32.5 -100t-24.5 -114.5t-66.5 -103t-98.5 -86t-119.5 -63.5z" />
<glyph unicode="&#x259;" horiz-adv-x="987" d="M70 268q0 74 31.5 137.5t99 109.5t175 72.5t261.5 26.5h44t44 -2q4 16 6 31.5t2 30.5q0 78 -52 120t-138 42q-53 0 -112.5 -21.5t-115.5 -75.5q-31 41 -62.5 81t-59.5 81q94 76 191 101.5t194 25.5q166 0 269 -84t103 -250q0 -131 -27.5 -257t-90 -225t-163 -159.5 t-243.5 -60.5q-180 0 -268 80t-88 196zM299 295q0 -49 30.5 -80t106.5 -31q111 0 171.5 67.5t88.5 186.5q-23 2 -44 2h-40q-100 0 -161.5 -13t-95 -34.5t-45 -47.5t-11.5 -50z" />
<glyph unicode="&#x2b9;" horiz-adv-x="561" d="M184 864l312 596l221 -69l-387 -576z" />
<glyph unicode="&#x2c6;" horiz-adv-x="1021" d="M309 1202l355 309h143l235 -311l-98 -76l-223 209l-336 -221z" />
<glyph unicode="&#x2c7;" horiz-adv-x="1036" d="M362 1432l105 84q10 -8 44 -41t73 -70t72.5 -69.5t43.5 -41.5l330 222l76 -89l-356 -311h-144z" />
<glyph unicode="&#x2d8;" horiz-adv-x="1048" d="M422 1458h166q-4 -20 1 -44.5t18.5 -45t36 -35t56.5 -14.5q33 0 62 13.5t49 32.5t33.5 44t17.5 49h172q-12 -47 -36.5 -99t-66.5 -95t-102.5 -72t-142.5 -29q-80 0 -133 24.5t-84 65.5t-42 94.5t-5 110.5z" />
<glyph unicode="&#x2d9;" horiz-adv-x="1040" d="M571 1296q4 55 46 96.5t102 41.5q49 0 79.5 -31t26.5 -84q-4 -57 -47 -97t-100 -40q-49 0 -80 32.5t-27 81.5z" />
<glyph unicode="&#x2da;" horiz-adv-x="1028" d="M465 1276q0 51 19.5 97t53 81t82 56.5t105.5 21.5q84 0 138.5 -52.5t54.5 -129.5q0 -55 -20.5 -101.5t-56.5 -80t-84.5 -52t-101.5 -18.5q-82 0 -136 50t-54 128zM592 1294q0 -33 21.5 -54t58.5 -21q45 0 83 33.5t38 80.5q0 33 -25 55.5t-59 22.5q-47 0 -82 -35t-35 -82z " />
<glyph unicode="&#x2db;" horiz-adv-x="739" d="M229 -233q0 49 28 110.5t105 138.5l130 -10l2 -6q-49 -59 -79 -103t-30 -83q0 -61 74 -62q23 0 54.5 7.5t72.5 27.5l26 -117q-51 -29 -105 -41t-108 -12q-78 0 -124 42t-46 108z" />
<glyph unicode="&#x2dc;" horiz-adv-x="1021" d="M319 1249q57 98 126 146.5t141 48.5q37 0 69.5 -13.5t62.5 -31t55.5 -30.5t49.5 -13q31 0 65 20.5t79 71.5q27 -16 56.5 -39t57.5 -39q-59 -106 -124.5 -150t-131.5 -44q-37 0 -69.5 12t-62 27.5t-58.5 28.5t-57 13q-35 0 -66 -17t-80 -69z" />
<glyph unicode="&#x2dd;" horiz-adv-x="1077" d="M385 1167l229 379l191 -63l-301 -365zM690 1167l232 379l188 -63l-301 -365z" />
<glyph unicode="&#x384;" horiz-adv-x="1036" d="M559 1167l232 379l188 -63l-299 -365z" />
<glyph unicode="&#x385;" horiz-adv-x="1036" d="M279 1294q10 49 51 84t92 35q49 0 77.5 -35t18.5 -84t-51 -83.5t-90 -34.5q-51 0 -79.5 34.5t-18.5 83.5zM508 1157l209 387l194 -49l-278 -379zM844 1294q10 49 51 84t90 35t78 -35t18 -84q-10 -49 -51 -83.5t-90 -34.5t-77.5 34.5t-18.5 83.5z" />
<glyph unicode="&#x386;" horiz-adv-x="1263" d="M-61 0l761 1411h238l217 -1411h-246l-37 305h-524l-158 -305h-251zM76 1106l231 379l189 -64l-299 -364zM455 508h389l-35 276l-39 328h-8l-158 -315z" />
<glyph unicode="&#x387;" horiz-adv-x="577" d="M203 694q0 33 12 65t33.5 57.5t52.5 40.5t68 15q57 0 87.5 -32.5t30.5 -79.5q0 -33 -13 -63.5t-35.5 -54.5t-54.5 -38t-69 -14q-53 0 -82.5 28.5t-29.5 75.5z" />
<glyph unicode="&#x388;" horiz-adv-x="1163" d="M-170 1106l231 379l189 -64l-299 -364zM47 0l275 1411h935l-40 -211h-703l-74 -387h617l-41 -211h-619l-75 -393h757l-41 -209h-991z" />
<glyph unicode="&#x389;" horiz-adv-x="1269" d="M-178 1106l231 379l189 -64l-299 -364zM33 0l274 1411h234l-115 -590h592l115 590h237l-274 -1411h-238l119 610h-592l-119 -610h-233z" />
<glyph unicode="&#x38a;" horiz-adv-x="559" d="M-143 1106l231 379l188 -64l-299 -364zM82 0l274 1411h234l-275 -1411h-233z" />
<glyph unicode="&#x38c;" horiz-adv-x="1273" d="M-111 1106l232 379l188 -64l-299 -364zM123 420q0 55 12 117l84 432q43 221 186.5 338.5t378.5 117.5q100 0 190.5 -30.5t156 -86t104.5 -134t39 -175.5q0 -23 -2 -45t-6 -47l-86 -465q-41 -217 -185.5 -336.5t-392.5 -119.5q-92 0 -179 27.5t-153.5 83t-106.5 136 t-40 187.5zM358 434q0 -61 20.5 -105t55.5 -73t80 -42t94 -13q147 0 232.5 77.5t115.5 233.5l76 385q4 18 6 34.5t2 33.5q0 61 -22.5 107t-59 77t-84 46t-98.5 15q-127 0 -215 -68.5t-117 -221.5l-77 -408q-8 -39 -9 -78z" />
<glyph unicode="&#x38e;" horiz-adv-x="1120" d="M-242 1106l232 379l188 -64l-299 -364zM203 1411h241l95 -367l67 -270h10l199 309l213 328h258l-590 -864l-104 -547h-234l105 547z" />
<glyph unicode="&#x38f;" horiz-adv-x="1298" d="M-100 1106l231 379l188 -64l-299 -364zM14 0l39 203h178q-51 39 -74.5 100.5t-23.5 132.5q0 47 8 86l84 436q43 221 188.5 344t385.5 123q98 0 186 -28.5t155.5 -81.5t107.5 -130t40 -171q0 -43 -8 -82l-76 -422q-16 -98 -62 -181t-138 -126h172l-41 -203h-467l51 250 q41 12 81 34.5t73.5 57.5t59 82t38.5 106l73 383q6 33 7 62q0 61 -25 105t-62.5 74t-83.5 43t-92 13q-121 0 -214 -67.5t-121 -220.5l-74 -387q-6 -37 -6 -70q0 -90 45 -141.5t108 -73.5l-51 -250h-461z" />
<glyph unicode="&#x390;" horiz-adv-x="546" d="M37 1294q10 49 51 84t92 35q49 0 78 -35t18 -84q-10 -49 -51 -83.5t-90 -34.5q-51 0 -79.5 34.5t-18.5 83.5zM117 209q0 43 8 84l139 723h217l-131 -674q-4 -23 -7 -40t-1 -32q0 -51 25.5 -66.5t74.5 -19.5l-41 -188h-36q-117 0 -182.5 51t-65.5 162zM266 1157l209 387 l195 -49l-279 -379zM602 1294q10 49 51 84t90 35t78 -35t19 -84t-51 -83.5t-91 -34.5q-49 0 -77.5 34.5t-18.5 83.5z" />
<glyph unicode="&#x391;" horiz-adv-x="1263" d="M-61 0l761 1411h238l217 -1411h-246l-37 305h-524l-158 -305h-251zM455 508h389l-35 276l-39 328h-8l-158 -315z" />
<glyph unicode="&#x392;" horiz-adv-x="1245" d="M37 0l274 1411h584q94 0 162.5 -26.5t114 -72.5t67 -106.5t21.5 -128.5q0 -111 -57.5 -198.5t-180.5 -147.5q82 -45 109.5 -120.5t27.5 -155.5q0 -88 -31.5 -170t-92 -145.5t-147.5 -101.5t-196 -38h-655zM311 209h332q57 0 107.5 16.5t87 47t57 75.5t20.5 101 q0 84 -50 128t-136 44h-336zM432 827h332q55 0 101 18.5t78 48.5t50.5 67.5t18.5 76.5q0 82 -50.5 122t-136.5 40h-319z" />
<glyph unicode="&#x393;" horiz-adv-x="1073" d="M47 0l275 1411h942l-39 -211h-711l-233 -1200h-234z" />
<glyph unicode="&#x394;" horiz-adv-x="1255" d="M-61 0q193 356 384 705.5t384 705.5h225l225 -1411h-1218zM299 211h580l-62 430l-55 424l-10 2l-217 -414z" />
<glyph unicode="&#x395;" horiz-adv-x="1163" d="M47 0l275 1411h935l-40 -211h-703l-74 -387h617l-41 -211h-619l-75 -393h757l-41 -209h-991z" />
<glyph unicode="&#x396;" horiz-adv-x="1087" d="M-8 0l39 203l860 997h-639l41 211h919l-36 -197l-871 -1005h674l-41 -209h-946z" />
<glyph unicode="&#x397;" horiz-adv-x="1269" d="M33 0l274 1411h234l-115 -590h592l115 590h237l-274 -1411h-238l119 610h-592l-119 -610h-233z" />
<glyph unicode="&#x398;" horiz-adv-x="1273" d="M123 420q0 55 12 117l84 432q43 221 186.5 338.5t378.5 117.5q100 0 190.5 -30.5t156 -86t104.5 -134t39 -175.5q0 -23 -2 -45t-6 -47l-86 -465q-41 -217 -185.5 -336.5t-392.5 -119.5q-92 0 -179 27.5t-153.5 83t-106.5 136t-40 187.5zM358 434q0 -61 20.5 -105 t55.5 -73t80 -42t94 -13q147 0 232.5 77.5t115.5 233.5l76 385q4 18 6 34.5t2 33.5q0 61 -22.5 107t-59 77t-84 46t-98.5 15q-127 0 -215 -68.5t-117 -221.5l-77 -408q-8 -39 -9 -78zM463 606l41 207h434l-43 -207h-432z" />
<glyph unicode="&#x399;" horiz-adv-x="559" d="M82 0l274 1411h234l-275 -1411h-233z" />
<glyph unicode="&#x39a;" horiz-adv-x="1228" d="M33 0l274 1411h234l-131 -682l696 682h278l-571 -563l336 -848h-250l-258 678l-297 -285l-76 -393h-235z" />
<glyph unicode="&#x39b;" horiz-adv-x="1255" d="M-47 0q193 356 383 705.5t383 705.5h227l225 -1411h-243q-23 154 -45.5 306.5t-44.5 305.5l-62 463l-10 2q-59 -111 -115.5 -219t-113.5 -219q-86 -160 -171 -319.5t-171 -319.5h-242z" />
<glyph unicode="&#x39c;" horiz-adv-x="1562" d="M37 0l270 1411h207q8 -29 29.5 -99.5t49.5 -162.5t57.5 -194.5t56 -192.5t46 -158.5t25.5 -91.5h13q57 82 109 164t108 162q70 100 124 181t100 148.5t86 127t79 116.5h225l-268 -1411h-234l166 860h-8q-8 -12 -42 -61t-80 -116t-99 -143.5t-101.5 -146t-85 -122 t-49.5 -70.5h-170l-207 657h-10l-164 -858h-233z" />
<glyph unicode="&#x39d;" horiz-adv-x="1351" d="M39 0l268 1411h217q12 -27 47 -101.5t81 -175t97.5 -214t97.5 -215t81 -179l49 -108.5h12q47 250 94 496.5t95 496.5h231l-268 -1411h-219q-12 29 -47 102.5t-80 172t-95.5 208t-96.5 210t-82 179t-50 113.5h-12l-189 -985h-231z" />
<glyph unicode="&#x39e;" horiz-adv-x="1126" d="M10 0l41 209h361l77 397h-253l40 211h254l76 383h-362l41 211h942l-43 -211h-367l-76 -383h263l-41 -211h-261l-77 -397h368l-41 -209h-942z" />
<glyph unicode="&#x39f;" horiz-adv-x="1273" d="M123 420q0 55 12 117l84 432q43 221 186.5 338.5t378.5 117.5q100 0 190.5 -30.5t156 -86t104.5 -134t39 -175.5q0 -23 -2 -45t-6 -47l-86 -465q-41 -217 -185.5 -336.5t-392.5 -119.5q-92 0 -179 27.5t-153.5 83t-106.5 136t-40 187.5zM358 434q0 -61 20.5 -105 t55.5 -73t80 -42t94 -13q147 0 232.5 77.5t115.5 233.5l76 385q4 18 6 34.5t2 33.5q0 61 -22.5 107t-59 77t-84 46t-98.5 15q-127 0 -215 -68.5t-117 -221.5l-77 -408q-8 -39 -9 -78z" />
<glyph unicode="&#x3a0;" horiz-adv-x="1269" d="M33 0l274 1411h1063l-274 -1411h-238l234 1200h-592l-234 -1200h-233z" />
<glyph unicode="&#x3a1;" horiz-adv-x="1150" d="M33 0l274 1411h572q88 0 153.5 -31.5t109.5 -85t65.5 -122t21.5 -140.5q0 -82 -31 -167t-92.5 -155.5t-150.5 -115.5t-205 -45h-377l-107 -549h-233zM416 762h313q57 0 106.5 19.5t86 53t57 80t20.5 101.5q0 84 -51 134t-143 50h-305z" />
<glyph unicode="&#x3a3;" horiz-adv-x="1044" d="M-12 0l39 203l426 530l-226 484l37 194h901l-41 -211h-618l217 -467l-424 -526h651l-41 -207h-921z" />
<glyph unicode="&#x3a4;" horiz-adv-x="1073" d="M188 1198l41 213h1016l-41 -213h-391l-231 -1198h-236l232 1198h-390z" />
<glyph unicode="&#x3a5;" horiz-adv-x="1120" d="M203 1411h241l95 -367l67 -270h10l199 309l213 328h258l-590 -864l-104 -547h-234l105 547z" />
<glyph unicode="&#x3a6;" horiz-adv-x="1589" d="M158 600q0 166 48 301t139 233.5t221 157t296 68.5l12 65h236l-12 -65q225 -10 345 -140t120 -350q0 -158 -44 -293t-132.5 -234t-220.5 -159.5t-310 -68.5l-22 -115h-236l23 115q-223 12 -343 141t-120 344zM393 618q0 -127 60.5 -206.5t205.5 -92.5l162 836 q-115 -6 -195.5 -55t-132 -125t-76 -169t-24.5 -188zM895 319q115 10 198 56.5t136 118t77.5 165t24.5 199.5q0 63 -14 117.5t-46 94.5t-84 63.5t-128 25.5z" />
<glyph unicode="&#x3a7;" horiz-adv-x="1171" d="M-59 0l577 723l-278 688h260l178 -498l369 498h276l-547 -688l309 -723h-264l-200 535l-404 -535h-276z" />
<glyph unicode="&#x3a8;" horiz-adv-x="1550" d="M174 690q0 45 10 103q4 20 13.5 68t21.5 109.5t25.5 131t25 131t20.5 110t13 68.5h229l-120 -616q-6 -37 -6 -70q0 -63 23.5 -109.5t61 -76t86 -45t95.5 -17.5h4l182 938h234l-183 -938h2q63 2 126 20.5t115 54.5t89 91t51 131l123 637h227l-126 -655 q-31 -221 -193 -352.5t-455 -141.5q-14 -66 -26.5 -131t-24.5 -131h-235l53 264q-96 6 -180 38t-146.5 87t-98.5 131t-36 170z" />
<glyph unicode="&#x3a9;" horiz-adv-x="1298" d="M14 0l39 203h178q-51 39 -74.5 100.5t-23.5 132.5q0 47 8 86l84 436q43 221 188.5 344t385.5 123q98 0 186 -28.5t155.5 -81.5t107.5 -130t40 -171q0 -43 -8 -82l-76 -422q-16 -98 -62 -181t-138 -126h172l-41 -203h-467l51 250q41 12 81 34.5t73.5 57.5t59 82t38.5 106 l73 383q6 33 7 62q0 61 -25 105t-62.5 74t-83.5 43t-92 13q-121 0 -214 -67.5t-121 -220.5l-74 -387q-6 -37 -6 -70q0 -90 45 -141.5t108 -73.5l-51 -250h-461z" />
<glyph unicode="&#x3aa;" horiz-adv-x="559" d="M82 0l274 1411h234l-275 -1411h-233zM205 1628q0 57 44 100.5t99 43.5q45 0 71.5 -28t26.5 -69q0 -29 -12 -53.5t-32.5 -45t-46 -31.5t-52.5 -11q-43 0 -70.5 26.5t-27.5 67.5zM608 1628q0 57 43.5 100.5t100.5 43.5q43 0 70.5 -28t27.5 -69q0 -57 -45 -99t-100 -42 q-41 0 -69 26.5t-28 67.5z" />
<glyph unicode="&#x3ab;" horiz-adv-x="1120" d="M203 1411h241l95 -367l67 -270h10l199 309l213 328h258l-590 -864l-104 -547h-234l105 547zM473 1618q0 57 44 100t99 43q45 0 72 -27.5t27 -68.5q0 -29 -12.5 -53.5t-33 -45t-46 -31.5t-52.5 -11q-43 0 -70.5 26.5t-27.5 67.5zM877 1618q0 57 43 100t100 43 q43 0 70.5 -27.5t27.5 -68.5q0 -57 -45 -99t-100 -42q-41 0 -68.5 26.5t-27.5 67.5z" />
<glyph unicode="&#x3ac;" horiz-adv-x="1050" d="M66 256q0 41 10 98l59 305q35 180 133.5 273.5t268.5 93.5q53 0 125.5 -19.5t168.5 -78.5l39 86h197l-199 -1014h-196l-2 94q-63 -31 -112.5 -51t-88.5 -31.5t-69.5 -16.5t-57.5 -5q-135 0 -205.5 69.5t-70.5 196.5zM293 322q0 -66 33.5 -93.5t89.5 -27.5q55 0 133 30.5 t164 73.5l80 430q-49 37 -118 62.5t-134 25.5q-68 0 -119 -43t-72 -143l-51 -254q-6 -35 -6 -61zM561 1167l232 379l188 -63l-299 -365z" />
<glyph unicode="&#x3ad;" horiz-adv-x="917" d="M68 254q0 10 3 44t22.5 76t59.5 84t113 66l2 2q-63 31 -85.5 80t-22.5 96q0 49 24.5 106.5t76.5 105t132 79t191 31.5q96 0 197.5 -28.5t170.5 -100.5l-129 -152q-45 47 -111.5 67.5t-119.5 20.5q-35 0 -73 -8t-69.5 -25.5t-53 -45t-21.5 -66.5q0 -41 40 -63.5t109 -22.5 h138q-6 -43 -14.5 -85t-16.5 -85h-148q-37 0 -71.5 -9t-62 -25.5t-44 -43t-16.5 -59.5q0 -47 52 -76t130 -29q57 0 129 19.5t135 73.5q27 -41 51.5 -80t49.5 -80q-94 -74 -202 -101.5t-210 -27.5q-162 0 -259 71.5t-97 190.5zM520 1167l232 379l188 -63l-299 -365z" />
<glyph unicode="&#x3ae;" horiz-adv-x="1050" d="M16 0l199 1014h195l2 -96q70 39 121 60t90 31.5t68.5 13.5t56.5 3q133 0 202.5 -68.5t69.5 -191.5q0 -23 -2 -48.5t-8 -53.5l-187 -969h-219l182 938q6 33 7 61q0 68 -36 95.5t-93 27.5q-113 0 -293 -110l-138 -707h-217zM537 1167l231 379l188 -63l-299 -365z" />
<glyph unicode="&#x3af;" horiz-adv-x="546" d="M117 209q0 43 8 84l139 723h217l-131 -674q-4 -23 -7 -40t-1 -32q0 -51 25.5 -66.5t74.5 -19.5l-41 -188h-36q-117 0 -182.5 51t-65.5 162zM291 1167l231 379l189 -63l-299 -365z" />
<glyph unicode="&#x3b0;" horiz-adv-x="1050" d="M78 319q0 23 2 45.5t6 47.5l119 604h217l-121 -617q-2 -12 -3 -24.5t-1 -22.5q0 -43 16.5 -73.5t43 -50t59.5 -29t65 -9.5q39 0 79 11.5t74 36t60.5 64.5t36.5 97l121 617h215l-127 -664q-35 -182 -159 -272t-316 -90q-68 0 -137.5 18.5t-125 57t-90 101t-34.5 152.5z M272 1294q10 49 51.5 84t92.5 35q49 0 77.5 -35t18.5 -84t-51 -83.5t-90 -34.5q-51 0 -80 34.5t-19 83.5zM502 1157l209 387l194 -49l-278 -379zM838 1294q10 49 51 84t90 35t77.5 -35t18.5 -84t-51 -83.5t-90 -34.5t-77.5 34.5t-18.5 83.5z" />
<glyph unicode="&#x3b1;" horiz-adv-x="1050" d="M66 256q0 41 10 98l59 305q35 180 133.5 273.5t268.5 93.5q53 0 125.5 -19.5t168.5 -78.5l39 86h197l-199 -1014h-196l-2 94q-63 -31 -112.5 -51t-88.5 -31.5t-69.5 -16.5t-57.5 -5q-135 0 -205.5 69.5t-70.5 196.5zM293 322q0 -66 33.5 -93.5t89.5 -27.5q55 0 133 30.5 t164 73.5l80 430q-49 37 -118 62.5t-134 25.5q-68 0 -119 -43t-72 -143l-51 -254q-6 -35 -6 -61z" />
<glyph unicode="&#x3b2;" horiz-adv-x="1046" d="M-49 -354l274 1417q37 188 157 289.5t298 101.5q100 0 170 -29.5t113 -75.5t61 -103.5t18 -112.5q0 -29 -8 -69t-27.5 -81t-54 -80t-88.5 -67q66 -29 95.5 -91.5t29.5 -136.5q0 -18 -2 -36.5t-6 -36.5l-35 -183q-35 -170 -140.5 -267t-285.5 -97q-53 0 -122.5 10 t-155.5 51l-78 -403h-213zM283 252q78 -37 132 -48t109 -11q72 0 128.5 37.5t78.5 142.5l35 170q4 12 4 22v21q0 66 -47 102.5t-127 36.5h-96l32 176h86q49 0 89.5 19.5t70 50t45 67.5t15.5 74q0 63 -43 111.5t-121 48.5q-53 0 -94 -17.5t-69 -46t-45 -64.5t-24 -73z" />
<glyph unicode="&#x3b3;" horiz-adv-x="954" d="M109 834l4 174q68 18 112 18q80 0 121 -40t53 -144l66 -467h8q41 74 79 146.5t75 144.5q49 88 96 174t94 174h236q-133 -236 -264.5 -471.5t-260.5 -470.5l-90 -482h-213l84 486q-25 164 -52.5 331.5t-53.5 327.5q-6 35 -12.5 54.5t-15.5 29.5t-22.5 12.5t-33.5 2.5h-10z " />
<glyph unicode="&#x3b4;" horiz-adv-x="1046" d="M88 344q0 47 8 88l39 201q23 117 84.5 203t173.5 125q-59 37 -78.5 81.5t-19.5 92.5q0 78 31.5 138t87 102t128 63.5t154.5 21.5q102 0 194.5 -22.5t168.5 -81.5l-109 -160q-59 41 -118.5 59.5t-116.5 18.5q-86 0 -135.5 -31t-49.5 -80q0 -35 19.5 -59.5t49.5 -44 t68 -34.5t74 -32q250 -106 250 -331q0 -23 -2 -44.5t-6 -46.5l-37 -206q-35 -176 -144.5 -275.5t-322.5 -99.5q-84 0 -155.5 25.5t-124 71.5t-82 111.5t-29.5 145.5zM305 367q0 -86 48 -133.5t134 -47.5q117 0 173.5 60.5t78.5 171.5l29 149q4 18 6 36t2 34q0 86 -52 135 t-157 76q-88 -18 -146.5 -84t-80.5 -182l-29 -154q-6 -31 -6 -61z" />
<glyph unicode="&#x3b5;" horiz-adv-x="917" d="M68 254q0 10 3 44t22.5 76t59.5 84t113 66l2 2q-63 31 -85.5 80t-22.5 96q0 49 24.5 106.5t76.5 105t132 79t191 31.5q96 0 197.5 -28.5t170.5 -100.5l-129 -152q-45 47 -111.5 67.5t-119.5 20.5q-35 0 -73 -8t-69.5 -25.5t-53 -45t-21.5 -66.5q0 -41 40 -63.5t109 -22.5 h138q-6 -43 -14.5 -85t-16.5 -85h-148q-37 0 -71.5 -9t-62 -25.5t-44 -43t-16.5 -59.5q0 -47 52 -76t130 -29q57 0 129 19.5t135 73.5q27 -41 51.5 -80t49.5 -80q-94 -74 -202 -101.5t-210 -27.5q-162 0 -259 71.5t-97 190.5z" />
<glyph unicode="&#x3b6;" horiz-adv-x="856" d="M66 356q0 98 47 214t135 234t213 230.5t280 206.5h-473q8 47 16.5 94t18.5 95h784q-10 -43 -17 -85t-15 -85q-180 -113 -322.5 -231t-242 -232.5t-151.5 -220t-52 -191.5q0 -68 33.5 -108.5t94 -64.5t146.5 -31t191 -7q10 -35 22 -73t25 -72q-31 -35 -64 -83 t-62.5 -102.5t-57 -112t-48.5 -110.5q-47 14 -95 25.5t-97 25.5q12 33 31.5 75t42 85t47 84t49.5 72q-102 6 -189.5 28.5t-152 66.5t-101 111.5t-36.5 161.5z" />
<glyph unicode="&#x3b7;" horiz-adv-x="1050" d="M16 0l199 1014h195l2 -96q70 39 121 60t90 31.5t68.5 13.5t56.5 3q133 0 202.5 -68.5t69.5 -191.5q0 -23 -2 -48.5t-8 -53.5l-187 -969h-219l182 938q6 33 7 61q0 68 -36 95.5t-93 27.5q-113 0 -293 -110l-138 -707h-217z" />
<glyph unicode="&#x3b8;" horiz-adv-x="1046" d="M84 338q0 43 10 100l127 641q35 182 153 274.5t312 92.5q92 0 165 -27.5t123 -75t76.5 -114t26.5 -142.5q0 -23 -2 -45t-6 -45l-127 -639q-20 -100 -62 -170.5t-103.5 -114.5t-139.5 -63.5t-168 -19.5q-78 0 -147.5 21.5t-122 65.5t-84 109.5t-31.5 151.5zM305 367 q0 -49 15.5 -82t42 -54.5t58.5 -31t66 -9.5q41 0 79 9.5t71 32t57.5 63.5t36.5 104l53 256h-430l-45 -231q-4 -16 -4 -29.5v-27.5zM389 831h430l35 166q6 31 6 60q0 92 -55 139t-135 47q-88 0 -153.5 -45t-88.5 -162z" />
<glyph unicode="&#x3b9;" horiz-adv-x="546" d="M117 209q0 43 8 84l139 723h217l-131 -674q-4 -23 -7 -40t-1 -32q0 -51 25.5 -66.5t74.5 -19.5l-41 -188h-36q-117 0 -182.5 51t-65.5 162z" />
<glyph unicode="&#x3ba;" horiz-adv-x="1005" d="M25 0l186 1016h213l-76 -391h131q31 0 58.5 4t53 17t49.5 41t46 75l117 254h227l-129 -293q-35 -74 -80 -125t-106 -70q68 -23 89 -71.5t34 -124.5l47 -332h-221l-33 287q-6 47 -19.5 75.5t-35 44t-50 20.5t-63.5 5h-150l-77 -432h-211z" />
<glyph unicode="&#x3bb;" horiz-adv-x="1058" d="M16 0l119 631q33 170 136.5 256t269.5 86q53 0 131 -13.5t162 -46.5l24 129q4 16 6 30.5t2 29.5q0 80 -54 121t-142 41q-68 0 -139.5 -12.5t-131.5 -41.5l-61 185q92 41 186 56t185 15q174 0 275 -85t101 -244q0 -23 -2 -48.5t-8 -54.5l-198 -1034h-218l136 709 q-66 29 -125.5 44t-114.5 15q-72 0 -130 -42t-79 -146l-110 -580h-220z" />
<glyph unicode="&#x3bc;" horiz-adv-x="1056" d="M-63 -408q39 211 72.5 384.5t65 336t64.5 331.5t72 370h219l-123 -633q-4 -14 -4 -26.5v-22.5q0 -61 32 -98t93 -37q55 0 131 25.5t162 82.5q35 180 68.5 354.5t68.5 354.5h219l-196 -1014h-211q2 23 5 48.5t5 47.5q-109 -66 -183.5 -85t-127.5 -19q-43 0 -75 7t-58 24 l-84 -431h-215z" />
<glyph unicode="&#x3bd;" horiz-adv-x="962" d="M119 1014h233q2 -12 9.5 -69.5t16.5 -123t16 -122t7 -68.5q2 -8 5.5 -36t7.5 -62.5t8 -75.5t8 -76t7 -62.5t3 -35.5h9l239 448q23 43 38 75t25.5 60.5t14.5 56t4 58.5v37h223v-35q0 -92 -24.5 -158.5t-69.5 -142.5l-399 -682h-211z" />
<glyph unicode="&#x3be;" horiz-adv-x="888" d="M76 379q0 39 12 96t46 117.5t92.5 115t152.5 87.5q-43 20 -71.5 49.5t-45 62.5t-23 68t-6.5 67q0 94 39 169t106.5 127.5t157 80t189.5 27.5q31 0 76 -1t95 -9.5t101.5 -25.5t92.5 -50l-109 -178q-72 47 -139.5 59t-122.5 12q-68 0 -118 -19.5t-84 -50t-51 -69.5t-17 -80 q0 -66 58 -113t142 -47h217l-32 -165h-222q-76 0 -135 -28t-101 -74t-64.5 -103.5t-22.5 -116.5q0 -66 30.5 -104.5t80 -62t110.5 -33t125 -11.5h129l47 -147q-31 -35 -62.5 -82t-61.5 -101.5t-57.5 -112t-47.5 -110.5l-197 49q12 33 31.5 75t43 86t48 85t49.5 72 q-104 6 -192.5 28.5t-153 68.5t-100 117.5t-35.5 174.5z" />
<glyph unicode="&#x3bf;" horiz-adv-x="1050" d="M96 346q0 23 2 45.5t6 46.5l39 213q35 182 147.5 278.5t309.5 96.5q92 0 166 -27.5t126 -77t80.5 -116t28.5 -143.5q0 -45 -8 -84l-43 -226q-39 -195 -159.5 -278.5t-298.5 -83.5q-74 0 -146 21.5t-127 65.5t-89 110.5t-34 158.5zM315 369q0 -49 16.5 -83t43 -55.5 t59.5 -31t66 -9.5q41 0 78.5 9.5t69.5 32t56.5 63.5t36.5 104l37 179q6 31 6 59q0 92 -56 140t-138 48q-88 0 -150.5 -46t-85.5 -163l-35 -192q-4 -16 -4 -29.5v-25.5z" />
<glyph unicode="&#x3c0;" horiz-adv-x="1050" d="M16 0l197 1014h862l-196 -1014h-220l158 823h-424l-160 -823h-217z" />
<glyph unicode="&#x3c1;" horiz-adv-x="1034" d="M-72 -406l207 1055q37 190 158 283.5t317 93.5q80 0 149.5 -22.5t121 -64.5t81 -101.5t29.5 -135.5q0 -35 -6 -71l-51 -279q-33 -172 -138.5 -268t-287.5 -96q-53 0 -122 10t-155 51l-88 -455h-215zM270 252q78 -37 133.5 -48t110.5 -11q33 0 65.5 8t61.5 29.5t50.5 55 t31.5 87.5l45 231q6 27 6 53q0 88 -55 128t-127 40q-37 0 -77 -11t-74.5 -35.5t-60.5 -64.5t-38 -98z" />
<glyph unicode="&#x3c2;" horiz-adv-x="907" d="M98 367q0 37 6 77l39 218q33 180 158 272t299 92q43 0 93 -8t97.5 -24.5t91.5 -44t74 -66.5l-141 -156q-25 31 -54.5 49.5t-60 28.5t-59.5 14t-49 4q-86 0 -151.5 -45t-88.5 -162l-30 -172q-6 -31 -7 -59q0 -72 34 -114t90.5 -64.5t127 -28.5t144.5 -6h61 q10 -35 22.5 -72t24.5 -71q-31 -35 -62.5 -82t-62 -101.5t-57.5 -112t-49 -110.5l-195 51q12 35 31.5 79t42 87t47.5 83t47 67q-12 -2 -23.5 -2h-23.5q-90 0 -166 28.5t-131 78.5t-87 120t-32 152z" />
<glyph unicode="&#x3c3;" horiz-adv-x="1083" d="M84 354q0 18 2 38t6 42l39 213q35 182 156 274.5t311 92.5h528q-4 -47 -7 -94.5t-7 -94.5h-197v-4q39 -29 54.5 -76t15.5 -98q0 -23 -2 -42t-6 -38l-39 -215q-18 -100 -60 -168.5t-102.5 -111.5t-137.5 -62.5t-165 -19.5q-78 0 -147.5 25.5t-124 72.5t-86 114.5 t-31.5 151.5zM303 373q0 -88 53.5 -136.5t141.5 -48.5q82 0 146.5 48.5t86.5 162.5l31 166q6 27 6 53q0 86 -52 140.5t-138 54.5q-88 0 -154 -46t-86 -163l-31 -182q-2 -12 -3 -25.5t-1 -23.5z" />
<glyph unicode="&#x3c4;" horiz-adv-x="770" d="M84 825l37 189h678l-37 -189h-256l-88 -454q-6 -37 -6 -70q0 -49 24.5 -76.5t91.5 -27.5q33 0 73 4t87 8l6 -186q-33 -10 -68.5 -17.5t-69.5 -10.5t-62.5 -4t-47.5 -1q-74 0 -125 15t-81.5 45t-44 71t-13.5 92t13 113l96 499h-207z" />
<glyph unicode="&#x3c5;" horiz-adv-x="1050" d="M78 319q0 23 2 45.5t6 47.5l119 604h217l-121 -617q-2 -12 -3 -24.5t-1 -22.5q0 -43 16.5 -73.5t43 -50t59.5 -29t65 -9.5q39 0 79 11.5t74 36t60.5 64.5t36.5 97l121 617h215l-127 -664q-35 -182 -159 -272t-316 -90q-68 0 -137.5 18.5t-125 57t-90 101t-34.5 152.5z " />
<glyph unicode="&#x3c6;" horiz-adv-x="1337" d="M86 350q0 23 2 46.5t6 47.5l39 207q14 74 48 136.5t83 109.5t111.5 75.5t136.5 35.5l8 -199q-78 -14 -122 -64.5t-60 -136.5l-35 -186q-2 -12 -3 -23.5t-1 -23.5q0 -80 54.5 -133.5t156.5 -53.5q35 186 70.5 368.5t72.5 369.5q98 51 183.5 75.5t167.5 24.5q150 0 220 -82 t70 -217q0 -45 -10 -102l-45 -260q-33 -186 -177 -280.5t-376 -94.5l-76 -398h-217l76 398q-90 2 -160.5 28.5t-120 73.5t-76 112.5t-26.5 145.5zM725 190q113 0 199 52.5t108 179.5l33 192q6 31 6 60q0 59 -27.5 98t-93.5 39q-23 0 -51.5 -7t-56.5 -18q-29 -150 -58.5 -298 t-58.5 -298z" />
<glyph unicode="&#x3c7;" horiz-adv-x="962" d="M-80 0l455 518l-240 498h252l125 -340l270 340h265l-439 -494l258 -522h-256l-141 354l-287 -354h-262z" />
<glyph unicode="&#x3c8;" horiz-adv-x="1345" d="M92 350q0 27 2 54.5t8 56.5l111 553h215l-113 -584q-6 -31 -6 -59q0 -86 53.5 -133.5t157.5 -47.5l160 824h217l-160 -824q133 0 202 63.5t91 170.5l117 590h215l-123 -635q-37 -190 -177 -289.5t-366 -99.5l-75 -400h-218l78 402q-80 2 -151.5 24.5t-123.5 66.5 t-83 110.5t-31 156.5z" />
<glyph unicode="&#x3c9;" horiz-adv-x="1589" d="M82 311q0 41 10 99l45 243q29 160 128.5 257.5t279.5 109.5l2 -195q-76 -12 -130.5 -63t-72.5 -152l-39 -204q-6 -35 -6 -64q0 -80 44 -116t110 -36q76 0 142.5 49.5t88.5 166.5l64 333h215l-62 -333q-6 -31 -6 -62q0 -72 40 -113t116 -41q96 0 151 55.5t76 160.5l41 204 q6 33 6 60q0 70 -34 106.5t-87 46.5l72 197q113 -18 189.5 -96t76.5 -211q0 -41 -8 -80l-47 -275q-37 -180 -151.5 -274t-307.5 -94q-43 0 -88 9t-85 28.5t-69.5 48t-44.5 69.5q-66 -76 -151.5 -115.5t-175.5 -39.5q-70 0 -130.5 20.5t-105.5 61.5t-70.5 100t-25.5 139z" />
<glyph unicode="&#x3ca;" horiz-adv-x="546" d="M117 209q0 43 8 84l139 723h217l-131 -674q-4 -23 -7 -40t-1 -32q0 -51 25.5 -66.5t74.5 -19.5l-41 -188h-36q-117 0 -182.5 51t-65.5 162zM119 1270q0 57 44 100t99 43q45 0 71.5 -27.5t26.5 -68.5q0 -29 -12 -53.5t-32.5 -45t-46 -31.5t-52.5 -11q-43 0 -70.5 26.5 t-27.5 67.5zM522 1270q0 57 43.5 100t100.5 43q43 0 70.5 -27.5t27.5 -68.5q0 -57 -45 -99t-101 -42q-41 0 -68.5 26.5t-27.5 67.5z" />
<glyph unicode="&#x3cb;" horiz-adv-x="1050" d="M78 319q0 23 2 45.5t6 47.5l119 604h217l-121 -617q-2 -12 -3 -24.5t-1 -22.5q0 -43 16.5 -73.5t43 -50t59.5 -29t65 -9.5q39 0 79 11.5t74 36t60.5 64.5t36.5 97l121 617h215l-127 -664q-35 -182 -159 -272t-316 -90q-68 0 -137.5 18.5t-125 57t-90 101t-34.5 152.5z M356 1270q0 57 44.5 100t99.5 43q45 0 71.5 -27.5t26.5 -68.5q0 -29 -12.5 -53.5t-33 -45t-46 -31.5t-51.5 -11q-43 0 -71 26.5t-28 67.5zM760 1270q0 57 43 100t100 43q43 0 70.5 -27.5t27.5 -68.5q0 -57 -45 -99t-100 -42q-41 0 -68.5 26.5t-27.5 67.5z" />
<glyph unicode="&#x3cc;" horiz-adv-x="1050" d="M96 346q0 23 2 45.5t6 46.5l39 213q35 182 147.5 278.5t309.5 96.5q92 0 166 -27.5t126 -77t80.5 -116t28.5 -143.5q0 -45 -8 -84l-43 -226q-39 -195 -159.5 -278.5t-298.5 -83.5q-74 0 -146 21.5t-127 65.5t-89 110.5t-34 158.5zM315 369q0 -49 16.5 -83t43 -55.5 t59.5 -31t66 -9.5q41 0 78.5 9.5t69.5 32t56.5 63.5t36.5 104l37 179q6 31 6 59q0 92 -56 140t-138 48q-88 0 -150.5 -46t-85.5 -163l-35 -192q-4 -16 -4 -29.5v-25.5zM573 1167l230 379l188 -63l-297 -365z" />
<glyph unicode="&#x3cd;" horiz-adv-x="1050" d="M78 319q0 23 2 45.5t6 47.5l119 604h217l-121 -617q-2 -12 -3 -24.5t-1 -22.5q0 -43 16.5 -73.5t43 -50t59.5 -29t65 -9.5q39 0 79 11.5t74 36t60.5 64.5t36.5 97l121 617h215l-127 -664q-35 -182 -159 -272t-316 -90q-68 0 -137.5 18.5t-125 57t-90 101t-34.5 152.5z M541 1167l231 379l189 -63l-299 -365z" />
<glyph unicode="&#x3ce;" horiz-adv-x="1589" d="M82 311q0 41 10 99l45 243q29 160 128.5 257.5t279.5 109.5l2 -195q-76 -12 -130.5 -63t-72.5 -152l-39 -204q-6 -35 -6 -64q0 -80 44 -116t110 -36q76 0 142.5 49.5t88.5 166.5l64 333h215l-62 -333q-6 -31 -6 -62q0 -72 40 -113t116 -41q96 0 151 55.5t76 160.5l41 204 q6 33 6 60q0 70 -34 106.5t-87 46.5l72 197q113 -18 189.5 -96t76.5 -211q0 -41 -8 -80l-47 -275q-37 -180 -151.5 -274t-307.5 -94q-43 0 -88 9t-85 28.5t-69.5 48t-44.5 69.5q-66 -76 -151.5 -115.5t-175.5 -39.5q-70 0 -130.5 20.5t-105.5 61.5t-70.5 100t-25.5 139z M797 1167l231 379l189 -63l-299 -365z" />
<glyph unicode="&#x401;" horiz-adv-x="1163" d="M47 0l275 1411h935l-40 -211h-703l-74 -387h617l-41 -211h-619l-75 -393h757l-41 -209h-991zM522 1624q4 53 47.5 91t96.5 38q47 0 73.5 -30.5t22.5 -75.5q-6 -53 -48 -92t-96 -39q-47 0 -74.5 31.5t-21.5 76.5zM932 1626q4 51 47 89t94 38q47 0 75 -30.5t23 -75.5 q-6 -53 -49 -92t-94 -39q-47 0 -74.5 31.5t-21.5 78.5z" />
<glyph unicode="&#x402;" horiz-adv-x="1468" d="M182 1198l41 213h1084l-41 -213h-498l-63 -317q88 43 176 69.5t172 26.5q98 0 169.5 -27.5t119 -76t70 -115t22.5 -144.5q0 -57 -13 -118l-37 -207q-18 -100 -47.5 -186.5t-86 -150t-144.5 -100t-221 -36.5q-23 0 -45.5 1t-46.5 3l43 211q82 0 137 16t91 51t57.5 87.5 t33.5 125.5l29 156q4 29 8 52.5t4 45.5q0 96 -52 146.5t-167 50.5q-68 0 -153 -32t-162 -75l-127 -655h-236l233 1198h-350z" />
<glyph unicode="&#x403;" horiz-adv-x="1073" d="M47 0l275 1411h942l-39 -211h-711l-233 -1200h-234zM651 1604l373 264l117 -152l-418 -213z" />
<glyph unicode="&#x404;" horiz-adv-x="1122" d="M131 391q0 25 3 49.5t7 53.5l92 473q43 219 174.5 338.5t383.5 119.5q119 0 234.5 -33.5t188.5 -103.5l-135 -180q-49 51 -133 77.5t-160 26.5q-137 0 -218 -70.5t-111 -228.5l-19 -92h439l-39 -200h-441l-22 -121q-6 -37 -6 -68q0 -59 22.5 -103t59 -72t84 -41t96.5 -13 q76 0 167 26.5t160 79.5l99 -192q-90 -66 -214 -98.5t-243 -32.5q-90 0 -174 25.5t-149.5 76.5t-105.5 127t-40 176z" />
<glyph unicode="&#x405;" horiz-adv-x="1165" d="M23 176q10 10 30.5 33.5t42 49.5t42 49.5t30.5 33.5q72 -66 168 -102.5t205 -36.5q152 0 237.5 66.5t85.5 164.5q0 45 -23.5 75t-62.5 50.5t-86 34.5t-96 27q-74 16 -144.5 41.5t-124 66.5t-86 101.5t-32.5 146.5q0 104 40 189t110.5 144.5t166.5 93.5t211 34 q125 0 243 -29t212 -96l-119 -189q-74 53 -162 77t-178 24q-47 0 -97 -13.5t-91 -40t-68.5 -69.5t-27.5 -101q0 -45 23.5 -75.5t60 -52t80.5 -35t85 -21.5q94 -23 171 -51.5t132.5 -70.5t85 -103.5t29.5 -147.5q0 -106 -47 -190t-128 -143.5t-187.5 -91t-223.5 -31.5 q-154 0 -281.5 45t-225.5 143z" />
<glyph unicode="&#x406;" horiz-adv-x="559" d="M82 0l274 1411h234l-275 -1411h-233z" />
<glyph unicode="&#x407;" horiz-adv-x="559" d="M82 0l274 1411h234l-275 -1411h-233zM193 1636q0 57 44 100.5t99 43.5q45 0 71.5 -28t26.5 -69q0 -29 -12 -53t-32.5 -44.5t-46.5 -32t-52 -11.5q-43 0 -70.5 26.5t-27.5 67.5zM596 1636q0 57 43 100.5t100 43.5q43 0 71 -28t28 -69q0 -57 -45 -99t-101 -42 q-41 0 -68.5 26.5t-27.5 67.5z" />
<glyph unicode="&#x408;" horiz-adv-x="1081" d="M-29 111l131 178q61 -49 144.5 -67.5t144.5 -18.5q57 0 107.5 15t90.5 50t68.5 92.5t44.5 141.5l177 909h235l-188 -962q-43 -223 -174 -343t-367 -120q-121 0 -235.5 32.5t-178.5 92.5z" />
<glyph unicode="&#x409;" horiz-adv-x="1904" d="M-16 152q98 31 161.5 79t107.5 121.5t74.5 180t59.5 258.5l119 620h790q-27 -141 -54.5 -280.5t-53.5 -280.5h321q184 0 283.5 -98.5t99.5 -259.5q0 -88 -27.5 -175.5t-87 -158t-153.5 -114.5t-225 -44h-608l231 1198h-326q-4 -14 -7 -32.5t-11 -60.5t-21.5 -117 t-38.5 -200q-37 -188 -80.5 -331.5t-110.5 -244.5t-163 -163.5t-237 -87.5zM1065 211h321q129 0 202 70.5t73 187.5q0 82 -52.5 126t-160.5 44h-301z" />
<glyph unicode="&#x40a;" horiz-adv-x="1902" d="M59 0l271 1411h231l-110 -571h479l110 571h232l-111 -573h322q184 0 283.5 -94.5t99.5 -254.5q0 -88 -27 -175t-86 -156.5t-152.5 -113.5t-224.5 -44h-608l121 629h-477l-121 -629h-232zM1042 211h322q131 0 201.5 67.5t70.5 184.5q0 164 -215 164h-301z" />
<glyph unicode="&#x40b;" horiz-adv-x="1497" d="M184 1198l41 213h1084l-41 -213h-498l-61 -317q88 43 174 69.5t170 26.5q98 0 169.5 -27.5t120 -77t72 -116t23.5 -146.5q0 -53 -13 -114l-90 -496h-235l88 467q4 27 7 50.5t3 45.5q0 96 -53 147.5t-170 51.5q-68 0 -151 -32t-158 -75l-127 -655h-236l232 1198h-351z" />
<glyph unicode="&#x40c;" horiz-adv-x="1179" d="M41 0l260 1411h229l-108 -588h174q37 0 73 6.5t71.5 27t68.5 58t61 101.5l172 395h242l-182 -422q-45 -106 -108.5 -173.5t-133.5 -90.5q80 -29 115 -101.5t45 -177.5l49 -446h-242l-41 416q-6 63 -23.5 103t-45 62.5t-63.5 29.5t-76 7h-193l-115 -618h-229zM655 1604 l373 264l117 -152l-418 -213z" />
<glyph unicode="&#x40e;" horiz-adv-x="1153" d="M121 -16l26 209h84q61 0 110.5 20t84.5 84l27 45l-209 1069h231l68 -420l61 -413h10l215 407l228 426h248l-627 -1118q-57 -100 -106.5 -161.5t-101.5 -94.5t-109.5 -43t-131.5 -10h-108zM500 1739h166q-4 -20 1 -45t18 -45.5t35.5 -35t57.5 -14.5q33 0 61.5 13.5t49 33 t34 44t17.5 49.5h172q-12 -47 -36.5 -99.5t-66.5 -95.5t-102.5 -71.5t-142.5 -28.5q-80 0 -133 24.5t-84 65.5t-42 94t-5 111z" />
<glyph unicode="&#x40f;" horiz-adv-x="1273" d="M41 0l274 1411h234l-234 -1200h592l234 1200h237l-274 -1411h-410l-67 -350h-250l67 350h-403z" />
<glyph unicode="&#x410;" horiz-adv-x="1263" d="M-61 0l761 1411h238l217 -1411h-246l-37 305h-524l-158 -305h-251zM455 508h389l-35 276l-39 328h-8l-158 -315z" />
<glyph unicode="&#x411;" horiz-adv-x="1228" d="M82 0l268 1411h842q-10 -53 -19.5 -106.5t-19.5 -106.5h-608l-70 -348h324q182 0 281.5 -98.5t99.5 -259.5q0 -88 -28 -175.5t-87 -158t-152.5 -114.5t-224.5 -44h-606zM354 211h322q129 0 201.5 70.5t72.5 187.5q0 82 -52 126t-161 44h-301q-23 -109 -42 -215.5 t-40 -212.5z" />
<glyph unicode="&#x412;" horiz-adv-x="1245" d="M37 0l274 1411h584q94 0 162.5 -26.5t114 -72.5t67 -106.5t21.5 -128.5q0 -111 -57.5 -198.5t-180.5 -147.5q82 -45 109.5 -120.5t27.5 -155.5q0 -88 -31.5 -170t-92 -145.5t-147.5 -101.5t-196 -38h-655zM311 209h332q57 0 107.5 16.5t87 47t57 75.5t20.5 101 q0 84 -50 128t-136 44h-336zM432 827h332q55 0 101 18.5t78 48.5t50.5 67.5t18.5 76.5q0 82 -50.5 122t-136.5 40h-319z" />
<glyph unicode="&#x413;" horiz-adv-x="1073" d="M47 0l275 1411h942l-39 -211h-711l-233 -1200h-234z" />
<glyph unicode="&#x414;" horiz-adv-x="1454" d="M-119 -309l99 520h102q53 35 97 84t81 123t69.5 177t67.5 245l135 571h922l-229 -1202h118l-102 -518h-219l61 309h-925l-62 -309h-215zM362 207h627l191 993h-475q-47 -184 -83 -337.5t-73 -277.5t-81 -218.5t-106 -159.5z" />
<glyph unicode="&#x415;" horiz-adv-x="1163" d="M47 0l275 1411h935l-40 -211h-703l-74 -387h617l-41 -211h-619l-75 -393h757l-41 -209h-991z" />
<glyph unicode="&#x416;" horiz-adv-x="1800" d="M-14 0l196 453q47 104 111.5 178t157.5 102q-59 23 -98.5 90.5t-49.5 171.5l-57 416h227l57 -395q8 -63 30 -101t50.5 -58.5t64.5 -27t73 -6.5h116l109 588h229l-108 -588h120q37 0 74 6.5t72 27t68.5 58t64.5 101.5l176 395h234l-183 -426q-51 -117 -112.5 -176 t-132.5 -82q82 -29 116.5 -102.5t44.5 -178.5l52 -446h-238l-41 416q-6 63 -24.5 103t-46 62.5t-64.5 29.5t-78 7h-139l-115 -618h-229l114 618h-131q-41 0 -79.5 -7t-74.5 -28.5t-69 -61.5t-61 -105l-176 -416h-250z" />
<glyph unicode="&#x417;" horiz-adv-x="1177" d="M41 129l143 166q27 -25 67 -43.5t84 -31.5t88 -20t81 -7q70 0 130 17t105 51t71 82t26 110q0 92 -62.5 141t-167.5 49h-172l37 191h191q41 0 89 11t89 36.5t68.5 67.5t27.5 104q0 43 -20.5 74.5t-53.5 51t-73.5 29t-83.5 9.5q-92 0 -184.5 -30t-162.5 -79l-100 172 q96 66 218 104.5t253 38.5q88 0 169 -19.5t140.5 -59t95 -101t35.5 -143.5q0 -125 -71.5 -220.5t-196.5 -140.5q86 -41 128 -115.5t42 -152.5q0 -123 -48 -215t-129 -151.5t-185.5 -89t-214.5 -29.5q-66 0 -131.5 10t-126 28.5t-110.5 45t-85 59.5z" />
<glyph unicode="&#x418;" horiz-adv-x="1343" d="M55 0l271 1411h231l-188 -987h10l829 987h219l-270 -1411h-233l190 997h-12l-834 -997h-213z" />
<glyph unicode="&#x419;" horiz-adv-x="1343" d="M55 0l271 1411h231l-188 -987h10l829 987h219l-270 -1411h-233l190 997h-12l-834 -997h-213zM606 1767h166q-4 -20 1 -44.5t18.5 -45t36 -35t57.5 -14.5q33 0 61.5 13.5t49 33t33.5 44t18 48.5h172q-12 -47 -37 -99t-67 -95t-102.5 -71.5t-142.5 -28.5q-80 0 -133 24.5 t-83.5 65.5t-42 94t-5.5 110z" />
<glyph unicode="&#x41a;" horiz-adv-x="1179" d="M41 0l260 1411h229l-108 -588h174q37 0 73 6.5t71.5 27t68.5 58t61 101.5l172 395h242l-182 -422q-45 -106 -108.5 -173.5t-133.5 -90.5q80 -29 115 -101.5t45 -177.5l49 -446h-242l-41 416q-6 63 -23.5 103t-45 62.5t-63.5 29.5t-76 7h-193l-115 -618h-229z" />
<glyph unicode="&#x41b;" horiz-adv-x="1300" d="M-59 156q98 33 162.5 79t108.5 119.5t73.5 179t58.5 257.5l121 620h899l-272 -1411h-240l233 1200h-430l-80 -412q-37 -188 -80.5 -330.5t-109.5 -244.5t-162 -164.5t-239 -89.5z" />
<glyph unicode="&#x41c;" horiz-adv-x="1562" d="M37 0l270 1411h207q8 -29 29.5 -99.5t49.5 -162.5t57.5 -194.5t56 -192.5t46 -158.5t25.5 -91.5h13q57 82 109 164t108 162q70 100 124 181t100 148.5t86 127t79 116.5h225l-268 -1411h-234l166 860h-8q-8 -12 -42 -61t-80 -116t-99 -143.5t-101.5 -146t-85 -122 t-49.5 -70.5h-170l-207 657h-10l-164 -858h-233z" />
<glyph unicode="&#x41d;" horiz-adv-x="1269" d="M33 0l274 1411h234l-115 -590h592l115 590h237l-274 -1411h-238l119 610h-592l-119 -610h-233z" />
<glyph unicode="&#x41e;" horiz-adv-x="1273" d="M123 420q0 55 12 117l84 432q43 221 186.5 338.5t378.5 117.5q100 0 190.5 -30.5t156 -86t104.5 -134t39 -175.5q0 -23 -2 -45t-6 -47l-86 -465q-41 -217 -185.5 -336.5t-392.5 -119.5q-92 0 -179 27.5t-153.5 83t-106.5 136t-40 187.5zM358 434q0 -61 20.5 -105 t55.5 -73t80 -42t94 -13q147 0 232.5 77.5t115.5 233.5l76 385q4 18 6 34.5t2 33.5q0 61 -22.5 107t-59 77t-84 46t-98.5 15q-127 0 -215 -68.5t-117 -221.5l-77 -408q-8 -39 -9 -78z" />
<glyph unicode="&#x41f;" horiz-adv-x="1269" d="M33 0l274 1411h1063l-274 -1411h-238l234 1200h-592l-234 -1200h-233z" />
<glyph unicode="&#x420;" horiz-adv-x="1150" d="M33 0l274 1411h572q88 0 153.5 -31.5t109.5 -85t65.5 -122t21.5 -140.5q0 -82 -31 -167t-92.5 -155.5t-150.5 -115.5t-205 -45h-377l-107 -549h-233zM416 762h313q57 0 106.5 19.5t86 53t57 80t20.5 101.5q0 84 -51 134t-143 50h-305z" />
<glyph unicode="&#x421;" horiz-adv-x="1122" d="M119 391q0 25 3 49.5t7 53.5l92 473q43 221 180.5 339.5t382.5 118.5q119 0 234 -36.5t190 -104.5l-141 -180q-49 51 -133 79.5t-160 28.5q-131 0 -215 -70.5t-115 -228.5l-82 -413q-6 -37 -6 -72q0 -59 21.5 -101t57.5 -70t83 -41t100 -13q76 0 167.5 26.5t160.5 79.5 l98 -192q-90 -66 -213.5 -98.5t-242.5 -32.5q-90 0 -174 25.5t-149.5 76.5t-105.5 127t-40 176z" />
<glyph unicode="&#x422;" horiz-adv-x="1073" d="M188 1198l41 213h1016l-41 -213h-391l-231 -1198h-236l232 1198h-390z" />
<glyph unicode="&#x423;" horiz-adv-x="1153" d="M121 -16l26 209h84q61 0 110.5 20t84.5 84l27 45l-209 1069h231l68 -420l61 -413h10l215 407l228 426h248l-627 -1118q-57 -100 -106.5 -161.5t-101.5 -94.5t-109.5 -43t-131.5 -10h-108z" />
<glyph unicode="&#x424;" horiz-adv-x="1589" d="M158 600q0 166 48 301t139 233.5t221 157t296 68.5l12 65h236l-12 -65q225 -10 345 -140t120 -350q0 -158 -44 -293t-132.5 -234t-220.5 -159.5t-310 -68.5l-22 -115h-236l23 115q-223 12 -343 141t-120 344zM393 618q0 -127 60.5 -206.5t205.5 -92.5l162 836 q-115 -6 -195.5 -55t-132 -125t-76 -169t-24.5 -188zM895 319q115 10 198 56.5t136 118t77.5 165t24.5 199.5q0 63 -14 117.5t-46 94.5t-84 63.5t-128 25.5z" />
<glyph unicode="&#x425;" horiz-adv-x="1171" d="M-59 0l577 723l-278 688h260l178 -498l369 498h276l-547 -688l309 -723h-264l-200 535l-404 -535h-276z" />
<glyph unicode="&#x426;" horiz-adv-x="1341" d="M39 0l272 1411h234l-232 -1202h592l232 1202h239l-233 -1202h119l-99 -520h-221l59 311h-962z" />
<glyph unicode="&#x427;" horiz-adv-x="1220" d="M164 854q0 57 12 125l84 434h236l-76 -401q-4 -27 -7 -49.5t-3 -44.5q0 -188 237 -189q80 0 169 29.5t155 66.5l112 588h236l-275 -1411h-237l117 602q-78 -41 -173.5 -65.5t-185.5 -24.5q-207 0 -304 90t-97 250z" />
<glyph unicode="&#x428;" horiz-adv-x="1843" d="M68 0l270 1411h233l-231 -1202h444l232 1202h229l-231 -1202h448l230 1202h235l-272 -1411h-1587z" />
<glyph unicode="&#x429;" horiz-adv-x="1873" d="M41 0l272 1411h234l-232 -1202h447l233 1202h230l-232 -1202h449l231 1202h238l-234 -1202h121l-100 -520h-221l61 311h-1497z" />
<glyph unicode="&#x42a;" horiz-adv-x="1529" d="M195 1202l38 209h666l-108 -561h323q182 0 281.5 -98.5t99.5 -257.5q0 -88 -27.5 -176.5t-87 -159t-153.5 -114.5t-226 -44h-606l232 1202h-432zM668 211h321q127 0 201 71.5t74 188.5q0 80 -52.5 124t-160.5 44h-299z" />
<glyph unicode="&#x42b;" horiz-adv-x="1675" d="M70 0l270 1411h231l-106 -561h321q184 0 282.5 -98.5t98.5 -257.5q0 -88 -27.5 -176.5t-86 -159t-152.5 -114.5t-225 -44h-606zM342 211h322q127 0 200.5 71.5t73.5 188.5q0 80 -51 124t-160 44h-303zM1227 0l268 1411h234l-271 -1411h-231z" />
<glyph unicode="&#x42c;" horiz-adv-x="1230" d="M82 0l270 1411h232l-107 -561h322q184 0 283.5 -98.5t99.5 -257.5q0 -88 -28 -176.5t-87 -159t-153.5 -114.5t-225.5 -44h-606zM354 211h322q127 0 200.5 71.5t73.5 188.5q0 80 -51 124t-160 44h-303z" />
<glyph unicode="&#x42d;" horiz-adv-x="1114" d="M33 127l133 172q55 -49 141 -73.5t162 -24.5q125 0 212 64.5t116 217.5l26 138h-458l38 204h461l19 90q8 35 8 74q0 57 -20.5 99t-55.5 68t-80 38t-96 12q-78 0 -158 -25.5t-164 -70.5l-92 190q96 59 208 93t241 34q100 0 184 -26.5t143.5 -77.5t92 -125t32.5 -168 q0 -25 -3 -50.5t-7 -53.5l-92 -490q-41 -221 -171 -334.5t-378 -113.5q-61 0 -124.5 9t-123 27.5t-110.5 44t-84 58.5z" />
<glyph unicode="&#x42e;" horiz-adv-x="1646" d="M55 0l273 1411h233l-112 -590h178l26 137q43 219 176.5 343t370.5 124q98 0 180 -28.5t141.5 -81.5t92.5 -127t33 -164q0 -23 -3.5 -47.5t-7.5 -48.5l-86 -471q-41 -221 -170 -346t-364 -125q-104 0 -190.5 26.5t-148 77.5t-95 123t-33.5 162q0 41 10 98l27 137h-178 l-119 -610h-234zM788 412q0 -55 18.5 -95.5t49.5 -66t72 -37.5t86 -12q119 0 197.5 67.5t109.5 223.5l82 419q8 39 8 78q0 57 -18.5 98t-50 69t-74.5 41t-90 13q-117 0 -192 -68.5t-105 -221.5l-84 -428q-8 -39 -9 -80z" />
<glyph unicode="&#x42f;" horiz-adv-x="1191" d="M6 0l170 412q35 84 76 146.5t113 92.5q-182 82 -183 299q0 98 34 182.5t97.5 146.5t154.5 97t204 35h612l-262 -1411h-234l113 584h-217q-39 0 -76 -9.5t-71.5 -31t-65.5 -61.5t-55 -101l-156 -381h-254zM428 961q0 -90 55.5 -133.5t153.5 -43.5h301l78 416h-322 q-117 0 -191.5 -61.5t-74.5 -177.5z" />
<glyph unicode="&#x430;" horiz-adv-x="1050" d="M66 256q0 41 10 98l59 305q35 180 133.5 273.5t268.5 93.5q53 0 125.5 -19.5t168.5 -78.5l39 86h197l-199 -1014h-196l-2 94q-63 -31 -112.5 -51t-88.5 -31.5t-69.5 -16.5t-57.5 -5q-135 0 -205.5 69.5t-70.5 196.5zM293 322q0 -66 33.5 -93.5t89.5 -27.5q55 0 133 30.5 t164 73.5l80 430q-49 37 -118 62.5t-134 25.5q-68 0 -119 -43t-72 -143l-51 -254q-6 -35 -6 -61z" />
<glyph unicode="&#x431;" horiz-adv-x="1028" d="M84 336q0 4 2 16.5t6 59.5q12 63 23.5 122.5t26 130t33 159.5t44.5 214q20 88 51 157t80 121t124 87t185 55q74 14 159 25.5t165 21.5l25 -192q-98 -12 -172 -21.5t-131 -21.5q-68 -14 -114 -36t-79 -58.5t-55.5 -94t-40.5 -141.5l-13 -59q78 41 152 61.5t135 20.5 q143 0 219 -73t76 -224q0 -16 -2 -40t-7 -59t-13.5 -86l-20.5 -123q-18 -100 -59 -169.5t-100.5 -113.5t-135.5 -64.5t-162 -20.5q-195 0 -298 89t-103 257zM305 350q0 -160 182 -160q100 0 155.5 39t80.5 121q29 94 36 167t7 95q0 29 -6 55.5t-21.5 47t-42 33t-67.5 12.5 q-59 0 -129 -24.5t-138 -63.5q-4 -16 -8 -36t-10 -47.5t-14 -68.5t-19 -98q-4 -20 -5 -37.5t-1 -34.5z" />
<glyph unicode="&#x432;" horiz-adv-x="1003" d="M25 106l108 553q14 68 45 133.5t84 118t134 85t196 32.5q98 0 164.5 -23.5t105.5 -60.5t55.5 -81t16.5 -83q0 -29 -8 -60.5t-25.5 -61t-44.5 -55t-65 -40.5q78 -23 113.5 -79t35.5 -119q0 -68 -23.5 -135.5t-77 -122t-142.5 -89t-220 -34.5q-74 0 -140.5 11t-124.5 29.5 t-106.5 40t-80.5 41.5zM268 231q31 -16 92.5 -32.5t120.5 -16.5q78 0 125 17.5t71.5 43t33 53.5t8.5 50q0 49 -31 82t-121 33h-96l29 157h82q66 0 97.5 34t31.5 77q0 41 -30.5 73t-102.5 32q-61 0 -103.5 -20.5t-69 -51.5t-41 -65.5t-18.5 -61.5z" />
<glyph unicode="&#x433;" horiz-adv-x="946" d="M57 246q0 111 48.5 175t119 100t154.5 54.5t154.5 36t118.5 44t48 79.5q0 41 -38.5 70t-110.5 29t-139.5 -20.5t-149.5 -68.5l-86 164q104 66 199.5 90.5t208.5 24.5q68 0 129 -17.5t108 -50t75 -81t28 -109.5q0 -96 -46.5 -157.5t-117 -100.5t-152.5 -60.5t-153 -37.5 q-31 -6 -62 -16.5t-55.5 -25t-39.5 -37t-15 -52.5q0 -53 49 -78t117 -25q88 0 160.5 24.5t152.5 80.5l98 -164q-121 -80 -228.5 -104.5t-211.5 -24.5q-78 0 -144.5 17.5t-114.5 50t-76 80.5t-28 110z" />
<glyph unicode="&#x434;" horiz-adv-x="1050" d="M59 336q0 51 13 104l32 158q18 84 48 152.5t79.5 118t120 76t166.5 26.5q68 0 147.5 -24.5t139.5 -69.5l10 63q4 35 9 65.5t5 59.5q0 102 -59 162.5t-209 60.5q-35 0 -79 -3t-97 -13q-8 45 -15.5 89t-13.5 87q59 14 119 20.5t117 6.5q125 0 208 -29t134 -81t72.5 -125 t21.5 -161q0 -94 -18 -200l-88 -508q-41 -199 -163 -291t-302 -92q-186 0 -292 90t-106 258zM281 365q0 -96 51 -137.5t139 -41.5q82 0 148.5 47.5t93.5 163.5l28 127q2 12 6.5 34t8.5 44.5t8 44t4 31.5q-43 41 -101 67.5t-128 26.5q-86 0 -144.5 -50t-79.5 -167l-26 -127 q-4 -18 -5 -34.5t-3 -28.5z" />
<glyph unicode="&#x435;" horiz-adv-x="987" d="M68 322q0 131 28.5 258t91 226t163 159.5t241.5 60.5q180 0 268 -81t88 -197q0 -74 -31.5 -137.5t-99 -109.5t-175 -73t-261.5 -27h-44.5t-43.5 2q-4 -16 -6 -31.5t-2 -29.5q0 -78 52 -120t138 -42q53 0 112.5 21.5t114.5 74.5q31 -41 63 -80.5t60 -80.5 q-96 -76 -192 -100.5t-193 -24.5q-166 0 -269 83t-103 249zM322 575q23 -2 44 -2h40q100 0 161.5 13.5t95 35t45 48t11.5 51.5q0 49 -30.5 79.5t-108.5 30.5q-111 0 -170.5 -68.5t-87.5 -187.5z" />
<glyph unicode="&#x436;" horiz-adv-x="1445" d="M-23 0l146 340q35 78 79 129t120 72q-55 20 -83 69t-38 121l-41 287h219l35 -258q6 -45 21.5 -73t38 -42t49 -18t57.5 -4h71l72 393h213l-72 -393h72q31 0 58.5 4t53 17t49 41t44.5 75l114 258h230l-127 -291q-35 -76 -79 -126t-105 -71q66 -20 88 -69t32 -125l47 -336 h-221l-33 285q-6 47 -18 75.5t-32.5 44t-48 20.5t-62.5 5h-97l-79 -430h-213l79 430h-84q-35 0 -64.5 -4t-56 -19.5t-49 -44t-43.5 -77.5l-112 -285h-230z" />
<glyph unicode="&#x437;" horiz-adv-x="931" d="M25 92l102 154q63 -35 132 -53.5t132 -18.5q104 0 161.5 39t57.5 113q0 53 -41 79.5t-106 26.5h-168l35 170h168q33 0 63.5 6t54 21.5t38 39t14.5 58.5q0 53 -42 82t-120 29q-55 0 -119.5 -15.5t-142.5 -54.5l-78 154q98 55 190.5 77.5t180.5 22.5q74 0 137 -16.5 t110 -49t74 -81t27 -111.5q0 -74 -41 -143.5t-133 -106.5q72 -33 96 -83t24 -97q0 -86 -34.5 -150.5t-94 -107.5t-139.5 -64.5t-170 -21.5q-104 0 -206.5 27.5t-161.5 74.5z" />
<glyph unicode="&#x438;" horiz-adv-x="1056" d="M72 256q0 25 3 50.5t7 53.5l129 654h219l-125 -633q-6 -31 -6 -57q0 -68 36 -96.5t89 -28.5q55 0 131 28.5t168 85.5l137 701h217l-196 -1014h-197l-4 98q-61 -37 -111.5 -59.5t-91.5 -33.5t-73.5 -14t-59.5 -3q-135 0 -203.5 72.5t-68.5 195.5z" />
<glyph unicode="&#x439;" horiz-adv-x="1056" d="M72 256q0 25 3 50.5t7 53.5l129 654h219l-125 -633q-6 -31 -6 -57q0 -68 36 -96.5t89 -28.5q55 0 131 28.5t168 85.5l137 701h217l-196 -1014h-197l-4 98q-61 -37 -111.5 -59.5t-91.5 -33.5t-73.5 -14t-59.5 -3q-135 0 -203.5 72.5t-68.5 195.5zM414 1460h168 q-10 -49 15.5 -91t90.5 -42q31 0 58.5 13.5t50 33t37 43t18.5 43.5h166q-10 -49 -35 -99t-65.5 -92t-102 -68.5t-147.5 -26.5q-82 0 -134.5 28.5t-81 71.5t-36.5 93t-2 93z" />
<glyph unicode="&#x43a;" horiz-adv-x="1005" d="M25 0l186 1016h213l-76 -391h131q31 0 58.5 4t53 17t49.5 41t46 75l117 254h227l-129 -293q-35 -74 -80 -125t-106 -70q68 -23 89 -71.5t34 -124.5l47 -332h-221l-33 287q-6 47 -19.5 75.5t-35 44t-50 20.5t-63.5 5h-150l-77 -432h-211z" />
<glyph unicode="&#x43b;" horiz-adv-x="1067" d="M-37 150q59 25 103.5 52t76 73.5t56 118t47.5 186.5l86 434h733l-197 -1014h-217l160 825h-303l-49 -247q-29 -147 -66 -251t-89 -173.5t-122.5 -110.5t-169.5 -66q-23 82 -49 173z" />
<glyph unicode="&#x43c;" horiz-adv-x="1251" d="M18 0l197 1014h195q29 -88 59.5 -174t60.5 -174q23 -66 43.5 -131.5t42.5 -128.5h13l98 132t96 132l250 344h199l-197 -1014h-215l109 565h-4q-78 -106 -157 -212.5t-157 -213.5h-149q-37 104 -76 208t-76 208l-8 2q-29 -141 -53.5 -278.5t-52.5 -278.5h-218z" />
<glyph unicode="&#x43d;" horiz-adv-x="1050" d="M16 0l197 1014h215l-80 -406h422l80 406h217l-197 -1014h-217l82 420h-422l-82 -420h-215z" />
<glyph unicode="&#x43e;" horiz-adv-x="1050" d="M96 346q0 23 2 45.5t6 46.5l39 213q35 182 147.5 278.5t309.5 96.5q92 0 166 -27.5t126 -77t80.5 -116t28.5 -143.5q0 -45 -8 -84l-43 -226q-39 -195 -159.5 -278.5t-298.5 -83.5q-74 0 -146 21.5t-127 65.5t-89 110.5t-34 158.5zM315 369q0 -49 16.5 -83t43 -55.5 t59.5 -31t66 -9.5q41 0 78.5 9.5t69.5 32t56.5 63.5t36.5 104l37 179q6 31 6 59q0 92 -56 140t-138 48q-88 0 -150.5 -46t-85.5 -163l-35 -192q-4 -16 -4 -29.5v-25.5z" />
<glyph unicode="&#x43f;" horiz-adv-x="1050" d="M16 0l199 1014h195l2 -96q70 39 121 60t90 31.5t68.5 13.5t56.5 3q133 0 202.5 -68.5t69.5 -191.5q0 -23 -2 -48.5t-8 -53.5l-127 -664h-219l122 633q6 33 7 61q0 68 -36 95.5t-93 27.5q-113 0 -293 -110l-138 -707h-217z" />
<glyph unicode="&#x440;" horiz-adv-x="1042" d="M-61 -406l274 1420h197v-101q117 63 195.5 87t131.5 24q131 0 206 -62.5t75 -195.5q0 -47 -12 -109l-60 -305q-33 -170 -135 -267t-291 -97q-53 0 -122.5 10t-155.5 51l-88 -455h-215zM283 252q78 -37 132 -48t109 -11q72 0 129.5 37.5t77.5 142.5l51 266q8 33 9 63 q0 66 -36 90.5t-91 24.5q-27 0 -63 -8t-75 -22.5t-78.5 -33t-76.5 -38.5z" />
<glyph unicode="&#x441;" horiz-adv-x="899" d="M86 311q0 45 8 84l49 267q35 180 152 272t297 92q45 0 94 -7t94 -23.5t85 -44t71 -68.5l-137 -154q-51 61 -111.5 79.5t-101.5 18.5q-90 0 -151.5 -50t-84.5 -161l-43 -217q-2 -12 -3 -24.5t-1 -24.5q0 -43 15.5 -73.5t41 -49t57.5 -28t64 -9.5q45 0 107.5 18.5 t122.5 70.5l123 -164q-90 -72 -187.5 -98.5t-195.5 -26.5q-74 0 -139.5 20.5t-116 60.5t-80 100t-29.5 140z" />
<glyph unicode="&#x442;" horiz-adv-x="1585" d="M12 0l197 1014h199v-101q63 43 108 65.5t79 33t60.5 12.5t55.5 2q86 0 138 -32.5t83 -92.5q125 76 208 100.5t142 24.5q72 0 124 -21.5t85 -58.5t48 -86t15 -106q0 -23 -3 -47.5t-7 -49.5l-127 -657h-219l125 637q6 25 6 49q0 57 -31.5 94t-93.5 37q-47 0 -106.5 -19.5 t-139.5 -72.5q0 -23 -6 -58.5t-10 -58.5l-117 -608h-217l123 633q6 27 6 53q0 53 -26.5 90t-87.5 37q-43 0 -103.5 -24.5t-152.5 -88.5q-35 -176 -68 -350t-68 -350h-219z" />
<glyph unicode="&#x443;" horiz-adv-x="925" d="M41 -410l229 430l-65 60l-99 936h222l28 -395l27 -398h8l266 508q23 43 38.5 76t24.5 60.5t13 55t4 58.5v37h219v-35q0 -92 -25.5 -158.5t-68.5 -142.5l-598 -1092h-223z" />
<glyph unicode="&#x444;" horiz-adv-x="1331" d="M96 389q0 141 42 257t118 198t181.5 128t232.5 52l73 385h218l-74 -385q82 -4 151.5 -28.5t119.5 -73t78 -120t28 -171.5q0 -150 -45 -266.5t-123 -198.5t-183.5 -127t-226.5 -49l-78 -398h-217l78 398q-78 6 -146.5 31.5t-118.5 74.5t-79 122t-29 171zM309 410 q0 -109 57.5 -162t141.5 -60l123 633q-61 -2 -118.5 -27.5t-102.5 -76.5t-73 -128t-28 -179zM725 188q59 2 116.5 31t103.5 81t74 130t28 180q0 111 -57.5 159t-141.5 52z" />
<glyph unicode="&#x445;" horiz-adv-x="962" d="M-80 0l455 518l-240 498h252l125 -340l270 340h265l-439 -494l258 -522h-256l-141 354l-287 -354h-262z" />
<glyph unicode="&#x446;" horiz-adv-x="1073" d="M70 254q0 25 3 50.5t7 53.5q33 166 65.5 328t63.5 328h219l-123 -633q-4 -16 -6 -30.5t-2 -28.5q0 -68 37 -96.5t90 -28.5q115 0 297 116q35 176 68.5 350.5t68.5 350.5h217q-35 -180 -69.5 -359.5t-69.5 -361.5q-4 -16 -6 -31.5t-2 -32.5q0 -47 21.5 -88t70.5 -63 q-18 -88 -36.5 -175t-35.5 -175h-188q10 68 19 134t20 134q-35 18 -56.5 53t-23.5 76h-2q-57 -47 -113.5 -73.5t-105.5 -41t-89 -17.5t-67 -3q-133 0 -202.5 69.5t-69.5 194.5z" />
<glyph unicode="&#x447;" horiz-adv-x="993" d="M82 596q0 23 3 46.5t7 49.5l64 324h215l-56 -297q-6 -31 -6 -57q0 -68 39 -96.5t107 -28.5q55 0 126.5 23.5t143.5 62.5l74 393h217l-197 -1016h-217l82 428q-106 -53 -180 -69.5t-131 -16.5q-137 0 -214 63.5t-77 190.5z" />
<glyph unicode="&#x448;" horiz-adv-x="1591" d="M66 264q0 23 2 45.5t6 44.5l127 660h221l-125 -637q-2 -14 -3 -26.5t-1 -24.5q0 -55 27.5 -92t91.5 -37q49 0 110.5 18t143.5 74v16q0 25 4 52.5t8 45.5l117 611h217l-123 -633q-4 -14 -4 -26.5v-26.5q0 -53 25.5 -91t84.5 -38q45 0 105.5 25.5t152.5 86.5 q35 176 68 351.5t68 351.5h219l-197 -1014h-199v98q-63 -41 -108 -62.5t-79 -31.5t-61.5 -12t-54.5 -2q-86 0 -138 30.5t-83 90.5q-63 -39 -114.5 -62.5t-93.5 -37t-76.5 -17.5t-65.5 -4q-72 0 -123 21.5t-85 58t-49 87t-15 107.5z" />
<glyph unicode="&#x449;" horiz-adv-x="1609" d="M61 256q0 35 7 76l131 682h221q-33 -160 -63.5 -318.5t-61.5 -318.5q-6 -29 -6 -53q0 -66 33.5 -96.5t87.5 -30.5q49 0 108.5 19.5t140.5 72.5q4 23 7.5 57.5t7.5 56.5l119 611h217l-123 -633q-6 -35 -6 -59q0 -61 30.5 -92t81.5 -31q43 0 104.5 25.5t153.5 86.5l138 703 h217q-35 -180 -70 -354.5t-70 -366.5q-4 -16 -7 -33.5t-3 -34.5q0 -47 20.5 -85t69.5 -62q-18 -86 -36.5 -174t-34.5 -176h-187l37 268q-35 20 -54.5 54t-21.5 75h-2q-59 -45 -107 -71.5t-87 -41t-71 -18.5t-58 -4q-72 0 -141.5 27.5t-98.5 93.5q-115 -70 -192.5 -93.5 t-137.5 -27.5q-131 -6 -212 64.5t-81 201.5z" />
<glyph unicode="&#x44a;" horiz-adv-x="1218" d="M72 829l34 185h545l-69 -346h2q37 16 79 29.5t81.5 22.5t73.5 14t56 5q129 0 210 -71.5t81 -190.5q0 -18 -2 -42.5t-6 -52.5t-9 -56.5t-11 -51.5q-20 -70 -51 -124t-82.5 -90.5t-125 -56t-180.5 -19.5q-92 0 -209.5 23.5t-234.5 86.5q37 186 74 367.5t71 367.5h-327z M492 215q57 -23 112 -31t90 -8q61 0 101.5 11.5t67 30t39.5 43t20 50.5q8 29 13 68t5 53q0 59 -33 83t-88 24q-53 0 -129 -27t-149 -68z" />
<glyph unicode="&#x44b;" horiz-adv-x="1374" d="M23 94q45 229 90 458.5t92 461.5h213l-68 -346h2q86 37 166 54t125 17q129 0 210 -72.5t81 -193.5q0 -12 -2 -36.5t-7 -53.5t-10.5 -57.5t-11.5 -51.5q-16 -68 -48 -122t-83 -90.5t-126 -57t-179 -20.5q-16 0 -25 2q-92 2 -201.5 25.5t-217.5 82.5zM260 215 q55 -23 111.5 -31t91.5 -8q63 0 104 11.5t65.5 30t37 43t18.5 50.5q2 14 6 34t7.5 38t5.5 33.5t2 21.5q0 55 -32 78t-91 23q-53 0 -129 -27t-148 -68zM977 0l194 1014h211l-194 -1014h-211z" />
<glyph unicode="&#x44c;" horiz-adv-x="987" d="M23 94q45 229 90 458.5t92 461.5h213l-68 -346h2q86 37 166 54t125 17q129 0 210 -72.5t81 -193.5q0 -12 -2 -36.5t-7 -53.5t-10.5 -57.5t-11.5 -51.5q-16 -68 -48 -122t-83 -90.5t-126 -57t-179 -20.5q-16 0 -25 2q-92 2 -201.5 25.5t-217.5 82.5zM260 215 q55 -23 111.5 -31t91.5 -8q63 0 104 11.5t65.5 30t37 43t18.5 50.5q2 14 6 34t7.5 38t5.5 33.5t2 21.5q0 55 -32 78t-91 23q-53 0 -129 -27t-148 -68z" />
<glyph unicode="&#x44d;" horiz-adv-x="892" d="M29 125l131 151q61 -45 124.5 -66.5t104.5 -21.5q100 0 150.5 42t68.5 137l15 71h-330q10 41 17 84t16 84h327l11 56q2 10 3 20t1 20q0 59 -40 91t-132 32q-43 0 -103.5 -15t-118.5 -62q-29 39 -57.5 77.5t-56.5 79.5q94 72 188 96.5t178 24.5q174 0 263.5 -87t89.5 -224 q0 -37 -7 -74l-47 -279q-16 -90 -44.5 -158.5t-78 -116.5t-122.5 -72.5t-177 -24.5q-45 0 -95 6t-99 21.5t-95 41t-85 66.5z" />
<glyph unicode="&#x44e;" horiz-adv-x="1353" d="M16 0l197 1014h217q-23 -104 -41 -204.5t-41 -205.5h131l10 58q31 172 139.5 267t293.5 95q88 0 158.5 -25.5t120.5 -69.5t77 -105.5t27 -135.5q0 -33 -7 -65l-43 -269q-12 -74 -38.5 -140.5t-76.5 -115.5t-127 -78.5t-186 -29.5q-92 0 -165.5 23.5t-125 66.5t-79 101.5 t-27.5 125.5q0 31 6 66l8 45h-131q-20 -104 -39.5 -209t-42.5 -209h-215zM651 346q0 -78 43 -122t142 -44q102 0 147 51.5t64 155.5l40 236q2 10 3.5 20t1.5 21q0 82 -53.5 124.5t-131.5 42.5t-134 -46t-77 -158l-39 -219q-6 -35 -6 -62z" />
<glyph unicode="&#x44f;" horiz-adv-x="989" d="M-10 0l135 344q16 43 50 79t83 46q-72 27 -101.5 77t-29.5 116q0 23 4 48t8 42q39 162 144.5 223t273.5 61q102 0 222 -27.5t225 -78.5l-170 -930h-209l157 817q-66 23 -121 33t-102 10q-92 0 -140 -38t-67 -113q-4 -12 -5 -25.5t-1 -17.5q0 -41 24.5 -73t104.5 -34h154 l-25 -164h-127q-53 0 -92 -18.5t-70 -85.5l-108 -291h-217z" />
<glyph unicode="&#x451;" horiz-adv-x="987" d="M68 322q0 131 28.5 258t91 226t163 159.5t241.5 60.5q180 0 268 -81t88 -197q0 -74 -31.5 -137.5t-99 -109.5t-175 -73t-261.5 -27h-44.5t-43.5 2q-4 -16 -6 -31.5t-2 -29.5q0 -78 52 -120t138 -42q53 0 112.5 21.5t114.5 74.5q31 -41 63 -80.5t60 -80.5 q-96 -76 -192 -100.5t-193 -24.5q-166 0 -269 83t-103 249zM322 575q23 -2 44 -2h40q100 0 161.5 13.5t95 35t45 48t11.5 51.5q0 49 -30.5 79.5t-108.5 30.5q-111 0 -170.5 -68.5t-87.5 -187.5zM360 1284q0 57 44.5 100t99.5 43q45 0 71.5 -27.5t26.5 -68.5q0 -29 -12 -53.5 t-32.5 -45t-46.5 -31.5t-52 -11q-43 0 -71 26.5t-28 67.5zM764 1284q0 57 43 100t100 43q43 0 71 -27.5t28 -68.5q0 -57 -45.5 -99t-100.5 -42q-41 0 -68.5 26.5t-27.5 67.5z" />
<glyph unicode="&#x452;" horiz-adv-x="1097" d="M72 0l223 1161h-96l30 158h97l28 147h219l-30 -147h413l-30 -158h-412l-49 -250q66 37 118 59.5t94 35t74.5 16.5t59.5 4q135 0 197.5 -65.5t62.5 -182.5q0 -53 -12 -116l-84 -457q-18 -90 -44 -161t-70 -120t-109.5 -75.5t-161.5 -26.5q-47 0 -98 6l36 188 q61 0 101.5 10.5t66 34t41 63.5t25.5 99l76 410q6 33 6 61q0 68 -36 95.5t-89 27.5q-57 0 -131 -26.5t-160 -75.5l-139 -715h-217z" />
<glyph unicode="&#x453;" horiz-adv-x="946" d="M57 246q0 111 48.5 175t119 100t154.5 54.5t154.5 36t118.5 44t48 79.5q0 41 -38.5 70t-110.5 29t-139.5 -20.5t-149.5 -68.5l-86 164q104 66 199.5 90.5t208.5 24.5q68 0 129 -17.5t108 -50t75 -81t28 -109.5q0 -96 -46.5 -157.5t-117 -100.5t-152.5 -60.5t-153 -37.5 q-31 -6 -62 -16.5t-55.5 -25t-39.5 -37t-15 -52.5q0 -53 49 -78t117 -25q88 0 160.5 24.5t152.5 80.5l98 -164q-121 -80 -228.5 -104.5t-211.5 -24.5q-78 0 -144.5 17.5t-114.5 50t-76 80.5t-28 110zM506 1167l229 379l189 -63l-299 -365z" />
<glyph unicode="&#x454;" horiz-adv-x="899" d="M86 311q0 45 8 84l49 267q35 180 152 272t297 92q45 0 94 -7t94 -23.5t85 -44t71 -68.5l-137 -154q-51 61 -111.5 79.5t-101.5 18.5q-90 0 -151.5 -50t-84.5 -161l-4 -16h307l-35 -172h-305l-6 -29q-2 -12 -3 -24.5t-1 -24.5q0 -43 15.5 -73.5t41 -49t57.5 -28t64 -9.5 q45 0 107.5 18.5t122.5 70.5l123 -164q-90 -72 -187.5 -98.5t-195.5 -26.5q-74 0 -139.5 20.5t-116 60.5t-80 100t-29.5 140z" />
<glyph unicode="&#x455;" horiz-adv-x="942" d="M4 129q66 82 131 156q66 -63 138.5 -87t158.5 -24q88 0 148.5 39t60.5 104q0 43 -37 64.5t-91 36t-118.5 28t-119 40t-91.5 73.5t-37 127q0 88 38 151.5t97.5 104.5t133 61.5t147.5 20.5q117 0 210 -23.5t169 -89.5q-29 -41 -60.5 -82t-60.5 -81q-66 49 -131 67.5 t-137 18.5q-92 0 -140 -40t-48 -87q0 -23 14 -39.5t36.5 -28.5t51.5 -19.5t57 -13.5q49 -8 108.5 -21.5t112 -42t87 -76.5t34.5 -126q0 -88 -36.5 -153.5t-99 -109.5t-144.5 -65.5t-174 -21.5q-111 0 -213.5 26.5t-194.5 112.5z" />
<glyph unicode="&#x456;" horiz-adv-x="546" d="M117 209q0 43 8 84l139 723h217l-131 -674q-4 -23 -7 -40t-1 -32q0 -51 25.5 -66.5t74.5 -19.5l-41 -188h-36q-117 0 -182.5 51t-65.5 162zM301 1280q0 17 2 25q10 53 52 89t94 36q47 0 75.5 -29t28.5 -72q0 -31 -13.5 -57.5t-35 -47t-48 -32.5t-55.5 -12 q-45 0 -72.5 28.5t-27.5 71.5z" />
<glyph unicode="&#x457;" horiz-adv-x="546" d="M115 1270q0 57 44 100t99 43q45 0 71.5 -27.5t26.5 -68.5q0 -29 -12 -53.5t-32.5 -45t-46 -31.5t-52.5 -11q-43 0 -70.5 26.5t-27.5 67.5zM117 209q0 43 8 84l139 723h217l-131 -674q-4 -23 -7 -40t-1 -32q0 -51 25.5 -66.5t74.5 -19.5l-41 -188h-36q-117 0 -182.5 51 t-65.5 162zM518 1270q0 57 43.5 100t100.5 43q43 0 70.5 -27.5t27.5 -68.5q0 -57 -45 -99t-101 -42q-41 0 -68.5 26.5t-27.5 67.5z" />
<glyph unicode="&#x458;" horiz-adv-x="526" d="M-182 -420l37 201q104 -10 149 24.5t62 122.5l210 1088h216l-216 -1116q-12 -70 -31.5 -130.5t-54 -105.5t-91 -71.5t-144.5 -26.5q-29 0 -63.5 3t-73.5 11zM307 1282q0 29 13.5 55.5t34 47t47 33t55.5 12.5q47 0 76.5 -29t29.5 -72q0 -31 -13 -57.5t-34.5 -46 t-49.5 -31.5t-56 -12q-43 0 -73 28.5t-30 71.5z" />
<glyph unicode="&#x459;" horiz-adv-x="1570" d="M-14 150q63 25 109 52t80 73.5t60.5 119t49.5 187.5l86 434h641l-68 -348q109 41 176.5 56t116.5 15q129 0 209 -72.5t80 -193.5v-24q-12 -104 -35 -190.5t-73 -147t-135 -94t-222 -33.5q-92 0 -210 23.5t-235 86.5q35 186 72 371t74 371h-108.5t-106.5 -2l-49 -256 q-29 -147 -67 -250t-92 -172.5t-129 -111.5t-175 -67q-12 43 -25.5 86t-23.5 87zM854 215q55 -23 111.5 -31t91.5 -8q59 0 100 11.5t66.5 30t39 43t19.5 50.5q6 29 12 65t6 52q0 59 -31.5 85t-88.5 26q-53 0 -129 -27t-148 -68z" />
<glyph unicode="&#x45a;" horiz-adv-x="1548" d="M20 0l197 1014h215l-74 -373h342l74 373h213l-65 -346q96 43 171.5 57t118.5 14q125 0 208 -70.5t83 -193.5q0 -14 -2 -38.5t-6 -52.5t-9 -57.5t-11 -52.5q-33 -135 -134.5 -212.5t-302.5 -77.5q-92 0 -209.5 23.5t-234.5 86.5q16 92 34.5 183.5t37.5 183.5h-342 q-23 -117 -44.5 -231.5t-43.5 -229.5h-216zM831 215q55 -23 110.5 -31t90.5 -8q61 0 101.5 11.5t67 30t39.5 43t20 50.5q8 29 13 68t5 53q0 59 -33 83t-88 24q-53 0 -129 -27t-147 -68z" />
<glyph unicode="&#x45b;" horiz-adv-x="1062" d="M45 0l225 1161h-98l31 156h100l29 149h217l-31 -149h416l-31 -156h-416l-47 -243q63 37 114.5 58t91.5 32.5t72 14.5t58 3q139 0 207 -67.5t68 -188.5q0 -51 -13 -108l-129 -662h-219l123 633q6 33 6 59q0 70 -37 97.5t-90 27.5q-55 0 -130 -24.5t-163 -81.5l-137 -711 h-217z" />
<glyph unicode="&#x45c;" horiz-adv-x="1005" d="M25 0l186 1016h213l-76 -391h131q31 0 58.5 4t53 17t49.5 41t46 75l117 254h227l-129 -293q-35 -74 -80 -125t-106 -70q68 -23 89 -71.5t34 -124.5l47 -332h-221l-33 287q-6 47 -19.5 75.5t-35 44t-50 20.5t-63.5 5h-150l-77 -432h-211zM496 1167l229 379l188 -63 l-299 -365z" />
<glyph unicode="&#x45e;" horiz-adv-x="925" d="M41 -410l229 430l-65 60l-99 936h222l28 -395l27 -398h8l266 508q23 43 38.5 76t24.5 60.5t13 55t4 58.5v37h219v-35q0 -92 -25.5 -158.5t-68.5 -142.5l-598 -1092h-223zM332 1458h166q-4 -20 1 -44.5t18 -45t35.5 -35t57.5 -14.5q33 0 61.5 13.5t49 32.5t34 44t17.5 49 h172q-12 -47 -36.5 -99t-66.5 -95t-102.5 -72t-142.5 -29q-80 0 -133 24.5t-84 65.5t-42 94.5t-5 110.5z" />
<glyph unicode="&#x45f;" horiz-adv-x="1046" d="M78 256q0 25 3 50.5t7 53.5l129 654h217l-123 -633q-6 -31 -6 -57q0 -68 36 -96.5t89 -28.5t130 28.5t167 85.5l137 701h217l-196 -1014h-195l-4 98q-61 -37 -111.5 -59.5t-92.5 -33.5t-74.5 -14t-59.5 -3q-133 0 -201.5 71.5t-68.5 196.5zM324 -371l49 287l200 37 l-94 -324h-155z" />
<glyph unicode="&#x490;" horiz-adv-x="1101" d="M49 0l273 1411h733l51 254h217l-92 -465h-717l-233 -1200h-232z" />
<glyph unicode="&#x491;" horiz-adv-x="858" d="M16 0l195 1016h555l43 221h203l-80 -410h-541l-160 -827h-215z" />
<glyph unicode="&#x4d9;" horiz-adv-x="987" d="M70 270q0 74 31.5 137.5t99 109.5t175 71.5t261.5 25.5h44t44 -2q4 16 6 31.5t2 30.5q0 78 -52 120t-138 42q-53 0 -112.5 -21.5t-115.5 -75.5q-31 41 -62.5 81t-59.5 81q94 76 191 101.5t194 25.5q166 0 269 -86t103 -252q0 -131 -28.5 -256t-91 -223t-162 -158.5 t-242.5 -60.5q-180 0 -268 80t-88 198zM299 295q0 -49 30.5 -80t106.5 -31q111 0 171.5 67.5t88.5 186.5q-23 2 -44 2h-40q-100 0 -161.5 -13t-95 -34.5t-45 -47.5t-11.5 -50z" />
<glyph unicode="&#x1e80;" horiz-adv-x="1812" d="M213 1411h240l24 -604l15 -451h12l198 455l265 600h241l37 -625l21 -430h12l182 435l264 620h246l-635 -1411h-258l-37 586l-20 418h-14l-185 -422l-258 -582h-258zM717 1757l131 146l350 -263l-80 -96z" />
<glyph unicode="&#x1e81;" horiz-adv-x="1443" d="M119 1016h223l25 -320q6 -94 14 -185t14 -185h13q43 92 90 181t90 181l117 230h196q8 -59 15.5 -119t17.5 -119q14 -92 23.5 -182t23.5 -181h10l199 412q37 82 51 136.5t14 111.5v41h220v-39q0 -78 -17.5 -147.5t-58.5 -147.5l-361 -684h-202q-23 154 -42.5 307.5 t-39.5 306.5q-2 0 -4 1t-5 1q-14 -29 -28.5 -60.5t-36 -74.5t-52 -104.5t-73.5 -149.5q-29 -55 -56.5 -111.5t-56.5 -115.5h-206zM530 1475l177 71l243 -362l-100 -62z" />
<glyph unicode="&#x1e82;" horiz-adv-x="1812" d="M213 1411h240l24 -604l15 -451h12l198 455l265 600h241l37 -625l21 -430h12l182 435l264 620h246l-635 -1411h-258l-37 586l-20 418h-14l-185 -422l-258 -582h-258zM1040 1604l373 264l117 -152l-418 -213z" />
<glyph unicode="&#x1e83;" horiz-adv-x="1443" d="M119 1016h223l25 -320q6 -94 14 -185t14 -185h13q43 92 90 181t90 181l117 230h196q8 -59 15.5 -119t17.5 -119q14 -92 23.5 -182t23.5 -181h10l199 412q37 82 51 136.5t14 111.5v41h220v-39q0 -78 -17.5 -147.5t-58.5 -147.5l-361 -684h-202q-23 154 -42.5 307.5 t-39.5 306.5q-2 0 -4 1t-5 1q-14 -29 -28.5 -60.5t-36 -74.5t-52 -104.5t-73.5 -149.5q-29 -55 -56.5 -111.5t-56.5 -115.5h-206zM791 1167l229 379l188 -63l-299 -365z" />
<glyph unicode="&#x1e84;" horiz-adv-x="1812" d="M213 1411h240l24 -604l15 -451h12l198 455l265 600h241l37 -625l21 -430h12l182 435l264 620h246l-635 -1411h-258l-37 586l-20 418h-14l-185 -422l-258 -582h-258zM813 1624q4 53 47 91t96 38q47 0 74 -30.5t23 -75.5q-6 -53 -48 -92t-96 -39q-47 0 -74.5 31.5 t-21.5 76.5zM1223 1626q4 51 47 89t94 38q47 0 74.5 -30.5t23.5 -75.5q-6 -53 -49 -92t-94 -39q-47 0 -74.5 31.5t-21.5 78.5z" />
<glyph unicode="&#x1e85;" horiz-adv-x="1443" d="M119 1016h223l25 -320q6 -94 14 -185t14 -185h13q43 92 90 181t90 181l117 230h196q8 -59 15.5 -119t17.5 -119q14 -92 23.5 -182t23.5 -181h10l199 412q37 82 51 136.5t14 111.5v41h220v-39q0 -78 -17.5 -147.5t-58.5 -147.5l-361 -684h-202q-23 154 -42.5 307.5 t-39.5 306.5q-2 0 -4 1t-5 1q-14 -29 -28.5 -60.5t-36 -74.5t-52 -104.5t-73.5 -149.5q-29 -55 -56.5 -111.5t-56.5 -115.5h-206zM571 1274q0 57 44.5 100t99.5 43q45 0 71.5 -27.5t26.5 -68.5q0 -29 -12.5 -53.5t-32.5 -45t-46 -31.5t-52 -11q-43 0 -71 26.5t-28 67.5z M975 1274q0 57 43 100t100 43q43 0 71 -27.5t28 -68.5q0 -57 -45.5 -99t-100.5 -42q-41 0 -68.5 26.5t-27.5 67.5z" />
<glyph unicode="&#x1ef2;" horiz-adv-x="1120" d="M203 1411h241l95 -367l67 -270h10l199 309l213 328h258l-590 -864l-104 -547h-234l105 547zM371 1716l131 146l350 -263l-80 -96z" />
<glyph unicode="&#x1ef3;" horiz-adv-x="925" d="M41 -410l229 430l-65 60l-99 936h222l28 -395l27 -398h8l266 508q23 43 38.5 76t24.5 60.5t13 55t4 58.5v37h219v-35q0 -92 -25.5 -158.5t-68.5 -142.5l-598 -1092h-223zM225 1475l176 71l244 -362l-100 -62z" />
<glyph unicode="&#x2000;" horiz-adv-x="966" />
<glyph unicode="&#x2001;" horiz-adv-x="1933" />
<glyph unicode="&#x2002;" horiz-adv-x="966" />
<glyph unicode="&#x2003;" horiz-adv-x="1933" />
<glyph unicode="&#x2004;" horiz-adv-x="644" />
<glyph unicode="&#x2005;" horiz-adv-x="483" />
<glyph unicode="&#x2006;" horiz-adv-x="322" />
<glyph unicode="&#x2007;" horiz-adv-x="322" />
<glyph unicode="&#x2008;" horiz-adv-x="241" />
<glyph unicode="&#x2009;" horiz-adv-x="386" />
<glyph unicode="&#x200a;" horiz-adv-x="107" />
<glyph unicode="&#x2010;" horiz-adv-x="821" d="M104 444l39 193h617l-37 -193h-619z" />
<glyph unicode="&#x2011;" horiz-adv-x="821" d="M104 444l39 193h617l-37 -193h-619z" />
<glyph unicode="&#x2012;" horiz-adv-x="821" d="M104 444l39 193h617l-37 -193h-619z" />
<glyph unicode="&#x2013;" horiz-adv-x="1019" d="M49 463l53 190h940l-53 -190h-940z" />
<glyph unicode="&#x2014;" horiz-adv-x="2082" d="M33 463l53 190h1999l-53 -190h-1999z" />
<glyph unicode="&#x2015;" horiz-adv-x="2048" d="M37 457l39 196h1952l-37 -196h-1954z" />
<glyph unicode="&#x2018;" horiz-adv-x="610" d="M287 1106q0 61 25.5 122.5t68.5 115t100.5 97.5t120.5 72l55 -100q-55 -37 -95 -83t-56 -101q37 -4 59.5 -33t22.5 -70q0 -33 -12.5 -63.5t-35 -55t-54 -39t-68.5 -14.5q-68 0 -99.5 46.5t-31.5 105.5z" />
<glyph unicode="&#x2019;" horiz-adv-x="610" d="M274 1057q57 37 96.5 83t55.5 101q-35 6 -56.5 34t-21.5 71q0 66 45 118t121 52q68 0 99.5 -46.5t31.5 -105.5q0 -61 -25.5 -121.5t-68.5 -115t-99.5 -98.5t-119.5 -73z" />
<glyph unicode="&#x201a;" horiz-adv-x="555" d="M4 -195q57 37 97 83t57 102q-82 8 -82 96q0 70 46 123t124 53q68 0 98.5 -44t30.5 -105t-24.5 -122t-67.5 -115t-100.5 -99t-121.5 -74z" />
<glyph unicode="&#x201c;" horiz-adv-x="909" d="M260 1112q0 59 25.5 119.5t69.5 114t101.5 97.5t118.5 70l56 -100q-57 -37 -97 -83t-57 -101q39 -4 60.5 -33t21.5 -70q0 -33 -12 -63.5t-35 -55t-53.5 -39t-67.5 -14.5q-70 0 -100.5 47.5t-30.5 110.5zM612 1106q0 61 26 122.5t69 115t100 97.5t121 72l55 -100 q-55 -37 -95 -83t-57 -101q37 -4 59.5 -33t22.5 -70q0 -33 -12 -63.5t-34.5 -55t-54.5 -39t-69 -14.5q-68 0 -99.5 46.5t-31.5 105.5z" />
<glyph unicode="&#x201d;" horiz-adv-x="909" d="M246 1057q59 37 98 83t55 101q-37 6 -58.5 34t-21.5 68q0 33 12.5 64t34 55.5t53.5 39t68 14.5q68 0 99.5 -46.5t31.5 -105.5q0 -61 -25.5 -122.5t-68.5 -115t-100 -98.5t-121 -72zM600 1057q57 37 96 83t56 101q-35 6 -56.5 34t-21.5 71q0 33 12 63.5t33.5 54t52.5 38 t68 14.5q68 0 99.5 -46.5t31.5 -105.5q0 -61 -25.5 -121.5t-68.5 -115t-99.5 -98.5t-120.5 -73z" />
<glyph unicode="&#x201e;" horiz-adv-x="968" d="M4 -195q57 37 97 83t57 102q-82 8 -82 96q0 70 46 123t124 53q68 0 98.5 -44t30.5 -105t-24.5 -122t-67.5 -115t-100.5 -99t-121.5 -74zM414 -195q57 37 96 83t55 102q-80 6 -80 94q0 70 45 124t123 54q68 0 99.5 -45t31.5 -104q0 -61 -25.5 -123t-68.5 -116t-99 -98 t-120 -73z" />
<glyph unicode="&#x2020;" horiz-adv-x="964" d="M113 776l32 170h338l92 479h203l-94 -479h340l-33 -170h-340l-223 -1145h-201l224 1145h-338z" />
<glyph unicode="&#x2021;" horiz-adv-x="985" d="M12 250l31 168h346l70 358h-346l32 170h347l92 479h204l-92 -479h346l-32 -170h-346l-70 -358h346l-35 -168h-344l-121 -619h-204l120 619h-344z" />
<glyph unicode="&#x2022;" horiz-adv-x="882" d="M178 573q4 59 29.5 111.5t67.5 91.5t96.5 61.5t113.5 22.5t109.5 -22.5t87.5 -61.5t55.5 -91t14.5 -112q-4 -59 -31 -111t-69 -91t-96 -61.5t-114 -22.5q-59 0 -109 22.5t-86 61.5t-54.5 91t-14.5 111z" />
<glyph unicode="&#x2023;" horiz-adv-x="1089" d="M166 94v936l852 -457z" />
<glyph unicode="&#x2026;" horiz-adv-x="1718" d="M76 100q0 31 12 62t34.5 55.5t53.5 38.5t68 14q57 0 87.5 -31.5t30.5 -78.5q0 -70 -49 -121t-123 -51q-53 0 -83.5 31.5t-30.5 80.5zM657 100q0 31 12.5 62t35 55.5t53 38.5t67.5 14q57 0 89 -32.5t32 -79.5q0 -35 -13 -66t-37 -53.5t-55.5 -36.5t-66.5 -14 q-55 0 -86 31.5t-31 80.5zM1233 100q0 31 13.5 62t36 55.5t53 38.5t65.5 14q57 0 89 -32.5t32 -79.5q0 -35 -13.5 -66t-37 -53.5t-55 -36.5t-66.5 -14q-53 0 -85 31.5t-32 80.5z" />
<glyph unicode="&#x202f;" horiz-adv-x="386" />
<glyph unicode="&#x2030;" horiz-adv-x="2361" d="M164 793q0 12 1 24t3 25l63 334q23 115 91.5 181t209.5 66q125 0 200 -69.5t75 -173.5q0 -12 -1 -23.5t-3 -23.5l-58 -342q-23 -115 -102.5 -173.5t-202.5 -58.5q-49 0 -98 14.5t-89 44t-64.5 72.5t-24.5 103zM236 -35l1161 1495h162l-1164 -1495h-159zM338 811 q0 -57 38 -78.5t75 -21.5q41 0 79.5 23.5t51.5 82.5l57 324q2 8 2 24q0 49 -34 77t-81 28q-41 0 -78.5 -24.5t-48.5 -84.5l-59 -321q-2 -8 -2 -15.5v-13.5zM977 225q0 12 1 24.5t3 24.5l63 336q23 113 91.5 179.5t210.5 66.5q123 0 198.5 -68.5t75.5 -173.5v-24t-4 -25 l-57 -340q-23 -115 -103 -173t-203 -58q-49 0 -98 14.5t-89 43t-64.5 71.5t-24.5 102zM1151 244q0 -57 38 -79t75 -22q41 0 80.5 25t50.5 84l57 321q2 8 2 25q0 49 -34 78t-81 29q-41 0 -78.5 -26t-48.5 -85l-59 -322q-2 -8 -2 -15v-13zM1651 225q0 12 1 24.5t3 24.5l63 336 q23 113 91.5 179.5t209.5 66.5q123 0 199 -68.5t76 -173.5v-24t-4 -25l-58 -340q-23 -115 -102.5 -173t-202.5 -58q-49 0 -98 14.5t-89 43t-64.5 71.5t-24.5 102zM1825 244q0 -57 38 -79t74 -22q41 0 81 25t50 84l58 321q2 8 2 25q0 49 -34 78t-81 29q-41 0 -79 -26t-48 -85 l-59 -322q-2 -8 -2 -15v-13z" />
<glyph unicode="&#x2039;" horiz-adv-x="673" d="M51 469l350 401h211l-358 -411l184 -389h-192z" />
<glyph unicode="&#x203a;" horiz-adv-x="673" d="M18 70l359 411l-184 389h192l195 -401l-353 -399h-209z" />
<glyph unicode="&#x2044;" horiz-adv-x="327" d="M-485 -35l1161 1495h162l-1164 -1495h-159z" />
<glyph unicode="&#x205f;" horiz-adv-x="483" />
<glyph unicode="&#x2070;" horiz-adv-x="667" d="M156 977q0 12 1 24.5t3 24.5l63 334q23 115 91.5 181.5t209.5 66.5q125 0 200 -70t75 -174q0 -12 -1 -23.5t-3 -23.5l-58 -342q-23 -115 -102.5 -173.5t-202.5 -58.5q-49 0 -98 14.5t-89 44t-64.5 73t-24.5 102.5zM330 995q0 -57 38 -78.5t74 -21.5q41 0 80 23.5t51 82.5 l58 324q2 8 2 25q0 49 -34 76.5t-81 27.5q-41 0 -79 -24.5t-48 -83.5l-59 -322q-2 -8 -2 -15.5v-13.5z" />
<glyph unicode="&#x2074;" horiz-adv-x="667" d="M119 872l24 125l416 600h180l-403 -581h199l49 231h164l-46 -231h78l-28 -144h-76l-25 -120h-168l25 120h-389z" />
<glyph unicode="&#x2075;" horiz-adv-x="667" d="M123 846l110 121q82 -72 170 -72q137 0 156 102l19 99q8 43 -11.5 63.5t-54.5 20.5q-18 0 -43 -6.5t-49.5 -16.5t-48 -21.5t-37.5 -19.5l-131 58l82 425h534l-31 -147h-364l-33 -164q47 23 90 36t74 13q61 0 102 -17t63.5 -48t29 -74t-1.5 -94l-23 -133 q-16 -106 -103 -167t-214 -61q-86 0 -162 30t-123 73z" />
<glyph unicode="&#x2076;" horiz-adv-x="667" d="M160 958v25.5t4 28.5l67 358q23 115 115 176.5t209 61.5q88 0 154.5 -27t109.5 -70l-104 -122q-39 35 -83 51t-89 16t-91 -27.5t-57 -85.5l-16 -90q59 29 106 42.5t82 13.5q98 0 146.5 -50.5t48.5 -128.5q0 -27 -6 -53l-17 -96q-20 -111 -106 -174.5t-217 -63.5 q-49 0 -95.5 13.5t-82 40t-57 66.5t-21.5 95zM330 979q0 -47 32.5 -65.5t67.5 -18.5q49 0 90 25.5t51 80.5l13 68q2 8 2 23q0 35 -20.5 50t-51.5 15q-35 0 -75 -15.5t-87 -37.5l-20 -103q-2 -8 -2 -22z" />
<glyph unicode="&#x2077;" horiz-adv-x="606" d="M166 752q115 176 227.5 350t224.5 350h-219l-22 -121h-164q14 66 26.5 132.5t24.5 133.5h580l-25 -127l-467 -718h-186z" />
<glyph unicode="&#x2078;" horiz-adv-x="667" d="M154 952q0 98 45 151.5t110 78.5q-41 16 -58.5 51t-17.5 78q0 74 30 129t76 92t104.5 55.5t117.5 18.5q47 0 91 -12.5t79 -38t55.5 -65.5t20.5 -93q0 -78 -38 -133.5t-105 -79.5q43 -18 63.5 -61.5t20.5 -90.5q0 -72 -31 -126t-79 -90t-107.5 -54.5t-114.5 -18.5 q-49 0 -96.5 12.5t-84 39t-59 65.5t-22.5 92zM330 979q0 -41 28.5 -62.5t71.5 -21.5q53 0 97 30.5t44 90.5q0 41 -27.5 63.5t-72.5 22.5q-53 0 -97 -32t-44 -91zM401 1333q0 -39 29 -60.5t70 -21.5q49 0 93 33t44 86q0 41 -28.5 61.5t-69.5 20.5q-25 0 -48.5 -7t-44 -22.5 t-33 -37t-12.5 -52.5z" />
<glyph unicode="&#x2079;" horiz-adv-x="665" d="M123 842l104 121q39 -35 81 -50.5t87 -15.5q53 0 95 26.5t55 86.5l18 90q-59 -29 -106 -42.5t-82 -13.5q-98 0 -145.5 50.5t-47.5 128.5v26.5t4 26.5l17 94q23 117 108.5 177.5t216.5 60.5q49 0 94.5 -13.5t81 -41t57 -67.5t21.5 -95q0 -25 -6 -52l-63 -358 q-10 -55 -40 -99t-74 -75t-98.5 -46.5t-111.5 -15.5q-86 0 -154.5 26t-111.5 71zM356 1262q0 -35 20.5 -50.5t51.5 -15.5q35 0 75 14.5t87 36.5l18 103q2 8 2 22q0 47 -31.5 65.5t-66.5 18.5q-49 0 -90 -24.5t-51 -81.5l-13 -66q-2 -8 -2 -22z" />
<glyph unicode="&#x207a;" horiz-adv-x="688" d="M141 1051l23 127h250l41 221h139l-41 -221h250l-25 -127h-248l-41 -226h-139l39 226h-248z" />
<glyph unicode="&#x207b;" horiz-adv-x="542" d="M164 1006l26 143h433l-27 -143h-432z" />
<glyph unicode="&#x207c;" horiz-adv-x="688" d="M123 930l20 129h639l-22 -129h-637zM166 1171l22 127h639l-22 -127h-639z" />
<glyph unicode="&#x207d;" horiz-adv-x="411" d="M176 1026q0 94 31 182t83 168t118.5 150.5t138.5 132.5l94 -60q-72 -68 -126 -141.5t-91 -148t-55.5 -147t-18.5 -136.5q0 -98 28 -190.5t79 -171.5l-111 -70q-72 90 -121 199.5t-49 232.5z" />
<glyph unicode="&#x207e;" horiz-adv-x="403" d="M59 664q131 129 209 280.5t78 296.5q0 92 -27.5 185.5t-80.5 172.5l114 60q72 -86 120 -194.5t48 -233.5q0 -90 -31.5 -178t-84 -169t-121 -154t-142.5 -134z" />
<glyph unicode="&#x207f;" horiz-adv-x="724" d="M102 567l125 668h152v-51q84 41 135 51t84 10q113 0 162 -68.5t31 -175.5l-80 -434h-170l80 418q10 57 -13.5 82t-64.5 25q-72 0 -189 -68l-86 -457h-166z" />
<glyph unicode="&#x2080;" horiz-adv-x="667" d="M-8 41q0 12 1 24.5t3 24.5l63 336q23 113 91.5 179.5t209.5 66.5q123 0 199 -68.5t76 -173.5v-24.5t-4 -24.5l-58 -340q-23 -115 -102.5 -173t-202.5 -58q-49 0 -98 14t-89 43t-64.5 72t-24.5 102zM166 59q0 -57 38 -78.5t75 -21.5q41 0 80.5 24.5t50.5 84.5l57 321 q2 8 2 25q0 49 -34 77.5t-81 28.5q-41 0 -78.5 -25.5t-48.5 -84.5l-59 -322q-2 -8 -2 -15v-14z" />
<glyph unicode="&#x2081;" horiz-adv-x="583" d="M104 502l236 160h149l-163 -846h-168l125 639l-107 -70z" />
<glyph unicode="&#x2082;" horiz-adv-x="667" d="M-61 -184q4 29 9 59.5t11 61.5q12 72 55 126t98.5 96t117 76.5t112.5 66.5t85 65.5t34 74.5t-37 59.5t-84 18.5t-96 -17.5t-97 -47.5l-67 127q61 43 136 66.5t155 23.5q49 0 96 -9.5t85 -33t60.5 -62.5t22.5 -98q0 -57 -24.5 -102t-64.5 -83t-88 -70t-96 -62 q-31 -20 -65.5 -41t-65 -44.5t-54 -50t-36.5 -57.5h406q-8 -37 -14.5 -73t-12.5 -70h-581z" />
<glyph unicode="&#x2083;" horiz-adv-x="665" d="M-33 -106l103 126q35 -31 84 -47t90 -16q72 0 120 34t48 93q0 43 -29 67.5t-76 24.5h-114l26 141h117q18 0 41.5 7.5t45 20.5t37 34.5t15.5 52.5q0 47 -34.5 67.5t-84.5 20.5q-41 0 -95 -16.5t-101 -48.5l-66 127q72 47 143.5 67.5t153.5 20.5q49 0 96.5 -10.5t82 -35 t56 -63.5t21.5 -96q0 -72 -45 -136.5t-131 -82.5v-2q63 -25 87 -70t24 -92q0 -68 -29 -119t-77 -87t-108.5 -53.5t-121.5 -17.5q-84 0 -159 24t-120 65z" />
<glyph unicode="&#x2084;" horiz-adv-x="667" d="M-76 -63l25 124l416 601h178l-402 -582h197l45 231h170l-45 -231h76l-29 -143h-76l-24 -121h-170l24 121h-385z" />
<glyph unicode="&#x2085;" horiz-adv-x="667" d="M-25 -90l111 121q78 -72 170 -72q137 0 156 102l18 99q2 8 2 20q0 33 -19.5 48.5t-47.5 15.5q-18 0 -43 -6.5t-49.5 -16.5t-48 -21.5t-40.5 -19.5l-129 58l80 426h535l-29 -148h-365l-32 -164q47 23 90 36t72 13q106 0 151 -49t45 -129v-25.5t-4 -29.5l-20 -133 q-16 -106 -103.5 -167t-216.5 -61q-86 0 -160.5 30t-122.5 73z" />
<glyph unicode="&#x2086;" horiz-adv-x="667" d="M2 23v25t4 28l70 358q10 57 40.5 101.5t73.5 75t96.5 46t112.5 15.5q88 0 153.5 -27t111.5 -70l-105 -122q-39 35 -83 51t-89 16t-91 -27.5t-56 -84.5l-17 -91q59 29 105.5 42.5t81.5 13.5q98 0 146 -50.5t48 -127.5q0 -27 -6 -54l-16 -96q-20 -111 -105.5 -174.5 t-216.5 -63.5q-49 0 -95 13.5t-83 40t-58.5 66.5t-21.5 96zM174 41q0 -45 33 -63.5t67 -18.5q49 0 90.5 25.5t51.5 81.5l12 67q2 8 2 23q0 35 -20.5 50t-51.5 15q-35 0 -74.5 -15.5t-86.5 -37.5l-21 -102q-2 -8 -2 -25z" />
<glyph unicode="&#x2087;" horiz-adv-x="606" d="M-23 -184l453 700h-219l-23 -121h-163q14 66 26 132.5t25 134.5h579l-24 -127l-467 -719h-187z" />
<glyph unicode="&#x2088;" horiz-adv-x="667" d="M2 16q0 98 46 151.5t110 78.5q-39 16 -56.5 51t-17.5 78q0 76 29.5 131t78 92t107 54.5t115.5 17.5q47 0 90 -12.5t76.5 -38t54 -65.5t20.5 -93q0 -78 -37.5 -133.5t-105.5 -79.5q43 -18 63.5 -61.5t20.5 -90.5q0 -72 -30.5 -126t-79 -90t-108 -54.5t-116.5 -18.5 q-49 0 -95 12.5t-83 39t-59.5 65.5t-22.5 92zM178 43q0 -41 29 -62.5t74 -21.5q51 0 95 30.5t44 90.5q0 41 -27 63.5t-74 22.5q-51 0 -96 -32t-45 -91zM250 397q0 -39 28.5 -60.5t69.5 -21.5q49 0 93 33t44 86q0 41 -28.5 61.5t-67.5 20.5q-25 0 -49.5 -7t-44 -22.5 t-32.5 -37t-13 -52.5z" />
</font>
</defs>
</svg>
