<?xml version="1.0" standalone="no"?>
<!DOCTYPE svg PUBLIC "-//W3C//DTD SVG 1.1//EN" "http://www.w3.org/Graphics/SVG/1.1/DTD/svg11.dtd" >
<svg xmlns="http://www.w3.org/2000/svg">
<metadata></metadata>
<defs>
<font id="pf_dindisplay_proitalic" horiz-adv-x="3723" >
<font-face units-per-em="2048" ascent="1536" descent="-512" />
<missing-glyph horiz-adv-x="491" />
<glyph unicode="fj" horiz-adv-x="958" d="M-219 -416l31 160q18 -2 34.5 -3t32.5 -1q100 0 141 45t58 135l184 944h-131l31 154h131l29 149q14 72 35.5 131.5t59.5 102.5t97 67.5t148 24.5q27 0 55 -2t61 -6l-28 -164q-14 2 -27.5 2h-26.5q-57 0 -93 -11.5t-57.5 -34t-32.5 -56t-19 -78.5l-25 -125h473l-203 -1077 q-14 -72 -32.5 -131.5t-51 -102.5t-85 -66.5t-132.5 -23.5q-57 0 -127 12l31 160q55 -6 93 0t64.5 27.5t43 57.5t26.5 91l172 899h-303l-188 -968q-14 -74 -33.5 -133.5t-56.5 -101.5t-94.5 -64.5t-149.5 -22.5q-29 0 -62.5 2t-72.5 8zM809 1309q0 49 38 86t85 37 q39 0 63.5 -24t24.5 -60q0 -49 -40 -86t-87 -37q-35 0 -59.5 24.5t-24.5 59.5z" />
<glyph unicode="ffj" horiz-adv-x="1456" d="M-227 -432l30 160q18 -2 35 -3t33 -1q100 0 141 45t58 135l192 960h-131l31 154h131l22 108q14 72 36 131.5t60 102.5t97 67.5t147 24.5q29 0 63 -2t68 -8l-28 -162q-18 2 -34.5 2h-33.5q-57 0 -93 -11t-57.5 -34t-33.5 -56.5t-21 -78.5l-16 -84h307l29 149 q14 72 35.5 131.5t59.5 102.5t97.5 67.5t147.5 24.5q27 0 55.5 -2t61.5 -6l-29 -164q-14 2 -27.5 2h-25.5q-57 0 -93 -11.5t-57.5 -34t-33 -56t-19.5 -78.5l-25 -125h473l-198 -1055q-14 -72 -32.5 -131t-51.5 -102t-85 -66.5t-132 -23.5q-57 0 -127 12l30 160q55 -6 93.5 0 t65 27.5t43 57t26.5 91.5l168 876h-303l-187 -948q-14 -74 -33.5 -133t-56.5 -101t-94 -65t-150 -23q-29 0 -62.5 2.5t-72.5 8.5l31 159q18 -2 34.5 -3t33.5 -1q100 0 141 45t57 136l182 923h-307l-196 -985q-14 -74 -34 -133t-56.5 -101t-94 -64.5t-149.5 -22.5 q-29 0 -62.5 2t-72.5 8zM1292 1309q0 49 38 86t85 37q39 0 63.5 -24t24.5 -60q0 -49 -40 -86t-87 -37q-35 0 -59.5 24.5t-24.5 59.5z" />
<glyph unicode="ff" horiz-adv-x="1144" d="M-219 -410l31 160q18 -2 34.5 -3t32.5 -1q100 0 141 45t58 135l184 938h-131l31 154h131l20 106q14 72 36 131.5t59.5 102.5t97 67.5t147.5 24.5q29 0 63 -2t68 -8l-32 -162q-16 2 -33 2h-31q-57 0 -93 -11.5t-57.5 -34t-33.5 -56t-21 -78.5l-14 -82h334l28 149 q14 72 36 131.5t60 102.5t97 67.5t147 24.5q72 0 150 -14l-31 -160q-23 4 -44 4h-40q-57 0 -93 -11.5t-57.5 -34t-32.5 -56t-19 -78.5l-25 -125h238l-31 -154h-238l-172 -907q-14 -74 -33.5 -133.5t-56.5 -101t-94 -64.5t-150 -23q-29 0 -62.5 2.5t-72.5 8.5l31 159 q18 -2 34.5 -3t33.5 -1q100 0 141 45t57 136l168 882h-334l-188 -962q-14 -74 -33.5 -133.5t-56.5 -101.5t-94.5 -64.5t-149.5 -22.5q-29 0 -62.5 2t-72.5 8z" />
<glyph unicode="fi" horiz-adv-x="1005" d="M-219 -416l31 160q18 -2 34.5 -3t32.5 -1q100 0 141 45t58 135l184 944h-131l31 154h131l29 149q14 72 35.5 131.5t59.5 102.5t97 67.5t148 24.5q27 0 55 -2t61 -6l-28 -164q-14 2 -27.5 2h-26.5q-57 0 -93 -11.5t-57.5 -34t-32.5 -56t-19 -78.5l-25 -125h475l-137 -713 q-10 -49 -8 -77.5t13 -45t32.5 -23.5t52.5 -12l-33 -155h-22q-125 0 -184.5 68.5t-30.5 211.5l112 592h-301l-188 -968q-14 -74 -33.5 -133.5t-56.5 -101.5t-94.5 -64.5t-149.5 -22.5q-29 0 -62.5 2t-72.5 8zM811 1323q8 43 44 72.5t77 29.5q43 0 68.5 -29.5t17.5 -72.5 q-10 -43 -46 -73.5t-79 -30.5q-41 0 -66.5 30.5t-15.5 73.5z" />
<glyph unicode="fl" horiz-adv-x="1046" d="M-219 -410l31 160q18 -2 34.5 -3t32.5 -1q100 0 141 45t58 135l184 938h-131l31 156h131l31 162q18 96 58 159.5t94 100.5t123 52t146 15q41 0 116 -9t190 -38l-226 -1192q-8 -37 -4 -60.5t20.5 -35.5t46.5 -16t75 -6l-31 -160h-60q-150 0 -199.5 64.5t-25.5 191.5 l211 1085q-35 10 -74 14.5t-79 4.5q-174 0 -205 -166l-33 -166h233l-30 -156h-232l-188 -962q-14 -74 -33.5 -133.5t-56.5 -101.5t-94.5 -64.5t-149.5 -22.5q-29 0 -62.5 2t-72.5 8z" />
<glyph unicode="ffi" horiz-adv-x="1488" d="M-221 -416l31 160q18 -2 34.5 -3t32.5 -1q100 0 141 45t58 135l186 944h-131l31 154h131l20 106q14 72 36 131.5t59.5 102.5t97 67.5t147.5 24.5q29 0 63 -2t68 -8l-32 -162q-16 2 -33 2h-31q-57 0 -93 -11.5t-57.5 -34t-33.5 -56t-21 -78.5l-14 -82h307l29 149 q14 72 35.5 131.5t59.5 102.5t97.5 67.5t147.5 24.5q27 0 55.5 -2t61.5 -6l-29 -164q-14 2 -27.5 2h-25.5q-57 0 -93 -11.5t-57.5 -34t-33 -56t-19.5 -78.5l-25 -125h475l-137 -713q-10 -49 -8 -77.5t13.5 -45t33 -23.5t51.5 -12l-32 -155h-23q-125 0 -184.5 68.5 t-30.5 211.5l113 592h-301l-179 -909q-14 -74 -33.5 -133.5t-56.5 -101.5t-94 -64.5t-149 -22.5q-29 0 -63 2.5t-73 8.5l31 159q18 -2 34.5 -3t33.5 -1q100 0 141 45t57 136l174 884h-307l-190 -968q-14 -74 -33.5 -133.5t-56.5 -101.5t-94.5 -64.5t-149.5 -22.5 q-29 0 -62.5 2t-72.5 8zM1292 1300v11q0 25 10.5 46t28 37.5t40 27t44.5 10.5q39 0 63.5 -24t24.5 -60v-13q0 -4 -1 -6t-1 -6q-10 -43 -46 -73.5t-79 -30.5q-37 0 -60.5 23.5t-23.5 57.5z" />
<glyph unicode="ffl" horiz-adv-x="1581" d="M-219 -410l31 160q18 -2 34.5 -3t32.5 -1q100 0 141 45t58 135l184 938h-131l31 154h131l20 106q14 72 36 131.5t59.5 102.5t97 67.5t147.5 24.5q29 0 63 -2t68 -8l-32 -162q-16 2 -33 2h-31q-57 0 -93 -11.5t-57.5 -34t-33.5 -56t-21 -78.5l-14 -82l328 2l30 162 q18 96 58.5 159.5t94.5 100.5t122.5 52t146.5 15q41 0 116 -9t189 -38l-225 -1192q-8 -37 -4 -60.5t20.5 -35.5t46 -16t74.5 -6l-30 -160h-60q-150 0 -200 64.5t-25 191.5l211 1085q-35 10 -74 14.5t-80 4.5q-174 0 -204 -166l-33 -166h233l-30 -156h-232l-176 -905 q-14 -74 -33.5 -133t-56.5 -101t-94.5 -64.5t-149.5 -22.5q-29 0 -62.5 2t-72.5 8l31 159q18 -2 34.5 -3t32.5 -1q100 0 141.5 45.5t57.5 135.5l172 880h-328l-188 -962q-14 -74 -33.5 -133.5t-56.5 -101.5t-94.5 -64.5t-149.5 -22.5q-29 0 -62.5 2t-72.5 8z" />
<glyph unicode="ft" horiz-adv-x="1183" d="M-219 -410l31 160q18 -2 34.5 -3t32.5 -1q100 0 141 45t58 135l184 938h-131l31 154h131l29 149q14 72 35.5 131.5t59.5 102.5t97 67.5t148 24.5q72 0 149 -14l-31 -160q-23 4 -44 4h-40q-57 0 -93 -11.5t-57.5 -34t-32.5 -56t-19 -78.5l-25 -125h313l86 233h129 l-45 -233h265l-29 -156h-264l-99 -500q-4 -29 -7 -51t-3 -41q0 -63 29.5 -85.5t89.5 -22.5q33 0 75 5t93 11l8 -158q-63 -20 -129 -25t-96 -5q-131 0 -192.5 53t-61.5 166q0 49 12 115l109 538l-314 2l-188 -962q-14 -74 -33.5 -133.5t-56.5 -101.5t-94.5 -64.5 t-149.5 -22.5q-29 0 -62.5 2t-72.5 8z" />
<glyph unicode=" "  horiz-adv-x="491" />
<glyph unicode="&#x09;" horiz-adv-x="491" />
<glyph unicode="&#xa0;" horiz-adv-x="491" />
<glyph unicode="!" horiz-adv-x="485" d="M59 82q0 25 9.5 50.5t27 47t44 35.5t61.5 14q53 0 78.5 -28.5t25.5 -65.5q0 -59 -42 -102t-107 -43q-47 0 -72 25.5t-25 66.5zM158 387l188 1038h182l-217 -1038h-153z" />
<glyph unicode="&#x22;" horiz-adv-x="626" d="M236 1042l73 383h142l-74 -383h-141zM485 1042l74 383h141l-73 -383h-142z" />
<glyph unicode="#" horiz-adv-x="1056" d="M37 436l26 133h203l99 293h-187l25 131h205l145 430h141l-141 -430h231l144 430h143l-141 -430h192l-26 -131h-211l-97 -293h193l-25 -133h-211l-145 -436h-149l145 436h-227l-144 -436h-151l147 436h-184zM414 569h227l98 293h-229z" />
<glyph unicode="$" horiz-adv-x="1024" d="M-37 164l115 129q72 -63 163 -97t189 -34q145 0 232.5 62.5t87.5 189.5q0 63 -24 100t-60.5 59.5t-82.5 33.5t-94 24q-59 14 -117.5 39.5t-105.5 65.5t-76.5 99.5t-29.5 143.5q0 98 34.5 174t96 130t142.5 86t173 42l33 170h123l-37 -168q92 -4 177 -29.5t159 -78.5 l-92 -144q-72 51 -157 70.5t-171 19.5q-47 0 -100.5 -16t-97.5 -48t-73.5 -80t-29.5 -112q0 -51 22.5 -84.5t58.5 -56.5t78 -36t83 -23q57 -14 120.5 -36t116.5 -61t88 -101.5t35 -160.5t-37 -176t-101.5 -133t-149.5 -88t-183 -41l-39 -199h-123l39 199q-111 8 -210 47 t-175 119z" />
<glyph unicode="%" horiz-adv-x="1613" d="M135 791q0 10 1 23t3 26l64 336q10 55 29.5 100t53 79t86 52t126.5 18q66 0 117 -19.5t85.5 -53t53 -77.5t18.5 -91v-24.5t-4 -24.5l-57 -347q-20 -111 -100.5 -170t-200.5 -59q-49 0 -98.5 14.5t-88.5 44t-63.5 72.5t-24.5 101zM211 -35l1161 1495h137l-1163 -1495h-135 zM289 809q0 -35 12 -57.5t30.5 -36t41 -19.5t43.5 -6q47 0 93 26.5t60 96.5l56 330q4 20 4 31q0 55 -40 86.5t-97 31.5q-43 0 -86.5 -26.5t-55.5 -96.5l-59 -327q-2 -10 -2 -17.5v-15.5zM920 225q0 10 1 23.5t3 25.5l63 336q10 55 29.5 100.5t53.5 79t86 52t126 18.5 q66 0 117 -19.5t86 -53t53 -77.5t18 -92v-24t-4 -25l-57 -346q-20 -111 -100 -170t-201 -59q-49 0 -98 14.5t-88 44t-63.5 72.5t-24.5 100zM1073 244q0 -35 12.5 -57.5t31 -36t41 -19.5t42.5 -6q47 0 93 26.5t61 96.5l55 330q4 20 4 30q0 55 -40 87t-97 32q-43 0 -86 -26.5 t-55 -96.5l-60 -328q-2 -10 -2 -17v-15z" />
<glyph unicode="&#x26;" horiz-adv-x="1665" d="M242 887q0 172 65.5 312t177 240.5t261 155t317.5 54.5q150 0 266.5 -51.5t194.5 -137.5t118.5 -199.5t40.5 -236.5t-30.5 -234.5t-86 -211t-131 -186.5t-165.5 -161q59 -70 126.5 -123t145.5 -88l-86 -126q-84 39 -170 106.5t-145 138.5q-104 -70 -232.5 -111.5 t-251.5 -41.5q-164 0 -259 80.5t-95 236.5q0 90 32 167t88 142.5t135 122t173 103.5q-33 63 -47 119.5t-14 97.5q0 76 26.5 139t73.5 110.5t111.5 74t138.5 26.5q117 0 185.5 -63.5t68.5 -159.5q0 -70 -25.5 -127.5t-72 -105.5t-107.5 -90t-133 -81q49 -104 114.5 -220 t141.5 -226q76 63 140.5 135t111.5 153.5t73.5 175t26.5 201.5q0 94 -24.5 187.5t-81 167t-148.5 120t-227 46.5q-152 0 -276.5 -46.5t-214 -128t-137.5 -195.5t-48 -251q0 -53 6 -104l-143 -31q-4 33 -6 64.5t-2 60.5zM457 330q0 -104 66.5 -155.5t164.5 -51.5 q86 0 182.5 30t192.5 89q-82 111 -151.5 239.5t-116.5 231.5q-74 -35 -135.5 -74t-106.5 -85t-70.5 -101.5t-25.5 -122.5zM829 1075q0 -39 14.5 -80t37.5 -88q47 23 90 48.5t74.5 55t51 64.5t19.5 78q0 51 -35 82t-88 31q-43 0 -74.5 -20.5t-51 -50.5t-29 -62.5t-9.5 -57.5z " />
<glyph unicode="'" horiz-adv-x="526" d="M319 1042l76 383h142l-76 -383h-142z" />
<glyph unicode="(" horiz-adv-x="581" d="M123 430q0 156 45 304.5t122 283.5t178 255t212 222l80 -57q-96 -104 -180 -225t-145.5 -253.5t-96.5 -273.5t-35 -287q0 -150 36 -298t107 -281l-98 -66q-104 147 -164.5 320.5t-60.5 355.5z" />
<glyph unicode=")" horiz-adv-x="581" d="M-117 -180q96 102 180 223t145.5 254t97.5 274.5t36 284.5q0 150 -37 299.5t-108 282.5l102 57q104 -147 162.5 -315t58.5 -349q0 -160 -46 -309t-123 -285.5t-180 -258t-216 -224.5z" />
<glyph unicode="*" horiz-adv-x="739" d="M199 1151l63 133l209 -96l29 246h139l-70 -246q59 23 123 47.5t123 48.5l14 -135l-245 -59l123 -185q-33 -23 -65 -44t-67 -44l-86 213q-41 -53 -85 -107.5t-85 -107.5q-23 23 -49 44.5t-49 43.5l197 187q-53 14 -109.5 30.5t-109.5 30.5z" />
<glyph unicode="+" horiz-adv-x="1024" d="M80 537l26 131h388l75 389h131l-75 -389h385l-27 -131h-385l-76 -394h-131l76 394h-387z" />
<glyph unicode="," horiz-adv-x="512" d="M-4 -193q53 35 90 77t53 104q-35 4 -53 28.5t-18 61.5q0 25 9 51.5t26.5 48t44 34.5t61.5 13q63 0 90 -36.5t27 -84.5q0 -61 -27 -120.5t-68 -109.5t-91 -88t-97 -58z" />
<glyph unicode="-" horiz-adv-x="802" d="M115 471l30 154h590l-30 -154h-590z" />
<glyph unicode="." horiz-adv-x="448" d="M45 82q0 25 9 50.5t26.5 47t44 35.5t61.5 14q53 0 79 -28.5t26 -65.5q0 -59 -42 -102t-108 -43q-47 0 -71.5 25.5t-24.5 66.5z" />
<glyph unicode="/" horiz-adv-x="649" d="M-100 -86l817 1571h133l-819 -1571h-131z" />
<glyph unicode="0" horiz-adv-x="1024" d="M76 352q0 63 14 133l121 559q39 174 152.5 277.5t312.5 103.5q70 0 138.5 -20.5t122.5 -62.5t88 -107.5t34 -155.5q0 -23 -3 -46t-7 -48l-113 -602q-18 -104 -62.5 -178t-108 -122t-142 -70.5t-166.5 -22.5q-68 0 -136.5 20.5t-123 63.5t-88 111.5t-33.5 166.5zM254 354 q0 -55 20.5 -94t52 -62.5t69.5 -33.5t75 -10q102 0 181 54t106 189l121 615q6 27 6 53q0 53 -21.5 90t-54.5 59.5t-73 32.5t-77 10q-104 0 -181 -64.5t-105 -201.5l-113 -573q-6 -35 -6 -64z" />
<glyph unicode="1" horiz-adv-x="1024" d="M358 1165l344 246h166l-272 -1411h-176l231 1194l-223 -158z" />
<glyph unicode="2" horiz-adv-x="1024" d="M4 0l31 166q16 86 60 160.5t105.5 139t136.5 119t152 101.5q70 39 138.5 83t124 93t90.5 103.5t35 115.5q0 47 -19.5 80t-51.5 54.5t-74 31.5t-87 10q-86 0 -165 -29.5t-144 -76.5l-76 137q82 59 190.5 98t227.5 39q70 0 139.5 -17t124.5 -55t90 -98.5t35 -148.5 q0 -100 -48 -180t-120 -145.5t-154.5 -119t-152.5 -96.5q-43 -29 -101.5 -65.5t-113.5 -85.5t-100.5 -112.5t-59.5 -143.5h664l-29 -158h-848z" />
<glyph unicode="3" horiz-adv-x="1024" d="M-16 127l125 139q47 -47 119.5 -80.5t148.5 -33.5q170 0 250 80.5t80 222.5q0 90 -56.5 140t-146.5 50h-144l31 158h148q43 0 93 19.5t93 54t71.5 86t28.5 114.5q0 53 -22.5 88t-57 55.5t-75.5 28.5t-78 8q-76 0 -156 -34.5t-145 -81.5l-92 139q78 57 186.5 100t237.5 43 q76 0 146.5 -16t122.5 -53t84 -96.5t32 -145.5q0 -61 -19.5 -121.5t-55.5 -113t-84 -93.5t-106 -67q72 -29 109 -96.5t37 -153.5q0 -119 -40 -209t-109.5 -150.5t-164 -91t-200.5 -30.5q-129 0 -233.5 42t-157.5 99z" />
<glyph unicode="4" horiz-adv-x="1024" d="M12 217l29 152l672 1042h188l-659 -1034h415l82 422h181l-82 -422h120l-30 -160h-121l-39 -217h-182l41 217h-615z" />
<glyph unicode="5" horiz-adv-x="1024" d="M39 133l111 141q63 -59 142 -88.5t159 -29.5q51 0 99 12t87 38.5t65.5 71t38.5 109.5l33 182q6 31 6 58q0 72 -39 107.5t-108 35.5q-33 0 -75 -11t-85 -27.5t-84 -39t-72 -43.5l-153 66l135 696h778l-30 -166h-596l-78 -401q98 53 176 79.5t137 26.5q135 0 209 -72.5 t74 -195.5q0 -23 -3 -45.5t-8 -46.5l-34 -228q-39 -201 -163 -286.5t-317 -85.5q-133 0 -239.5 45t-165.5 98z" />
<glyph unicode="6" horiz-adv-x="1024" d="M78 315q0 18 2 37t6 39l125 660q35 178 158 276t321 98q133 0 227.5 -42t149.5 -101l-123 -143q-106 117 -264 116q-45 0 -92 -12t-88 -40.5t-72 -75t-43 -113.5l-45 -232q115 55 201 85t147 30q135 0 206 -73.5t71 -196.5q0 -23 -3.5 -45.5t-7.5 -46.5l-32 -173 q-37 -193 -161 -282.5t-315 -89.5q-70 0 -136 21.5t-117.5 62.5t-83 101.5t-31.5 139.5zM258 342q0 -49 18.5 -85t48 -58.5t65.5 -32.5t73 -10q111 0 184.5 56t100.5 185l24 121q6 33 6 60q0 76 -42 110.5t-107 34.5q-72 0 -152 -36t-172 -81l-41 -209q-6 -29 -6 -55z" />
<glyph unicode="7" horiz-adv-x="1024" d="M141 0l750 1247h-469l-41 -211h-170l72 375h839l-30 -158l-758 -1253h-193z" />
<glyph unicode="8" horiz-adv-x="1024" d="M61 319q0 76 22.5 140.5t59.5 115t85 87t100 57.5q-57 35 -91 98.5t-34 136.5q0 121 42 209t108.5 146.5t150.5 86t170 27.5q72 0 138.5 -20.5t118.5 -62.5t84 -105.5t32 -149.5q0 -129 -55.5 -225t-166.5 -143q72 -31 106 -100.5t34 -149.5q0 -123 -47.5 -213 t-122 -149.5t-166.5 -88t-180 -28.5q-82 0 -153 20.5t-123 61.5t-82 103.5t-30 145.5zM250 334q0 -86 58.5 -132t152.5 -46q55 0 110.5 19.5t99.5 55t70.5 89t26.5 120.5q0 86 -59.5 135.5t-151.5 49.5q-57 0 -112.5 -20.5t-98.5 -58.5t-69.5 -92.5t-26.5 -119.5zM385 985 q0 -90 56.5 -140t142.5 -50q51 0 102 19.5t92 54t66.5 82.5t25.5 108q0 98 -59 149.5t-141 51.5q-51 0 -102.5 -16.5t-91.5 -50.5t-65.5 -86t-25.5 -122z" />
<glyph unicode="9" horiz-adv-x="1024" d="M41 133l125 137q59 -53 121.5 -81.5t140.5 -28.5q49 0 98 12t89 41t71 75t43 113l45 238q-113 -53 -199 -83t-147 -30q-133 0 -204.5 73t-71.5 196q0 23 3 46t7 48l31 164q35 178 163.5 275t307.5 97q72 0 140 -20.5t121.5 -59t86 -96t32.5 -131.5q0 -29 -6 -61 l-135 -695q-39 -199 -158.5 -285.5t-316.5 -86.5q-135 0 -228.5 42t-158.5 101zM336 848q0 -78 43 -113t108 -35q72 0 151 36t171 79l39 203q6 31 6 57q0 49 -18.5 84t-47 56.5t-64.5 31.5t-73 10q-98 0 -179 -55t-107 -184l-23 -113q-6 -31 -6 -57z" />
<glyph unicode=":" horiz-adv-x="512" d="M70 82q0 25 9 50.5t26.5 47t44 35.5t61.5 14q53 0 78.5 -28.5t25.5 -65.5q0 -59 -42 -102t-107 -43q-47 0 -71.5 25.5t-24.5 66.5zM188 700q0 25 9.5 51.5t28 48t45 36t61.5 14.5q53 0 78.5 -28.5t25.5 -65.5q0 -59 -43 -102.5t-108 -43.5q-47 0 -72 24.5t-25 65.5z" />
<glyph unicode=";" horiz-adv-x="512" d="M-12 -193q53 35 90 77t53 104q-35 4 -53.5 28.5t-18.5 61.5q0 25 10.5 51.5t29 48t46 34.5t62.5 13q63 0 86.5 -36.5t23.5 -84.5q0 -61 -26.5 -120.5t-67.5 -109.5t-91 -88t-97 -58zM188 700q0 25 9.5 51.5t28 48t45 36t61.5 14.5q53 0 78.5 -28.5t25.5 -65.5 q0 -59 -43 -102.5t-108 -43.5q-47 0 -72 24.5t-25 65.5z" />
<glyph unicode="&#x3c;" horiz-adv-x="1024" d="M111 543l24 123l914 415l-29 -153l-731 -332l604 -330l-29 -137z" />
<glyph unicode="=" horiz-adv-x="1024" d="M43 338l27 137h903l-27 -137h-903zM119 731l26 137h904l-27 -137h-903z" />
<glyph unicode="&#x3e;" horiz-adv-x="1024" d="M70 129l28 152l731 329l-604 332l29 139l754 -415l-25 -123z" />
<glyph unicode="?" horiz-adv-x="940" d="M227 1309q102 68 200 96.5t204 28.5q74 0 136 -22.5t106.5 -62.5t69 -95.5t24.5 -123.5q0 -53 -17.5 -99t-45 -88t-63.5 -82t-73 -79q-70 -72 -130 -143.5t-77 -157.5l-18 -92h-176l18 86q14 63 41 118.5t60.5 102.5t72.5 90t76 82q59 61 100 118.5t41 121.5 q0 76 -49 119t-135 43q-78 0 -158 -30t-141 -75zM287 82q0 25 9 50.5t26.5 47t44 35.5t61.5 14q53 0 78.5 -28.5t25.5 -65.5q0 -59 -41.5 -102t-107.5 -43q-47 0 -71.5 25.5t-24.5 66.5z" />
<glyph unicode="@" horiz-adv-x="1703" d="M141 612q0 182 63.5 341t182.5 278t286 186.5t374 67.5q160 0 283.5 -46t208.5 -126t130 -189.5t45 -236.5q0 -139 -32.5 -248t-89 -183.5t-134.5 -113.5t-168 -39q-33 0 -66.5 8t-63.5 23.5t-52.5 40t-30.5 59.5q-72 -35 -152.5 -67.5t-150.5 -32.5q-102 0 -164.5 55 t-62.5 160q0 16 2 34.5t6 39.5l43 247q25 139 106 215t216 76q43 0 98 -21.5t147 -74.5l39 86h117l-113 -580q-2 -8 -2 -16v-18q0 -43 23.5 -77t89.5 -34q45 0 91 27.5t85 84t63.5 140.5t24.5 194q0 104 -38 195.5t-108.5 157t-171 103.5t-223.5 38q-172 0 -314 -59.5 t-242.5 -161t-156 -236.5t-55.5 -286q0 -115 32 -209.5t96.5 -162t164 -105t234.5 -37.5q59 0 125.5 12t146.5 43l31 -125q-90 -35 -170 -46t-158 -11q-150 0 -267.5 46t-199.5 130t-125 199.5t-43 254.5zM692 584q0 -61 32 -88t81 -27q51 0 118.5 28.5t143.5 67.5l72 369 q-53 37 -117 67.5t-109 30.5q-66 0 -112.5 -42t-65.5 -136l-37 -215q-6 -31 -6 -55z" />
<glyph unicode="A" horiz-adv-x="1222" d="M-55 0l757 1411h189l219 -1411h-190l-50 317h-557l-168 -317h-200zM408 489h436l-47 336l-41 328h-8l-164 -328z" />
<glyph unicode="B" horiz-adv-x="1214" d="M35 0l274 1411h565q94 0 162 -27.5t112 -75.5t64.5 -110.5t20.5 -130.5q0 -104 -56.5 -191.5t-183.5 -150.5q80 -45 107.5 -117.5t27.5 -154.5q0 -86 -30.5 -168t-91 -145.5t-146.5 -101.5t-196 -38h-629zM258 170h369q63 0 119.5 17.5t99.5 51t67.5 84t24.5 113.5 q0 98 -60.5 149.5t-150.5 51.5h-377zM383 809h375q53 0 103 18.5t89 50t62.5 75.5t23.5 96q0 98 -59 144t-152 46h-358z" />
<glyph unicode="C" horiz-adv-x="1093" d="M111 377q0 23 3 47.5t7 48.5l96 492q41 213 174 336.5t383 123.5q117 0 224.5 -34.5t185.5 -100.5l-121 -145q-23 23 -58.5 43t-76.5 35.5t-85 23.5t-83 8q-143 0 -234.5 -76.5t-126.5 -252.5l-88 -430q-4 -23 -6 -44.5t-2 -39.5q0 -66 22.5 -113t61.5 -78t91 -46 t114 -15q80 0 175 27.5t169 80.5l78 -155q-37 -27 -86 -49.5t-107.5 -40t-121 -27.5t-124.5 -10q-94 0 -179 26.5t-148.5 76.5t-100 123t-36.5 165z" />
<glyph unicode="D" horiz-adv-x="1239" d="M37 0l274 1411h504q94 0 172 -24.5t133.5 -71.5t86 -113.5t30.5 -152.5q0 -41 -10 -99l-90 -491q-23 -109 -58 -194t-93 -144.5t-145 -90t-210 -30.5h-594zM258 168h365q55 0 107 15.5t95 52t76 98t51 155.5l82 429q4 25 7 46t3 42q0 63 -21.5 108t-58 72.5t-88 40 t-112.5 12.5h-297z" />
<glyph unicode="E" horiz-adv-x="1140" d="M43 0l274 1411h922l-33 -172h-733l-86 -448h643l-33 -170h-645l-88 -451h795l-33 -170h-983z" />
<glyph unicode="F" horiz-adv-x="1095" d="M43 0l274 1411h922l-33 -172h-733l-86 -446h645l-35 -172h-645l-121 -621h-188z" />
<glyph unicode="G" horiz-adv-x="1187" d="M117 389q0 45 10 103l90 473q41 215 189.5 337.5t390.5 122.5q117 0 225 -30.5t176 -96.5l-115 -147q-47 45 -130 72.5t-162 27.5q-72 0 -135.5 -18.5t-115 -57t-88 -100t-53.5 -149.5l-86 -441q-4 -20 -6 -38.5t-2 -36.5q0 -66 24.5 -113t62.5 -78t87 -45t99 -14 q47 0 117.5 13t156.5 71l63 329h-225l33 170h412l-111 -585q-100 -96 -221 -134t-238 -38q-92 0 -173 26.5t-142.5 78.5t-97 127t-35.5 171z" />
<glyph unicode="H" horiz-adv-x="1247" d="M29 0l274 1411h189l-119 -610h661l119 610h193l-275 -1411h-192l122 629h-661l-123 -629h-188z" />
<glyph unicode="I" horiz-adv-x="516" d="M82 0l274 1411h189l-275 -1411h-188z" />
<glyph unicode="J" horiz-adv-x="1067" d="M-18 102l102 142q33 -25 74 -40.5t84 -25.5t84 -14t71 -4q61 0 113.5 16.5t94.5 55t73 103t49 161.5l178 915h189l-187 -956q-20 -109 -61 -196t-104.5 -147.5t-151.5 -93t-203 -32.5q-47 0 -104.5 7t-113.5 22.5t-105.5 37t-81.5 49.5z" />
<glyph unicode="K" horiz-adv-x="1208" d="M35 0l274 1411h189l-144 -745l756 745h227l-563 -557l336 -854h-197l-276 715l-336 -324l-76 -391h-190z" />
<glyph unicode="L" horiz-adv-x="1095" d="M53 0l275 1411h188l-242 -1241h754l-33 -170h-942z" />
<glyph unicode="M" horiz-adv-x="1519" d="M37 0l268 1411h170l172 -575l103 -375h12l246 375l387 575h182l-268 -1411h-189l187 961h-11l-180 -273l-330 -479h-139l-139 440l-90 312h-10l-185 -961h-186z" />
<glyph unicode="N" horiz-adv-x="1320" d="M39 0l268 1411h178l357 -788l129 -293h14l205 1081h186l-268 -1411h-182l-346 762l-138 309h-14l-203 -1071h-186z" />
<glyph unicode="O" horiz-adv-x="1249" d="M115 412q0 55 12 114l86 439q41 213 177 336.5t386 123.5q104 0 191.5 -31.5t150 -88t97 -133t34.5 -166.5q0 -47 -8 -88l-88 -472q-41 -211 -182.5 -335.5t-390.5 -124.5q-94 0 -178.5 28.5t-148 83t-101 133t-37.5 181.5zM307 418q0 -68 21.5 -116t58.5 -80t86 -47 t105 -15q176 0 270 91t129 263l76 387q4 20 6 40t2 36q0 68 -24.5 119t-65.5 86t-93.5 52t-109.5 17q-147 0 -243.5 -76.5t-129.5 -248.5l-80 -418q-4 -25 -6 -46.5t-2 -43.5z" />
<glyph unicode="P" horiz-adv-x="1134" d="M29 0l274 1411h553q88 0 154.5 -31.5t110.5 -84t65.5 -119t21.5 -138.5q0 -82 -32.5 -166t-93 -151.5t-147.5 -110.5t-196 -43h-411l-111 -567h-188zM362 741h357q59 0 114.5 20.5t97.5 58.5t66.5 90.5t24.5 113.5q0 100 -59.5 157.5t-161.5 57.5h-342z" />
<glyph unicode="Q" horiz-adv-x="1286" d="M115 412q0 53 12 114l86 439q41 213 177 336.5t386 123.5q104 0 191.5 -31.5t150 -88t97 -133t34.5 -166.5q0 -47 -8 -88l-88 -472q-20 -104 -64.5 -188t-113 -143.5t-163.5 -93t-216 -35.5l-6 -33q-4 -25 -7 -44.5t-3 -35.5q0 -53 36.5 -67.5t133.5 -14.5l-29 -149 q-43 -6 -78 -7q-127 0 -185.5 53.5t-58.5 143.5q0 29 7 64l22 108q-68 18 -125 54t-99 88.5t-65.5 119t-23.5 146.5zM305 410q0 -131 75 -190.5t198 -59.5q94 0 161.5 23.5t114.5 68.5t77 110.5t46 151.5l76 387q4 20 6 40t2 36q0 68 -24.5 119t-65.5 86t-93.5 52t-109.5 17 q-156 0 -248 -76.5t-125 -248.5l-80 -418q-4 -29 -7 -52.5t-3 -45.5z" />
<glyph unicode="R" horiz-adv-x="1171" d="M35 0l274 1411h578q86 0 148.5 -29.5t104.5 -80t61.5 -115t19.5 -131.5q0 -66 -18.5 -132.5t-58.5 -126t-103.5 -110.5t-151.5 -84l147 -602h-207l-122 567h-373l-111 -567h-188zM369 741h356q61 0 116.5 20.5t96.5 59.5t65.5 92.5t24.5 120.5q0 96 -53 150.5t-154 54.5 h-356z" />
<glyph unicode="S" horiz-adv-x="1138" d="M23 168q29 31 56 64.5t56 64.5q72 -63 170 -100t215 -37q76 0 141.5 19.5t114.5 54t78 86t29 114.5q0 51 -27 86t-65.5 57.5t-83.5 35t-82 18.5q-76 14 -151 36.5t-133 62.5t-94 101.5t-36 151.5q0 98 37 181t104.5 144.5t162.5 95.5t214 34t230.5 -32t195.5 -89 l-100 -150q-68 47 -157 73t-183 26q-49 0 -104.5 -16.5t-101.5 -49.5t-77 -82t-31 -117q0 -53 29 -87.5t67 -56t77.5 -32t64.5 -16.5q86 -18 166 -42t142.5 -62.5t100 -102t37.5 -162.5q0 -106 -47 -190t-127 -142.5t-184 -89t-219 -30.5q-150 0 -272.5 46t-212.5 134z" />
<glyph unicode="T" horiz-adv-x="1069" d="M193 1237l32 174h1004l-33 -174h-408l-239 -1237h-191l240 1237h-405z" />
<glyph unicode="U" horiz-adv-x="1249" d="M111 381q0 27 2 53.5t8 54.5l178 922h190l-180 -930q-4 -20 -6 -38.5t-2 -34.5q0 -68 24.5 -115t64.5 -77t89 -44t96 -14q70 0 133.5 18.5t117 57t91 100t54.5 147.5l180 930h190l-188 -965q-23 -109 -74 -194.5t-128 -145t-175 -90t-213 -30.5q-90 0 -172 24.5 t-144.5 73.5t-99 124t-36.5 173z" />
<glyph unicode="V" horiz-adv-x="1157" d="M209 1411h201l79 -661l46 -459h12l235 483l322 637h209l-721 -1411h-203z" />
<glyph unicode="W" horiz-adv-x="1765" d="M209 1411h197l34 -649l19 -467h10l203 469l284 647h207l39 -668l21 -448h10l194 455l289 661h199l-639 -1411h-211l-43 639l-18 434h-13l-190 -442l-283 -631h-211z" />
<glyph unicode="X" horiz-adv-x="1126" d="M-63 0l571 723l-272 688h210l193 -532l397 532h224l-539 -688l297 -723h-211l-215 569l-432 -569h-223z" />
<glyph unicode="Y" horiz-adv-x="1099" d="M213 1411h197l104 -391l74 -281h10l219 336l223 336h211l-589 -868l-105 -543h-188l104 541z" />
<glyph unicode="Z" horiz-adv-x="1071" d="M-6 0l33 166l905 1073h-668l33 172h893l-31 -162l-911 -1079h700l-33 -170h-921z" />
<glyph unicode="[" horiz-adv-x="524" d="M23 -215l319 1645h340l-23 -115h-188l-274 -1415h188l-23 -115h-339z" />
<glyph unicode="\" horiz-adv-x="649" d="M203 1485h133l209 -1571h-133z" />
<glyph unicode="]" horiz-adv-x="524" d="M-70 -215l23 115h186l275 1415h-187l23 115h338l-320 -1645h-338z" />
<glyph unicode="^" horiz-adv-x="1024" d="M94 672l561 751h123l269 -751h-140l-215 600l-446 -600h-152z" />
<glyph unicode="_" horiz-adv-x="1003" d="M-133 -264l24 123h1004l-25 -123h-1003z" />
<glyph unicode="`" horiz-adv-x="1005" d="M428 1468l139 62l240 -348l-78 -47z" />
<glyph unicode="a" horiz-adv-x="1026" d="M68 260q0 23 3 45.5t7 46.5l61 312q35 174 129 268t269 94q27 0 57.5 -3t68 -14.5t84 -32t103.5 -52.5l41 90h153l-198 -1014h-154v102q-72 -33 -124 -54t-92 -34.5t-70.5 -18.5t-57.5 -5q-129 0 -204.5 70.5t-75.5 199.5zM250 303q0 -76 40 -108.5t103 -32.5t151.5 35.5 t182.5 83.5l88 477q-59 47 -132 73.5t-148 26.5q-82 0 -141.5 -49t-82.5 -166l-53 -268q-4 -20 -6 -38t-2 -34z" />
<glyph unicode="b" horiz-adv-x="1026" d="M33 104l264 1362h176l-106 -557q125 70 206.5 93.5t135.5 23.5q141 0 210.5 -66.5t69.5 -191.5q0 -25 -2 -50.5t-8 -53.5l-55 -287q-41 -207 -158 -297t-305 -90q-33 0 -83 6t-109.5 20.5t-121 36t-114.5 51.5zM229 211q68 -35 130.5 -49.5t121.5 -14.5q113 0 179.5 62.5 t89.5 179.5l51 256q6 37 6 66q0 82 -42 114.5t-103 32.5q-63 0 -151.5 -35t-178.5 -90z" />
<glyph unicode="c" horiz-adv-x="872" d="M84 307q0 45 8 84l51 273q33 174 142.5 268t289.5 94q88 0 180.5 -28.5t147.5 -104.5l-110 -123q-47 57 -107.5 75.5t-105.5 18.5q-100 0 -172 -56t-97 -185l-45 -230q-6 -31 -6 -57q0 -49 18.5 -84t47 -56.5t65.5 -31.5t74 -10q47 0 111.5 18t121.5 66l101 -134 q-78 -66 -172.5 -90t-182.5 -24q-70 0 -134 19.5t-114.5 58t-81 98t-30.5 141.5z" />
<glyph unicode="d" horiz-adv-x="1026" d="M72 256q0 23 3 46.5t7 49.5l59 312q16 86 58.5 153.5t99.5 113.5t127 70.5t143 24.5q55 0 127 -12.5t166 -44.5l96 497h175l-285 -1466h-154v106q-127 -74 -207.5 -95t-136.5 -21q-129 0 -203.5 67.5t-74.5 198.5zM254 299q0 -76 39 -108.5t106 -32.5q59 0 151.5 31.5 t178.5 86.5l100 521q-76 29 -144.5 46t-131.5 17q-80 0 -148.5 -49t-91.5 -168l-53 -281q-6 -37 -6 -63z" />
<glyph unicode="e" horiz-adv-x="962" d="M72 322q0 70 15 164t42 184q47 168 161 262t294 94q154 0 248 -73.5t94 -202.5q0 -63 -22.5 -126t-87 -112t-179.5 -79t-297 -30h-43.5t-44.5 3q-10 -41 -10 -74q0 -80 52 -132.5t157 -52.5q59 0 118.5 23t106.5 74l119 -127q-76 -70 -165 -99.5t-188 -29.5 q-178 0 -274 90t-96 244zM274 559q25 -2 47.5 -2h45.5q123 0 196.5 16.5t113.5 42t53 56t13 59.5q0 66 -41 100.5t-129 34.5q-131 0 -200.5 -82t-98.5 -225z" />
<glyph unicode="f" horiz-adv-x="636" d="M-219 -410l31 160q18 -2 34.5 -3t32.5 -1q100 0 141 45t58 135l184 938h-131l31 154h131l29 149q14 72 35.5 131.5t59.5 102.5t97 67.5t148 24.5q72 0 149 -14l-31 -160q-23 4 -44 4h-40q-57 0 -93 -11.5t-57.5 -34t-32.5 -56t-19 -78.5l-25 -125h238l-31 -154h-238 l-188 -962q-14 -74 -33.5 -133.5t-56.5 -101.5t-94.5 -64.5t-149.5 -22.5q-29 0 -62.5 2t-72.5 8z" />
<glyph unicode="g" horiz-adv-x="1021" d="M-4 -287l127 117q39 -47 109.5 -70.5t127.5 -23.5q49 0 97.5 10t88.5 38t70.5 75t45.5 118l26 129q-66 -41 -117 -63.5t-92 -34.5t-73.5 -15t-59.5 -3q-139 0 -209.5 67.5t-70.5 190.5q0 25 3 50.5t7 53.5l55 287q41 207 153.5 297t301.5 90q33 0 85 -6t111.5 -20.5 t123 -36t116.5 -52.5l-191 -972q-35 -176 -151.5 -269.5t-327.5 -93.5q-45 0 -95 8t-99 24.5t-91 42t-71 62.5zM248 305q0 -82 42 -114.5t103 -32.5q63 0 151.5 30.5t178.5 94.5l102 522q-68 35 -130 49t-122 14q-113 0 -179 -62.5t-89 -178.5l-51 -256q-6 -37 -6 -66z" />
<glyph unicode="h" horiz-adv-x="1017" d="M14 0l289 1466h174l-110 -557q68 39 120 62.5t93 36t72.5 15.5t58.5 3q129 0 204.5 -69.5t75.5 -198.5q0 -23 -3 -46.5t-7 -47.5l-129 -664h-176l125 641q4 20 6 37.5t2 34.5q0 78 -41 109.5t-106 31.5q-63 0 -151.5 -31.5t-178.5 -93.5l-142 -729h-176z" />
<glyph unicode="i" horiz-adv-x="507" d="M115 182q0 18 5 43t9 47l143 746h174l-137 -713q-4 -23 -6 -39t-2 -30q0 -51 20.5 -63.5t77.5 -25.5l-32 -155h-23q-117 0 -173 44t-56 146zM311 1303q0 49 38 85.5t85 36.5q39 0 63.5 -23.5t24.5 -60.5q0 -12 -2 -18q-10 -43 -46 -73.5t-79 -30.5q-35 0 -59.5 24.5 t-24.5 59.5z" />
<glyph unicode="j" horiz-adv-x="497" d="M-186 -420l30 160q28 -3 51 -3t42 3q38 6 65 27.5t43 57.5t27 91l215 1102h172l-217 -1127q-14 -72 -33 -131t-51.5 -102t-85 -66.5t-131.5 -23.5q-57 0 -127 12zM319 1303q0 49 38 85.5t85 36.5q39 0 63.5 -23.5t24.5 -60.5q0 -49 -39.5 -85.5t-87.5 -36.5 q-35 0 -59.5 24.5t-24.5 59.5z" />
<glyph unicode="k" horiz-adv-x="983" d="M53 0l283 1466h170l-156 -798h150q31 0 61.5 5t59 19.5t55 40t49.5 66.5l123 219h194l-141 -256q-35 -59 -72.5 -108.5t-109.5 -67.5q39 -14 62.5 -36t35.5 -47.5t17.5 -57t9.5 -64.5l51 -381h-182l-41 326q-14 104 -51 138t-117 34h-187l-96 -498h-168z" />
<glyph unicode="l" horiz-adv-x="495" d="M88 170q0 39 8 78l234 1218h170l-226 -1196q-6 -25 -6 -43q0 -47 30 -59t108 -16l-25 -160h-59q-123 0 -178.5 45t-55.5 133z" />
<glyph unicode="m" horiz-adv-x="1550" d="M10 0l197 1016h155v-109q63 43 107.5 66.5t78.5 36t59.5 14.5t51.5 2q88 0 140.5 -27.5t91.5 -93.5q117 72 200 96.5t148 24.5q133 0 209 -74.5t76 -197.5q0 -45 -8 -84l-130 -670h-178l127 647q6 31 6 60q0 72 -38.5 110.5t-104.5 38.5q-51 0 -119.5 -20.5t-154.5 -79.5 q0 -20 -5.5 -60.5t-9.5 -58.5l-123 -637h-174l125 641q8 33 8 70q0 141 -133 141q-45 0 -115.5 -29.5t-170.5 -101.5l-140 -721h-176z" />
<glyph unicode="n" horiz-adv-x="1017" d="M14 0l199 1016h154v-107q76 43 129 66.5t92 35t67.5 13.5t55.5 2q129 0 204.5 -69.5t75.5 -198.5q0 -23 -3 -46.5t-7 -47.5l-129 -664h-176l125 641q4 20 6 37.5t2 34.5q0 78 -41 109.5t-106 31.5q-63 0 -148.5 -31.5t-181.5 -93.5l-142 -729h-176z" />
<glyph unicode="o" horiz-adv-x="1034" d="M100 340q0 23 2 45.5t7 46.5l41 217q35 176 140 276.5t306 100.5q92 0 163.5 -28.5t122 -78t77 -115t26.5 -138.5q0 -45 -8 -84l-45 -232q-23 -106 -67 -176t-104.5 -110.5t-134 -57t-155.5 -16.5q-70 0 -136.5 21.5t-118.5 65.5t-84 109.5t-32 153.5zM276 354 q0 -55 18.5 -94t48.5 -62.5t66.5 -34.5t73.5 -11q43 0 86 8t82 34.5t69 73.5t46 125l39 185q8 33 8 69q0 102 -63.5 158.5t-161.5 56.5q-102 0 -173 -53t-96 -186l-36 -201q-6 -37 -7 -68z" />
<glyph unicode="p" horiz-adv-x="1015" d="M-61 -406l272 1420h154v-107q131 72 209.5 94.5t134.5 22.5q129 0 204.5 -61.5t75.5 -196.5q0 -25 -2 -50.5t-8 -53.5l-61 -312q-35 -174 -133.5 -268t-292.5 -94q-55 0 -123 11t-170 52l-88 -457h-172zM231 217q90 -41 151.5 -52t125.5 -11q41 0 79 9t68.5 32.5t53 63.5 t34.5 99l58 291q4 20 6 38t2 34q0 76 -41 104.5t-109 28.5q-59 0 -150 -35t-177 -84z" />
<glyph unicode="q" horiz-adv-x="1015" d="M74 248q0 25 3 50.5t7 53.5l55 287q39 205 148.5 296t314.5 91q33 0 83 -6t109.5 -20.5t121 -36t114.5 -52.5l-256 -1317h-176l98 512q-68 -41 -119 -64.5t-92 -34.5t-72.5 -14t-58.5 -3q-139 0 -209.5 67.5t-70.5 190.5zM256 305q0 -82 42 -114.5t103 -32.5 q63 0 153.5 32.5t176.5 92.5l103 522q-68 35 -130.5 49t-121.5 14q-113 0 -179.5 -62.5t-89.5 -178.5l-51 -256q-6 -37 -6 -66z" />
<glyph unicode="r" horiz-adv-x="653" d="M39 0l197 1016h149l-4 -144h2q66 57 166 102.5t207 53.5l-21 -194q-141 -23 -234 -50.5t-147 -58.5l-139 -725h-176z" />
<glyph unicode="s" horiz-adv-x="929" d="M10 123l109 127q66 -63 140.5 -87t168.5 -24q39 0 81 9.5t78 30t58.5 53t22.5 79.5q0 55 -37 81t-103 40q-53 12 -117.5 24.5t-123 39t-97 72.5t-38.5 126q0 82 36.5 144.5t95 104.5t131 62.5t146.5 20.5q115 0 202 -23.5t159 -82.5l-101 -132q-61 45 -125.5 63.5 t-142.5 18.5q-104 0 -165.5 -46t-61.5 -111q0 -29 16 -48.5t42 -34t58.5 -22.5t63.5 -14q47 -8 106.5 -22.5t110.5 -43t86 -75.5t35 -123q0 -84 -34 -148.5t-93.5 -107.5t-139 -64.5t-171.5 -21.5q-106 0 -208 28.5t-188 106.5z" />
<glyph unicode="t" horiz-adv-x="727" d="M147 858l31 158h148l86 235h129l-45 -235h264l-31 -158h-264l-96 -496q-8 -41 -9 -86q0 -51 24 -82.5t93 -31.5q33 0 75 5t93 11l8 -158q-63 -20 -128.5 -25t-96.5 -5q-141 0 -197.5 61.5t-56.5 163.5q0 49 12 109l107 534h-146z" />
<glyph unicode="u" horiz-adv-x="1026" d="M72 260q0 23 3 45.5t7 46.5l131 664h176l-125 -641q-4 -20 -6 -38t-2 -34q0 -76 40 -108.5t103 -32.5q61 0 152.5 37t183.5 98l142 719h174l-197 -1016h-152l-4 106q-63 -41 -114.5 -63.5t-93 -34.5t-75.5 -15t-61 -3q-129 0 -205.5 70.5t-76.5 199.5z" />
<glyph unicode="v" horiz-adv-x="944" d="M133 1014h186l58 -428l47 -357h8l270 494q45 82 68 135t23 119v41h172v-39q0 -92 -25 -156.5t-70 -140.5l-403 -682h-162z" />
<glyph unicode="w" horiz-adv-x="1437" d="M133 1016h180l39 -404l31 -336h12l168 336l154 306h178l45 -318l43 -324h10l221 447q41 86 56.5 141.5t15.5 112.5v41h172v-39q0 -80 -17.5 -149.5t-58.5 -147.5l-372 -682h-150l-51 403l-37 299h-8l-146 -299l-198 -403h-158z" />
<glyph unicode="x" horiz-adv-x="888" d="M-84 0l440 520l-223 496h199l139 -354l283 354h217l-422 -492l239 -524h-202l-152 381l-293 -381h-225z" />
<glyph unicode="y" horiz-adv-x="915" d="M55 -412l228 430l-72 72l-98 926h180l35 -418l34 -442h7l303 567q45 84 65.5 136t20.5 118v41h178v-39q0 -92 -25.5 -156.5t-68.5 -140.5l-600 -1094h-187z" />
<glyph unicode="z" horiz-adv-x="921" d="M2 0l27 143l673 715h-503l28 156h729l-26 -144l-672 -710h533l-31 -160h-758z" />
<glyph unicode="{" horiz-adv-x="524" d="M55 555l21 104q41 6 75.5 30t61.5 59.5t44 82t28 95.5l53 278q20 100 85.5 160.5t143.5 60.5h135l-20 -110h-82q-29 0 -49.5 -16.5t-35.5 -42t-25.5 -57.5t-16.5 -62l-51 -256q-12 -66 -39 -114t-57.5 -81t-59 -50.5t-47.5 -23.5v-6q12 -4 30.5 -18.5t35 -38t29 -58 t12.5 -79.5q0 -16 -2 -34t-7 -36l-51 -266q-4 -18 -6 -38t-2 -40q0 -41 14.5 -70.5t51.5 -29.5h82l-21 -109h-117q-68 0 -117 46t-49 124v24.5t4 24.5l56 285q4 27 7 49.5t3 44.5q0 72 -28.5 117t-88.5 51z" />
<glyph unicode="|" horiz-adv-x="417" d="M143 -332v1798h133v-1798h-133z" />
<glyph unicode="}" horiz-adv-x="524" d="M-100 -211l20 109h84q27 0 48.5 16t36.5 42t25.5 57.5t16.5 62.5l51 266q12 63 39 110.5t57.5 80t60.5 50t46 23.5l2 6q-14 4 -32.5 17.5t-35 37t-27.5 57.5t-11 81q0 41 8 76l49 256q4 25 9 50t5 48q0 35 -15 57.5t-56 22.5h-84l18 102h133q80 0 118 -42t38 -111 q0 -29 -6 -60l-56 -278q-8 -41 -8 -88q0 -70 26.5 -120t86.5 -59l-21 -104q-82 -10 -133 -82t-74 -180l-55 -285q-18 -100 -82.5 -159.5t-144.5 -59.5h-137z" />
<glyph unicode="~" horiz-adv-x="1024" d="M100 561q74 94 151 133t155 39q47 0 91 -19.5t87 -43t84 -43t84 -19.5q49 0 89 28t91 83l88 -80q-72 -92 -141.5 -136t-161.5 -44q-41 0 -83 19.5t-86 44t-88 44t-85 19.5q-53 0 -93 -25.5t-89 -79.5z" />
<glyph unicode="&#xa1;" horiz-adv-x="485" d="M4 -410l217 1039h154l-189 -1039h-182zM227 881q0 59 42 102t108 43q47 0 71.5 -25.5t24.5 -66.5q0 -25 -9 -51.5t-26.5 -48t-44 -35t-61.5 -13.5q-53 0 -79 29t-26 66z" />
<glyph unicode="&#xa2;" horiz-adv-x="864" d="M84 305q0 45 8 86l51 273q31 166 130.5 261t281.5 99l41 207h92l-41 -209q76 -8 147.5 -37t118.5 -92l-120 -123q-41 47 -88.5 67.5t-88.5 24.5l-137 -708q47 2 106.5 21.5t112.5 62.5l101 -134q-78 -66 -171 -90t-182 -24l-43 -230h-92l45 238q-55 10 -104 33.5 t-87 62.5t-59.5 91.5t-21.5 119.5zM260 336q0 -74 38 -115t91 -57l135 694q-90 -10 -140 -67.5t-73 -167.5l-45 -230q-6 -31 -6 -57z" />
<glyph unicode="&#xa3;" horiz-adv-x="1024" d="M35 0l26 131q94 100 166 218t103 253h-191l27 133h162q-4 66 -17.5 130.5t-13.5 131.5q0 88 25.5 167t77 138.5t127 95.5t173.5 36q133 0 229.5 -50.5t153.5 -166.5l-147 -78q-35 59 -91.5 98t-146.5 39q-61 0 -103 -25.5t-67.5 -66.5t-37 -91.5t-11.5 -99.5 q0 -66 13.5 -129t13.5 -129h307l-29 -133h-292q-29 -125 -77 -236.5t-134 -209.5h614l-29 -156h-831z" />
<glyph unicode="&#xa4;" horiz-adv-x="1138" d="M82 274l141 138q-78 121 -78 241q0 123 78 242l-141 139q27 29 50.5 51.5t49.5 49.5l140 -140q59 39 118.5 58.5t124.5 19.5q66 0 125.5 -19.5t118.5 -58.5l137 140l101 -103l-140 -137q78 -119 78 -242q0 -121 -78 -241q33 -31 70 -66t70 -70l-101 -102l-137 139 q-115 -80 -244 -80q-131 0 -243 80l-140 -139q-20 23 -51 52.5t-49 47.5zM291 653q0 -55 21.5 -105t58.5 -87t86 -58.5t106 -21.5t107.5 21.5t87.5 58.5t58.5 87t21.5 105q0 57 -21.5 107.5t-58.5 87.5t-87 58.5t-108 21.5q-57 0 -106 -21.5t-86 -58.5t-58.5 -87.5 t-21.5 -107.5z" />
<glyph unicode="&#xa5;" horiz-adv-x="1024" d="M74 324l22 116h328l18 101l-14 67h-299l25 125h241l-172 678h199l143 -653h15l397 653h213l-434 -678h239l-24 -125h-295l-41 -65l-21 -103h324l-23 -116h-323l-62 -324h-190l61 324h-327z" />
<glyph unicode="&#xa6;" horiz-adv-x="417" d="M143 -332v836h133v-836h-133zM143 623v843h133v-843h-133z" />
<glyph unicode="&#xa7;" horiz-adv-x="909" d="M57 -39l66 123q41 -29 95 -46.5t126 -17.5q39 0 80 12.5t73.5 36t53 59.5t20.5 83q0 51 -38.5 92t-137.5 88q-47 23 -90 48.5t-75.5 57t-52 71.5t-19.5 94q0 70 42 155.5t148 159.5q-20 27 -35.5 63.5t-15.5 79.5q0 70 28.5 129.5t78 102.5t116 67.5t142.5 24.5 q33 0 70.5 -4t73.5 -12.5t67.5 -20.5t54.5 -27l-74 -131q-37 27 -82 42.5t-104 15.5q-33 0 -69 -10.5t-65.5 -31t-49 -51t-19.5 -69.5q0 -72 78 -125q63 -43 120.5 -74t101.5 -65.5t69.5 -80.5t25.5 -118q0 -94 -46 -165t-126 -136q16 -23 31.5 -64t15.5 -92 q0 -86 -35.5 -149.5t-91 -106.5t-125 -64.5t-137.5 -21.5q-78 0 -157.5 22.5t-131.5 55.5zM309 705q0 -49 30 -79t73 -52.5t89 -43t79 -49.5q57 29 87.5 77t30.5 93q0 43 -26.5 78t-66.5 65.5t-86 55.5t-83 45q-59 -37 -93 -89t-34 -101z" />
<glyph unicode="&#xa8;" horiz-adv-x="1001" d="M362 1288q0 47 37 83t84 36q37 0 59.5 -22.5t22.5 -57.5q0 -12 -2 -18q-10 -41 -44 -71t-75 -30q-35 0 -58.5 22.5t-23.5 57.5zM764 1288q0 47 37 83t82 36q37 0 60.5 -22.5t23.5 -57.5q0 -12 -2 -18q-10 -41 -45 -71t-76 -30q-35 0 -57.5 22.5t-22.5 57.5z" />
<glyph unicode="&#xa9;" horiz-adv-x="1697" d="M117 711q0 162 58 301t158.5 241.5t234.5 159.5t284 57t282 -57t232 -159.5t158.5 -241.5t58.5 -301q0 -164 -58.5 -303.5t-158.5 -243t-232.5 -161.5t-281.5 -58q-150 0 -284 58t-234.5 161.5t-158.5 243t-58 303.5zM244 711q0 -135 47 -254t129 -206t193.5 -137.5 t238.5 -50.5t236.5 50.5t191.5 137.5t128 206t46 254q0 133 -46 249.5t-128 203.5t-191.5 137.5t-236.5 50.5t-238.5 -50.5t-193.5 -137.5t-129 -203.5t-47 -249.5zM543 524v344q0 68 29.5 121t77.5 90t108.5 56.5t122.5 19.5q70 0 137 -20.5t121 -63.5l-68 -100 q-45 39 -95 53t-93 14q-35 0 -73 -10t-68.5 -34.5t-50 -63.5t-19.5 -94v-275q0 -55 19.5 -94t50 -63.5t68.5 -36t73 -11.5q41 0 91 13.5t91 46.5l63 -99q-53 -41 -117.5 -59t-129.5 -18q-63 0 -124 18t-109 54t-76.5 89.5t-28.5 122.5z" />
<glyph unicode="&#xaa;" horiz-adv-x="708" d="M135 704.5q-10 45.5 0 100.5l39 201q20 113 86 175t189 62q35 0 84 -11t124 -52l27 55h121l-127 -668h-121v70q-90 -39 -138 -57.5t-87 -18.5q-51 0 -92 17.5t-68 49t-37 77zM272 815q-14 -72 14.5 -100.5t78.5 -28.5q37 0 96 23.5t119 52.5l51 297q-41 29 -87 44t-95 15 q-51 0 -89 -32.5t-53 -98.5z" />
<glyph unicode="&#xab;" horiz-adv-x="940" d="M109 475l335 381h164l-342 -393l178 -369h-149zM449 475l335 381h164l-342 -393l178 -369h-149z" />
<glyph unicode="&#xac;" horiz-adv-x="1024" d="M80 537l26 131h904l-105 -525h-157l75 394h-743z" />
<glyph unicode="&#xad;" horiz-adv-x="786" d="M115 471l30 154h590l-30 -154h-590z" />
<glyph unicode="&#xae;" horiz-adv-x="1042" d="M145 1053q0 80 30 149.5t79 119.5t115.5 79t140.5 29t140.5 -29t116.5 -79t78.5 -119.5t28.5 -149.5t-28.5 -149.5t-78.5 -121t-116.5 -81t-140.5 -29.5t-140.5 29.5t-115.5 81t-79 121t-30 149.5zM221 1053q0 -66 22.5 -122.5t61.5 -98t92.5 -65.5t112.5 -24 q61 0 113.5 24t91.5 65.5t61.5 98t22.5 122.5q0 63 -22.5 118.5t-61.5 97.5t-91.5 65.5t-113.5 23.5q-59 0 -112.5 -23.5t-92.5 -65.5t-61.5 -97.5t-22.5 -118.5zM379 852v405h160q53 0 90 -31.5t37 -84.5q0 -72 -74 -111l88 -178h-80l-76 166h-69v-166h-76zM455 1087h80 q25 0 41 14.5t16 39.5t-15.5 36t-37.5 11h-84v-101z" />
<glyph unicode="&#xaf;" horiz-adv-x="1013" d="M420 1229l31 153h548l-30 -153h-549z" />
<glyph unicode="&#xb0;" horiz-adv-x="788" d="M119 1163q0 57 21.5 107.5t58.5 87.5t87 58.5t107 21.5q61 0 112.5 -21.5t87.5 -58.5t55.5 -87.5t19.5 -107.5t-21.5 -107t-58.5 -87t-87 -58.5t-108 -21.5q-57 0 -107 21.5t-87 58.5t-58.5 87t-21.5 107zM229 1163q0 -68 46.5 -116t117.5 -48q70 0 117 48t47 116 t-47 116t-117 48q-68 0 -116 -48t-48 -116z" />
<glyph unicode="&#xb1;" horiz-adv-x="1024" d="M-4 0l24 131h883l-24 -131h-883zM111 596l26 131h377l68 356h131l-68 -356h375l-27 -131h-375l-69 -356h-131l69 356h-376z" />
<glyph unicode="&#xb2;" horiz-adv-x="667" d="M100 752l21 114q10 57 38.5 103.5t69.5 83.5t90.5 68.5t100.5 62.5q27 16 64.5 37.5t71.5 47t57.5 55.5t23.5 62q0 49 -42 71t-95 22t-102.5 -18.5t-96.5 -49.5l-61 111q59 41 131.5 65.5t150.5 24.5q55 0 103.5 -9.5t84 -33t57 -61.5t21.5 -93q0 -53 -23.5 -98t-61 -83 t-85 -71t-94.5 -61q-33 -18 -71.5 -43t-73.5 -51.5t-62.5 -55t-35.5 -59.5l-5 -14h422l-22 -127h-576z" />
<glyph unicode="&#xb3;" horiz-adv-x="665" d="M92 829l94 109q35 -31 88.5 -47.5t96.5 -16.5q37 0 69.5 9.5t59 28t42 46t15.5 62.5q0 49 -32.5 75.5t-86.5 26.5h-108l24 129h111q20 0 48 7.5t52.5 22.5t42 38.5t17.5 56.5q0 55 -39 79t-94 24q-43 0 -99.5 -18.5t-105.5 -51.5l-62 111q72 47 142.5 67.5t154.5 20.5 q49 0 94.5 -10.5t80 -34t55 -61.5t20.5 -95q0 -35 -11 -69.5t-33.5 -65.5t-57.5 -54.5t-80 -33.5q72 -31 93.5 -77t21.5 -91q0 -66 -29 -117t-77 -86t-108.5 -53.5t-123.5 -18.5q-86 0 -160 26t-115 62z" />
<glyph unicode="&#xb4;" horiz-adv-x="1005" d="M633 1169l219 363l156 -51l-275 -353z" />
<glyph unicode="&#xb6;" horiz-adv-x="1054" d="M211 1022q0 100 35 179t94 133.5t139 83t170 28.5h187l-140 -752h-168q-152 0 -234.5 90t-82.5 238zM408 -276l4 143q94 10 151.5 34.5t89 60.5t45 83t23.5 102l240 1299h149l-246 -1329q-16 -92 -46 -163t-81 -120t-131 -76.5t-198 -33.5z" />
<glyph unicode="&#xb7;" horiz-adv-x="462" d="M127 535q0 31 13.5 58.5t35 49t50 34.5t57.5 13q47 0 76.5 -30.5t29.5 -77.5q0 -29 -13.5 -56.5t-36 -49t-51 -34t-57.5 -12.5q-47 0 -75.5 31t-28.5 74z" />
<glyph unicode="&#xb8;" horiz-adv-x="882" d="M129 -397l41 94q41 -18 85 -24.5t73 -6.5q39 0 78.5 20.5t39.5 65.5q0 41 -28.5 63.5t-81.5 22.5h-25l-35 33l105 219l90 -8l-76 -162q51 -4 87 -18.5t56.5 -36t30 -46t9.5 -48.5q0 -35 -15.5 -71t-46.5 -64.5t-79 -47t-113 -18.5h-33t-50.5 3t-57 10t-54.5 20z" />
<glyph unicode="&#xb9;" horiz-adv-x="526" d="M195 1446l229 153h131l-164 -847h-145l131 669l-123 -78z" />
<glyph unicode="&#xba;" horiz-adv-x="710" d="M164 864l24 129q23 117 102 183.5t206 66.5q74 0 127 -24.5t86.5 -66.5t47 -95t3.5 -109l-27 -149q-23 -123 -105.5 -182.5t-201.5 -59.5q-66 0 -120 22.5t-90 62.5t-50 97.5t-2 124.5zM297 844q-8 -43 1 -74t29.5 -51.5t47 -29.5t53.5 -9q55 0 104.5 29.5t69.5 121.5 l25 117q16 80 -23 127t-110 47q-61 0 -109.5 -32.5t-65.5 -114.5z" />
<glyph unicode="&#xbb;" horiz-adv-x="940" d="M27 94l342 393l-179 369h150l186 -381l-336 -381h-163zM367 94l342 393l-179 369h150l186 -381l-336 -381h-163z" />
<glyph unicode="&#xbc;" horiz-adv-x="1638" d="M174 -35l1161 1495h138l-1164 -1495h-135zM266 1262l230 153h131l-164 -848h-146l132 670l-123 -78zM846 125l22 111l422 612h156l-412 -598h228l47 246h149l-47 -246h78l-25 -125h-78l-24 -125h-150l25 125h-391z" />
<glyph unicode="&#xbd;" horiz-adv-x="1638" d="M82 -35l1161 1495h137l-1163 -1495h-135zM221 1262l230 153h131l-164 -848h-146l131 670l-122 -78zM877 0l20 115q10 57 39 103t70 83t90 68.5t100 62.5q27 16 64.5 38t71.5 47.5t57.5 55t23.5 62.5q0 49 -42 70.5t-95 21.5t-102.5 -18.5t-96.5 -49.5l-61 111 q59 41 131.5 65.5t150.5 24.5q55 0 103.5 -9t84.5 -32.5t57.5 -61.5t21.5 -93q0 -53 -23.5 -98.5t-61.5 -83.5t-85 -70.5t-95 -61.5q-33 -18 -71.5 -42.5t-73.5 -51.5t-62.5 -55.5t-35.5 -59.5l-4 -14h422l-23 -127h-575z" />
<glyph unicode="&#xbe;" horiz-adv-x="1638" d="M109 645l94 109q35 -31 88 -47.5t96 -16.5q37 0 69.5 9.5t59.5 27.5t42 46t15 63q0 49 -32.5 75.5t-85.5 26.5h-109l25 129h110q20 0 48 7t52.5 22.5t42 39t17.5 56.5q0 55 -39 78.5t-94 23.5q-43 0 -99.5 -18.5t-105.5 -50.5l-61 110q72 47 142.5 67.5t154.5 20.5 q49 0 94 -10t80 -33.5t55 -61.5t20 -95q0 -35 -11 -70t-33.5 -65.5t-57.5 -54t-80 -34.5q72 -31 93.5 -76.5t21.5 -91.5q0 -66 -28.5 -116.5t-77 -85.5t-109 -53.5t-123.5 -18.5q-86 0 -159.5 25.5t-114.5 62.5zM279 -35l1161 1495h137l-1163 -1495h-135zM891 125l22 111 l422 612h156l-412 -598h228l47 246h149l-47 -246h78l-25 -125h-77l-25 -125h-150l25 125h-391z" />
<glyph unicode="&#xbf;" horiz-adv-x="940" d="M82 -115q0 66 26.5 123.5t67.5 109.5t90 101t94.5 99.5t80 102.5t46.5 114l19 92h176l-18 -86q-14 -76 -49 -139.5t-79 -118t-90.5 -102.5t-85 -93t-63.5 -89t-25 -91q0 -76 49.5 -119t135.5 -43q78 0 157.5 29.5t141.5 74.5l65 -143q-102 -68 -199.5 -96.5t-203.5 -28.5 q-74 0 -136.5 22.5t-106.5 62.5t-68.5 95.5t-24.5 122.5zM516 881q0 59 42 102t108 43q47 0 71.5 -25.5t24.5 -66.5q0 -25 -9.5 -51.5t-26.5 -48t-43.5 -35t-61.5 -13.5q-53 0 -79 29t-26 66z" />
<glyph unicode="&#xc0;" horiz-adv-x="1222" d="M-55 0l757 1411h189l219 -1411h-190l-50 317h-557l-168 -317h-200zM408 489h436l-47 336l-41 328h-8l-164 -328zM434 1722l96 125l353 -250l-60 -86z" />
<glyph unicode="&#xc1;" horiz-adv-x="1222" d="M-55 0l757 1411h189l219 -1411h-190l-50 317h-557l-168 -317h-200zM408 489h436l-47 336l-41 328h-8l-164 -328zM717 1597l352 250l96 -125l-389 -211z" />
<glyph unicode="&#xc2;" horiz-adv-x="1222" d="M-55 0l757 1411h189l219 -1411h-190l-50 317h-557l-168 -317h-200zM408 489h436l-47 336l-41 328h-8l-164 -328zM459 1591l360 269h109l241 -265l-77 -75l-240 176l-348 -183z" />
<glyph unicode="&#xc3;" horiz-adv-x="1222" d="M-55 0l757 1411h189l219 -1411h-190l-50 317h-557l-168 -317h-200zM408 489h436l-47 336l-41 328h-8l-164 -328zM463 1577q49 92 120 137t132 45q37 0 69.5 -14t63.5 -31.5t59.5 -32t55.5 -14.5q29 0 64.5 21.5t76.5 70.5l92 -63q-57 -98 -119.5 -140.5t-126.5 -42.5 q-37 0 -69.5 13.5t-63.5 30t-60.5 29.5t-60.5 13q-35 0 -64.5 -17t-76.5 -64z" />
<glyph unicode="&#xc4;" horiz-adv-x="1222" d="M-55 0l757 1411h189l219 -1411h-190l-50 317h-557l-168 -317h-200zM408 489h436l-47 336l-41 328h-8l-164 -328zM545 1624q8 41 43 69.5t76 28.5t64 -28.5t15 -69.5q-10 -41 -43.5 -70.5t-74.5 -29.5t-65.5 29.5t-14.5 70.5zM946 1624q8 41 42 69.5t75 28.5t65.5 -28.5 t16.5 -69.5q-10 -41 -45 -70.5t-76 -29.5t-64.5 29.5t-13.5 70.5z" />
<glyph unicode="&#xc5;" horiz-adv-x="1222" d="M-55 0l757 1411h189l219 -1411h-190l-50 317h-557l-168 -317h-200zM408 489h436l-47 336l-41 328h-8l-164 -328zM639 1620q0 49 18.5 93t51 78t77.5 53.5t101 19.5q78 0 126 -50.5t48 -123.5q0 -55 -21.5 -99.5t-56.5 -75t-80 -47t-90 -16.5q-76 0 -125 48t-49 120z M743 1636q0 -37 22.5 -60.5t61.5 -23.5q49 0 90 38t41 89q0 35 -25.5 59.5t-64.5 24.5q-51 0 -88 -38.5t-37 -88.5z" />
<glyph unicode="&#xc6;" horiz-adv-x="1957" d="M-66 0l1125 1411h1018l-23 -172h-754l-63 -448h643l-22 -170h-646l-65 -451h754l-23 -170h-942l57 412h-514l-323 -412h-222zM598 567h418l96 656z" />
<glyph unicode="&#xc7;" horiz-adv-x="1093" d="M111 377q0 23 3 47.5t7 48.5l96 492q41 213 174 336.5t383 123.5q117 0 224.5 -34.5t185.5 -100.5l-121 -145q-23 23 -58.5 43t-76.5 35.5t-85 23.5t-83 8q-143 0 -234.5 -76.5t-126.5 -252.5l-88 -430q-4 -23 -6 -44.5t-2 -39.5q0 -66 22.5 -113t61.5 -78t91 -46 t114 -15q80 0 175 27.5t169 80.5l78 -155q-37 -27 -86 -49.5t-107.5 -40t-121 -27.5t-124.5 -10h-10l-30 -66q51 -4 86.5 -18.5t56 -36t30 -46t9.5 -48.5q0 -35 -15.5 -71t-46 -64.5t-79 -47t-113.5 -18.5h-32.5t-50.5 3t-57.5 10t-54.5 20l41 94q41 -18 85 -24.5t73 -6.5 q39 0 79 20.5t40 65.5q0 41 -29 63.5t-82 22.5h-24l-35 33l57 123q-78 12 -143.5 43t-114.5 80t-76.5 114.5t-27.5 145.5z" />
<glyph unicode="&#xc8;" horiz-adv-x="1140" d="M43 0l274 1411h922l-33 -172h-733l-86 -448h643l-33 -170h-645l-88 -451h795l-33 -170h-983zM475 1722l96 125l353 -250l-60 -86z" />
<glyph unicode="&#xc9;" horiz-adv-x="1140" d="M43 0l274 1411h922l-33 -172h-733l-86 -448h643l-33 -170h-645l-88 -451h795l-33 -170h-983zM635 1597l352 250l96 -125l-389 -211z" />
<glyph unicode="&#xca;" horiz-adv-x="1140" d="M43 0l274 1411h922l-33 -172h-733l-86 -448h643l-33 -170h-645l-88 -451h795l-33 -170h-983zM444 1591l361 269h108l242 -265l-78 -75l-239 176l-349 -183z" />
<glyph unicode="&#xcb;" horiz-adv-x="1140" d="M43 0l274 1411h922l-33 -172h-733l-86 -448h643l-33 -170h-645l-88 -451h795l-33 -170h-983zM508 1624q8 41 43 69.5t76 28.5t64.5 -28.5t15.5 -69.5q-10 -41 -44 -70.5t-75 -29.5t-65.5 29.5t-14.5 70.5zM909 1624q8 41 42 69.5t75 28.5t65.5 -28.5t16.5 -69.5 q-10 -41 -45 -70.5t-76 -29.5t-64.5 29.5t-13.5 70.5z" />
<glyph unicode="&#xcc;" horiz-adv-x="516" d="M82 0l274 1411h189l-275 -1411h-188zM88 1722l96 125l353 -250l-60 -86z" />
<glyph unicode="&#xcd;" horiz-adv-x="516" d="M82 0l274 1411h189l-275 -1411h-188zM403 1597l353 250l96 -125l-389 -211z" />
<glyph unicode="&#xce;" horiz-adv-x="516" d="M82 0l274 1411h189l-275 -1411h-188zM125 1591l360 269h109l242 -265l-78 -75l-240 176l-348 -183z" />
<glyph unicode="&#xcf;" horiz-adv-x="516" d="M82 0l274 1411h189l-275 -1411h-188zM188 1636q0 47 37 83t84 36q37 0 59.5 -22.5t22.5 -57.5q0 -12 -2 -18q-10 -41 -44 -71t-75 -30q-35 0 -58.5 23t-23.5 57zM590 1636q0 47 37 83t82 36q37 0 60.5 -22.5t23.5 -57.5q0 -12 -2 -18q-10 -41 -45 -71t-76 -30 q-35 0 -57.5 23t-22.5 57z" />
<glyph unicode="&#xd0;" horiz-adv-x="1239" d="M33 664l26 139h134l118 608h504q94 0 172 -24.5t133.5 -71.5t86 -113.5t30.5 -152.5q0 -41 -10 -99l-90 -491q-23 -109 -58 -194t-93 -144.5t-145 -90t-210 -30.5h-594l129 664h-133zM258 168h365q55 0 107 15.5t95 52t76 98t51 155.5l82 429q4 25 7 46t3 42 q0 63 -21.5 108t-58 72.5t-88 40t-112.5 12.5h-297l-86 -436h223l-26 -139h-224z" />
<glyph unicode="&#xd1;" horiz-adv-x="1320" d="M39 0l268 1411h178l357 -788l129 -293h14l205 1081h186l-268 -1411h-182l-346 762l-138 309h-14l-203 -1071h-186zM494 1577q49 92 119.5 137t131.5 45q37 0 70 -14t63.5 -31.5t59.5 -32t55 -14.5q29 0 65 21.5t77 70.5l92 -63q-57 -98 -120 -140.5t-126 -42.5 q-37 0 -69.5 13.5t-63.5 30t-60.5 29.5t-60.5 13q-35 0 -64.5 -17t-76.5 -64z" />
<glyph unicode="&#xd2;" horiz-adv-x="1249" d="M115 412q0 55 12 114l86 439q41 213 177 336.5t386 123.5q104 0 191.5 -31.5t150 -88t97 -133t34.5 -166.5q0 -47 -8 -88l-88 -472q-41 -211 -182.5 -335.5t-390.5 -124.5q-94 0 -178.5 28.5t-148 83t-101 133t-37.5 181.5zM307 418q0 -68 21.5 -116t58.5 -80t86 -47 t105 -15q176 0 270 91t129 263l76 387q4 20 6 40t2 36q0 68 -24.5 119t-65.5 86t-93.5 52t-109.5 17q-147 0 -243.5 -76.5t-129.5 -248.5l-80 -418q-4 -25 -6 -46.5t-2 -43.5zM555 1722l96 125l353 -250l-60 -86z" />
<glyph unicode="&#xd3;" horiz-adv-x="1249" d="M115 412q0 55 12 114l86 439q41 213 177 336.5t386 123.5q104 0 191.5 -31.5t150 -88t97 -133t34.5 -166.5q0 -47 -8 -88l-88 -472q-41 -211 -182.5 -335.5t-390.5 -124.5q-94 0 -178.5 28.5t-148 83t-101 133t-37.5 181.5zM307 418q0 -68 21.5 -116t58.5 -80t86 -47 t105 -15q176 0 270 91t129 263l76 387q4 20 6 40t2 36q0 68 -24.5 119t-65.5 86t-93.5 52t-109.5 17q-147 0 -243.5 -76.5t-129.5 -248.5l-80 -418q-4 -25 -6 -46.5t-2 -43.5zM717 1597l352 250l96 -125l-389 -211z" />
<glyph unicode="&#xd4;" horiz-adv-x="1249" d="M115 412q0 55 12 114l86 439q41 213 177 336.5t386 123.5q104 0 191.5 -31.5t150 -88t97 -133t34.5 -166.5q0 -47 -8 -88l-88 -472q-41 -211 -182.5 -335.5t-390.5 -124.5q-94 0 -178.5 28.5t-148 83t-101 133t-37.5 181.5zM307 418q0 -68 21.5 -116t58.5 -80t86 -47 t105 -15q176 0 270 91t129 263l76 387q4 20 6 40t2 36q0 68 -24.5 119t-65.5 86t-93.5 52t-109.5 17q-147 0 -243.5 -76.5t-129.5 -248.5l-80 -418q-4 -25 -6 -46.5t-2 -43.5zM481 1591l361 269h108l242 -265l-78 -75l-240 176l-348 -183z" />
<glyph unicode="&#xd5;" horiz-adv-x="1249" d="M115 412q0 55 12 114l86 439q41 213 177 336.5t386 123.5q104 0 191.5 -31.5t150 -88t97 -133t34.5 -166.5q0 -47 -8 -88l-88 -472q-41 -211 -182.5 -335.5t-390.5 -124.5q-94 0 -178.5 28.5t-148 83t-101 133t-37.5 181.5zM307 418q0 -68 21.5 -116t58.5 -80t86 -47 t105 -15q176 0 270 91t129 263l76 387q4 20 6 40t2 36q0 68 -24.5 119t-65.5 86t-93.5 52t-109.5 17q-147 0 -243.5 -76.5t-129.5 -248.5l-80 -418q-4 -25 -6 -46.5t-2 -43.5zM485 1577q49 92 120 137t132 45q37 0 70 -14t63.5 -31.5t59 -32t55.5 -14.5q29 0 64.5 21.5 t76.5 70.5l93 -63q-57 -98 -120 -140.5t-126 -42.5q-37 0 -70 13.5t-63.5 30t-60 29.5t-60.5 13q-35 0 -64.5 -17t-76.5 -64z" />
<glyph unicode="&#xd6;" horiz-adv-x="1249" d="M115 412q0 55 12 114l86 439q41 213 177 336.5t386 123.5q104 0 191.5 -31.5t150 -88t97 -133t34.5 -166.5q0 -47 -8 -88l-88 -472q-41 -211 -182.5 -335.5t-390.5 -124.5q-94 0 -178.5 28.5t-148 83t-101 133t-37.5 181.5zM307 418q0 -68 21.5 -116t58.5 -80t86 -47 t105 -15q176 0 270 91t129 263l76 387q4 20 6 40t2 36q0 68 -24.5 119t-65.5 86t-93.5 52t-109.5 17q-147 0 -243.5 -76.5t-129.5 -248.5l-80 -418q-4 -25 -6 -46.5t-2 -43.5zM559 1624q8 41 43 69.5t76 28.5t64.5 -28.5t15.5 -69.5q-10 -41 -44 -70.5t-75 -29.5t-65.5 29.5 t-14.5 70.5zM961 1624q8 41 41.5 69.5t74.5 28.5t65.5 -28.5t16.5 -69.5q-10 -41 -45 -70.5t-76 -29.5t-64.5 29.5t-12.5 70.5z" />
<glyph unicode="&#xd7;" horiz-adv-x="1202" d="M123 178l399 326l-260 340l105 78l262 -338l399 323l78 -102l-399 -324l274 -358l-104 -78l-275 356l-401 -325z" />
<glyph unicode="&#xd8;" horiz-adv-x="1249" d="M115 412q0 55 12 114l86 439q41 213 177 336.5t386 123.5q98 0 179 -27.5t143 -76.5l84 109l67 -60l-88 -113q41 -53 64.5 -116.5t23.5 -134.5q0 -47 -8 -88l-88 -472q-41 -211 -182.5 -335.5t-390.5 -124.5q-92 0 -174 26.5t-148 79.5l-78 -102l-63 59l80 105 q-39 51 -60.5 115.5t-21.5 142.5zM307 418q0 -55 17 -101l657 854q-41 39 -97.5 59.5t-115.5 20.5q-147 0 -243.5 -76.5t-129.5 -248.5l-80 -418q-4 -25 -6 -46t-2 -44zM371 238q39 -41 92 -59.5t115 -18.5q176 0 270 91t129 263l76 387q4 20 6 40t2 36q0 33 -7 62.5 t-18 54.5z" />
<glyph unicode="&#xd9;" horiz-adv-x="1249" d="M111 381q0 27 2 53.5t8 54.5l178 922h190l-180 -930q-4 -20 -6 -38.5t-2 -34.5q0 -68 24.5 -115t64.5 -77t89 -44t96 -14q70 0 133.5 18.5t117 57t91 100t54.5 147.5l180 930h190l-188 -965q-23 -109 -74 -194.5t-128 -145t-175 -90t-213 -30.5q-90 0 -172 24.5 t-144.5 73.5t-99 124t-36.5 173zM502 1722l96 125l352 -250l-59 -86z" />
<glyph unicode="&#xda;" horiz-adv-x="1249" d="M111 381q0 27 2 53.5t8 54.5l178 922h190l-180 -930q-4 -20 -6 -38.5t-2 -34.5q0 -68 24.5 -115t64.5 -77t89 -44t96 -14q70 0 133.5 18.5t117 57t91 100t54.5 147.5l180 930h190l-188 -965q-23 -109 -74 -194.5t-128 -145t-175 -90t-213 -30.5q-90 0 -172 24.5 t-144.5 73.5t-99 124t-36.5 173zM696 1597l353 250l96 -125l-389 -211z" />
<glyph unicode="&#xdb;" horiz-adv-x="1249" d="M111 381q0 27 2 53.5t8 54.5l178 922h190l-180 -930q-4 -20 -6 -38.5t-2 -34.5q0 -68 24.5 -115t64.5 -77t89 -44t96 -14q70 0 133.5 18.5t117 57t91 100t54.5 147.5l180 930h190l-188 -965q-23 -109 -74 -194.5t-128 -145t-175 -90t-213 -30.5q-90 0 -172 24.5 t-144.5 73.5t-99 124t-36.5 173zM469 1591l360 269h109l242 -265l-78 -75l-240 176l-348 -183z" />
<glyph unicode="&#xdc;" horiz-adv-x="1249" d="M111 381q0 27 2 53.5t8 54.5l178 922h190l-180 -930q-4 -20 -6 -38.5t-2 -34.5q0 -68 24.5 -115t64.5 -77t89 -44t96 -14q70 0 133.5 18.5t117 57t91 100t54.5 147.5l180 930h190l-188 -965q-23 -109 -74 -194.5t-128 -145t-175 -90t-213 -30.5q-90 0 -172 24.5 t-144.5 73.5t-99 124t-36.5 173zM551 1624q8 41 43 69.5t76 28.5t64.5 -28.5t15.5 -69.5q-10 -41 -44 -70.5t-75 -29.5t-65.5 29.5t-14.5 70.5zM952 1624q8 41 42 69.5t75 28.5t65.5 -28.5t16.5 -69.5q-10 -41 -45 -70.5t-76 -29.5t-64.5 29.5t-13.5 70.5z" />
<glyph unicode="&#xdd;" horiz-adv-x="1099" d="M213 1411h197l104 -391l74 -281h10l219 336l223 336h211l-589 -868l-105 -543h-188l104 541zM602 1597l352 250l97 -125l-389 -211z" />
<glyph unicode="&#xde;" horiz-adv-x="1134" d="M29 0l274 1411h193l-56 -289h359q92 0 158.5 -31.5t109.5 -84t63.5 -119t20.5 -137.5q0 -94 -33 -180.5t-93 -151t-147 -102t-196 -37.5h-412l-53 -279h-188zM305 453h357q59 0 114 20.5t97 58t67 90t25 113.5q0 100 -59.5 157.5t-162.5 57.5h-342z" />
<glyph unicode="&#xdf;" horiz-adv-x="1067" d="M63 0l205 1071q35 184 149.5 281.5t280.5 97.5q100 0 169 -28.5t112 -73.5t61.5 -101.5t18.5 -111.5q0 -74 -38 -151t-132 -130q66 -27 94.5 -89.5t28.5 -133.5q0 -39 -11 -90l-38 -191q-72 -360 -433 -360q-27 0 -55.5 2t-58.5 6l37 158q18 -2 36.5 -3t36.5 -1 q47 0 89 8t76 31.5t59.5 63.5t37.5 103l41 195q6 25 7 47q0 72 -51.5 113t-137.5 41h-43l27 143h28q47 0 90.5 19.5t75 51t50 71.5t18.5 83q0 70 -50 124t-143 54q-61 0 -106 -19t-76 -50t-48 -71t-26 -81l-208 -1079h-173z" />
<glyph unicode="&#xe0;" horiz-adv-x="1026" d="M68 260q0 23 3 45.5t7 46.5l61 312q35 174 129 268t269 94q27 0 57.5 -3t68 -14.5t84 -32t103.5 -52.5l41 90h153l-198 -1014h-154v102q-72 -33 -124 -54t-92 -34.5t-70.5 -18.5t-57.5 -5q-129 0 -204.5 70.5t-75.5 199.5zM250 303q0 -76 40 -108.5t103 -32.5t151.5 35.5 t182.5 83.5l88 477q-59 47 -132 73.5t-148 26.5q-82 0 -141.5 -49t-82.5 -166l-53 -268q-4 -20 -6 -38t-2 -34zM428 1468l139 62l240 -348l-78 -47z" />
<glyph unicode="&#xe1;" horiz-adv-x="1026" d="M68 260q0 23 3 45.5t7 46.5l61 312q35 174 129 268t269 94q27 0 57.5 -3t68 -14.5t84 -32t103.5 -52.5l41 90h153l-198 -1014h-154v102q-72 -33 -124 -54t-92 -34.5t-70.5 -18.5t-57.5 -5q-129 0 -204.5 70.5t-75.5 199.5zM250 303q0 -76 40 -108.5t103 -32.5t151.5 35.5 t182.5 83.5l88 477q-59 47 -132 73.5t-148 26.5q-82 0 -141.5 -49t-82.5 -166l-53 -268q-4 -20 -6 -38t-2 -34zM594 1169l219 363l156 -51l-275 -353z" />
<glyph unicode="&#xe2;" horiz-adv-x="1026" d="M68 260q0 23 3 45.5t7 46.5l61 312q35 174 129 268t269 94q27 0 57.5 -3t68 -14.5t84 -32t103.5 -52.5l41 90h153l-198 -1014h-154v102q-72 -33 -124 -54t-92 -34.5t-70.5 -18.5t-57.5 -5q-129 0 -204.5 70.5t-75.5 199.5zM250 303q0 -76 40 -108.5t103 -32.5t151.5 35.5 t182.5 83.5l88 477q-59 47 -132 73.5t-148 26.5q-82 0 -141.5 -49t-82.5 -166l-53 -268q-4 -20 -6 -38t-2 -34zM317 1217l365 305h109l233 -310l-86 -79l-211 223l-336 -226z" />
<glyph unicode="&#xe3;" horiz-adv-x="1026" d="M68 260q0 23 3 45.5t7 46.5l61 312q35 174 129 268t269 94q27 0 57.5 -3t68 -14.5t84 -32t103.5 -52.5l41 90h153l-198 -1014h-154v102q-72 -33 -124 -54t-92 -34.5t-70.5 -18.5t-57.5 -5q-129 0 -204.5 70.5t-75.5 199.5zM250 303q0 -76 40 -108.5t103 -32.5t151.5 35.5 t182.5 83.5l88 477q-59 47 -132 73.5t-148 26.5q-82 0 -141.5 -49t-82.5 -166l-53 -268q-4 -20 -6 -38t-2 -34zM305 1249q49 92 120 137.5t132 45.5q37 0 69.5 -14.5t63.5 -32t59.5 -32t55.5 -14.5q29 0 64.5 21.5t76.5 71.5l92 -64q-57 -98 -119.5 -140t-125.5 -42 q-37 0 -70 13t-63.5 29.5t-60.5 30t-60 13.5q-35 0 -65 -17.5t-77 -64.5z" />
<glyph unicode="&#xe4;" horiz-adv-x="1026" d="M68 260q0 23 3 45.5t7 46.5l61 312q35 174 129 268t269 94q27 0 57.5 -3t68 -14.5t84 -32t103.5 -52.5l41 90h153l-198 -1014h-154v102q-72 -33 -124 -54t-92 -34.5t-70.5 -18.5t-57.5 -5q-129 0 -204.5 70.5t-75.5 199.5zM250 303q0 -76 40 -108.5t103 -32.5t151.5 35.5 t182.5 83.5l88 477q-59 47 -132 73.5t-148 26.5q-82 0 -141.5 -49t-82.5 -166l-53 -268q-4 -20 -6 -38t-2 -34zM369 1288q0 47 36.5 83t83.5 36q37 0 59.5 -22.5t22.5 -57.5q0 -12 -2 -18q-10 -41 -43.5 -71t-74.5 -30q-35 0 -58.5 22.5t-23.5 57.5zM770 1288q0 47 37 83 t82 36q37 0 60.5 -22.5t23.5 -57.5q0 -12 -2 -18q-10 -41 -45 -71t-76 -30q-35 0 -57.5 22.5t-22.5 57.5z" />
<glyph unicode="&#xe5;" horiz-adv-x="1026" d="M68 260q0 23 3 45.5t7 46.5l61 312q35 174 129 268t269 94q27 0 57.5 -3t68 -14.5t84 -32t103.5 -52.5l41 90h153l-198 -1014h-154v102q-72 -33 -124 -54t-92 -34.5t-70.5 -18.5t-57.5 -5q-129 0 -204.5 70.5t-75.5 199.5zM250 303q0 -76 40 -108.5t103 -32.5t151.5 35.5 t182.5 83.5l88 477q-59 47 -132 73.5t-148 26.5q-82 0 -141.5 -49t-82.5 -166l-53 -268q-4 -20 -6 -38t-2 -34zM502 1276q0 49 18.5 93t51 78t77.5 53.5t101 19.5q78 0 126 -50.5t48 -123.5q0 -55 -21.5 -99.5t-56.5 -75t-80 -47t-90 -16.5q-76 0 -125 48t-49 120zM606 1292 q0 -37 22.5 -60.5t61.5 -23.5q49 0 90 38t41 89q0 35 -25.5 59.5t-64.5 24.5q-51 0 -88 -39t-37 -88z" />
<glyph unicode="&#xe6;" horiz-adv-x="1636" d="M61 225q0 104 46.5 176t114 115t142 62.5t132.5 19.5q53 0 83.5 -3t58.5 -6t60.5 -8.5t87.5 -11.5l21 107q4 14 4 25.5v21.5q0 84 -58.5 113.5t-148.5 29.5q-53 0 -128 -15t-165 -79l-59 133q115 76 210 98.5t181 22.5q227 0 307 -115l11 9q59 51 134.5 78.5t172.5 27.5 q154 0 248 -73.5t94 -202.5q0 -63 -22.5 -126t-87 -112t-179.5 -79t-297 -30h-43t-45 3q-10 -41 -10 -74q0 -80 52 -132.5t157 -52.5q59 0 118.5 23t106.5 74l119 -127q-76 -70 -165 -99.5t-188 -29.5q-123 0 -205.5 43t-125.5 121q-98 -86 -214 -123t-249 -37 q-129 0 -200 61.5t-71 171.5zM246 266q0 -59 41.5 -87.5t109.5 -28.5q49 0 105.5 11t105.5 33.5t85 56.5t46 79l23 102q-49 6 -80 9t-57.5 6.5t-56 4.5t-72.5 1q-31 0 -74 -5.5t-82 -25t-66.5 -56t-27.5 -100.5zM958 559q25 -2 47.5 -2h45.5q123 0 196.5 16.5t113.5 42 t53 56t13 59.5q0 66 -41 100.5t-129 34.5q-131 0 -200.5 -82t-98.5 -225z" />
<glyph unicode="&#xe7;" horiz-adv-x="872" d="M84 307q0 45 8 84l51 273q33 174 142.5 268t289.5 94q88 0 180.5 -28.5t147.5 -104.5l-110 -123q-47 57 -107.5 75.5t-105.5 18.5q-100 0 -172 -56t-97 -185l-45 -230q-6 -31 -6 -57q0 -49 18.5 -84t47 -56.5t65.5 -31.5t74 -10q47 0 111.5 18t121.5 66l101 -134 q-76 -63 -166 -87.5t-176 -26.5l-33 -70q51 -4 87 -18.5t56.5 -36t29.5 -46t9 -48.5q0 -35 -15.5 -71t-46 -64.5t-78.5 -47t-114 -18.5h-32.5t-50 3t-57.5 10t-54 20l41 94q41 -18 85 -24.5t72 -6.5q39 0 79 20.5t40 65.5q0 41 -28.5 63.5t-81.5 22.5h-25l-35 33l60 127 q-57 8 -108.5 31.5t-89.5 62.5t-60.5 92.5t-22.5 122.5z" />
<glyph unicode="&#xe8;" horiz-adv-x="962" d="M72 322q0 70 15 164t42 184q47 168 161 262t294 94q154 0 248 -73.5t94 -202.5q0 -63 -22.5 -126t-87 -112t-179.5 -79t-297 -30h-43.5t-44.5 3q-10 -41 -10 -74q0 -80 52 -132.5t157 -52.5q59 0 118.5 23t106.5 74l119 -127q-76 -70 -165 -99.5t-188 -29.5 q-178 0 -274 90t-96 244zM274 559q25 -2 47.5 -2h45.5q123 0 196.5 16.5t113.5 42t53 56t13 59.5q0 66 -41 100.5t-129 34.5q-131 0 -200.5 -82t-98.5 -225zM330 1468l139 62l240 -348l-78 -47z" />
<glyph unicode="&#xe9;" horiz-adv-x="962" d="M72 322q0 70 15 164t42 184q47 168 161 262t294 94q154 0 248 -73.5t94 -202.5q0 -63 -22.5 -126t-87 -112t-179.5 -79t-297 -30h-43.5t-44.5 3q-10 -41 -10 -74q0 -80 52 -132.5t157 -52.5q59 0 118.5 23t106.5 74l119 -127q-76 -70 -165 -99.5t-188 -29.5 q-178 0 -274 90t-96 244zM274 559q25 -2 47.5 -2h45.5q123 0 196.5 16.5t113.5 42t53 56t13 59.5q0 66 -41 100.5t-129 34.5q-131 0 -200.5 -82t-98.5 -225zM532 1169l220 363l155 -51l-274 -353z" />
<glyph unicode="&#xea;" horiz-adv-x="962" d="M72 322q0 70 15 164t42 184q47 168 161 262t294 94q154 0 248 -73.5t94 -202.5q0 -63 -22.5 -126t-87 -112t-179.5 -79t-297 -30h-43.5t-44.5 3q-10 -41 -10 -74q0 -80 52 -132.5t157 -52.5q59 0 118.5 23t106.5 74l119 -127q-76 -70 -165 -99.5t-188 -29.5 q-178 0 -274 90t-96 244zM256 1217l365 305h108l234 -310l-86 -79l-211 223l-336 -226zM274 559q25 -2 47.5 -2h45.5q123 0 196.5 16.5t113.5 42t53 56t13 59.5q0 66 -41 100.5t-129 34.5q-131 0 -200.5 -82t-98.5 -225z" />
<glyph unicode="&#xeb;" horiz-adv-x="962" d="M72 322q0 70 15 164t42 184q47 168 161 262t294 94q154 0 248 -73.5t94 -202.5q0 -63 -22.5 -126t-87 -112t-179.5 -79t-297 -30h-43.5t-44.5 3q-10 -41 -10 -74q0 -80 52 -132.5t157 -52.5q59 0 118.5 23t106.5 74l119 -127q-76 -70 -165 -99.5t-188 -29.5 q-178 0 -274 90t-96 244zM274 559q25 -2 47.5 -2h45.5q123 0 196.5 16.5t113.5 42t53 56t13 59.5q0 66 -41 100.5t-129 34.5q-131 0 -200.5 -82t-98.5 -225zM330 1288q0 47 36.5 83t84.5 36q37 0 59 -22.5t22 -57.5q0 -12 -2 -18q-10 -41 -43.5 -71t-74.5 -30 q-35 0 -58.5 22.5t-23.5 57.5zM731 1288q0 47 37 83t82 36q37 0 60.5 -22.5t23.5 -57.5q0 -12 -2 -18q-10 -41 -45 -71t-76 -30q-35 0 -57.5 22.5t-22.5 57.5z" />
<glyph unicode="&#xec;" horiz-adv-x="532" d="M147 1468l140 62l239 -348l-77 -47zM166 193q0 41 8 79l143 744h175l-138 -711q-4 -23 -6 -39t-2 -30q0 -51 25.5 -66.5t72.5 -22.5l-32 -155h-23q-104 0 -163.5 49t-59.5 152z" />
<glyph unicode="&#xed;" horiz-adv-x="507" d="M100 193q0 41 9 79l143 744h174l-137 -711q-4 -23 -6 -39t-2 -30q0 -51 25.5 -66.5t72.5 -22.5l-33 -155h-22q-104 0 -164 49t-60 152zM299 1169l219 363l156 -51l-275 -353z" />
<glyph unicode="&#xee;" horiz-adv-x="620" d="M102 1217l365 305h108l234 -310l-86 -79l-211 223l-336 -226zM186 193q0 41 9 79l143 744h174l-137 -711q-4 -23 -6 -39t-2 -30q0 -51 25.5 -66.5t72.5 -22.5l-33 -155h-22q-104 0 -164 49t-60 152z" />
<glyph unicode="&#xef;" horiz-adv-x="583" d="M160 1288q0 47 36.5 83t84.5 36q37 0 59 -22.5t22 -57.5q0 -12 -2 -18q-10 -41 -43.5 -71t-74.5 -30q-35 0 -58.5 22.5t-23.5 57.5zM168 193q0 41 8 79l143 744h175l-138 -711q-4 -23 -6 -39t-2 -30q0 -51 25.5 -66.5t72.5 -22.5l-32 -155h-23q-104 0 -163.5 49 t-59.5 152zM561 1288q0 47 37 83t82 36q37 0 60.5 -22.5t23.5 -57.5q0 -12 -2 -18q-10 -41 -45 -71t-76 -30q-35 0 -57.5 22.5t-22.5 57.5z" />
<glyph unicode="&#xf0;" horiz-adv-x="1009" d="M100 342q0 35 6 72l37 192q14 76 45 144.5t83.5 119t127 80t176.5 29.5q33 0 73 -8t77 -23.5t68.5 -37t52.5 -48.5l8 2q8 37 11 75t3 73q0 84 -18 131l-145 -90l-58 92l148 92q-29 33 -83.5 63.5t-162.5 53.5l47 141q123 -10 213 -57t137 -107l191 119l57 -92l-190 -119 q20 -47 28 -99.5t8 -111.5q0 -96 -17 -202.5t-40 -221.5l-47 -244q-39 -199 -156.5 -283.5t-290.5 -84.5q-86 0 -157.5 26.5t-122.5 73.5t-80 110.5t-29 139.5zM276 356q0 -102 62.5 -152t153.5 -50q53 0 98 11t80 37.5t60.5 71.5t37.5 113l31 158q6 27 6 53q0 51 -19.5 91 t-51.5 67.5t-75 42t-88 14.5q-111 0 -174 -63.5t-86 -176.5l-28 -155q-6 -35 -7 -62z" />
<glyph unicode="&#xf1;" horiz-adv-x="1017" d="M14 0l199 1016h154v-107q76 43 129 66.5t92 35t67.5 13.5t55.5 2q129 0 204.5 -69.5t75.5 -198.5q0 -23 -3 -46.5t-7 -47.5l-129 -664h-176l125 641q4 20 6 37.5t2 34.5q0 78 -41 109.5t-106 31.5q-63 0 -148.5 -31.5t-181.5 -93.5l-142 -729h-176zM297 1249 q49 92 120 137.5t132 45.5q37 0 69.5 -14.5t63.5 -32t59.5 -32t55.5 -14.5q29 0 64.5 21.5t76.5 71.5l92 -64q-57 -98 -119.5 -140t-126.5 -42q-37 0 -69.5 13t-63 29.5t-60.5 30t-61 13.5q-35 0 -64.5 -17.5t-76.5 -64.5z" />
<glyph unicode="&#xf2;" horiz-adv-x="1034" d="M100 340q0 23 2 45.5t7 46.5l41 217q35 176 140 276.5t306 100.5q92 0 163.5 -28.5t122 -78t77 -115t26.5 -138.5q0 -45 -8 -84l-45 -232q-23 -106 -67 -176t-104.5 -110.5t-134 -57t-155.5 -16.5q-70 0 -136.5 21.5t-118.5 65.5t-84 109.5t-32 153.5zM276 354 q0 -55 18.5 -94t48.5 -62.5t66.5 -34.5t73.5 -11q43 0 86 8t82 34.5t69 73.5t46 125l39 185q8 33 8 69q0 102 -63.5 158.5t-161.5 56.5q-102 0 -173 -53t-96 -186l-36 -201q-6 -37 -7 -68zM387 1468l139 62l240 -348l-78 -47z" />
<glyph unicode="&#xf3;" horiz-adv-x="1034" d="M100 340q0 23 2 45.5t7 46.5l41 217q35 176 140 276.5t306 100.5q92 0 163.5 -28.5t122 -78t77 -115t26.5 -138.5q0 -45 -8 -84l-45 -232q-23 -106 -67 -176t-104.5 -110.5t-134 -57t-155.5 -16.5q-70 0 -136.5 21.5t-118.5 65.5t-84 109.5t-32 153.5zM276 354 q0 -55 18.5 -94t48.5 -62.5t66.5 -34.5t73.5 -11q43 0 86 8t82 34.5t69 73.5t46 125l39 185q8 33 8 69q0 102 -63.5 158.5t-161.5 56.5q-102 0 -173 -53t-96 -186l-36 -201q-6 -37 -7 -68zM563 1169l219 363l156 -51l-274 -353z" />
<glyph unicode="&#xf4;" horiz-adv-x="1034" d="M100 340q0 23 2 45.5t7 46.5l41 217q35 176 140 276.5t306 100.5q92 0 163.5 -28.5t122 -78t77 -115t26.5 -138.5q0 -45 -8 -84l-45 -232q-23 -106 -67 -176t-104.5 -110.5t-134 -57t-155.5 -16.5q-70 0 -136.5 21.5t-118.5 65.5t-84 109.5t-32 153.5zM276 354 q0 -55 18.5 -94t48.5 -62.5t66.5 -34.5t73.5 -11q43 0 86 8t82 34.5t69 73.5t46 125l39 185q8 33 8 69q0 102 -63.5 158.5t-161.5 56.5q-102 0 -173 -53t-96 -186l-36 -201q-6 -37 -7 -68zM305 1217l365 305h108l234 -310l-86 -79l-211 223l-336 -226z" />
<glyph unicode="&#xf5;" horiz-adv-x="1034" d="M100 340q0 23 2 45.5t7 46.5l41 217q35 176 140 276.5t306 100.5q92 0 163.5 -28.5t122 -78t77 -115t26.5 -138.5q0 -45 -8 -84l-45 -232q-23 -106 -67 -176t-104.5 -110.5t-134 -57t-155.5 -16.5q-70 0 -136.5 21.5t-118.5 65.5t-84 109.5t-32 153.5zM276 354 q0 -55 18.5 -94t48.5 -62.5t66.5 -34.5t73.5 -11q43 0 86 8t82 34.5t69 73.5t46 125l39 185q8 33 8 69q0 102 -63.5 158.5t-161.5 56.5q-102 0 -173 -53t-96 -186l-36 -201q-6 -37 -7 -68zM285 1249q49 92 120 137.5t132 45.5q37 0 69.5 -14.5t63 -32t59.5 -32t55 -14.5 q29 0 65 21.5t77 71.5l92 -64q-57 -98 -119.5 -140t-126.5 -42q-37 0 -69.5 13t-63.5 29.5t-60.5 30t-60.5 13.5q-35 0 -64.5 -17.5t-76.5 -64.5z" />
<glyph unicode="&#xf6;" horiz-adv-x="1034" d="M100 340q0 23 2 45.5t7 46.5l41 217q35 176 140 276.5t306 100.5q92 0 163.5 -28.5t122 -78t77 -115t26.5 -138.5q0 -45 -8 -84l-45 -232q-23 -106 -67 -176t-104.5 -110.5t-134 -57t-155.5 -16.5q-70 0 -136.5 21.5t-118.5 65.5t-84 109.5t-32 153.5zM276 354 q0 -55 18.5 -94t48.5 -62.5t66.5 -34.5t73.5 -11q43 0 86 8t82 34.5t69 73.5t46 125l39 185q8 33 8 69q0 102 -63.5 158.5t-161.5 56.5q-102 0 -173 -53t-96 -186l-36 -201q-6 -37 -7 -68zM387 1288q0 47 37 83t84 36q37 0 59.5 -22.5t22.5 -57.5q0 -12 -2 -18 q-10 -41 -44 -71t-75 -30q-35 0 -58.5 22.5t-23.5 57.5zM788 1288q0 47 37 83t82 36q37 0 60.5 -22.5t23.5 -57.5q0 -12 -2 -18q-10 -41 -45 -71t-76 -30q-35 0 -57.5 22.5t-22.5 57.5z" />
<glyph unicode="&#xf7;" horiz-adv-x="1024" d="M78 537l26 129h924l-27 -129h-923zM365 215q0 55 43 96t98 41q43 0 69.5 -25.5t26.5 -66.5q0 -57 -44 -98t-97 -41q-43 0 -69.5 26.5t-26.5 67.5zM506 946q0 55 44 97t99 42q41 0 67.5 -26.5t26.5 -67.5q0 -29 -12 -53.5t-31.5 -44t-45 -30.5t-52.5 -11q-43 0 -69.5 26.5 t-26.5 67.5z" />
<glyph unicode="&#xf8;" horiz-adv-x="1034" d="M80 47l78 92q-57 80 -58 201q0 23 2 45.5t7 46.5l41 217q35 176 140 276.5t306 100.5q78 0 143.5 -21.5t112.5 -58.5l74 84l69 -55l-80 -94q70 -92 70 -215q0 -45 -8 -84l-45 -232q-23 -106 -67 -176t-104.5 -110.5t-134 -57t-155.5 -16.5q-70 0 -134.5 20.5t-117.5 63.5 l-72 -84zM276 354q0 -18 2.5 -35.5t6.5 -31.5l454 526q-59 49 -151 49q-102 0 -173 -53t-96 -186l-36 -201q-7 -37 -7 -68zM334 205q29 -29 68.5 -41t80.5 -12q43 0 86 8t82 34.5t69 73.5t46 125l39 185q8 33 8 69q0 51 -18 94z" />
<glyph unicode="&#xf9;" horiz-adv-x="1026" d="M72 260q0 23 3 45.5t7 46.5l131 664h176l-125 -641q-4 -20 -6 -38t-2 -34q0 -76 40 -108.5t103 -32.5q61 0 152.5 37t183.5 98l142 719h174l-197 -1016h-152l-4 106q-63 -41 -114.5 -63.5t-93 -34.5t-75.5 -15t-61 -3q-129 0 -205.5 70.5t-76.5 199.5zM385 1468l139 62 l240 -348l-78 -47z" />
<glyph unicode="&#xfa;" horiz-adv-x="1026" d="M72 260q0 23 3 45.5t7 46.5l131 664h176l-125 -641q-4 -20 -6 -38t-2 -34q0 -76 40 -108.5t103 -32.5q61 0 152.5 37t183.5 98l142 719h174l-197 -1016h-152l-4 106q-63 -41 -114.5 -63.5t-93 -34.5t-75.5 -15t-61 -3q-129 0 -205.5 70.5t-76.5 199.5zM571 1169l220 363 l155 -51l-274 -353z" />
<glyph unicode="&#xfb;" horiz-adv-x="1026" d="M72 260q0 23 3 45.5t7 46.5l131 664h176l-125 -641q-4 -20 -6 -38t-2 -34q0 -76 40 -108.5t103 -32.5q61 0 152.5 37t183.5 98l142 719h174l-197 -1016h-152l-4 106q-63 -41 -114.5 -63.5t-93 -34.5t-75.5 -15t-61 -3q-129 0 -205.5 70.5t-76.5 199.5zM299 1217l365 305 h108l234 -310l-86 -79l-211 223l-336 -226z" />
<glyph unicode="&#xfc;" horiz-adv-x="1026" d="M72 260q0 23 3 45.5t7 46.5l131 664h176l-125 -641q-4 -20 -6 -38t-2 -34q0 -76 40 -108.5t103 -32.5q61 0 152.5 37t183.5 98l142 719h174l-197 -1016h-152l-4 106q-63 -41 -114.5 -63.5t-93 -34.5t-75.5 -15t-61 -3q-129 0 -205.5 70.5t-76.5 199.5zM377 1288 q0 47 37 83t84 36q37 0 59.5 -22.5t22.5 -57.5q0 -12 -2 -18q-10 -41 -44 -71t-75 -30q-35 0 -58.5 22.5t-23.5 57.5zM778 1288q0 47 37 83t82 36q37 0 60.5 -22.5t23.5 -57.5q0 -12 -2 -18q-10 -41 -45 -71t-76 -30q-35 0 -57.5 22.5t-22.5 57.5z" />
<glyph unicode="&#xfd;" horiz-adv-x="915" d="M55 -412l228 430l-72 72l-98 926h180l35 -418l34 -442h7l303 567q45 84 65.5 136t20.5 118v41h178v-39q0 -92 -25.5 -156.5t-68.5 -140.5l-600 -1094h-187zM487 1169l220 363l155 -51l-274 -353z" />
<glyph unicode="&#xfe;" horiz-adv-x="1015" d="M-61 -406l346 1817h174l-94 -504q131 72 209.5 94.5t134.5 22.5q129 0 204.5 -61.5t75.5 -196.5q0 -25 -2 -50.5t-8 -53.5l-61 -312q-35 -174 -138.5 -268t-287.5 -94q-55 0 -123 11t-170 52l-88 -457h-172zM231 217q90 -41 151.5 -52t125.5 -11q41 0 79 9t68.5 32.5 t53 63.5t34.5 99l58 291q4 20 6 38t2 34q0 76 -41 104.5t-109 28.5q-59 0 -150 -35t-177 -84z" />
<glyph unicode="&#xff;" horiz-adv-x="915" d="M55 -412l228 430l-72 72l-98 926h180l35 -418l34 -442h7l303 567q45 84 65.5 136t20.5 118v41h178v-39q0 -92 -25.5 -156.5t-68.5 -140.5l-600 -1094h-187zM309 1288q0 47 37 83t84 36q37 0 59.5 -22.5t22.5 -57.5q0 -12 -2 -18q-10 -41 -44 -71t-75 -30 q-35 0 -58.5 22.5t-23.5 57.5zM711 1288q0 47 36.5 83t81.5 36q37 0 60.5 -22.5t23.5 -57.5q0 -12 -2 -18q-10 -41 -45 -71t-75 -30q-35 0 -57.5 22.5t-22.5 57.5z" />
<glyph unicode="&#x100;" horiz-adv-x="1222" d="M-55 0l757 1411h189l219 -1411h-190l-50 317h-557l-168 -317h-200zM408 489h436l-47 336l-41 328h-8l-164 -328zM563 1575l31 154h549l-31 -154h-549z" />
<glyph unicode="&#x101;" horiz-adv-x="1026" d="M68 260q0 23 3 45.5t7 46.5l61 312q35 174 129 268t269 94q27 0 57.5 -3t68 -14.5t84 -32t103.5 -52.5l41 90h153l-198 -1014h-154v102q-72 -33 -124 -54t-92 -34.5t-70.5 -18.5t-57.5 -5q-129 0 -204.5 70.5t-75.5 199.5zM250 303q0 -76 40 -108.5t103 -32.5t151.5 35.5 t182.5 83.5l88 477q-59 47 -132 73.5t-148 26.5q-82 0 -141.5 -49t-82.5 -166l-53 -268q-4 -20 -6 -38t-2 -34zM420 1229l31 153h548l-30 -153h-549z" />
<glyph unicode="&#x102;" horiz-adv-x="1222" d="M-55 0l757 1411h189l219 -1411h-190l-50 317h-557l-168 -317h-200zM408 489h436l-47 336l-41 328h-8l-164 -328zM569 1782h148q-10 -53 19.5 -91t94.5 -38q41 0 72 12t51.5 31.5t32.5 42t17 43.5h153q-8 -45 -31.5 -92.5t-64.5 -85t-102.5 -62t-145.5 -24.5 q-80 0 -130 26.5t-77.5 65.5t-35 85t-1.5 87z" />
<glyph unicode="&#x103;" horiz-adv-x="1026" d="M68 260q0 23 3 45.5t7 46.5l61 312q35 174 129 268t269 94q27 0 57.5 -3t68 -14.5t84 -32t103.5 -52.5l41 90h153l-198 -1014h-154v102q-72 -33 -124 -54t-92 -34.5t-70.5 -18.5t-57.5 -5q-129 0 -204.5 70.5t-75.5 199.5zM250 303q0 -76 40 -108.5t103 -32.5t151.5 35.5 t182.5 83.5l88 477q-59 47 -132 73.5t-148 26.5q-82 0 -141.5 -49t-82.5 -166l-53 -268q-4 -20 -6 -38t-2 -34zM416 1405v21.5t2 21.5h145v-12q0 -20 7.5 -43t21.5 -41.5t37.5 -30.5t58.5 -12q74 0 118 44t54 95h158q-12 -49 -38 -98.5t-67 -89t-98 -64.5t-137 -25 q-137 0 -199.5 63.5t-62.5 170.5z" />
<glyph unicode="&#x104;" horiz-adv-x="1222" d="M-55 0l757 1411h189l219 -1411h-66q-98 -111 -98 -188q0 -66 82 -66q25 0 56.5 8t66.5 29l23 -100q-45 -25 -97.5 -38.5t-103.5 -13.5q-78 0 -122 42t-44 106q0 47 25.5 102.5t87.5 120.5l-50 315h-557l-168 -317h-200zM408 489h436l-47 336l-41 328h-8l-164 -328z" />
<glyph unicode="&#x105;" horiz-adv-x="1026" d="M68 260q0 23 3 45.5t7 46.5l61 312q35 174 129 268t269 94q27 0 57.5 -3t68 -14.5t84 -32t103.5 -52.5l41 90h153l-198 -1014h-31q-98 -111 -98 -188q0 -66 82 -66q25 0 56.5 8t66.5 29l22 -100q-45 -25 -97.5 -38.5t-103.5 -13.5q-78 0 -121.5 42t-43.5 106 q0 47 25.5 103.5t88.5 121.5v98q-72 -33 -124 -54t-92 -34.5t-70.5 -18.5t-57.5 -5q-129 0 -204.5 70.5t-75.5 199.5zM250 303q0 -76 40 -108.5t103 -32.5t151.5 35.5t182.5 83.5l88 477q-59 47 -132 73.5t-148 26.5q-82 0 -141.5 -49t-82.5 -166l-53 -268q-4 -20 -6 -38 t-2 -34z" />
<glyph unicode="&#x106;" horiz-adv-x="1093" d="M111 377q0 23 3 47.5t7 48.5l96 492q41 213 174 336.5t383 123.5q117 0 224.5 -34.5t185.5 -100.5l-121 -145q-23 23 -58.5 43t-76.5 35.5t-85 23.5t-83 8q-143 0 -234.5 -76.5t-126.5 -252.5l-88 -430q-4 -23 -6 -44.5t-2 -39.5q0 -66 22.5 -113t61.5 -78t91 -46 t114 -15q80 0 175 27.5t169 80.5l78 -155q-37 -27 -86 -49.5t-107.5 -40t-121 -27.5t-124.5 -10q-94 0 -179 26.5t-148.5 76.5t-100 123t-36.5 165zM717 1597l352 250l96 -125l-389 -211z" />
<glyph unicode="&#x107;" horiz-adv-x="872" d="M84 307q0 45 8 84l51 273q33 174 142.5 268t289.5 94q88 0 180.5 -28.5t147.5 -104.5l-110 -123q-47 57 -107.5 75.5t-105.5 18.5q-100 0 -172 -56t-97 -185l-45 -230q-6 -31 -6 -57q0 -49 18.5 -84t47 -56.5t65.5 -31.5t74 -10q47 0 111.5 18t121.5 66l101 -134 q-78 -66 -172.5 -90t-182.5 -24q-70 0 -134 19.5t-114.5 58t-81 98t-30.5 141.5zM496 1169l219 363l155 -51l-274 -353z" />
<glyph unicode="&#x108;" horiz-adv-x="1093" d="M111 377q0 23 3 47.5t7 48.5l96 492q41 213 174 336.5t383 123.5q117 0 224.5 -34.5t185.5 -100.5l-121 -145q-23 23 -58.5 43t-76.5 35.5t-85 23.5t-83 8q-143 0 -234.5 -76.5t-126.5 -252.5l-88 -430q-4 -23 -6 -44.5t-2 -39.5q0 -66 22.5 -113t61.5 -78t91 -46 t114 -15q80 0 175 27.5t169 80.5l78 -155q-37 -27 -86 -49.5t-107.5 -40t-121 -27.5t-124.5 -10q-94 0 -179 26.5t-148.5 76.5t-100 123t-36.5 165zM459 1591l360 269h109l241 -265l-77 -75l-240 176l-348 -183z" />
<glyph unicode="&#x109;" horiz-adv-x="872" d="M84 307q0 45 8 84l51 273q33 174 142.5 268t289.5 94q88 0 180.5 -28.5t147.5 -104.5l-110 -123q-47 57 -107.5 75.5t-105.5 18.5q-100 0 -172 -56t-97 -185l-45 -230q-6 -31 -6 -57q0 -49 18.5 -84t47 -56.5t65.5 -31.5t74 -10q47 0 111.5 18t121.5 66l101 -134 q-78 -66 -172.5 -90t-182.5 -24q-70 0 -134 19.5t-114.5 58t-81 98t-30.5 141.5zM256 1217l365 305h108l234 -310l-86 -79l-211 223l-336 -226z" />
<glyph unicode="&#x10a;" horiz-adv-x="1093" d="M111 377q0 23 3 47.5t7 48.5l96 492q41 213 174 336.5t383 123.5q117 0 224.5 -34.5t185.5 -100.5l-121 -145q-23 23 -58.5 43t-76.5 35.5t-85 23.5t-83 8q-143 0 -234.5 -76.5t-126.5 -252.5l-88 -430q-4 -23 -6 -44.5t-2 -39.5q0 -66 22.5 -113t61.5 -78t91 -46 t114 -15q80 0 175 27.5t169 80.5l78 -155q-37 -27 -86 -49.5t-107.5 -40t-121 -27.5t-124.5 -10q-94 0 -179 26.5t-148.5 76.5t-100 123t-36.5 165zM721 1602q0 47 32.5 84.5t88.5 37.5q39 0 65.5 -22.5t26.5 -65.5q0 -51 -38 -85.5t-85 -34.5q-37 0 -63.5 24.5t-26.5 61.5z " />
<glyph unicode="&#x10b;" horiz-adv-x="872" d="M84 307q0 45 8 84l51 273q33 174 142.5 268t289.5 94q88 0 180.5 -28.5t147.5 -104.5l-110 -123q-47 57 -107.5 75.5t-105.5 18.5q-100 0 -172 -56t-97 -185l-45 -230q-6 -31 -6 -57q0 -49 18.5 -84t47 -56.5t65.5 -31.5t74 -10q47 0 111.5 18t121.5 66l101 -134 q-78 -66 -172.5 -90t-182.5 -24q-70 0 -134 19.5t-114.5 58t-81 98t-30.5 141.5zM522 1294q0 47 33 85t88 38q39 0 65.5 -22.5t26.5 -65.5q0 -51 -38 -86t-85 -35q-37 0 -63.5 24.5t-26.5 61.5z" />
<glyph unicode="&#x10c;" horiz-adv-x="1093" d="M111 377q0 23 3 47.5t7 48.5l96 492q41 213 174 336.5t383 123.5q117 0 224.5 -34.5t185.5 -100.5l-121 -145q-23 23 -58.5 43t-76.5 35.5t-85 23.5t-83 8q-143 0 -234.5 -76.5t-126.5 -252.5l-88 -430q-4 -23 -6 -44.5t-2 -39.5q0 -66 22.5 -113t61.5 -78t91 -46 t114 -15q80 0 175 27.5t169 80.5l78 -155q-37 -27 -86 -49.5t-107.5 -40t-121 -27.5t-124.5 -10q-94 0 -179 26.5t-148.5 76.5t-100 123t-36.5 165zM500 1780l73 71l240 -172l352 183l45 -78l-360 -268h-109z" />
<glyph unicode="&#x10d;" horiz-adv-x="872" d="M84 307q0 45 8 84l51 273q33 174 142.5 268t289.5 94q88 0 180.5 -28.5t147.5 -104.5l-110 -123q-47 57 -107.5 75.5t-105.5 18.5q-100 0 -172 -56t-97 -185l-45 -230q-6 -31 -6 -57q0 -49 18.5 -84t47 -56.5t65.5 -31.5t74 -10q47 0 111.5 18t121.5 66l101 -134 q-78 -66 -172.5 -90t-182.5 -24q-70 0 -134 19.5t-114.5 58t-81 98t-30.5 141.5zM313 1446l95 78l225 -228l321 226l66 -80l-352 -309h-109z" />
<glyph unicode="&#x10e;" horiz-adv-x="1239" d="M37 0l274 1411h504q94 0 172 -24.5t133.5 -71.5t86 -113.5t30.5 -152.5q0 -41 -10 -99l-90 -491q-23 -109 -58 -194t-93 -144.5t-145 -90t-210 -30.5h-594zM258 168h365q55 0 107 15.5t95 52t76 98t51 155.5l82 429q4 25 7 46t3 42q0 63 -21.5 108t-58 72.5t-88 40 t-112.5 12.5h-297zM451 1780l73 71l240 -172l352 183l45 -78l-360 -268h-109z" />
<glyph unicode="&#x10f;" horiz-adv-x="1292" d="M72 256q0 23 3 46.5t7 49.5l59 312q16 86 58.5 153.5t99.5 113.5t127 70.5t143 24.5q55 0 127 -12.5t166 -44.5l96 497h175l-285 -1466h-154v106q-127 -74 -207.5 -95t-136.5 -21q-129 0 -203.5 67.5t-74.5 198.5zM254 299q0 -76 39 -108.5t106 -32.5q59 0 151.5 31.5 t178.5 86.5l100 521q-76 29 -144.5 46t-131.5 17q-80 0 -148.5 -49t-91.5 -168l-53 -281q-6 -37 -6 -63zM1149 1126q53 35 88 66t51 88q-35 4 -53 30.5t-18 61.5q0 25 10 48.5t29.5 43t47 31.5t62.5 12q63 0 87 -37.5t24 -80.5q0 -59 -26 -111.5t-67 -96.5t-90 -77t-98 -51z " />
<glyph unicode="&#x110;" horiz-adv-x="1239" d="M33 664l26 139h134l118 608h504q94 0 172 -24.5t133.5 -71.5t86 -113.5t30.5 -152.5q0 -41 -10 -99l-90 -491q-23 -109 -58 -194t-93 -144.5t-145 -90t-210 -30.5h-594l129 664h-133zM258 168h365q55 0 107 15.5t95 52t76 98t51 155.5l82 429q4 25 7 46t3 42 q0 63 -21.5 108t-58 72.5t-88 40t-112.5 12.5h-297l-86 -436h223l-26 -139h-224z" />
<glyph unicode="&#x111;" horiz-adv-x="1026" d="M72 256q0 23 3 46.5t7 49.5l59 312q16 86 58.5 153.5t99.5 113.5t127 70.5t143 24.5q55 0 127 -12.5t166 -44.5l39 202h-350l27 140h350l30 155h175l-31 -155h94l-27 -140h-94l-227 -1171h-154v106q-127 -74 -207.5 -95t-136.5 -21q-129 0 -203.5 67.5t-74.5 198.5z M254 299q0 -76 39 -108.5t106 -32.5q59 0 151.5 31.5t178.5 86.5l100 521q-76 29 -144.5 46t-131.5 17q-80 0 -148.5 -49t-91.5 -168l-53 -281q-6 -37 -6 -63z" />
<glyph unicode="&#x112;" horiz-adv-x="1140" d="M43 0l274 1411h922l-33 -172h-733l-86 -448h643l-33 -170h-645l-88 -451h795l-33 -170h-983zM526 1575l31 154h549l-31 -154h-549z" />
<glyph unicode="&#x113;" horiz-adv-x="962" d="M72 322q0 70 15 164t42 184q47 168 161 262t294 94q154 0 248 -73.5t94 -202.5q0 -63 -22.5 -126t-87 -112t-179.5 -79t-297 -30h-43.5t-44.5 3q-10 -41 -10 -74q0 -80 52 -132.5t157 -52.5q59 0 118.5 23t106.5 74l119 -127q-76 -70 -165 -99.5t-188 -29.5 q-178 0 -274 90t-96 244zM274 559q25 -2 47.5 -2h45.5q123 0 196.5 16.5t113.5 42t53 56t13 59.5q0 66 -41 100.5t-129 34.5q-131 0 -200.5 -82t-98.5 -225zM379 1229l31 153h548l-30 -153h-549z" />
<glyph unicode="&#x114;" horiz-adv-x="1140" d="M43 0l274 1411h922l-33 -172h-733l-86 -448h643l-33 -170h-645l-88 -451h795l-33 -170h-983zM539 1782h147q-10 -53 19.5 -91t95.5 -38q41 0 71.5 12t51 31.5t33 42t16.5 43.5h153q-8 -45 -31.5 -92.5t-64.5 -85t-102.5 -62t-145.5 -24.5q-80 0 -130 26.5t-77.5 65.5 t-35 85t-0.5 87z" />
<glyph unicode="&#x115;" horiz-adv-x="962" d="M72 322q0 70 15 164t42 184q47 168 161 262t294 94q154 0 248 -73.5t94 -202.5q0 -63 -22.5 -126t-87 -112t-179.5 -79t-297 -30h-43.5t-44.5 3q-10 -41 -10 -74q0 -80 52 -132.5t157 -52.5q59 0 118.5 23t106.5 74l119 -127q-76 -70 -165 -99.5t-188 -29.5 q-178 0 -274 90t-96 244zM274 559q25 -2 47.5 -2h45.5q123 0 196.5 16.5t113.5 42t53 56t13 59.5q0 66 -41 100.5t-129 34.5q-131 0 -200.5 -82t-98.5 -225zM358 1405v21.5t2 21.5h146v-12q0 -20 7 -43t21.5 -41.5t38 -30.5t58.5 -12q74 0 118 44t54 95h158 q-12 -49 -38 -98.5t-67 -89t-98.5 -64.5t-136.5 -25q-137 0 -200 63.5t-63 170.5z" />
<glyph unicode="&#x116;" horiz-adv-x="1140" d="M43 0l274 1411h922l-33 -172h-733l-86 -448h643l-33 -170h-645l-88 -451h795l-33 -170h-983zM713 1632q0 47 32.5 85t88.5 38q39 0 65.5 -22.5t26.5 -65.5q0 -51 -38 -86t-85 -35q-37 0 -63.5 24.5t-26.5 61.5z" />
<glyph unicode="&#x117;" horiz-adv-x="962" d="M72 322q0 70 15 164t42 184q47 168 161 262t294 94q154 0 248 -73.5t94 -202.5q0 -63 -22.5 -126t-87 -112t-179.5 -79t-297 -30h-43.5t-44.5 3q-10 -41 -10 -74q0 -80 52 -132.5t157 -52.5q59 0 118.5 23t106.5 74l119 -127q-76 -70 -165 -99.5t-188 -29.5 q-178 0 -274 90t-96 244zM274 559q25 -2 47.5 -2h45.5q123 0 196.5 16.5t113.5 42t53 56t13 59.5q0 66 -41 100.5t-129 34.5q-131 0 -200.5 -82t-98.5 -225zM541 1294q0 47 32.5 85t88.5 38q39 0 65.5 -22.5t26.5 -65.5q0 -51 -38 -86t-85 -35q-37 0 -63.5 24.5t-26.5 61.5z " />
<glyph unicode="&#x118;" horiz-adv-x="1140" d="M43 0l274 1411h922l-33 -172h-733l-86 -448h643l-33 -170h-645l-88 -451h795l-33 -170h-41q-98 -111 -98 -188q0 -66 82 -66q25 0 56.5 8t66.5 29l22 -100q-45 -25 -97.5 -38.5t-103.5 -13.5q-78 0 -121.5 42t-43.5 106q0 47 25.5 102.5t84.5 118.5h-815z" />
<glyph unicode="&#x119;" horiz-adv-x="962" d="M72 322q0 70 15 164t42 184q47 168 160.5 262t294.5 94q154 0 248 -73.5t94 -202.5q0 -63 -22.5 -126t-87 -112t-179.5 -79t-297 -30h-43.5t-44.5 3q-10 -41 -10 -74q0 -80 52 -132.5t157 -52.5q59 0 118.5 23t106.5 74l119 -127q-39 -35 -84 -62q-98 -111 -99 -188 q0 -66 82 -66q25 0 56.5 8.5t66.5 28.5l23 -100q-45 -25 -97.5 -38t-103.5 -13q-78 0 -122 42t-44 105q0 35 13.5 75t45.5 85q-43 -6 -90 -6q-178 0 -274 90t-96 244zM274 559q25 -2 47.5 -2h45.5q123 0 196.5 16.5t113.5 42t53 56t13 59.5q0 66 -41 100.5t-129 34.5 q-131 0 -200.5 -82t-98.5 -225z" />
<glyph unicode="&#x11a;" horiz-adv-x="1140" d="M43 0l274 1411h922l-33 -172h-733l-86 -448h643l-33 -170h-645l-88 -451h795l-33 -170h-983zM473 1780l74 71l239 -172l353 183l45 -78l-361 -268h-108z" />
<glyph unicode="&#x11b;" horiz-adv-x="962" d="M72 322q0 70 15 164t42 184q47 168 161 262t294 94q154 0 248 -73.5t94 -202.5q0 -63 -22.5 -126t-87 -112t-179.5 -79t-297 -30h-43.5t-44.5 3q-10 -41 -10 -74q0 -80 52 -132.5t157 -52.5q59 0 118.5 23t106.5 74l119 -127q-76 -70 -165 -99.5t-188 -29.5 q-178 0 -274 90t-96 244zM274 559q25 -2 47.5 -2h45.5q123 0 196.5 16.5t113.5 42t53 56t13 59.5q0 66 -41 100.5t-129 34.5q-131 0 -200.5 -82t-98.5 -225zM313 1446l95 78l225 -228l321 226l66 -80l-352 -309h-109z" />
<glyph unicode="&#x11c;" horiz-adv-x="1187" d="M117 389q0 45 10 103l90 473q41 215 189.5 337.5t390.5 122.5q117 0 225 -30.5t176 -96.5l-115 -147q-47 45 -130 72.5t-162 27.5q-72 0 -135.5 -18.5t-115 -57t-88 -100t-53.5 -149.5l-86 -441q-4 -20 -6 -38.5t-2 -36.5q0 -66 24.5 -113t62.5 -78t87 -45t99 -14 q47 0 117.5 13t156.5 71l63 329h-225l33 170h412l-111 -585q-100 -96 -221 -134t-238 -38q-92 0 -173 26.5t-142.5 78.5t-97 127t-35.5 171zM457 1591l360 269h109l241 -265l-77 -75l-240 176l-348 -183z" />
<glyph unicode="&#x11d;" horiz-adv-x="1021" d="M-4 -287l127 117q39 -47 109.5 -70.5t127.5 -23.5q49 0 97.5 10t88.5 38t70.5 75t45.5 118l26 129q-66 -41 -117 -63.5t-92 -34.5t-73.5 -15t-59.5 -3q-139 0 -209.5 67.5t-70.5 190.5q0 25 3 50.5t7 53.5l55 287q41 207 153.5 297t301.5 90q33 0 85 -6t111.5 -20.5 t123 -36t116.5 -52.5l-191 -972q-35 -176 -151.5 -269.5t-327.5 -93.5q-45 0 -95 8t-99 24.5t-91 42t-71 62.5zM248 305q0 -82 42 -114.5t103 -32.5q63 0 151.5 30.5t178.5 94.5l102 522q-68 35 -130 49t-122 14q-113 0 -179 -62.5t-89 -178.5l-51 -256q-6 -37 -6 -66z M303 1217l365 305h108l234 -310l-86 -79l-211 223l-336 -226z" />
<glyph unicode="&#x11e;" horiz-adv-x="1187" d="M117 389q0 45 10 103l90 473q41 215 189.5 337.5t390.5 122.5q117 0 225 -30.5t176 -96.5l-115 -147q-47 45 -130 72.5t-162 27.5q-72 0 -135.5 -18.5t-115 -57t-88 -100t-53.5 -149.5l-86 -441q-4 -20 -6 -38.5t-2 -36.5q0 -66 24.5 -113t62.5 -78t87 -45t99 -14 q47 0 117.5 13t156.5 71l63 329h-225l33 170h412l-111 -585q-100 -96 -221 -134t-238 -38q-92 0 -173 26.5t-142.5 78.5t-97 127t-35.5 171zM553 1782h147q-10 -53 20 -91t95 -38q41 0 72 12t51 31.5t32.5 42t16.5 43.5h154q-8 -45 -32 -92.5t-64.5 -85t-102 -62 t-145.5 -24.5q-80 0 -130.5 26.5t-78 65.5t-34.5 85t-1 87z" />
<glyph unicode="&#x11f;" horiz-adv-x="1021" d="M-4 -287l127 117q39 -47 109.5 -70.5t127.5 -23.5q49 0 97.5 10t88.5 38t70.5 75t45.5 118l26 129q-66 -41 -117 -63.5t-92 -34.5t-73.5 -15t-59.5 -3q-139 0 -209.5 67.5t-70.5 190.5q0 25 3 50.5t7 53.5l55 287q41 207 153.5 297t301.5 90q33 0 85 -6t111.5 -20.5 t123 -36t116.5 -52.5l-191 -972q-35 -176 -151.5 -269.5t-327.5 -93.5q-45 0 -95 8t-99 24.5t-91 42t-71 62.5zM248 305q0 -82 42 -114.5t103 -32.5q63 0 151.5 30.5t178.5 94.5l102 522q-68 35 -130 49t-122 14q-113 0 -179 -62.5t-89 -178.5l-51 -256q-6 -37 -6 -66z M379 1405v21.5t2 21.5h145v-12q0 -20 7.5 -43t21.5 -41.5t37.5 -30.5t58.5 -12q74 0 118 44t54 95h158q-12 -49 -37.5 -98.5t-66.5 -89t-98.5 -64.5t-137.5 -25q-137 0 -199.5 63.5t-62.5 170.5z" />
<glyph unicode="&#x120;" horiz-adv-x="1187" d="M117 389q0 45 10 103l90 473q41 215 189.5 337.5t390.5 122.5q117 0 225 -30.5t176 -96.5l-115 -147q-47 45 -130 72.5t-162 27.5q-72 0 -135.5 -18.5t-115 -57t-88 -100t-53.5 -149.5l-86 -441q-4 -20 -6 -38.5t-2 -36.5q0 -66 24.5 -113t62.5 -78t87 -45t99 -14 q47 0 117.5 13t156.5 71l63 329h-225l33 170h412l-111 -585q-100 -96 -221 -134t-238 -38q-92 0 -173 26.5t-142.5 78.5t-97 127t-35.5 171zM719 1602q0 47 32.5 84.5t88.5 37.5q39 0 65.5 -22.5t26.5 -65.5q0 -51 -38 -85.5t-85 -34.5q-37 0 -63.5 24.5t-26.5 61.5z" />
<glyph unicode="&#x121;" horiz-adv-x="1021" d="M-4 -287l127 117q39 -47 109.5 -70.5t127.5 -23.5q49 0 97.5 10t88.5 38t70.5 75t45.5 118l26 129q-66 -41 -117 -63.5t-92 -34.5t-73.5 -15t-59.5 -3q-139 0 -209.5 67.5t-70.5 190.5q0 25 3 50.5t7 53.5l55 287q41 207 153.5 297t301.5 90q33 0 85 -6t111.5 -20.5 t123 -36t116.5 -52.5l-191 -972q-35 -176 -151.5 -269.5t-327.5 -93.5q-45 0 -95 8t-99 24.5t-91 42t-71 62.5zM248 305q0 -82 42 -114.5t103 -32.5q63 0 151.5 30.5t178.5 94.5l102 522q-68 35 -130 49t-122 14q-113 0 -179 -62.5t-89 -178.5l-51 -256q-6 -37 -6 -66z M563 1294q0 47 33 85t88 38q39 0 65.5 -22.5t26.5 -65.5q0 -51 -38 -86t-85 -35q-37 0 -63.5 24.5t-26.5 61.5z" />
<glyph unicode="&#x122;" horiz-adv-x="1187" d="M117 389q0 45 10 103l90 473q41 215 189.5 337.5t390.5 122.5q117 0 225 -30.5t176 -96.5l-115 -147q-47 45 -130 72.5t-162 27.5q-72 0 -135.5 -18.5t-115 -57t-88 -100t-53.5 -149.5l-86 -441q-4 -20 -6 -38.5t-2 -36.5q0 -66 24.5 -113t62.5 -78t87 -45t99 -14 q47 0 117.5 13t156.5 71l63 329h-225l33 170h412l-111 -585q-100 -96 -221 -134t-238 -38q-92 0 -173 26.5t-142.5 78.5t-97 127t-35.5 171zM309 -475q53 35 88 65.5t52 87.5q-35 4 -53.5 31t-18.5 62q0 25 10 48t29.5 42.5t47 32t62.5 12.5q63 0 87 -38t24 -81 q0 -59 -25.5 -111.5t-66.5 -96.5t-90 -76.5t-99 -51.5z" />
<glyph unicode="&#x123;" horiz-adv-x="1021" d="M-4 -287l127 117q39 -47 109.5 -70.5t127.5 -23.5q49 0 97.5 10t88.5 38t70.5 75t45.5 118l26 129q-66 -41 -117 -63.5t-92 -34.5t-73.5 -15t-59.5 -3q-139 0 -209.5 67.5t-70.5 190.5q0 25 3 50.5t7 53.5l55 287q41 207 153.5 297t301.5 90q33 0 85 -6t111.5 -20.5 t123 -36t116.5 -52.5l-191 -972q-35 -176 -151.5 -269.5t-327.5 -93.5q-45 0 -95 8t-99 24.5t-91 42t-71 62.5zM248 305q0 -82 42 -114.5t103 -32.5q63 0 151.5 30.5t178.5 94.5l102 522q-68 35 -130 49t-122 14q-113 0 -179 -62.5t-89 -178.5l-51 -256q-6 -37 -6 -66z M555 1298q0 57 25.5 110.5t66.5 97.5t90 77t99 51l47 -73q-53 -35 -88 -66t-52 -88q35 -4 53.5 -30.5t18.5 -61.5q0 -47 -39.5 -91t-109.5 -44q-63 0 -87 37.5t-24 80.5z" />
<glyph unicode="&#x124;" horiz-adv-x="1247" d="M29 0l274 1411h189l-119 -610h661l119 610h193l-275 -1411h-192l122 629h-661l-123 -629h-188zM483 1591l361 269h108l242 -265l-78 -75l-239 176l-349 -183z" />
<glyph unicode="&#x125;" horiz-adv-x="1017" d="M14 0l289 1466h174l-110 -557q68 39 120 62.5t93 36t72.5 15.5t58.5 3q129 0 204.5 -69.5t75.5 -198.5q0 -23 -3 -46.5t-7 -47.5l-129 -664h-176l125 641q4 20 6 37.5t2 34.5q0 78 -41 109.5t-106 31.5q-63 0 -151.5 -31.5t-178.5 -93.5l-142 -729h-176zM39 1591l360 269 h109l242 -265l-78 -75l-240 176l-348 -183z" />
<glyph unicode="&#x126;" horiz-adv-x="1247" d="M29 0l211 1092h-76l26 139h78l35 180h189l-35 -180h661l35 180h193l-35 -180h73l-26 -139h-74l-213 -1092h-192l122 629h-661l-123 -629h-188zM373 801h661l56 291h-662z" />
<glyph unicode="&#x127;" horiz-adv-x="1017" d="M14 0l230 1171h-119l27 140h120l31 155h174l-31 -155h459l-26 -140h-461l-51 -262q68 39 120 62.5t93 36t72.5 15.5t58.5 3q129 0 204.5 -69.5t75.5 -198.5q0 -23 -3 -46.5t-7 -47.5l-129 -664h-176l125 641q4 20 6 37.5t2 34.5q0 78 -41 109.5t-106 31.5 q-63 0 -151.5 -31.5t-178.5 -93.5l-142 -729h-176z" />
<glyph unicode="&#x128;" horiz-adv-x="516" d="M82 0l274 1411h189l-275 -1411h-188zM133 1577q49 92 120 137t132 45q37 0 69.5 -14t63.5 -31.5t59.5 -32t55.5 -14.5q29 0 64.5 21.5t76.5 70.5l92 -63q-57 -98 -119.5 -140.5t-125.5 -42.5q-37 0 -70 13.5t-63.5 30t-60.5 29.5t-60 13q-35 0 -65 -17t-77 -64z" />
<glyph unicode="&#x129;" horiz-adv-x="690" d="M143 1249q49 92 120 137.5t132 45.5q37 0 70 -14.5t63.5 -32t59 -32t55.5 -14.5q29 0 64.5 21.5t76.5 71.5l93 -64q-57 -98 -120 -140t-126 -42q-37 0 -70 13t-63.5 29.5t-60 30t-60.5 13.5q-35 0 -64.5 -17.5t-76.5 -64.5zM221 193q0 41 8 79l144 744h174l-137 -711 q-4 -23 -6.5 -39t-2.5 -30q0 -51 26 -66.5t73 -22.5l-33 -155h-23q-104 0 -163.5 49t-59.5 152z" />
<glyph unicode="&#x12a;" horiz-adv-x="516" d="M82 0l274 1411h189l-275 -1411h-188zM215 1575l31 154h549l-31 -154h-549z" />
<glyph unicode="&#x12b;" horiz-adv-x="581" d="M166 193q0 41 8 79l143 744h175l-138 -711q-4 -23 -6 -39t-2 -30q0 -51 25.5 -66.5t72.5 -22.5l-32 -155h-23q-104 0 -163.5 49t-59.5 152zM176 1229l31 153h549l-31 -153h-549z" />
<glyph unicode="&#x12c;" horiz-adv-x="555" d="M115 0l274 1411h189l-275 -1411h-188zM250 1782h147q-10 -53 19.5 -91t95.5 -38q41 0 71.5 12t51 31.5t33 42t16.5 43.5h154q-8 -45 -32 -92.5t-65 -85t-102 -62t-145 -24.5q-80 0 -130.5 26.5t-78 65.5t-34.5 85t-1 87z" />
<glyph unicode="&#x12d;" horiz-adv-x="604" d="M188 1417v21.5t2 21.5h146v-12q0 -20 7 -43t21.5 -41t38 -30.5t58.5 -12.5q74 0 118 44t54 95h158q-12 -49 -38 -98t-67 -89t-98.5 -64.5t-136.5 -24.5q-137 0 -200 63.5t-63 169.5zM193 193q0 41 8 79l143 744h174l-137 -711q-4 -23 -6 -39t-2 -30q0 -51 25.5 -66.5 t72.5 -22.5l-33 -155h-22q-104 0 -163.5 49t-59.5 152z" />
<glyph unicode="&#x12e;" horiz-adv-x="516" d="M4 -221q0 47 25.5 102.5t85.5 118.5h-33l274 1411h189l-275 -1411h-28q-98 -111 -99 -188q0 -66 82 -66q25 0 56.5 8t66.5 29l23 -100q-45 -25 -97.5 -38.5t-103.5 -13.5q-78 0 -122 42t-44 106z" />
<glyph unicode="&#x12f;" horiz-adv-x="507" d="M115 182q0 18 5 43t9 47l143 746h174l-137 -713q-4 -23 -6 -39t-2 -30q0 -51 20.5 -63.5t77.5 -25.5l-32 -155h-19q-88 -100 -88 -178q0 -66 82 -66q25 0 56.5 8t66.5 29l22 -100q-45 -25 -97 -38.5t-103 -13.5q-78 0 -122 42t-44 106q0 47 25.5 103.5t86.5 119.5 q-59 18 -88.5 61.5t-29.5 116.5zM311 1303q0 49 38 85.5t85 36.5q39 0 63.5 -23.5t24.5 -60.5q0 -12 -2 -18q-10 -43 -46 -73.5t-79 -30.5q-35 0 -59.5 24.5t-24.5 59.5z" />
<glyph unicode="&#x130;" horiz-adv-x="516" d="M82 0l274 1411h189l-275 -1411h-188zM385 1602q0 47 33 84.5t88 37.5q39 0 65.5 -22.5t26.5 -65.5q0 -51 -38 -85.5t-85 -34.5q-37 0 -63.5 24.5t-26.5 61.5z" />
<glyph unicode="&#x131;" horiz-adv-x="507" d="M121 193q0 41 8 79l143 744h174l-137 -711q-4 -23 -6 -39t-2 -30q0 -51 25.5 -66.5t72.5 -22.5l-32 -155h-23q-104 0 -163.5 49t-59.5 152z" />
<glyph unicode="&#x132;" horiz-adv-x="1488" d="M78 0l274 1411h189l-275 -1411h-188zM403 102l103 142q33 -25 74 -40.5t84 -25.5t83.5 -14t71.5 -4q61 0 113.5 16.5t94.5 55t72.5 103t49.5 161.5l178 915h189l-187 -956q-20 -109 -61 -196t-104.5 -147.5t-151.5 -93t-203 -32.5q-47 0 -104.5 7t-113.5 22.5t-105.5 37 t-82.5 49.5z" />
<glyph unicode="&#x133;" horiz-adv-x="935" d="M115 182q0 18 5 43t9 47l143 746h174l-137 -713q-4 -23 -6 -39t-2 -30q0 -51 20.5 -63.5t77.5 -25.5l-32 -155h-23q-117 0 -173 44t-56 146zM252 -420l31 160q55 -6 93 0t64.5 27.5t43 57.5t26.5 91l215 1102h172l-217 -1127q-14 -72 -32.5 -131t-51.5 -102t-85 -66.5 t-132 -23.5q-57 0 -127 12zM311 1303q0 49 38 85.5t85 36.5q39 0 63.5 -23.5t24.5 -60.5q0 -12 -2 -18q-10 -43 -46 -73.5t-79 -30.5q-35 0 -59.5 24.5t-24.5 59.5zM758 1303q0 49 38 85.5t85 36.5q39 0 63.5 -23.5t24.5 -60.5q0 -49 -40 -85.5t-87 -36.5q-35 0 -59.5 24.5 t-24.5 59.5z" />
<glyph unicode="&#x134;" horiz-adv-x="1067" d="M-18 104l102 142q33 -25 74 -40.5t84 -25.5t84 -14t71 -4q61 0 113.5 16.5t94.5 55t73 103t49 161.5l178 915h189l-187 -956q-20 -109 -61 -196t-104.5 -147.5t-151.5 -93t-203 -32.5q-47 0 -104.5 7t-113.5 22.5t-105.5 37t-81.5 49.5zM655 1595l361 269h108l242 -265 l-78 -75l-239 176l-349 -182z" />
<glyph unicode="&#x135;" horiz-adv-x="702" d="M-72 -420l31 160q55 -6 93 0t64.5 27.5t43 57.5t26.5 91l215 1102h172l-217 -1127q-14 -72 -32.5 -131t-51 -102t-85 -66.5t-132.5 -23.5q-57 0 -127 12zM150 1217l364 305h109l233 -310l-86 -79l-211 223l-336 -226z" />
<glyph unicode="&#x136;" horiz-adv-x="1208" d="M35 0l274 1411h189l-144 -745l756 745h227l-563 -557l336 -854h-197l-276 715l-336 -324l-76 -391h-190zM332 -446q53 35 88 65.5t51 87.5q-35 4 -53.5 30.5t-18.5 61.5q0 25 10.5 48.5t30 43t47 31.5t62.5 12q63 0 86.5 -37.5t23.5 -80.5q0 -59 -25.5 -111.5 t-66.5 -96.5t-90 -77t-98 -51z" />
<glyph unicode="&#x137;" horiz-adv-x="983" d="M53 0l283 1466h170l-156 -798h150q31 0 61.5 5t59 19.5t55 40t49.5 66.5l123 219h194l-141 -256q-35 -59 -72.5 -108.5t-109.5 -67.5q39 -14 62.5 -36t35.5 -47.5t17.5 -57t9.5 -64.5l51 -381h-182l-41 326q-14 104 -51 138t-117 34h-187l-96 -498h-168zM219 -475 q53 35 88 65.5t51 87.5q-35 4 -53 31t-18 62q0 25 10 48t29.5 42.5t47 32t62.5 12.5q63 0 87 -38t24 -81q0 -59 -25.5 -111.5t-66.5 -96.5t-90.5 -76.5t-98.5 -51.5z" />
<glyph unicode="&#x138;" horiz-adv-x="1003" d="M18 0l187 1016h170l-78 -416h162q29 0 57.5 3t57 16.5t54 41t48.5 78.5l123 279h184l-125 -289q-35 -76 -79 -129t-103 -70q66 -16 87 -66t32 -126l45 -338h-174l-35 297q-6 49 -19.5 79t-35 45t-49 20t-62.5 5h-197l-80 -446h-170z" />
<glyph unicode="&#x139;" horiz-adv-x="1095" d="M53 0l275 1411h188l-242 -1241h754l-33 -170h-942zM389 1597l352 250l97 -125l-389 -211z" />
<glyph unicode="&#x13a;" horiz-adv-x="495" d="M88 170q0 39 8 78l234 1218h170l-226 -1196q-6 -25 -6 -43q0 -47 30 -59t108 -16l-25 -160h-59q-123 0 -178.5 45t-55.5 133zM369 1638l352 250l96 -125l-389 -211z" />
<glyph unicode="&#x13b;" horiz-adv-x="1095" d="M53 0l275 1411h188l-242 -1241h754l-33 -170h-942zM276 -475q53 35 88 65.5t52 87.5q-35 4 -53.5 31t-18.5 62q0 25 10.5 48t29.5 42.5t47 32t63 12.5q63 0 86.5 -38t23.5 -81q0 -59 -25.5 -111.5t-66.5 -96.5t-90 -76.5t-98 -51.5z" />
<glyph unicode="&#x13c;" horiz-adv-x="495" d="M-47 -475q53 35 88 65.5t51 87.5q-35 4 -53.5 31t-18.5 62q0 25 10.5 48t30 42.5t47 32t62.5 12.5q63 0 87 -38t24 -81q0 -59 -26 -111.5t-67 -96.5t-90 -76.5t-98 -51.5zM88 170q0 39 8 78l234 1218h170l-226 -1196q-6 -25 -6 -43q0 -47 30 -59t108 -16l-25 -160h-59 q-123 0 -178.5 45t-55.5 133z" />
<glyph unicode="&#x13d;" horiz-adv-x="1095" d="M53 0l275 1411h188l-242 -1241h754l-33 -170h-942zM670 1047q53 35 88 65.5t51 87.5q-35 4 -53.5 30.5t-18.5 61.5q0 25 10.5 48.5t30 43t47 31.5t62.5 12q63 0 86.5 -37.5t23.5 -80.5q0 -59 -25.5 -111.5t-66.5 -96.5t-90 -77t-98 -51z" />
<glyph unicode="&#x13e;" horiz-adv-x="722" d="M88 170q0 39 8 78l234 1218h170l-226 -1196q-6 -25 -6 -43q0 -47 30 -59t108 -16l-25 -160h-59q-123 0 -178.5 45t-55.5 133zM535 1110q53 35 87.5 65.5t51.5 88.5q-35 4 -53.5 30.5t-18.5 61.5q0 25 10.5 48t30 42.5t47 32t62.5 12.5q63 0 86.5 -38t23.5 -81 q0 -59 -25.5 -111.5t-66.5 -96.5t-90 -76.5t-98 -51.5z" />
<glyph unicode="&#x13f;" horiz-adv-x="1095" d="M53 0l275 1411h188l-242 -1241h754l-33 -170h-942zM637 709q0 47 32.5 84.5t88.5 37.5q39 0 65.5 -22.5t26.5 -65.5q0 -51 -38 -85.5t-85 -34.5q-37 0 -63.5 24.5t-26.5 61.5z" />
<glyph unicode="&#x140;" horiz-adv-x="651" d="M88 170q0 39 8 78l234 1218h170l-226 -1196q-6 -25 -6 -43q0 -47 30 -59t108 -16l-25 -160h-59q-123 0 -178.5 45t-55.5 133zM502 764q0 47 32.5 85t88.5 38q39 0 65.5 -22.5t26.5 -65.5q0 -51 -38 -86t-85 -35q-37 0 -63.5 24.5t-26.5 61.5z" />
<glyph unicode="&#x141;" horiz-adv-x="1095" d="M0 518l172 90l156 803h188l-135 -694l371 194l45 -118l-447 -234l-76 -389h754l-33 -170h-942l88 451l-98 -52z" />
<glyph unicode="&#x142;" horiz-adv-x="593" d="M8 633l244 127l135 706h170l-115 -608l164 86l43 -119l-237 -123l-80 -432q-6 -25 -6 -43q0 -47 29.5 -59t107.5 -16l-25 -160h-59q-123 0 -178.5 45t-55.5 133q0 39 9 78l67 354l-172 -88z" />
<glyph unicode="&#x143;" horiz-adv-x="1320" d="M39 0l268 1411h178l357 -788l129 -293h14l205 1081h186l-268 -1411h-182l-346 762l-138 309h-14l-203 -1071h-186zM717 1597l352 250l96 -125l-389 -211z" />
<glyph unicode="&#x144;" horiz-adv-x="1017" d="M14 0l199 1016h154v-107q76 43 129 66.5t92 35t67.5 13.5t55.5 2q129 0 204.5 -69.5t75.5 -198.5q0 -23 -3 -46.5t-7 -47.5l-129 -664h-176l125 641q4 20 6 37.5t2 34.5q0 78 -41 109.5t-106 31.5q-63 0 -148.5 -31.5t-181.5 -93.5l-142 -729h-176zM510 1169l219 363 l156 -51l-275 -353z" />
<glyph unicode="&#x145;" horiz-adv-x="1320" d="M39 0l268 1411h178l357 -788l129 -293h14l205 1081h186l-268 -1411h-182l-346 762l-138 309h-14l-203 -1071h-186zM381 -434q53 35 88 65.5t51 87.5q-35 4 -53 31t-18 62q0 25 10 48t29.5 42.5t47 32t62.5 12.5q63 0 87 -38t24 -81q0 -59 -26 -111.5t-67 -96.5t-90 -76.5 t-98 -51.5z" />
<glyph unicode="&#x146;" horiz-adv-x="1017" d="M14 0l199 1016h154v-107q76 43 129 66.5t92 35t67.5 13.5t55.5 2q129 0 204.5 -69.5t75.5 -198.5q0 -23 -3 -46.5t-7 -47.5l-129 -664h-176l125 641q4 20 6 37.5t2 34.5q0 78 -41 109.5t-106 31.5q-63 0 -148.5 -31.5t-181.5 -93.5l-142 -729h-176zM219 -475 q53 35 88 65.5t51 87.5q-35 4 -53 31t-18 62q0 25 10 48t29.5 42.5t47 32t62.5 12.5q63 0 87 -38t24 -81q0 -59 -25.5 -111.5t-66.5 -96.5t-90.5 -76.5t-98.5 -51.5z" />
<glyph unicode="&#x147;" horiz-adv-x="1320" d="M39 0l268 1411h178l357 -788l129 -293h14l205 1081h186l-268 -1411h-182l-346 762l-138 309h-14l-203 -1071h-186zM528 1780l74 71l240 -172l352 183l45 -78l-360 -268h-109z" />
<glyph unicode="&#x148;" horiz-adv-x="1017" d="M14 0l199 1016h154v-107q76 43 129 66.5t92 35t67.5 13.5t55.5 2q129 0 204.5 -69.5t75.5 -198.5q0 -23 -3 -46.5t-7 -47.5l-129 -664h-176l125 641q4 20 6 37.5t2 34.5q0 78 -41 109.5t-106 31.5q-63 0 -148.5 -31.5t-181.5 -93.5l-142 -729h-176zM330 1446l94 78 l225 -228l322 226l65 -80l-352 -309h-109z" />
<glyph unicode="&#x149;" horiz-adv-x="1210" d="M102 1014q53 35 88 65.5t52 87.5q-35 4 -53.5 31t-18.5 62q0 25 10 48t29.5 42.5t47 32t62.5 12.5q63 0 87 -38t24 -81q0 -59 -25.5 -111.5t-66.5 -96.5t-90 -77t-98 -51zM207 0l199 1016h153v-107q76 43 129 66.5t92 35t67.5 13.5t55.5 2q129 0 205 -69.5t76 -198.5 q0 -23 -3 -46.5t-7 -47.5l-130 -664h-176l125 641q4 20 6 37.5t2 34.5q0 78 -40.5 109.5t-106.5 31.5q-63 0 -148 -31.5t-182 -93.5l-141 -729h-176z" />
<glyph unicode="&#x14a;" horiz-adv-x="1294" d="M37 0l260 1411h174l358 -764l132 -293h14l194 1057h185l-285 -1538q-23 -117 -81 -167t-165 -50q-41 0 -77.5 10t-77.5 33l55 123q27 -6 47.5 -11.5t38.5 -5.5q41 0 62.5 22.5t31.5 76.5l17 90l-353 743l-139 310h-14l-193 -1047h-184z" />
<glyph unicode="&#x14b;" horiz-adv-x="995" d="M14 0l187 1016h153l-2 -113q74 41 129.5 65.5t98.5 37t74.5 16.5t58.5 4q135 0 195.5 -74.5t60.5 -187.5q0 -25 -3 -49.5t-8 -50.5l-147 -791q-23 -117 -91.5 -167t-154.5 -50q-41 0 -78.5 10t-78.5 33l55 123q20 -6 39.5 -10.5t36.5 -4.5q39 0 67.5 21.5t38.5 75.5 l137 737q6 33 6 66q0 68 -33.5 107.5t-111.5 39.5q-59 0 -146 -31.5t-173 -81.5l-138 -741h-172z" />
<glyph unicode="&#x14c;" horiz-adv-x="1249" d="M115 412q0 55 12 114l86 439q41 213 177 336.5t386 123.5q104 0 191.5 -31.5t150 -88t97 -133t34.5 -166.5q0 -47 -8 -88l-88 -472q-41 -211 -182.5 -335.5t-390.5 -124.5q-94 0 -178.5 28.5t-148 83t-101 133t-37.5 181.5zM307 418q0 -68 21.5 -116t58.5 -80t86 -47 t105 -15q176 0 270 91t129 263l76 387q4 20 6 40t2 36q0 68 -24.5 119t-65.5 86t-93.5 52t-109.5 17q-147 0 -243.5 -76.5t-129.5 -248.5l-80 -418q-4 -25 -6 -46.5t-2 -43.5zM580 1575l30 154h549l-31 -154h-548z" />
<glyph unicode="&#x14d;" horiz-adv-x="1034" d="M100 340q0 23 2 45.5t7 46.5l41 217q35 176 140 276.5t306 100.5q92 0 163.5 -28.5t122 -78t77 -115t26.5 -138.5q0 -45 -8 -84l-45 -232q-23 -106 -67 -176t-104.5 -110.5t-134 -57t-155.5 -16.5q-70 0 -136.5 21.5t-118.5 65.5t-84 109.5t-32 153.5zM276 354 q0 -55 18.5 -94t48.5 -62.5t66.5 -34.5t73.5 -11q43 0 86 8t82 34.5t69 73.5t46 125l39 185q8 33 8 69q0 102 -63.5 158.5t-161.5 56.5q-102 0 -173 -53t-96 -186l-36 -201q-6 -37 -7 -68zM408 1229l30 153h549l-31 -153h-548z" />
<glyph unicode="&#x14e;" horiz-adv-x="1249" d="M115 412q0 55 12 114l86 439q41 213 177 336.5t386 123.5q104 0 191.5 -31.5t150 -88t97 -133t34.5 -166.5q0 -47 -8 -88l-88 -472q-41 -211 -182.5 -335.5t-390.5 -124.5q-94 0 -178.5 28.5t-148 83t-101 133t-37.5 181.5zM307 418q0 -68 21.5 -116t58.5 -80t86 -47 t105 -15q176 0 270 91t129 263l76 387q4 20 6 40t2 36q0 68 -24.5 119t-65.5 86t-93.5 52t-109.5 17q-147 0 -243.5 -76.5t-129.5 -248.5l-80 -418q-4 -25 -6 -46.5t-2 -43.5zM588 1782h147q-10 -53 19.5 -91t95.5 -38q41 0 71.5 12t51 31.5t33 42t16.5 43.5h154 q-8 -45 -32 -92.5t-65 -85t-102.5 -62t-145.5 -24.5q-80 0 -130 26.5t-77.5 65.5t-34.5 85t-1 87z" />
<glyph unicode="&#x14f;" horiz-adv-x="1034" d="M100 340q0 23 2 45.5t7 46.5l41 217q35 176 140 276.5t306 100.5q92 0 163.5 -28.5t122 -78t77 -115t26.5 -138.5q0 -45 -8 -84l-45 -232q-23 -106 -67 -176t-104.5 -110.5t-134 -57t-155.5 -16.5q-70 0 -136.5 21.5t-118.5 65.5t-84 109.5t-32 153.5zM276 354 q0 -55 18.5 -94t48.5 -62.5t66.5 -34.5t73.5 -11q43 0 86 8t82 34.5t69 73.5t46 125l39 185q8 33 8 69q0 102 -63.5 158.5t-161.5 56.5q-102 0 -173 -53t-96 -186l-36 -201q-6 -37 -7 -68zM401 1405v21.5t2 21.5h146v-12q0 -20 7 -43t21.5 -41.5t38 -30.5t58.5 -12 q74 0 118 44t54 95h158q-12 -49 -38 -98.5t-67 -89t-98.5 -64.5t-136.5 -25q-137 0 -200 63.5t-63 170.5z" />
<glyph unicode="&#x150;" horiz-adv-x="1249" d="M115 412q0 55 12 114l86 439q41 213 177 336.5t386 123.5q104 0 191.5 -31.5t150 -88t97 -133t34.5 -166.5q0 -47 -8 -88l-88 -472q-41 -211 -182.5 -335.5t-390.5 -124.5q-94 0 -178.5 28.5t-148 83t-101 133t-37.5 181.5zM307 418q0 -68 21.5 -116t58.5 -80t86 -47 t105 -15q176 0 270 91t129 263l76 387q4 20 6 40t2 36q0 68 -24.5 119t-65.5 86t-93.5 52t-109.5 17q-147 0 -243.5 -76.5t-129.5 -248.5l-80 -418q-4 -25 -6 -46.5t-2 -43.5zM567 1597l303 250l121 -125l-348 -211zM901 1597l352 250l97 -125l-389 -211z" />
<glyph unicode="&#x151;" horiz-adv-x="1034" d="M100 340q0 23 2 45.5t7 46.5l41 217q35 176 140 276.5t306 100.5q92 0 163.5 -28.5t122 -78t77 -115t26.5 -138.5q0 -45 -8 -84l-45 -232q-23 -106 -67 -176t-104.5 -110.5t-134 -57t-155.5 -16.5q-70 0 -136.5 21.5t-118.5 65.5t-84 109.5t-32 153.5zM276 354 q0 -55 18.5 -94t48.5 -62.5t66.5 -34.5t73.5 -11q43 0 86 8t82 34.5t69 73.5t46 125l39 185q8 33 8 69q0 102 -63.5 158.5t-161.5 56.5q-102 0 -173 -53t-96 -186l-36 -201q-6 -37 -7 -68zM424 1169l219 363l156 -51l-275 -353zM688 1169l219 363l156 -51l-275 -353z" />
<glyph unicode="&#x152;" horiz-adv-x="1794" d="M115 403q0 57 12 123l86 439q41 213 181.5 336.5t379.5 123.5q43 0 91 -3t85 -11h942l-32 -172h-754l-86 -448h643l-33 -170h-645l-88 -451h754l-33 -170h-907q-33 -6 -68 -10t-72 -4q-98 0 -181 27.5t-144.5 80.5t-96 131t-34.5 178zM307 418q0 -68 21.5 -116t58.5 -80 t86.5 -47t104.5 -15q72 0 133 18l204 1051q-33 12 -68.5 17t-74.5 5q-160 0 -252 -76.5t-125 -248.5l-80 -418q-4 -25 -6 -46.5t-2 -43.5z" />
<glyph unicode="&#x153;" horiz-adv-x="1667" d="M92 311q0 43 8 82l52 269q35 176 144.5 270t309.5 94q94 0 188.5 -37t147.5 -108q59 70 146 107.5t200 37.5q154 0 248 -73.5t94 -202.5q0 -63 -22.5 -126t-87 -112t-179 -79t-297.5 -30h-43t-45 3q-10 -41 -10 -74q0 -80 52.5 -132.5t156.5 -52.5q59 0 118.5 23 t106.5 74l119 -127q-76 -70 -165 -99.5t-187 -29.5q-111 0 -190.5 36.5t-127.5 102.5q-68 -78 -161 -107.5t-197 -29.5q-70 0 -137.5 19.5t-121.5 59.5t-87 100t-33 142zM270 342q0 -49 19.5 -86t50.5 -59.5t68.5 -33.5t74.5 -11q43 0 86 8t82 34.5t69 73.5t46 125l43 219 q6 31 6 58q0 51 -20.5 87t-52 59.5t-72.5 34.5t-82 11q-102 0 -172 -53t-97 -186l-45 -230q-4 -14 -4 -26.5v-24.5zM979 559q25 -2 47.5 -2h44.5q123 0 196.5 16.5t113.5 42t53.5 56t13.5 59.5q0 66 -41 100.5t-129 34.5q-131 0 -200.5 -82t-98.5 -225z" />
<glyph unicode="&#x154;" horiz-adv-x="1171" d="M35 0l274 1411h578q86 0 148.5 -29.5t104.5 -80t61.5 -115t19.5 -131.5q0 -66 -18.5 -132.5t-58.5 -126t-103.5 -110.5t-151.5 -84l147 -602h-207l-122 567h-373l-111 -567h-188zM369 741h356q61 0 116.5 20.5t96.5 59.5t65.5 92.5t24.5 120.5q0 96 -53 150.5t-154 54.5 h-356zM614 1597l353 250l96 -125l-389 -211z" />
<glyph unicode="&#x155;" horiz-adv-x="653" d="M39 0l197 1016h149l-4 -144h2q66 57 166 102.5t207 53.5l-21 -194q-141 -23 -234 -50.5t-147 -58.5l-139 -725h-176zM395 1169l219 363l156 -51l-274 -353z" />
<glyph unicode="&#x156;" horiz-adv-x="1171" d="M35 0l274 1411h578q86 0 148.5 -29.5t104.5 -80t61.5 -115t19.5 -131.5q0 -66 -18.5 -132.5t-58.5 -126t-103.5 -110.5t-151.5 -84l147 -602h-207l-122 567h-373l-111 -567h-188zM297 -434q53 35 88 65.5t51 87.5q-35 4 -53 31t-18 62q0 25 10 48t29.5 42.5t47 32 t62.5 12.5q63 0 87 -38t24 -81q0 -59 -26 -111.5t-66.5 -96.5t-90 -76.5t-98.5 -51.5zM369 741h356q61 0 116.5 20.5t96.5 59.5t65.5 92.5t24.5 120.5q0 96 -53 150.5t-154 54.5h-356z" />
<glyph unicode="&#x157;" horiz-adv-x="653" d="M-115 -475q53 35 88 65.5t52 87.5q-35 4 -53.5 31t-18.5 62q0 25 10 48t29.5 42.5t47 32t62.5 12.5q63 0 87 -38t24 -81q0 -59 -25.5 -111.5t-66.5 -96.5t-90 -76.5t-99 -51.5zM39 0l197 1016h149l-4 -144h2q66 57 166 102.5t207 53.5l-21 -194q-141 -23 -234 -50.5 t-147 -58.5l-139 -725h-176z" />
<glyph unicode="&#x158;" horiz-adv-x="1171" d="M35 0l274 1411h578q86 0 148.5 -29.5t104.5 -80t61.5 -115t19.5 -131.5q0 -66 -18.5 -132.5t-58.5 -126t-103.5 -110.5t-151.5 -84l147 -602h-207l-122 567h-373l-111 -567h-188zM369 741h356q61 0 116.5 20.5t96.5 59.5t65.5 92.5t24.5 120.5q0 96 -53 150.5t-154 54.5 h-356zM430 1780l74 71l239 -172l353 183l45 -78l-361 -268h-108z" />
<glyph unicode="&#x159;" horiz-adv-x="653" d="M39 0l197 1016h149l-4 -144h2q66 57 166 102.5t207 53.5l-21 -194q-141 -23 -234 -50.5t-147 -58.5l-139 -725h-176zM162 1446l94 78l225 -228l322 226l65 -80l-352 -309h-108z" />
<glyph unicode="&#x15a;" horiz-adv-x="1138" d="M23 168q29 31 56 64.5t56 64.5q72 -63 170 -100t215 -37q76 0 141.5 19.5t114.5 54t78 86t29 114.5q0 51 -27 86t-65.5 57.5t-83.5 35t-82 18.5q-76 14 -151 36.5t-133 62.5t-94 101.5t-36 151.5q0 98 37 181t104.5 144.5t162.5 95.5t214 34t230.5 -32t195.5 -89 l-100 -150q-68 47 -157 73t-183 26q-49 0 -104.5 -16.5t-101.5 -49.5t-77 -82t-31 -117q0 -53 29 -87.5t67 -56t77.5 -32t64.5 -16.5q86 -18 166 -42t142.5 -62.5t100 -102t37.5 -162.5q0 -106 -47 -190t-127 -142.5t-184 -89t-219 -30.5q-150 0 -272.5 46t-212.5 134z M614 1597l353 250l96 -125l-389 -211z" />
<glyph unicode="&#x15b;" horiz-adv-x="929" d="M10 123l109 127q66 -63 140.5 -87t168.5 -24q39 0 81 9.5t78 30t58.5 53t22.5 79.5q0 55 -37 81t-103 40q-53 12 -117.5 24.5t-123 39t-97 72.5t-38.5 126q0 82 36.5 144.5t95 104.5t131 62.5t146.5 20.5q115 0 202 -23.5t159 -82.5l-101 -132q-61 45 -125.5 63.5 t-142.5 18.5q-104 0 -165.5 -46t-61.5 -111q0 -29 16 -48.5t42 -34t58.5 -22.5t63.5 -14q47 -8 106.5 -22.5t110.5 -43t86 -75.5t35 -123q0 -84 -34 -148.5t-93.5 -107.5t-139 -64.5t-171.5 -21.5q-106 0 -208 28.5t-188 106.5zM489 1169l220 363l155 -51l-274 -353z" />
<glyph unicode="&#x15c;" horiz-adv-x="1138" d="M23 168q29 31 56 64.5t56 64.5q72 -63 170 -100t215 -37q76 0 141.5 19.5t114.5 54t78 86t29 114.5q0 51 -27 86t-65.5 57.5t-83.5 35t-82 18.5q-76 14 -151 36.5t-133 62.5t-94 101.5t-36 151.5q0 98 37 181t104.5 144.5t162.5 95.5t214 34t230.5 -32t195.5 -89 l-100 -150q-68 47 -157 73t-183 26q-49 0 -104.5 -16.5t-101.5 -49.5t-77 -82t-31 -117q0 -53 29 -87.5t67 -56t77.5 -32t64.5 -16.5q86 -18 166 -42t142.5 -62.5t100 -102t37.5 -162.5q0 -106 -47 -190t-127 -142.5t-184 -89t-219 -30.5q-150 0 -272.5 46t-212.5 134z M403 1591l361 269h108l242 -265l-78 -75l-239 176l-348 -183z" />
<glyph unicode="&#x15d;" horiz-adv-x="929" d="M10 123l109 127q66 -63 140.5 -87t168.5 -24q39 0 81 9.5t78 30t58.5 53t22.5 79.5q0 55 -37 81t-103 40q-53 12 -117.5 24.5t-123 39t-97 72.5t-38.5 126q0 82 36.5 144.5t95 104.5t131 62.5t146.5 20.5q115 0 202 -23.5t159 -82.5l-101 -132q-61 45 -125.5 63.5 t-142.5 18.5q-104 0 -165.5 -46t-61.5 -111q0 -29 16 -48.5t42 -34t58.5 -22.5t63.5 -14q47 -8 106.5 -22.5t110.5 -43t86 -75.5t35 -123q0 -84 -34 -148.5t-93.5 -107.5t-139 -64.5t-171.5 -21.5q-106 0 -208 28.5t-188 106.5zM256 1217l365 305h108l234 -310l-86 -79 l-211 223l-336 -226z" />
<glyph unicode="&#x15e;" horiz-adv-x="1138" d="M23 168q29 31 56 64.5t56 64.5q72 -63 170 -100t215 -37q76 0 141.5 19.5t114.5 54t78 86t29 114.5q0 51 -27 86t-65.5 57.5t-83.5 35t-82 18.5q-76 14 -151 36.5t-133 62.5t-94 101.5t-36 151.5q0 98 37 181t104.5 144.5t162.5 95.5t214 34t230.5 -32t195.5 -89 l-100 -150q-68 47 -157 73t-183 26q-49 0 -104.5 -16.5t-101.5 -49.5t-77 -82t-31 -117q0 -53 29 -87.5t67 -56t77.5 -32t64.5 -16.5q86 -18 166 -42t142.5 -62.5t100 -102t37.5 -162.5q0 -104 -45 -187t-121.5 -140.5t-177 -90t-213.5 -34.5l-30 -68q51 -4 87 -18.5 t56.5 -36t29.5 -46t9 -48.5q0 -35 -15.5 -71t-46 -64.5t-78.5 -47t-114 -18.5h-32.5t-50.5 3t-57.5 10t-54.5 20l41 94q41 -18 85 -24.5t73 -6.5q39 0 79 20.5t40 65.5q0 41 -28.5 63.5t-82.5 22.5h-24l-35 33l57 121q-127 10 -231.5 54t-181.5 122z" />
<glyph unicode="&#x15f;" horiz-adv-x="929" d="M10 123l109 127q66 -63 140.5 -87t168.5 -24q39 0 81 9.5t78 30t58.5 53t22.5 79.5q0 55 -37 81t-103 40q-53 12 -117.5 24.5t-123 39t-97 72.5t-38.5 126q0 82 36.5 144.5t95 104.5t131 62.5t146.5 20.5q115 0 202 -23.5t159 -82.5l-101 -132q-61 45 -125.5 63.5 t-142.5 18.5q-104 0 -165.5 -46t-61.5 -111q0 -29 16 -48.5t42 -34t58.5 -22.5t63.5 -14q47 -8 106.5 -22.5t110.5 -43t86 -75.5t35 -123q0 -80 -31 -142.5t-86 -104.5t-129 -65.5t-160 -27.5l-30 -70q51 -4 86.5 -18.5t56 -36t30 -46t9.5 -48.5q0 -35 -15.5 -71t-46 -64.5 t-79 -47t-113.5 -18.5h-32.5t-50.5 3t-57.5 10t-54.5 20l41 94q41 -18 85 -24.5t73 -6.5q39 0 79 20.5t40 65.5q0 41 -29 63.5t-82 22.5h-24l-35 33l55 119q-92 6 -177 35.5t-157 97.5z" />
<glyph unicode="&#x160;" horiz-adv-x="1138" d="M23 168q29 31 56 64.5t56 64.5q72 -63 170 -100t215 -37q76 0 141.5 19.5t114.5 54t78 86t29 114.5q0 51 -27 86t-65.5 57.5t-83.5 35t-82 18.5q-76 14 -151 36.5t-133 62.5t-94 101.5t-36 151.5q0 98 37 181t104.5 144.5t162.5 95.5t214 34t230.5 -32t195.5 -89 l-100 -150q-68 47 -157 73t-183 26q-49 0 -104.5 -16.5t-101.5 -49.5t-77 -82t-31 -117q0 -53 29 -87.5t67 -56t77.5 -32t64.5 -16.5q86 -18 166 -42t142.5 -62.5t100 -102t37.5 -162.5q0 -106 -47 -190t-127 -142.5t-184 -89t-219 -30.5q-150 0 -272.5 46t-212.5 134z M508 1780l74 71l239 -172l353 183l45 -78l-361 -268h-108z" />
<glyph unicode="&#x161;" horiz-adv-x="929" d="M10 123l109 127q66 -63 140.5 -87t168.5 -24q39 0 81 9.5t78 30t58.5 53t22.5 79.5q0 55 -37 81t-103 40q-53 12 -117.5 24.5t-123 39t-97 72.5t-38.5 126q0 82 36.5 144.5t95 104.5t131 62.5t146.5 20.5q115 0 202 -23.5t159 -82.5l-101 -132q-61 45 -125.5 63.5 t-142.5 18.5q-104 0 -165.5 -46t-61.5 -111q0 -29 16 -48.5t42 -34t58.5 -22.5t63.5 -14q47 -8 106.5 -22.5t110.5 -43t86 -75.5t35 -123q0 -84 -34 -148.5t-93.5 -107.5t-139 -64.5t-171.5 -21.5q-106 0 -208 28.5t-188 106.5zM311 1446l95 78l225 -228l321 226l66 -80 l-352 -309h-109z" />
<glyph unicode="&#x162;" horiz-adv-x="1069" d="M193 1237l32 174h1004l-33 -174h-408l-239 -1237h-191l240 1237h-405zM215 -475q53 35 88 65.5t51 87.5q-35 4 -53 31t-18 62q0 25 10 48t29.5 42.5t47 32t62.5 12.5q63 0 87 -38t24 -81q0 -59 -25.5 -111.5t-66.5 -96.5t-90.5 -76.5t-98.5 -51.5z" />
<glyph unicode="&#x163;" horiz-adv-x="727" d="M43 -475q53 35 88 65.5t51 87.5q-35 4 -53 31t-18 62q0 25 10 48t29.5 42.5t47 32t62.5 12.5q63 0 87 -38t24 -81q0 -59 -26 -111.5t-66.5 -96.5t-90 -76.5t-98.5 -51.5zM147 858l31 158h148l86 235h129l-45 -235h264l-31 -158h-264l-96 -496q-8 -41 -9 -86 q0 -51 24 -82.5t93 -31.5q33 0 75 5t93 11l8 -158q-63 -20 -128.5 -25t-96.5 -5q-141 0 -197.5 61.5t-56.5 163.5q0 49 12 109l107 534h-146z" />
<glyph unicode="&#x164;" horiz-adv-x="1069" d="M193 1237l32 174h1004l-33 -174h-408l-239 -1237h-191l240 1237h-405zM434 1780l74 71l240 -172l352 183l45 -78l-361 -268h-108z" />
<glyph unicode="&#x165;" horiz-adv-x="843" d="M152 858l30 158h148l86 235h129l-45 -235h264l-31 -158h-264l-96 -496q-8 -41 -8 -86q0 -51 23.5 -82.5t92.5 -31.5q33 0 75 5t93 11l8 -158q-63 -20 -128.5 -25t-96.5 -5q-141 0 -197.5 61.5t-56.5 163.5q0 49 12 109l107 534h-145zM686 1182q53 35 88 65.5t51 87.5 q-35 4 -53 31t-18 61q0 25 10 48.5t29.5 43t47 32t62.5 12.5q63 0 87 -38t24 -81q0 -59 -25.5 -111.5t-66.5 -96.5t-90.5 -77t-98.5 -51z" />
<glyph unicode="&#x166;" horiz-adv-x="1069" d="M193 1237l32 174h1004l-33 -174h-408l-79 -412h292l-26 -143h-295l-131 -682h-191l131 682h-288l26 143h291l80 412h-405z" />
<glyph unicode="&#x167;" horiz-adv-x="727" d="M98 500l27 137h123l45 221h-146l31 158h148l86 235h129l-45 -235h264l-31 -158h-264l-43 -221h274l-26 -137h-275l-26 -138q-8 -41 -9 -86q0 -51 24 -82.5t93 -31.5q33 0 75 5t93 11l8 -158q-63 -20 -128.5 -25t-96.5 -5q-141 0 -197.5 61.5t-56.5 163.5q0 49 12 109 l35 176h-123z" />
<glyph unicode="&#x168;" horiz-adv-x="1249" d="M111 381q0 27 2 53.5t8 54.5l178 922h190l-180 -930q-4 -20 -6 -38.5t-2 -34.5q0 -68 24.5 -115t64.5 -77t89 -44t96 -14q70 0 133.5 18.5t117 57t91 100t54.5 147.5l180 930h190l-188 -965q-23 -109 -74 -194.5t-128 -145t-175 -90t-213 -30.5q-90 0 -172 24.5 t-144.5 73.5t-99 124t-36.5 173zM475 1577q49 92 120 137t132 45q37 0 69.5 -14t63.5 -31.5t59.5 -32t55.5 -14.5q29 0 64.5 21.5t76.5 70.5l92 -63q-57 -98 -119.5 -140.5t-125.5 -42.5q-37 0 -70 13.5t-63.5 30t-60.5 29.5t-60 13q-35 0 -65 -17t-77 -64z" />
<glyph unicode="&#x169;" horiz-adv-x="1026" d="M72 260q0 23 3 45.5t7 46.5l131 664h176l-125 -641q-4 -20 -6 -38t-2 -34q0 -76 40 -108.5t103 -32.5q61 0 152.5 37t183.5 98l142 719h174l-197 -1016h-152l-4 106q-63 -41 -114.5 -63.5t-93 -34.5t-75.5 -15t-61 -3q-129 0 -205.5 70.5t-76.5 199.5zM303 1249 q49 92 120 137.5t132 45.5q37 0 69.5 -14.5t63.5 -32t59.5 -32t55.5 -14.5q29 0 64.5 21.5t76.5 71.5l92 -64q-57 -98 -119.5 -140t-125.5 -42q-37 0 -70 13t-63.5 29.5t-60.5 30t-60 13.5q-35 0 -65 -17.5t-77 -64.5z" />
<glyph unicode="&#x16a;" horiz-adv-x="1249" d="M111 381q0 27 2 53.5t8 54.5l178 922h190l-180 -930q-4 -20 -6 -38.5t-2 -34.5q0 -68 24.5 -115t64.5 -77t89 -44t96 -14q70 0 133.5 18.5t117 57t91 100t54.5 147.5l180 930h190l-188 -965q-23 -109 -74 -194.5t-128 -145t-175 -90t-213 -30.5q-90 0 -172 24.5 t-144.5 73.5t-99 124t-36.5 173zM561 1575l31 154h549l-31 -154h-549z" />
<glyph unicode="&#x16b;" horiz-adv-x="1026" d="M72 260q0 23 3 45.5t7 46.5l131 664h176l-125 -641q-4 -20 -6 -38t-2 -34q0 -76 40 -108.5t103 -32.5q61 0 152.5 37t183.5 98l142 719h174l-197 -1016h-152l-4 106q-63 -41 -114.5 -63.5t-93 -34.5t-75.5 -15t-61 -3q-129 0 -205.5 70.5t-76.5 199.5zM385 1229l31 153 h549l-31 -153h-549z" />
<glyph unicode="&#x16c;" horiz-adv-x="1249" d="M111 381q0 27 2 53.5t8 54.5l178 922h190l-180 -930q-4 -20 -6 -38.5t-2 -34.5q0 -68 24.5 -115t64.5 -77t89 -44t96 -14q70 0 133.5 18.5t117 57t91 100t54.5 147.5l180 930h190l-188 -965q-23 -109 -74 -194.5t-128 -145t-175 -90t-213 -30.5q-90 0 -172 24.5 t-144.5 73.5t-99 124t-36.5 173zM573 1712v21.5t2 21.5h146v-12q0 -20 7 -43t21.5 -41.5t38 -30.5t58.5 -12q74 0 118 44t54 95h158q-12 -49 -38 -98t-67 -89t-98.5 -64.5t-136.5 -24.5q-137 0 -200 63.5t-63 169.5z" />
<glyph unicode="&#x16d;" horiz-adv-x="1026" d="M72 260q0 23 3 45.5t7 46.5l131 664h176l-125 -641q-4 -20 -6 -38t-2 -34q0 -76 40 -108.5t103 -32.5q61 0 152.5 37t183.5 98l142 719h174l-197 -1016h-152l-4 106q-63 -41 -114.5 -63.5t-93 -34.5t-75.5 -15t-61 -3q-129 0 -205.5 70.5t-76.5 199.5zM406 1405v21.5 t2 21.5h145v-12q0 -20 7 -43t21.5 -41.5t38 -30.5t58.5 -12q74 0 118 44t54 95h158q-12 -49 -38 -98.5t-67 -89t-98 -64.5t-137 -25q-137 0 -199.5 63.5t-62.5 170.5z" />
<glyph unicode="&#x16e;" horiz-adv-x="1249" d="M111 381q0 27 2 53.5t8 54.5l178 922h190l-180 -930q-4 -20 -6 -38.5t-2 -34.5q0 -68 24.5 -115t64.5 -77t89 -44t96 -14q70 0 133.5 18.5t117 57t91 100t54.5 147.5l180 930h190l-188 -965q-23 -109 -74 -194.5t-128 -145t-175 -90t-213 -30.5q-90 0 -172 24.5 t-144.5 73.5t-99 124t-36.5 173zM651 1608q0 49 18.5 93t51.5 77.5t78 53t100 19.5q78 0 126 -50t48 -124q0 -55 -21.5 -99t-56 -74.5t-80 -47t-90.5 -16.5q-76 0 -125 48t-49 120zM756 1624q0 -37 22.5 -60.5t61.5 -23.5q49 0 90 38t41 89q0 35 -25.5 59.5t-64.5 24.5 q-51 0 -88 -39t-37 -88z" />
<glyph unicode="&#x16f;" horiz-adv-x="1026" d="M72 260q0 23 3 45.5t7 46.5l131 664h176l-125 -641q-4 -20 -6 -38t-2 -34q0 -76 40 -108.5t103 -32.5q61 0 152.5 37t183.5 98l142 719h174l-197 -1016h-152l-4 106q-63 -41 -114.5 -63.5t-93 -34.5t-75.5 -15t-61 -3q-129 0 -205.5 70.5t-76.5 199.5zM467 1276 q0 49 18.5 93t51 78t77.5 53.5t101 19.5q78 0 126 -50.5t48 -123.5q0 -55 -21.5 -99.5t-56.5 -75t-80 -47t-90 -16.5q-76 0 -125 48t-49 120zM571 1292q0 -37 22.5 -60.5t61.5 -23.5q49 0 90 38t41 89q0 35 -25.5 59.5t-64.5 24.5q-51 0 -88 -39t-37 -88z" />
<glyph unicode="&#x170;" horiz-adv-x="1249" d="M111 381q0 27 2 53.5t8 54.5l178 922h190l-180 -930q-4 -20 -6 -38.5t-2 -34.5q0 -68 24.5 -115t64.5 -77t89 -44t96 -14q70 0 133.5 18.5t117 57t91 100t54.5 147.5l180 930h190l-188 -965q-23 -109 -74 -194.5t-128 -145t-175 -90t-213 -30.5q-90 0 -172 24.5 t-144.5 73.5t-99 124t-36.5 173zM584 1597l303 250l121 -125l-349 -211zM918 1597l352 250l96 -125l-389 -211z" />
<glyph unicode="&#x171;" horiz-adv-x="1026" d="M72 260q0 23 3 45.5t7 46.5l131 664h176l-125 -641q-4 -20 -6 -38t-2 -34q0 -76 40 -108.5t103 -32.5q61 0 152.5 37t183.5 98l142 719h174l-197 -1016h-152l-4 106q-63 -41 -114.5 -63.5t-93 -34.5t-75.5 -15t-61 -3q-129 0 -205.5 70.5t-76.5 199.5zM459 1169l219 363 l156 -51l-275 -353zM723 1169l219 363l156 -51l-275 -353z" />
<glyph unicode="&#x172;" horiz-adv-x="1249" d="M111 381q0 27 2 53.5t8 54.5l178 922h190l-180 -930q-4 -20 -6 -38.5t-2 -34.5q0 -68 24.5 -115t64.5 -77t89 -44t96 -14q70 0 133.5 18.5t117 57t91 100t54.5 147.5l180 930h190l-188 -965q-20 -104 -68.5 -186t-119 -141.5t-160.5 -92t-197 -38.5q-82 -96 -82 -172 q0 -66 82 -66q25 0 56.5 8.5t66.5 28.5l23 -100q-45 -25 -97.5 -38.5t-103.5 -13.5q-78 0 -122 42t-44 106q0 45 22.5 97t75.5 112q-78 8 -146.5 37.5t-118.5 78t-79.5 117t-29.5 156.5z" />
<glyph unicode="&#x173;" horiz-adv-x="1026" d="M72 260q0 23 3 45.5t7 46.5l131 664h176l-125 -641q-4 -20 -6 -38t-2 -34q0 -76 40 -108.5t103 -32.5q61 0 152.5 37t183.5 98l142 719h174l-197 -1016h-33q-96 -104 -96 -186q0 -66 82 -66q25 0 56.5 8t66.5 29l22 -100q-45 -25 -97 -38.5t-103 -13.5q-78 0 -122 42 t-44 106q0 47 26.5 104.5t89.5 122.5l-4 98q-63 -41 -114.5 -63.5t-93 -34.5t-75.5 -15t-61 -3q-129 0 -205.5 70.5t-76.5 199.5z" />
<glyph unicode="&#x174;" horiz-adv-x="1765" d="M209 1411h197l34 -649l19 -467h10l203 469l284 647h207l39 -668l21 -448h10l194 455l289 661h199l-639 -1411h-211l-43 639l-18 434h-13l-190 -442l-283 -631h-211zM731 1591l361 269h108l242 -265l-78 -75l-240 176l-348 -183z" />
<glyph unicode="&#x175;" horiz-adv-x="1437" d="M133 1016h180l39 -404l31 -336h12l168 336l154 306h178l45 -318l43 -324h10l221 447q41 86 56.5 141.5t15.5 112.5v41h172v-39q0 -80 -17.5 -149.5t-58.5 -147.5l-372 -682h-150l-51 403l-37 299h-8l-146 -299l-198 -403h-158zM502 1217l364 305h109l233 -310l-86 -79 l-211 223l-336 -226z" />
<glyph unicode="&#x176;" horiz-adv-x="1099" d="M213 1411h197l104 -391l74 -281h10l219 336l223 336h211l-589 -868l-105 -543h-188l104 541zM406 1591l360 269h108l242 -265l-78 -75l-239 176l-348 -183z" />
<glyph unicode="&#x177;" horiz-adv-x="915" d="M55 -412l228 430l-72 72l-98 926h180l35 -418l34 -442h7l303 567q45 84 65.5 136t20.5 118v41h178v-39q0 -92 -25.5 -156.5t-68.5 -140.5l-600 -1094h-187zM233 1217l365 305h109l233 -310l-86 -79l-211 223l-336 -226z" />
<glyph unicode="&#x178;" horiz-adv-x="1099" d="M213 1411h197l104 -391l74 -281h10l219 336l223 336h211l-589 -868l-105 -543h-188l104 541zM442 1624q8 41 43 69.5t76 28.5t64.5 -28.5t15.5 -69.5q-10 -41 -44 -70.5t-75 -29.5t-65.5 29.5t-14.5 70.5zM844 1624q8 41 42 69.5t75 28.5t65 -28.5t16 -69.5 q-10 -41 -44.5 -70.5t-75.5 -29.5t-64.5 29.5t-13.5 70.5z" />
<glyph unicode="&#x179;" horiz-adv-x="1071" d="M-53 0l33 166l905 1073h-668l33 172h893l-31 -162l-911 -1079h700l-33 -170h-921zM618 1597l353 250l96 -125l-389 -211z" />
<glyph unicode="&#x17a;" horiz-adv-x="921" d="M2 0l27 143l673 715h-503l28 156h729l-26 -144l-672 -710h533l-31 -160h-758zM522 1169l219 363l156 -51l-274 -353z" />
<glyph unicode="&#x17b;" horiz-adv-x="1071" d="M-53 0l33 166l905 1073h-668l33 172h893l-31 -162l-911 -1079h700l-33 -170h-921zM659 1602q0 47 33 84.5t88 37.5q39 0 65.5 -22.5t26.5 -65.5q0 -51 -37.5 -85.5t-84.5 -34.5q-37 0 -64 24.5t-27 61.5z" />
<glyph unicode="&#x17c;" horiz-adv-x="921" d="M2 0l27 143l673 715h-503l28 156h729l-26 -144l-672 -710h533l-31 -160h-758zM549 1294q0 47 32.5 85t88.5 38q39 0 65.5 -22.5t26.5 -65.5q0 -51 -38 -86t-85 -35q-37 0 -63.5 24.5t-26.5 61.5z" />
<glyph unicode="&#x17d;" horiz-adv-x="1071" d="M-53 0l33 166l905 1073h-668l33 172h893l-31 -162l-911 -1079h700l-33 -170h-921zM467 1780l74 71l239 -172l353 183l45 -78l-361 -268h-108z" />
<glyph unicode="&#x17e;" horiz-adv-x="921" d="M2 0l27 143l673 715h-503l28 156h729l-26 -144l-672 -710h533l-31 -160h-758zM328 1446l94 78l225 -228l322 226l65 -80l-352 -309h-109z" />
<glyph unicode="&#x192;" horiz-adv-x="1024" d="M-68 -145q16 41 30.5 68.5t31.5 68.5q66 -27 119 -27q86 0 134 78t77 207l110 469h-178l10 141h201l35 150q16 70 46 145.5t79 137t120.5 101.5t174.5 40q47 0 90 -8.5t71 -20.5q-12 -41 -25.5 -77t-27.5 -77q-29 10 -65.5 15.5t-65.5 5.5q-47 0 -83 -20.5t-61.5 -56.5 t-43 -81t-29.5 -94l-35 -160h217l-10 -141h-240l-106 -467q-23 -98 -54.5 -178t-77.5 -137.5t-108.5 -89t-146.5 -31.5q-43 0 -95.5 11t-93.5 28z" />
<glyph unicode="&#x1a0;" horiz-adv-x="1249" d="M115 412q0 55 12 114l86 439q41 213 177 336.5t386 123.5q90 0 166 -23.5t135 -64.5q39 2 65.5 12.5t47 35t34 62.5t23.5 95l8 43h156l-12 -67q-23 -117 -72 -192t-135 -109q57 -96 57 -211q0 -47 -8 -88l-88 -472q-41 -211 -182.5 -335.5t-390.5 -124.5 q-94 0 -178.5 28.5t-148 83t-101 133t-37.5 181.5zM307 418q0 -68 21.5 -116t58.5 -80t86 -47t105 -15q176 0 270 91t129 263l76 387q4 20 6 40t2 36q0 68 -24.5 119t-65.5 86t-93.5 52t-109.5 17q-147 0 -243.5 -76.5t-129.5 -248.5l-80 -418q-4 -25 -6 -46.5t-2 -43.5z " />
<glyph unicode="&#x1a1;" horiz-adv-x="1077" d="M100 340q0 23 2 45.5t7 46.5l41 217q35 176 140 276.5t306 100.5q86 0 153.5 -24.5t116.5 -67.5q78 2 117 46t61 159l7 43h153l-12 -68q-23 -125 -79 -202.5t-155 -106.5q27 -61 27 -139q0 -45 -8 -84l-45 -232q-23 -106 -67 -176t-104.5 -110.5t-134 -57t-155.5 -16.5 q-70 0 -136.5 21.5t-118.5 65.5t-84 109.5t-32 153.5zM276 354q0 -55 18.5 -94t48.5 -62.5t66.5 -34.5t73.5 -11q43 0 86 8t82 34.5t69 73.5t46 125l39 185q8 33 8 69q0 102 -63.5 158.5t-161.5 56.5q-102 0 -173 -53t-96 -186l-36 -201q-6 -37 -7 -68z" />
<glyph unicode="&#x1af;" horiz-adv-x="1378" d="M111 381q0 27 2 53.5t8 54.5l178 922h190l-180 -930q-4 -20 -6 -38.5t-2 -34.5q0 -68 24.5 -115t64.5 -77t89 -44t96 -14q70 0 133.5 18.5t117 57t91 100t54.5 147.5l180 930h190l-14 -74q76 4 113 47t57 158l8 43h154l-12 -67q-31 -160 -114 -242t-235 -86l-145 -744 q-23 -109 -74 -194.5t-128 -145t-175 -90t-213 -30.5q-90 0 -172 24.5t-144.5 73.5t-99 124t-36.5 173z" />
<glyph unicode="&#x1b0;" horiz-adv-x="1193" d="M72 260q0 23 3 45.5t7 46.5l131 664h176l-125 -641q-4 -20 -6 -38t-2 -34q0 -76 40 -108.5t103 -32.5q61 0 152.5 37t183.5 98l142 719h174l-17 -82q37 2 64.5 12t48 35t35 62.5t24.5 95.5l6 43h154l-12 -68q-29 -160 -112 -241.5t-236 -86.5l-152 -786h-152l-4 106 q-63 -41 -114.5 -63.5t-93 -34.5t-75.5 -15t-61 -3q-129 0 -205.5 70.5t-76.5 199.5z" />
<glyph unicode="&#x1fc;" horiz-adv-x="1957" d="M-66 0l1125 1411h1018l-23 -172h-754l-63 -448h643l-22 -170h-646l-65 -451h754l-23 -170h-942l57 412h-514l-323 -412h-222zM598 567h418l96 656zM1442 1597l352 250l96 -125l-389 -211z" />
<glyph unicode="&#x1fd;" horiz-adv-x="1636" d="M61 225q0 104 46.5 176t114 115t142 62.5t132.5 19.5q53 0 83.5 -3t58.5 -6t60.5 -8.5t87.5 -11.5l21 107q4 14 4 25.5v21.5q0 84 -58.5 113.5t-148.5 29.5q-53 0 -128 -15t-165 -79l-59 133q115 76 210 98.5t181 22.5q227 0 307 -115l11 9q59 51 134.5 78.5t172.5 27.5 q154 0 248 -73.5t94 -202.5q0 -63 -22.5 -126t-87 -112t-179.5 -79t-297 -30h-43t-45 3q-10 -41 -10 -74q0 -80 52 -132.5t157 -52.5q59 0 118.5 23t106.5 74l119 -127q-76 -70 -165 -99.5t-188 -29.5q-123 0 -205.5 43t-125.5 121q-98 -86 -214 -123t-249 -37 q-129 0 -200 61.5t-71 171.5zM246 266q0 -59 41.5 -87.5t109.5 -28.5q49 0 105.5 11t105.5 33.5t85 56.5t46 79l23 102q-49 6 -80 9t-57.5 6.5t-56 4.5t-72.5 1q-31 0 -74 -5.5t-82 -25t-66.5 -56t-27.5 -100.5zM940 1169l219 363l156 -51l-275 -353zM958 559q25 -2 47.5 -2 h45.5q123 0 196.5 16.5t113.5 42t53 56t13 59.5q0 66 -41 100.5t-129 34.5q-131 0 -200.5 -82t-98.5 -225z" />
<glyph unicode="&#x1fe;" horiz-adv-x="1249" d="M115 412q0 55 12 114l86 439q41 213 177 336.5t386 123.5q98 0 179 -27.5t143 -76.5l84 109l67 -60l-88 -113q41 -53 64.5 -116.5t23.5 -134.5q0 -47 -8 -88l-88 -472q-41 -211 -182.5 -335.5t-390.5 -124.5q-92 0 -174 26.5t-148 79.5l-78 -102l-63 59l80 105 q-39 51 -60.5 115.5t-21.5 142.5zM307 418q0 -55 17 -101l657 854q-41 39 -97.5 59.5t-115.5 20.5q-147 0 -243.5 -76.5t-129.5 -248.5l-80 -418q-4 -25 -6 -46t-2 -44zM371 238q39 -41 92 -59.5t115 -18.5q176 0 270 91t129 263l76 387q4 20 6 40t2 36q0 33 -7 62.5 t-18 54.5zM717 1597l352 250l96 -125l-389 -211z" />
<glyph unicode="&#x1ff;" horiz-adv-x="1034" d="M80 47l78 92q-57 80 -58 201q0 23 2 45.5t7 46.5l41 217q35 176 140 276.5t306 100.5q78 0 143.5 -21.5t112.5 -58.5l74 84l69 -55l-80 -94q70 -92 70 -215q0 -45 -8 -84l-45 -232q-23 -106 -67 -176t-104.5 -110.5t-134 -57t-155.5 -16.5q-70 0 -134.5 20.5t-117.5 63.5 l-72 -84zM276 354q0 -18 2.5 -35.5t6.5 -31.5l454 526q-59 49 -151 49q-102 0 -173 -53t-96 -186l-36 -201q-7 -37 -7 -68zM334 205q29 -29 68.5 -41t80.5 -12q43 0 86 8t82 34.5t69 73.5t46 125l39 185q8 33 8 69q0 51 -18 94zM573 1169l220 363l155 -51l-274 -353z" />
<glyph unicode="&#x218;" horiz-adv-x="1138" d="M23 168q29 31 56 64.5t56 64.5q72 -63 170 -100t215 -37q76 0 141.5 19.5t114.5 54t78 86t29 114.5q0 51 -27 86t-65.5 57.5t-83.5 35t-82 18.5q-76 14 -151 36.5t-133 62.5t-94 101.5t-36 151.5q0 98 37 181t104.5 144.5t162.5 95.5t214 34t230.5 -32t195.5 -89 l-100 -150q-68 47 -157 73t-183 26q-49 0 -104.5 -16.5t-101.5 -49.5t-77 -82t-31 -117q0 -53 29 -87.5t67 -56t77.5 -32t64.5 -16.5q86 -18 166 -42t142.5 -62.5t100 -102t37.5 -162.5q0 -106 -47 -190t-127 -142.5t-184 -89t-219 -30.5q-150 0 -272.5 46t-212.5 134z M283 -475q53 35 88 65.5t51 87.5q-35 4 -53.5 31t-18.5 62q0 25 10.5 48t30 42.5t47 32t62.5 12.5q63 0 86.5 -38t23.5 -81q0 -59 -25.5 -111.5t-66.5 -96.5t-90 -76.5t-98 -51.5z" />
<glyph unicode="&#x219;" horiz-adv-x="929" d="M10 123l109 127q66 -63 140.5 -87t168.5 -24q39 0 81 9.5t78 30t58.5 53t22.5 79.5q0 55 -37 81t-103 40q-53 12 -117.5 24.5t-123 39t-97 72.5t-38.5 126q0 82 36.5 144.5t95 104.5t131 62.5t146.5 20.5q115 0 202 -23.5t159 -82.5l-101 -132q-61 45 -125.5 63.5 t-142.5 18.5q-104 0 -165.5 -46t-61.5 -111q0 -29 16 -48.5t42 -34t58.5 -22.5t63.5 -14q47 -8 106.5 -22.5t110.5 -43t86 -75.5t35 -123q0 -84 -34 -148.5t-93.5 -107.5t-139 -64.5t-171.5 -21.5q-106 0 -208 28.5t-188 106.5zM168 -475q53 35 88 65.5t51 87.5 q-35 4 -53 31t-18 62q0 25 10 48t29.5 42.5t47 32t62.5 12.5q63 0 87 -38t24 -81q0 -59 -26 -111.5t-67 -96.5t-90 -76.5t-98 -51.5z" />
<glyph unicode="&#x259;" horiz-adv-x="962" d="M74 266q0 63 22.5 126t87 112t179 78.5t296.5 29.5h43.5t45.5 -2q10 41 10 74q0 80 -52.5 132t-156.5 52q-59 0 -118.5 -22.5t-106.5 -73.5l-119 127q76 70 165 99.5t187 29.5q178 0 274.5 -90t96.5 -244q0 -70 -15.5 -164t-42.5 -184q-47 -168 -160.5 -262t-293.5 -94 q-154 0 -248 73.5t-94 202.5zM256 285q0 -66 41 -100.5t129 -34.5q131 0 200.5 81.5t98.5 225.5q-25 2 -47.5 2h-44.5q-123 0 -197 -16.5t-113.5 -42t-53 -56.5t-13.5 -59z" />
<glyph unicode="&#x2b9;" horiz-adv-x="552" d="M184 864l291 557l191 -49l-371 -545z" />
<glyph unicode="&#x2c6;" horiz-adv-x="1005" d="M317 1217l365 305h109l233 -310l-86 -79l-211 223l-336 -226z" />
<glyph unicode="&#x2c7;" horiz-adv-x="1026" d="M373 1446l94 78l225 -228l322 226l65 -80l-352 -309h-109z" />
<glyph unicode="&#x2d8;" horiz-adv-x="1026" d="M416 1405v21.5t2 21.5h145v-12q0 -20 7.5 -43t21.5 -41.5t37.5 -30.5t58.5 -12q74 0 118 44t54 95h158q-12 -49 -38 -98.5t-67 -89t-98 -64.5t-137 -25q-137 0 -199.5 63.5t-62.5 170.5z" />
<glyph unicode="&#x2d9;" horiz-adv-x="1026" d="M584 1294q0 47 32.5 85t88.5 38q39 0 65.5 -22.5t26.5 -65.5q0 -51 -38 -86t-85 -35q-37 0 -63.5 24.5t-26.5 61.5z" />
<glyph unicode="&#x2da;" horiz-adv-x="1005" d="M481 1276q0 49 18.5 93t51.5 78t78 53.5t100 19.5q78 0 126 -50.5t48 -123.5q0 -55 -21.5 -99.5t-56 -75t-80 -47t-90.5 -16.5q-76 0 -125 48t-49 120zM586 1292q0 -37 22.5 -60.5t61.5 -23.5q49 0 90 38t41 89q0 35 -25.5 59.5t-64.5 24.5q-51 0 -88 -39t-37 -88z" />
<glyph unicode="&#x2db;" horiz-adv-x="575" d="M117 -221q0 49 28.5 108.5t98.5 128.5l108 -12l2 -4q-98 -111 -98 -188q0 -66 82 -66q25 0 56.5 8t66.5 29l22 -100q-45 -25 -97 -38.5t-103 -13.5q-78 0 -122 42t-44 106z" />
<glyph unicode="&#x2dc;" horiz-adv-x="1005" d="M324 1249q49 92 119.5 137.5t131.5 45.5q37 0 70 -14.5t63.5 -32t59.5 -32t55 -14.5q29 0 65 21.5t77 71.5l92 -64q-57 -98 -120 -140t-126 -42q-37 0 -69.5 13t-63.5 29.5t-60.5 30t-60.5 13.5q-35 0 -64.5 -17.5t-76.5 -64.5z" />
<glyph unicode="&#x2dd;" horiz-adv-x="1026" d="M430 1169l219 363l156 -51l-275 -353zM694 1169l219 363l156 -51l-274 -353z" />
<glyph unicode="&#x384;" horiz-adv-x="1026" d="M580 1169l219 363l155 -51l-272 -353z" />
<glyph unicode="&#x385;" horiz-adv-x="1001" d="M301 1288q0 47 37 83t84 36q37 0 59.5 -22.5t22.5 -57.5q0 -47 -38 -83t-83 -36q-35 0 -58.5 22.5t-23.5 57.5zM498 1169l219 363l155 -51l-272 -353zM829 1288q0 47 37 83t82 36q37 0 60.5 -22.5t23.5 -57.5q0 -25 -11 -46t-28.5 -37.5t-39 -26t-44.5 -9.5 q-35 0 -57.5 22.5t-22.5 57.5z" />
<glyph unicode="&#x386;" horiz-adv-x="1222" d="M-55 0l757 1411h189l219 -1411h-190l-50 317h-557l-168 -317h-200zM133 1108l219 362l156 -51l-272 -352zM408 489h436l-47 336l-41 328h-8l-164 -328z" />
<glyph unicode="&#x387;" horiz-adv-x="512" d="M188 700q0 25 9.5 51.5t28 48t45 36t61.5 14.5q53 0 78.5 -28.5t25.5 -65.5q0 -59 -43 -102.5t-108 -43.5q-47 0 -72 24.5t-25 65.5z" />
<glyph unicode="&#x388;" horiz-adv-x="1140" d="M-129 1108l219 362l156 -51l-273 -352zM43 0l274 1411h922l-33 -172h-733l-86 -448h643l-33 -170h-645l-88 -451h795l-33 -170h-983z" />
<glyph unicode="&#x389;" horiz-adv-x="1247" d="M-145 1108l219 362l155 -51l-272 -352zM29 0l274 1411h189l-119 -610h661l119 610h193l-275 -1411h-192l122 629h-661l-123 -629h-188z" />
<glyph unicode="&#x38a;" horiz-adv-x="516" d="M-90 1108l219 362l156 -51l-273 -352zM82 0l274 1411h189l-275 -1411h-188z" />
<glyph unicode="&#x38c;" horiz-adv-x="1249" d="M-72 1108l219 362l156 -51l-272 -352zM115 412q0 55 12 114l86 439q41 213 177 336.5t386 123.5q104 0 191.5 -31.5t150 -88t97 -133t34.5 -166.5q0 -47 -8 -88l-88 -472q-41 -211 -182.5 -335.5t-390.5 -124.5q-94 0 -178.5 28.5t-148 83t-101 133t-37.5 181.5zM307 418 q0 -68 21.5 -116t58.5 -80t86 -47t105 -15q176 0 270 91t129 263l76 387q4 20 6 40t2 36q0 68 -24.5 119t-65.5 86t-93.5 52t-109.5 17q-147 0 -243.5 -76.5t-129.5 -248.5l-80 -418q-4 -25 -6 -46.5t-2 -43.5z" />
<glyph unicode="&#x38e;" horiz-adv-x="1099" d="M-186 1108l219 362l155 -51l-272 -352zM213 1411h197l104 -391l74 -281h10l219 336l223 336h211l-589 -868l-105 -543h-188l104 541z" />
<glyph unicode="&#x38f;" horiz-adv-x="1271" d="M-72 1108l219 362l156 -51l-272 -352zM6 0l31 168h196q-111 84 -110 240q0 23 2 45t6 47l88 458q41 213 180.5 340t380.5 127q98 0 186.5 -28.5t155 -80.5t104.5 -126t38 -164q0 -18 -2 -37.5t-7 -40.5l-79 -448q-18 -109 -70.5 -197t-155.5 -135h189l-33 -168h-447 l41 207q45 12 91.5 37.5t84 63.5t67.5 90.5t42 119.5l80 410q6 37 6 65q0 68 -27.5 117t-70.5 80t-95.5 46t-101.5 15q-145 0 -241.5 -75.5t-131.5 -247.5l-79 -410q-4 -20 -6.5 -38.5t-2.5 -35.5q0 -100 52.5 -157.5t124.5 -79.5l-41 -207h-445z" />
<glyph unicode="&#x390;" horiz-adv-x="507" d="M70 1288q0 47 36.5 83t83.5 36q37 0 59.5 -22.5t22.5 -57.5q0 -47 -37.5 -83t-82.5 -36q-35 0 -58.5 22.5t-23.5 57.5zM121 193q0 41 8 79l143 744h174l-137 -711q-4 -23 -6 -39t-2 -30q0 -25 5 -40.5t18.5 -23.5t37 -13t60.5 -12l-33 -155h-45q-104 0 -163.5 49 t-59.5 152zM266 1169l219 363l156 -51l-272 -353zM598 1288q0 47 37 83t82 36q37 0 60.5 -22.5t23.5 -57.5q0 -25 -11.5 -46t-29 -37.5t-39 -26t-43.5 -9.5q-35 0 -57.5 22.5t-22.5 57.5z" />
<glyph unicode="&#x391;" horiz-adv-x="1222" d="M-55 0l757 1411h189l219 -1411h-190l-50 317h-557l-168 -317h-200zM408 489h436l-47 336l-41 328h-8l-164 -328z" />
<glyph unicode="&#x392;" horiz-adv-x="1214" d="M35 0l274 1411h565q94 0 162 -27.5t112 -75.5t64.5 -110.5t20.5 -130.5q0 -104 -56.5 -191.5t-183.5 -150.5q80 -45 107.5 -117.5t27.5 -154.5q0 -86 -30.5 -168t-91 -145.5t-146.5 -101.5t-196 -38h-629zM258 170h369q63 0 119.5 17.5t99.5 51t67.5 84t24.5 113.5 q0 98 -60.5 149.5t-150.5 51.5h-377zM383 809h375q53 0 103 18.5t89 50t62.5 75.5t23.5 96q0 98 -59 144t-152 46h-358z" />
<glyph unicode="&#x393;" horiz-adv-x="1050" d="M43 0l274 1411h922l-33 -172h-733l-242 -1239h-188z" />
<glyph unicode="&#x394;" horiz-adv-x="1222" d="M-55 0l764 1411h190l221 -1411h-1175zM240 172h655l-70 487l-63 488h-12l-242 -469z" />
<glyph unicode="&#x395;" horiz-adv-x="1140" d="M43 0l274 1411h922l-33 -172h-733l-86 -448h643l-33 -170h-645l-88 -451h795l-33 -170h-983z" />
<glyph unicode="&#x396;" horiz-adv-x="1071" d="M-53 0l33 166l905 1073h-668l33 172h893l-31 -162l-911 -1079h700l-33 -170h-921z" />
<glyph unicode="&#x397;" horiz-adv-x="1247" d="M29 0l274 1411h189l-119 -610h661l119 610h193l-275 -1411h-192l122 629h-661l-123 -629h-188z" />
<glyph unicode="&#x398;" horiz-adv-x="1249" d="M115 412q0 55 12 114l86 439q41 213 177 336.5t386 123.5q104 0 191.5 -31.5t150 -88t97 -133t34.5 -166.5q0 -47 -8 -88l-88 -472q-41 -211 -182.5 -335.5t-390.5 -124.5q-94 0 -178.5 28.5t-148 83t-101 133t-37.5 181.5zM307 418q0 -68 21.5 -116t58.5 -80t86 -47 t105 -15q176 0 270 91t129 263l76 387q4 20 6 40t2 36q0 68 -24.5 119t-65.5 86t-93.5 52t-109.5 17q-147 0 -243.5 -76.5t-129.5 -248.5l-80 -418q-4 -25 -6 -46.5t-2 -43.5zM422 621l37 182h489l-37 -182h-489z" />
<glyph unicode="&#x399;" horiz-adv-x="516" d="M82 0l274 1411h189l-275 -1411h-188z" />
<glyph unicode="&#x39a;" horiz-adv-x="1208" d="M35 0l274 1411h189l-144 -745l756 745h227l-563 -557l336 -854h-197l-276 715l-336 -324l-76 -391h-190z" />
<glyph unicode="&#x39b;" horiz-adv-x="1222" d="M-55 0l764 1411h190l221 -1411h-196l-95 643l-67 502h-17l-256 -492l-346 -653h-198z" />
<glyph unicode="&#x39c;" horiz-adv-x="1519" d="M37 0l268 1411h170l172 -575l103 -375h12l246 375l387 575h182l-268 -1411h-189l187 961h-11l-180 -273l-330 -479h-139l-139 440l-90 312h-10l-185 -961h-186z" />
<glyph unicode="&#x39d;" horiz-adv-x="1320" d="M39 0l268 1411h178l357 -788l129 -293h14l205 1081h186l-268 -1411h-182l-346 762l-138 309h-14l-203 -1071h-186z" />
<glyph unicode="&#x39e;" horiz-adv-x="1107" d="M6 0l33 170h369l90 457h-260l34 172h258l86 438h-370l35 174h923l-35 -174h-378l-86 -438h270l-33 -172h-270l-90 -457h381l-33 -170h-924z" />
<glyph unicode="&#x39f;" horiz-adv-x="1249" d="M115 412q0 55 12 114l86 439q41 213 177 336.5t386 123.5q104 0 191.5 -31.5t150 -88t97 -133t34.5 -166.5q0 -47 -8 -88l-88 -472q-41 -211 -182.5 -335.5t-390.5 -124.5q-94 0 -178.5 28.5t-148 83t-101 133t-37.5 181.5zM307 418q0 -68 21.5 -116t58.5 -80t86 -47 t105 -15q176 0 270 91t129 263l76 387q4 20 6 40t2 36q0 68 -24.5 119t-65.5 86t-93.5 52t-109.5 17q-147 0 -243.5 -76.5t-129.5 -248.5l-80 -418q-4 -25 -6 -46.5t-2 -43.5z" />
<glyph unicode="&#x3a0;" horiz-adv-x="1247" d="M29 0l274 1411h1043l-275 -1411h-192l241 1239h-661l-242 -1239h-188z" />
<glyph unicode="&#x3a1;" horiz-adv-x="1134" d="M29 0l274 1411h553q88 0 154.5 -31.5t110.5 -84t65.5 -119t21.5 -138.5q0 -82 -32.5 -166t-93 -151.5t-147.5 -110.5t-196 -43h-411l-111 -567h-188zM362 741h357q59 0 114.5 20.5t97.5 58.5t66.5 90.5t24.5 113.5q0 100 -59.5 157.5t-161.5 57.5h-342z" />
<glyph unicode="&#x3a3;" horiz-adv-x="1030" d="M-18 0l30 164l453 569l-240 520l31 158h885l-33 -174h-657l231 -504l-453 -565h689l-33 -168h-903z" />
<glyph unicode="&#x3a4;" horiz-adv-x="1069" d="M193 1237l32 174h1004l-33 -174h-408l-239 -1237h-191l240 1237h-405z" />
<glyph unicode="&#x3a5;" horiz-adv-x="1099" d="M213 1411h197l104 -391l74 -281h10l219 336l223 336h211l-589 -868l-105 -543h-188l104 541z" />
<glyph unicode="&#x3a6;" horiz-adv-x="1581" d="M166 606q0 170 50 305.5t143.5 232.5t224.5 152.5t295 65.5l12 63h190l-12 -63q227 -10 355 -133t128 -346q0 -154 -44 -291t-134 -239.5t-226 -166t-321 -69.5l-22 -117h-191l23 117q-225 16 -348 141t-123 348zM356 618q0 -147 72 -236t242 -99l176 913 q-125 -4 -217 -53t-152.5 -128t-90.5 -181.5t-30 -215.5zM860 283q129 10 224.5 59t158 127t93 180.5t30.5 220.5q0 72 -19.5 132.5t-59.5 103.5t-101.5 67.5t-147.5 24.5z" />
<glyph unicode="&#x3a7;" horiz-adv-x="1126" d="M-63 0l571 723l-272 688h210l193 -532l397 532h224l-539 -688l297 -723h-211l-215 569l-432 -569h-223z" />
<glyph unicode="&#x3a8;" horiz-adv-x="1525" d="M174 692q0 25 3 49.5t7 51.5l123 618h187l-121 -614q-4 -20 -6 -40t-2 -38q0 -78 30.5 -129t76.5 -84t100.5 -46.5t103.5 -13.5l188 973h191l-191 -973q180 0 291 80t143 248l123 637h187l-127 -653q-20 -106 -63.5 -193.5t-119 -151t-188.5 -99t-274 -40.5l-5 -2 l-53 -272h-190l53 274q-98 4 -184 36t-148.5 85.5t-98.5 129t-36 167.5z" />
<glyph unicode="&#x3a9;" horiz-adv-x="1271" d="M6 0l31 168h196q-111 84 -110 240q0 23 2 45t6 47l88 458q41 213 180.5 340t380.5 127q98 0 186.5 -28.5t155 -80.5t104.5 -126t38 -164q0 -18 -2 -37.5t-7 -40.5l-79 -448q-18 -109 -70.5 -197t-155.5 -135h189l-33 -168h-447l41 207q45 12 91.5 37.5t84 63.5t67.5 90.5 t42 119.5l80 410q6 37 6 65q0 68 -27.5 117t-70.5 80t-95.5 46t-101.5 15q-145 0 -241.5 -75.5t-131.5 -247.5l-79 -410q-4 -20 -6.5 -38.5t-2.5 -35.5q0 -100 52.5 -157.5t124.5 -79.5l-41 -207h-445z" />
<glyph unicode="&#x3aa;" horiz-adv-x="516" d="M82 0l274 1411h189l-275 -1411h-188zM201 1632q0 47 36.5 83t84.5 36q37 0 59 -22.5t22 -57.5q0 -12 -2 -18q-10 -41 -43.5 -71t-74.5 -30q-35 0 -58.5 22.5t-23.5 57.5zM602 1632q0 47 37 83t82 36q37 0 60.5 -22.5t23.5 -57.5q0 -12 -2 -18q-10 -41 -45 -71t-76 -30 q-35 0 -57.5 22.5t-22.5 57.5z" />
<glyph unicode="&#x3ab;" horiz-adv-x="1099" d="M213 1411h197l104 -391l74 -281h10l219 336l223 336h211l-589 -868l-105 -543h-188l104 541zM496 1622q0 47 36.5 83t83.5 36q37 0 59.5 -22.5t22.5 -57.5q0 -13 -2 -19q-10 -41 -44 -70.5t-74 -29.5q-35 0 -58.5 22.5t-23.5 57.5zM897 1622q0 47 37 83t82 36 q37 0 60.5 -22.5t23.5 -57.5q0 -13 -2 -19q-10 -41 -45 -70.5t-76 -29.5q-35 0 -57.5 22.5t-22.5 57.5z" />
<glyph unicode="&#x3ac;" horiz-adv-x="1026" d="M68 260q0 23 3 45.5t7 46.5l61 312q35 174 129 268t269 94q27 0 57.5 -3t68 -14.5t84 -32t103.5 -52.5l41 90h153l-198 -1014h-154v102q-72 -33 -124 -54t-92 -34.5t-70.5 -18.5t-57.5 -5q-129 0 -204.5 70.5t-75.5 199.5zM250 303q0 -76 40 -108.5t103 -32.5t151.5 35.5 t182.5 83.5l88 477q-59 47 -132 73.5t-148 26.5q-82 0 -141.5 -49t-82.5 -166l-53 -268q-4 -20 -6 -38t-2 -34zM575 1169l220 363l155 -51l-272 -353z" />
<glyph unicode="&#x3ad;" horiz-adv-x="919" d="M78 258q0 70 44 139.5t161 126.5q-66 31 -87.5 81t-21.5 93q0 41 22.5 97.5t71.5 107.5t129 87t195 36q49 0 100 -8t100.5 -23.5t91.5 -41t72 -58.5l-110 -121q-43 47 -112.5 71.5t-129.5 24.5q-43 0 -88 -10t-83 -31.5t-61.5 -55.5t-23.5 -79q0 -49 47 -76.5t135 -27.5 h132l-27 -141h-146q-43 0 -86 -10.5t-76.5 -32t-54 -53t-20.5 -72.5q0 -37 22.5 -61.5t55 -40t70.5 -21.5t67 -6q59 0 136 23.5t140 76.5l86 -131q-86 -68 -195.5 -98.5t-207.5 -30.5q-82 0 -146.5 21.5t-109.5 58.5t-68.5 85t-23.5 101zM561 1169l219 363l156 -51 l-272 -353z" />
<glyph unicode="&#x3ae;" horiz-adv-x="1017" d="M14 0l199 1016h154v-107q76 43 129 66.5t92 35t67.5 13.5t55.5 2q129 0 204.5 -69.5t75.5 -198.5q0 -23 -3 -46.5t-7 -47.5l-193 -983h-176l189 960q4 20 6 37.5t2 34.5q0 78 -41 109.5t-106 31.5q-63 0 -148.5 -31.5t-181.5 -93.5l-142 -729h-176zM559 1169l219 363 l156 -51l-272 -353z" />
<glyph unicode="&#x3af;" horiz-adv-x="507" d="M121 193q0 41 8 79l143 744h174l-137 -711q-4 -23 -6 -39t-2 -30q0 -25 5 -40.5t18.5 -23.5t37 -13t60.5 -12l-33 -155h-45q-104 0 -163.5 49t-59.5 152zM291 1169l219 363l156 -51l-273 -353z" />
<glyph unicode="&#x3b0;" horiz-adv-x="1028" d="M80 319q0 41 10 99l117 598h176l-121 -623q-6 -31 -6 -57q0 -49 18.5 -85t47 -57.5t65.5 -31.5t74 -10q43 0 88 13t86 42t72.5 75t44.5 111l120 623h175l-129 -666q-35 -178 -158 -269t-309 -91q-68 0 -134.5 18.5t-119 58t-85 102t-32.5 150.5zM303 1288q0 47 37 83 t84 36q37 0 59.5 -22.5t22.5 -57.5q0 -47 -38 -83t-83 -36q-35 0 -58.5 22.5t-23.5 57.5zM500 1169l219 363l155 -51l-272 -353zM831 1288q0 47 37 83t82 36q37 0 60.5 -22.5t23.5 -57.5q0 -25 -11 -46t-28.5 -37.5t-39 -26t-44.5 -9.5q-35 0 -57.5 22.5t-22.5 57.5z" />
<glyph unicode="&#x3b1;" horiz-adv-x="1026" d="M68 260q0 23 3 45.5t7 46.5l61 312q35 174 129 268t269 94q27 0 57.5 -3t68 -14.5t84 -32t103.5 -52.5l41 90h153l-198 -1014h-154v102q-72 -33 -124 -54t-92 -34.5t-70.5 -18.5t-57.5 -5q-129 0 -204.5 70.5t-75.5 199.5zM250 303q0 -76 40 -108.5t103 -32.5t151.5 35.5 t182.5 83.5l88 477q-59 47 -132 73.5t-148 26.5q-82 0 -141.5 -49t-82.5 -166l-53 -268q-4 -20 -6 -38t-2 -34z" />
<glyph unicode="&#x3b2;" horiz-adv-x="1028" d="M-43 -328l270 1399q35 182 156 280.5t293 98.5q98 0 163.5 -27.5t105.5 -72.5t56.5 -99.5t16.5 -109.5q0 -76 -37 -154t-133 -133q66 -27 94.5 -89.5t28.5 -133.5q0 -39 -10 -90l-39 -191q-35 -174 -139.5 -268t-286.5 -94q-55 0 -123 11t-170 52l-74 -379h-172zM236 217 q92 -41 164.5 -52t111.5 -11q82 0 146.5 43t89.5 161l40 195q6 25 7 47q0 72 -51.5 113t-137.5 41h-129l27 143h114q49 0 92.5 19.5t75 52t50 73.5t18.5 84q0 68 -46 121t-138 53q-61 0 -107.5 -19t-79 -50t-52 -71t-28.5 -81z" />
<glyph unicode="&#x3b3;" horiz-adv-x="925" d="M127 864l12 144q29 10 52.5 13t39.5 3q61 0 96 -28.5t48 -114.5l78 -525h8l370 658h189l-518 -910l-96 -514h-173l95 502l-109 676q-6 37 -12 56.5t-15.5 28.5t-22.5 10t-34 1h-8z" />
<glyph unicode="&#x3b4;" horiz-adv-x="1030" d="M90 338q0 23 2 45.5t6 44.5l43 213q27 129 95.5 214t181.5 122q-66 39 -87.5 85t-21.5 93q0 74 31 131t85 95t127 58.5t159 20.5q100 0 183 -20.5t148 -67.5l-92 -137q-57 39 -116.5 55.5t-118.5 16.5q-90 0 -152.5 -31t-66.5 -96q0 -41 22.5 -69t58 -49.5t79.5 -39.5 t89 -37q231 -96 232 -307q0 -45 -8 -84l-41 -229q-35 -178 -147.5 -276.5t-319.5 -98.5q-78 0 -145.5 24.5t-118 69.5t-79 109.5t-28.5 144.5zM264 348q0 -98 55.5 -149.5t147.5 -51.5q141 0 206.5 71t88.5 190l31 155q10 51 10 84q0 98 -61.5 148.5t-184.5 78.5 q-98 -23 -161.5 -87t-90.5 -197l-33 -168q-4 -20 -6 -38.5t-2 -35.5z" />
<glyph unicode="&#x3b5;" horiz-adv-x="919" d="M78 258q0 70 44 139.5t161 126.5q-66 31 -87.5 81t-21.5 93q0 41 22.5 97.5t71.5 107.5t129 87t195 36q49 0 100 -8t100.5 -23.5t91.5 -41t72 -58.5l-110 -121q-43 47 -112.5 71.5t-129.5 24.5q-43 0 -88 -10t-83 -31.5t-61.5 -55.5t-23.5 -79q0 -49 47 -76.5t135 -27.5 h132l-27 -141h-146q-43 0 -86 -10.5t-76.5 -32t-54 -53t-20.5 -72.5q0 -37 22.5 -61.5t55 -40t70.5 -21.5t67 -6q59 0 136 23.5t140 76.5l86 -131q-86 -68 -195.5 -98.5t-207.5 -30.5q-82 0 -146.5 21.5t-109.5 58.5t-68.5 85t-23.5 101z" />
<glyph unicode="&#x3b6;" horiz-adv-x="851" d="M74 360q0 98 47 213t139 235t228.5 239.5t314.5 224.5h-535l29 151h786l-28 -145q-393 -242 -597 -478.5t-204 -426.5q0 -80 38 -126t104.5 -69.5t156.5 -30t195 -6.5l38 -125q-31 -35 -62.5 -82t-61 -101t-56 -108.5t-47.5 -103.5l-166 47q12 31 31.5 74t44.5 87 t50.5 86t49.5 73q-113 4 -205 28.5t-156.5 69.5t-99 113.5t-34.5 160.5z" />
<glyph unicode="&#x3b7;" horiz-adv-x="1017" d="M14 0l199 1016h154v-107q76 43 129 66.5t92 35t67.5 13.5t55.5 2q129 0 204.5 -69.5t75.5 -198.5q0 -23 -3 -46.5t-7 -47.5l-193 -983h-176l189 960q4 20 6 37.5t2 34.5q0 78 -41 109.5t-106 31.5q-63 0 -148.5 -31.5t-181.5 -93.5l-142 -729h-176z" />
<glyph unicode="&#x3b8;" horiz-adv-x="1021" d="M80 330q0 25 3 49t7 53l129 641q33 176 143.5 270.5t311.5 94.5q92 0 162.5 -28t119 -76t73 -111.5t24.5 -137.5q0 -41 -11 -92l-129 -643q-23 -106 -67.5 -176t-106 -110.5t-135.5 -57t-151 -16.5q-74 0 -141.5 21.5t-119 63.5t-82 105.5t-30.5 149.5zM258 354 q0 -55 18.5 -94t48 -62.5t66.5 -34.5t74 -11q43 0 86 8t82 34.5t68.5 73.5t46.5 125l57 277h-492l-49 -248q-6 -37 -6 -68zM342 817h494l34 172q8 33 9 72q0 100 -60.5 156.5t-159.5 56.5q-104 0 -175.5 -53.5t-98.5 -186.5z" />
<glyph unicode="&#x3b9;" horiz-adv-x="507" d="M121 193q0 41 8 79l143 744h174l-137 -711q-4 -23 -6 -39t-2 -30q0 -25 5 -40.5t18.5 -23.5t37 -13t60.5 -12l-33 -155h-45q-104 0 -163.5 49t-59.5 152z" />
<glyph unicode="&#x3ba;" horiz-adv-x="962" d="M27 0l186 1016h170l-78 -416h162q29 0 57.5 3t57 16.5t54.5 41t48 78.5l123 279h184l-125 -289q-35 -76 -79 -129t-103 -70q66 -16 87.5 -66t31.5 -126l45 -338h-174l-35 297q-6 49 -19.5 79t-35 45t-49 20t-62.5 5h-197l-79 -446h-170z" />
<glyph unicode="&#x3bb;" horiz-adv-x="1044" d="M23 0l122 647q33 172 142.5 251t263.5 79q55 0 136 -12.5t175 -44.5l27 135q8 33 8 69q0 88 -56.5 134.5t-152.5 46.5q-72 0 -146.5 -17.5t-138.5 -46.5l-55 156q86 39 180.5 58.5t186.5 19.5q166 0 263 -82t97 -238q0 -49 -12 -106l-205 -1049h-174l145 748 q-76 29 -144.5 46t-131.5 17q-82 0 -149.5 -49t-90.5 -168l-114 -594h-176z" />
<glyph unicode="&#x3bc;" horiz-adv-x="1038" d="M-63 -410l276 1426h178l-125 -641q-4 -20 -6 -38t-2 -34q0 -76 40 -108.5t103 -32.5q61 0 151.5 29.5t182.5 95.5l142 729h176l-197 -1016h-176l20 106q-123 -80 -206.5 -98t-137.5 -18q-49 0 -89 12t-66 39l-88 -451h-176z" />
<glyph unicode="&#x3bd;" horiz-adv-x="944" d="M133 1014h186l58 -428l47 -357h8l270 494q45 82 68 135t23 119v41h172v-39q0 -92 -25 -156.5t-70 -140.5l-403 -682h-162z" />
<glyph unicode="&#x3be;" horiz-adv-x="878" d="M80 373q0 43 12 102.5t47 119.5t95.5 114.5t156.5 89.5q-45 20 -73.5 51t-46 64.5t-23.5 68.5t-6 68q0 86 37.5 158.5t102 124.5t153 81t190.5 29q31 0 75 -1t93 -8.5t98 -23.5t88 -47l-92 -145q-70 45 -136.5 56t-125.5 11q-72 0 -128 -19.5t-96 -53t-61.5 -78.5 t-21.5 -97q0 -43 18.5 -76.5t51 -55t73.5 -33t88 -11.5h211l-26 -135h-222q-86 0 -152.5 -31.5t-110.5 -83t-67.5 -115t-23.5 -124.5q0 -84 47 -130t120 -68.5t162 -28t173 -5.5l37 -125q-31 -35 -63 -82t-61.5 -100t-56 -107.5t-47.5 -103.5l-170 47q12 31 32 74t44.5 87 t52 86t52.5 73q-111 6 -203 26.5t-157.5 65.5t-102.5 115.5t-37 175.5z" />
<glyph unicode="&#x3bf;" horiz-adv-x="1034" d="M100 340q0 23 2 45.5t7 46.5l41 217q35 176 140 276.5t306 100.5q92 0 163.5 -28.5t122 -78t77 -115t26.5 -138.5q0 -45 -8 -84l-45 -232q-23 -106 -67 -176t-104.5 -110.5t-134 -57t-155.5 -16.5q-70 0 -136.5 21.5t-118.5 65.5t-84 109.5t-32 153.5zM276 354 q0 -55 18.5 -94t48.5 -62.5t66.5 -34.5t73.5 -11q43 0 86 8t82 34.5t69 73.5t46 125l39 185q8 33 8 69q0 102 -63.5 158.5t-161.5 56.5q-102 0 -173 -53t-96 -186l-36 -201q-6 -37 -7 -68z" />
<glyph unicode="&#x3c0;" horiz-adv-x="1030" d="M18 0l197 1014h836l-197 -1014h-176l166 858h-486l-165 -858h-175z" />
<glyph unicode="&#x3c1;" horiz-adv-x="1015" d="M-68 -406l207 1068q35 176 148.5 270t314.5 94q76 0 142.5 -22.5t116.5 -63.5t80 -99.5t30 -131.5q0 -35 -6 -68l-54 -291q-33 -174 -138 -268t-288 -94q-55 0 -122.5 11t-169.5 52l-89 -457h-172zM225 217q90 -41 151.5 -52t125.5 -11q37 0 74.5 9t70.5 32.5t57.5 63.5 t36.5 99l47 248q6 33 7 62q0 100 -62.5 147t-146.5 47q-43 0 -87 -12t-83 -41t-69 -75t-42 -111z" />
<glyph unicode="&#x3c2;" horiz-adv-x="878" d="M100 346q2 23 3 46.5t6 45.5l38 226q31 174 150 268t293 94q43 0 92 -7t96 -23.5t88 -41t70 -57.5l-117 -129q-25 29 -55.5 47.5t-62 28.5t-62.5 14t-53 4q-35 0 -77 -12t-81 -41t-68.5 -74t-42.5 -112l-30 -174q-6 -35 -6 -62q0 -90 34.5 -141t99 -75t152.5 -28t197 -2 l39 -125q-31 -35 -62.5 -82t-61.5 -100t-56.5 -107.5t-47.5 -103.5l-167 49q12 31 30.5 74t42 87t50 86t51.5 73q-125 0 -216.5 25.5t-149.5 72.5t-87 111.5t-29 144.5z" />
<glyph unicode="&#x3c3;" horiz-adv-x="1056" d="M82 338q0 23 3 46.5t7 47.5l41 219q33 176 149.5 270.5t317.5 94.5h504v-156h-219q43 -33 61.5 -86t18.5 -112q0 -51 -9 -91l-41 -221q-23 -106 -66.5 -176t-104 -112t-134 -58t-151.5 -16q-68 0 -135.5 21.5t-122 65.5t-87 109.5t-32.5 153.5zM260 354q0 -55 18.5 -94 t48 -62.5t66.5 -34.5t74 -11q43 0 86 8t82 34.5t68.5 73.5t46.5 125l34 174q8 33 9 72q0 100 -60.5 156.5t-159.5 56.5q-102 0 -176.5 -53.5t-97.5 -186.5l-33 -190q-6 -37 -6 -68z" />
<glyph unicode="&#x3c4;" horiz-adv-x="741" d="M86 858l31 158h663l-30 -158h-269l-96 -496q-8 -41 -8 -86q0 -51 23.5 -82.5t93.5 -31.5q33 0 74.5 5t93.5 11l8 -158q-63 -20 -129 -25t-97 -5q-141 0 -197.5 61.5t-56.5 163.5q0 49 13 109l106 534h-223z" />
<glyph unicode="&#x3c5;" horiz-adv-x="1028" d="M80 319q0 41 10 99l117 598h176l-121 -623q-6 -31 -6 -57q0 -49 18.5 -85t47 -57.5t65.5 -31.5t74 -10q43 0 88 13t86 42t72.5 75t44.5 111l120 623h175l-129 -666q-35 -178 -158 -269t-309 -91q-68 0 -134.5 18.5t-119 58t-85 102t-32.5 150.5z" />
<glyph unicode="&#x3c6;" horiz-adv-x="1300" d="M92 334q0 27 3 53.5t7 54.5l41 215q12 70 46 131.5t82 109.5t109.5 77t129.5 35l4 -160q-86 -14 -134 -73.5t-69 -158.5l-41 -208q-6 -31 -6 -58q0 -94 63.5 -146t180.5 -54l151 784q188 90 322 90q129 0 205 -72.5t76 -214.5q0 -25 -2.5 -51t-8.5 -55l-49 -264 q-35 -182 -174 -281.5t-377 -99.5h-2l-76 -398h-176l78 398q-174 2 -278.5 91t-104.5 255zM682 154q63 0 122.5 14t106.5 47t81 85t46 128l33 193q8 41 8 79q0 84 -36.5 119t-102.5 35q-25 0 -59.5 -10t-67.5 -21z" />
<glyph unicode="&#x3c7;" horiz-adv-x="888" d="M-84 0l440 520l-223 496h199l139 -354l283 354h217l-422 -492l239 -524h-202l-152 381l-293 -381h-225z" />
<glyph unicode="&#x3c8;" horiz-adv-x="1300" d="M94 342q0 55 12 121l109 551h174l-115 -596q-6 -35 -6 -66q0 -92 59.5 -145t182.5 -55l168 862h174l-166 -860q156 0 235.5 72.5t102.5 191.5l117 596h174l-123 -635q-35 -186 -173 -287.5t-366 -101.5l-78 -400h-174l78 400q-172 2 -278.5 90t-106.5 262z" />
<glyph unicode="&#x3c9;" horiz-adv-x="1564" d="M82 309q0 25 3 50.5t7 54.5l47 239q31 154 121 252.5t272 114.5v-160q-90 -14 -146 -72.5t-79 -173.5l-43 -213q-4 -20 -6 -37.5t-2 -33.5q0 -94 51 -135t123 -41q43 0 85 14t78 44t62.5 77t38.5 112l68 351h174l-70 -351q-6 -37 -6 -69q0 -80 43 -129t131 -49 q115 0 176.5 65.5t83.5 181.5l43 213q4 18 6.5 36t2.5 34q0 78 -38 120t-96 54l60 160q106 -23 177 -100.5t71 -206.5q0 -45 -9 -86l-49 -267q-33 -168 -139 -268t-305 -100q-47 0 -92 10t-84 31.5t-68 51.5t-43 71q-66 -78 -150.5 -121t-183.5 -43q-141 0 -228 84t-87 235z " />
<glyph unicode="&#x3ca;" horiz-adv-x="507" d="M121 193q0 41 8 79l143 744h174l-137 -711q-4 -23 -6 -39t-2 -30q0 -25 5 -40.5t18.5 -23.5t37 -13t60.5 -12l-33 -155h-45q-104 0 -163.5 49t-59.5 152zM135 1288q0 47 37 83t84 36q37 0 59.5 -22.5t22.5 -57.5q0 -12 -2 -18q-10 -41 -44 -71t-75 -30q-35 0 -58.5 22.5 t-23.5 57.5zM537 1288q0 47 36.5 83t81.5 36q37 0 60.5 -22.5t23.5 -57.5q0 -12 -2 -18q-10 -41 -45 -71t-76 -30q-35 0 -57 22.5t-22 57.5z" />
<glyph unicode="&#x3cb;" horiz-adv-x="1028" d="M80 319q0 41 10 99l117 598h176l-121 -623q-6 -31 -6 -57q0 -49 18.5 -85t47 -57.5t65.5 -31.5t74 -10q43 0 88 13t86 42t72.5 75t44.5 111l120 623h175l-129 -666q-35 -178 -158 -269t-309 -91q-68 0 -134.5 18.5t-119 58t-85 102t-32.5 150.5zM371 1288q0 47 36.5 83 t84.5 36q37 0 59 -22.5t22 -57.5q0 -12 -2 -18q-10 -41 -43.5 -71t-74.5 -30q-35 0 -58.5 22.5t-23.5 57.5zM772 1288q0 47 37 83t82 36q37 0 60.5 -22.5t23.5 -57.5q0 -12 -2 -18q-10 -41 -45 -71t-76 -30q-35 0 -57.5 22.5t-22.5 57.5z" />
<glyph unicode="&#x3cc;" horiz-adv-x="1034" d="M100 340q0 23 2 45.5t7 46.5l41 217q35 176 140 276.5t306 100.5q92 0 163.5 -28.5t122 -78t77 -115t26.5 -138.5q0 -45 -8 -84l-45 -232q-23 -106 -67 -176t-104.5 -110.5t-134 -57t-155.5 -16.5q-70 0 -136.5 21.5t-118.5 65.5t-84 109.5t-32 153.5zM276 354 q0 -55 18.5 -94t48.5 -62.5t66.5 -34.5t73.5 -11q43 0 86 8t82 34.5t69 73.5t46 125l39 185q8 33 8 69q0 102 -63.5 158.5t-161.5 56.5q-102 0 -173 -53t-96 -186l-36 -201q-6 -37 -7 -68zM580 1169l219 363l155 -51l-272 -353z" />
<glyph unicode="&#x3cd;" horiz-adv-x="1028" d="M80 319q0 41 10 99l117 598h176l-121 -623q-6 -31 -6 -57q0 -49 18.5 -85t47 -57.5t65.5 -31.5t74 -10q43 0 88 13t86 42t72.5 75t44.5 111l120 623h175l-129 -666q-35 -178 -158 -269t-309 -91q-68 0 -134.5 18.5t-119 58t-85 102t-32.5 150.5zM545 1169l219 363 l156 -51l-273 -353z" />
<glyph unicode="&#x3ce;" horiz-adv-x="1564" d="M82 309q0 25 3 50.5t7 54.5l47 239q31 154 121 252.5t272 114.5v-160q-90 -14 -146 -72.5t-79 -173.5l-43 -213q-4 -20 -6 -37.5t-2 -33.5q0 -94 51 -135t123 -41q43 0 85 14t78 44t62.5 77t38.5 112l68 351h174l-70 -351q-6 -37 -6 -69q0 -80 43 -129t131 -49 q115 0 176.5 65.5t83.5 181.5l43 213q4 18 6.5 36t2.5 34q0 78 -38 120t-96 54l60 160q106 -23 177 -100.5t71 -206.5q0 -45 -9 -86l-49 -267q-33 -168 -139 -268t-305 -100q-47 0 -92 10t-84 31.5t-68 51.5t-43 71q-66 -78 -150.5 -121t-183.5 -43q-141 0 -228 84t-87 235z M811 1169l219 363l156 -51l-273 -353z" />
<glyph unicode="&#x401;" horiz-adv-x="1140" d="M43 0l274 1411h922l-33 -172h-733l-86 -448h643l-33 -170h-645l-88 -451h795l-33 -170h-983zM532 1624q8 41 43 69.5t76 28.5t64.5 -28.5t15.5 -69.5q-10 -41 -44 -70.5t-75 -29.5t-65.5 29.5t-14.5 70.5zM934 1624q8 41 42 69.5t75 28.5t65.5 -28.5t16.5 -69.5 q-10 -41 -45 -70.5t-76 -29.5t-64.5 29.5t-13.5 70.5z" />
<glyph unicode="&#x402;" horiz-adv-x="1447" d="M195 1237l32 174h1088l-33 -174h-530l-70 -352q82 45 174 74.5t178 29.5q100 0 172 -28.5t119 -80t69.5 -121t22.5 -151.5q0 -72 -14 -141l-33 -164q-20 -102 -52 -189t-88 -151.5t-143.5 -101.5t-216.5 -37q-18 0 -37.5 1t-39.5 3l36 170q10 -2 19.5 -2h19.5 q76 0 129.5 20.5t89 62.5t58 103.5t39.5 143.5l28 139q14 63 15 123q0 223 -238 223q-41 0 -87 -11.5t-92 -28.5t-88 -39.5t-77 -45.5l-133 -686h-190l239 1237h-366z" />
<glyph unicode="&#x403;" horiz-adv-x="1050" d="M2 0l274 1411h922l-33 -172h-733l-242 -1239h-188zM602 1597l352 250l97 -125l-389 -211z" />
<glyph unicode="&#x404;" horiz-adv-x="1093" d="M129 377q0 23 3 47.5t7 48.5l97 492q20 106 59 191t103.5 145.5t158.5 92t225 31.5q117 0 225.5 -30.5t186.5 -96.5l-113 -147q-23 23 -58.5 42t-76.5 32.5t-85 21.5t-83 8q-152 0 -238.5 -76.5t-121.5 -252.5l-25 -121h479l-30 -166h-484l-28 -143q-8 -39 -8 -78 q0 -66 24.5 -115t64.5 -81t92 -47t107 -15q80 0 175.5 27.5t168.5 80.5l78 -155q-37 -27 -86 -49.5t-107.5 -40t-121 -27.5t-123.5 -10q-94 0 -179 26.5t-148.5 76.5t-100.5 123t-37 165z" />
<glyph unicode="&#x405;" horiz-adv-x="1138" d="M45 168q29 31 56.5 64.5t56.5 64.5q72 -63 170 -100t215 -37q76 0 141.5 19.5t114.5 54t77.5 86t28.5 114.5q0 51 -26.5 86t-65.5 57.5t-84 35t-82 18.5q-76 14 -150.5 36.5t-133 62.5t-94.5 101.5t-36 151.5q0 98 37 181t104.5 144.5t163 95.5t214.5 34t230.5 -32 t195.5 -89l-101 -150q-68 47 -157 73t-183 26q-49 0 -104 -16.5t-101.5 -49.5t-77 -82t-30.5 -117q0 -53 28.5 -87.5t66.5 -56t78 -32t65 -16.5q86 -18 165.5 -42t142 -62.5t100.5 -102t38 -162.5q0 -106 -47 -190t-127 -142.5t-184.5 -89t-219.5 -30.5q-150 0 -272.5 46 t-212.5 134z" />
<glyph unicode="&#x406;" horiz-adv-x="516" d="M113 0l274 1411h188l-274 -1411h-188z" />
<glyph unicode="&#x407;" horiz-adv-x="516" d="M106 0l275 1411h188l-274 -1411h-189zM213 1655q0 47 37 83t84 36q37 0 59.5 -22.5t22.5 -57.5q0 -13 -2 -19q-10 -41 -44 -70.5t-75 -29.5q-35 0 -58.5 22.5t-23.5 57.5zM614 1655q0 47 37 83t82 36q37 0 60.5 -22.5t23.5 -57.5q0 -13 -2 -19q-10 -41 -45 -70.5 t-76 -29.5q-35 0 -57.5 22.5t-22.5 57.5z" />
<glyph unicode="&#x408;" horiz-adv-x="1067" d="M-18 102l102 142q33 -25 74 -40.5t84 -25.5t84 -14t71 -4q61 0 113.5 16.5t94.5 55t73 103t49 161.5l178 915h189l-187 -956q-20 -109 -61 -196t-104.5 -147.5t-151.5 -93t-203 -32.5q-47 0 -104.5 7t-113.5 22.5t-105.5 37t-81.5 49.5z" />
<glyph unicode="&#x409;" horiz-adv-x="1855" d="M-25 109q94 35 160 85t113 128.5t82 195.5t67 287l117 606h727l-113 -582h351q174 0 269 -93t95 -249q0 -94 -28.5 -182t-87 -155.5t-147.5 -108.5t-208 -41h-590l238 1239h-350l-86 -446q-39 -199 -86 -342.5t-113 -242.5t-153 -160.5t-205 -94.5zM1001 172h355 q137 0 220 79t83 216q0 188 -242 188h-321z" />
<glyph unicode="&#x40a;" horiz-adv-x="1900" d="M68 0l270 1411h186l-114 -590h542l115 590h186l-114 -590h350q174 0 269 -92t95 -248q0 -94 -28.5 -181t-86 -153.5t-145.5 -106.5t-207 -40h-589l125 649h-545l-123 -649h-186zM1016 172h354q137 0 218 76t81 213q0 186 -242 186h-321z" />
<glyph unicode="&#x40b;" horiz-adv-x="1488" d="M199 1237l32 174h1088l-33 -174h-530l-70 -352q82 45 170 74.5t174 29.5q100 0 174 -29.5t122 -81t71.5 -123t23.5 -153.5q0 -33 -4 -66.5t-10 -68.5l-88 -467h-191l89 465q6 35 10 63.5t4 57.5q0 225 -246 225q-84 0 -175 -40t-161 -85l-133 -686h-190l239 1237h-366z " />
<glyph unicode="&#x40c;" horiz-adv-x="1126" d="M43 0l260 1411h184l-112 -608h215q33 0 69.5 6t74.5 26.5t74 61.5t66 113l177 401h190l-182 -428q-45 -106 -108.5 -173t-133.5 -89q80 -29 115 -101.5t45 -177.5l49 -442h-192l-43 422q-6 70 -27 114t-50.5 66.5t-66.5 30.5t-76 8h-225l-119 -641h-184zM641 1597 l352 250l97 -125l-390 -211z" />
<glyph unicode="&#x40e;" horiz-adv-x="1130" d="M123 -14l22 174h88q72 0 118 24.5t81 89.5l25 45l-199 1092h188l72 -448l68 -437h10l233 428l252 457h203l-663 -1167q-49 -86 -92.5 -136.5t-88.5 -78t-95 -35.5t-109 -8h-113zM494 1686v21t2 22h145v-13q0 -20 7 -42.5t21.5 -41t38 -31t58.5 -12.5q74 0 118 44t54 96 h158q-12 -49 -38 -98.5t-67 -89.5t-98 -64.5t-137 -24.5q-137 0 -199.5 63.5t-62.5 170.5z" />
<glyph unicode="&#x40f;" horiz-adv-x="1234" d="M37 0l274 1411h189l-242 -1241h662l241 1241h193l-275 -1411h-420l-67 -342h-199l68 342h-424z" />
<glyph unicode="&#x410;" horiz-adv-x="1222" d="M-33 0l758 1411h188l220 -1411h-191l-49 317h-557l-168 -317h-201zM430 489h436l-47 336l-41 328h-8l-164 -328z" />
<glyph unicode="&#x411;" horiz-adv-x="1208" d="M90 0l268 1411h816l-31 -174h-629l-80 -408h350q174 0 269.5 -93t95.5 -249q0 -94 -28.5 -182t-87 -155.5t-146.5 -108.5t-207 -41h-590zM309 172h355q135 0 218 79t83 216q0 188 -240 188h-324z" />
<glyph unicode="&#x412;" horiz-adv-x="1214" d="M55 0l275 1411h565q94 0 161.5 -27.5t111.5 -75.5t64.5 -110.5t20.5 -130.5q0 -104 -56 -191.5t-183 -150.5q80 -45 107.5 -117.5t27.5 -154.5q0 -86 -31 -168t-91 -145.5t-146 -101.5t-197 -38h-629zM279 170h368q63 0 119.5 17.5t99.5 51t67.5 84t24.5 113.5 q0 98 -60 149.5t-150 51.5h-377zM403 809h375q53 0 103.5 18.5t89.5 50t62.5 75.5t23.5 96q0 98 -59.5 144t-151.5 46h-359z" />
<glyph unicode="&#x413;" horiz-adv-x="1050" d="M43 0l274 1411h922l-33 -172h-733l-242 -1239h-188z" />
<glyph unicode="&#x414;" horiz-adv-x="1415" d="M-119 -305l90 481h105q53 35 98 85t84 128t75 190.5t73 270.5l131 561h890l-237 -1239h115l-93 -477h-184l59 305h-964l-60 -305h-182zM311 170h684l207 1069h-526l-98 -405q-35 -137 -63 -239.5t-56.5 -181.5t-63.5 -137.5t-84 -105.5z" />
<glyph unicode="&#x415;" horiz-adv-x="1140" d="M43 0l274 1411h922l-33 -172h-733l-86 -448h643l-33 -170h-645l-88 -451h795l-33 -170h-983z" />
<glyph unicode="&#x416;" horiz-adv-x="1765" d="M-6 0l201 451q47 106 111.5 180t156.5 102q-61 23 -100 89.5t-50 170.5l-61 418h178l62 -401q8 -70 32.5 -111t56 -62.5t67.5 -27.5t71 -6h151l113 608h184l-112 -608h153q33 0 71 6t77 27.5t78 62.5t73 111l179 401h182l-185 -432q-53 -121 -114.5 -176t-130.5 -78 q82 -29 116.5 -103.5t44.5 -179.5l54 -442h-191l-43 422q-6 70 -27.5 114t-51 66.5t-67.5 30.5t-77 8h-170l-119 -641h-184l119 641h-168q-41 0 -80 -7t-77 -30.5t-73.5 -66.5t-66.5 -115l-182 -422h-201z" />
<glyph unicode="&#x417;" horiz-adv-x="1175" d="M47 127l123 131q25 -23 64.5 -42t85 -33.5t91.5 -22.5t85 -8q80 0 148.5 20.5t118.5 59t78.5 94t28.5 127.5q0 104 -66.5 162.5t-189.5 58.5h-159l32 157h187q39 0 91 11.5t97 39t77 75t32 116.5q0 49 -20.5 84t-56.5 57.5t-83 32.5t-98 10q-104 0 -196.5 -32.5 t-160.5 -79.5l-88 135q82 57 202 100t253 43q92 0 173 -19.5t140.5 -59t93 -100t33.5 -144.5q0 -125 -76.5 -217t-195.5 -133q80 -43 123 -118t43 -159q0 -121 -44 -212t-120 -152.5t-178.5 -92t-220.5 -30.5q-66 0 -133.5 11t-128 30.5t-109.5 45t-76 54.5z" />
<glyph unicode="&#x418;" horiz-adv-x="1308" d="M57 0l269 1411h188l-205 -1065h15l890 1065h181l-269 -1411h-188l207 1079h-12l-900 -1079h-176z" />
<glyph unicode="&#x419;" horiz-adv-x="1308" d="M57 0l269 1411h188l-205 -1065h15l890 1065h181l-269 -1411h-188l207 1079h-12l-900 -1079h-176zM600 1714v21.5t2 21.5h146v-12q0 -20 7 -43t21.5 -41.5t38 -30.5t57.5 -12q74 0 118 44t54 95h158q-12 -49 -37.5 -98t-66.5 -89t-98.5 -64.5t-137.5 -24.5 q-137 0 -199.5 63.5t-62.5 169.5z" />
<glyph unicode="&#x41a;" horiz-adv-x="1126" d="M43 0l260 1411h184l-112 -608h215q33 0 69.5 6t74.5 26.5t74 61.5t66 113l177 401h190l-182 -428q-45 -106 -108.5 -173t-133.5 -89q80 -29 115 -101.5t45 -177.5l49 -442h-192l-43 422q-6 70 -27 114t-50.5 66.5t-66.5 30.5t-76 8h-225l-119 -641h-184z" />
<glyph unicode="&#x41b;" horiz-adv-x="1273" d="M-66 115q94 35 160 84t113 126.5t82 193.5t67 286l117 606h868l-272 -1411h-192l239 1239h-487l-86 -446q-39 -199 -86 -342.5t-112.5 -242.5t-153 -160.5t-205.5 -94.5z" />
<glyph unicode="&#x41c;" horiz-adv-x="1519" d="M37 0l268 1411h170l172 -575l103 -375h12l246 375l387 575h182l-268 -1411h-189l187 961h-11l-180 -273l-330 -479h-139l-139 440l-90 312h-10l-185 -961h-186z" />
<glyph unicode="&#x41d;" horiz-adv-x="1247" d="M29 0l274 1411h189l-119 -610h661l119 610h193l-275 -1411h-192l122 629h-661l-123 -629h-188z" />
<glyph unicode="&#x41e;" horiz-adv-x="1249" d="M115 412q0 55 12 114l86 439q41 213 177 336.5t386 123.5q104 0 191.5 -31.5t150 -88t97 -133t34.5 -166.5q0 -47 -8 -88l-88 -472q-41 -211 -182.5 -335.5t-390.5 -124.5q-94 0 -178.5 28.5t-148 83t-101 133t-37.5 181.5zM307 418q0 -68 21.5 -116t58.5 -80t86 -47 t105 -15q176 0 270 91t129 263l76 387q4 20 6 40t2 36q0 68 -24.5 119t-65.5 86t-93.5 52t-109.5 17q-147 0 -243.5 -76.5t-129.5 -248.5l-80 -418q-4 -25 -6 -46.5t-2 -43.5z" />
<glyph unicode="&#x41f;" horiz-adv-x="1247" d="M29 0l274 1411h1043l-275 -1411h-192l241 1239h-661l-242 -1239h-188z" />
<glyph unicode="&#x420;" horiz-adv-x="1134" d="M12 0l275 1411h553q88 0 154.5 -31.5t110.5 -84t65.5 -119t21.5 -138.5q0 -82 -33 -166t-93 -151.5t-147.5 -110.5t-195.5 -43h-412l-110 -567h-189zM346 741h356q59 0 114.5 20.5t97.5 58.5t67 90.5t25 113.5q0 100 -59.5 157.5t-162.5 57.5h-342z" />
<glyph unicode="&#x421;" horiz-adv-x="1095" d="M100 377q0 23 3 47.5t8 48.5l96 492q41 213 174 336.5t383 123.5q117 0 224.5 -34.5t185.5 -100.5l-121 -145q-23 23 -59 43t-76.5 35.5t-85 23.5t-82.5 8q-143 0 -234.5 -76.5t-126.5 -252.5l-88 -430q-4 -23 -6 -44.5t-2 -39.5q0 -66 22.5 -113t61.5 -78t91 -46 t114 -15q80 0 175 27.5t169 80.5l78 -155q-37 -27 -86.5 -49.5t-107.5 -40t-120.5 -27.5t-124.5 -10q-94 0 -179 26.5t-148.5 76.5t-100.5 123t-37 165z" />
<glyph unicode="&#x422;" horiz-adv-x="1069" d="M207 1237l33 174h1003l-33 -174h-407l-240 -1237h-190l239 1237h-405z" />
<glyph unicode="&#x423;" horiz-adv-x="1130" d="M123 -14l22 174h88q72 0 118 24.5t81 89.5l25 45l-199 1092h188l72 -448l68 -437h10l233 428l252 457h203l-663 -1167q-49 -86 -92.5 -136.5t-88.5 -78t-95 -35.5t-109 -8h-113z" />
<glyph unicode="&#x424;" horiz-adv-x="1581" d="M166 606q0 170 50 305.5t143.5 232.5t224.5 152.5t295 65.5l12 63h190l-12 -63q227 -10 355 -133t128 -346q0 -154 -44 -291t-134 -239.5t-226 -166t-321 -69.5l-22 -117h-191l23 117q-225 16 -348 141t-123 348zM356 618q0 -147 72 -236t242 -99l176 913 q-125 -4 -217 -53t-152.5 -128t-90.5 -181.5t-30 -215.5zM860 283q129 10 224.5 59t158 127t93 180.5t30.5 220.5q0 72 -19.5 132.5t-59.5 103.5t-101.5 67.5t-147.5 24.5z" />
<glyph unicode="&#x425;" horiz-adv-x="1126" d="M-47 0l571 723l-272 688h211l192 -532l398 532h223l-539 -688l297 -723h-211l-215 569l-432 -569h-223z" />
<glyph unicode="&#x426;" horiz-adv-x="1302" d="M29 0l272 1411h188l-239 -1241h661l240 1241h192l-239 -1237l117 -2l-93 -477h-186l59 305h-972z" />
<glyph unicode="&#x427;" horiz-adv-x="1193" d="M172 858q0 70 14 139l82 416h191l-78 -393q-6 -31 -8 -58.5t-4 -52.5q0 -113 62.5 -164t191.5 -51q92 0 191 37t171 82l117 600h190l-274 -1411h-191l119 619q-80 -45 -179 -75t-189 -30q-109 0 -186 24.5t-126 68.5t-71.5 107.5t-22.5 141.5z" />
<glyph unicode="&#x428;" horiz-adv-x="1820" d="M82 0l268 1411h187l-236 -1241h490l237 1241h182l-237 -1241h495l238 1241h186l-270 -1411h-1540z" />
<glyph unicode="&#x429;" horiz-adv-x="1814" d="M31 0l272 1411h189l-240 -1241h496l239 1241h184l-239 -1241h495l240 1241h193l-240 -1237l117 -2l-92 -477h-187l60 305h-1487z" />
<glyph unicode="&#x42a;" horiz-adv-x="1513" d="M209 1237l33 174h630l-112 -582h352q174 0 269.5 -93t95.5 -249q0 -94 -29 -182t-87 -155.5t-147.5 -108.5t-207.5 -41h-590l237 1237h-444zM635 172h354q135 0 219 79t84 216q0 188 -241 188h-322z" />
<glyph unicode="&#x42b;" horiz-adv-x="1615" d="M74 0l268 1411h186l-110 -582h350q174 0 269.5 -93t95.5 -249q0 -94 -29 -182t-87.5 -155.5t-146.5 -108.5t-206 -41h-590zM293 172h354q135 0 218 79t83 216q0 188 -239 188h-324zM1208 0l269 1411h186l-268 -1411h-187z" />
<glyph unicode="&#x42c;" horiz-adv-x="1210" d="M92 0l268 1411h187l-111 -582h350q174 0 269.5 -93t95.5 -249q0 -94 -28.5 -182t-87 -155.5t-146.5 -108.5t-207 -41h-590zM311 172h355q135 0 218 79t83 216q0 188 -240 188h-324z" />
<glyph unicode="&#x42d;" horiz-adv-x="1081" d="M27 115l116 145q25 -23 61 -41t78 -30.5t86 -19.5t85 -7q147 0 238 74.5t124 250.5l29 154h-484l33 170h486l22 117q4 23 6 43t2 39q0 63 -22.5 108t-61.5 73t-89 41t-107 13q-170 0 -330 -104l-66 168q76 53 189 85.5t235 32.5q102 0 184.5 -27.5t139.5 -77.5t88 -121 t31 -159q0 -41 -10 -98l-93 -495q-20 -106 -57 -191.5t-99.5 -146t-155.5 -92t-226 -31.5q-57 0 -118.5 8t-120 23.5t-110 39t-83.5 56.5z" />
<glyph unicode="&#x42e;" horiz-adv-x="1591" d="M63 0l273 1411h188l-116 -610h196l27 147q20 106 60 194.5t104.5 151t156.5 97t217 34.5q96 0 175 -29.5t134.5 -81.5t85 -125t29.5 -159q0 -25 -3 -49.5t-7 -50.5l-86 -469q-41 -219 -172 -347t-352 -128q-102 0 -184 27.5t-139.5 76.5t-89.5 120t-32 157q0 23 2 46 t7 48l32 168h-196l-121 -629h-189zM723 395q0 -61 19.5 -106t52 -74t75.5 -42t93 -13q135 0 224 74.5t124 248.5l84 430q4 25 7 46.5t3 44.5q0 125 -72.5 186t-183.5 61q-131 0 -214 -76.5t-118 -248.5l-86 -443q-4 -25 -6 -46t-2 -42z" />
<glyph unicode="&#x42f;" horiz-adv-x="1165" d="M14 0l172 428q35 90 79 148.5t118 91.5q-98 39 -146.5 110.5t-48.5 182.5q0 104 37 188t102.5 142.5t155.5 89t195 30.5h579l-260 -1411h-184l113 608h-275q-35 -2 -72.5 -11t-74.5 -33.5t-72 -66.5t-61 -110l-160 -387h-197zM385 965q0 -106 67.5 -152.5t174.5 -46.5 h327l88 473h-350q-66 0 -122 -17.5t-97 -52t-64.5 -86t-23.5 -118.5z" />
<glyph unicode="&#x430;" horiz-adv-x="1026" d="M68 260q0 23 3 45.5t7 46.5l61 312q35 174 129 268t269 94q27 0 57.5 -3t68 -14.5t84 -32t103.5 -52.5l41 90h153l-198 -1014h-154v102q-72 -33 -124 -54t-92 -34.5t-70.5 -18.5t-57.5 -5q-129 0 -204.5 70.5t-75.5 199.5zM250 303q0 -76 40 -108.5t103 -32.5t151.5 35.5 t182.5 83.5l88 477q-59 47 -132 73.5t-148 26.5q-82 0 -141.5 -49t-82.5 -166l-53 -268q-4 -20 -6 -38t-2 -34z" />
<glyph unicode="&#x431;" horiz-adv-x="1003" d="M86 315q0 18 2 38t6 40q27 145 46.5 242.5t33.5 168t26.5 124t24.5 108.5q20 92 56 167t91.5 130.5t135.5 91t188 50.5q76 10 144.5 15t134.5 15l18 -155q-92 -12 -157.5 -17.5t-122.5 -15.5q-141 -23 -218 -99.5t-108 -240.5l-22 -103q86 45 161.5 67t135.5 22 q152 0 229.5 -72t77.5 -225q0 -10 -1 -26.5t-5.5 -50.5t-13.5 -89.5t-23 -141.5q-31 -180 -142.5 -274t-310.5 -94q-84 0 -155.5 20.5t-123 61.5t-80 101t-28.5 142zM264 336q0 -92 50 -137t159 -45q70 0 119 15t82 45t52 75t32 104q12 61 18 102.5t9 67t3 39.5v25 q0 35 -7 65.5t-24.5 54t-47 38t-76.5 14.5q-66 0 -144.5 -29t-158.5 -72q-4 -16 -7.5 -34.5t-10.5 -50t-17 -82t-25 -128.5q-6 -37 -6 -67z" />
<glyph unicode="&#x432;" horiz-adv-x="978" d="M25 104l114 572q12 63 43 125.5t84 113t130 81t186 30.5q90 0 152.5 -23.5t100 -59.5t54 -79t16.5 -82q0 -29 -8 -61.5t-25.5 -63t-44 -56.5t-63.5 -40q78 -20 114.5 -76.5t36.5 -124.5q0 -70 -24.5 -137t-78.5 -120.5t-139 -86t-206 -32.5q-78 0 -146.5 13t-127 31.5 t-101.5 39t-67 36.5zM223 203q14 -8 40 -18.5t57.5 -18.5t67.5 -14.5t71 -6.5q90 0 145 20.5t85 49.5t40 62.5t10 60.5q0 57 -34.5 97t-131.5 40h-118l26 141h90q74 0 112 39t38 90q0 45 -34 83t-120 38q-72 0 -119 -25.5t-76.5 -60.5t-45 -73.5t-19.5 -63.5z" />
<glyph unicode="&#x433;" horiz-adv-x="925" d="M61 236q0 113 50.5 177t124 100t161.5 53.5t162 37t124 50t50 94.5q0 53 -49 87.5t-129 34.5q-78 0 -144.5 -21.5t-146.5 -66.5l-71 136q92 59 185 83.5t208 24.5q61 0 118.5 -16.5t102.5 -49t71.5 -78.5t26.5 -104q0 -104 -46 -167.5t-114.5 -102.5t-150.5 -57.5 t-156 -30.5q-33 -6 -67.5 -16.5t-64.5 -28t-48 -45t-18 -66.5q0 -35 16 -58.5t42 -37.5t59.5 -21.5t68.5 -7.5q94 0 171 25.5t159 85.5l84 -133q-117 -78 -219.5 -103.5t-208.5 -25.5q-158 0 -254.5 65.5t-96.5 182.5z" />
<glyph unicode="&#x434;" horiz-adv-x="1034" d="M72 330q0 47 12 100l39 176q18 80 48 147.5t79 116t119.5 75t169.5 26.5q39 0 81 -8.5t81.5 -21.5t74.5 -32.5t62 -42.5l12 68q8 41 11 77t3 66q0 123 -62.5 182.5t-211.5 59.5q-39 0 -88 -5t-111 -16l-26 144q59 16 121.5 22t121.5 6q205 0 313.5 -88t108.5 -299 q0 -47 -6 -99t-16 -112l-95 -505q-41 -190 -158.5 -285.5t-303.5 -95.5q-174 0 -276.5 86t-102.5 258zM250 348q0 -109 58.5 -153.5t150.5 -44.5q47 0 92 13t84 41.5t67.5 75t45.5 111.5l30 131q2 10 7.5 35t9.5 52.5t8 51t4 31.5q-41 47 -108.5 81t-149.5 34 q-100 0 -165 -55.5t-93 -184.5l-33 -147q-4 -18 -5 -36.5t-3 -35.5z" />
<glyph unicode="&#x435;" horiz-adv-x="962" d="M80 322q0 70 15.5 164t41.5 184q47 168 161 262t294 94q154 0 248 -73.5t94 -202.5q0 -63 -22.5 -126t-87 -112t-179.5 -79t-297 -30h-43t-45 3q-10 -41 -10 -74q0 -80 52 -132.5t157 -52.5q59 0 118.5 23t106.5 74l119 -127q-76 -70 -165 -99.5t-187 -29.5 q-178 0 -274.5 90t-96.5 244zM283 559q25 -2 47 -2h45q123 0 196.5 16.5t113.5 42t53.5 56t13.5 59.5q0 66 -41 100.5t-129 34.5q-131 0 -201 -82t-98 -225z" />
<glyph unicode="&#x436;" horiz-adv-x="1411" d="M-4 0l145 346q33 78 77 131t118 70q-53 16 -82 66.5t-39 123.5l-35 281h172l33 -279q6 -49 23.5 -76.5t42 -42t54.5 -17.5t58 -3h94l76 416h170l-76 -416h97q29 0 57.5 3t57 16.5t54 41t48.5 78.5l123 279h184l-125 -289q-35 -76 -79 -129t-103 -70q66 -16 87 -66 t32 -126l45 -338h-175l-34 297q-6 49 -19.5 79t-35 45t-49 20t-62.5 5h-131l-82 -446h-170l82 446h-117q-35 0 -65.5 -4t-58.5 -19t-51.5 -45t-43.5 -81l-117 -297h-180z" />
<glyph unicode="&#x437;" horiz-adv-x="933" d="M25 111l108 118q45 -37 118 -60.5t146 -23.5q119 0 183.5 44t64.5 133q0 59 -49 91.5t-121 32.5h-156l31 148h156q35 0 69.5 6t62.5 22.5t44 44t16 68.5q0 63 -50 97t-136 34q-61 0 -124.5 -15t-145.5 -54l-62 133q90 43 174.5 66.5t188.5 23.5q70 0 131 -16.5t107 -49 t73 -82t27 -114.5q0 -80 -41 -146.5t-127 -101.5q66 -33 89 -80t23 -98q0 -84 -32.5 -147.5t-90 -106.5t-136.5 -65.5t-173 -22.5q-53 0 -107.5 9t-103.5 24.5t-90 38t-67 49.5z" />
<glyph unicode="&#x438;" horiz-adv-x="1026" d="M74 260q0 23 3 45.5t7 46.5l131 664h176l-125 -641q-4 -20 -6 -38t-2 -34q0 -76 40 -108.5t103 -32.5q61 0 152.5 37t183.5 98l142 719h174l-197 -1016h-151l-5 106q-63 -41 -114 -63.5t-93 -34.5t-76 -15t-61 -3q-129 0 -205.5 70.5t-76.5 199.5z" />
<glyph unicode="&#x439;" horiz-adv-x="1026" d="M72 260q0 23 3 45.5t7 46.5l131 664h176l-125 -641q-4 -20 -6 -38t-2 -34q0 -76 40 -108.5t103 -32.5q61 0 152.5 37t183.5 98l142 719h174l-197 -1016h-152l-4 106q-63 -41 -114.5 -63.5t-93 -34.5t-75.5 -15t-61 -3q-129 0 -205.5 70.5t-76.5 199.5zM408 1448h149 q-10 -53 19.5 -91t95.5 -38q33 0 62.5 12t54 31.5t40 42t19.5 43.5h147q-10 -45 -33.5 -92t-64.5 -85t-101.5 -62.5t-144.5 -24.5q-80 0 -130 26.5t-77.5 65.5t-35 85t-0.5 87z" />
<glyph unicode="&#x43a;" horiz-adv-x="962" d="M27 0l186 1016h170l-78 -416h162q29 0 57.5 3t57 16.5t54.5 41t48 78.5l123 279h184l-125 -289q-35 -76 -79 -129t-103 -70q66 -16 87.5 -66t31.5 -126l45 -338h-174l-35 297q-6 49 -19.5 79t-35 45t-49 20t-62.5 5h-197l-79 -446h-170z" />
<glyph unicode="&#x43b;" horiz-adv-x="1058" d="M-35 117q53 27 97 56.5t81 79.5t67 131t54 210l82 420h705l-197 -1014h-176l166 858h-355l-53 -274q-31 -158 -69.5 -261.5t-90 -171t-114 -107.5t-137.5 -69z" />
<glyph unicode="&#x43c;" horiz-adv-x="1216" d="M23 0l196 1014h164l223 -649l473 649h158l-197 -1014h-176l121 631l-358 -486h-125l-178 488l-123 -633h-178z" />
<glyph unicode="&#x43d;" horiz-adv-x="1034" d="M20 0l197 1014h176l-82 -422h477l82 422h177l-197 -1014h-176l84 432h-477l-84 -432h-177z" />
<glyph unicode="&#x43e;" horiz-adv-x="1034" d="M100 340q0 23 2 45.5t7 46.5l41 217q35 176 140 276.5t306 100.5q92 0 163.5 -28.5t122 -78t77 -115t26.5 -138.5q0 -45 -8 -84l-45 -232q-23 -106 -67 -176t-104.5 -110.5t-134 -57t-155.5 -16.5q-70 0 -136.5 21.5t-118.5 65.5t-84 109.5t-32 153.5zM276 354 q0 -55 18.5 -94t48.5 -62.5t66.5 -34.5t73.5 -11q43 0 86 8t82 34.5t69 73.5t46 125l39 185q8 33 8 69q0 102 -63.5 158.5t-161.5 56.5q-102 0 -173 -53t-96 -186l-36 -201q-6 -37 -7 -68z" />
<glyph unicode="&#x43f;" horiz-adv-x="1017" d="M31 0l198 1016h154v-107q76 43 129 66.5t92 35t67.5 13.5t55.5 2q129 0 205 -69.5t76 -198.5q0 -23 -3.5 -46.5t-7.5 -47.5l-129 -664h-176l125 641q4 20 6 37.5t2 34.5q0 78 -41 109.5t-106 31.5q-63 0 -148.5 -31.5t-181.5 -93.5l-141 -729h-176z" />
<glyph unicode="&#x440;" horiz-adv-x="1015" d="M-41 -406l272 1420h154v-107q131 72 210 94.5t134 22.5q129 0 205 -61.5t76 -196.5q0 -25 -2 -50.5t-9 -53.5l-61 -312q-35 -174 -133 -268t-293 -94q-55 0 -122.5 11t-170.5 52l-88 -457h-172zM252 217q90 -41 151.5 -52t124.5 -11q41 0 79 9t69 32.5t53.5 63.5t34.5 99 l57 291q4 20 6 38t2 34q0 76 -40.5 104.5t-108.5 28.5q-59 0 -150.5 -35t-177.5 -84z" />
<glyph unicode="&#x441;" horiz-adv-x="872" d="M74 307q0 45 8 84l51 273q33 174 142.5 268t289.5 94q88 0 180.5 -28.5t147.5 -104.5l-111 -123q-47 57 -107.5 75.5t-105.5 18.5q-100 0 -171.5 -56t-96.5 -185l-45 -230q-6 -31 -6 -57q0 -49 18.5 -84t47 -56.5t65.5 -31.5t74 -10q47 0 111.5 18t121.5 66l100 -134 q-78 -66 -172 -90t-182 -24q-70 0 -134 19.5t-114.5 58t-81 98t-30.5 141.5z" />
<glyph unicode="&#x442;" horiz-adv-x="1550" d="M31 0l196 1016h156v-109q63 43 107.5 66.5t78 36t59 14.5t52.5 2q88 0 140 -27.5t91 -93.5q117 72 200 96.5t149 24.5q133 0 208.5 -74.5t75.5 -197.5q0 -45 -8 -84l-129 -670h-178l127 647q6 31 6 60q0 72 -39 110.5t-104 38.5q-51 0 -120 -20.5t-155 -79.5 q0 -20 -5 -60.5t-9 -58.5l-123 -637h-174l125 641q8 33 8 70q0 141 -133 141q-45 0 -116 -29.5t-171 -101.5l-139 -721h-176z" />
<glyph unicode="&#x443;" horiz-adv-x="915" d="M55 -412l228 430l-72 72l-98 926h180l35 -418l34 -442h7l303 567q45 84 65.5 136t20.5 118v41h178v-39q0 -92 -25.5 -156.5t-68.5 -140.5l-600 -1094h-187z" />
<glyph unicode="&#x444;" horiz-adv-x="1288" d="M96 387q0 141 41 256t117 198t180.5 131t233.5 54l73 385h174l-73 -385q176 -10 272 -110.5t96 -290.5q0 -147 -44 -264t-121.5 -198t-182 -126t-223.5 -49l-76 -396h-174l76 396q-80 6 -147.5 33.5t-116.5 76.5t-77 121t-28 168zM270 399q0 -117 64.5 -177t163.5 -70 l137 710q-78 -2 -144.5 -34.5t-115.5 -92t-77 -144.5t-28 -192zM672 152q74 4 140.5 37.5t116.5 93t79.5 144.5t29.5 194q0 117 -63.5 175t-165.5 66z" />
<glyph unicode="&#x445;" horiz-adv-x="888" d="M-68 0l441 520l-223 496h198l139 -354l283 354h217l-422 -492l240 -524h-203l-151 381l-293 -381h-226z" />
<glyph unicode="&#x446;" horiz-adv-x="1032" d="M61 260q0 23 3.5 45.5t7.5 46.5l131 664h176l-125 -641q-4 -20 -5 -38t-3 -34q0 -76 40 -108.5t103 -32.5q61 0 152.5 37t183.5 98l141 719h174l-137 -707q-4 -18 -6 -36.5t-2 -39.5q0 -49 22.5 -95t75.5 -77l-69 -325h-168l41 258q-35 23 -56.5 57.5t-21.5 79.5h-4 q-55 -49 -109.5 -76.5t-103.5 -42t-90 -18.5t-68 -4q-129 0 -206 70.5t-77 199.5z" />
<glyph unicode="&#x447;" horiz-adv-x="958" d="M82 596q0 25 2 52.5t8 56.5l62 313h176l-56 -291q-4 -20 -6 -37.5t-2 -34.5q0 -78 40 -109.5t106 -31.5q63 0 148 30.5t173 82.5l76 391h176l-197 -1018h-176l86 453q-66 -35 -118 -56.5t-94 -34t-75.5 -16.5t-60.5 -4q-137 0 -202.5 65.5t-65.5 188.5z" />
<glyph unicode="&#x448;" horiz-adv-x="1550" d="M63 264q0 18 2.5 39t6.5 43l129 670h178l-127 -647q-6 -31 -6 -60q0 -72 39 -110.5t104 -38.5q53 0 121 20.5t154 79.5q0 20 5 60t9 59l123 637h174l-125 -641q-6 -37 -6 -68q0 -143 131 -143q45 0 115.5 29.5t171.5 101.5l139 721h176l-197 -1016h-155v109 q-61 -43 -105.5 -67t-78 -36t-60.5 -14t-53 -2q-88 0 -140.5 27.5t-91.5 93.5q-117 -72 -199.5 -96.5t-148.5 -24.5q-133 0 -209 74.5t-76 199.5z" />
<glyph unicode="&#x449;" horiz-adv-x="1572" d="M59 264q0 18 2 39t7 43l129 670h178l-127 -647q-6 -31 -6 -60q0 -72 38.5 -110.5t104.5 -38.5q53 0 120.5 20.5t153.5 79.5q0 20 5.5 60t9.5 59l123 637h174l-125 -641q-6 -37 -6 -68q0 -143 131 -143q45 0 115.5 29.5t170.5 101.5l144 721h174l-137 -707 q-4 -18 -6 -36.5t-2 -39.5q0 -49 19 -94t73 -76l-70 -327h-164l37 260q-72 47 -72 135h-4q-61 -49 -111.5 -77.5t-91 -43t-74.5 -17.5t-63 -3q-80 0 -131 30.5t-86 90.5q-117 -72 -199.5 -96.5t-148.5 -24.5q-133 0 -209 74.5t-76 199.5z" />
<glyph unicode="&#x44a;" horiz-adv-x="1193" d="M82 860l29 156h514l-76 -375h4q111 51 184.5 66.5t124.5 15.5q66 0 119 -20.5t90 -57.5t55.5 -88t14.5 -113q-4 -41 -12.5 -92t-18.5 -90q-18 -68 -48 -119t-79 -87t-120.5 -54t-176.5 -18q-96 0 -204.5 25.5t-215.5 78.5l154 772h-338zM457 186q66 -27 128 -36t103 -9 q68 0 113 12.5t74.5 34t45 49t21.5 58.5q2 8 5 23.5t6 32t6.5 32.5t3.5 27q8 84 -27 117.5t-107 33.5q-59 0 -146 -32.5t-171 -79.5z" />
<glyph unicode="&#x44b;" horiz-adv-x="1294" d="M20 88l185 928h174l-76 -375h4q111 51 184.5 66.5t124.5 15.5q66 0 119 -20.5t90 -57.5t55.5 -88.5t14.5 -112.5q-4 -41 -12.5 -92t-18.5 -90q-18 -68 -48 -119t-79 -87t-120.5 -54t-176.5 -18q-96 0 -204.5 25.5t-215.5 78.5zM211 186q66 -27 128 -36t103 -9 q68 0 113 12.5t74.5 34t45 49t21.5 58.5q2 8 5.5 23.5t6.5 32t6 32.5t3 27q8 84 -27 117.5t-106 33.5q-59 0 -146.5 -32.5t-171.5 -79.5zM944 0l195 1014h166l-195 -1014h-166z" />
<glyph unicode="&#x44c;" horiz-adv-x="948" d="M20 88l185 928h174l-76 -375h4q111 51 184.5 66.5t124.5 15.5q66 0 119 -20.5t90 -57.5t55.5 -88.5t14.5 -112.5q-4 -41 -12.5 -92t-18.5 -90q-18 -68 -48 -119t-79 -87t-120.5 -54t-176.5 -18q-96 0 -204.5 25.5t-215.5 78.5zM211 186q66 -27 128 -36t103 -9 q68 0 113 12.5t74.5 34t45 49t21.5 58.5q2 8 5.5 23.5t6.5 32t6 32.5t3 27q8 84 -27 117.5t-106 33.5q-59 0 -146.5 -32.5t-171.5 -79.5z" />
<glyph unicode="&#x44d;" horiz-adv-x="870" d="M49 121l109 127q27 -31 59.5 -49.5t65 -28.5t63.5 -13t53 -3q55 0 95.5 11t69 38.5t49 73t32.5 110.5l12 64h-360l29 149h362l6 29q8 35 8 73q0 90 -54 125t-140 35q-47 0 -108.5 -15.5t-118.5 -62.5l-105 123q86 72 179.5 95.5t181.5 23.5q170 0 253.5 -85t83.5 -216 q0 -18 -2 -37.5t-6 -40.5l-49 -282q-31 -174 -126 -274.5t-279 -100.5q-43 0 -92.5 6t-97.5 20.5t-92 40t-81 64.5z" />
<glyph unicode="&#x44e;" horiz-adv-x="1290" d="M20 0l197 1014h176l-84 -424h150l12 63q35 176 142.5 274.5t291.5 98.5q174 0 267.5 -90t93.5 -234q0 -45 -9 -86l-43 -258q-12 -68 -38.5 -134t-75.5 -118.5t-127 -84t-193 -31.5q-80 0 -146.5 20.5t-114.5 60.5t-74.5 98t-26.5 132v32.5t4 33.5l8 65h-149l-84 -432 h-177zM592 332q0 -96 57.5 -137t155.5 -41q102 0 158.5 53t83.5 186l38 230q6 33 7 61q0 49 -16.5 83t-44 55.5t-65.5 30.5t-79 9q-88 0 -158 -54t-92 -185l-39 -230q-6 -35 -6 -61z" />
<glyph unicode="&#x44f;" horiz-adv-x="962" d="M-10 0l137 350q39 104 135 129q-72 23 -99.5 73t-27.5 114q0 49 10 90q37 158 134.5 220t263.5 62q102 0 220 -25.5t220 -74.5l-174 -938h-164l166 848q-78 29 -143.5 40t-118.5 11q-106 0 -161.5 -45t-78.5 -135q-6 -29 -6 -45q0 -47 29.5 -84t124.5 -39h182l-18 -139 h-160q-57 0 -103.5 -18.5t-81.5 -94.5l-112 -299h-174z" />
<glyph unicode="&#x451;" horiz-adv-x="962" d="M72 322q0 70 15 164t42 184q47 168 161 262t294 94q154 0 248 -73.5t94 -202.5q0 -63 -22.5 -126t-87 -112t-179.5 -79t-297 -30h-43.5t-44.5 3q-10 -41 -10 -74q0 -80 52 -132.5t157 -52.5q59 0 118.5 23t106.5 74l119 -127q-76 -70 -165 -99.5t-188 -29.5 q-178 0 -274 90t-96 244zM274 559q25 -2 47.5 -2h45.5q123 0 196.5 16.5t113.5 42t53 56t13 59.5q0 66 -41 100.5t-129 34.5q-131 0 -200.5 -82t-98.5 -225zM387 1303q0 47 37 82.5t84 35.5q37 0 59.5 -22.5t22.5 -57.5q0 -12 -2 -18q-10 -41 -44 -70.5t-75 -29.5 q-35 0 -58.5 22.5t-23.5 57.5zM788 1303q0 47 37 82.5t82 35.5q37 0 60.5 -22.5t23.5 -57.5q0 -12 -2 -18q-10 -41 -45 -70.5t-76 -29.5q-35 0 -57.5 22.5t-22.5 57.5z" />
<glyph unicode="&#x452;" horiz-adv-x="1069" d="M76 0l227 1171h-94l27 140h94l30 155h177l-31 -155h446l-26 -140h-447l-53 -270q70 39 124 63.5t97 39t76 18.5t61 4q135 0 200 -64.5t65 -183.5q0 -53 -13 -114l-84 -459q-18 -90 -45.5 -161t-71.5 -118t-108.5 -71.5t-155.5 -24.5q-41 0 -86 6l33 160q10 -2 19.5 -2 h19.5q57 0 95 12t62.5 40t40 72t27.5 109l78 414q4 20 6 37.5t2 34.5q0 78 -40 109.5t-105 31.5q-63 0 -151.5 -30.5t-176.5 -82.5l-143 -741h-176z" />
<glyph unicode="&#x453;" horiz-adv-x="925" d="M61 236q0 113 50.5 177t124 100t161.5 53.5t162 37t124 50t50 94.5q0 53 -49 87.5t-129 34.5q-78 0 -144.5 -21.5t-146.5 -66.5l-71 136q92 59 185 83.5t208 24.5q61 0 118.5 -16.5t102.5 -49t71.5 -78.5t26.5 -104q0 -104 -46 -167.5t-114.5 -102.5t-150.5 -57.5 t-156 -30.5q-33 -6 -67.5 -16.5t-64.5 -28t-48 -45t-18 -66.5q0 -35 16 -58.5t42 -37.5t59.5 -21.5t68.5 -7.5q94 0 171 25.5t159 85.5l84 -133q-117 -78 -219.5 -103.5t-208.5 -25.5q-158 0 -254.5 65.5t-96.5 182.5zM567 1169l219 363l156 -51l-274 -353z" />
<glyph unicode="&#x454;" horiz-adv-x="872" d="M90 307q0 45 8 84l52 273q33 174 138.5 268t291.5 94q43 0 89 -6t90 -21.5t82 -41t66 -64.5l-121 -123q-47 57 -107.5 75.5t-105.5 18.5q-117 0 -173 -57t-83 -184l-8 -37h334l-29 -144h-333l-9 -49q-6 -31 -6 -57q0 -49 18.5 -84t47 -56.5t65.5 -31.5t74 -10 q47 0 111.5 18t122.5 66l100 -134q-78 -66 -172 -90t-182 -24q-70 0 -134.5 19.5t-114.5 58t-81 98t-31 141.5z" />
<glyph unicode="&#x455;" horiz-adv-x="929" d="M33 123l108 127q66 -63 140.5 -87t169.5 -24q39 0 80.5 9.5t77.5 30t58.5 53t22.5 79.5q0 55 -37 81t-102 40q-53 12 -117.5 24.5t-123 39t-97.5 72.5t-39 126q0 82 37 144.5t95.5 104.5t131 62.5t146.5 20.5q115 0 201.5 -23.5t158.5 -82.5l-100 -132q-61 45 -126 63.5 t-143 18.5q-104 0 -165.5 -46t-61.5 -111q0 -29 16.5 -48.5t42 -34t58.5 -22.5t63 -14q47 -8 106.5 -22.5t111 -43t86 -75.5t34.5 -123q0 -84 -33.5 -148.5t-93 -107.5t-139.5 -64.5t-172 -21.5q-106 0 -207.5 28.5t-187.5 106.5z" />
<glyph unicode="&#x456;" horiz-adv-x="507" d="M115 182q0 18 5 43t9 47l143 746h174l-137 -713q-4 -23 -6 -39t-2 -30q0 -51 20.5 -63.5t77.5 -25.5l-32 -155h-23q-117 0 -173 44t-56 146zM311 1303q0 49 38 85.5t85 36.5q39 0 63.5 -23.5t24.5 -60.5q0 -12 -2 -18q-10 -43 -46 -73.5t-79 -30.5q-35 0 -59.5 24.5 t-24.5 59.5z" />
<glyph unicode="&#x457;" horiz-adv-x="507" d="M121 193q0 41 8 79l143 744h174l-137 -711q-4 -23 -6 -39t-2 -30q0 -51 25.5 -66.5t72.5 -22.5l-32 -155h-23q-104 0 -163.5 49t-59.5 152zM121 1288q0 47 37 83t84 36q37 0 59.5 -22.5t22.5 -57.5q0 -12 -2 -18q-10 -41 -44 -71t-75 -30q-35 0 -58.5 22.5t-23.5 57.5z M522 1288q0 47 37 83t82 36q37 0 60.5 -22.5t23.5 -57.5q0 -12 -2 -18q-10 -41 -45 -71t-76 -30q-35 0 -57.5 22.5t-22.5 57.5z" />
<glyph unicode="&#x458;" horiz-adv-x="497" d="M-180 -420l30 160q55 -6 93.5 0t65 27.5t43 57.5t26.5 91l215 1102h172l-217 -1127q-14 -72 -32.5 -131t-51.5 -102t-85 -66.5t-132 -23.5q-57 0 -127 12zM326 1303q0 49 38 85.5t85 36.5q39 0 63.5 -23.5t24.5 -60.5q0 -49 -40 -85.5t-87 -36.5q-35 0 -59.5 24.5 t-24.5 59.5z" />
<glyph unicode="&#x459;" horiz-adv-x="1531" d="M-20 119q57 29 104 58.5t86 79.5t69.5 130t55.5 209l82 422h584l-74 -377h4q111 51 184.5 66.5t124.5 15.5q66 0 119 -20.5t90 -57.5t55.5 -88t14.5 -113q-4 -41 -12.5 -92t-18.5 -90q-18 -68 -48 -119t-79 -87t-121 -54t-176 -18q-96 0 -204.5 25.5t-215.5 78.5l154 782 h-238l-53 -284q-31 -158 -71 -260.5t-91 -170t-117.5 -107.5t-148.5 -71zM795 186q66 -27 128 -36t103 -9q68 0 113 12.5t74.5 34t45 49t21.5 58.5q2 8 5 23.5t6 32t6 32.5t3 27q8 84 -26.5 117.5t-106.5 33.5q-59 0 -146 -32.5t-171 -79.5z" />
<glyph unicode="&#x45a;" horiz-adv-x="1538" d="M20 0l197 1016h176l-78 -398h400l80 398h172l-74 -375h4q111 51 184.5 66.5t124.5 15.5q66 0 119 -20.5t90 -57.5t55.5 -88t14.5 -113q-4 -41 -12.5 -92t-18.5 -90q-18 -68 -48 -119t-79 -87t-120.5 -54t-176.5 -18q-96 0 -204.5 25.5t-215.5 78.5l76 381h-399l-90 -469 h-177zM801 186q66 -27 128 -36t103 -9q68 0 113 12.5t74.5 34t45 49t21.5 58.5q2 8 5 23.5t6 32t6.5 32.5t3.5 27q8 84 -27 117.5t-106 33.5q-59 0 -146.5 -32.5t-171.5 -79.5z" />
<glyph unicode="&#x45b;" horiz-adv-x="1017" d="M37 0l229 1171h-96l27 138h98l31 157h174l-31 -157h449l-27 -138h-451l-51 -262q68 39 120 62.5t93 36t72.5 15.5t58.5 3q137 0 209 -67.5t72 -194.5q0 -23 -2 -47.5t-8 -52.5l-130 -664h-176l125 641q4 20 6 37.5t2 34.5q0 78 -40.5 109.5t-106.5 31.5 q-63 0 -151.5 -28.5t-178.5 -90.5l-141 -735h-176z" />
<glyph unicode="&#x45c;" horiz-adv-x="962" d="M27 0l186 1016h170l-78 -416h162q29 0 57.5 3t57 16.5t54.5 41t48 78.5l123 279h184l-125 -289q-35 -76 -79 -129t-103 -70q66 -16 87.5 -66t31.5 -126l45 -338h-174l-35 297q-6 49 -19.5 79t-35 45t-49 20t-62.5 5h-197l-79 -446h-170zM506 1169l219 363l156 -51 l-275 -353z" />
<glyph unicode="&#x45e;" horiz-adv-x="915" d="M55 -412l228 430l-72 72l-98 926h180l35 -418l34 -442h7l303 567q45 84 65.5 136t20.5 118v41h178v-39q0 -92 -25.5 -156.5t-68.5 -140.5l-600 -1094h-187zM307 1405v21.5t2 21.5h146v-12q0 -20 7 -43t21.5 -41.5t38 -30.5t58.5 -12q74 0 117.5 44t54.5 95h157 q-12 -49 -37.5 -98.5t-66.5 -89t-98.5 -64.5t-137.5 -25q-137 0 -199.5 63.5t-62.5 170.5z" />
<glyph unicode="&#x45f;" horiz-adv-x="1026" d="M80 260q0 23 3 45.5t7 46.5l131 664h176l-125 -641q-4 -20 -6 -38t-2 -34q0 -76 40 -108.5t104 -32.5q61 0 152 37t183 98l142 719h174l-197 -1016h-151l-4 106q-63 -41 -114.5 -63.5t-93.5 -34.5t-76 -15t-61 -3q-129 0 -205.5 70.5t-76.5 199.5zM328 -408l57 334 l186 25l-100 -359h-143z" />
<glyph unicode="&#x490;" horiz-adv-x="1073" d="M47 0l272 1411h750l47 244h182l-79 -416h-744l-242 -1239h-186z" />
<glyph unicode="&#x491;" horiz-adv-x="839" d="M16 0l197 1016h565l41 211h170l-71 -369h-558l-167 -858h-177z" />
<glyph unicode="&#x4d9;" horiz-adv-x="962" d="M74 266q0 63 22.5 126t87 112t179 78.5t296.5 29.5h43.5t45.5 -2q10 41 10 74q0 80 -52.5 132t-156.5 52q-59 0 -118.5 -22.5t-106.5 -73.5l-119 127q76 70 165 99.5t187 29.5q178 0 274.5 -90t96.5 -244q0 -70 -15.5 -164t-42.5 -184q-47 -168 -160.5 -262t-293.5 -94 q-154 0 -248 73.5t-94 202.5zM256 285q0 -66 41 -100.5t129 -34.5q131 0 200.5 81.5t98.5 225.5q-25 2 -47.5 2h-44.5q-123 0 -197 -16.5t-113.5 -42t-53 -56.5t-13.5 -59z" />
<glyph unicode="&#x1e80;" horiz-adv-x="1765" d="M209 1411h197l34 -649l19 -467h10l203 469l284 647h207l39 -668l21 -448h10l194 455l289 661h199l-639 -1411h-211l-43 639l-18 434h-13l-190 -442l-283 -631h-211zM696 1784l97 125l352 -250l-60 -86z" />
<glyph unicode="&#x1e81;" horiz-adv-x="1437" d="M133 1016h180l39 -404l31 -336h12l168 336l154 306h178l45 -318l43 -324h10l221 447q41 86 56.5 141.5t15.5 112.5v41h172v-39q0 -80 -17.5 -149.5t-58.5 -147.5l-372 -682h-150l-51 403l-37 299h-8l-146 -299l-198 -403h-158zM522 1468l140 62l239 -348l-78 -47z" />
<glyph unicode="&#x1e82;" horiz-adv-x="1765" d="M209 1411h197l34 -649l19 -467h10l203 469l284 647h207l39 -668l21 -448h10l194 455l289 661h199l-639 -1411h-211l-43 639l-18 434h-13l-190 -442l-283 -631h-211zM1020 1597l352 250l96 -125l-389 -211z" />
<glyph unicode="&#x1e83;" horiz-adv-x="1437" d="M133 1016h180l39 -404l31 -336h12l168 336l154 306h178l45 -318l43 -324h10l221 447q41 86 56.5 141.5t15.5 112.5v41h172v-39q0 -80 -17.5 -149.5t-58.5 -147.5l-372 -682h-150l-51 403l-37 299h-8l-146 -299l-198 -403h-158zM768 1169l219 363l156 -51l-275 -353z" />
<glyph unicode="&#x1e84;" horiz-adv-x="1765" d="M209 1411h197l34 -649l19 -467h10l203 469l284 647h207l39 -668l21 -448h10l194 455l289 661h199l-639 -1411h-211l-43 639l-18 434h-13l-190 -442l-283 -631h-211zM811 1624q8 41 43 69.5t76 28.5t64.5 -28.5t15.5 -69.5q-10 -41 -44 -70.5t-75 -29.5t-65.5 29.5 t-14.5 70.5zM1212 1624q8 41 42 69.5t75 28.5t65.5 -28.5t16.5 -69.5q-10 -41 -45 -70.5t-76 -29.5t-64.5 29.5t-13.5 70.5z" />
<glyph unicode="&#x1e85;" horiz-adv-x="1437" d="M133 1016h180l39 -404l31 -336h12l168 336l154 306h178l45 -318l43 -324h10l221 447q41 86 56.5 141.5t15.5 112.5v41h172v-39q0 -80 -17.5 -149.5t-58.5 -147.5l-372 -682h-150l-51 403l-37 299h-8l-146 -299l-198 -403h-158zM580 1294q0 47 36.5 83t83.5 36 q37 0 59.5 -22.5t22.5 -57.5q0 -12 -2 -18q-10 -41 -44 -71t-74 -30q-35 0 -58.5 23t-23.5 57zM981 1294q0 47 37 83t82 36q37 0 60.5 -22.5t23.5 -57.5q0 -12 -2 -18q-10 -41 -45 -71t-76 -30q-35 0 -57.5 23t-22.5 57z" />
<glyph unicode="&#x1ef2;" horiz-adv-x="1099" d="M213 1411h197l104 -391l74 -281h10l219 336l223 336h211l-589 -868l-105 -543h-188l104 541zM356 1722l97 125l352 -250l-60 -86z" />
<glyph unicode="&#x1ef3;" horiz-adv-x="915" d="M55 -412l228 430l-72 72l-98 926h180l35 -418l34 -442h7l303 567q45 84 65.5 136t20.5 118v41h178v-39q0 -92 -25.5 -156.5t-68.5 -140.5l-600 -1094h-187zM254 1468l139 62l240 -348l-78 -47z" />
<glyph unicode="&#x2000;" horiz-adv-x="962" />
<glyph unicode="&#x2001;" horiz-adv-x="1925" />
<glyph unicode="&#x2002;" horiz-adv-x="962" />
<glyph unicode="&#x2003;" horiz-adv-x="1925" />
<glyph unicode="&#x2004;" horiz-adv-x="641" />
<glyph unicode="&#x2005;" horiz-adv-x="481" />
<glyph unicode="&#x2006;" horiz-adv-x="320" />
<glyph unicode="&#x2007;" horiz-adv-x="320" />
<glyph unicode="&#x2008;" horiz-adv-x="240" />
<glyph unicode="&#x2009;" horiz-adv-x="385" />
<glyph unicode="&#x200a;" horiz-adv-x="106" />
<glyph unicode="&#x2010;" horiz-adv-x="802" d="M115 471l30 154h590l-30 -154h-590z" />
<glyph unicode="&#x2011;" horiz-adv-x="802" d="M115 471l30 154h590l-30 -154h-590z" />
<glyph unicode="&#x2012;" horiz-adv-x="802" d="M115 471l30 154h590l-30 -154h-590z" />
<glyph unicode="&#x2013;" horiz-adv-x="1003" d="M49 471l31 158h924l-31 -158h-924z" />
<glyph unicode="&#x2014;" horiz-adv-x="2048" d="M25 471l30 158h1966l-30 -158h-1966z" />
<glyph unicode="&#x2015;" horiz-adv-x="2048" d="M25 471l30 158h1966l-30 -158h-1966z" />
<glyph unicode="&#x2018;" horiz-adv-x="602" d="M303 1114q0 61 26.5 119.5t68.5 109t92.5 88t97.5 58.5l45 -80q-53 -35 -90 -77t-54 -103q37 -4 56.5 -28.5t19.5 -61.5q0 -25 -10 -51.5t-30.5 -48t-48 -35t-60.5 -13.5q-63 0 -88 38t-25 85z" />
<glyph unicode="&#x2019;" horiz-adv-x="602" d="M293 1073q53 35 90 77t53 103q-35 4 -53 29t-18 61q0 25 10 51.5t28.5 48t46 35t62.5 13.5q63 0 87 -37t24 -84q0 -61 -27 -120.5t-68 -109.5t-91 -88t-97 -59z" />
<glyph unicode="&#x201a;" horiz-adv-x="512" d="M-4 -193q53 35 90 77t53 104q-41 2 -57 22.5t-16 55.5q0 27 9 54t27.5 51t47 38t65.5 14q63 0 87 -35.5t24 -83.5q0 -61 -27 -120.5t-68 -109.5t-91 -88t-97 -58z" />
<glyph unicode="&#x201c;" horiz-adv-x="827" d="M262 1114q0 61 26.5 119.5t68.5 109t92.5 88t97.5 58.5l45 -80q-53 -35 -90 -77t-53 -103q37 -4 56 -28.5t19 -61.5q0 -25 -10 -51.5t-30.5 -48t-48 -35t-60.5 -13.5q-63 0 -88 38t-25 85zM573 1114q0 61 27 119.5t69 109t92 88t97 58.5l45 -80q-53 -35 -90 -77t-53 -103 q37 -4 56.5 -28.5t19.5 -61.5q0 -25 -10.5 -51.5t-31 -48t-48 -35t-60.5 -13.5q-63 0 -88 38t-25 85z" />
<glyph unicode="&#x201d;" horiz-adv-x="827" d="M252 1073q53 35 90 77t53 103q-35 4 -53 29t-18 61q0 25 10 51.5t28.5 48t46 35t62.5 13.5q63 0 87 -37t24 -84q0 -61 -27 -120.5t-68 -109.5t-91 -88t-97 -59zM563 1073q53 35 90 77t54 103q-35 4 -53.5 29t-18.5 61q0 25 10 51.5t28.5 48t46 35t62.5 13.5q63 0 87 -37 t24 -84q0 -61 -26.5 -120.5t-67.5 -109.5t-91.5 -88t-97.5 -59z" />
<glyph unicode="&#x201e;" horiz-adv-x="864" d="M-4 -193q53 35 90 77t53 104q-41 2 -57 22.5t-16 55.5q0 27 9 54t27.5 51t47 38t65.5 14q63 0 87 -35.5t24 -83.5q0 -61 -27 -120.5t-68 -109.5t-91 -88t-97 -58zM360 -193q53 35 90 77t54 104q-41 2 -57.5 22.5t-16.5 55.5q0 27 9.5 54t27.5 51t47 38t66 14 q63 0 86.5 -35.5t23.5 -83.5q0 -61 -26.5 -120.5t-67.5 -109.5t-91 -88t-97 -58z" />
<glyph unicode="&#x2020;" horiz-adv-x="935" d="M119 799l26 135h342l95 491h161l-96 -491h342l-26 -135h-342l-230 -1180h-160l230 1180h-342z" />
<glyph unicode="&#x2021;" horiz-adv-x="954" d="M20 274l25 136h348l76 389h-348l26 135h349l94 491h164l-95 -491h349l-27 -135h-348l-76 -389h348l-26 -136h-349l-127 -655h-163l127 655h-347z" />
<glyph unicode="&#x2022;" horiz-adv-x="835" d="M154 561q0 55 20.5 104.5t57 85t86 57t104.5 21.5t104 -21.5t86 -57t58.5 -85t21.5 -104.5t-21.5 -104t-58.5 -85t-86 -57.5t-104 -21.5t-104.5 21.5t-86 57.5t-57 85t-20.5 104z" />
<glyph unicode="&#x2023;" horiz-adv-x="1036" d="M166 135v842l805 -410z" />
<glyph unicode="&#x2026;" horiz-adv-x="1591" d="M66 82q0 25 9 50.5t26.5 47t44 35.5t61.5 14q53 0 78.5 -28.5t25.5 -65.5q0 -59 -42 -102t-107 -43q-47 0 -71.5 25.5t-24.5 66.5zM602 82q0 25 9.5 50.5t26.5 47t43.5 35.5t61.5 14q53 0 79 -28.5t26 -65.5q0 -59 -42 -102t-108 -43q-47 0 -71.5 25.5t-24.5 66.5z M1149 82q0 25 9 50.5t26.5 47t44 35.5t61.5 14q53 0 79 -28.5t26 -65.5q0 -59 -42 -102t-108 -43q-47 0 -71.5 25.5t-24.5 66.5z" />
<glyph unicode="&#x202f;" horiz-adv-x="385" />
<glyph unicode="&#x2030;" horiz-adv-x="2273" d="M152 791q0 10 1 23t3 26l63 336q10 55 29.5 100t53.5 79t86 52t126 18q66 0 117 -19.5t86 -53t53 -77.5t18 -91v-24.5t-4 -24.5l-57 -347q-20 -111 -100 -170t-201 -59q-49 0 -98 14.5t-88 44t-63.5 72.5t-24.5 101zM217 -35l1161 1495h138l-1164 -1495h-135zM305 809 q0 -35 12.5 -57.5t31 -36t41 -19.5t42.5 -6q47 0 93 26.5t61 96.5l55 330q4 20 4 31q0 55 -40 86.5t-97 31.5q-43 0 -86 -26.5t-55 -96.5l-60 -327q-2 -10 -2 -17.5v-15.5zM936 225q0 10 1 23.5t3 25.5l64 336q10 55 29.5 100.5t53 79t86 52t125.5 18.5q66 0 117 -19.5 t86 -53t53.5 -77.5t18.5 -92v-24t-4 -25l-58 -346q-20 -111 -100 -170t-201 -59q-49 0 -98 14.5t-88 44t-63.5 72.5t-24.5 100zM1090 244q0 -35 12 -57.5t30.5 -36t41 -19.5t43.5 -6q47 0 93 26.5t60 96.5l55 330q4 20 5 30q0 55 -40 87t-98 32q-43 0 -86 -26.5t-55 -96.5 l-59 -328q-2 -10 -2 -17v-15zM1595 225q0 10 1 23.5t3 25.5l64 336q10 55 29.5 100.5t53.5 79t86 52t126 18.5q66 0 117 -19.5t85.5 -53t53 -77.5t18.5 -92v-24t-4 -25l-57 -346q-20 -111 -100 -170t-201 -59q-49 0 -98.5 14.5t-88 44t-63.5 72.5t-25 100zM1749 244 q0 -35 12.5 -57.5t30.5 -36t40.5 -19.5t43.5 -6q47 0 93 26.5t61 96.5l55 330q4 20 4 30q0 55 -40 87t-97 32q-43 0 -86 -26.5t-56 -96.5l-59 -328q-2 -10 -2 -17v-15z" />
<glyph unicode="&#x2039;" horiz-adv-x="598" d="M27 475l335 381h164l-342 -393l178 -369h-149z" />
<glyph unicode="&#x203a;" horiz-adv-x="598" d="M23 94l342 393l-179 369h150l186 -381l-336 -381h-163z" />
<glyph unicode="&#x2044;" horiz-adv-x="307" d="M-530 -35l1161 1495h137l-1163 -1495h-135z" />
<glyph unicode="&#x205f;" horiz-adv-x="481" />
<glyph unicode="&#x2070;" horiz-adv-x="667" d="M141 975q0 10 1 23.5t3 25.5l64 336q10 55 29.5 100t53.5 79t86 52.5t126 18.5q66 0 117 -19.5t85.5 -53.5t53 -78t18.5 -91v-24.5t-4 -24.5l-57 -346q-20 -111 -100 -170.5t-201 -59.5q-49 0 -98.5 14.5t-88.5 44t-63.5 73t-24.5 100.5zM295 993q0 -35 12 -57.5 t30.5 -35.5t41 -19.5t43.5 -6.5q47 0 93 27t60 96l56 330q4 20 4 31q0 55 -40 87t-97 32q-43 0 -86 -27t-56 -96l-59 -328q-2 -10 -2 -17.5v-15.5z" />
<glyph unicode="&#x2074;" horiz-adv-x="667" d="M113 877l22 110l422 612h156l-412 -598h227l47 246h150l-47 -246h78l-25 -124h-78l-24 -125h-150l25 125h-391z" />
<glyph unicode="&#x2075;" horiz-adv-x="667" d="M109 844l100 106q76 -74 176 -73q154 0 176 114l21 105q2 10 2 26q0 39 -22.5 56.5t-57.5 17.5q-18 0 -46 -7t-56.5 -17.5t-55.5 -23.5t-47 -26l-109 56l82 424h529l-27 -132h-381l-39 -194q53 27 101.5 43t83.5 16q104 0 148 -49t44 -129v-27.5t-4 -29.5l-20 -123 q-16 -106 -98.5 -170t-215.5 -64q-90 0 -164.5 30t-119.5 71z" />
<glyph unicode="&#x2076;" horiz-adv-x="667" d="M147 952q0 12 1.5 24.5t3.5 24.5l71 375q23 111 113 172.5t207 61.5q90 0 154.5 -29t107.5 -72l-103 -106q-76 72 -174 72q-23 0 -48 -6.5t-47.5 -20.5t-41 -38t-24.5 -56l-21 -115q63 33 116.5 48.5t88.5 15.5q96 0 145 -47.5t49 -125.5q0 -25 -6 -51l-18 -102 q-18 -104 -101 -169t-221 -65q-49 0 -94 13.5t-80 39t-56.5 64.5t-21.5 92zM299 971q0 -51 37 -72.5t76 -21.5q59 0 106 27.5t57 92.5l13 70q2 10 2 25q0 41 -23.5 59t-60.5 18q-41 0 -88 -19.5t-96 -43.5l-21 -109q-2 -10 -2 -26z" />
<glyph unicode="&#x2077;" horiz-adv-x="606" d="M160 752l463 721h-254l-23 -123h-143l47 249h569l-20 -108l-477 -739h-162z" />
<glyph unicode="&#x2078;" horiz-adv-x="667" d="M147 948q0 100 47.5 154.5t114.5 79.5q-43 16 -61.5 51t-18.5 78q0 74 29 129t75 93t104.5 56.5t115.5 18.5q45 0 89 -12.5t78 -38t54.5 -64.5t20.5 -92q0 -76 -38 -133.5t-112 -83.5q47 -20 67.5 -63.5t20.5 -90.5q0 -70 -30.5 -123t-77.5 -90t-105.5 -55.5 t-113.5 -18.5q-47 0 -93.5 12.5t-83 38t-59.5 64.5t-23 90zM301 973q0 -47 32 -71.5t85 -24.5q61 0 111.5 35.5t50.5 101.5q0 47 -32 72.5t-85 25.5q-31 0 -59.5 -9t-51 -27.5t-37 -44t-14.5 -58.5zM377 1339q0 -45 31.5 -70.5t80.5 -25.5q29 0 56.5 9.5t50 27.5t37 43 t14.5 55q0 49 -32.5 73t-79.5 24q-27 0 -54.5 -8.5t-51 -25t-38 -42t-14.5 -60.5z" />
<glyph unicode="&#x2079;" horiz-adv-x="665" d="M113 846l102 106q76 -72 170 -71q55 0 104.5 26.5t61.5 93.5l22 115q-63 -33 -117.5 -48t-88.5 -15q-94 0 -143.5 47t-49.5 125q0 12 1 25.5t3 25.5l19 102q20 111 104 172.5t221 61.5q49 0 93 -12.5t79 -38t55.5 -63.5t20.5 -89q0 -25 -6 -51l-66 -379 q-23 -111 -111.5 -172.5t-205.5 -61.5q-90 0 -157.5 29t-110.5 72zM328 1264q0 -41 23.5 -59.5t60.5 -18.5q41 0 88 19.5t96 43.5l20 109l3.5 14t1.5 12q0 53 -38 74t-77 21q-55 0 -103.5 -28t-60.5 -93l-12 -70q-2 -8 -2 -24z" />
<glyph unicode="&#x207a;" horiz-adv-x="665" d="M143 1057l19 104h248l41 225h112l-41 -225h248l-18 -104h-248l-39 -230h-113l39 230h-248z" />
<glyph unicode="&#x207b;" horiz-adv-x="522" d="M166 1018l22 121h408l-23 -121h-407z" />
<glyph unicode="&#x207c;" horiz-adv-x="665" d="M131 940l19 113h608l-21 -113h-606zM170 1167l18 111h609l-19 -111h-608z" />
<glyph unicode="&#x207d;" horiz-adv-x="411" d="M170 1024q0 94 30.5 183t81 169t116 150.5t134.5 130.5l84 -53q-70 -66 -125 -138.5t-93 -148.5t-57 -149.5t-19 -141.5q0 -98 28.5 -191.5t77.5 -170.5l-94 -62q-70 86 -117 192.5t-47 229.5z" />
<glyph unicode="&#x207e;" horiz-adv-x="403" d="M45 664q61 59 114.5 129.5t91.5 145.5t59.5 151.5t21.5 150.5q0 94 -29 189.5t-80 173.5l99 53q68 -86 115.5 -191.5t47.5 -230.5q0 -92 -31.5 -180t-84 -168t-119 -151.5t-137.5 -131.5z" />
<glyph unicode="&#x207f;" horiz-adv-x="702" d="M98 567l127 668h119v-57q90 43 140.5 54t84.5 11q104 0 160.5 -65.5t38.5 -176.5q-18 -104 -38.5 -213.5t-43.5 -220.5h-139l82 422q10 68 -15.5 97.5t-74.5 29.5q-41 0 -97.5 -20.5t-117.5 -57.5l-91 -471h-135z" />
<glyph unicode="&#x2080;" horiz-adv-x="667" d="M-16 41q0 10 1 23.5t3 25.5l63 336q10 55 29.5 100t53.5 79t86 52.5t126 18.5q66 0 117 -19.5t86 -53.5t53.5 -78t18.5 -91v-24.5t-5 -24.5l-57 -346q-20 -111 -100 -170t-201 -59q-49 0 -98 14t-88 44t-63.5 73t-24.5 100zM137 59q0 -35 12.5 -57t31 -35.5t41 -19.5 t42.5 -6q47 0 93 26.5t61 95.5l55 330q4 20 4 31q0 55 -40 87t-97 32q-43 0 -86 -27t-55 -96l-60 -328q-2 -10 -2 -17v-16z" />
<glyph unicode="&#x2081;" horiz-adv-x="583" d="M109 510l229 154h131l-164 -848h-145l131 669l-123 -77z" />
<glyph unicode="&#x2082;" horiz-adv-x="667" d="M-66 -184l21 114q10 57 39 103.5t69.5 83.5t90 68.5t100.5 62.5q27 16 64.5 37.5t71.5 47t57.5 55.5t23.5 63q0 49 -42 70.5t-95 21.5t-102.5 -18.5t-96.5 -49.5l-61 111q59 41 131.5 65.5t150.5 24.5q55 0 103.5 -9.5t84.5 -33t57.5 -61t21.5 -93.5q0 -53 -24 -98 t-61.5 -83t-84.5 -70.5t-95 -61.5q-33 -18 -71.5 -43t-73.5 -51.5t-62.5 -55t-35.5 -59.5l-4 -14h421l-22 -127h-576z" />
<glyph unicode="&#x2083;" horiz-adv-x="665" d="M-45 -106l94 108q35 -31 88 -47t96 -16q37 0 70 9t59.5 27.5t42 46t15.5 62.5q0 49 -33 75.5t-86 26.5h-108l24 129h111q20 0 47.5 7.5t52.5 22.5t42 39t17 56q0 55 -38.5 79t-94.5 24q-43 0 -99 -18.5t-105 -51.5l-62 111q72 47 142.5 67.5t154.5 20.5q49 0 94 -10.5 t80 -34t55.5 -61.5t20.5 -95q0 -35 -11.5 -69.5t-34 -65.5t-57 -54.5t-79.5 -33.5q72 -31 93 -77t21 -91q0 -66 -28.5 -117t-76.5 -86t-108.5 -53.5t-124.5 -18.5q-86 0 -159.5 26t-114.5 63z" />
<glyph unicode="&#x2084;" horiz-adv-x="667" d="M-76 -59l23 110l422 613h155l-411 -598h227l47 245h150l-48 -245h78l-24 -125h-78l-25 -125h-149l24 125h-391z" />
<glyph unicode="&#x2085;" horiz-adv-x="667" d="M-33 -92l101 106q76 -74 176 -73q154 0 176 114l20 105q2 10 2 26q0 39 -22.5 56.5t-57.5 17.5q-18 0 -45.5 -7t-56.5 -17.5t-55.5 -23.5t-46.5 -26l-109 56l82 424h528l-26 -131h-381l-39 -195q53 27 101 43t83 16q104 0 148.5 -49t44.5 -129v-27.5t-4 -29.5l-21 -123 q-16 -106 -98 -170t-215 -64q-90 0 -165 30t-120 71z" />
<glyph unicode="&#x2086;" horiz-adv-x="667" d="M-6 16q0 12 1 24.5t3 25.5l72 374q23 111 112.5 172.5t206.5 61.5q90 0 154.5 -29t107.5 -72l-102 -106q-76 72 -174 72q-23 0 -48.5 -6.5t-48 -20.5t-41 -37.5t-24.5 -56.5l-20 -115q63 33 116 48.5t88 15.5q96 0 145.5 -47.5t49.5 -124.5q0 -25 -6 -52l-19 -102 q-18 -104 -101 -169t-220 -65q-49 0 -94.5 13.5t-80 39t-56 64.5t-21.5 92zM145 35q0 -51 37 -72.5t76 -21.5q59 0 106.5 27.5t57.5 92.5l12 70q2 10 2 25q0 41 -23.5 59t-60.5 18q-41 0 -88 -19t-96 -44l-21 -109q-2 -10 -2 -26z" />
<glyph unicode="&#x2087;" horiz-adv-x="606" d="M-31 -184l463 721h-254l-22 -123h-144l47 250h570l-21 -109l-477 -739h-162z" />
<glyph unicode="&#x2088;" horiz-adv-x="667" d="M-12 12q0 100 47 154.5t115 79.5q-43 16 -61.5 51t-18.5 78q0 74 28.5 129t74.5 93t104.5 56.5t115.5 18.5q45 0 89 -12.5t78 -38t54.5 -64.5t20.5 -92q0 -76 -38 -133.5t-112 -83.5q47 -20 67.5 -63.5t20.5 -90.5q0 -70 -30.5 -123t-77.5 -90t-105.5 -55.5t-113.5 -18.5 q-47 0 -93.5 12.5t-83 38t-59 64.5t-22.5 90zM141 37q0 -47 32 -71.5t85 -24.5q61 0 111.5 35.5t50.5 101.5q0 47 -32 72.5t-85 25.5q-31 0 -59.5 -9t-51 -27.5t-37 -44t-14.5 -58.5zM217 403q0 -45 32 -70.5t81 -25.5q29 0 56.5 9.5t50 27.5t36.5 43t14 55q0 49 -32.5 73 t-79.5 24q-27 0 -54.5 -8.5t-51 -25t-38 -42t-14.5 -60.5z" />
<glyph unicode="&#x2089;" horiz-adv-x="665" d="M-14 -90l102 106q76 -72 170 -71q55 0 104.5 26.5t61.5 94.5l22 114q-63 -33 -117.5 -48t-88.5 -15q-94 0 -143.5 47t-49.5 125q0 12 1 25.5t3 25.5l19 102q20 111 104 172.5t221 61.5q49 0 93 -12.5t79 -38t55.5 -63.5t20.5 -89q0 -25 -6 -51l-66 -379 q-23 -111 -111.5 -172t-205.5 -61q-90 0 -157.5 28.5t-110.5 71.5zM201 328q0 -41 23.5 -59.5t60.5 -18.5q41 0 88 19.5t96 43.5l20 109l3.5 14t1.5 13q0 53 -38 73.5t-77 20.5q-55 0 -103.5 -28t-60.5 -93l-12 -70q-2 -8 -2 -24z" />
<glyph unicode="&#x208a;" horiz-adv-x="665" d="M-18 127l18 104h248l41 226h112l-41 -226h248l-18 -104h-248l-39 -229h-113l39 229h-247z" />
<glyph unicode="&#x208b;" horiz-adv-x="522" d="M14 88l23 121h407l-22 -121h-408z" />
<glyph unicode="&#x208c;" horiz-adv-x="665" d="M-49 10l18 113h609l-21 -113h-606zM-10 238l18 110h608l-18 -110h-608z" />
<glyph unicode="&#x208d;" horiz-adv-x="411" d="M2 145q0 94 30.5 183.5t81 169.5t116 150.5t135.5 129.5l84 -53q-70 -66 -125.5 -138.5t-93 -148.5t-57 -149.5t-19.5 -141.5q0 -98 28.5 -191t77.5 -171l-94 -61q-70 86 -117 192.5t-47 228.5z" />
<glyph unicode="&#x208e;" horiz-adv-x="403" d="M-86 -215q61 59 114.5 130t91.5 145.5t59.5 151.5t21.5 150q0 94 -29 189.5t-80 173.5l98 53q68 -86 116 -191.5t48 -230.5q0 -92 -31.5 -180t-84 -168t-119 -151.5t-137.5 -130.5z" />
<glyph unicode="&#x20ab;" horiz-adv-x="1003" d="M70 0l24 141h729l-24 -141h-729zM174 541l45 241q27 135 105.5 212t216.5 77q39 0 110.5 -10t136.5 -37l27 129h-199l23 123h199l28 151h156l-29 -151h88l-22 -123h-88l-166 -893h-137l-2 78q-98 -53 -168 -69.5t-111 -16.5q-117 0 -178.5 70.5t-34.5 218.5zM330 549 q-16 -84 12.5 -116t87.5 -32q20 0 53 6.5t70 18.5t74 28.5t65 34.5l72 388q-55 23 -125 35t-113 12q-59 2 -99 -35t-56 -123z" />
<glyph unicode="&#x20ac;" horiz-adv-x="1024" d="M102 561l23 119h745l-22 -119h-463l-14 -76q-4 -25 -7.5 -48t-3.5 -46q0 -115 66 -175t195 -60q137 0 282 67l55 -157q-74 -41 -169 -60.5t-199 -19.5q-90 0 -167 25.5t-133.5 74.5t-89 122t-32.5 167q0 55 12 117l15 69h-93zM145 776l23 119h92l14 70q23 106 66 191 t107.5 144.5t152.5 92t201 32.5q102 0 198.5 -26.5t161.5 -75.5l-102 -147q-49 33 -124 54t-140 21q-139 0 -221 -73.5t-117 -251.5l-6 -31h462l-22 -119h-746z" />
<glyph unicode="&#x2103;" horiz-adv-x="1736" d="M164 1163q0 57 21.5 107.5t58.5 87.5t87 58.5t107 21.5q61 0 112.5 -21.5t87.5 -58.5t55.5 -87.5t19.5 -107.5t-21.5 -107t-58.5 -87t-87 -58.5t-108 -21.5q-57 0 -107 21.5t-87 58.5t-58.5 87t-21.5 107zM274 1163q0 -68 46.5 -116t117.5 -48q70 0 117 48t47 116 t-47 116t-117 48q-68 0 -116 -48t-48 -116zM754 377q0 23 3 47.5t7 48.5l96 492q41 213 174 336.5t383 123.5q117 0 224.5 -34.5t185.5 -100.5l-121 -145q-23 23 -58.5 43t-76.5 35.5t-85 23.5t-83 8q-143 0 -234.5 -76.5t-126.5 -252.5l-88 -430q-4 -23 -6 -44.5t-2 -39.5 q0 -66 22.5 -113t61.5 -78t91.5 -46t113.5 -15q80 0 175 27.5t169 80.5l78 -155q-37 -27 -86 -49.5t-107.5 -40t-121 -27.5t-123.5 -10q-94 0 -179.5 26.5t-149 76.5t-100 123t-36.5 165z" />
<glyph unicode="&#x2105;" horiz-adv-x="1542" d="M193 -35l1161 1495h137l-1163 -1495h-135zM209 973l37 188q23 121 103.5 189.5t209.5 68.5q63 0 130 -21.5t108 -80.5l-95 -96q-35 45 -76.5 57t-72.5 12q-66 0 -113 -36.5t-63 -123.5l-31 -161q-8 -43 1 -72t28.5 -47.5t46.5 -26.5t55 -8q31 0 75 13.5t87 48.5l78 -105 q-55 -49 -124 -68.5t-130 -19.5q-55 0 -107.5 17.5t-89.5 53.5t-54 90t-3 128zM855 170q-15 59 1 137l33 160q25 123 106.5 191.5t223.5 68.5q125 0 194.5 -72.5t67.5 -181.5q0 -14 -5.5 -46t-11.5 -67.5t-13 -66.5t-9 -45q-16 -76 -48 -125t-75 -79t-95.5 -41t-107.5 -11 q-61 0 -116.5 19.5t-92.5 59.5t-52 99zM993 297q-8 -49 1.5 -82t28.5 -54.5t47 -30.5t56 -9q27 0 55.5 6t55.5 22.5t47.5 48t30.5 83.5l24 135q16 88 -24.5 135t-114.5 47q-63 0 -111.5 -34t-68.5 -126q-6 -29 -10 -47t-6.5 -33.5t-5.5 -29t-5 -31.5z" />
</font>
</defs>
</svg>
