<?xml version="1.0" standalone="no"?>
<!DOCTYPE svg PUBLIC "-//W3C//DTD SVG 1.1//EN" "http://www.w3.org/Graphics/SVG/1.1/DTD/svg11.dtd" >
<svg xmlns="http://www.w3.org/2000/svg">
<metadata></metadata>
<defs>
<font id="pf_dindisplay_pro_thinregular" horiz-adv-x="3723" >
<font-face units-per-em="2048" ascent="1536" descent="-512" />
<missing-glyph horiz-adv-x="419" />
<glyph unicode="fj" horiz-adv-x="868" d="M63 922v86h123v223q0 121 69 181.5t165 60.5h137v-87h-119q-49 0 -79.5 -14t-49 -37.5t-24.5 -56.5t-6 -70v-200h448v-1186q0 -131 -56.5 -190.5t-170.5 -59.5h-78v84h63q84 0 117 39t33 143v1084h-356v-922h-93v922h-123zM616 1356q0 29 18.5 48t45.5 19q29 0 48.5 -19 t19.5 -48t-19.5 -47.5t-48.5 -18.5q-27 0 -45.5 18.5t-18.5 47.5z" />
<glyph unicode="ffj" horiz-adv-x="1314" d="M63 922v86h123v182q0 121 69 181.5t165 60.5h125v-86h-107q-49 0 -79.5 -14.5t-49 -38t-24.5 -56.5t-6 -70v-159h354v223q0 121 68.5 181.5t164.5 60.5h135v-87h-116q-49 0 -80 -14t-49.5 -37.5t-24.5 -56.5t-6 -70v-200h449v-1186q0 -131 -56.5 -190.5t-171.5 -59.5h-78 v84h64q82 0 115.5 39t33.5 143v1084h-356v-922h-92v922h-354v-922h-93v922h-123zM1061 1356q0 29 19.5 48t45.5 19q29 0 48.5 -19t19.5 -48t-19.5 -47.5t-48.5 -18.5q-27 0 -46 18.5t-19 47.5z" />
<glyph unicode="ff" horiz-adv-x="1024" d="M63 922v86h123v182q0 123 68 182.5t166 59.5h147v-84h-129q-49 0 -79.5 -14.5t-49 -38t-24.5 -56.5t-6 -70v-161h354v223q0 61 18.5 106t50 76t74.5 45.5t90 14.5h148v-84h-129q-49 0 -80 -14.5t-48.5 -38t-23.5 -56.5t-6 -70v-202h287v-86h-287v-922h-94v922h-354v-922 h-93v922h-123z" />
<glyph unicode="fi" horiz-adv-x="868" d="M63 922v86h123v223q0 121 69 181.5t165 60.5h137v-87h-119q-49 0 -79.5 -14t-49 -37.5t-24.5 -56.5t-6 -70v-200h448v-1008h-92v922h-356v-922h-93v922h-123zM616 1356q0 29 18.5 48t45.5 19q29 0 48.5 -19t19.5 -48t-19.5 -47.5t-48.5 -18.5q-27 0 -45.5 18.5 t-18.5 47.5z" />
<glyph unicode="fl" horiz-adv-x="958" d="M61 922v84h125v219q0 76 22.5 126t61.5 80.5t88.5 44t104.5 13.5q49 0 108.5 -7t151.5 -34v-1217q0 -96 36 -125.5t122 -25.5l4 -84q-18 -4 -33.5 -4h-32.5q-104 0 -145 56t-41 169v1157q-41 16 -84 22.5t-84 6.5q-98 0 -143.5 -42t-45.5 -140v-215h244v-84h-244v-922 h-90v922h-125z" />
<glyph unicode="ffi" horiz-adv-x="1314" d="M63 922v86h123v182q0 121 69 181.5t165 60.5h125v-86h-107q-49 0 -79.5 -14.5t-49 -38t-24.5 -56.5t-6 -70v-159h354v223q0 121 68.5 181.5t164.5 60.5h135v-87h-116q-49 0 -80 -14t-49.5 -37.5t-24.5 -56.5t-6 -70v-200h449v-1008h-93v922h-356v-922h-92v922h-354v-922 h-93v922h-123zM1061 1356q0 29 19.5 48t45.5 19q29 0 48.5 -19t19.5 -48t-19.5 -47.5t-48.5 -18.5q-27 0 -46 18.5t-19 47.5z" />
<glyph unicode="ffl" horiz-adv-x="1404" d="M61 922v84h125v186q0 121 68 180.5t164 59.5h137v-84h-117q-49 0 -80.5 -14.5t-50 -38t-25 -56.5t-6.5 -70v-163h355v219q0 76 22.5 126t61.5 80.5t89 44t103 13.5q51 0 110.5 -7t151.5 -34v-1217q0 -96 36 -125.5t122 -25.5l4 -84q-18 -4 -33.5 -4h-31.5 q-104 0 -145.5 56t-41.5 169v1157q-41 16 -84 22.5t-84 6.5q-98 0 -143 -42t-45 -140v-215h244v-84h-244v-922h-92v922h-355v-922h-90v922h-125z" />
<glyph unicode="ft" horiz-adv-x="1099" d="M63 922v86h123v223q0 123 68 182.5t166 59.5h133v-84h-115q-49 0 -79.5 -14.5t-49 -38t-24.5 -56.5t-6 -70v-202h358l27 237h63v-237h299v-86h-299v-613q0 -129 38 -181t144 -52q27 0 66 3t80 11l16 -80q-47 -14 -98 -17t-76 -3q-150 0 -206 68.5t-56 224.5v639h-356 v-922h-93v922h-123z" />
<glyph unicode=" "  horiz-adv-x="419" />
<glyph unicode="&#x09;" horiz-adv-x="419" />
<glyph unicode="&#xa0;" horiz-adv-x="419" />
<glyph unicode="!" horiz-adv-x="432" d="M139 72q0 29 20.5 51t55.5 22t57.5 -22.5t22.5 -50.5q0 -35 -21.5 -55.5t-56.5 -20.5q-37 0 -57.5 20.5t-20.5 55.5zM164 1425h100q0 -131 -2 -273t-3 -285.5t-3 -285t-4 -270.5h-76q0 129 -2 270.5t-3 285t-3 285.5t-4 273z" />
<glyph unicode="&#x22;" horiz-adv-x="503" d="M117 1063v362h76v-362h-76zM311 1063v362h76v-362h-76z" />
<glyph unicode="#" horiz-adv-x="1005" d="M33 457v71h207l51 375h-199v72h211l62 448h73l-59 -448h297l63 448h76l-61 -448h204v-72h-215l-53 -375h211v-71h-219l-61 -457h-80l63 457h-295l-63 -457h-80l63 457h-196zM319 528h295l52 375h-297z" />
<glyph unicode="$" horiz-adv-x="968" d="M47 127l49 76q86 -57 186.5 -91t206.5 -34q74 0 137.5 18.5t109.5 55t73 90t27 125.5q0 80 -31 132t-80 85.5t-112.5 52t-127.5 31.5q-74 14 -148.5 38.5t-133 66.5t-95 106.5t-36.5 160.5q0 78 26.5 142.5t74.5 112.5t115.5 78t149.5 36v174h74v-172q92 -4 181 -24.5 t169 -65.5l-41 -82q-158 86 -344 86q-59 0 -114.5 -16.5t-98.5 -52t-69.5 -90t-26.5 -130.5q0 -72 30.5 -120t81 -79.5t112 -50t122.5 -32.5q88 -18 165 -45t133 -70t88 -108.5t32 -163.5q0 -86 -31 -154t-86 -116t-132 -75.5t-171 -29.5v-189h-74v191q-217 8 -391 133z" />
<glyph unicode="%" horiz-adv-x="1556" d="M90 788v408q0 49 21.5 90t58.5 70.5t86 47t106 17.5q59 0 109.5 -17.5t86.5 -47t56.5 -70.5t20.5 -90v-408q0 -49 -20.5 -90t-56.5 -71.5t-86 -47t-110 -16.5q-121 0 -196.5 63.5t-75.5 161.5zM172 801q0 -45 18.5 -77t47 -51.5t61.5 -27.5t63 -8q31 0 65 8t62.5 27.5 t47 51.5t18.5 77v381q0 45 -18.5 76.5t-47 51t-62.5 28t-65 8.5t-63.5 -8.5t-61 -28t-47 -51t-18.5 -76.5v-381zM301 -35l868 1497h82l-870 -1497h-80zM920 219v408q0 47 21.5 88t58 71.5t86 48t106.5 17.5q59 0 109.5 -17.5t86 -48t56 -71.5t20.5 -88v-410q0 -49 -20.5 -90 t-56 -71.5t-86 -47t-109.5 -16.5q-121 0 -196.5 64.5t-75.5 162.5zM1001 229q0 -45 18.5 -76.5t47.5 -51t61.5 -27.5t63.5 -8t64.5 8t62.5 27.5t47 51t18 76.5v381q0 45 -18 77t-47 52.5t-62.5 28.5t-64.5 8t-63.5 -8t-61.5 -28.5t-47.5 -52.5t-18.5 -77v-381z" />
<glyph unicode="&#x26;" horiz-adv-x="1619" d="M84 1036q0 115 49 220.5t138 186.5t213 129t274 48q178 0 315 -63.5t230.5 -171t141.5 -251t48 -303.5q0 -96 -22.5 -184t-62.5 -168t-93 -148.5t-117 -125.5q82 -78 163 -137.5t163 -92.5l-37 -69q-96 43 -185.5 107.5t-164.5 136.5q-109 -84 -232 -125t-237 -41 q-90 0 -167 23.5t-135.5 71.5t-91 120.5t-32.5 171.5q0 143 96 251.5t266 200.5q-70 92 -98.5 165t-28.5 132q0 57 18.5 108.5t53.5 90.5t85 61.5t114 22.5q61 0 112 -20.5t87 -56.5t56.5 -83t20.5 -98q0 -111 -80 -196t-217 -156q39 -61 89 -130t104.5 -138.5t113 -137.5 t113.5 -129q57 53 106.5 117.5t85 137.5t56 154t20.5 167q0 141 -42 270t-125 227.5t-204.5 156.5t-283.5 58q-131 0 -240.5 -41t-189.5 -110.5t-125 -161.5t-45 -193q0 -72 24.5 -148.5t77.5 -148.5l-63 -45q-59 82 -87 167t-28 171zM324 375q0 -82 26.5 -141.5t72.5 -98.5 t107.5 -58.5t128.5 -19.5q98 0 210 35t216 113q-123 129 -233.5 275.5t-202.5 277.5q-68 -37 -127 -78t-103 -88t-69.5 -101.5t-25.5 -115.5zM563 1124q0 -57 33 -123.5t86 -140.5q51 27 97 56.5t82 63.5t56.5 75t20.5 90q0 39 -16.5 72.5t-43 57t-61.5 37t-72 13.5 q-49 0 -83.5 -20.5t-56 -51t-32 -65.5t-10.5 -64z" />
<glyph unicode="'" horiz-adv-x="432" d="M184 1063v362h78v-362h-78z" />
<glyph unicode="(" horiz-adv-x="536" d="M135 614q0 117 24.5 235t67.5 229.5t103.5 212t132.5 184.5l45 -27q-127 -180 -198.5 -396t-71.5 -427q0 -229 73.5 -446.5t196.5 -391.5l-39 -31q-70 80 -130 178.5t-105.5 209t-72 229.5t-26.5 241z" />
<glyph unicode=")" horiz-adv-x="536" d="M55 -217q123 174 196 391t73 447q0 213 -71 428t-198 395l43 26q74 -84 134.5 -184t103.5 -211.5t67.5 -229.5t24.5 -235q0 -121 -26.5 -240.5t-71.5 -230t-105.5 -209t-128.5 -178.5z" />
<glyph unicode="*" horiz-adv-x="702" d="M61 1186q4 10 13.5 40.5t13.5 43.5l242 -101l-17 256h86l-16 -256l244 101l26 -86l-247 -72l165 -197q-10 -8 -36.5 -28.5t-36.5 -26.5l-142 221l-139 -223l-72 57l162 197q-10 2 -46 13.5t-78 23.5t-77.5 23.5t-44.5 13.5z" />
<glyph unicode="+" horiz-adv-x="968" d="M61 535v77h385v394h76v-394h385v-77h-385v-398h-76v398h-385z" />
<glyph unicode="," horiz-adv-x="409" d="M123 68q0 33 24.5 54t59.5 21q43 0 67.5 -31.5t24.5 -80.5q0 -72 -42 -135.5t-101 -94.5l-33 41q80 59 84 148q-37 -2 -60.5 19.5t-23.5 58.5z" />
<glyph unicode="-" horiz-adv-x="757" d="M109 502v88h540v-88h-540z" />
<glyph unicode="." horiz-adv-x="385" d="M113 74q0 29 21.5 52.5t60.5 23.5q35 0 58 -24t23 -52q0 -35 -21.5 -59.5t-59.5 -24.5q-39 0 -60.5 23.5t-21.5 60.5z" />
<glyph unicode="/" horiz-adv-x="593" d="M4 -51l502 1521h80l-502 -1521h-80z" />
<glyph unicode="0" horiz-adv-x="968" d="M76 354v705q0 80 32.5 146.5t89 115.5t130 76.5t157.5 27.5q86 0 161 -27.5t130 -76.5t87 -115.5t32 -146.5v-709q0 -80 -32 -146.5t-87 -114.5t-130 -74.5t-161 -26.5t-160.5 27.5t-130 76.5t-87 115.5t-31.5 146.5zM170 377q0 -84 30.5 -141.5t77 -93.5t102.5 -52 t105 -16t105.5 16t103.5 52t78 93.5t31 141.5v655q0 84 -31 142.5t-78 94.5t-103 52t-106 16q-49 0 -105 -16t-102.5 -52t-77 -94.5t-30.5 -142.5v-655z" />
<glyph unicode="1" horiz-adv-x="968" d="M270 1184q12 10 54.5 43t91.5 70.5t92 70.5t55 43h92v-1411h-94v1296l-239 -184q-8 10 -25.5 36t-26.5 36z" />
<glyph unicode="2" horiz-adv-x="968" d="M78 0v119q0 96 34.5 178t93 150.5t132.5 127t154 109.5q129 80 216 175t87 206q0 72 -28 123t-73 84t-104.5 48t-120.5 15q-102 0 -182 -32.5t-140 -77.5l-53 71q61 51 158.5 89t210.5 38q82 0 159.5 -18.5t137 -60t96.5 -109.5t37 -164q0 -68 -26.5 -130t-71.5 -119.5 t-104.5 -106.5t-123.5 -88q-59 -37 -126.5 -85t-127 -108.5t-98.5 -134.5t-39 -160v-55h713v-84h-811z" />
<glyph unicode="3" horiz-adv-x="968" d="M61 119q8 12 28 36.5t28 37.5q59 -49 142 -85t177 -36q70 0 131.5 21.5t107.5 62.5t71.5 98t25.5 129q0 74 -22.5 130t-60.5 95t-85 59.5t-96 20.5h-156v86h156q37 0 80 17.5t82 53.5t64.5 90t25.5 130q0 74 -26.5 125t-69.5 84t-95.5 47t-103.5 14q-90 0 -173 -32.5 t-140 -79.5l-58 71q84 66 170 96.5t205 30.5q72 0 141.5 -20.5t123.5 -63.5t88 -109.5t34 -158.5q0 -53 -13.5 -104.5t-41 -96.5t-68.5 -78.5t-96 -52.5q61 -20 104 -57t71 -83t40 -99.5t12 -104.5q0 -96 -33.5 -171t-92 -127t-135.5 -79.5t-165 -27.5q-129 0 -223 41 t-154 90z" />
<glyph unicode="4" horiz-adv-x="968" d="M51 231v86q123 274 244 547t242 547h98l-481 -1094h536v443h96v-443h125v-86h-125v-231h-96v231h-639z" />
<glyph unicode="5" horiz-adv-x="968" d="M94 123l58 72q63 -53 140 -88t165 -35q43 0 99 12t106.5 45t86 90t35.5 146v202q0 133 -61 198.5t-170 65.5q-41 0 -88 -13t-95 -33.5t-93.5 -45t-79.5 -47.5q-6 2 -19.5 7.5t-29 11.5t-29 11t-19.5 7v682h740v-88h-643v-530q102 63 199.5 98t160.5 35q154 0 237 -92.5 t83 -249.5v-238q0 -78 -32 -144.5t-88.5 -113.5t-133 -73.5t-166.5 -26.5q-129 0 -215 42t-148 93z" />
<glyph unicode="6" horiz-adv-x="968" d="M86 348v713q0 82 33 148.5t88 114.5t129 74.5t158 26.5q129 0 214 -39.5t140 -93.5l-62 -73q-57 55 -126.5 85.5t-165.5 30.5q-47 0 -102.5 -16t-102.5 -52t-78 -95.5t-31 -145.5v-311q127 78 225.5 113.5t163.5 35.5q152 0 234 -93t82 -251v-164q0 -80 -32 -147.5 t-86 -116.5t-128 -75.5t-158 -26.5t-155.5 25.5t-125 72.5t-84 113.5t-30.5 146.5zM180 377q0 -82 29 -139.5t73 -94.5t97 -53t102 -16t103.5 17.5t100.5 54t76 94t30 137.5v129q0 135 -63.5 199.5t-164.5 64.5q-88 0 -186 -46t-197 -106v-241z" />
<glyph unicode="7" horiz-adv-x="968" d="M84 1102v309h797v-90l-535 -1321h-102l536 1325h-604v-223h-92z" />
<glyph unicode="8" horiz-adv-x="968" d="M57 375q0 49 15.5 100t46.5 99.5t78 87t112 61.5q-109 39 -165 129t-56 188q0 92 33 164t88 120t125.5 72.5t148.5 24.5t151 -23.5t128 -71.5t89 -117.5t34 -161.5q0 -49 -14.5 -98.5t-42 -92.5t-71.5 -78t-102 -55q72 -23 120 -60.5t77 -85t41 -97.5t12 -95 q0 -98 -35.5 -173t-95 -124t-136.5 -74.5t-161 -25.5t-160.5 24.5t-134 72.5t-91.5 121t-34 169zM154 375q0 -135 86.5 -218t240.5 -83q72 0 132.5 21.5t103.5 60.5t67.5 95t24.5 128q0 66 -24.5 121t-68.5 95t-104.5 62.5t-130.5 22.5q-66 0 -125 -22.5t-104 -62.5 t-71.5 -96.5t-26.5 -123.5zM180 1044q0 -63 24.5 -115t65.5 -89t96.5 -57.5t114.5 -20.5q57 0 113.5 20.5t99.5 57.5t70 89t27 118q0 72 -27 126t-70 89.5t-97.5 54t-111.5 18.5q-55 0 -110.5 -18.5t-98.5 -54t-69.5 -90t-26.5 -128.5z" />
<glyph unicode="9" horiz-adv-x="968" d="M82 897v160q0 80 31.5 147.5t86 116.5t128 76.5t157.5 27.5q82 0 154 -25.5t125 -72.5t85 -113.5t32 -146.5v-713q0 -82 -33 -148.5t-88 -114.5t-130 -74.5t-157 -26.5q-129 0 -215 40t-139 93l61 74q57 -55 126 -86t165 -31q49 0 103.5 15.5t101.5 52t77.5 96 t30.5 145.5v313q-250 -150 -387 -149q-152 0 -233.5 91t-81.5 253zM174 911q0 -135 64.5 -199.5t164.5 -64.5q86 0 184.5 47t196.5 105v239q0 82 -28.5 139.5t-71.5 93.5t-96 52t-103 16q-49 0 -104 -16t-101.5 -53t-76 -94.5t-29.5 -137.5v-127z" />
<glyph unicode=":" horiz-adv-x="407" d="M119 74q0 29 22.5 52.5t59.5 23.5q35 0 59.5 -24t24.5 -52q0 -35 -22.5 -59.5t-59.5 -24.5q-39 0 -61.5 23.5t-22.5 60.5zM119 731q0 33 22.5 56.5t59.5 23.5q35 0 59.5 -23.5t24.5 -56.5q0 -35 -22.5 -58.5t-59.5 -23.5q-39 0 -61.5 23.5t-22.5 58.5z" />
<glyph unicode=";" horiz-adv-x="407" d="M115 68q0 33 24.5 54t59.5 21q43 0 67.5 -31.5t24.5 -80.5q0 -72 -42 -135.5t-102 -94.5l-32 41q80 59 84 148q-37 -2 -60.5 19.5t-23.5 58.5zM119 731q0 33 22.5 56.5t59.5 23.5q35 0 59.5 -23.5t24.5 -56.5q0 -35 -23.5 -58.5t-58.5 -23.5q-39 0 -61.5 23.5t-22.5 58.5 z" />
<glyph unicode="&#x3c;" horiz-adv-x="968" d="M72 537v73l821 373v-84l-727 -326q61 -27 159.5 -70.5t204 -90.5t203.5 -91.5t162 -70.5v-86z" />
<glyph unicode="=" horiz-adv-x="968" d="M61 334v78h846v-78h-846zM61 696v76h846v-76h-846z" />
<glyph unicode="&#x3e;" horiz-adv-x="968" d="M72 164v86q63 27 161.5 71t203 91t202.5 91t162 70l-727 326v84l821 -373v-73z" />
<glyph unicode="?" horiz-adv-x="884" d="M66 1335q84 51 165 73t175 22q88 0 155.5 -25t114.5 -70t71.5 -105.5t24.5 -131.5q0 -94 -47 -172t-104.5 -152t-104.5 -150.5t-47 -166.5v-131h-84v131q0 106 46 189t101.5 157t101.5 142.5t46 146.5q0 113 -75 185.5t-212 72.5q-78 0 -151.5 -23.5t-132.5 -62.5z M354 72q0 29 20.5 51t55.5 22t57.5 -22.5t22.5 -50.5q0 -35 -21.5 -55.5t-56.5 -20.5q-37 0 -57.5 20.5t-20.5 55.5z" />
<glyph unicode="@" horiz-adv-x="1714" d="M102 686q0 164 63.5 302t174.5 237.5t257 156t312 56.5q168 0 300 -54.5t224.5 -147.5t140.5 -221.5t48 -275.5q0 -115 -28.5 -195.5t-73.5 -133t-101.5 -76t-113.5 -23.5q-66 0 -126.5 28t-82.5 93q-98 -59 -178 -83.5t-136 -24.5q-111 0 -179 57t-68 168q0 63 25.5 107 t64.5 71t85 39t87 12h280v70q0 61 -16.5 101t-46 63.5t-70.5 32t-92 8.5q-39 0 -95.5 -14.5t-127.5 -61.5l-47 63q72 49 143.5 68.5t130.5 19.5q156 0 227.5 -67.5t71.5 -198.5v-348q2 -49 38 -91t118 -42q45 0 88 22.5t75.5 67.5t52 111.5t19.5 156.5q0 135 -44 250 t-127 199t-200.5 131t-265.5 47q-150 0 -282.5 -51t-232 -142.5t-158 -215t-58.5 -269.5q0 -147 51.5 -272t142.5 -217.5t216 -143.5t272 -51q66 0 125 10.5t135 42.5l29 -69q-84 -35 -160 -45.5t-129 -10.5q-166 0 -304 56.5t-239.5 157t-158 238.5t-56.5 302zM618 551 q0 -80 51.5 -118t123.5 -38q63 0 140 33t144 80v201h-250q-33 0 -69.5 -5.5t-67.5 -22.5t-51.5 -48t-20.5 -82z" />
<glyph unicode="A" horiz-adv-x="1163" d="M41 0l487 1411h111l491 -1411h-104q-29 86 -59.5 170t-61.5 170h-645q-29 -86 -57.5 -170t-57.5 -170h-104zM293 430h581q-8 25 -29.5 91.5t-51 153.5t-63.5 185t-63.5 186.5t-52 154t-30.5 89.5h-2q-8 -25 -30 -91t-51.5 -153.5t-62 -185.5t-62.5 -185t-52.5 -153.5 t-30.5 -91.5z" />
<glyph unicode="B" horiz-adv-x="1175" d="M115 0v1411l557 -2q98 0 170.5 -28.5t122 -77t73 -113t23.5 -135.5q0 -43 -10.5 -88t-36 -87t-68.5 -78t-106 -59q70 -23 115.5 -62.5t74.5 -89.5t41 -103.5t12 -102.5q0 -76 -25.5 -145.5t-74.5 -123t-122 -85t-165 -31.5h-581zM213 88h461q66 0 122 18.5t98 55.5 t66.5 93t24.5 130q0 72 -25.5 129t-67.5 98t-97.5 63.5t-116.5 22.5h-465v-610zM213 788h459q53 0 105 16.5t92 49.5t64.5 82t24.5 117q0 74 -25.5 124t-68.5 82.5t-99 47t-118 14.5h-434v-533z" />
<glyph unicode="C" horiz-adv-x="1028" d="M104 459v499q0 102 36 188.5t101.5 148t156.5 96t202 34.5q106 0 195.5 -24.5t169.5 -79.5l-54 -80q-66 47 -145.5 70.5t-165.5 23.5q-74 0 -145.5 -22.5t-128 -70.5t-90 -123t-33.5 -179v-465q0 -104 34.5 -180t90 -125t125 -72.5t141.5 -23.5q180 0 321 100l52 -76 q-55 -41 -149.5 -76.5t-217.5 -35.5q-113 0 -205 34.5t-156.5 98t-99.5 149.5t-35 191z" />
<glyph unicode="D" horiz-adv-x="1189" d="M115 0v1411h522q104 0 189 -34t143.5 -95t90.5 -146t32 -188v-491q0 -102 -33 -186.5t-93.5 -143.5t-145.5 -93t-189 -34h-516zM213 86h391q70 0 138.5 20.5t124 66.5t90 120t34.5 182v457q0 106 -32.5 180t-84 120t-117 67.5t-128.5 21.5h-416v-1235z" />
<glyph unicode="E" horiz-adv-x="1089" d="M117 0v1411h907v-90h-809v-561h696v-88h-696v-584h809v-88h-907z" />
<glyph unicode="F" horiz-adv-x="1056" d="M117 0v1411h909v-90h-811v-561h696v-90h-696v-670h-98z" />
<glyph unicode="G" horiz-adv-x="1124" d="M98 459v499q0 102 37 188.5t103.5 148t160 96t207.5 34.5q106 0 198.5 -24.5t170.5 -79.5l-53 -80q-66 47 -148 70.5t-168 23.5q-78 0 -150.5 -22.5t-131 -70.5t-93 -123t-34.5 -179v-465q0 -104 33.5 -180t90 -125t128 -72.5t147.5 -23.5q25 0 61.5 3t80.5 15t92.5 35 t97.5 61v420h-244v92h342v-553q-88 -84 -197.5 -122.5t-230.5 -38.5q-113 0 -205 34.5t-157.5 98t-101.5 149.5t-36 191z" />
<glyph unicode="H" horiz-adv-x="1220" d="M113 0v1411h96v-649h799v649h102v-1411h-102v674h-799v-674h-96z" />
<glyph unicode="I" horiz-adv-x="442" d="M172 0v1411h98v-1411h-98z" />
<glyph unicode="J" horiz-adv-x="1032" d="M53 74l47 80q66 -39 131.5 -59.5t137.5 -20.5q84 0 156.5 23.5t124.5 73.5t82 127t30 181v934h98v-952q0 -104 -31.5 -191.5t-93 -150t-152.5 -98t-208 -35.5q-96 0 -179 25.5t-143 62.5z" />
<glyph unicode="K" horiz-adv-x="1103" d="M113 0v1411h98v-874l709 874h118l-438 -545l502 -866h-115l-455 784q-80 -98 -159.5 -198.5t-161.5 -200.5v-385h-98z" />
<glyph unicode="L" horiz-adv-x="1028" d="M119 0v1411h98v-1323h803v-88h-901z" />
<glyph unicode="M" horiz-adv-x="1447" d="M113 0v1411h98q78 -162 156.5 -320.5t156.5 -318.5q51 -106 101.5 -211.5t103.5 -210.5l74 148l129 274q78 160 156.5 320.5t152.5 318.5h92v-1411h-98v1182h-2q-59 -127 -113.5 -242t-107.5 -225q-63 -127 -122 -247t-118 -243h-82l-250 502l-225 457h-4v-1184h-98z" />
<glyph unicode="N" horiz-adv-x="1255" d="M115 0v1411h98l524 -790q76 -115 151 -228.5t152 -226.5v1245h99v-1411h-105q-129 195 -257 388.5t-259 389.5q-76 115 -150.5 230.5t-154.5 228.5v-1237h-98z" />
<glyph unicode="O" horiz-adv-x="1202" d="M104 457v501q0 102 34 188.5t98.5 148t156.5 96t207 34.5q113 0 205 -34.5t156.5 -97t100.5 -148.5t36 -187v-507q0 -104 -36 -190.5t-100.5 -147t-156.5 -94t-205 -33.5q-115 0 -206 33.5t-155.5 96t-99.5 149.5t-35 192zM203 467q0 -104 34.5 -178t91 -122t128 -70.5 t143.5 -22.5q82 0 154.5 23.5t127 71.5t86 122t31.5 176v473q0 100 -32.5 175t-88 124t-127 72.5t-151.5 23.5q-82 0 -154.5 -23.5t-126 -72.5t-85 -124t-31.5 -175v-473z" />
<glyph unicode="P" horiz-adv-x="1103" d="M113 0v1411h553q98 0 171.5 -36t123 -93t73 -128.5t23.5 -145.5t-25.5 -145.5t-76 -129t-123 -92.5t-166.5 -35h-457v-606h-96zM209 698h438q63 0 119.5 20.5t98.5 60.5t66.5 97.5t24.5 131.5q0 72 -24.5 129t-66.5 98t-98 63.5t-120 22.5h-438v-623z" />
<glyph unicode="Q" horiz-adv-x="1202" d="M104 457v501q0 102 34 188.5t98.5 148t156.5 96t207 34.5q113 0 205 -34.5t156.5 -97t100.5 -148.5t36 -187v-507q0 -98 -32 -181.5t-91.5 -143.5t-143 -96t-186.5 -42v-66q0 -100 45 -141t146 -41h22t27 2v-86q-18 -2 -37 -3t-35 -1q-141 0 -200.5 67.5t-59.5 196.5v72 q-104 6 -187 43t-141.5 98t-89.5 144t-31 184zM203 467q0 -104 34.5 -178t91 -122t128 -70.5t143.5 -22.5q82 0 154.5 23.5t127 71.5t86 122t31.5 176v473q0 100 -32.5 175t-88 124t-127 72.5t-151.5 23.5q-82 0 -154.5 -23.5t-126 -72.5t-85 -124t-31.5 -175v-473z" />
<glyph unicode="R" horiz-adv-x="1136" d="M115 0v1411h553q100 0 175 -36t124 -93t73.5 -130t24.5 -146q0 -59 -17.5 -119t-53.5 -112t-89 -92t-123 -58l275 -625h-109l-264 606h-471v-606h-98zM213 696h440q63 0 119.5 20.5t99.5 60.5t68 97.5t25 131.5q0 72 -25 130t-68 99t-99 62.5t-120 21.5h-440v-623z" />
<glyph unicode="S" horiz-adv-x="1097" d="M61 127l56 76q94 -57 204.5 -92t227.5 -35q80 0 149.5 19.5t120.5 56t81 92t30 127.5q0 82 -34 134t-88 85t-124 51t-139 33q-82 14 -163 39.5t-144.5 68.5t-103.5 108.5t-40 162.5q0 84 31 153.5t88 118.5t140 77t186 28q113 0 219 -20.5t200 -72.5l-45 -86 q-88 47 -186 67.5t-197 20.5q-66 0 -126 -16t-106 -52t-74.5 -91.5t-28.5 -130.5q0 -74 33.5 -122t89 -80t124 -50.5t136.5 -32.5q96 -20 179 -47t144.5 -70t96 -109.5t34.5 -166.5q0 -90 -34.5 -161t-98 -120t-153 -75.5t-199.5 -26.5q-139 0 -258 35.5t-228 103.5z" />
<glyph unicode="T" horiz-adv-x="1050" d="M35 1319v92h979v-92h-439v-1319h-98v1319h-442z" />
<glyph unicode="U" horiz-adv-x="1208" d="M106 451v960h101v-944q0 -104 33.5 -178t89 -121t127 -69.5t147.5 -22.5q78 0 150.5 22.5t128 69.5t88.5 120.5t33 178.5v944h100v-962q0 -104 -37 -190.5t-103.5 -147t-158.5 -93t-201 -32.5q-111 0 -202 32.5t-156.5 94t-102.5 147.5t-37 191z" />
<glyph unicode="V" horiz-adv-x="1114" d="M35 1411h106l217 -672l193 -604q14 39 27.5 76t25.5 74q37 117 75 231.5t73 231.5l217 663h106q-117 -356 -232.5 -705.5t-232.5 -705.5h-114z" />
<glyph unicode="W" horiz-adv-x="1716" d="M20 1411h107l197 -762q33 -129 65.5 -259t67.5 -259h2l137 520l201 760h104l201 -766l135 -512h4l131 514l199 764h104q-96 -356 -189 -705.5t-188 -705.5h-120l-197 741l-131 502l-180 -682l-152 -561h-119z" />
<glyph unicode="X" horiz-adv-x="1026" d="M23 0l436 725l-406 686h115l344 -600l344 600h115l-406 -686l436 -725h-114l-375 637l-375 -637h-114z" />
<glyph unicode="Y" horiz-adv-x="1003" d="M25 1411h108l160 -332l153 -327q16 -29 29.5 -55.5t28.5 -55.5l207 442l157 328h105q-104 -221 -210 -439t-212 -437v-535h-98v530q-106 223 -213 440.5t-215 440.5z" />
<glyph unicode="Z" horiz-adv-x="1056" d="M82 0v86l780 1235h-747v90h864v-88l-778 -1235h776v-88h-895z" />
<glyph unicode="[" horiz-adv-x="479" d="M156 -223v1650h290v-71h-202v-1510h202v-69h-290z" />
<glyph unicode="\" horiz-adv-x="598" d="M-8 1485h74l516 -1571h-74z" />
<glyph unicode="]" horiz-adv-x="479" d="M72 -154h200v1510h-200v71h288v-1650h-288v69z" />
<glyph unicode="^" horiz-adv-x="956" d="M92 682l350 737h74l346 -735h-84l-301 647q-23 -55 -63.5 -142t-84.5 -181.5t-85 -182.5t-66 -143h-86z" />
<glyph unicode="_" horiz-adv-x="1009" d="M0 -143h1010v-76h-1010v76z" />
<glyph unicode="`" horiz-adv-x="987" d="M422 1454l98 39l162 -315l-57 -25z" />
<glyph unicode="a" horiz-adv-x="954" d="M66 272q0 80 32.5 135.5t81.5 89t108.5 49t114.5 15.5h365v101q0 270 -285 270q-72 0 -147.5 -20.5t-153.5 -73.5l-49 73q86 57 172 81t184 24q104 0 175 -23.5t114 -68.5t61.5 -107.5t18.5 -140.5v-676h-74l-16 125h-2q-74 -47 -132.5 -73.5t-104.5 -41t-82.5 -18.5 t-65.5 -4q-141 0 -228 71.5t-87 212.5zM162 272q0 -53 18.5 -91t50 -62.5t73.5 -36.5t89 -12q45 0 93.5 13t97.5 33.5t96 46t88 50.5v268h-330q-41 0 -89 -6t-90 -27.5t-69.5 -63.5t-27.5 -112z" />
<glyph unicode="b" horiz-adv-x="983" d="M109 0v1464h92v-598q82 51 142 82t104.5 46.5t78 19.5t62.5 4q152 0 231.5 -85t79.5 -259v-344q0 -172 -90 -257t-229 -85q-29 0 -63 3t-79 15t-103.5 38t-133.5 71l-17 -115h-75zM201 211q98 -66 200.5 -101.5t169.5 -35.5q115 0 175.5 68.5t60.5 211.5v297 q0 150 -57.5 213.5t-174.5 63.5q-35 0 -78.5 -12.5t-93 -34t-101.5 -51t-101 -62.5v-557z" />
<glyph unicode="c" horiz-adv-x="839" d="M100 354v303q0 82 29 148.5t81 114t122.5 74t156.5 26.5q78 0 161 -21.5t145 -74.5l-58 -74q-59 47 -123.5 65.5t-115.5 18.5q-57 0 -111.5 -16.5t-97.5 -52.5t-68.5 -93t-25.5 -139v-256q0 -80 25.5 -137.5t68.5 -94t97 -53t110 -16.5q49 0 120.5 17.5t120.5 56.5 l56 -70q-63 -47 -143.5 -68.5t-157.5 -21.5q-90 0 -163 26.5t-124 75.5t-78 115.5t-27 146.5z" />
<glyph unicode="d" horiz-adv-x="983" d="M94 330v338q0 170 95.5 260t256.5 90q61 0 142.5 -16.5t204.5 -75.5v538h90v-1462h-74l-16 131q-74 -47 -131.5 -74.5t-103.5 -44t-82 -21.5t-64 -5q-147 0 -232.5 83t-85.5 259zM184 350q0 -150 60.5 -213t171.5 -63q70 0 172 42t205 113v600q-109 53 -191 78t-147 25 q-270 0 -271 -287v-295z" />
<glyph unicode="e" horiz-adv-x="954" d="M100 354v285q0 86 29 155.5t81 120t125 77t159 26.5q84 0 153.5 -27.5t120.5 -77t78.5 -119t27.5 -151.5v-178h-681v-94q0 -84 26.5 -141.5t69.5 -93.5t98 -52t115 -16q84 0 151.5 28.5t120.5 79.5l57 -65q-63 -63 -147 -93t-186 -30q-86 0 -159 23.5t-126 69.5 t-83 114.5t-30 158.5zM193 545h589v86q0 82 -25.5 139t-66.5 94t-92 53.5t-104 16.5q-55 0 -109.5 -17.5t-96.5 -54.5t-68.5 -95t-26.5 -138v-84z" />
<glyph unicode="f" horiz-adv-x="577" d="M63 922v86h123v223q0 123 68 182.5t166 59.5h147v-84h-129q-49 0 -79.5 -14.5t-49 -38t-24.5 -56.5t-6 -70v-202h288v-86h-288v-922h-93v922h-123z" />
<glyph unicode="g" horiz-adv-x="980" d="M90 330v344q0 172 90.5 257t229.5 85q29 0 63.5 -3t80.5 -16.5t103.5 -40t130.5 -71.5l17 121h76v-1086q0 -86 -31 -151.5t-84 -110.5t-129 -67.5t-164 -22.5q-82 0 -171 23.5t-155 76.5l60 72q49 -41 126 -63.5t142 -22.5q63 0 120.5 15.5t100.5 50t67.5 91t24.5 140.5 v186q-72 -47 -129 -75.5t-103 -45t-84 -22.5t-69 -6h-13q-136 0 -216 83q-84 87 -84 259zM182 354q0 -147 56.5 -212.5t171.5 -65.5q76 0 177 44t201 111v553q-104 72 -199 108t-171 36q-111 0 -173.5 -63.5t-62.5 -215.5v-295z" />
<glyph unicode="h" horiz-adv-x="980" d="M100 0v1466h93v-600q141 90 234.5 121t156.5 31q307 0 307 -344v-674h-92v651q0 150 -57.5 213.5t-172.5 63.5q-37 0 -83 -12.5t-95 -34t-100 -48t-98 -57.5v-776h-93z" />
<glyph unicode="i" horiz-adv-x="378" d="M123 1337q0 29 19.5 47.5t45.5 18.5q29 0 48.5 -18.5t19.5 -47.5t-19.5 -48t-48.5 -19q-27 0 -46 19.5t-19 47.5zM143 0v1006h90v-1006h-90z" />
<glyph unicode="j" horiz-adv-x="450" d="M-18 -344h63q82 0 115 39t33 143v1168h92v-1184q0 -131 -55.5 -190.5t-172.5 -59.5h-75v84zM174 1337q0 29 19.5 47.5t46.5 18.5q29 0 48 -18.5t19 -47.5t-19.5 -48t-47.5 -19q-27 0 -46.5 19.5t-19.5 47.5z" />
<glyph unicode="k" horiz-adv-x="919" d="M100 0v1466h90v-841h234q61 0 119.5 26.5t99.5 112.5l117 246h100l-117 -258q-27 -57 -61.5 -99.5t-99.5 -66.5q39 -6 67.5 -25.5t48 -46.5t32.5 -58.5t24 -64.5l135 -391h-101l-122 350q-20 59 -41 95t-46.5 56.5t-59.5 27t-83 6.5h-246v-535h-90z" />
<glyph unicode="l" horiz-adv-x="512" d="M186 217v1249h90v-1235q0 -95 36 -125q32 -26 102 -26h20l4 -84q-18 -4 -33.5 -4h-31.5q-104 0 -145.5 56t-41.5 169z" />
<glyph unicode="m" horiz-adv-x="1513" d="M92 0v1006h76l16 -140q59 45 108.5 75t90.5 47.5t75.5 23.5t69.5 6q57 0 99.5 -14.5t72 -38t49 -55t31.5 -64.5q68 57 121 91t96 52.5t77 23.5t61 5q145 0 217.5 -86t72.5 -248v-684h-92v655q0 129 -46 201t-165 72q-72 0 -151.5 -42t-173.5 -120q4 -29 6 -49.5t2 -42.5 v-674h-92v657q0 127 -44 200t-159 73q-59 0 -137 -34t-189 -120v-776h-92z" />
<glyph unicode="n" horiz-adv-x="983" d="M98 0v1006h76l16 -140q72 43 128.5 73t101.5 47.5t82.5 24.5t72.5 7q150 0 232 -85t82 -259v-674h-92v651q-1 151 -63 215q-61 63 -170 62h-7q-74 0 -170 -44t-197 -112v-772h-92z" />
<glyph unicode="o" horiz-adv-x="980" d="M94 352v307q0 82 32 148.5t86 113t126 72t154 25.5q84 0 156.5 -25.5t125.5 -72t83 -113t30 -148.5v-305q0 -172 -108.5 -269t-289.5 -97q-88 0 -160.5 25.5t-124.5 73.5t-81 114.5t-29 150.5zM186 375q0 -84 26 -141.5t68 -93.5t97 -52t117 -16q61 0 115.5 17t96.5 54 t66.5 94.5t24.5 137.5v256q0 82 -28 139t-71 93t-97 52.5t-107 16.5q-55 0 -110.5 -16.5t-98.5 -52.5t-71 -93t-28 -139v-256z" />
<glyph unicode="p" horiz-adv-x="983" d="M102 -416v1417h74l17 -131q74 45 131 75t103 45.5t82 21.5t64 6q147 0 232.5 -84t85.5 -258v-340q0 -170 -93 -260t-259 -90q-61 0 -142.5 16t-203.5 78v-496h-91zM193 174q113 -57 192.5 -79.5t144.5 -22.5q135 0 203 68.5t68 215.5v297q0 150 -61.5 213.5t-170.5 63.5 q-70 0 -172 -43t-204 -113v-600z" />
<glyph unicode="q" horiz-adv-x="978" d="M92 330v346q0 172 89 257t229 85q29 0 64.5 -4t80.5 -17.5t103.5 -39t132.5 -68.5l16 115h74v-1422h-90v551q-74 -49 -133.5 -77.5t-105.5 -44t-82 -19.5t-64 -4q-147 0 -230.5 84t-83.5 258zM182 354q0 -145 58 -212q57 -66 167 -66h7q72 0 171 39t206 116v562 q-104 70 -205 104.5t-168 34.5q-115 0 -175.5 -68.5t-60.5 -212.5v-297z" />
<glyph unicode="r" horiz-adv-x="606" d="M137 0v1006h80l14 -150h2q31 27 73 54.5t91 51t101.5 38t101.5 18.5v-107q-137 -14 -227 -59t-142 -80v-772h-94z" />
<glyph unicode="s" horiz-adv-x="899" d="M78 94l49 72q76 -53 158 -78t180 -25q45 0 94 10.5t88 35t64.5 64.5t25.5 99q0 86 -67.5 130t-227.5 71q-61 10 -122.5 25.5t-111.5 43t-82 74t-32 117.5q0 125 93.5 205t252.5 80q104 0 186.5 -19.5t151.5 -66.5l-47 -70q-127 76 -285 76q-119 0 -190.5 -55.5 t-71.5 -149.5q0 -43 21.5 -73.5t59.5 -51t90.5 -34t113.5 -23.5t125.5 -25.5t117 -45t85 -80t32.5 -132.5q0 -123 -96 -201.5t-272 -78.5q-98 0 -194.5 20.5t-188.5 85.5z" />
<glyph unicode="t" horiz-adv-x="684" d="M63 922v86h156l25 237h65v-237h299v-86h-299v-613q0 -129 42 -181t145 -52q27 0 63.5 3t77.5 11l14 -80q-47 -14 -95 -17t-73 -3q-150 0 -208 68.5t-58 224.5v639h-154z" />
<glyph unicode="u" horiz-adv-x="987" d="M94 332v674h92v-652q0 -150 63.5 -214t176.5 -64q74 0 170 44t197 116v770h94v-1006h-78l-16 139q-70 -43 -124.5 -71.5t-98.5 -47t-80.5 -25.5t-71.5 -7q-156 0 -240 85t-84 259z" />
<glyph unicode="v" horiz-adv-x="882" d="M25 1006h100l135 -381q45 -127 87 -251t89 -253q6 16 14.5 37.5t27 73t51 142.5t85.5 249q35 96 70 191t66 192h102q-92 -252 -183 -504t-184 -502h-98q-94 250 -182 502t-180 504z" />
<glyph unicode="w" horiz-adv-x="1374" d="M18 1006h97q29 -92 55.5 -186.5t52.5 -186.5l148 -504h2q47 137 93 274.5t93 276.5q23 59 41 117.5t39 117.5h98l133 -391l134 -395h2q37 123 73.5 247t71.5 249l109 381h94l-295 -1006h-98l-158 461l-115 334h-2l-117 -349l-151 -446h-99z" />
<glyph unicode="x" horiz-adv-x="821" d="M16 0l336 514l-319 492h112l261 -416l264 416h112l-323 -490l338 -516h-115l-276 438l-277 -438h-113z" />
<glyph unicode="y" horiz-adv-x="876" d="M14 1004h97q41 -117 77.5 -234t77.5 -235l154 -455h2l166 455q43 119 86 235.5t84 233.5h96q-129 -356 -259 -705.5t-259 -704.5h-98l147 410l-57 59z" />
<glyph unicode="z" horiz-adv-x="860" d="M61 0v76l609 850h-576v80h684v-76l-604 -848h604v-82h-717z" />
<glyph unicode="{" horiz-adv-x="479" d="M59 578v51q45 12 75 42.5t45.5 73.5t21.5 93.5t6 99.5v276q0 96 43 153.5t119 57.5h96v-59h-70q-37 0 -59.5 -18.5t-33.5 -47t-15 -62.5t-4 -64v-275q0 -63 -13.5 -113.5t-33 -87t-44 -60.5t-47.5 -32v-2q53 -16 95.5 -89t42.5 -191v-295q0 -31 4 -65t15 -62.5t33.5 -47 t59.5 -18.5h70v-59h-96q-76 0 -120 55t-44 154v286q0 133 -29 208t-117 98z" />
<glyph unicode="|" horiz-adv-x="356" d="M147 -332v1798h70v-1798h-70z" />
<glyph unicode="}" horiz-adv-x="479" d="M57 -164h70q37 0 59.5 18.5t33.5 47t15.5 62.5t4.5 65v295q0 119 42 191.5t95 88.5v2q-25 8 -48.5 32t-44 60.5t-32.5 87t-12 113.5v275q0 31 -3.5 64.5t-13.5 62t-33.5 47t-62.5 18.5h-70v57h95q82 0 122.5 -58t40.5 -151v-276q0 -49 6.5 -99.5t21.5 -93.5t44 -73.5 t76 -42.5v-51q-88 -23 -117 -97.5t-29 -208.5v-286q0 -94 -44 -151.5t-119 -57.5h-97v59z" />
<glyph unicode="~" horiz-adv-x="968" d="M47 537q43 61 101.5 97t123.5 36q55 0 109.5 -19.5t108 -43t105.5 -43t105 -19.5q55 0 88 26.5t70 77.5l64 -45q-41 -63 -91.5 -102t-130.5 -39q-53 0 -110.5 19.5t-112.5 42t-108.5 42t-98.5 19.5q-53 0 -90 -28t-74 -69z" />
<glyph unicode="&#xa1;" horiz-adv-x="432" d="M139 938q0 35 21.5 56.5t56.5 21.5t56.5 -21.5t21.5 -56.5q0 -29 -21.5 -51.5t-56.5 -22.5t-56.5 22.5t-21.5 51.5zM170 -414q0 131 2 272.5t3 285t3 284.5t2 270h78q0 -129 2 -270t3 -284.5t3 -285t2 -272.5h-98z" />
<glyph unicode="&#xa2;" horiz-adv-x="907" d="M100 354v303q0 78 27 142.5t74 111.5t112.5 75t145.5 32v227h55v-225q74 -4 148.5 -25.5t132.5 -70.5l-58 -74q-53 43 -113.5 61.5t-109.5 22.5v-858q49 4 113.5 21.5t109.5 52.5l56 -70q-59 -45 -132 -65.5t-147 -24.5v-223h-55v225q-84 4 -150.5 32.5t-112.5 75.5 t-71 111.5t-25 142.5zM195 377q0 -74 21.5 -128t58 -91t85 -56.5t99.5 -25.5v856q-51 -4 -99.5 -23.5t-85 -55.5t-58 -90t-21.5 -130v-256z" />
<glyph unicode="&#xa3;" horiz-adv-x="968" d="M76 616v72h162q-6 39 -13.5 64.5t-15.5 48.5q-23 68 -47.5 138.5t-24.5 141.5q0 68 21.5 130.5t66.5 110.5t113 76.5t158 28.5q131 0 219 -44t149 -132l-69 -53q-57 78 -133 113t-170 35q-39 0 -84.5 -12.5t-84 -42t-65.5 -81t-27 -129.5q0 -35 9.5 -75.5t23.5 -81.5 q18 -55 35.5 -107.5t32.5 -128.5h307v-72h-301q-2 -143 -33 -276t-123 -258h711v-82h-815v74q80 106 127 236t47 296v10h-176z" />
<glyph unicode="&#xa4;" horiz-adv-x="968" d="M82 328l119 118q-72 100 -72 218q-2 59 18.5 114.5t59.5 106.5l-119 119q10 12 26.5 28.5l28.5 28.5l119 -119q102 78 223 78q57 0 111.5 -19.5t105.5 -54.5l119 119q10 -12 25.5 -27.5t30.5 -29.5l-119 -119q86 -104 86 -225q0 -59 -20.5 -115.5t-57.5 -108.5l119 -116 q-12 -16 -27.5 -30.5t-30.5 -29.5l-118 119q-98 -78 -224 -82q-125 2 -227 88l-119 -119q-10 12 -28.5 29.5t-28.5 28.5zM213 664q0 -57 20.5 -107.5t57.5 -87.5t86 -58.5t106 -21.5t107.5 21.5t87.5 58.5t58.5 87t21.5 108q0 57 -20.5 107t-57.5 87t-87 58.5t-108 21.5 q-57 0 -107 -21.5t-87 -58.5t-57.5 -87t-20.5 -107z" />
<glyph unicode="&#xa5;" horiz-adv-x="968" d="M49 1411h109l325 -766q88 190 165 382t163 384h104q-78 -184 -158.5 -366.5t-160.5 -366.5h301v-68h-330l-32 -75v-138h362v-65h-362v-332h-99v332h-348v65h348v133l-35 80h-315v68h287z" />
<glyph unicode="&#xa6;" horiz-adv-x="356" d="M147 -332v842h70v-842h-70zM147 625v841h70v-841h-70z" />
<glyph unicode="&#xa7;" horiz-adv-x="901" d="M98 725q0 59 32 121.5t97 116.5q-35 33 -61.5 82t-26.5 104q0 135 88 213t230 78q82 0 156.5 -22.5t127.5 -63.5q-12 -18 -23 -37t-22 -37q-106 82 -243 82q-96 0 -162 -52.5t-66 -144.5q0 -129 150 -192q70 -29 145.5 -61.5t140 -75.5t106.5 -102.5t42 -141.5 q0 -70 -26.5 -131.5t-86.5 -110.5q35 -41 54.5 -89t19.5 -107q0 -137 -94 -219t-256 -82q-84 0 -165 29.5t-134 74.5l43 63q55 -43 119.5 -66.5t132.5 -23.5q55 0 104 12.5t86 39t58.5 67.5t21.5 98q0 100 -74.5 156.5t-201.5 106.5q-80 31 -138.5 61.5t-97.5 67t-57.5 82 t-18.5 104.5zM180 731q0 -57 24.5 -94t60.5 -62.5t78 -42t79 -34.5q53 -23 107.5 -46.5t95.5 -50.5q53 35 75.5 83t22.5 102q0 74 -40 124t-102.5 87t-139 65.5t-150.5 57.5q-43 -35 -77 -88.5t-34 -100.5z" />
<glyph unicode="&#xa8;" horiz-adv-x="954" d="M231 1331q0 29 19.5 47.5t44.5 18.5q29 0 48 -18.5t19 -47.5q0 -27 -19 -46t-48 -19q-25 0 -44.5 19.5t-19.5 45.5zM575 1331q0 29 19.5 47.5t46.5 18.5q29 0 47.5 -18.5t18.5 -47.5q0 -27 -18.5 -46t-47.5 -19q-27 0 -46.5 19.5t-19.5 45.5z" />
<glyph unicode="&#xa9;" horiz-adv-x="1597" d="M106 698q0 154 53.5 286t147.5 229.5t222 151.5t276 54q150 0 277.5 -54t222 -151.5t148.5 -229.5t54 -286t-54 -284.5t-148.5 -228t-222 -151.5t-277.5 -54t-278 54t-221 151.5t-146.5 228.5t-53.5 284zM182 698q0 -135 48.5 -253.5t132 -206.5t197.5 -138.5t245 -50.5 q133 0 247.5 50.5t199.5 138.5t133.5 206.5t48.5 253.5q0 137 -48.5 256t-133.5 207t-199.5 138.5t-247.5 50.5q-131 0 -245 -50.5t-197.5 -138.5t-132 -206.5t-48.5 -256.5zM489 569v248q0 70 24 127t67 98t103 64.5t134 23.5q143 0 248 -71l-41 -62q-47 33 -99.5 48.5 t-107.5 15.5q-49 0 -94 -14.5t-81 -45t-57.5 -80t-21.5 -116.5v-223q0 -68 21.5 -117t57.5 -81t80 -47t91 -15q117 0 213 67l43 -59q-41 -29 -105.5 -52.5t-146.5 -23.5q-154 0 -241 88t-87 227z" />
<glyph unicode="&#xaa;" horiz-adv-x="657" d="M41 754q0 55 22.5 92t58.5 59.5t78 32.5t81 10h237v58q0 94 -50 128.5t-134 34.5q-51 0 -100.5 -13t-106.5 -50l-41 63q63 39 121.5 55.5t128.5 16.5q139 0 201.5 -60.5t62.5 -166.5v-443h-70l-10 78q-86 -55 -147.5 -71.5t-108.5 -16.5q-100 0 -161.5 50.5t-61.5 142.5z M123 754q0 -61 45 -91t104 -30q57 0 125 28.5t121 61.5v158h-215q-27 0 -58.5 -4.5t-58 -17.5t-45 -37.5t-18.5 -67.5z" />
<glyph unicode="&#xab;" horiz-adv-x="833" d="M127 449l242 352h90l-236 -352l236 -355h-94zM403 449l242 352h90l-235 -352l235 -355h-92z" />
<glyph unicode="&#xac;" horiz-adv-x="968" d="M61 535v77h846l-2 -475h-74v398h-770z" />
<glyph unicode="&#xad;" horiz-adv-x="757" d="M109 502v88h540v-88h-540z" />
<glyph unicode="&#xae;" horiz-adv-x="1118" d="M145 1008q0 92 33 172t89.5 137t132 90t163.5 33t165 -33t133.5 -90t88 -137t31.5 -172t-31.5 -171t-88 -136.5t-133.5 -90t-165 -32.5t-163.5 32.5t-132 90t-89.5 136t-33 171.5zM199 1008q0 -82 27.5 -152t76.5 -121t115.5 -80.5t144.5 -29.5t144.5 29.5t115.5 80.5 t77 121t28 152t-28 151.5t-77 120.5t-115.5 81t-144.5 30t-144.5 -30t-115.5 -81t-76.5 -120.5t-27.5 -151.5zM408 758v499h198q66 0 108 -35.5t42 -97.5q0 -53 -31 -90t-84 -47l121 -229h-62l-114 223h-125v-223h-53zM461 1030h135q47 0 76.5 23.5t29.5 70.5 q0 45 -31.5 65.5t-72.5 20.5h-137v-180z" />
<glyph unicode="&#xaf;" horiz-adv-x="970" d="M264 1214v84h522v-84h-522z" />
<glyph unicode="&#xb0;" horiz-adv-x="739" d="M119 1182q0 51 20.5 97t54 80t79.5 53.5t98 19.5q53 0 99 -19.5t80 -53.5t53.5 -80t19.5 -97q0 -53 -19.5 -98.5t-53.5 -79t-80 -53t-99 -19.5t-99.5 19.5t-80 53t-53 78.5t-19.5 99zM190 1182q0 -76 51.5 -129.5t129.5 -53.5q76 0 128 51.5t52 131.5q0 78 -52.5 131 t-127.5 53q-78 0 -129.5 -53t-51.5 -131z" />
<glyph unicode="&#xb1;" horiz-adv-x="968" d="M63 0v76h842v-76h-842zM63 555v76h383v383h76v-383h381v-76h-381v-387h-76v387h-383z" />
<glyph unicode="&#xb2;" horiz-adv-x="630" d="M43 756v82q0 59 23.5 107t62.5 89t88 75t100 65q35 20 69 43.5t59.5 50t41 56.5t15.5 62q0 39 -16.5 67t-44 45.5t-63.5 25.5t-73 8q-61 0 -114.5 -19.5t-92.5 -48.5l-41 62q45 33 109.5 56.5t136.5 23.5q53 0 104.5 -11.5t91.5 -37t63.5 -66.5t23.5 -100 q0 -78 -58.5 -144.5t-142.5 -118.5q-39 -23 -84 -51t-83 -63t-63.5 -77t-25.5 -89v-21h457v-71h-543z" />
<glyph unicode="&#xb3;" horiz-adv-x="630" d="M18 829q2 2 8.5 11.5t14.5 18.5t15 17.5t10 12.5q37 -35 90 -52.5t110 -17.5q86 0 145.5 45t59.5 125t-48 121t-114 41h-108v74h108q23 0 49.5 9t50 29.5t40 50t16.5 72.5q0 39 -17.5 67t-45 45.5t-59.5 25.5t-62 8q-53 0 -106.5 -18.5t-94.5 -49.5l-43 60 q55 37 117.5 58.5t134.5 21.5q47 0 93 -12.5t83 -39t59.5 -67.5t22.5 -99q0 -59 -33 -114t-104 -80q82 -25 112.5 -82t30.5 -117q0 -57 -22.5 -103t-61.5 -78t-91 -49.5t-110 -17.5q-82 0 -144.5 25t-105.5 59z" />
<glyph unicode="&#xb4;" horiz-adv-x="987" d="M422 1178l160 315l100 -39l-205 -301z" />
<glyph unicode="&#xb6;" horiz-adv-x="940" d="M84 1128q0 72 27.5 136.5t74.5 113.5t113 78t141 29h185v-713h-185q-78 0 -143.5 27.5t-112.5 76t-73.5 114t-26.5 138.5zM451 -158q104 12 160.5 40t82 70t30.5 94t5 114v1325h84v-1348q0 -86 -13.5 -151.5t-51 -111.5t-107.5 -74.5t-182 -41.5z" />
<glyph unicode="&#xb7;" horiz-adv-x="376" d="M104 551q0 37 27 62.5t66 25.5q35 0 62.5 -25.5t27.5 -62.5t-25.5 -63.5t-64.5 -26.5t-66 26.5t-27 63.5z" />
<glyph unicode="&#xb8;" horiz-adv-x="847" d="M326 -367l20 54q35 -10 67.5 -15.5t59.5 -5.5q43 0 85 18.5t42 71.5q0 27 -13.5 46.5t-35 30.5t-48 15.5t-52.5 -0.5l-41 21q14 41 26.5 82t24.5 80q16 0 30.5 -1t28.5 -1l-39 -119q55 0 92 -16.5t59.5 -40t32 -50t9.5 -49.5t-10.5 -48t-34 -48t-61.5 -37t-93 -14 q-23 0 -60.5 5t-88.5 21z" />
<glyph unicode="&#xb9;" horiz-adv-x="528" d="M80 1458l196 139h74v-841h-80v743l-143 -102z" />
<glyph unicode="&#xba;" horiz-adv-x="677" d="M59 811v186q0 55 21.5 99.5t60.5 77t89.5 50t109.5 17.5q121 0 198.5 -66.5t77.5 -177.5v-182q0 -115 -75.5 -184.5t-202.5 -69.5q-125 0 -202 69.5t-77 180.5zM139 827q0 -51 16.5 -86.5t44 -59.5t64.5 -35t76 -11q80 0 139.5 47t59.5 145v150q0 51 -17.5 88t-46.5 59.5 t-64.5 33.5t-70.5 11q-37 0 -73 -11t-64.5 -33.5t-46 -59.5t-17.5 -88v-150z" />
<glyph unicode="&#xbb;" horiz-adv-x="833" d="M129 94l233 355l-233 352h90l242 -352l-240 -355h-92zM406 94l235 355l-235 352h90l241 -352l-239 -355h-92z" />
<glyph unicode="&#xbc;" horiz-adv-x="1556" d="M182 1274l197 139h74v-842h-80v744l-144 -103zM262 -35l868 1497h82l-870 -1497h-80zM803 133v64q25 53 67.5 141t90 182t90.5 181t67 141h86l-311 -637h317v260h76v-260h88v-72h-88v-133h-76v133h-407z" />
<glyph unicode="&#xbd;" horiz-adv-x="1556" d="M139 1274l197 139h74v-842h-80v744l-144 -103zM203 -35l868 1497h82l-870 -1497h-80zM874 0v82q0 59 24 107.5t62.5 89t88 74.5t100.5 65q35 20 68.5 43.5t59.5 50.5t41 56.5t15 62.5q0 39 -16.5 66.5t-44 45t-63 25.5t-72.5 8q-61 0 -114.5 -19.5t-92.5 -47.5l-41 61 q45 33 109.5 56.5t136.5 23.5q53 0 104 -11.5t91 -37t63.5 -66.5t23.5 -100q0 -78 -58.5 -144.5t-141.5 -117.5q-39 -23 -84.5 -50.5t-83 -63.5t-63 -77t-25.5 -88v-22h456v-72h-543z" />
<glyph unicode="&#xbe;" horiz-adv-x="1556" d="M90 645q2 2 8 11.5t14.5 18.5t15.5 17t9 13q37 -35 90.5 -52.5t110.5 -17.5q86 0 145.5 45t59.5 125t-48.5 121t-113.5 41h-109v73h109q23 0 49.5 9.5t50 30t40 50t16.5 72.5q0 39 -17.5 66.5t-45.5 45t-59.5 26t-62.5 8.5q-53 0 -106 -18.5t-94 -49.5l-43 59 q55 37 117 58.5t134 21.5q47 0 93.5 -12t83 -39t59 -67.5t22.5 -98.5q0 -59 -32.5 -114.5t-104.5 -79.5q82 -25 113 -82.5t31 -116.5q0 -57 -22.5 -103.5t-61.5 -78t-91.5 -49t-109.5 -17.5q-82 0 -144.5 24.5t-105.5 59.5zM346 -35l868 1497h82l-870 -1497h-80zM893 133v64 q25 53 68 141t90 182t90 181t67 141h86l-311 -637h317v260h76v-260h88v-72h-88v-133h-76v133h-407z" />
<glyph unicode="&#xbf;" horiz-adv-x="884" d="M94 -86q0 86 45 165t105 150q66 78 109.5 157t43.5 167v131h86v-131q0 -59 -14 -107.5t-36.5 -90.5t-52.5 -80.5t-61 -77.5q-47 -59 -90 -127t-43 -150q0 -113 75 -184.5t212 -71.5q78 0 151.5 22.5t133.5 61.5l45 -72q-84 -51 -166 -72.5t-176 -21.5q-86 0 -154.5 24.5 t-116 69.5t-72 105.5t-24.5 132.5zM356 938q0 35 22.5 56.5t57.5 21.5t56.5 -21.5t21.5 -56.5q0 -29 -21.5 -51.5t-56.5 -22.5t-57.5 22.5t-22.5 51.5z" />
<glyph unicode="&#xc0;" horiz-adv-x="1163" d="M41 0l487 1411h111l491 -1411h-104q-29 86 -59.5 170t-61.5 170h-645q-29 -86 -57.5 -170t-57.5 -170h-104zM293 430h581q-8 25 -29.5 91.5t-51 153.5t-63.5 185t-63.5 186.5t-52 154t-30.5 89.5h-2q-8 -25 -30 -91t-51.5 -153.5t-62 -185.5t-62.5 -185t-52.5 -153.5 t-30.5 -91.5zM305 1683l72 76l278 -221l-41 -45z" />
<glyph unicode="&#xc1;" horiz-adv-x="1163" d="M41 0l487 1411h111l491 -1411h-104q-29 86 -59.5 170t-61.5 170h-645q-29 -86 -57.5 -170t-57.5 -170h-104zM293 430h581q-8 25 -29.5 91.5t-51 153.5t-63.5 185t-63.5 186.5t-52 154t-30.5 89.5h-2q-8 -25 -30 -91t-51.5 -153.5t-62 -185.5t-62.5 -185t-52.5 -153.5 t-30.5 -91.5zM512 1538l279 221l71 -76l-309 -190z" />
<glyph unicode="&#xc2;" horiz-adv-x="1163" d="M41 0l487 1411h111l491 -1411h-104q-29 86 -59.5 170t-61.5 170h-645q-29 -86 -57.5 -170t-57.5 -170h-104zM285 1538l268 223h76l260 -221l-37 -43l-264 170l-266 -172zM293 430h581q-8 25 -29.5 91.5t-51 153.5t-63.5 185t-63.5 186.5t-52 154t-30.5 89.5h-2 q-8 -25 -30 -91t-51.5 -153.5t-62 -185.5t-62.5 -185t-52.5 -153.5t-30.5 -91.5z" />
<glyph unicode="&#xc3;" horiz-adv-x="1163" d="M41 0l487 1411h111l491 -1411h-104q-29 86 -59.5 170t-61.5 170h-645q-29 -86 -57.5 -170t-57.5 -170h-104zM274 1585q39 63 87.5 97t101.5 34q33 0 67.5 -13t68.5 -29.5t65.5 -30t56.5 -13.5q33 0 58.5 19.5t56.5 64.5l61 -35q-39 -72 -82 -102.5t-92 -30.5 q-31 0 -63.5 12.5t-66.5 28t-66.5 28.5t-61.5 13q-39 0 -67.5 -19.5t-61.5 -60.5zM293 430h581q-8 25 -29.5 91.5t-51 153.5t-63.5 185t-63.5 186.5t-52 154t-30.5 89.5h-2q-8 -25 -30 -91t-51.5 -153.5t-62 -185.5t-62.5 -185t-52.5 -153.5t-30.5 -91.5z" />
<glyph unicode="&#xc4;" horiz-adv-x="1163" d="M41 0l487 1411h111l491 -1411h-104q-29 86 -59.5 170t-61.5 170h-645q-29 -86 -57.5 -170t-57.5 -170h-104zM293 430h581q-8 25 -29.5 91.5t-51 153.5t-63.5 185t-63.5 186.5t-52 154t-30.5 89.5h-2q-8 -25 -30 -91t-51.5 -153.5t-62 -185.5t-62.5 -185t-52.5 -153.5 t-30.5 -91.5zM350 1608q0 27 19.5 46t44.5 19q29 0 48 -19t19 -46q0 -29 -19.5 -47.5t-47.5 -18.5q-25 0 -44.5 18.5t-19.5 47.5zM694 1608q0 27 19.5 46t46.5 19q29 0 47 -19t18 -46q0 -29 -18.5 -47.5t-46.5 -18.5q-27 0 -46.5 18.5t-19.5 47.5z" />
<glyph unicode="&#xc5;" horiz-adv-x="1163" d="M41 0l487 1411h111l491 -1411h-104q-29 86 -59.5 170t-61.5 170h-645q-29 -86 -57.5 -170t-57.5 -170h-104zM293 430h581q-8 25 -29.5 91.5t-51 153.5t-63.5 185t-63.5 186.5t-52 154t-30.5 89.5h-2q-8 -25 -30 -91t-51.5 -153.5t-62 -185.5t-62.5 -185t-52.5 -153.5 t-30.5 -91.5zM395 1661q0 39 15.5 72.5t41 59.5t59.5 40t73 14t73.5 -14t60 -40t40 -59.5t14.5 -72.5t-14.5 -73t-40 -59.5t-60 -39.5t-73.5 -14q-78 0 -133.5 54t-55.5 132zM455 1661q0 -53 37.5 -91t91.5 -38q55 0 92 38t37 91t-37 91t-92 38q-53 0 -91 -38t-38 -91z" />
<glyph unicode="&#xc6;" horiz-adv-x="1884" d="M2 0l897 1411h956v-90h-808v-561h694v-88h-694v-584h808v-88h-907v377h-596l-239 -377h-111zM408 463h540v854z" />
<glyph unicode="&#xc7;" horiz-adv-x="1028" d="M104 459v499q0 102 36 188.5t101.5 148t156.5 96t202 34.5q106 0 195.5 -24.5t169.5 -79.5l-54 -80q-66 47 -145.5 70.5t-165.5 23.5q-74 0 -145.5 -22.5t-128 -70.5t-90 -123t-33.5 -179v-465q0 -104 34.5 -180t90 -125t125 -72.5t141.5 -23.5q180 0 321 100l52 -76 q-55 -41 -149.5 -76.5t-217.5 -35.5h-2l-25 -76q55 0 92 -16.5t60 -40t32 -50t9 -49.5t-10.5 -48t-34 -48t-61 -37t-93.5 -14q-23 0 -60.5 5t-88.5 21l20 54q35 -10 67.5 -15.5t59.5 -5.5q43 0 85 18.5t42 71.5q0 27 -13 46.5t-34.5 30.5t-48.5 15.5t-53 -0.5l-41 21l37 121 q-100 8 -180 46t-136.5 99.5t-87.5 144t-31 179.5z" />
<glyph unicode="&#xc8;" horiz-adv-x="1089" d="M117 0v1411h907v-90h-809v-561h696v-88h-696v-584h809v-88h-907zM317 1683l72 76l279 -221l-41 -45z" />
<glyph unicode="&#xc9;" horiz-adv-x="1089" d="M117 0v1411h907v-90h-809v-561h696v-88h-696v-584h809v-88h-907zM444 1538l279 221l72 -76l-310 -190z" />
<glyph unicode="&#xca;" horiz-adv-x="1089" d="M117 0v1411h907v-90h-809v-561h696v-88h-696v-584h809v-88h-907zM268 1538l269 223h75l260 -221l-36 -43l-265 170l-266 -172z" />
<glyph unicode="&#xcb;" horiz-adv-x="1089" d="M117 0v1411h907v-90h-809v-561h696v-88h-696v-584h809v-88h-907zM336 1606q0 29 19.5 47t45.5 18q27 0 46.5 -18t19.5 -47q0 -27 -19.5 -46.5t-46.5 -19.5t-46 19.5t-19 46.5zM682 1606q0 29 18.5 47t44.5 18q29 0 47.5 -18t18.5 -47q0 -27 -18.5 -46.5t-47.5 -19.5 q-27 0 -45 19.5t-18 46.5z" />
<glyph unicode="&#xcc;" horiz-adv-x="442" d="M-63 1683l71 76l279 -221l-41 -45zM172 0v1411h98v-1411h-98z" />
<glyph unicode="&#xcd;" horiz-adv-x="442" d="M154 1538l278 221l72 -76l-309 -190zM172 0v1411h98v-1411h-98z" />
<glyph unicode="&#xce;" horiz-adv-x="442" d="M-80 1538l268 223h76l260 -221l-37 -43l-264 170l-266 -172zM172 0v1411h98v-1411h-98z" />
<glyph unicode="&#xcf;" horiz-adv-x="442" d="M-14 1608q0 27 19.5 46t43.5 19q29 0 48.5 -19t19.5 -46q0 -29 -19.5 -47.5t-48.5 -18.5q-25 0 -44 18.5t-19 47.5zM172 0v1411h98v-1411h-98zM330 1608q0 27 19.5 46t45.5 19q29 0 47.5 -19t18.5 -46q0 -29 -18.5 -47.5t-47.5 -18.5q-27 0 -46 18.5t-19 47.5z" />
<glyph unicode="&#xd0;" horiz-adv-x="1189" d="M12 700v78h103v633h522q104 0 189 -34t143.5 -95t90.5 -146t32 -188v-491q0 -102 -33 -186.5t-93.5 -143.5t-145.5 -93t-189 -34h-516v700h-103zM213 86h391q70 0 138.5 20.5t124 66.5t90 120t34.5 182v457q0 106 -32.5 180t-84 120t-117 67.5t-128.5 21.5h-416v-543h342 v-78h-342v-614z" />
<glyph unicode="&#xd1;" horiz-adv-x="1255" d="M115 0v1411h98l524 -790q76 -115 151 -228.5t152 -226.5v1245h99v-1411h-105q-129 195 -257 388.5t-259 389.5q-76 115 -150.5 230.5t-154.5 228.5v-1237h-98zM324 1579q39 63 87 97t101 34q33 0 67.5 -13.5t68.5 -29.5t65.5 -29.5t56.5 -13.5q33 0 58.5 19.5t56.5 64.5 l61 -35q-39 -72 -82 -102.5t-92 -30.5q-31 0 -63.5 12.5t-66.5 27.5t-66.5 28.5t-61.5 13.5q-39 0 -67.5 -19.5t-61.5 -60.5z" />
<glyph unicode="&#xd2;" horiz-adv-x="1202" d="M104 457v501q0 102 34 188.5t98.5 148t156.5 96t207 34.5q113 0 205 -34.5t156.5 -97t100.5 -148.5t36 -187v-507q0 -104 -36 -190.5t-100.5 -147t-156.5 -94t-205 -33.5q-115 0 -206 33.5t-155.5 96t-99.5 149.5t-35 192zM203 467q0 -104 34.5 -178t91 -122t128 -70.5 t143.5 -22.5q82 0 154.5 23.5t127 71.5t86 122t31.5 176v473q0 100 -32.5 175t-88 124t-127 72.5t-151.5 23.5q-82 0 -154.5 -23.5t-126 -72.5t-85 -124t-31.5 -175v-473zM338 1683l72 76l278 -221l-41 -45z" />
<glyph unicode="&#xd3;" horiz-adv-x="1202" d="M104 457v501q0 102 34 188.5t98.5 148t156.5 96t207 34.5q113 0 205 -34.5t156.5 -97t100.5 -148.5t36 -187v-507q0 -104 -36 -190.5t-100.5 -147t-156.5 -94t-205 -33.5q-115 0 -206 33.5t-155.5 96t-99.5 149.5t-35 192zM203 467q0 -104 34.5 -178t91 -122t128 -70.5 t143.5 -22.5q82 0 154.5 23.5t127 71.5t86 122t31.5 176v473q0 100 -32.5 175t-88 124t-127 72.5t-151.5 23.5q-82 0 -154.5 -23.5t-126 -72.5t-85 -124t-31.5 -175v-473zM514 1538l279 221l71 -76l-309 -190z" />
<glyph unicode="&#xd4;" horiz-adv-x="1202" d="M104 457v501q0 102 34 188.5t98.5 148t156.5 96t207 34.5q113 0 205 -34.5t156.5 -97t100.5 -148.5t36 -187v-507q0 -104 -36 -190.5t-100.5 -147t-156.5 -94t-205 -33.5q-115 0 -206 33.5t-155.5 96t-99.5 149.5t-35 192zM203 467q0 -104 34.5 -178t91 -122t128 -70.5 t143.5 -22.5q82 0 154.5 23.5t127 71.5t86 122t31.5 176v473q0 100 -32.5 175t-88 124t-127 72.5t-151.5 23.5q-82 0 -154.5 -23.5t-126 -72.5t-85 -124t-31.5 -175v-473zM301 1538l268 223h76l260 -221l-37 -43l-264 170l-266 -172z" />
<glyph unicode="&#xd5;" horiz-adv-x="1202" d="M104 457v501q0 102 34 188.5t98.5 148t156.5 96t207 34.5q113 0 205 -34.5t156.5 -97t100.5 -148.5t36 -187v-507q0 -104 -36 -190.5t-100.5 -147t-156.5 -94t-205 -33.5q-115 0 -206 33.5t-155.5 96t-99.5 149.5t-35 192zM203 467q0 -104 34.5 -178t91 -122t128 -70.5 t143.5 -22.5q82 0 154.5 23.5t127 71.5t86 122t31.5 176v473q0 100 -32.5 175t-88 124t-127 72.5t-151.5 23.5q-82 0 -154.5 -23.5t-126 -72.5t-85 -124t-31.5 -175v-473zM299 1563q39 63 87 97t101 34q33 0 68 -13.5t68.5 -30t65.5 -29.5t56 -13q33 0 58.5 19.5t56.5 64.5 l62 -35q-39 -72 -82 -102.5t-92 -30.5q-31 0 -64 12t-66.5 27.5t-66.5 29t-62 13.5q-39 0 -67.5 -19.5t-61.5 -60.5z" />
<glyph unicode="&#xd6;" horiz-adv-x="1202" d="M104 457v501q0 102 34 188.5t98.5 148t156.5 96t207 34.5q113 0 205 -34.5t156.5 -97t100.5 -148.5t36 -187v-507q0 -104 -36 -190.5t-100.5 -147t-156.5 -94t-205 -33.5q-115 0 -206 33.5t-155.5 96t-99.5 149.5t-35 192zM203 467q0 -104 34.5 -178t91 -122t128 -70.5 t143.5 -22.5q82 0 154.5 23.5t127 71.5t86 122t31.5 176v473q0 100 -32.5 175t-88 124t-127 72.5t-151.5 23.5q-82 0 -154.5 -23.5t-126 -72.5t-85 -124t-31.5 -175v-473zM371 1608q0 27 19.5 46t43.5 19q29 0 48.5 -19t19.5 -46q0 -29 -19.5 -47.5t-48.5 -18.5 q-25 0 -44 18.5t-19 47.5zM715 1608q0 27 19.5 46t45.5 19q29 0 47.5 -19t18.5 -46q0 -29 -18.5 -47.5t-47.5 -18.5q-27 0 -46 18.5t-19 47.5z" />
<glyph unicode="&#xd7;" horiz-adv-x="968" d="M104 229l330 330l-321 322l53 53l321 -322l326 326l51 -53l-325 -326l323 -323l-53 -54l-324 322l-327 -328z" />
<glyph unicode="&#xd8;" horiz-adv-x="1202" d="M102 20l95 142q-92 121 -93 295v501q0 102 34 188.5t98.5 148t156.5 96t207 34.5q111 0 201 -34.5t155 -94.5l88 129l56 -36l-96 -144q94 -119 94 -287v-507q0 -104 -36 -190.5t-100.5 -147t-156.5 -94t-205 -33.5t-202 32.5t-154 92.5l-86 -127zM203 467q0 -66 14 -120 t39 -95l647 962q-57 61 -136 91t-167 30q-82 0 -154.5 -23.5t-126 -72.5t-85 -124t-31.5 -175v-473zM299 195q59 -63 138 -92t163 -29q82 0 154.5 23.5t127 71.5t86 122t31.5 176v473q0 127 -55 217z" />
<glyph unicode="&#xd9;" horiz-adv-x="1208" d="M106 451v960h101v-944q0 -104 33.5 -178t89 -121t127 -69.5t147.5 -22.5q78 0 150.5 22.5t128 69.5t88.5 120.5t33 178.5v944h100v-962q0 -104 -37 -190.5t-103.5 -147t-158.5 -93t-201 -32.5q-111 0 -202 32.5t-156.5 94t-102.5 147.5t-37 191zM356 1683l72 76l279 -221 l-41 -45z" />
<glyph unicode="&#xda;" horiz-adv-x="1208" d="M106 451v960h101v-944q0 -104 33.5 -178t89 -121t127 -69.5t147.5 -22.5q78 0 150.5 22.5t128 69.5t88.5 120.5t33 178.5v944h100v-962q0 -104 -37 -190.5t-103.5 -147t-158.5 -93t-201 -32.5q-111 0 -202 32.5t-156.5 94t-102.5 147.5t-37 191zM498 1538l278 221l72 -76 l-309 -190z" />
<glyph unicode="&#xdb;" horiz-adv-x="1208" d="M106 451v960h101v-944q0 -104 33.5 -178t89 -121t127 -69.5t147.5 -22.5q78 0 150.5 22.5t128 69.5t88.5 120.5t33 178.5v944h100v-962q0 -104 -37 -190.5t-103.5 -147t-158.5 -93t-201 -32.5q-111 0 -202 32.5t-156.5 94t-102.5 147.5t-37 191zM301 1538l268 223h76 l260 -221l-37 -43l-264 170l-266 -172z" />
<glyph unicode="&#xdc;" horiz-adv-x="1208" d="M106 451v960h101v-944q0 -104 33.5 -178t89 -121t127 -69.5t147.5 -22.5q78 0 150.5 22.5t128 69.5t88.5 120.5t33 178.5v944h100v-962q0 -104 -37 -190.5t-103.5 -147t-158.5 -93t-201 -32.5q-111 0 -202 32.5t-156.5 94t-102.5 147.5t-37 191zM375 1608q0 27 19.5 46 t43.5 19q29 0 48.5 -19t19.5 -46q0 -29 -19.5 -47.5t-48.5 -18.5q-25 0 -44 18.5t-19 47.5zM719 1608q0 27 19.5 46t45.5 19q29 0 47.5 -19t18.5 -46q0 -29 -18.5 -47.5t-47.5 -18.5q-27 0 -46 18.5t-19 47.5z" />
<glyph unicode="&#xdd;" horiz-adv-x="1003" d="M25 1411h108l160 -332l153 -327q16 -29 29.5 -55.5t28.5 -55.5l207 442l157 328h105q-104 -221 -210 -439t-212 -437v-535h-98v530q-106 223 -213 440.5t-215 440.5zM369 1538l278 221l72 -76l-309 -190z" />
<glyph unicode="&#xde;" horiz-adv-x="1103" d="M113 0v1411h98v-276h455q98 0 171.5 -36t123 -93.5t73 -130t23.5 -146.5t-25.5 -144.5t-76 -128t-123 -92t-166.5 -34.5h-457v-330h-96zM209 420h438q63 0 119.5 20.5t98.5 60.5t66.5 97t24.5 131q0 72 -24.5 130.5t-66.5 99t-98 62t-120 21.5h-438v-622z" />
<glyph unicode="&#xdf;" horiz-adv-x="980" d="M102 0v1081q0 86 28 156t77 119t117.5 75.5t148.5 26.5q104 0 175 -32.5t113 -82t59.5 -108.5t17.5 -111q0 -29 -6.5 -66.5t-22.5 -76.5t-48 -75t-81 -60q61 -16 102 -53t65.5 -82t34 -95.5t9.5 -95.5v-182q0 -170 -93 -260t-255 -90h-40t-44 4v78h76q145 0 205.5 78.5 t60.5 213.5v158q0 129 -69.5 197.5t-199.5 68.5h-36v82h24q61 0 104.5 25t71 62.5t40 81.5t12.5 81q0 43 -14.5 89t-47.5 84t-85 62.5t-128 24.5q-78 0 -131 -28.5t-87 -72.5t-48 -97.5t-14 -102.5v-1077h-91z" />
<glyph unicode="&#xe0;" horiz-adv-x="954" d="M66 272q0 80 32.5 135.5t81.5 89t108.5 49t114.5 15.5h365v101q0 270 -285 270q-72 0 -147.5 -20.5t-153.5 -73.5l-49 73q86 57 172 81t184 24q104 0 175 -23.5t114 -68.5t61.5 -107.5t18.5 -140.5v-676h-74l-16 125h-2q-74 -47 -132.5 -73.5t-104.5 -41t-82.5 -18.5 t-65.5 -4q-141 0 -228 71.5t-87 212.5zM162 272q0 -53 18.5 -91t50 -62.5t73.5 -36.5t89 -12q45 0 93.5 13t97.5 33.5t96 46t88 50.5v268h-330q-41 0 -89 -6t-90 -27.5t-69.5 -63.5t-27.5 -112zM307 1454l99 39l161 -315l-57 -25z" />
<glyph unicode="&#xe1;" horiz-adv-x="954" d="M66 272q0 80 32.5 135.5t81.5 89t108.5 49t114.5 15.5h365v101q0 270 -285 270q-72 0 -147.5 -20.5t-153.5 -73.5l-49 73q86 57 172 81t184 24q104 0 175 -23.5t114 -68.5t61.5 -107.5t18.5 -140.5v-676h-74l-16 125h-2q-74 -47 -132.5 -73.5t-104.5 -41t-82.5 -18.5 t-65.5 -4q-141 0 -228 71.5t-87 212.5zM162 272q0 -53 18.5 -91t50 -62.5t73.5 -36.5t89 -12q45 0 93.5 13t97.5 33.5t96 46t88 50.5v268h-330q-41 0 -89 -6t-90 -27.5t-69.5 -63.5t-27.5 -112zM455 1178l159 315l101 -39l-205 -301z" />
<glyph unicode="&#xe2;" horiz-adv-x="954" d="M66 272q0 80 32.5 135.5t81.5 89t108.5 49t114.5 15.5h365v101q0 270 -285 270q-72 0 -147.5 -20.5t-153.5 -73.5l-49 73q86 57 172 81t184 24q104 0 175 -23.5t114 -68.5t61.5 -107.5t18.5 -140.5v-676h-74l-16 125h-2q-74 -47 -132.5 -73.5t-104.5 -41t-82.5 -18.5 t-65.5 -4q-141 0 -228 71.5t-87 212.5zM162 272q0 -53 18.5 -91t50 -62.5t73.5 -36.5t89 -12q45 0 93.5 13t97.5 33.5t96 46t88 50.5v268h-330q-41 0 -89 -6t-90 -27.5t-69.5 -63.5t-27.5 -112zM193 1182l270 254h76l258 -252l-43 -43l-258 198l-260 -200z" />
<glyph unicode="&#xe3;" horiz-adv-x="954" d="M66 272q0 80 32.5 135.5t81.5 89t108.5 49t114.5 15.5h365v101q0 270 -285 270q-72 0 -147.5 -20.5t-153.5 -73.5l-49 73q86 57 172 81t184 24q104 0 175 -23.5t114 -68.5t61.5 -107.5t18.5 -140.5v-676h-74l-16 125h-2q-74 -47 -132.5 -73.5t-104.5 -41t-82.5 -18.5 t-65.5 -4q-141 0 -228 71.5t-87 212.5zM162 272q0 -53 18.5 -91t50 -62.5t73.5 -36.5t89 -12q45 0 93.5 13t97.5 33.5t96 46t88 50.5v268h-330q-41 0 -89 -6t-90 -27.5t-69.5 -63.5t-27.5 -112zM193 1270q39 63 87 97t101 34q33 0 67.5 -13.5t68.5 -30t65.5 -29.5t56.5 -13 q33 0 58.5 19.5t56.5 64.5l61 -35q-39 -72 -82 -102.5t-92 -30.5q-31 0 -63.5 12t-66.5 27.5t-66.5 29t-61.5 13.5q-39 0 -67.5 -19.5t-61.5 -60.5z" />
<glyph unicode="&#xe4;" horiz-adv-x="954" d="M66 272q0 80 32.5 135.5t81.5 89t108.5 49t114.5 15.5h365v101q0 270 -285 270q-72 0 -147.5 -20.5t-153.5 -73.5l-49 73q86 57 172 81t184 24q104 0 175 -23.5t114 -68.5t61.5 -107.5t18.5 -140.5v-676h-74l-16 125h-2q-74 -47 -132.5 -73.5t-104.5 -41t-82.5 -18.5 t-65.5 -4q-141 0 -228 71.5t-87 212.5zM162 272q0 -53 18.5 -91t50 -62.5t73.5 -36.5t89 -12q45 0 93.5 13t97.5 33.5t96 46t88 50.5v268h-330q-41 0 -89 -6t-90 -27.5t-69.5 -63.5t-27.5 -112zM272 1331q0 29 19.5 47.5t44.5 18.5q29 0 48 -18.5t19 -47.5q0 -27 -19 -46 t-48 -19q-25 0 -44.5 19.5t-19.5 45.5zM616 1331q0 29 19.5 47.5t46.5 18.5q29 0 47.5 -18.5t18.5 -47.5q0 -27 -18.5 -46t-47.5 -19q-27 0 -46.5 19.5t-19.5 45.5z" />
<glyph unicode="&#xe5;" horiz-adv-x="954" d="M66 272q0 80 32.5 135.5t81.5 89t108.5 49t114.5 15.5h365v101q0 270 -285 270q-72 0 -147.5 -20.5t-153.5 -73.5l-49 73q86 57 172 81t184 24q104 0 175 -23.5t114 -68.5t61.5 -107.5t18.5 -140.5v-676h-74l-16 125h-2q-74 -47 -132.5 -73.5t-104.5 -41t-82.5 -18.5 t-65.5 -4q-141 0 -228 71.5t-87 212.5zM162 272q0 -53 18.5 -91t50 -62.5t73.5 -36.5t89 -12q45 0 93.5 13t97.5 33.5t96 46t88 50.5v268h-330q-41 0 -89 -6t-90 -27.5t-69.5 -63.5t-27.5 -112zM324 1317q0 39 15 72.5t41 59.5t59.5 40t72.5 14t74 -14t60.5 -40t39.5 -59.5 t14 -72.5t-14 -73t-39.5 -59.5t-60.5 -40t-74 -14.5q-78 0 -133 54.5t-55 132.5zM383 1317q0 -53 38 -91t91 -38q55 0 92 38t37 91t-37 91t-92 38q-53 0 -91 -38t-38 -91z" />
<glyph unicode="&#xe6;" horiz-adv-x="1622" d="M66 272q0 80 32.5 133.5t82.5 84t109.5 44t115.5 13.5h362v115q0 76 -20.5 128t-58.5 83.5t-91 45t-117 13.5q-72 0 -146.5 -20.5t-152.5 -73.5l-49 73q86 57 170 81t182 24q141 0 221 -48t115 -130q49 84 136 131t204 47q84 0 153.5 -25.5t121 -72t79 -114t27.5 -149.5 v-186h-682v-113q0 -80 26.5 -135t69.5 -89t98.5 -49t114.5 -15q84 0 152 27.5t121 78.5l57 -63q-66 -63 -148.5 -93t-185.5 -30q-113 0 -202 41t-148 129q-86 -59 -153.5 -93t-120 -50.5t-91 -21.5t-69.5 -5q-141 0 -228 71.5t-87 212.5zM162 272q0 -53 18.5 -91t50 -62.5 t74.5 -36.5t90 -12q43 0 94.5 14t103.5 35.5t100 49.5t89 52q-6 29 -10 66t-4 78v104h-332q-41 0 -88 -4t-89 -23.5t-69.5 -59.5t-27.5 -110zM860 547h588v82q0 82 -24.5 140t-65.5 95t-92.5 53.5t-104.5 16.5q-55 0 -109.5 -17.5t-96.5 -55.5t-68.5 -96t-26.5 -138v-80z " />
<glyph unicode="&#xe7;" horiz-adv-x="839" d="M100 354v303q0 82 29 148.5t81 114t122.5 74t156.5 26.5q78 0 161 -21.5t145 -74.5l-58 -74q-59 47 -123.5 65.5t-115.5 18.5q-57 0 -111.5 -16.5t-97.5 -52.5t-68.5 -93t-25.5 -139v-256q0 -80 25.5 -137.5t68.5 -94t97 -53t110 -16.5q49 0 120.5 17.5t120.5 56.5 l56 -70q-63 -47 -141.5 -67.5t-155.5 -22.5q-6 -20 -13.5 -39t-13.5 -41q55 0 92 -16.5t59.5 -40t32 -50t9.5 -49.5t-10.5 -48t-34 -48t-61.5 -37t-93 -14q-23 0 -60.5 5t-89.5 21l21 54q35 -10 67.5 -15.5t59.5 -5.5q43 0 85 18.5t42 71.5q0 27 -13.5 46.5t-35 30.5 t-48 15.5t-53.5 -0.5l-41 21l39 123q-78 8 -140.5 37.5t-105.5 77t-66.5 111t-23.5 136.5z" />
<glyph unicode="&#xe8;" horiz-adv-x="954" d="M100 354v285q0 86 29 155.5t81 120t125 77t159 26.5q84 0 153.5 -27.5t120.5 -77t78.5 -119t27.5 -151.5v-178h-681v-94q0 -84 26.5 -141.5t69.5 -93.5t98 -52t115 -16q84 0 151.5 28.5t120.5 79.5l57 -65q-63 -63 -147 -93t-186 -30q-86 0 -159 23.5t-126 69.5 t-83 114.5t-30 158.5zM193 545h589v86q0 82 -25.5 139t-66.5 94t-92 53.5t-104 16.5q-55 0 -109.5 -17.5t-96.5 -54.5t-68.5 -95t-26.5 -138v-84zM301 1454l98 39l162 -315l-57 -25z" />
<glyph unicode="&#xe9;" horiz-adv-x="954" d="M100 354v285q0 86 29 155.5t81 120t125 77t159 26.5q84 0 153.5 -27.5t120.5 -77t78.5 -119t27.5 -151.5v-178h-681v-94q0 -84 26.5 -141.5t69.5 -93.5t98 -52t115 -16q84 0 151.5 28.5t120.5 79.5l57 -65q-63 -63 -147 -93t-186 -30q-86 0 -159 23.5t-126 69.5 t-83 114.5t-30 158.5zM193 545h589v86q0 82 -25.5 139t-66.5 94t-92 53.5t-104 16.5q-55 0 -109.5 -17.5t-96.5 -54.5t-68.5 -95t-26.5 -138v-84zM426 1178l160 315l100 -39l-205 -301z" />
<glyph unicode="&#xea;" horiz-adv-x="954" d="M100 354v285q0 86 29 155.5t81 120t125 77t159 26.5q84 0 153.5 -27.5t120.5 -77t78.5 -119t27.5 -151.5v-178h-681v-94q0 -84 26.5 -141.5t69.5 -93.5t98 -52t115 -16q84 0 151.5 28.5t120.5 79.5l57 -65q-63 -63 -147 -93t-186 -30q-86 0 -159 23.5t-126 69.5 t-83 114.5t-30 158.5zM178 1182l271 254h75l258 -252l-43 -43l-258 198l-260 -200zM193 545h589v86q0 82 -25.5 139t-66.5 94t-92 53.5t-104 16.5q-55 0 -109.5 -17.5t-96.5 -54.5t-68.5 -95t-26.5 -138v-84z" />
<glyph unicode="&#xeb;" horiz-adv-x="954" d="M100 354v285q0 86 29 155.5t81 120t125 77t159 26.5q84 0 153.5 -27.5t120.5 -77t78.5 -119t27.5 -151.5v-178h-681v-94q0 -84 26.5 -141.5t69.5 -93.5t98 -52t115 -16q84 0 151.5 28.5t120.5 79.5l57 -65q-63 -63 -147 -93t-186 -30q-86 0 -159 23.5t-126 69.5 t-83 114.5t-30 158.5zM193 545h589v86q0 82 -25.5 139t-66.5 94t-92 53.5t-104 16.5q-55 0 -109.5 -17.5t-96.5 -54.5t-68.5 -95t-26.5 -138v-84zM262 1331q0 29 19.5 47.5t44.5 18.5q29 0 48 -18.5t19 -47.5q0 -27 -19.5 -46t-47.5 -19q-25 0 -44.5 19.5t-19.5 45.5z M606 1331q0 29 19.5 47.5t46.5 18.5q29 0 47 -18.5t18 -47.5q0 -27 -18.5 -46t-46.5 -19q-27 0 -46.5 19.5t-19.5 45.5z" />
<glyph unicode="&#xec;" horiz-adv-x="419" d="M-16 1454l98 39l162 -315l-58 -25zM164 0v1006h90v-1006h-90z" />
<glyph unicode="&#xed;" horiz-adv-x="419" d="M162 1178l160 315l100 -39l-205 -301zM164 0v1006h90v-1006h-90z" />
<glyph unicode="&#xee;" horiz-adv-x="563" d="M-20 1182l270 254h76l258 -252l-43 -43l-258 198l-260 -200zM238 0v1006h90v-1006h-90z" />
<glyph unicode="&#xef;" horiz-adv-x="434" d="M-20 1331q0 29 19 47.5t44 18.5q29 0 48.5 -18.5t19.5 -47.5q0 -27 -19.5 -46t-48.5 -19q-25 0 -44 19.5t-19 45.5zM172 0v1006h90v-1006h-90zM324 1331q0 29 19 47.5t46 18.5q29 0 47.5 -18.5t18.5 -47.5q0 -27 -18.5 -46t-47.5 -19q-27 0 -46 19.5t-19 45.5z" />
<glyph unicode="&#xf0;" horiz-adv-x="980" d="M125 350v252q0 82 29.5 150.5t82 118t125 77t158.5 27.5q96 0 179 -36t130 -112q-4 111 -16 210.5t-53 162.5q-41 -29 -80 -56.5t-80 -56.5l-35 52l158 112q-47 68 -122 106t-193 50q4 20 7 40.5t7 39.5q131 -10 225 -58.5t150 -125.5l157 112l37 -53l-157 -111 q59 -106 71.5 -239t12.5 -301v-346q0 -172 -103.5 -274.5t-296.5 -102.5q-88 0 -160.5 25.5t-124 73.5t-80 114.5t-28.5 148.5zM217 373q0 -82 24.5 -139.5t67.5 -94.5t98.5 -53t116.5 -16t116.5 17t97.5 54t65.5 94.5t23.5 137.5v215q0 82 -25.5 139t-67.5 93t-96 52.5 t-112 16.5q-59 0 -114.5 -16.5t-98.5 -53.5t-69.5 -95t-26.5 -140v-211z" />
<glyph unicode="&#xf1;" horiz-adv-x="983" d="M98 0v1006h76l16 -140q72 43 128.5 73t101.5 47.5t82.5 24.5t72.5 7q150 0 232 -85t82 -259v-674h-92v651q0 150 -62.5 214.5t-177.5 62.5q-74 0 -170 -44t-197 -112v-772h-92zM156 1270q39 63 87 97t101 34q33 0 67.5 -13.5t68.5 -30t66 -29.5t56 -13q33 0 58.5 19.5 t56.5 64.5l61 -35q-39 -72 -82 -102.5t-92 -30.5q-31 0 -63.5 12t-66.5 27.5t-66.5 29t-61.5 13.5q-39 0 -67.5 -19.5t-61.5 -60.5z" />
<glyph unicode="&#xf2;" horiz-adv-x="980" d="M94 352v307q0 82 32 148.5t86 113t126 72t154 25.5q84 0 156.5 -25.5t125.5 -72t83 -113t30 -148.5v-305q0 -172 -108.5 -269t-289.5 -97q-88 0 -160.5 25.5t-124.5 73.5t-81 114.5t-29 150.5zM186 375q0 -84 26 -141.5t68 -93.5t97 -52t117 -16q61 0 115.5 17t96.5 54 t66.5 94.5t24.5 137.5v256q0 82 -28 139t-71 93t-97 52.5t-107 16.5q-55 0 -110.5 -16.5t-98.5 -52.5t-71 -93t-28 -139v-256zM309 1454l99 39l161 -315l-57 -25z" />
<glyph unicode="&#xf3;" horiz-adv-x="980" d="M94 352v307q0 82 32 148.5t86 113t126 72t154 25.5q84 0 156.5 -25.5t125.5 -72t83 -113t30 -148.5v-305q0 -172 -108.5 -269t-289.5 -97q-88 0 -160.5 25.5t-124.5 73.5t-81 114.5t-29 150.5zM186 375q0 -84 26 -141.5t68 -93.5t97 -52t117 -16q61 0 115.5 17t96.5 54 t66.5 94.5t24.5 137.5v256q0 82 -28 139t-71 93t-97 52.5t-107 16.5q-55 0 -110.5 -16.5t-98.5 -52.5t-71 -93t-28 -139v-256zM428 1178l160 315l100 -39l-205 -301z" />
<glyph unicode="&#xf4;" horiz-adv-x="980" d="M94 352v307q0 82 32 148.5t86 113t126 72t154 25.5q84 0 156.5 -25.5t125.5 -72t83 -113t30 -148.5v-305q0 -172 -108.5 -269t-289.5 -97q-88 0 -160.5 25.5t-124.5 73.5t-81 114.5t-29 150.5zM186 375q0 -84 26 -141.5t68 -93.5t97 -52t117 -16q61 0 115.5 17t96.5 54 t66.5 94.5t24.5 137.5v256q0 82 -28 139t-71 93t-97 52.5t-107 16.5q-55 0 -110.5 -16.5t-98.5 -52.5t-71 -93t-28 -139v-256zM195 1182l270 254h76l258 -252l-43 -43l-258 198l-260 -200z" />
<glyph unicode="&#xf5;" horiz-adv-x="980" d="M94 352v307q0 82 32 148.5t86 113t126 72t154 25.5q84 0 156.5 -25.5t125.5 -72t83 -113t30 -148.5v-305q0 -172 -108.5 -269t-289.5 -97q-88 0 -160.5 25.5t-124.5 73.5t-81 114.5t-29 150.5zM186 375q0 -84 26 -141.5t68 -93.5t97 -52t117 -16q61 0 115.5 17t96.5 54 t66.5 94.5t24.5 137.5v256q0 82 -28 139t-71 93t-97 52.5t-107 16.5q-55 0 -110.5 -16.5t-98.5 -52.5t-71 -93t-28 -139v-256zM190 1270q39 63 87.5 97t101.5 34q33 0 67.5 -13.5t68.5 -30t65.5 -29.5t56.5 -13q33 0 58.5 19.5t56.5 64.5l61 -35q-39 -72 -82 -102.5 t-92 -30.5q-31 0 -63.5 12t-66.5 27.5t-66.5 29t-61.5 13.5q-39 0 -67.5 -19.5t-61.5 -60.5z" />
<glyph unicode="&#xf6;" horiz-adv-x="980" d="M94 352v307q0 82 32 148.5t86 113t126 72t154 25.5q84 0 156.5 -25.5t125.5 -72t83 -113t30 -148.5v-305q0 -172 -108.5 -269t-289.5 -97q-88 0 -160.5 25.5t-124.5 73.5t-81 114.5t-29 150.5zM186 375q0 -84 26 -141.5t68 -93.5t97 -52t117 -16q61 0 115.5 17t96.5 54 t66.5 94.5t24.5 137.5v256q0 82 -28 139t-71 93t-97 52.5t-107 16.5q-55 0 -110.5 -16.5t-98.5 -52.5t-71 -93t-28 -139v-256zM256 1331q0 29 19.5 47.5t43.5 18.5q29 0 48.5 -18.5t19.5 -47.5q0 -27 -19.5 -46t-48.5 -19q-25 0 -44 19.5t-19 45.5zM600 1331q0 29 19.5 47.5 t46.5 18.5q29 0 47 -18.5t18 -47.5q0 -27 -18.5 -46t-46.5 -19q-27 0 -46.5 19.5t-19.5 45.5z" />
<glyph unicode="&#xf7;" horiz-adv-x="968" d="M57 535v75h852v-75h-852zM410 225q0 35 24.5 55.5t57.5 20.5q29 0 52 -20.5t23 -55.5q0 -33 -22.5 -55.5t-55.5 -22.5q-35 0 -57 23t-22 55zM410 918q0 35 23.5 55t55.5 20q31 0 54.5 -20t23.5 -55q0 -33 -22.5 -56.5t-55.5 -23.5q-35 0 -57 23.5t-22 56.5z" />
<glyph unicode="&#xf8;" horiz-adv-x="980" d="M94 23l76 100q-76 92 -76 229v307q0 82 32 148.5t86 113t126 72t154 25.5q84 0 153.5 -24.5t122.5 -69.5l70 92l49 -35l-76 -100q35 -45 55.5 -100.5t20.5 -121.5v-305q0 -172 -108.5 -269t-289.5 -97q-86 0 -155.5 23.5t-120.5 66.5l-70 -92zM186 375q0 -104 41 -174 l486 649q-45 43 -102.5 62.5t-116.5 19.5q-55 0 -110.5 -16.5t-98.5 -52.5t-71 -93t-28 -139v-256zM266 152q43 -43 102.5 -61.5t125.5 -18.5q61 0 115.5 17t96.5 54t66.5 94.5t24.5 137.5v256q0 102 -45 170z" />
<glyph unicode="&#xf9;" horiz-adv-x="987" d="M94 332v674h92v-652q0 -150 63.5 -214t176.5 -64q74 0 170 44t197 116v770h94v-1006h-78l-16 139q-70 -43 -124.5 -71.5t-98.5 -47t-80.5 -25.5t-71.5 -7q-156 0 -240 85t-84 259zM307 1454l99 39l161 -315l-57 -25z" />
<glyph unicode="&#xfa;" horiz-adv-x="987" d="M94 332v674h92v-652q0 -150 63.5 -214t176.5 -64q74 0 170 44t197 116v770h94v-1006h-78l-16 139q-70 -43 -124.5 -71.5t-98.5 -47t-80.5 -25.5t-71.5 -7q-156 0 -240 85t-84 259zM446 1178l160 315l101 -39l-205 -301z" />
<glyph unicode="&#xfb;" horiz-adv-x="987" d="M94 332v674h92v-652q0 -150 63.5 -214t176.5 -64q74 0 170 44t197 116v770h94v-1006h-78l-16 139q-70 -43 -124.5 -71.5t-98.5 -47t-80.5 -25.5t-71.5 -7q-156 0 -240 85t-84 259zM193 1182l270 254h76l258 -252l-43 -43l-258 198l-260 -200z" />
<glyph unicode="&#xfc;" horiz-adv-x="987" d="M94 332v674h92v-652q0 -150 63.5 -214t176.5 -64q74 0 170 44t197 116v770h94v-1006h-78l-16 139q-70 -43 -124.5 -71.5t-98.5 -47t-80.5 -25.5t-71.5 -7q-156 0 -240 85t-84 259zM254 1331q0 29 19.5 47.5t43.5 18.5q29 0 48.5 -18.5t19.5 -47.5q0 -27 -19.5 -46 t-48.5 -19q-25 0 -44 19.5t-19 45.5zM598 1331q0 29 19.5 47.5t46.5 18.5q29 0 47 -18.5t18 -47.5q0 -27 -18.5 -46t-46.5 -19q-27 0 -46.5 19.5t-19.5 45.5z" />
<glyph unicode="&#xfd;" horiz-adv-x="876" d="M14 1004h97q41 -117 77.5 -234t77.5 -235l154 -455h2l166 455q43 119 86 235.5t84 233.5h96q-129 -356 -259 -705.5t-259 -704.5h-98l147 410l-57 59zM367 1178l159 315l101 -39l-205 -301z" />
<glyph unicode="&#xfe;" horiz-adv-x="978" d="M100 -416v1827h90v-541q143 92 233.5 120t147.5 28q147 0 232.5 -84t85.5 -258v-340q0 -170 -93.5 -260t-258.5 -90q-61 0 -142.5 16t-204.5 78v-496h-90zM190 174q113 -57 193 -79.5t145 -22.5q135 0 203 68.5t68 215.5v297q0 150 -61.5 213.5t-170.5 63.5 q-70 0 -172 -43t-205 -113v-600z" />
<glyph unicode="&#xff;" horiz-adv-x="876" d="M14 1004h97q41 -117 77.5 -234t77.5 -235l154 -455h2l166 455q43 119 86 235.5t84 233.5h96q-129 -356 -259 -705.5t-259 -704.5h-98l147 410l-57 59zM197 1331q0 29 19.5 47.5t43.5 18.5q29 0 48.5 -18.5t19.5 -47.5q0 -27 -19.5 -46t-48.5 -19q-25 0 -44 19.5t-19 45.5 zM541 1331q0 29 19.5 47.5t45.5 18.5q29 0 47.5 -18.5t18.5 -47.5q0 -27 -18.5 -46t-47.5 -19q-27 0 -46 19.5t-19 45.5z" />
<glyph unicode="&#x100;" horiz-adv-x="1163" d="M41 0l487 1411h111l491 -1411h-104q-29 86 -59.5 170t-61.5 170h-645q-29 -86 -57.5 -170t-57.5 -170h-104zM293 430h581q-8 25 -29.5 91.5t-51 153.5t-63.5 185t-63.5 186.5t-52 154t-30.5 89.5h-2q-8 -25 -30 -91t-51.5 -153.5t-62 -185.5t-62.5 -185t-52.5 -153.5 t-30.5 -91.5zM324 1575v84h522v-84h-522z" />
<glyph unicode="&#x101;" horiz-adv-x="954" d="M66 272q0 80 32.5 135.5t81.5 89t108.5 49t114.5 15.5h365v101q0 270 -285 270q-72 0 -147.5 -20.5t-153.5 -73.5l-49 73q86 57 172 81t184 24q104 0 175 -23.5t114 -68.5t61.5 -107.5t18.5 -140.5v-676h-74l-16 125h-2q-74 -47 -132.5 -73.5t-104.5 -41t-82.5 -18.5 t-65.5 -4q-141 0 -228 71.5t-87 212.5zM162 272q0 -53 18.5 -91t50 -62.5t73.5 -36.5t89 -12q45 0 93.5 13t97.5 33.5t96 46t88 50.5v268h-330q-41 0 -89 -6t-90 -27.5t-69.5 -63.5t-27.5 -112zM238 1214v84h522v-84h-522z" />
<glyph unicode="&#x102;" horiz-adv-x="1163" d="M41 0l487 1411h111l491 -1411h-104q-29 86 -59.5 170t-61.5 170h-645q-29 -86 -57.5 -170t-57.5 -170h-104zM293 430h581q-8 25 -29.5 91.5t-51 153.5t-63.5 185t-63.5 186.5t-52 154t-30.5 89.5h-2q-8 -25 -30 -91t-51.5 -153.5t-62 -185.5t-62.5 -185t-52.5 -153.5 t-30.5 -91.5zM326 1720h80q10 -59 60 -104t122 -45q76 0 124 45t56 104h80q-6 -39 -22.5 -78.5t-47 -72.5t-78 -53.5t-112.5 -20.5q-66 0 -113 20.5t-80 53.5t-49 72.5t-20 78.5z" />
<glyph unicode="&#x103;" horiz-adv-x="954" d="M66 272q0 80 32.5 135.5t81.5 89t108.5 49t114.5 15.5h365v101q0 270 -285 270q-72 0 -147.5 -20.5t-153.5 -73.5l-49 73q86 57 172 81t184 24q104 0 175 -23.5t114 -68.5t61.5 -107.5t18.5 -140.5v-676h-74l-16 125h-2q-74 -47 -132.5 -73.5t-104.5 -41t-82.5 -18.5 t-65.5 -4q-141 0 -228 71.5t-87 212.5zM162 272q0 -53 18.5 -91t50 -62.5t73.5 -36.5t89 -12q45 0 93.5 13t97.5 33.5t96 46t88 50.5v268h-330q-41 0 -89 -6t-90 -27.5t-69.5 -63.5t-27.5 -112zM246 1380h80q12 -68 64 -108.5t118 -40.5q68 0 116 36t64 113h80 q-6 -39 -23.5 -78.5t-48 -72.5t-78 -53.5t-110.5 -20.5q-66 0 -113 20.5t-79.5 53.5t-49 72.5t-20.5 78.5z" />
<glyph unicode="&#x104;" horiz-adv-x="1163" d="M41 0l487 1411h111l491 -1411h-38q-37 -45 -53.5 -93t-16.5 -83q0 -55 30.5 -81t80.5 -26q53 0 118 33l27 -61q-31 -16 -73 -29.5t-89 -13.5q-82 0 -128 49t-46 115q0 41 18.5 91t65.5 99q-29 86 -59.5 170t-61.5 170h-645q-29 -86 -57.5 -170t-57.5 -170h-104zM293 430 h581q-8 25 -29.5 91.5t-51 153.5t-63.5 185t-63.5 186.5t-52 154t-30.5 89.5h-2q-8 -25 -30 -91t-51.5 -153.5t-62 -185.5t-62.5 -185t-52.5 -153.5t-30.5 -91.5z" />
<glyph unicode="&#x105;" horiz-adv-x="954" d="M66 272q0 80 32.5 135.5t81.5 89t108.5 49t114.5 15.5h365v101q0 270 -285 270q-72 0 -147.5 -20.5t-153.5 -73.5l-49 73q86 57 172 81t184 24q104 0 175 -23.5t114 -68.5t61.5 -107.5t18.5 -140.5v-676h-10q-37 -45 -53.5 -93t-16.5 -83q0 -55 31 -81t80 -26 q53 0 119 33l26 -61q-31 -16 -72.5 -29.5t-89.5 -13.5q-82 0 -128 49t-46 115q0 41 19.5 91t66.5 101l-16 123h-2q-74 -47 -132.5 -73.5t-104.5 -41t-82.5 -18.5t-65.5 -4q-141 0 -228 71.5t-87 212.5zM162 272q0 -53 18.5 -91t50 -62.5t73.5 -36.5t89 -12q45 0 93.5 13 t97.5 33.5t96 46t88 50.5v268h-330q-41 0 -89 -6t-90 -27.5t-69.5 -63.5t-27.5 -112z" />
<glyph unicode="&#x106;" horiz-adv-x="1028" d="M104 459v499q0 102 36 188.5t101.5 148t156.5 96t202 34.5q106 0 195.5 -24.5t169.5 -79.5l-54 -80q-66 47 -145.5 70.5t-165.5 23.5q-74 0 -145.5 -22.5t-128 -70.5t-90 -123t-33.5 -179v-465q0 -104 34.5 -180t90 -125t125 -72.5t141.5 -23.5q180 0 321 100l52 -76 q-55 -41 -149.5 -76.5t-217.5 -35.5q-113 0 -205 34.5t-156.5 98t-99.5 149.5t-35 191zM471 1538l279 221l71 -76l-309 -190z" />
<glyph unicode="&#x107;" horiz-adv-x="839" d="M100 354v303q0 82 29 148.5t81 114t122.5 74t156.5 26.5q78 0 161 -21.5t145 -74.5l-58 -74q-59 47 -123.5 65.5t-115.5 18.5q-57 0 -111.5 -16.5t-97.5 -52.5t-68.5 -93t-25.5 -139v-256q0 -80 25.5 -137.5t68.5 -94t97 -53t110 -16.5q49 0 120.5 17.5t120.5 56.5 l56 -70q-63 -47 -143.5 -68.5t-157.5 -21.5q-90 0 -163 26.5t-124 75.5t-78 115.5t-27 146.5zM422 1178l160 315l100 -39l-205 -301z" />
<glyph unicode="&#x108;" horiz-adv-x="1028" d="M104 459v499q0 102 36 188.5t101.5 148t156.5 96t202 34.5q106 0 195.5 -24.5t169.5 -79.5l-54 -80q-66 47 -145.5 70.5t-165.5 23.5q-74 0 -145.5 -22.5t-128 -70.5t-90 -123t-33.5 -179v-465q0 -104 34.5 -180t90 -125t125 -72.5t141.5 -23.5q180 0 321 100l52 -76 q-55 -41 -149.5 -76.5t-217.5 -35.5q-113 0 -205 34.5t-156.5 98t-99.5 149.5t-35 191zM295 1538l268 223h76l260 -221l-37 -43l-264 170l-266 -172z" />
<glyph unicode="&#x109;" horiz-adv-x="839" d="M100 354v303q0 82 29 148.5t81 114t122.5 74t156.5 26.5q78 0 161 -21.5t145 -74.5l-58 -74q-59 47 -123.5 65.5t-115.5 18.5q-57 0 -111.5 -16.5t-97.5 -52.5t-68.5 -93t-25.5 -139v-256q0 -80 25.5 -137.5t68.5 -94t97 -53t110 -16.5q49 0 120.5 17.5t120.5 56.5 l56 -70q-63 -47 -143.5 -68.5t-157.5 -21.5q-90 0 -163 26.5t-124 75.5t-78 115.5t-27 146.5zM176 1182l270 254h76l258 -252l-43 -43l-258 198l-260 -200z" />
<glyph unicode="&#x10a;" horiz-adv-x="1028" d="M104 459v499q0 102 36 188.5t101.5 148t156.5 96t202 34.5q106 0 195.5 -24.5t169.5 -79.5l-54 -80q-66 47 -145.5 70.5t-165.5 23.5q-74 0 -145.5 -22.5t-128 -70.5t-90 -123t-33.5 -179v-465q0 -104 34.5 -180t90 -125t125 -72.5t141.5 -23.5q180 0 321 100l52 -76 q-55 -41 -149.5 -76.5t-217.5 -35.5q-113 0 -205 34.5t-156.5 98t-99.5 149.5t-35 191zM506 1653q0 27 19.5 47t47.5 20q33 0 52.5 -20.5t19.5 -46.5q0 -29 -19.5 -50.5t-52.5 -21.5q-29 0 -48 20.5t-19 51.5z" />
<glyph unicode="&#x10b;" horiz-adv-x="839" d="M100 354v303q0 82 29 148.5t81 114t122.5 74t156.5 26.5q78 0 161 -21.5t145 -74.5l-58 -74q-59 47 -123.5 65.5t-115.5 18.5q-57 0 -111.5 -16.5t-97.5 -52.5t-68.5 -93t-25.5 -139v-256q0 -80 25.5 -137.5t68.5 -94t97 -53t110 -16.5q49 0 120.5 17.5t120.5 56.5 l56 -70q-63 -47 -143.5 -68.5t-157.5 -21.5q-90 0 -163 26.5t-124 75.5t-78 115.5t-27 146.5zM395 1305q0 27 19.5 47t48.5 20q33 0 52.5 -20.5t19.5 -46.5q0 -29 -19.5 -50.5t-52.5 -21.5q-29 0 -48.5 20.5t-19.5 51.5z" />
<glyph unicode="&#x10c;" horiz-adv-x="1028" d="M104 459v499q0 102 36 188.5t101.5 148t156.5 96t202 34.5q106 0 195.5 -24.5t169.5 -79.5l-54 -80q-66 47 -145.5 70.5t-165.5 23.5q-74 0 -145.5 -22.5t-128 -70.5t-90 -123t-33.5 -179v-465q0 -104 34.5 -180t90 -125t125 -72.5t141.5 -23.5q180 0 321 100l52 -76 q-55 -41 -149.5 -76.5t-217.5 -35.5q-113 0 -205 34.5t-156.5 98t-99.5 149.5t-35 191zM279 1722l34 43l267 -172l264 170l37 -43l-258 -223h-76z" />
<glyph unicode="&#x10d;" horiz-adv-x="839" d="M100 354v303q0 82 29 148.5t81 114t122.5 74t156.5 26.5q78 0 161 -21.5t145 -74.5l-58 -74q-59 47 -123.5 65.5t-115.5 18.5q-57 0 -111.5 -16.5t-97.5 -52.5t-68.5 -93t-25.5 -139v-256q0 -80 25.5 -137.5t68.5 -94t97 -53t110 -16.5q49 0 120.5 17.5t120.5 56.5 l56 -70q-63 -47 -143.5 -68.5t-157.5 -21.5q-90 0 -163 26.5t-124 75.5t-78 115.5t-27 146.5zM176 1395l43 43l260 -199l258 197l43 -41l-258 -254h-76z" />
<glyph unicode="&#x10e;" horiz-adv-x="1189" d="M115 0v1411h522q104 0 189 -34t143.5 -95t90.5 -146t32 -188v-491q0 -102 -33 -186.5t-93.5 -143.5t-145.5 -93t-189 -34h-516zM213 86h391q70 0 138.5 20.5t124 66.5t90 120t34.5 182v457q0 106 -32.5 180t-84 120t-117 67.5t-128.5 21.5h-416v-1235zM252 1722l35 43 l266 -172l264 170l37 -43l-258 -223h-76z" />
<glyph unicode="&#x10f;" horiz-adv-x="1181" d="M94 330v338q0 170 95.5 260t256.5 90q61 0 142.5 -16.5t204.5 -75.5v538h90v-1462h-74l-16 131q-74 -47 -131.5 -74.5t-103.5 -44t-82 -21.5t-64 -5q-147 0 -232.5 83t-85.5 259zM184 350q0 -150 60.5 -213t171.5 -63q70 0 172 42t205 113v600q-109 53 -191 78t-147 25 q-270 0 -271 -287v-295zM1006 1405q0 35 23.5 55.5t57.5 20.5q43 0 68 -31t25 -80q0 -70 -41 -135.5t-101 -95.5l-30 41q76 61 79 149q-35 -2 -58 19.5t-23 56.5z" />
<glyph unicode="&#x110;" horiz-adv-x="1189" d="M12 700v78h103v633h522q104 0 189 -34t143.5 -95t90.5 -146t32 -188v-491q0 -102 -33 -186.5t-93.5 -143.5t-145.5 -93t-189 -34h-516v700h-103zM213 86h391q70 0 138.5 20.5t124 66.5t90 120t34.5 182v457q0 106 -32.5 180t-84 120t-117 67.5t-128.5 21.5h-416v-543h342 v-78h-342v-614z" />
<glyph unicode="&#x111;" horiz-adv-x="983" d="M94 330v338q0 170 95.5 260t256.5 90q61 0 142.5 -16.5t204.5 -75.5v260h-377v76h377v202h90v-202h98v-76h-98v-1184h-74l-16 131q-74 -47 -131.5 -74.5t-103.5 -44t-82 -21.5t-64 -5q-147 0 -232.5 83t-85.5 259zM184 350q0 -150 60.5 -213t171.5 -63q70 0 172 42 t205 113v600q-109 53 -191 78t-147 25q-270 0 -271 -287v-295z" />
<glyph unicode="&#x112;" horiz-adv-x="1089" d="M117 0v1411h907v-90h-809v-561h696v-88h-696v-584h809v-88h-907zM328 1575v84h522v-84h-522z" />
<glyph unicode="&#x113;" horiz-adv-x="954" d="M100 354v285q0 86 29 155.5t81 120t125 77t159 26.5q84 0 153.5 -27.5t120.5 -77t78.5 -119t27.5 -151.5v-178h-681v-94q0 -84 26.5 -141.5t69.5 -93.5t98 -52t115 -16q84 0 151.5 28.5t120.5 79.5l57 -65q-63 -63 -147 -93t-186 -30q-86 0 -159 23.5t-126 69.5 t-83 114.5t-30 158.5zM193 545h589v86q0 82 -25.5 139t-66.5 94t-92 53.5t-104 16.5q-55 0 -109.5 -17.5t-96.5 -54.5t-68.5 -95t-26.5 -138v-84zM240 1214v84h522v-84h-522z" />
<glyph unicode="&#x114;" horiz-adv-x="1089" d="M117 0v1411h907v-90h-809v-561h696v-88h-696v-584h809v-88h-907zM326 1720h80q10 -59 60 -104t122 -45q76 0 124 45t56 104h80q-6 -39 -22.5 -78.5t-47 -72.5t-78 -53.5t-112.5 -20.5q-66 0 -113 20.5t-80 53.5t-49 72.5t-20 78.5z" />
<glyph unicode="&#x115;" horiz-adv-x="954" d="M100 354v285q0 86 29 155.5t81 120t125 77t159 26.5q84 0 153.5 -27.5t120.5 -77t78.5 -119t27.5 -151.5v-178h-681v-94q0 -84 26.5 -141.5t69.5 -93.5t98 -52t115 -16q84 0 151.5 28.5t120.5 79.5l57 -65q-63 -63 -147 -93t-186 -30q-86 0 -159 23.5t-126 69.5 t-83 114.5t-30 158.5zM193 545h589v86q0 82 -25.5 139t-66.5 94t-92 53.5t-104 16.5q-55 0 -109.5 -17.5t-96.5 -54.5t-68.5 -95t-26.5 -138v-84zM231 1380h80q12 -68 64.5 -108.5t118.5 -40.5q68 0 115.5 36t64.5 113h80q-6 -39 -23.5 -78.5t-48.5 -72.5t-78 -53.5 t-110 -20.5q-66 0 -113 20.5t-80 53.5t-49 72.5t-21 78.5z" />
<glyph unicode="&#x116;" horiz-adv-x="1089" d="M117 0v1411h907v-90h-809v-561h696v-88h-696v-584h809v-88h-907zM502 1653q0 27 19.5 47t47.5 20q33 0 52.5 -20.5t19.5 -46.5q0 -29 -19.5 -50.5t-52.5 -21.5q-29 0 -48 20.5t-19 51.5z" />
<glyph unicode="&#x117;" horiz-adv-x="954" d="M100 354v285q0 86 29 155.5t81 120t125 77t159 26.5q84 0 153.5 -27.5t120.5 -77t78.5 -119t27.5 -151.5v-178h-681v-94q0 -84 26.5 -141.5t69.5 -93.5t98 -52t115 -16q84 0 151.5 28.5t120.5 79.5l57 -65q-63 -63 -147 -93t-186 -30q-86 0 -159 23.5t-126 69.5 t-83 114.5t-30 158.5zM193 545h589v86q0 82 -25.5 139t-66.5 94t-92 53.5t-104 16.5q-55 0 -109.5 -17.5t-96.5 -54.5t-68.5 -95t-26.5 -138v-84zM432 1305q0 27 19.5 47t48.5 20q33 0 52 -20.5t19 -46.5q0 -29 -19.5 -50.5t-51.5 -21.5q-29 0 -48.5 20.5t-19.5 51.5z" />
<glyph unicode="&#x118;" horiz-adv-x="1089" d="M117 0v1411h907v-90h-809v-561h696v-88h-696v-584h809v-88q-37 -45 -53.5 -93t-16.5 -83q0 -55 31 -81t80 -26q53 0 119 33l26 -61q-31 -16 -72.5 -29.5t-88.5 -13.5q-82 0 -128.5 49t-46.5 115q0 41 18.5 91t65.5 99h-841z" />
<glyph unicode="&#x119;" horiz-adv-x="954" d="M100 354v285q0 86 29 155.5t81 120t125 77t159 26.5q84 0 153.5 -27.5t120.5 -77t78.5 -119t27.5 -151.5v-178h-681v-94q0 -84 26.5 -141.5t69.5 -93.5t98 -52t115 -16q84 0 151.5 28.5t120.5 79.5l57 -65q-10 -10 -20 -18.5t-20 -18.5q-35 -43 -49.5 -88t-14.5 -80 q0 -55 30.5 -81t80.5 -26q53 0 118 33l27 -61q-31 -16 -73 -29.5t-89 -13.5q-82 0 -128 48.5t-46 114.5q0 29 8.5 60t28.5 65q-90 -29 -186 -28q-86 0 -159 23.5t-126 69.5t-83 114.5t-30 158.5zM193 545h589v86q0 82 -25.5 139t-66.5 94t-92 53.5t-104 16.5 q-55 0 -109.5 -17.5t-96.5 -54.5t-68.5 -95t-26.5 -138v-84z" />
<glyph unicode="&#x11a;" horiz-adv-x="1089" d="M117 0v1411h907v-90h-809v-561h696v-88h-696v-584h809v-88h-907zM276 1722l35 43l267 -172l264 170l37 -43l-258 -223h-76z" />
<glyph unicode="&#x11b;" horiz-adv-x="954" d="M100 354v285q0 86 29 155.5t81 120t125 77t159 26.5q84 0 153.5 -27.5t120.5 -77t78.5 -119t27.5 -151.5v-178h-681v-94q0 -84 26.5 -141.5t69.5 -93.5t98 -52t115 -16q84 0 151.5 28.5t120.5 79.5l57 -65q-63 -63 -147 -93t-186 -30q-86 0 -159 23.5t-126 69.5 t-83 114.5t-30 158.5zM182 1395l43 43l260 -199l258 197l43 -41l-258 -254h-75zM193 545h589v86q0 82 -25.5 139t-66.5 94t-92 53.5t-104 16.5q-55 0 -109.5 -17.5t-96.5 -54.5t-68.5 -95t-26.5 -138v-84z" />
<glyph unicode="&#x11c;" horiz-adv-x="1124" d="M98 459v499q0 102 37 188.5t103.5 148t160 96t207.5 34.5q106 0 198.5 -24.5t170.5 -79.5l-53 -80q-66 47 -148 70.5t-168 23.5q-78 0 -150.5 -22.5t-131 -70.5t-93 -123t-34.5 -179v-465q0 -104 33.5 -180t90 -125t128 -72.5t147.5 -23.5q25 0 61.5 3t80.5 15t92.5 35 t97.5 61v420h-244v92h342v-553q-88 -84 -197.5 -122.5t-230.5 -38.5q-113 0 -205 34.5t-157.5 98t-101.5 149.5t-36 191zM285 1538l268 223h76l260 -221l-37 -43l-264 170l-266 -172z" />
<glyph unicode="&#x11d;" horiz-adv-x="980" d="M90 330v344q0 172 90.5 257t229.5 85q29 0 63.5 -3t80.5 -16.5t103.5 -40t130.5 -71.5l17 121h76v-1086q0 -86 -31 -151.5t-84 -110.5t-129 -67.5t-164 -22.5q-82 0 -171 23.5t-155 76.5l60 72q49 -41 126 -63.5t142 -22.5q63 0 120.5 15.5t100.5 50t67.5 91t24.5 140.5 v186q-72 -47 -129 -75.5t-103 -45t-84 -22.5t-69 -6q-145 -4 -229 83t-84 259zM182 354q0 -147 56.5 -212.5t171.5 -65.5q76 0 177 44t201 111v553q-104 72 -199 108t-171 36q-111 0 -173.5 -63.5t-62.5 -215.5v-295zM197 1182l270 254h76l258 -252l-43 -43l-258 198 l-260 -200z" />
<glyph unicode="&#x11e;" horiz-adv-x="1124" d="M98 459v499q0 102 37 188.5t103.5 148t160 96t207.5 34.5q106 0 198.5 -24.5t170.5 -79.5l-53 -80q-66 47 -148 70.5t-168 23.5q-78 0 -150.5 -22.5t-131 -70.5t-93 -123t-34.5 -179v-465q0 -104 33.5 -180t90 -125t128 -72.5t147.5 -23.5q25 0 61.5 3t80.5 15t92.5 35 t97.5 61v420h-244v92h342v-553q-88 -84 -197.5 -122.5t-230.5 -38.5q-113 0 -205 34.5t-157.5 98t-101.5 149.5t-36 191zM336 1720h80q10 -59 60 -104t122 -45q76 0 124 45t56 104h80q-6 -39 -22.5 -78.5t-47 -72.5t-77.5 -53.5t-113 -20.5t-113 20.5t-79.5 53.5t-49 72.5 t-20.5 78.5z" />
<glyph unicode="&#x11f;" horiz-adv-x="980" d="M90 330v344q0 172 90.5 257t229.5 85q29 0 63.5 -3t80.5 -16.5t103.5 -40t130.5 -71.5l17 121h76v-1086q0 -86 -31 -151.5t-84 -110.5t-129 -67.5t-164 -22.5q-82 0 -171 23.5t-155 76.5l60 72q49 -41 126 -63.5t142 -22.5q63 0 120.5 15.5t100.5 50t67.5 91t24.5 140.5 v186q-72 -47 -129 -75.5t-103 -45t-84 -22.5t-69 -6q-145 -4 -229 83t-84 259zM182 354q0 -147 56.5 -212.5t171.5 -65.5q76 0 177 44t201 111v553q-104 72 -199 108t-171 36q-111 0 -173.5 -63.5t-62.5 -215.5v-295zM266 1380h80q12 -68 64.5 -108.5t117.5 -40.5 q68 0 116 36t65 113h79q-6 -39 -23 -78.5t-48 -72.5t-78 -53.5t-111 -20.5q-66 0 -112.5 20.5t-79.5 53.5t-49.5 72.5t-20.5 78.5z" />
<glyph unicode="&#x120;" horiz-adv-x="1124" d="M98 459v499q0 102 37 188.5t103.5 148t160 96t207.5 34.5q106 0 198.5 -24.5t170.5 -79.5l-53 -80q-66 47 -148 70.5t-168 23.5q-78 0 -150.5 -22.5t-131 -70.5t-93 -123t-34.5 -179v-465q0 -104 33.5 -180t90 -125t128 -72.5t147.5 -23.5q25 0 61.5 3t80.5 15t92.5 35 t97.5 61v420h-244v92h342v-553q-88 -84 -197.5 -122.5t-230.5 -38.5q-113 0 -205 34.5t-157.5 98t-101.5 149.5t-36 191zM522 1653q0 27 19.5 47t48.5 20q33 0 52.5 -20.5t19.5 -46.5q0 -29 -19.5 -50.5t-52.5 -21.5q-29 0 -48.5 20.5t-19.5 51.5z" />
<glyph unicode="&#x121;" horiz-adv-x="980" d="M90 330v344q0 172 90.5 257t229.5 85q29 0 63.5 -3t80.5 -16.5t103.5 -40t130.5 -71.5l17 121h76v-1086q0 -86 -31 -151.5t-84 -110.5t-129 -67.5t-164 -22.5q-82 0 -171 23.5t-155 76.5l60 72q49 -41 126 -63.5t142 -22.5q63 0 120.5 15.5t100.5 50t67.5 91t24.5 140.5 v186q-72 -47 -129 -75.5t-103 -45t-84 -22.5t-69 -6q-145 -4 -229 83t-84 259zM182 354q0 -147 56.5 -212.5t171.5 -65.5q76 0 177 44t201 111v553q-104 72 -199 108t-171 36q-111 0 -173.5 -63.5t-62.5 -215.5v-295zM453 1305q0 27 19.5 47t47.5 20q33 0 52.5 -20.5 t19.5 -46.5q0 -29 -19.5 -50.5t-52.5 -21.5q-29 0 -48 20.5t-19 51.5z" />
<glyph unicode="&#x122;" horiz-adv-x="1124" d="M98 459v499q0 102 37 188.5t103.5 148t160 96t207.5 34.5q106 0 198.5 -24.5t170.5 -79.5l-53 -80q-66 47 -148 70.5t-168 23.5q-78 0 -150.5 -22.5t-131 -70.5t-93 -123t-34.5 -179v-465q0 -104 33.5 -180t90 -125t128 -72.5t147.5 -23.5q25 0 61.5 3t80.5 15t92.5 35 t97.5 61v420h-244v92h342v-553q-88 -84 -197.5 -122.5t-230.5 -38.5q-113 0 -205 34.5t-157.5 98t-101.5 149.5t-36 191zM506 -225q0 35 23.5 55t58.5 20q43 0 67.5 -30.5t24.5 -79.5q0 -70 -41 -135.5t-100 -96.5l-31 41q76 61 80 150q-35 -2 -58.5 19.5t-23.5 56.5z" />
<glyph unicode="&#x123;" horiz-adv-x="980" d="M90 328v344q0 174 88 259t230 85q29 0 64.5 -3t81.5 -16.5t103.5 -40t130.5 -71.5q4 31 8.5 60.5t8.5 60.5h74v-1086q0 -86 -30 -151.5t-84 -110.5t-129 -67.5t-163 -22.5q-84 0 -172 23.5t-154 76.5l60 74q25 -20 56.5 -36.5t68.5 -28t73.5 -17.5t69.5 -6 q63 0 120.5 15.5t100.5 50t67.5 92t24.5 141.5v184q-74 -49 -134 -78.5t-107 -45t-86 -19.5t-70 -4q-141 0 -221 85t-80 253zM180 354q0 -150 57.5 -214t172.5 -64q76 0 177 43t201 110v553q-104 72 -200 109t-172 37q-109 0 -172.5 -64.5t-63.5 -216.5v-293zM440 1227 q0 70 41 135t101 96l30 -41q-76 -61 -80 -151h9q33 0 53 -19.5t20 -54.5t-23.5 -55.5t-58.5 -20.5q-43 0 -67.5 31t-24.5 80z" />
<glyph unicode="&#x124;" horiz-adv-x="1220" d="M113 0v1411h96v-649h799v649h102v-1411h-102v674h-799v-674h-96zM309 1538l269 223h75l260 -221l-36 -43l-265 170l-266 -172z" />
<glyph unicode="&#x125;" horiz-adv-x="980" d="M-115 1538l269 223h75l260 -221l-36 -43l-265 170l-266 -172zM137 0v1466h92v-600q141 90 235 121t157 31q307 0 307 -344v-674h-92v651q0 150 -57.5 213.5t-172.5 63.5q-37 0 -83 -12.5t-95 -34t-100.5 -48t-98.5 -57.5v-776h-92z" />
<glyph unicode="&#x126;" horiz-adv-x="1220" d="M12 1149v76h101v186h96v-186h799v186h102v-186h96v-76h-96v-1149h-102v674h-799v-674h-96v1149h-101zM209 762h799v387h-799v-387z" />
<glyph unicode="&#x127;" horiz-adv-x="980" d="M0 1188v76h100v202h93v-202h497v-76h-497v-322q141 90 234.5 121t156.5 31q307 0 307 -344v-674h-92v651q0 150 -57.5 213.5t-172.5 63.5q-37 0 -83 -12.5t-95 -34t-100 -48t-98 -57.5v-776h-93v1188h-100z" />
<glyph unicode="&#x128;" horiz-adv-x="442" d="M-86 1618q39 63 87 97t101 34q33 0 68 -13.5t68.5 -29.5t65.5 -29.5t56 -13.5q33 0 58.5 19.5t56.5 64.5l62 -35q-39 -72 -82 -102.5t-93 -30.5q-31 0 -63.5 12.5t-66 27.5t-66.5 28.5t-62 13.5q-39 0 -67.5 -19.5t-61.5 -60.5zM172 0v1411h98v-1411h-98z" />
<glyph unicode="&#x129;" horiz-adv-x="581" d="M-20 1270q39 63 87 97t101 34q33 0 67.5 -13.5t68.5 -30t65.5 -29.5t56.5 -13q33 0 58.5 19.5t56.5 64.5l61 -35q-39 -72 -82 -102.5t-92 -30.5q-31 0 -63.5 12t-66.5 27.5t-66.5 29t-61.5 13.5q-39 0 -67.5 -19.5t-61.5 -60.5zM242 0v1006h90v-1006h-90z" />
<glyph unicode="&#x12a;" horiz-adv-x="442" d="M-39 1575v84h522v-84h-522zM172 0v1411h98v-1411h-98z" />
<glyph unicode="&#x12b;" horiz-adv-x="481" d="M-20 1214v84h522v-84h-522zM195 0v1006h90v-1006h-90z" />
<glyph unicode="&#x12c;" horiz-adv-x="481" d="M-20 1718h79q10 -59 60.5 -104t122.5 -45q76 0 124 45t56 104h80q-6 -39 -22.5 -79t-47.5 -72.5t-78 -53t-112 -20.5q-66 0 -113 20.5t-80 53t-49 72.5t-20 79zM193 0v1411h98v-1411h-98z" />
<glyph unicode="&#x12d;" horiz-adv-x="481" d="M-20 1393h79q12 -68 64.5 -109t118.5 -41q68 0 116 36t64 114h80q-6 -39 -23.5 -79t-48.5 -73t-78 -53.5t-110 -20.5q-66 0 -113 20.5t-80 53.5t-49 73t-20 79zM193 0v1006h90v-1006h-90z" />
<glyph unicode="&#x12e;" horiz-adv-x="442" d="M106 -190q0 41 18.5 91t65.5 99h-18v1411h98v-1411h-14q-37 -45 -53.5 -93t-16.5 -83q0 -55 31 -81t80 -26q53 0 119 33l26 -61q-31 -16 -72.5 -29.5t-88.5 -13.5q-82 0 -128.5 49t-46.5 115z" />
<glyph unicode="&#x12f;" horiz-adv-x="378" d="M74 -188q0 41 17.5 90t64.5 98h-13v1006h90v-1006h-12q-37 -45 -52 -92t-15 -82q0 -55 30.5 -81t79.5 -26q53 0 119 33l27 -61q-31 -16 -73 -29.5t-89 -13.5q-82 0 -128 49t-46 115zM123 1337q0 29 19.5 47.5t45.5 18.5q29 0 48.5 -18.5t19.5 -47.5t-19.5 -48t-48.5 -19 q-27 0 -46 19.5t-19 47.5z" />
<glyph unicode="&#x130;" horiz-adv-x="442" d="M156 1653q0 27 19.5 47t47.5 20q33 0 52.5 -20.5t19.5 -46.5q0 -29 -19.5 -50.5t-52.5 -21.5q-29 0 -48 20.5t-19 51.5zM172 0v1411h98v-1411h-98z" />
<glyph unicode="&#x131;" horiz-adv-x="419" d="M164 0v1006h90v-1006h-90z" />
<glyph unicode="&#x132;" horiz-adv-x="1384" d="M172 0v1411h98v-1411h-98zM406 74l47 80q66 -39 131 -59.5t137 -20.5q84 0 156.5 23.5t125 73.5t82 127t29.5 181v934h98v-952q0 -104 -31.5 -191.5t-93 -150t-152.5 -98t-208 -35.5q-96 0 -179 25.5t-142 62.5z" />
<glyph unicode="&#x133;" horiz-adv-x="714" d="M123 1337q0 29 19.5 47.5t45.5 18.5q29 0 48.5 -18.5t19.5 -47.5t-19.5 -48t-48.5 -19q-27 0 -46 19.5t-19 47.5zM143 0v1006h90v-1006h-90zM266 -344h64q82 0 114.5 39t32.5 143v1168h92v-1184q0 -131 -55 -190.5t-172 -59.5h-76v84zM459 1337q0 29 19.5 47.5t45.5 18.5 q29 0 48.5 -18.5t19.5 -47.5t-19.5 -48t-48.5 -19q-27 0 -46 19.5t-19 47.5z" />
<glyph unicode="&#x134;" horiz-adv-x="1032" d="M53 76l47 80q66 -39 131.5 -59.5t137.5 -20.5q84 0 156.5 23.5t124.5 73.5t82 127t30 181v934h98v-952q0 -104 -31.5 -191.5t-93 -150t-152.5 -98t-208 -35.5q-96 0 -179 25.5t-143 62.5zM510 1542l268 223h76l260 -221l-37 -43l-264 170l-266 -172z" />
<glyph unicode="&#x135;" horiz-adv-x="581" d="M-10 1182l268 254h76l258 -252l-43 -43l-258 198l-258 -200zM31 -346h63q82 0 115 40t33 144v1168h92v-1184q0 -131 -55.5 -190.5t-172.5 -59.5h-75v82z" />
<glyph unicode="&#x136;" horiz-adv-x="1103" d="M113 0v1411h98v-874l709 874h118l-438 -545l502 -866h-115l-455 784q-80 -98 -159.5 -198.5t-161.5 -200.5v-385h-98zM471 -184q0 35 23.5 55t58.5 20q43 0 67.5 -30.5t24.5 -79.5q0 -70 -41 -135.5t-100 -96.5l-31 41q76 61 80 150q-35 -2 -58.5 19.5t-23.5 56.5z" />
<glyph unicode="&#x137;" horiz-adv-x="919" d="M100 0v1466h90v-841h234q61 0 119.5 26.5t99.5 112.5l117 246h100l-117 -258q-27 -57 -61.5 -99.5t-99.5 -66.5q39 -6 67.5 -25.5t48 -46.5t32.5 -58.5t24 -64.5l135 -391h-101l-122 350q-20 59 -41 95t-46.5 56.5t-59.5 27t-83 6.5h-246v-535h-90zM375 -225 q0 35 23.5 55t58.5 20q43 0 67.5 -30.5t24.5 -79.5q0 -70 -41 -135.5t-100 -96.5l-31 41q76 61 80 150q-35 -2 -58.5 19.5t-23.5 56.5z" />
<glyph unicode="&#x138;" horiz-adv-x="966" d="M133 0v1008h92v-449h271q59 0 109 26.5t85 121.5l113 301h92l-107 -287q-27 -72 -56.5 -124t-88.5 -69q37 -8 60.5 -26.5t41 -44t30.5 -58t26 -69.5l114 -330h-96l-108 317q-16 49 -37 81t-45.5 49.5t-53 23.5t-65.5 6h-285v-477h-92z" />
<glyph unicode="&#x139;" horiz-adv-x="1028" d="M119 0v1411h98v-1323h803v-88h-901zM137 1538l279 221l71 -76l-309 -190z" />
<glyph unicode="&#x13a;" horiz-adv-x="512" d="M186 217v1249h90v-1235q0 -96 36 -125.5t122 -25.5l4 -84q-18 -4 -33.5 -4h-31.5q-104 0 -145.5 56t-41.5 169zM186 1571l279 221l72 -76l-310 -190z" />
<glyph unicode="&#x13b;" horiz-adv-x="1028" d="M119 0v1411h98v-1323h803v-88h-901zM457 -225q0 35 23.5 55t58.5 20q43 0 67.5 -30.5t24.5 -79.5q0 -70 -41 -135.5t-101 -96.5l-30 41q76 61 80 150q-35 -2 -58.5 19.5t-23.5 56.5z" />
<glyph unicode="&#x13c;" horiz-adv-x="512" d="M186 217v1249h90v-1235q0 -96 36 -125.5t122 -25.5l4 -84q-18 -4 -33.5 -4h-31.5q-104 0 -145.5 56t-41.5 169zM211 -225q0 35 23.5 55t58.5 20q43 0 67.5 -30.5t24.5 -79.5q0 -70 -41 -135.5t-100 -96.5l-31 41q76 61 80 150q-35 -2 -58.5 19.5t-23.5 56.5z" />
<glyph unicode="&#x13d;" horiz-adv-x="1028" d="M119 0v1411h98v-1323h803v-88h-901zM537 1350q0 35 23.5 55t57.5 20q43 0 68 -30.5t25 -79.5q0 -70 -41 -135.5t-101 -96.5l-30 41q76 61 79 150q-35 -2 -58 19.5t-23 56.5z" />
<glyph unicode="&#x13e;" horiz-adv-x="550" d="M186 217v1249h90v-1235q0 -96 36 -125.5t122 -25.5l4 -84q-18 -4 -33.5 -4h-31.5q-104 0 -145.5 56t-41.5 169zM389 1397q0 35 23.5 55.5t58.5 20.5q43 0 67.5 -31t24.5 -80q0 -70 -41 -135.5t-100 -96.5l-31 41q76 61 80 150q-35 -2 -58.5 19.5t-23.5 56.5z" />
<glyph unicode="&#x13f;" horiz-adv-x="1028" d="M119 0v1411h98v-1323h803v-88h-901zM543 719q0 27 19.5 47t47.5 20q33 0 52.5 -20.5t19.5 -46.5q0 -29 -19.5 -50.5t-52.5 -21.5q-29 0 -48 20.5t-19 51.5z" />
<glyph unicode="&#x140;" horiz-adv-x="557" d="M186 217v1249h90v-1235q0 -96 36 -125.5t122 -25.5l4 -84q-18 -4 -33.5 -4h-31.5q-104 0 -145.5 56t-41.5 169zM410 774q0 27 19.5 47.5t47.5 20.5q33 0 52.5 -20.5t19.5 -47.5q0 -29 -19.5 -50.5t-52.5 -21.5q-29 0 -48 20.5t-19 51.5z" />
<glyph unicode="&#x141;" horiz-adv-x="1028" d="M-33 516l152 88v807h98v-749l330 190l39 -68l-369 -213v-483h803v-88h-901v514l-113 -65z" />
<glyph unicode="&#x142;" horiz-adv-x="544" d="M0 625l207 118v723h90v-671l203 116l39 -65l-242 -139v-476q0 -80 25.5 -114.5t95.5 -34.5h43v-84h-60q-102 0 -148 50t-46 171v434l-168 -96z" />
<glyph unicode="&#x143;" horiz-adv-x="1255" d="M115 0v1411h98l524 -790q76 -115 151 -228.5t152 -226.5v1245h99v-1411h-105q-129 195 -257 388.5t-259 389.5q-76 115 -150.5 230.5t-154.5 228.5v-1237h-98zM547 1538l278 221l72 -76l-309 -190z" />
<glyph unicode="&#x144;" horiz-adv-x="983" d="M98 0v1006h76l16 -140q72 43 128.5 73t101.5 47.5t82.5 24.5t72.5 7q150 0 232 -85t82 -259v-674h-92v651q0 150 -62.5 214.5t-177.5 62.5q-74 0 -170 -44t-197 -112v-772h-92zM401 1178l160 315l101 -39l-205 -301z" />
<glyph unicode="&#x145;" horiz-adv-x="1255" d="M115 0v1411h98l524 -790q76 -115 151 -228.5t152 -226.5v1245h99v-1411h-105q-129 195 -257 388.5t-259 389.5q-76 115 -150.5 230.5t-154.5 228.5v-1237h-98zM539 -184q0 35 23.5 55t58.5 20q43 0 67.5 -30.5t24.5 -79.5q0 -70 -41 -135.5t-101 -96.5l-30 41 q76 61 80 150q-35 -2 -58.5 19.5t-23.5 56.5z" />
<glyph unicode="&#x146;" horiz-adv-x="983" d="M98 0v1006h76l16 -140q72 43 128.5 73t101.5 47.5t82.5 24.5t72.5 7q150 0 232 -85t82 -259v-674h-92v651q0 150 -62.5 214.5t-177.5 62.5q-74 0 -170 -44t-197 -112v-772h-92zM403 -225q0 35 24 55t58 20q43 0 68 -30.5t25 -79.5q0 -70 -41 -135.5t-101 -96.5l-30 41 q76 61 79 150q-35 -2 -58.5 19.5t-23.5 56.5z" />
<glyph unicode="&#x147;" horiz-adv-x="1255" d="M115 0v1411h98l524 -790q76 -115 151 -228.5t152 -226.5v1245h99v-1411h-105q-129 195 -257 388.5t-259 389.5q-76 115 -150.5 230.5t-154.5 228.5v-1237h-98zM336 1722l35 43l266 -172l264 170l37 -43l-258 -223h-76z" />
<glyph unicode="&#x148;" horiz-adv-x="983" d="M98 0v1006h76l16 -140q72 43 128.5 73t101.5 47.5t82.5 24.5t72.5 7q150 0 232 -85t82 -259v-674h-92v651q0 150 -62.5 214.5t-177.5 62.5q-74 0 -170 -44t-197 -112v-772h-92zM143 1395l43 43l260 -199l259 197l43 -41l-259 -254h-75z" />
<glyph unicode="&#x149;" horiz-adv-x="1089" d="M0 1264q0 35 23.5 55t58.5 20q43 0 67.5 -30.5t24.5 -79.5q0 -70 -41 -135.5t-100 -96.5l-31 41q76 61 80 150q-35 -2 -58.5 19.5t-23.5 56.5zM205 0v1006h76l16 -140q72 43 128 73t101 47.5t83 24.5t73 7q150 0 231.5 -85t81.5 -259v-674h-92v651q0 150 -62.5 214.5 t-176.5 62.5q-74 0 -170.5 -44t-196.5 -112v-772h-92z" />
<glyph unicode="&#x14a;" horiz-adv-x="1255" d="M115 0v1411h98l539 -813q53 -80 105 -160t106 -159l77 -113v1245h99v-1544q0 -111 -54.5 -158t-128.5 -47q-88 0 -155 43q8 16 14 34.5t14 37.5q62 -31 107 -31q109 0 108 121v123l-538 807l-215 327l-78 113v-1237h-98z" />
<glyph unicode="&#x14b;" horiz-adv-x="983" d="M98 0v1006h76l16 -140q72 43 128.5 73t101.5 47.5t82.5 24.5t72.5 7q150 0 232 -85t82 -259v-807q0 -111 -53.5 -159t-126.5 -48q-43 0 -82 11.5t-74 31.5l29 70q29 -14 56.5 -22.5t49.5 -8.5q109 0 109 123v786q0 150 -62.5 213.5t-177.5 63.5q-74 0 -170 -44t-197 -112 v-772h-92z" />
<glyph unicode="&#x14c;" horiz-adv-x="1202" d="M104 457v501q0 102 34 188.5t98.5 148t156.5 96t207 34.5q113 0 205 -34.5t156.5 -97t100.5 -148.5t36 -187v-507q0 -104 -36 -190.5t-100.5 -147t-156.5 -94t-205 -33.5q-115 0 -206 33.5t-155.5 96t-99.5 149.5t-35 192zM203 467q0 -104 34.5 -178t91 -122t128 -70.5 t143.5 -22.5q82 0 154.5 23.5t127 71.5t86 122t31.5 176v473q0 100 -32.5 175t-88 124t-127 72.5t-151.5 23.5q-82 0 -154.5 -23.5t-126 -72.5t-85 -124t-31.5 -175v-473zM340 1575v84h522v-84h-522z" />
<glyph unicode="&#x14d;" horiz-adv-x="980" d="M94 352v307q0 82 32 148.5t86 113t126 72t154 25.5q84 0 156.5 -25.5t125.5 -72t83 -113t30 -148.5v-305q0 -172 -108.5 -269t-289.5 -97q-88 0 -160.5 25.5t-124.5 73.5t-81 114.5t-29 150.5zM186 375q0 -84 26 -141.5t68 -93.5t97 -52t117 -16q61 0 115.5 17t96.5 54 t66.5 94.5t24.5 137.5v256q0 82 -28 139t-71 93t-97 52.5t-107 16.5q-55 0 -110.5 -16.5t-98.5 -52.5t-71 -93t-28 -139v-256zM236 1214v84h522v-84h-522z" />
<glyph unicode="&#x14e;" horiz-adv-x="1202" d="M104 457v501q0 102 34 188.5t98.5 148t156.5 96t207 34.5q113 0 205 -34.5t156.5 -97t100.5 -148.5t36 -187v-507q0 -104 -36 -190.5t-100.5 -147t-156.5 -94t-205 -33.5q-115 0 -206 33.5t-155.5 96t-99.5 149.5t-35 192zM203 467q0 -104 34.5 -178t91 -122t128 -70.5 t143.5 -22.5q82 0 154.5 23.5t127 71.5t86 122t31.5 176v473q0 100 -32.5 175t-88 124t-127 72.5t-151.5 23.5q-82 0 -154.5 -23.5t-126 -72.5t-85 -124t-31.5 -175v-473zM330 1720h80q10 -59 60 -104t122 -45q76 0 124 45t56 104h80q-6 -39 -22.5 -78.5t-47 -72.5 t-78 -53.5t-112.5 -20.5q-66 0 -113 20.5t-79.5 53.5t-49 72.5t-20.5 78.5z" />
<glyph unicode="&#x14f;" horiz-adv-x="980" d="M94 352v307q0 82 32 148.5t86 113t126 72t154 25.5q84 0 156.5 -25.5t125.5 -72t83 -113t30 -148.5v-305q0 -172 -108.5 -269t-289.5 -97q-88 0 -160.5 25.5t-124.5 73.5t-81 114.5t-29 150.5zM186 375q0 -84 26 -141.5t68 -93.5t97 -52t117 -16q61 0 115.5 17t96.5 54 t66.5 94.5t24.5 137.5v256q0 82 -28 139t-71 93t-97 52.5t-107 16.5q-55 0 -110.5 -16.5t-98.5 -52.5t-71 -93t-28 -139v-256zM231 1380h80q12 -68 64.5 -108.5t118.5 -40.5q68 0 115.5 36t64.5 113h80q-6 -39 -23.5 -78.5t-48.5 -72.5t-78 -53.5t-110 -20.5 q-66 0 -113 20.5t-80 53.5t-49 72.5t-21 78.5z" />
<glyph unicode="&#x150;" horiz-adv-x="1202" d="M104 457v501q0 102 34 188.5t98.5 148t156.5 96t207 34.5q113 0 205 -34.5t156.5 -97t100.5 -148.5t36 -187v-507q0 -104 -36 -190.5t-100.5 -147t-156.5 -94t-205 -33.5q-115 0 -206 33.5t-155.5 96t-99.5 149.5t-35 192zM203 467q0 -104 34.5 -178t91 -122t128 -70.5 t143.5 -22.5q82 0 154.5 23.5t127 71.5t86 122t31.5 176v473q0 100 -32.5 175t-88 124t-127 72.5t-151.5 23.5q-82 0 -154.5 -23.5t-126 -72.5t-85 -124t-31.5 -175v-473zM395 1538l277 221l73 -76l-311 -190zM635 1538l278 221l72 -76l-309 -190z" />
<glyph unicode="&#x151;" horiz-adv-x="980" d="M94 352v307q0 82 32 148.5t86 113t126 72t154 25.5q84 0 156.5 -25.5t125.5 -72t83 -113t30 -148.5v-305q0 -172 -108.5 -269t-289.5 -97q-88 0 -160.5 25.5t-124.5 73.5t-81 114.5t-29 150.5zM186 375q0 -84 26 -141.5t68 -93.5t97 -52t117 -16q61 0 115.5 17t96.5 54 t66.5 94.5t24.5 137.5v256q0 82 -28 139t-71 93t-97 52.5t-107 16.5q-55 0 -110.5 -16.5t-98.5 -52.5t-71 -93t-28 -139v-256zM334 1178l162 315l98 -39l-203 -301zM541 1178l161 315l99 -39l-203 -301z" />
<glyph unicode="&#x152;" horiz-adv-x="1718" d="M104 457v501q0 102 34 188.5t98.5 148t156.5 96t207 34.5q39 0 75 -4t70 -10h908v-90h-809v-561h694v-88h-694v-584h809v-88h-908q-35 -6 -70.5 -10t-74.5 -4q-115 0 -206 33.5t-155.5 96t-99.5 149.5t-35 192zM203 467q0 -104 34.5 -178t91 -122t128 -70.5t143.5 -22.5 q39 0 75 4t70 14v1223q-68 20 -145 20q-82 0 -154.5 -23.5t-126 -72.5t-85 -124t-31.5 -175v-473z" />
<glyph unicode="&#x153;" horiz-adv-x="1648" d="M94 352v307q0 82 32 148.5t86 113t126 72t154 25.5q121 0 213 -50t139 -143q47 90 136 141.5t208 51.5q84 0 154.5 -25.5t120.5 -73t78 -115t28 -149.5v-190h-680v-94q0 -84 25.5 -141.5t68.5 -93.5t98.5 -52t114.5 -16q86 0 152.5 28.5t119.5 79.5l60 -65 q-66 -63 -150 -93t-186 -30q-123 0 -214 47t-138 139q-45 -90 -134.5 -138t-216.5 -48q-88 0 -160.5 25.5t-124.5 73.5t-81 114.5t-29 150.5zM186 375q0 -84 26 -141.5t68 -93.5t97 -52t117 -16q57 0 110 16t95 50t69 85t27 119v305q0 74 -28 128t-72 89t-97 51.5t-104 16.5 q-55 0 -110.5 -16.5t-98.5 -52.5t-71 -93t-28 -139v-256zM889 545h588v86q0 82 -25 139t-65.5 94t-93 53.5t-105.5 16.5q-55 0 -108.5 -17.5t-96.5 -54.5t-68.5 -95t-25.5 -138v-84z" />
<glyph unicode="&#x154;" horiz-adv-x="1136" d="M115 0v1411h553q100 0 175 -36t124 -93t73.5 -130t24.5 -146q0 -59 -17.5 -119t-53.5 -112t-89 -92t-123 -58l275 -625h-109l-264 606h-471v-606h-98zM213 696h440q63 0 119.5 20.5t99.5 60.5t68 97.5t25 131.5q0 72 -25 130t-68 99t-99 62.5t-120 21.5h-440v-623z M432 1538l279 221l71 -76l-309 -190z" />
<glyph unicode="&#x155;" horiz-adv-x="606" d="M137 0v1006h80l14 -150h2q31 27 73 54.5t91 51t101.5 38t101.5 18.5v-107q-137 -14 -227 -59t-142 -80v-772h-94zM248 1178l160 315l100 -39l-205 -301z" />
<glyph unicode="&#x156;" horiz-adv-x="1136" d="M115 0v1411h553q100 0 175 -36t124 -93t73.5 -130t24.5 -146q0 -59 -17.5 -119t-53.5 -112t-89 -92t-123 -58l275 -625h-109l-264 606h-471v-606h-98zM213 696h440q63 0 119.5 20.5t99.5 60.5t68 97.5t25 131.5q0 72 -25 130t-68 99t-99 62.5t-120 21.5h-440v-623z M453 -184q0 35 23.5 55t58.5 20q43 0 67.5 -30.5t24.5 -79.5q0 -70 -41 -135.5t-101 -96.5l-30 41q76 61 80 150q-35 -2 -58.5 19.5t-23.5 56.5z" />
<glyph unicode="&#x157;" horiz-adv-x="606" d="M94 -225q0 35 23.5 55t58.5 20q43 0 67.5 -30.5t24.5 -79.5q0 -70 -41 -135.5t-100 -96.5l-31 41q76 61 80 150q-35 -2 -58.5 19.5t-23.5 56.5zM137 0v1006h80l14 -150h2q31 27 73 54.5t91 51t101.5 38t101.5 18.5v-107q-137 -14 -227 -59t-142 -80v-772h-94z" />
<glyph unicode="&#x158;" horiz-adv-x="1136" d="M115 0v1411h553q100 0 175 -36t124 -93t73.5 -130t24.5 -146q0 -59 -17.5 -119t-53.5 -112t-89 -92t-123 -58l275 -625h-109l-264 606h-471v-606h-98zM213 696h440q63 0 119.5 20.5t99.5 60.5t68 97.5t25 131.5q0 72 -25 130t-68 99t-99 62.5t-120 21.5h-440v-623z M221 1722l35 43l266 -172l264 170l37 -43l-258 -223h-76z" />
<glyph unicode="&#x159;" horiz-adv-x="606" d="M-14 1395l43 43l260 -199l258 197l43 -41l-258 -254h-76zM137 0v1006h80l14 -150h2q31 27 73 54.5t91 51t101.5 38t101.5 18.5v-107q-137 -14 -227 -59t-142 -80v-772h-94z" />
<glyph unicode="&#x15a;" horiz-adv-x="1097" d="M61 127l56 76q94 -57 204.5 -92t227.5 -35q80 0 149.5 19.5t120.5 56t81 92t30 127.5q0 82 -34 134t-88 85t-124 51t-139 33q-82 14 -163 39.5t-144.5 68.5t-103.5 108.5t-40 162.5q0 84 31 153.5t88 118.5t140 77t186 28q113 0 219 -20.5t200 -72.5l-45 -86 q-88 47 -186 67.5t-197 20.5q-66 0 -126 -16t-106 -52t-74.5 -91.5t-28.5 -130.5q0 -74 33.5 -122t89 -80t124 -50.5t136.5 -32.5q96 -20 179 -47t144.5 -70t96 -109.5t34.5 -166.5q0 -90 -34.5 -161t-98 -120t-153 -75.5t-199.5 -26.5q-139 0 -258 35.5t-228 103.5z M438 1538l279 221l71 -76l-309 -190z" />
<glyph unicode="&#x15b;" horiz-adv-x="899" d="M78 94l49 72q76 -53 158 -78t180 -25q45 0 94 10.5t88 35t64.5 64.5t25.5 99q0 86 -67.5 130t-227.5 71q-61 10 -122.5 25.5t-111.5 43t-82 74t-32 117.5q0 125 93.5 205t252.5 80q104 0 186.5 -19.5t151.5 -66.5l-47 -70q-127 76 -285 76q-119 0 -190.5 -55.5 t-71.5 -149.5q0 -43 21.5 -73.5t59.5 -51t90.5 -34t113.5 -23.5t125.5 -25.5t117 -45t85 -80t32.5 -132.5q0 -123 -96 -201.5t-272 -78.5q-98 0 -194.5 20.5t-188.5 85.5zM410 1178l159 315l101 -39l-205 -301z" />
<glyph unicode="&#x15c;" horiz-adv-x="1097" d="M61 127l56 76q94 -57 204.5 -92t227.5 -35q80 0 149.5 19.5t120.5 56t81 92t30 127.5q0 82 -34 134t-88 85t-124 51t-139 33q-82 14 -163 39.5t-144.5 68.5t-103.5 108.5t-40 162.5q0 84 31 153.5t88 118.5t140 77t186 28q113 0 219 -20.5t200 -72.5l-45 -86 q-88 47 -186 67.5t-197 20.5q-66 0 -126 -16t-106 -52t-74.5 -91.5t-28.5 -130.5q0 -74 33.5 -122t89 -80t124 -50.5t136.5 -32.5q96 -20 179 -47t144.5 -70t96 -109.5t34.5 -166.5q0 -90 -34.5 -161t-98 -120t-153 -75.5t-199.5 -26.5q-139 0 -258 35.5t-228 103.5z M238 1538l268 223h76l260 -221l-37 -43l-264 170l-267 -172z" />
<glyph unicode="&#x15d;" horiz-adv-x="899" d="M78 94l49 72q76 -53 158 -78t180 -25q45 0 94 10.5t88 35t64.5 64.5t25.5 99q0 86 -67.5 130t-227.5 71q-61 10 -122.5 25.5t-111.5 43t-82 74t-32 117.5q0 125 93.5 205t252.5 80q104 0 186.5 -19.5t151.5 -66.5l-47 -70q-127 76 -285 76q-119 0 -190.5 -55.5 t-71.5 -149.5q0 -43 21.5 -73.5t59.5 -51t90.5 -34t113.5 -23.5t125.5 -25.5t117 -45t85 -80t32.5 -132.5q0 -123 -96 -201.5t-272 -78.5q-98 0 -194.5 20.5t-188.5 85.5zM143 1182l271 254h75l259 -252l-43 -43l-259 198l-260 -200z" />
<glyph unicode="&#x15e;" horiz-adv-x="1097" d="M61 127l56 76q94 -57 204.5 -92t227.5 -35q80 0 149.5 19.5t120.5 56t81 92t30 127.5q0 82 -34 134t-88 85t-124 51t-139 33q-82 14 -163 39.5t-144.5 68.5t-103.5 108.5t-40 162.5q0 84 31 153.5t88 118.5t140 77t186 28q113 0 219 -20.5t200 -72.5l-45 -86 q-88 47 -186 67.5t-197 20.5q-66 0 -126 -16t-106 -52t-74.5 -91.5t-28.5 -130.5q0 -74 33.5 -122t89 -80t124 -50.5t136.5 -32.5q96 -20 179 -47t144.5 -70t96 -109.5t34.5 -166.5q0 -88 -32.5 -158t-94 -119t-147.5 -76.5t-193 -29.5l-26 -78q55 0 92 -16.5t59.5 -40 t31.5 -50t9 -49.5t-10 -48t-33.5 -48t-61.5 -37t-94 -14q-23 0 -60.5 5t-88.5 21l20 54q35 -10 67.5 -15.5t59.5 -5.5q43 0 85 18.5t42 71.5q0 27 -13 46.5t-34.5 30.5t-48 15.5t-53.5 -0.5l-41 21l37 121q-125 4 -234.5 38.5t-208.5 98.5z" />
<glyph unicode="&#x15f;" horiz-adv-x="899" d="M78 94l49 72q76 -53 158 -78t180 -25q45 0 94 10.5t88 35t64.5 64.5t25.5 99q0 86 -67.5 130t-227.5 71q-61 10 -122.5 25.5t-111.5 43t-82 74t-32 117.5q0 125 93.5 205t252.5 80q104 0 186.5 -19.5t151.5 -66.5l-47 -70q-127 76 -285 76q-119 0 -190.5 -55.5 t-71.5 -149.5q0 -43 21.5 -73.5t59.5 -51t90.5 -34t113.5 -23.5t125.5 -25.5t117 -45t85 -80t32.5 -132.5q0 -59 -23.5 -109t-68.5 -87t-110.5 -59.5t-147.5 -24.5l-26 -78q55 0 92 -16.5t59.5 -40t31.5 -50t9 -49.5t-10 -48t-33.5 -48t-61.5 -37t-94 -14q-23 0 -60.5 5 t-88.5 21l20 54q35 -10 67.5 -15.5t59.5 -5.5q43 0 85 18.5t42 71.5q0 27 -13 46.5t-34.5 30.5t-48 15.5t-53.5 -0.5l-41 21l37 119q-88 4 -174 25.5t-166 80.5z" />
<glyph unicode="&#x160;" horiz-adv-x="1097" d="M61 127l56 76q94 -57 204.5 -92t227.5 -35q80 0 149.5 19.5t120.5 56t81 92t30 127.5q0 82 -34 134t-88 85t-124 51t-139 33q-82 14 -163 39.5t-144.5 68.5t-103.5 108.5t-40 162.5q0 84 31 153.5t88 118.5t140 77t186 28q113 0 219 -20.5t200 -72.5l-45 -86 q-88 47 -186 67.5t-197 20.5q-66 0 -126 -16t-106 -52t-74.5 -91.5t-28.5 -130.5q0 -74 33.5 -122t89 -80t124 -50.5t136.5 -32.5q96 -20 179 -47t144.5 -70t96 -109.5t34.5 -166.5q0 -90 -34.5 -161t-98 -120t-153 -75.5t-199.5 -26.5q-139 0 -258 35.5t-228 103.5z M254 1722l35 43l266 -172l264 170l37 -43l-258 -223h-76z" />
<glyph unicode="&#x161;" horiz-adv-x="899" d="M78 94l49 72q76 -53 158 -78t180 -25q45 0 94 10.5t88 35t64.5 64.5t25.5 99q0 86 -67.5 130t-227.5 71q-61 10 -122.5 25.5t-111.5 43t-82 74t-32 117.5q0 125 93.5 205t252.5 80q104 0 186.5 -19.5t151.5 -66.5l-47 -70q-127 76 -285 76q-119 0 -190.5 -55.5 t-71.5 -149.5q0 -43 21.5 -73.5t59.5 -51t90.5 -34t113.5 -23.5t125.5 -25.5t117 -45t85 -80t32.5 -132.5q0 -123 -96 -201.5t-272 -78.5q-98 0 -194.5 20.5t-188.5 85.5zM158 1395l43 43l260 -199l258 197l43 -41l-258 -254h-76z" />
<glyph unicode="&#x162;" horiz-adv-x="1050" d="M35 1319v92h979v-92h-439v-1319h-98v1319h-442zM436 -225q0 35 23.5 55t58.5 20q43 0 67.5 -30.5t24.5 -79.5q0 -70 -41 -135.5t-100 -96.5l-31 41q76 61 80 150q-35 -2 -58.5 19.5t-23.5 56.5z" />
<glyph unicode="&#x163;" horiz-adv-x="684" d="M63 922v86h156l25 237h65v-237h299v-86h-299v-613q0 -129 42 -181t145 -52q27 0 63.5 3t77.5 11l14 -80q-47 -14 -95 -17t-73 -3q-150 0 -208 68.5t-58 224.5v639h-154zM242 -225q0 35 23.5 55t58.5 20q43 0 67.5 -30.5t24.5 -79.5q0 -70 -41 -135.5t-101 -96.5l-30 41 q76 61 80 150q-35 -2 -58.5 19.5t-23.5 56.5z" />
<glyph unicode="&#x164;" horiz-adv-x="1050" d="M35 1319v92h979v-92h-439v-1319h-98v1319h-442zM223 1722l35 43l266 -172l264 170l37 -43l-258 -223h-75z" />
<glyph unicode="&#x165;" horiz-adv-x="722" d="M63 922v86h156l25 237h65v-237h299v-86h-299v-613q0 -129 42 -181t145 -52q27 0 63.5 3t77.5 11l14 -80q-47 -14 -95 -17t-73 -3q-150 0 -208 68.5t-58 224.5v639h-154zM541 1384q0 35 23.5 55.5t58.5 20.5q43 0 67.5 -30.5t24.5 -79.5q0 -70 -41 -135.5t-101 -96.5 l-30 41q76 61 80 150q-35 -2 -58.5 19t-23.5 56z" />
<glyph unicode="&#x166;" horiz-adv-x="1050" d="M35 1319v92h979v-92h-439v-518h318v-78h-318v-723h-98v723h-319v78h319v518h-442z" />
<glyph unicode="&#x167;" horiz-adv-x="684" d="M63 539v75h154v308h-154v86h156l25 237h65v-237h299v-86h-299v-308h299v-75h-299v-230q0 -127 40 -180t151 -53q23 0 57.5 3t75.5 13l18 -82q-47 -14 -91 -17t-71 -3q-147 0 -209.5 70.5t-62.5 226.5v252h-154z" />
<glyph unicode="&#x168;" horiz-adv-x="1208" d="M106 451v960h101v-944q0 -104 33.5 -178t89 -121t127 -69.5t147.5 -22.5q78 0 150.5 22.5t128 69.5t88.5 120.5t33 178.5v944h100v-962q0 -104 -37 -190.5t-103.5 -147t-158.5 -93t-201 -32.5q-111 0 -202 32.5t-156.5 94t-102.5 147.5t-37 191zM297 1618q39 63 87 97 t101 34q33 0 68 -13.5t68.5 -29.5t65.5 -29.5t56 -13.5q33 0 58.5 19.5t56.5 64.5l62 -35q-39 -72 -82 -102.5t-93 -30.5q-31 0 -63.5 12.5t-66 27.5t-66.5 28.5t-62 13.5q-39 0 -67.5 -19.5t-61.5 -60.5z" />
<glyph unicode="&#x169;" horiz-adv-x="987" d="M94 332v674h92v-652q0 -150 63.5 -214t176.5 -64q74 0 170 44t197 116v770h94v-1006h-78l-16 139q-70 -43 -124.5 -71.5t-98.5 -47t-80.5 -25.5t-71.5 -7q-156 0 -240 85t-84 259zM186 1270q39 63 87.5 97t101.5 34q33 0 67.5 -13.5t68.5 -30t65.5 -29.5t56.5 -13 q33 0 58.5 19.5t56.5 64.5l61 -35q-39 -72 -82 -102.5t-92 -30.5q-31 0 -63.5 12t-66.5 27.5t-66.5 29t-61.5 13.5q-39 0 -67.5 -19.5t-61.5 -60.5z" />
<glyph unicode="&#x16a;" horiz-adv-x="1208" d="M106 451v960h101v-944q0 -104 33.5 -178t89 -121t127 -69.5t147.5 -22.5q78 0 150.5 22.5t128 69.5t88.5 120.5t33 178.5v944h100v-962q0 -104 -37 -190.5t-103.5 -147t-158.5 -93t-201 -32.5q-111 0 -202 32.5t-156.5 94t-102.5 147.5t-37 191zM340 1575v84h522v-84 h-522z" />
<glyph unicode="&#x16b;" horiz-adv-x="987" d="M94 332v674h92v-652q0 -150 63.5 -214t176.5 -64q74 0 170 44t197 116v770h94v-1006h-78l-16 139q-70 -43 -124.5 -71.5t-98.5 -47t-80.5 -25.5t-71.5 -7q-156 0 -240 85t-84 259zM236 1214v84h522v-84h-522z" />
<glyph unicode="&#x16c;" horiz-adv-x="1208" d="M106 451v960h101v-944q0 -104 33.5 -178t89 -121t127 -69.5t147.5 -22.5q78 0 150.5 22.5t128 69.5t88.5 120.5t33 178.5v944h100v-962q0 -104 -37 -190.5t-103.5 -147t-158.5 -93t-201 -32.5q-111 0 -202 32.5t-156.5 94t-102.5 147.5t-37 191zM354 1688h80 q12 -68 64.5 -109t117.5 -41q68 0 116 36t65 114h80q-6 -39 -23.5 -79t-48.5 -73t-78 -53.5t-111 -20.5q-66 0 -112.5 20.5t-79.5 53.5t-49.5 73t-20.5 79z" />
<glyph unicode="&#x16d;" horiz-adv-x="987" d="M94 332v674h92v-652q0 -150 63.5 -214t176.5 -64q74 0 170 44t197 116v770h94v-1006h-78l-16 139q-70 -43 -124.5 -71.5t-98.5 -47t-80.5 -25.5t-71.5 -7q-156 0 -240 85t-84 259zM246 1380h80q12 -68 64 -108.5t118 -40.5q68 0 116 36t64 113h80q-6 -39 -23.5 -78.5 t-48 -72.5t-78 -53.5t-110.5 -20.5q-66 0 -113 20.5t-79.5 53.5t-49 72.5t-20.5 78.5z" />
<glyph unicode="&#x16e;" horiz-adv-x="1208" d="M106 451v960h101v-944q0 -104 33.5 -178t89 -121t127 -69.5t147.5 -22.5q78 0 150.5 22.5t128 69.5t88.5 120.5t33 178.5v944h100v-962q0 -104 -37 -190.5t-103.5 -147t-158.5 -93t-201 -32.5q-111 0 -202 32.5t-156.5 94t-102.5 147.5t-37 191zM430 1649q0 39 15.5 72.5 t41 59t59.5 40t72 14.5q39 0 74 -14.5t60.5 -40t40 -59t14.5 -72.5t-14.5 -73t-40 -59.5t-60.5 -40t-74 -14.5q-78 0 -133 54.5t-55 132.5zM489 1649q0 -53 38 -91t91 -38q55 0 92.5 38t37.5 91t-37 91t-93 38q-53 0 -91 -38t-38 -91z" />
<glyph unicode="&#x16f;" horiz-adv-x="987" d="M94 332v674h92v-652q0 -150 63.5 -214t176.5 -64q74 0 170 44t197 116v770h94v-1006h-78l-16 139q-70 -43 -124.5 -71.5t-98.5 -47t-80.5 -25.5t-71.5 -7q-156 0 -240 85t-84 259zM309 1317q0 39 15.5 72.5t41 59.5t59.5 40t73 14t73.5 -14t60 -40t40 -59.5t14.5 -72.5 t-14.5 -73t-40 -59.5t-60 -40t-73.5 -14.5q-78 0 -133.5 54.5t-55.5 132.5zM369 1317q0 -53 37.5 -91t91.5 -38q55 0 92 38t37 91t-37 91t-92 38q-53 0 -91 -38t-38 -91z" />
<glyph unicode="&#x170;" horiz-adv-x="1208" d="M106 451v960h101v-944q0 -104 33.5 -178t89 -121t127 -69.5t147.5 -22.5q78 0 150.5 22.5t128 69.5t88.5 120.5t33 178.5v944h100v-962q0 -104 -37 -190.5t-103.5 -147t-158.5 -93t-201 -32.5q-111 0 -202 32.5t-156.5 94t-102.5 147.5t-37 191zM403 1538l277 221l74 -76 l-312 -190zM643 1538l279 221l71 -76l-309 -190z" />
<glyph unicode="&#x171;" horiz-adv-x="987" d="M94 332v674h92v-652q0 -150 63.5 -214t176.5 -64q74 0 170 44t197 116v770h94v-1006h-78l-16 139q-70 -43 -124.5 -71.5t-98.5 -47t-80.5 -25.5t-71.5 -7q-156 0 -240 85t-84 259zM348 1178l162 315l98 -39l-202 -301zM555 1178l162 315l98 -39l-203 -301z" />
<glyph unicode="&#x172;" horiz-adv-x="1208" d="M106 451v960h101v-944q0 -104 33.5 -178t89 -121t127 -69.5t147.5 -22.5q78 0 150.5 22.5t128 69.5t88.5 120.5t33 178.5v944h100v-962q0 -100 -34 -182.5t-94.5 -143t-144 -95t-184.5 -40.5q-29 -41 -42 -84t-13 -76q0 -55 30.5 -81t79.5 -26q53 0 119 33l27 -61 q-31 -16 -73 -29.5t-89 -13.5q-82 0 -128 49t-46 115q0 37 15.5 81t52.5 91q-104 4 -191.5 38.5t-150 95t-97.5 144.5t-35 187z" />
<glyph unicode="&#x173;" horiz-adv-x="987" d="M94 332v674h92v-652q0 -150 63.5 -214t176.5 -64q74 0 170 44t197 116v770h94v-1006h-13q-37 -45 -53 -93t-16 -83q0 -55 30.5 -81t79.5 -26q53 0 119 33l27 -61q-31 -16 -73 -29.5t-89 -13.5q-82 0 -128 49t-46 115q0 41 18.5 91t65.5 99l-16 139q-70 -43 -124.5 -71.5 t-98.5 -47t-80.5 -25.5t-71.5 -7q-156 0 -240 85t-84 259z" />
<glyph unicode="&#x174;" horiz-adv-x="1716" d="M20 1411h107l197 -762q33 -129 65.5 -259t67.5 -259h2l137 520l201 760h104l201 -766l135 -512h4l131 514l199 764h104q-96 -356 -189 -705.5t-188 -705.5h-120l-197 741l-131 502l-180 -682l-152 -561h-119zM549 1538l268 223h76l260 -221l-37 -43l-264 170l-266 -172z " />
<glyph unicode="&#x175;" horiz-adv-x="1374" d="M18 1006h97q29 -92 55.5 -186.5t52.5 -186.5l148 -504h2q47 137 93 274.5t93 276.5q23 59 41 117.5t39 117.5h98l133 -391l134 -395h2q37 123 73.5 247t71.5 249l109 381h94l-295 -1006h-98l-158 461l-115 334h-2l-117 -349l-151 -446h-99zM410 1182l270 254h76l258 -252 l-43 -43l-258 198l-260 -200z" />
<glyph unicode="&#x176;" horiz-adv-x="1003" d="M25 1411h108l160 -332l153 -327q16 -29 29.5 -55.5t28.5 -55.5l207 442l157 328h105q-104 -221 -210 -439t-212 -437v-535h-98v530q-106 223 -213 440.5t-215 440.5zM203 1538l268 223h76l260 -221l-37 -43l-264 170l-266 -172z" />
<glyph unicode="&#x177;" horiz-adv-x="876" d="M14 1004h97q41 -117 77.5 -234t77.5 -235l154 -455h2l166 455q43 119 86 235.5t84 233.5h96q-129 -356 -259 -705.5t-259 -704.5h-98l147 410l-57 59zM125 1182l270 254h76l258 -252l-43 -43l-258 198l-260 -200z" />
<glyph unicode="&#x178;" horiz-adv-x="1003" d="M25 1411h108l160 -332l153 -327q16 -29 29.5 -55.5t28.5 -55.5l207 442l157 328h105q-104 -221 -210 -439t-212 -437v-535h-98v530q-106 223 -213 440.5t-215 440.5zM266 1608q0 27 19.5 46t44.5 19q29 0 48 -19t19 -46q0 -29 -19.5 -47.5t-47.5 -18.5q-25 0 -44.5 18.5 t-19.5 47.5zM610 1608q0 27 19.5 46t46.5 19q29 0 47 -19t18 -46q0 -29 -18 -47.5t-47 -18.5q-27 0 -46.5 18.5t-19.5 47.5z" />
<glyph unicode="&#x179;" horiz-adv-x="1056" d="M82 0v86l780 1235h-747v90h864v-88l-778 -1235h776v-88h-895zM428 1538l279 221l71 -76l-309 -190z" />
<glyph unicode="&#x17a;" horiz-adv-x="860" d="M61 0v76l609 850h-576v80h684v-76l-604 -848h604v-82h-717zM379 1178l160 315l100 -39l-205 -301z" />
<glyph unicode="&#x17b;" horiz-adv-x="1056" d="M82 0v86l780 1235h-747v90h864v-88l-778 -1235h776v-88h-895zM489 1653q0 27 19.5 47t48.5 20q33 0 52.5 -20.5t19.5 -46.5q0 -29 -19.5 -50.5t-52.5 -21.5q-29 0 -48.5 20.5t-19.5 51.5z" />
<glyph unicode="&#x17c;" horiz-adv-x="860" d="M61 0v76l609 850h-576v80h684v-76l-604 -848h604v-82h-717zM371 1305q0 27 19.5 47t47.5 20q33 0 52.5 -20.5t19.5 -46.5q0 -29 -19.5 -50.5t-52.5 -21.5q-29 0 -48 20.5t-19 51.5z" />
<glyph unicode="&#x17d;" horiz-adv-x="1056" d="M82 0v86l780 1235h-747v90h864v-88l-778 -1235h776v-88h-895zM231 1722l35 43l266 -172l265 170l37 -43l-259 -223h-75z" />
<glyph unicode="&#x17e;" horiz-adv-x="860" d="M61 0v76l609 850h-576v80h684v-76l-604 -848h604v-82h-717zM133 1395l43 43l260 -199l258 197l43 -41l-258 -254h-76z" />
<glyph unicode="&#x192;" horiz-adv-x="956" d="M-23 -166l25 80q68 -23 125 -23q98 0 156.5 70t81.5 234l79 561h-188v78h199q16 119 33.5 228t54.5 192t102.5 132.5t175.5 49.5q78 0 150 -23q-4 -12 -9.5 -30.5t-15.5 -53.5q-61 20 -127 21q-76 0 -121 -34t-72.5 -99.5t-44 -162t-32.5 -220.5h227v-78h-237l-70 -498 q-14 -102 -35.5 -185t-59.5 -141.5t-96.5 -90t-144.5 -31.5q-33 0 -77 7t-79 17z" />
<glyph unicode="&#x1a0;" horiz-adv-x="1202" d="M104 457v501q0 102 34 188.5t98.5 148t156.5 96t207 34.5q100 0 183 -27.5t147 -76.5h10q78 0 118 49t40 154v53h86v-57q0 -100 -40 -175t-140 -98q94 -119 94 -289v-507q0 -104 -36 -190.5t-100.5 -147t-156.5 -94t-205 -33.5q-115 0 -206 33.5t-155.5 96t-99.5 149.5 t-35 192zM203 467q0 -104 34.5 -178t91 -122t128 -70.5t143.5 -22.5q82 0 154.5 23.5t127 71.5t86 122t31.5 176v473q0 100 -32.5 175t-88 124t-127 72.5t-151.5 23.5q-82 0 -154.5 -23.5t-126 -72.5t-85 -124t-31.5 -175v-473z" />
<glyph unicode="&#x1a1;" horiz-adv-x="1042" d="M94 352v307q0 82 32 148.5t86 113t126 72t154 25.5q92 0 168.5 -30t130.5 -83q76 0 116.5 49.5t40.5 153.5v53h84v-57q0 -102 -42 -178t-144 -97q41 -76 41 -170v-305q0 -172 -108.5 -269t-289.5 -97q-88 0 -160.5 25.5t-124.5 73.5t-81 114.5t-29 150.5zM186 375 q0 -84 26 -141.5t68 -93.5t97 -52t117 -16q61 0 115.5 17t96.5 54t66.5 94.5t24.5 137.5v256q0 82 -28 139t-71 93t-97 52.5t-107 16.5q-55 0 -110.5 -16.5t-98.5 -52.5t-71 -93t-28 -139v-256z" />
<glyph unicode="&#x1af;" horiz-adv-x="1318" d="M106 451v960h101v-944q0 -104 33.5 -178t89 -121t127 -69.5t147.5 -22.5q78 0 150.5 22.5t128 69.5t88.5 120.5t33 178.5v944h100v-90q139 10 139 203v53h86v-57q0 -55 -11 -104.5t-38 -86.5t-70 -60.5t-106 -27.5v-792q0 -104 -37 -190.5t-103.5 -147t-158.5 -93 t-201 -32.5q-111 0 -202 32.5t-156.5 94t-102.5 147.5t-37 191z" />
<glyph unicode="&#x1b0;" horiz-adv-x="1105" d="M94 332v674h92v-652q0 -150 63.5 -214t176.5 -64q74 0 170 44t197 116v770h94v-101q66 6 102.5 55.5t36.5 147.5v53h84v-57q0 -55 -11.5 -104.5t-38 -86t-69.5 -60.5t-104 -28v-825h-78l-16 139q-70 -43 -124.5 -71.5t-98.5 -47t-80.5 -25.5t-71.5 -7q-156 0 -240 85 t-84 259z" />
<glyph unicode="&#x1fc;" horiz-adv-x="1884" d="M2 0l897 1411h956v-90h-808v-561h694v-88h-694v-584h808v-88h-907v377h-596l-239 -377h-111zM408 463h540v854zM1229 1538l278 221l72 -76l-309 -190z" />
<glyph unicode="&#x1fd;" horiz-adv-x="1622" d="M66 272q0 80 32.5 133.5t82.5 84t109.5 44t115.5 13.5h362v115q0 76 -20.5 128t-58.5 83.5t-91 45t-117 13.5q-72 0 -146.5 -20.5t-152.5 -73.5l-49 73q86 57 170 81t182 24q141 0 221 -48t115 -130q49 84 136 131t204 47q84 0 153.5 -25.5t121 -72t79 -114t27.5 -149.5 v-186h-682v-113q0 -80 26.5 -135t69.5 -89t98.5 -49t114.5 -15q84 0 152 27.5t121 78.5l57 -63q-66 -63 -148.5 -93t-185.5 -30q-113 0 -202 41t-148 129q-86 -59 -153.5 -93t-120 -50.5t-91 -21.5t-69.5 -5q-141 0 -228 71.5t-87 212.5zM162 272q0 -53 18.5 -91t50 -62.5 t74.5 -36.5t90 -12q43 0 94.5 14t103.5 35.5t100 49.5t89 52q-6 29 -10 66t-4 78v104h-332q-41 0 -88 -4t-89 -23.5t-69.5 -59.5t-27.5 -110zM799 1178l159 315l101 -39l-205 -301zM860 547h588v82q0 82 -24.5 140t-65.5 95t-92.5 53.5t-104.5 16.5q-55 0 -109.5 -17.5 t-96.5 -55.5t-68.5 -96t-26.5 -138v-80z" />
<glyph unicode="&#x1fe;" horiz-adv-x="1202" d="M102 20l95 142q-92 121 -93 295v501q0 102 34 188.5t98.5 148t156.5 96t207 34.5q111 0 201 -34.5t155 -94.5l88 129l56 -36l-96 -144q94 -119 94 -287v-507q0 -104 -36 -190.5t-100.5 -147t-156.5 -94t-205 -33.5t-202 32.5t-154 92.5l-86 -127zM203 467q0 -66 14 -120 t39 -95l647 962q-57 61 -136 91t-167 30q-82 0 -154.5 -23.5t-126 -72.5t-85 -124t-31.5 -175v-473zM299 195q59 -63 138 -92t163 -29q82 0 154.5 23.5t127 71.5t86 122t31.5 176v473q0 127 -55 217zM526 1538l279 221l72 -76l-310 -190z" />
<glyph unicode="&#x1ff;" horiz-adv-x="980" d="M94 352v307q0 82 32 148.5t86 113t126 72t154 25.5q84 0 154.5 -24.5t123.5 -69.5l70 92l47 -35l-76 -100q35 -45 55.5 -100.5t20.5 -121.5v-305q0 -172 -108.5 -269t-289.5 -97q-86 0 -155.5 23.5t-120.5 66.5l-70 -92l-47 37l74 98q-76 94 -76 231zM186 375 q0 -55 11.5 -98.5t31.5 -77.5l486 649q-45 45 -103.5 64.5t-117.5 19.5q-55 0 -110.5 -16.5t-98.5 -52.5t-71 -93t-28 -139v-256zM266 152q43 -43 102.5 -61.5t125.5 -18.5q61 0 115.5 17t96.5 54t66.5 94.5t24.5 137.5v256q0 102 -45 170zM436 1178l162 315l98 -39 l-202 -301z" />
<glyph unicode="&#x218;" horiz-adv-x="1097" d="M61 127l56 76q94 -57 204.5 -92t227.5 -35q80 0 149.5 19.5t120.5 56t81 92t30 127.5q0 82 -34 134t-88 85t-124 51t-139 33q-82 14 -163 39.5t-144.5 68.5t-103.5 108.5t-40 162.5q0 84 31 153.5t88 118.5t140 77t186 28q113 0 219 -20.5t200 -72.5l-45 -86 q-88 47 -186 67.5t-197 20.5q-66 0 -126 -16t-106 -52t-74.5 -91.5t-28.5 -130.5q0 -74 33.5 -122t89 -80t124 -50.5t136.5 -32.5q96 -20 179 -47t144.5 -70t96 -109.5t34.5 -166.5q0 -90 -34.5 -161t-98 -120t-153 -75.5t-199.5 -26.5q-139 0 -258 35.5t-228 103.5z M461 -225q0 35 23.5 55t58.5 20q43 0 67.5 -30.5t24.5 -79.5q0 -70 -41 -135.5t-100 -96.5l-31 41q76 61 80 150q-35 -2 -58.5 19.5t-23.5 56.5z" />
<glyph unicode="&#x219;" horiz-adv-x="899" d="M78 94l49 72q76 -53 158 -78t180 -25q45 0 94 10.5t88 35t64.5 64.5t25.5 99q0 86 -67.5 130t-227.5 71q-61 10 -122.5 25.5t-111.5 43t-82 74t-32 117.5q0 125 93.5 205t252.5 80q104 0 186.5 -19.5t151.5 -66.5l-47 -70q-127 76 -285 76q-119 0 -190.5 -55.5 t-71.5 -149.5q0 -43 21.5 -73.5t59.5 -51t90.5 -34t113.5 -23.5t125.5 -25.5t117 -45t85 -80t32.5 -132.5q0 -123 -96 -201.5t-272 -78.5q-98 0 -194.5 20.5t-188.5 85.5zM362 -225q0 35 24 55t58 20q43 0 68 -30.5t25 -79.5q0 -70 -41 -135.5t-101 -96.5l-30 41 q76 61 79 150q-35 -2 -58.5 19.5t-23.5 56.5z" />
<glyph unicode="&#x259;" horiz-adv-x="954" d="M98 350v189h680v96q0 84 -23.5 141.5t-63.5 93t-92 51t-112 15.5q-86 0 -159.5 -27.5t-126.5 -79.5l-56 64q68 66 154 95.5t190 29.5q86 0 156 -23.5t121 -69.5t78.5 -116t27.5 -160v-284q0 -86 -29.5 -156t-81.5 -119t-124 -75.5t-158 -26.5q-84 0 -154.5 25.5 t-120.5 72.5t-78 113.5t-28 150.5zM190 375q0 -84 25 -141.5t66 -94.5t93 -53t105 -16q55 0 108.5 17t96.5 55t68.5 96.5t25.5 138.5v84h-588v-86z" />
<glyph unicode="&#x2b9;" horiz-adv-x="397" d="M63 883l193 522l127 -31l-252 -508z" />
<glyph unicode="&#x2c6;" horiz-adv-x="987" d="M193 1182l270 254h76l258 -252l-43 -43l-258 198l-260 -200z" />
<glyph unicode="&#x2c7;" horiz-adv-x="987" d="M193 1395l43 43l260 -199l258 197l43 -41l-258 -254h-76z" />
<glyph unicode="&#x2d8;" horiz-adv-x="1019" d="M258 1380h80q12 -68 64.5 -108.5t117.5 -40.5q68 0 116 36t64 113h80q-6 -39 -23.5 -78.5t-48 -72.5t-77.5 -53.5t-111 -20.5q-66 0 -113 20.5t-79.5 53.5t-49 72.5t-20.5 78.5z" />
<glyph unicode="&#x2d9;" horiz-adv-x="970" d="M432 1305q0 27 19.5 47t48.5 20q33 0 52 -20.5t19 -46.5q0 -29 -19.5 -50.5t-51.5 -21.5q-29 0 -48.5 20.5t-19.5 51.5z" />
<glyph unicode="&#x2da;" horiz-adv-x="970" d="M324 1317q0 39 15 72.5t41 59.5t59.5 40t72.5 14t74 -14t60.5 -40t39.5 -59.5t14 -72.5t-14 -73t-39.5 -59.5t-60.5 -40t-74 -14.5q-78 0 -133 54.5t-55 132.5zM383 1317q0 -53 38 -91t91 -38q55 0 92 38t37 91t-37 91t-92 38q-53 0 -91 -38t-38 -91z" />
<glyph unicode="&#x2db;" horiz-adv-x="827" d="M252 -190q0 41 19.5 91t66.5 101h61l2 -2q-37 -45 -53 -93t-16 -83q0 -55 30.5 -81t79.5 -26q53 0 119 33l27 -61q-31 -16 -73 -29.5t-89 -13.5q-82 0 -128 49t-46 115z" />
<glyph unicode="&#x2dc;" horiz-adv-x="987" d="M193 1270q39 63 87 97t101 34q33 0 67.5 -13.5t68.5 -30t65.5 -29.5t56.5 -13q33 0 58.5 19.5t56.5 64.5l61 -35q-39 -72 -82 -102.5t-92 -30.5q-31 0 -63.5 12t-66.5 27.5t-66.5 29t-61.5 13.5q-39 0 -67.5 -19.5t-61.5 -60.5z" />
<glyph unicode="&#x2dd;" horiz-adv-x="1017" d="M362 1178l162 315l99 -39l-203 -301zM569 1178l162 315l98 -39l-202 -301z" />
<glyph unicode="&#x384;" horiz-adv-x="987" d="M422 1178l160 315l100 -39l-205 -301z" />
<glyph unicode="&#x385;" horiz-adv-x="954" d="M229 1331q0 29 18.5 47.5t45.5 18.5q29 0 47 -18.5t18 -47.5q0 -27 -18 -46t-47 -19q-27 0 -45.5 19.5t-18.5 45.5zM367 1200l161 313l99 -38l-203 -299zM610 1331q0 29 19.5 47.5t46.5 18.5t46 -18.5t19 -47.5q0 -27 -19.5 -46t-45.5 -19q-27 0 -46.5 19.5t-19.5 45.5z " />
<glyph unicode="&#x386;" horiz-adv-x="1163" d="M14 1130l160 316l100 -39l-204 -301zM41 0l487 1411h111l491 -1411h-104q-29 86 -59.5 170t-61.5 170h-645q-29 -86 -57.5 -170t-57.5 -170h-104zM293 430h581q-8 25 -29.5 91.5t-51 153.5t-63.5 185t-63.5 186.5t-52 154t-30.5 89.5h-2q-8 -25 -30 -91t-51.5 -153.5 t-62 -185.5t-62.5 -185t-52.5 -153.5t-30.5 -91.5z" />
<glyph unicode="&#x387;" horiz-adv-x="407" d="M119 731q0 33 22.5 56.5t59.5 23.5q35 0 59.5 -23.5t24.5 -56.5q0 -35 -22.5 -58.5t-59.5 -23.5q-39 0 -61.5 23.5t-22.5 58.5z" />
<glyph unicode="&#x388;" horiz-adv-x="1089" d="M-248 1130l160 316l100 -39l-205 -301zM117 0v1411h907v-90h-809v-561h696v-88h-696v-584h809v-88h-907z" />
<glyph unicode="&#x389;" horiz-adv-x="1220" d="M-260 1130l160 316l100 -39l-205 -301zM113 0v1411h96v-649h799v649h102v-1411h-102v674h-799v-674h-96z" />
<glyph unicode="&#x38a;" horiz-adv-x="442" d="M-213 1130l160 316l100 -39l-205 -301zM172 0v1411h98v-1411h-98z" />
<glyph unicode="&#x38c;" horiz-adv-x="1202" d="M-182 1130l159 316l101 -39l-205 -301zM104 457v501q0 102 34 188.5t98.5 148t156.5 96t207 34.5q113 0 205 -34.5t156.5 -97t100.5 -148.5t36 -187v-507q0 -104 -36 -190.5t-100.5 -147t-156.5 -94t-205 -33.5q-115 0 -206 33.5t-155.5 96t-99.5 149.5t-35 192zM203 467 q0 -104 34.5 -178t91 -122t128 -70.5t143.5 -22.5q82 0 154.5 23.5t127 71.5t86 122t31.5 176v473q0 100 -32.5 175t-88 124t-127 72.5t-151.5 23.5q-82 0 -154.5 -23.5t-126 -72.5t-85 -124t-31.5 -175v-473z" />
<glyph unicode="&#x38e;" horiz-adv-x="1003" d="M-268 1130l159 316l101 -39l-205 -301zM25 1411h108l160 -332l153 -327q16 -29 29.5 -55.5t28.5 -55.5l207 442l157 328h105q-104 -221 -210 -439t-212 -437v-535h-98v530q-106 223 -213 440.5t-215 440.5z" />
<glyph unicode="&#x38f;" horiz-adv-x="1202" d="M-186 1130l159 316l101 -39l-205 -301zM72 0v90h243q-102 57 -158.5 157.5t-56.5 229.5v484q0 102 36 187t102.5 146.5t158.5 96t205 34.5q111 0 203 -34.5t159.5 -96t104.5 -147.5t37 -186v-488q0 -129 -55.5 -230.5t-157.5 -152.5h248v-90h-404v104q57 14 106.5 47 t86.5 81.5t57.5 112t20.5 142.5v453q0 100 -34 175t-90.5 124t-130 72.5t-151.5 23.5q-82 0 -155.5 -23.5t-129 -72.5t-87 -124t-31.5 -175v-453q0 -80 23.5 -143t62.5 -110.5t88 -79t100 -48.5v-106h-401z" />
<glyph unicode="&#x390;" horiz-adv-x="376" d="M-43 1331q0 29 18.5 47.5t44.5 18.5q29 0 47.5 -18.5t18.5 -47.5q0 -27 -18.5 -46t-47.5 -19q-27 0 -45 19.5t-18 45.5zM94 1200l162 313l98 -38l-202 -299zM143 0v1006h90v-1006h-90zM338 1331q0 29 19.5 47.5t45.5 18.5q27 0 46.5 -18.5t19.5 -47.5q0 -27 -19.5 -46 t-46.5 -19t-46 19.5t-19 45.5z" />
<glyph unicode="&#x391;" horiz-adv-x="1163" d="M41 0l487 1411h111l491 -1411h-104q-29 86 -59.5 170t-61.5 170h-645q-29 -86 -57.5 -170t-57.5 -170h-104zM293 430h581q-8 25 -29.5 91.5t-51 153.5t-63.5 185t-63.5 186.5t-52 154t-30.5 89.5h-2q-8 -25 -30 -91t-51.5 -153.5t-62 -185.5t-62.5 -185t-52.5 -153.5 t-30.5 -91.5z" />
<glyph unicode="&#x392;" horiz-adv-x="1175" d="M115 0v1411l557 -2q98 0 170.5 -28.5t122 -77t73 -113t23.5 -135.5q0 -43 -10.5 -88t-36 -87t-68.5 -78t-106 -59q70 -23 115.5 -62.5t74.5 -89.5t41 -103.5t12 -102.5q0 -76 -25.5 -145.5t-74.5 -123t-122 -85t-165 -31.5h-581zM213 88h461q66 0 122 18.5t98 55.5 t66.5 93t24.5 130q0 72 -25.5 129t-67.5 98t-97.5 63.5t-116.5 22.5h-465v-610zM213 788h459q53 0 105 16.5t92 49.5t64.5 82t24.5 117q0 74 -25.5 124t-68.5 82.5t-99 47t-118 14.5h-434v-533z" />
<glyph unicode="&#x393;" horiz-adv-x="1028" d="M123 0v1411h907v-90h-811v-1321h-96z" />
<glyph unicode="&#x394;" horiz-adv-x="1163" d="M29 0l497 1411h111q127 -356 252 -705.5t250 -705.5h-1110zM164 88h837l-208 600l-131 381l-82 219q-51 -147 -101.5 -295.5t-103.5 -298.5z" />
<glyph unicode="&#x395;" horiz-adv-x="1089" d="M117 0v1411h907v-90h-809v-561h696v-88h-696v-584h809v-88h-907z" />
<glyph unicode="&#x396;" horiz-adv-x="1056" d="M82 0v86l780 1235h-747v90h864v-88l-778 -1235h776v-88h-895z" />
<glyph unicode="&#x397;" horiz-adv-x="1220" d="M113 0v1411h96v-649h799v649h102v-1411h-102v674h-799v-674h-96z" />
<glyph unicode="&#x398;" horiz-adv-x="1189" d="M102 457v501q0 102 35 188.5t99.5 148t156.5 96t207 34.5q113 0 204 -34.5t156.5 -97t101.5 -148.5t36 -187v-507q0 -104 -36 -190.5t-101.5 -147t-156.5 -94t-204 -33.5q-115 0 -207 33.5t-156.5 96t-99.5 149.5t-35 192zM201 467q0 -104 34.5 -178t92 -122t128 -70.5 t144.5 -22.5q82 0 153.5 23.5t126 71.5t86 122t31.5 176v473q0 100 -32.5 175t-88 124t-127 72.5t-149.5 23.5q-84 0 -156.5 -23.5t-126 -72.5t-85 -124t-31.5 -175v-473zM287 670v94h620v-94h-620z" />
<glyph unicode="&#x399;" horiz-adv-x="442" d="M172 0v1411h98v-1411h-98z" />
<glyph unicode="&#x39a;" horiz-adv-x="1103" d="M113 0v1411h98v-874l709 874h118l-438 -545l502 -866h-115l-455 784q-80 -98 -159.5 -198.5t-161.5 -200.5v-385h-98z" />
<glyph unicode="&#x39b;" horiz-adv-x="1148" d="M27 0q123 356 243.5 705.5t243.5 705.5h111l491 -1411h-104q-66 190 -130.5 377.5t-129.5 380.5q-47 133 -93.5 274.5t-91.5 274.5l-178 -547l-258 -760h-104z" />
<glyph unicode="&#x39c;" horiz-adv-x="1447" d="M113 0v1411h98q78 -162 156.5 -320.5t156.5 -318.5q51 -106 101.5 -211.5t103.5 -210.5l74 148l129 274q78 160 156.5 320.5t152.5 318.5h92v-1411h-98v1182h-2q-59 -127 -113.5 -242t-107.5 -225q-63 -127 -122 -247t-118 -243h-82l-250 502l-225 457h-4v-1184h-98z" />
<glyph unicode="&#x39d;" horiz-adv-x="1255" d="M115 0v1411h98l524 -790q76 -115 151 -228.5t152 -226.5v1245h99v-1411h-105q-129 195 -257 388.5t-259 389.5q-76 115 -150.5 230.5t-154.5 228.5v-1237h-98z" />
<glyph unicode="&#x39e;" horiz-adv-x="1058" d="M84 0v88h387v582h-270v90h270v559h-387v94h885v-94h-406v-559h289v-90h-289v-582h406v-88h-885z" />
<glyph unicode="&#x39f;" horiz-adv-x="1202" d="M104 457v501q0 102 34 188.5t98.5 148t156.5 96t207 34.5q113 0 205 -34.5t156.5 -97t100.5 -148.5t36 -187v-507q0 -104 -36 -190.5t-100.5 -147t-156.5 -94t-205 -33.5q-115 0 -206 33.5t-155.5 96t-99.5 149.5t-35 192zM203 467q0 -104 34.5 -178t91 -122t128 -70.5 t143.5 -22.5q82 0 154.5 23.5t127 71.5t86 122t31.5 176v473q0 100 -32.5 175t-88 124t-127 72.5t-151.5 23.5q-82 0 -154.5 -23.5t-126 -72.5t-85 -124t-31.5 -175v-473z" />
<glyph unicode="&#x3a0;" horiz-adv-x="1208" d="M106 0v1411h998v-1411h-100v1321h-799v-1321h-99z" />
<glyph unicode="&#x3a1;" horiz-adv-x="1103" d="M113 0v1411h553q98 0 171.5 -36t123 -93t73 -128.5t23.5 -145.5t-25.5 -145.5t-76 -129t-123 -92.5t-166.5 -35h-457v-606h-96zM209 698h438q63 0 119.5 20.5t98.5 60.5t66.5 97.5t24.5 131.5q0 72 -24.5 129t-66.5 98t-98 63.5t-120 22.5h-438v-623z" />
<glyph unicode="&#x3a3;" horiz-adv-x="999" d="M66 0v94l376 641l-376 586v92h849v-94h-735l375 -584l-385 -647h762v-88h-866z" />
<glyph unicode="&#x3a4;" horiz-adv-x="1050" d="M35 1319v92h979v-92h-439v-1319h-98v1319h-442z" />
<glyph unicode="&#x3a5;" horiz-adv-x="1003" d="M25 1411h108l160 -332l153 -327q16 -29 29.5 -55.5t28.5 -55.5l207 442l157 328h105q-104 -221 -210 -439t-212 -437v-535h-98v530q-106 223 -213 440.5t-215 440.5z" />
<glyph unicode="&#x3a6;" horiz-adv-x="1486" d="M109 643v203q0 100 36.5 193.5t109.5 164t182.5 113.5t256.5 47v61h97v-61q147 -2 256.5 -45t182.5 -114.5t109.5 -165t36.5 -193.5v-203q0 -104 -38 -197.5t-111.5 -165t-183 -115.5t-252.5 -46v-119h-97v119q-143 2 -252.5 46t-183.5 114.5t-111.5 165t-37.5 198.5z M207 647q0 -102 37 -183t101.5 -137.5t154.5 -87t194 -30.5v1063q-113 0 -203 -32t-153.5 -89t-97 -139t-33.5 -183v-182zM791 209q104 0 194 30.5t154.5 87t101.5 137.5t37 183v182q0 100 -34 182.5t-97.5 139.5t-153.5 89t-202 32v-1063z" />
<glyph unicode="&#x3a7;" horiz-adv-x="1026" d="M23 0l436 725l-406 686h115l344 -600l344 600h115l-406 -686l436 -725h-114l-375 637l-375 -637h-114z" />
<glyph unicode="&#x3a8;" horiz-adv-x="1417" d="M106 772v639h99v-625q0 -102 43 -178t109.5 -125t147.5 -73.5t154 -26.5v1040h99v-1040q74 2 154.5 25.5t147 72.5t110.5 125t44 178v627h99v-641q0 -104 -45 -190t-122 -148.5t-177.5 -99.5t-210.5 -41v-291h-99v293q-111 2 -210 38t-175.5 99.5t-122 150.5t-45.5 191z " />
<glyph unicode="&#x3a9;" horiz-adv-x="1202" d="M72 0v90h243q-102 57 -158.5 157.5t-56.5 229.5v484q0 102 36 187t102.5 146.5t158.5 96t205 34.5q111 0 203 -34.5t159.5 -96t104.5 -147.5t37 -186v-488q0 -129 -55.5 -230.5t-157.5 -152.5h248v-90h-404v104q57 14 106.5 47t86.5 81.5t57.5 112t20.5 142.5v453 q0 100 -34 175t-90.5 124t-130 72.5t-151.5 23.5q-82 0 -155.5 -23.5t-129 -72.5t-87 -124t-31.5 -175v-453q0 -80 23.5 -143t62.5 -110.5t88 -79t100 -48.5v-106h-401z" />
<glyph unicode="&#x3aa;" horiz-adv-x="442" d="M-10 1647q0 29 19.5 47t43.5 18q29 0 48.5 -18t19.5 -47q0 -27 -19.5 -46.5t-48.5 -19.5q-25 0 -44 19.5t-19 46.5zM172 0v1411h98v-1411h-98zM334 1647q0 29 19.5 47t45.5 18q29 0 47.5 -18t18.5 -47q0 -27 -18.5 -46.5t-47.5 -19.5q-27 0 -46 19.5t-19 46.5z" />
<glyph unicode="&#x3ab;" horiz-adv-x="1003" d="M25 1411h108l160 -332l153 -327q16 -29 29.5 -55.5t28.5 -55.5l207 442l157 328h105q-104 -221 -210 -439t-212 -437v-535h-98v530q-106 223 -213 440.5t-215 440.5zM264 1647q0 29 19.5 47t44.5 18q29 0 48 -18t19 -47q0 -27 -19.5 -46.5t-47.5 -19.5q-25 0 -44.5 19.5 t-19.5 46.5zM608 1647q0 29 19.5 47t46.5 18q29 0 47 -18t18 -47q0 -27 -18.5 -46.5t-46.5 -19.5q-27 0 -46.5 19.5t-19.5 46.5z" />
<glyph unicode="&#x3ac;" horiz-adv-x="983" d="M92 330v346q0 172 89 257t229 85q29 0 64.5 -4t80.5 -17.5t103.5 -39t132.5 -68.5l16 115h74v-1004h-74l-16 133q-74 -49 -133.5 -77.5t-105.5 -44t-82 -19.5t-64 -4q-147 0 -230.5 84t-83.5 258zM182 354q0 -145 58.5 -212.5t173.5 -65.5q72 0 171 39t206 116v562 q-104 70 -205 104.5t-168 34.5q-115 0 -175.5 -68.5t-60.5 -212.5v-297zM430 1178l160 315l100 -39l-205 -301z" />
<glyph unicode="&#x3ad;" horiz-adv-x="854" d="M102 285q0 20 6.5 53t24 67.5t50 67.5t85.5 51q-53 20 -82.5 48t-44 59t-17.5 59.5t-3 48.5q0 49 22.5 99.5t67.5 90.5t111.5 64.5t156.5 24.5q88 0 171 -26.5t149 -82.5l-58 -69q-109 92 -258 92q-55 0 -104 -14.5t-86 -41t-58.5 -62.5t-21.5 -79q0 -86 56.5 -129 t152.5 -43h168v-82h-184q-43 0 -81 -12t-68 -37.5t-47 -63.5t-17 -89q0 -94 78.5 -150.5t201.5 -56.5q80 0 153.5 23.5t127.5 66.5l53 -66q-78 -59 -162 -82.5t-176 -23.5q-88 0 -156.5 22.5t-114.5 62.5t-71 94t-25 116zM397 1178l160 315l100 -39l-204 -301z" />
<glyph unicode="&#x3ae;" horiz-adv-x="983" d="M98 0v1006h76l16 -140q72 43 128.5 73t101.5 47.5t82.5 24.5t72.5 7q150 0 232 -85t82 -259v-674h-92v651q0 150 -62.5 214.5t-177.5 62.5q-74 0 -170 -44t-197 -112v-772h-92zM381 1178l160 315l100 -39l-205 -301z" />
<glyph unicode="&#x3af;" horiz-adv-x="376" d="M143 0v1006h90v-1006h-90zM156 1178l159 315l101 -39l-205 -301z" />
<glyph unicode="&#x3b0;" horiz-adv-x="985" d="M96 352v656h92v-631q0 -82 28 -139.5t71 -93t98 -52t111 -16.5q55 0 109 16.5t97 52t70 93t27 139.5v631h90v-654q0 -90 -32 -157.5t-87 -113.5t-127 -69.5t-151 -23.5q-80 0 -152 24.5t-126 71.5t-86 113.5t-32 152.5zM233 1331q0 29 18.5 47.5t45.5 18.5q29 0 47 -18.5 t18 -47.5q0 -27 -18 -46t-47 -19q-27 0 -45.5 19.5t-18.5 45.5zM371 1200l161 313l99 -38l-203 -299zM614 1331q0 29 19.5 47.5t46.5 18.5t46 -18.5t19 -47.5q0 -27 -19 -46t-46 -19t-46.5 19.5t-19.5 45.5z" />
<glyph unicode="&#x3b1;" horiz-adv-x="983" d="M92 330v346q0 172 89 257t229 85q29 0 64.5 -4t80.5 -17.5t103.5 -39t132.5 -68.5l16 115h74v-1004h-74l-16 133q-74 -49 -133.5 -77.5t-105.5 -44t-82 -19.5t-64 -4q-147 0 -230.5 84t-83.5 258zM182 354q0 -145 58.5 -212.5t173.5 -65.5q72 0 171 39t206 116v562 q-104 70 -205 104.5t-168 34.5q-115 0 -175.5 -68.5t-60.5 -212.5v-297z" />
<glyph unicode="&#x3b2;" horiz-adv-x="980" d="M102 0v1081q0 86 28 156t77 119t117.5 75.5t148.5 26.5q104 0 175 -32.5t113 -82t59.5 -108.5t17.5 -111q0 -29 -6.5 -66.5t-22.5 -76.5t-48 -75t-81 -60q61 -16 102 -53t65.5 -82t34 -95.5t9.5 -95.5v-182q0 -170 -84 -260t-246 -90q-59 0 -152.5 26.5t-213.5 100.5 l-17 -115h-76zM193 211q98 -59 196 -98t178 -39q125 0 179.5 71.5t54.5 200.5v174q0 129 -69.5 197.5t-199.5 68.5h-149v82h137q61 0 104.5 25t71 62.5t40 81.5t12.5 81q0 43 -14.5 89t-47.5 84t-85 62.5t-128 24.5q-78 0 -131 -28.5t-87 -72.5t-48 -97.5t-14 -102.5v-866z " />
<glyph unicode="&#x3b3;" horiz-adv-x="880" d="M6 1004q41 10 64 10q45 0 72.5 -23t47.5 -82q66 -180 132.5 -377.5t132.5 -377.5h4q78 205 157.5 426t157.5 424h100q-94 -233 -186 -484.5t-186 -484.5v-453h-92v443q-80 207 -131.5 346t-84 232t-52 151.5t-36.5 105.5q-16 45 -30.5 56.5t-42.5 11.5h-9.5t-9.5 -2z" />
<glyph unicode="&#x3b4;" horiz-adv-x="978" d="M94 350v246q0 145 74 242.5t192 134.5q-55 25 -89.5 53.5t-54 59t-26 59.5t-6.5 53q0 117 85 191.5t251 74.5q86 0 161 -20.5t134 -54.5l-45 -76q-59 33 -116.5 50t-129.5 17q-98 0 -168.5 -42t-70.5 -136q0 -70 69.5 -122t188.5 -87q82 -25 146.5 -56.5t108.5 -77.5 t66.5 -110.5t22.5 -152.5v-248q0 -82 -30 -148.5t-83 -113.5t-126 -72.5t-159 -25.5t-158.5 25.5t-124.5 73.5t-82 114.5t-30 148.5zM186 375q0 -84 27 -142.5t71 -95.5t98 -53t110 -16q59 0 114.5 16t97 53t67.5 95.5t26 142.5v192q0 84 -20.5 143.5t-62.5 99.5 t-104.5 66.5t-148.5 45.5q-145 -35 -210 -126t-65 -233v-188z" />
<glyph unicode="&#x3b5;" horiz-adv-x="854" d="M102 285q0 20 6.5 53t24 67.5t50 67.5t85.5 51q-53 20 -82.5 48t-44 59t-17.5 59.5t-3 48.5q0 49 22.5 99.5t67.5 90.5t111.5 64.5t156.5 24.5q88 0 171 -26.5t149 -82.5l-58 -69q-109 92 -258 92q-55 0 -104 -14.5t-86 -41t-58.5 -62.5t-21.5 -79q0 -86 56.5 -129 t152.5 -43h168v-82h-184q-43 0 -81 -12t-68 -37.5t-47 -63.5t-17 -89q0 -94 78.5 -150.5t201.5 -56.5q80 0 153.5 23.5t127.5 66.5l53 -66q-78 -59 -162 -82.5t-176 -23.5q-88 0 -156.5 22.5t-114.5 62.5t-71 94t-25 116z" />
<glyph unicode="&#x3b6;" horiz-adv-x="790" d="M80 406q-2 94 34 203.5t115.5 231.5t204.5 252t301 269h-610v78h729v-76q-150 -119 -275.5 -242t-217 -244.5t-141.5 -236.5t-48 -215q2 -119 55.5 -189.5t134 -107.5t179 -48t190.5 -11h35q2 -4 7 -16.5t11.5 -25t12.5 -23.5t8 -15q-23 -33 -45.5 -79t-41 -95 t-33.5 -99.5t-26 -93.5l-84 19q6 33 19.5 79t31 95t38 96t43.5 80q-115 -2 -226.5 15.5t-199.5 64.5t-143.5 128t-57.5 206z" />
<glyph unicode="&#x3b7;" horiz-adv-x="983" d="M98 0v1006h76l16 -140q72 43 128.5 73t101.5 47.5t82.5 24.5t72.5 7q150 0 232 -85t82 -259v-674h-92v651q0 150 -62.5 214.5t-177.5 62.5q-74 0 -170 -44t-197 -112v-772h-92z" />
<glyph unicode="&#x3b8;" horiz-adv-x="974" d="M92 348v752q0 82 33 147.5t88 111.5t127 70.5t149 24.5q80 0 152 -24.5t126 -70.5t86 -111.5t32 -147.5v-748q0 -86 -30 -153.5t-82 -114.5t-125 -71.5t-161 -24.5q-86 0 -157.5 25.5t-124.5 72.5t-83 113.5t-30 148.5zM184 375q0 -84 27 -141.5t70 -93.5t98 -52t113 -16 q61 0 115.5 17t96 54t66.5 94.5t25 137.5v348h-611v-348zM184 803h611v264q0 82 -28 140.5t-71 94t-97 52t-107 16.5q-55 0 -110.5 -16.5t-98.5 -52t-71 -94t-28 -140.5v-264z" />
<glyph unicode="&#x3b9;" horiz-adv-x="376" d="M143 0v1006h90v-1006h-90z" />
<glyph unicode="&#x3ba;" horiz-adv-x="966" d="M133 0v1008h92v-449h271q59 0 109 26.5t85 121.5l113 301h92l-107 -287q-27 -72 -56.5 -124t-88.5 -69q37 -8 60.5 -26.5t41 -44t30.5 -58t26 -69.5l114 -330h-96l-108 317q-16 49 -37 81t-45.5 49.5t-53 23.5t-65.5 6h-285v-477h-92z" />
<glyph unicode="&#x3bb;" horiz-adv-x="989" d="M94 8v602q0 170 97.5 260.5t259.5 90.5q59 0 140 -16.5t204 -76.5v203q0 154 -68 226.5t-209 72.5q-74 0 -149.5 -26.5t-128.5 -57.5l-41 74q74 45 162 71.5t165 26.5q190 0 275.5 -95t85.5 -276v-1087h-92v772q-109 53 -191 77.5t-147 24.5q-270 0 -271 -286v-580h-92z " />
<glyph unicode="&#x3bc;" horiz-adv-x="995" d="M100 296.5v709.5h93v-650q0 -150 63 -214t178 -64q74 0 168 44t199 116v768h92v-1006h-84l-8 137q-70 -43 -124 -72.5t-99.5 -46t-82 -23.5t-71.5 -7q-160 0 -231 96v-500h-91q-2 356 -2 712.5z" />
<glyph unicode="&#x3bd;" horiz-adv-x="882" d="M25 1006h100l135 -381q45 -127 87 -251t89 -253q6 16 14.5 37.5t27 73t51 142.5t85.5 249q35 96 70 191t66 192h102q-92 -252 -183 -504t-184 -502h-98q-94 250 -182 502t-180 504z" />
<glyph unicode="&#x3be;" horiz-adv-x="851" d="M100 416q0 41 11.5 96t41 111.5t83 105.5t137.5 78q-76 20 -122 59t-71.5 84t-34 89t-8.5 77q0 74 31 135.5t85 107.5t131 71.5t171 25.5q29 0 65.5 -3t77.5 -10t84 -19.5t82 -30.5l-39 -80q-70 35 -140.5 47t-131.5 12q-63 0 -120.5 -17.5t-102.5 -50t-72 -80.5 t-29 -110q-2 -72 27 -122t77 -84t108.5 -49t121.5 -15h193v-80h-230q-78 0 -139 -27.5t-106 -76t-69 -111t-24 -131.5q0 -117 55.5 -186.5t140.5 -105.5t187.5 -47t196.5 -11h41l43 -72q-25 -35 -47.5 -80t-42 -95t-34.5 -100.5t-23 -93.5l-87 21q6 31 17.5 73.5t27 89 t36 92.5t44.5 83q-133 -2 -249.5 18.5t-204.5 70.5t-138.5 133t-50.5 208z" />
<glyph unicode="&#x3bf;" horiz-adv-x="980" d="M94 352v307q0 82 32 148.5t86 113t126 72t154 25.5q84 0 156.5 -25.5t125.5 -72t83 -113t30 -148.5v-305q0 -172 -108.5 -269t-289.5 -97q-88 0 -160.5 25.5t-124.5 73.5t-81 114.5t-29 150.5zM186 375q0 -84 26 -141.5t68 -93.5t97 -52t117 -16q61 0 115.5 17t96.5 54 t66.5 94.5t24.5 137.5v256q0 82 -28 139t-71 93t-97 52.5t-107 16.5q-55 0 -110.5 -16.5t-98.5 -52.5t-71 -93t-28 -139v-256z" />
<glyph unicode="&#x3c0;" horiz-adv-x="989" d="M102 0v1006h787v-1006h-90v922h-606v-922h-91z" />
<glyph unicode="&#x3c1;" horiz-adv-x="976" d="M96 -418v1082q0 82 33 147.5t87 111.5t125 70.5t146 24.5q76 0 148 -24.5t127 -70.5t89 -112t34 -147v-324q0 -170 -94.5 -261t-253.5 -91q-55 0 -141.5 16t-209.5 78v-500h-90zM184 631l2 -455q111 -59 195 -80.5t149 -21.5q264 -2 265 291l-2 266q0 82 -28 139t-72 93 t-98.5 52.5t-105.5 16.5q-53 0 -106 -16.5t-98 -52.5t-73 -93t-28 -139z" />
<glyph unicode="&#x3c2;" horiz-adv-x="899" d="M78 94l49 72q76 -53 158 -78t180 -25q45 0 94 10.5t88 35t64.5 64.5t25.5 99q0 43 -15 73t-41 51.5t-60.5 34.5t-73.5 24l-105 18q-61 10 -122.5 25.5t-111.5 44t-82 74t-32 116.5q0 125 93.5 204t252.5 79q104 0 186.5 -18.5t151.5 -65.5l-47 -70q-127 76 -285 76 q-119 0 -190.5 -55.5t-71.5 -149.5q0 -43 21.5 -73.5t59.5 -51t90.5 -34t113.5 -23.5t125.5 -25.5t117 -45t85 -80t32.5 -132.5q0 -123 -96 -201.5t-272 -78.5q-98 0 -194.5 20.5t-188.5 85.5z" />
<glyph unicode="&#x3c3;" horiz-adv-x="1011" d="M92 344v311q0 82 33 147.5t88 112t127 71t147 24.5h500v-88h-254q78 -41 116 -115t38 -152v-295q0 -94 -34 -163.5t-89 -115.5t-127 -68.5t-150 -22.5t-149.5 24.5t-125.5 69.5t-87 110.5t-33 149.5zM184 377q0 -82 29 -140.5t73 -95.5t98 -53t105 -16t105.5 16t99.5 53 t73 95.5t28 140.5v246q0 82 -27 139t-70 93t-98 52.5t-111 16.5q-53 0 -107 -16.5t-98 -52.5t-72 -93t-28 -139v-246z" />
<glyph unicode="&#x3c4;" horiz-adv-x="718" d="M35 922v86h616v-86h-305v-613q0 -129 43 -181t150 -52q27 0 59.5 3t73.5 11l16 -80q-47 -14 -92 -17t-70 -3q-150 0 -211 68.5t-61 224.5l-2 639h-217z" />
<glyph unicode="&#x3c5;" horiz-adv-x="985" d="M96 352v656h92v-631q0 -82 28 -139.5t71 -93t98 -52t111 -16.5q55 0 109 16.5t97 52t70 93t27 139.5v631h90v-654q0 -90 -32 -157.5t-87 -113.5t-127 -69.5t-151 -23.5q-80 0 -152 24.5t-126 71.5t-86 113.5t-32 152.5z" />
<glyph unicode="&#x3c6;" horiz-adv-x="1232" d="M96 365v297q0 63 19.5 118.5t54.5 100.5t80 75.5t98 42.5q6 -20 11.5 -40.5t9.5 -43.5q-80 -29 -130.5 -99.5t-50.5 -186.5v-228q0 -145 95.5 -235t279.5 -92v868q80 41 142.5 57.5t111.5 16.5q141 0 230.5 -84t89.5 -258v-299q0 -92 -39 -164t-106.5 -122t-155.5 -75.5 t-183 -25.5v-406h-90v406q-102 0 -188 27.5t-147.5 76.5t-96.5 119t-35 154zM653 74q186 4 288.5 88t102.5 239v248q0 152 -62 212.5t-169 60.5q-29 0 -74 -13.5t-86 -29.5v-805z" />
<glyph unicode="&#x3c7;" horiz-adv-x="821" d="M16 0l336 514l-319 492h112l261 -416l264 416h112l-323 -490l338 -516h-115l-276 438l-277 -438h-113z" />
<glyph unicode="&#x3c8;" horiz-adv-x="1226" d="M100 391v613h93v-584q0 -74 23.5 -136.5t69.5 -109.5t116.5 -74.5t162.5 -27.5v932h92v-932q98 2 169 28.5t117 72.5t68.5 109.5t22.5 137.5v584h92v-609q0 -96 -34.5 -170.5t-96 -128t-147.5 -81t-191 -27.5v-406h-92v406q-104 0 -190 30.5t-147.5 84t-94.5 128 t-33 160.5z" />
<glyph unicode="&#x3c9;" horiz-adv-x="1519" d="M92 356v295q0 141 78 231.5t199 118.5l18 -81q-96 -31 -150.5 -99.5t-54.5 -202.5v-229q0 -82 22.5 -141.5t59.5 -97t85 -56t102 -18.5q51 0 99 18.5t85 56t58.5 97t21.5 141.5l2 367h92v-367q0 -63 15.5 -120.5t47 -100.5t82 -67.5t119.5 -24.5q51 0 99.5 16.5t85 53 t59 95t22.5 142.5v235q0 131 -55 200t-137 100l16 81q115 -31 191 -121t76 -227v-299q0 -84 -27 -150.5t-75 -113.5t-114.5 -72.5t-144.5 -25.5q-104 0 -185 50t-122 153q-43 -102 -126 -152.5t-187 -50.5q-78 0 -142.5 26.5t-113 73.5t-75 114.5t-26.5 151.5z" />
<glyph unicode="&#x3ca;" horiz-adv-x="376" d="M-45 1331q0 29 19.5 47.5t43.5 18.5q29 0 48.5 -18.5t19.5 -47.5q0 -27 -19.5 -46t-48.5 -19q-25 0 -44 19.5t-19 45.5zM143 0v1006h90v-1006h-90zM299 1331q0 29 19.5 47.5t46.5 18.5q29 0 47 -18.5t18 -47.5q0 -27 -18.5 -46t-46.5 -19q-27 0 -46.5 19.5t-19.5 45.5z " />
<glyph unicode="&#x3cb;" horiz-adv-x="985" d="M96 352v656h92v-631q0 -82 28 -139.5t71 -93t98 -52t111 -16.5q55 0 109 16.5t97 52t70 93t27 139.5v631h90v-654q0 -90 -32 -157.5t-87 -113.5t-127 -69.5t-151 -23.5q-80 0 -152 24.5t-126 71.5t-86 113.5t-32 152.5zM254 1331q0 29 19.5 47.5t43.5 18.5 q29 0 48.5 -18.5t19.5 -47.5q0 -27 -19.5 -46t-48.5 -19q-25 0 -44 19.5t-19 45.5zM598 1331q0 29 19.5 47.5t46.5 18.5q29 0 47 -18.5t18 -47.5q0 -27 -18.5 -46t-46.5 -19q-27 0 -46.5 19.5t-19.5 45.5z" />
<glyph unicode="&#x3cc;" horiz-adv-x="980" d="M94 352v307q0 82 32 148.5t86 113t126 72t154 25.5q84 0 156.5 -25.5t125.5 -72t83 -113t30 -148.5v-305q0 -172 -108.5 -269t-289.5 -97q-88 0 -160.5 25.5t-124.5 73.5t-81 114.5t-29 150.5zM186 375q0 -84 26 -141.5t68 -93.5t97 -52t117 -16q61 0 115.5 17t96.5 54 t66.5 94.5t24.5 137.5v256q0 82 -28 139t-71 93t-97 52.5t-107 16.5q-55 0 -110.5 -16.5t-98.5 -52.5t-71 -93t-28 -139v-256zM436 1178l162 315l98 -39l-202 -301z" />
<glyph unicode="&#x3cd;" horiz-adv-x="985" d="M96 352v656h92v-631q0 -82 28 -139.5t71 -93t98 -52t111 -16.5q55 0 109 16.5t97 52t70 93t27 139.5v631h90v-654q0 -90 -32 -157.5t-87 -113.5t-127 -69.5t-151 -23.5q-80 0 -152 24.5t-126 71.5t-86 113.5t-32 152.5zM434 1178l160 315l100 -39l-205 -301z" />
<glyph unicode="&#x3ce;" horiz-adv-x="1519" d="M92 356v295q0 141 78 231.5t199 118.5l18 -81q-96 -31 -150.5 -99.5t-54.5 -202.5v-229q0 -82 22.5 -141.5t59.5 -97t85 -56t102 -18.5q51 0 99 18.5t85 56t58.5 97t21.5 141.5l2 367h92v-367q0 -63 15.5 -120.5t47 -100.5t82 -67.5t119.5 -24.5q51 0 99.5 16.5t85 53 t59 95t22.5 142.5v235q0 131 -55 200t-137 100l16 81q115 -31 191 -121t76 -227v-299q0 -84 -27 -150.5t-75 -113.5t-114.5 -72.5t-144.5 -25.5q-104 0 -185 50t-122 153q-43 -102 -126 -152.5t-187 -50.5q-78 0 -142.5 26.5t-113 73.5t-75 114.5t-26.5 151.5zM690 1178 l160 315l100 -39l-205 -301z" />
<glyph unicode="&#x401;" horiz-adv-x="1089" d="M117 0v1411h907v-90h-809v-561h696v-88h-696v-584h809v-88h-907zM336 1608q0 27 19.5 46t43.5 19q29 0 48.5 -19t19.5 -46q0 -29 -19.5 -47.5t-48.5 -18.5q-25 0 -44 18.5t-19 47.5zM680 1608q0 27 19.5 46t45.5 19q29 0 47.5 -19t18.5 -46q0 -29 -18.5 -47.5 t-47.5 -18.5q-27 0 -46 18.5t-19 47.5z" />
<glyph unicode="&#x402;" horiz-adv-x="1398" d="M18 1319v92h1061v-92h-575v-494q129 86 236.5 115t181.5 29q186 0 284.5 -95.5t98.5 -283.5v-264q0 -104 -36 -190.5t-100.5 -147t-155.5 -94t-204 -33.5v90q82 0 153.5 23.5t126 70.5t86 121t31.5 176v221q0 166 -76.5 238.5t-224.5 72.5q-94 0 -200.5 -41.5 t-200.5 -109.5v-723h-98v1319h-388z" />
<glyph unicode="&#x403;" horiz-adv-x="1028" d="M123 0v1411h907v-90h-811v-1321h-96zM463 1538l278 221l72 -76l-309 -190z" />
<glyph unicode="&#x404;" horiz-adv-x="1017" d="M104 459v499q0 102 36 188.5t101.5 148t156.5 96t202 34.5q106 0 195.5 -24.5t169.5 -79.5l-54 -80q-66 47 -145.5 70.5t-165.5 23.5q-74 0 -145.5 -22.5t-128 -70.5t-90 -123t-33.5 -179v-172h563v-88h-563v-205q0 -104 34.5 -180t90 -125t125 -72.5t141.5 -23.5 q180 0 321 100l52 -76q-55 -41 -149.5 -76.5t-217.5 -35.5q-117 0 -208 34.5t-155.5 98t-98.5 149.5t-34 191z" />
<glyph unicode="&#x405;" horiz-adv-x="1097" d="M61 127l56 76q94 -57 204.5 -92t227.5 -35q80 0 149.5 19.5t120.5 56t81 92t30 127.5q0 82 -34 134t-88 85t-124 51t-139 33q-82 14 -163 39.5t-144.5 68.5t-103.5 108.5t-40 162.5q0 84 31 153.5t88 118.5t140 77t186 28q113 0 219 -20.5t200 -72.5l-45 -86 q-88 47 -186 67.5t-197 20.5q-66 0 -126 -16t-106 -52t-74.5 -91.5t-28.5 -130.5q0 -74 33.5 -122t89 -80t124 -50.5t136.5 -32.5q96 -20 179 -47t144.5 -70t96 -109.5t34.5 -166.5q0 -90 -34.5 -161t-98 -120t-153 -75.5t-199.5 -26.5q-139 0 -258 35.5t-228 103.5z" />
<glyph unicode="&#x406;" horiz-adv-x="442" d="M172 0v1411h98v-1411h-98z" />
<glyph unicode="&#x407;" horiz-adv-x="442" d="M-14 1698q0 29 19.5 47t43.5 18q29 0 48.5 -18t19.5 -47q0 -27 -19.5 -46.5t-48.5 -19.5q-25 0 -44 19.5t-19 46.5zM172 0v1411h98v-1411h-98zM330 1698q0 29 19.5 47t45.5 18q29 0 47.5 -18t18.5 -47q0 -27 -18.5 -46.5t-47.5 -19.5q-27 0 -46 19.5t-19 46.5z" />
<glyph unicode="&#x408;" horiz-adv-x="1032" d="M53 74l47 80q66 -39 131.5 -59.5t137.5 -20.5q84 0 156.5 23.5t124.5 73.5t82 127t30 181v934h98v-952q0 -104 -31.5 -191.5t-93 -150t-152.5 -98t-208 -35.5q-96 0 -179 25.5t-143 62.5z" />
<glyph unicode="&#x409;" horiz-adv-x="1851" d="M37 33q63 45 111.5 103.5t81 145.5t50 213t17.5 304v612h657v-643h445q102 0 178 -34t127 -87t75.5 -122.5t24.5 -139.5q0 -188 -116.5 -286.5t-307.5 -98.5h-524v1321h-465v-569q0 -170 -20.5 -298t-59.5 -223.5t-95 -162t-128 -113.5zM954 90h424q68 0 127.5 17.5 t103.5 53.5t69.5 91t25.5 133q0 127 -86 210t-240 83h-424v-588z" />
<glyph unicode="&#x40a;" horiz-adv-x="1832" d="M113 0v1411h96v-647h627v647h98v-647h444q102 0 178 -33t127.5 -86t76 -121.5t24.5 -138.5q0 -188 -116 -286.5t-308 -98.5h-524v676h-627v-676h-96zM934 90h426q68 0 127 17.5t103 53.5t68.5 91t24.5 133q0 127 -86 209t-239 82h-424v-586z" />
<glyph unicode="&#x40b;" horiz-adv-x="1398" d="M18 1319v92h1061v-92h-575v-492q125 84 235.5 113t184.5 29q195 0 288 -100.5t93 -286.5v-582h-99v553q0 168 -69.5 244.5t-223.5 76.5q-92 0 -203.5 -41.5t-205.5 -109.5v-723h-98v1319h-388z" />
<glyph unicode="&#x40c;" horiz-adv-x="1093" d="M115 0v1411h96v-633h303q39 0 78 9.5t74.5 34t67.5 67.5t54 108l142 414h92l-131 -397q-35 -102 -83 -175t-126 -96q49 -12 85 -36.5t61.5 -60.5t44 -82t34.5 -97l144 -467h-103l-141 461q-23 70 -50.5 115t-61 71.5t-73.5 35.5t-83 9h-328v-692h-96zM408 1538l278 221 l72 -76l-309 -190z" />
<glyph unicode="&#x40e;" horiz-adv-x="997" d="M27 1411h102l367 -954h6l366 954h101l-441 -1126q-35 -88 -68.5 -145.5t-70.5 -92.5t-79 -49t-93 -14h-76v94h60q61 0 110 30.5t90 127.5l43 102zM248 1661h80q12 -68 64 -109t118 -41q68 0 116 36t64 114h80q-6 -39 -23.5 -79t-48 -72.5t-78 -53t-110.5 -20.5 q-66 0 -113 20.5t-79.5 53t-49 72.5t-20.5 79z" />
<glyph unicode="&#x40f;" horiz-adv-x="1208" d="M106 0v1411h99v-1323h799v1323h100v-1411h-455v-326h-104v326h-439z" />
<glyph unicode="&#x410;" horiz-adv-x="1163" d="M41 0l487 1411h111l491 -1411h-104q-29 86 -59.5 170t-61.5 170h-645q-29 -86 -57.5 -170t-57.5 -170h-104zM293 430h581q-8 25 -29.5 91.5t-51 153.5t-63.5 185t-63.5 186.5t-52 154t-30.5 89.5h-2q-8 -25 -30 -91t-51.5 -153.5t-62 -185.5t-62.5 -185t-52.5 -153.5 t-30.5 -91.5z" />
<glyph unicode="&#x411;" horiz-adv-x="1110" d="M113 0v1411h807v-92h-711v-551h446q104 0 181 -34t126.5 -87t74 -122.5t24.5 -139.5q0 -188 -117 -286.5t-307 -98.5h-524zM209 90h426q68 0 127 17.5t103 53.5t70 91t26 133q0 127 -86.5 210t-239.5 83h-426v-588z" />
<glyph unicode="&#x412;" horiz-adv-x="1175" d="M115 0v1411l557 -2q98 0 170.5 -28.5t122 -77t73 -113t23.5 -135.5q0 -43 -10.5 -88t-36 -87t-68.5 -78t-106 -59q70 -23 115.5 -62.5t74.5 -89.5t41 -103.5t12 -102.5q0 -76 -25.5 -145.5t-74.5 -123t-122 -85t-165 -31.5h-581zM213 88h461q66 0 122 18.5t98 55.5 t66.5 93t24.5 130q0 72 -25.5 129t-67.5 98t-97.5 63.5t-116.5 22.5h-465v-610zM213 788h459q53 0 105 16.5t92 49.5t64.5 82t24.5 117q0 74 -25.5 124t-68.5 82.5t-99 47t-118 14.5h-434v-533z" />
<glyph unicode="&#x413;" horiz-adv-x="1028" d="M123 0v1411h907v-90h-811v-1321h-96z" />
<glyph unicode="&#x414;" horiz-adv-x="1366" d="M20 94h103q51 55 89 114.5t64.5 140.5t41 193.5t20.5 272.5l22 596h840v-1319h105v-393h-97v301h-1093v-301h-95v395zM242 92h858v1229h-649l-21 -547q-6 -139 -20.5 -245.5t-38 -187.5t-56 -140.5t-73.5 -108.5z" />
<glyph unicode="&#x415;" horiz-adv-x="1089" d="M117 0v1411h907v-90h-809v-561h696v-88h-696v-584h809v-88h-907z" />
<glyph unicode="&#x416;" horiz-adv-x="1716" d="M45 0l137 465q31 104 78 180t146 98q-78 23 -127.5 93.5t-79.5 175.5l-125 399h94l133 -414q20 -68 52 -109.5t69 -66t76 -34t77 -9.5h234v633h98v-633h234q39 0 77.5 9.5t75.5 34t68 66.5t53 109l133 414h94l-124 -399q-33 -104 -82.5 -175t-126.5 -94q49 -12 85 -36.5 t62.5 -61.5t44 -83t33.5 -97l137 -465h-102l-135 461q-20 72 -48 117t-62 70.5t-74 34.5t-85 9h-258v-692h-98v692h-260q-43 0 -83 -9t-74 -34.5t-62.5 -71t-48.5 -116.5l-134 -461h-102z" />
<glyph unicode="&#x417;" horiz-adv-x="1030" d="M35 119l57 74q63 -51 155.5 -86t194.5 -35q76 0 144.5 21.5t121 62.5t82 99t29.5 130q0 74 -24.5 130t-64.5 96t-91 60.5t-104 20.5h-168v86h168q41 0 89 17.5t90 53.5t70.5 91t28.5 131q0 74 -29.5 125t-75.5 84t-104.5 48t-116.5 15q-96 0 -190 -31.5t-154 -80.5 l-57 74q96 66 191.5 95.5t222.5 29.5q78 0 152.5 -20.5t133 -65t93 -111t34.5 -158.5q0 -53 -14 -105t-44 -97.5t-74 -79t-103 -52.5q66 -20 112 -59t74.5 -87t41 -100.5t12.5 -99.5q0 -98 -38 -175t-102.5 -129t-149.5 -78.5t-182 -26.5q-141 0 -243.5 42t-167.5 91z" />
<glyph unicode="&#x418;" horiz-adv-x="1255" d="M115 0v1411h98v-1259l262 395l565 864h101v-1411h-99v1253l-268 -405l-555 -848h-104z" />
<glyph unicode="&#x419;" horiz-adv-x="1255" d="M115 0v1411h98v-1259l262 395l565 864h101v-1411h-99v1253l-268 -405l-555 -848h-104zM334 1690h80q12 -68 64 -109t118 -41q68 0 116 36t64 114h80q-6 -39 -23.5 -79t-48 -73t-78 -53.5t-110.5 -20.5q-66 0 -113 20.5t-79.5 53.5t-49 73t-20.5 79z" />
<glyph unicode="&#x41a;" horiz-adv-x="1093" d="M115 0v1411h96v-633h303q39 0 78 9.5t74.5 34t67.5 67.5t54 108l142 414h92l-131 -397q-35 -102 -83 -175t-126 -96q49 -12 85 -36.5t61.5 -60.5t44 -82t34.5 -97l144 -467h-103l-141 461q-23 70 -50.5 115t-61 71.5t-73.5 35.5t-83 9h-328v-692h-96z" />
<glyph unicode="&#x41b;" horiz-adv-x="1208" d="M2 37q61 45 108.5 102.5t81 144.5t51 212t17.5 303v612h836v-1411h-101v1321h-637v-569q0 -170 -20.5 -298t-60 -223.5t-96 -162t-130.5 -113.5z" />
<glyph unicode="&#x41c;" horiz-adv-x="1447" d="M113 0v1411h98q78 -162 156.5 -320.5t156.5 -318.5q51 -106 101.5 -211.5t103.5 -210.5l74 148l129 274q78 160 156.5 320.5t152.5 318.5h92v-1411h-98v1182h-2q-59 -127 -113.5 -242t-107.5 -225q-63 -127 -122 -247t-118 -243h-82l-250 502l-225 457h-4v-1184h-98z" />
<glyph unicode="&#x41d;" horiz-adv-x="1220" d="M113 0v1411h96v-649h799v649h102v-1411h-102v674h-799v-674h-96z" />
<glyph unicode="&#x41e;" horiz-adv-x="1202" d="M104 457v501q0 102 34 188.5t98.5 148t156.5 96t207 34.5q113 0 205 -34.5t156.5 -97t100.5 -148.5t36 -187v-507q0 -104 -36 -190.5t-100.5 -147t-156.5 -94t-205 -33.5q-115 0 -206 33.5t-155.5 96t-99.5 149.5t-35 192zM203 467q0 -104 34.5 -178t91 -122t128 -70.5 t143.5 -22.5q82 0 154.5 23.5t127 71.5t86 122t31.5 176v473q0 100 -32.5 175t-88 124t-127 72.5t-151.5 23.5q-82 0 -154.5 -23.5t-126 -72.5t-85 -124t-31.5 -175v-473z" />
<glyph unicode="&#x41f;" horiz-adv-x="1208" d="M106 0v1411h998v-1411h-100v1321h-799v-1321h-99z" />
<glyph unicode="&#x420;" horiz-adv-x="1103" d="M113 0v1411h553q98 0 171.5 -36t123 -93t73 -128.5t23.5 -145.5t-25.5 -145.5t-76 -129t-123 -92.5t-166.5 -35h-457v-606h-96zM209 698h438q63 0 119.5 20.5t98.5 60.5t66.5 97.5t24.5 131.5q0 72 -24.5 129t-66.5 98t-98 63.5t-120 22.5h-438v-623z" />
<glyph unicode="&#x421;" horiz-adv-x="1028" d="M104 459v499q0 102 36 188.5t101.5 148t156.5 96t202 34.5q106 0 195.5 -24.5t169.5 -79.5l-54 -80q-66 47 -145.5 70.5t-165.5 23.5q-74 0 -145.5 -22.5t-128 -70.5t-90 -123t-33.5 -179v-465q0 -104 34.5 -180t90 -125t125 -72.5t141.5 -23.5q180 0 321 100l52 -76 q-55 -41 -149.5 -76.5t-217.5 -35.5q-113 0 -205 34.5t-156.5 98t-99.5 149.5t-35 191z" />
<glyph unicode="&#x422;" horiz-adv-x="1050" d="M35 1319v92h979v-92h-439v-1319h-98v1319h-442z" />
<glyph unicode="&#x423;" horiz-adv-x="997" d="M27 1411h102l367 -954h6l366 954h101l-441 -1126q-35 -88 -68.5 -145.5t-70.5 -92.5t-79 -49t-93 -14h-76v94h60q61 0 110 30.5t90 127.5l43 102z" />
<glyph unicode="&#x424;" horiz-adv-x="1486" d="M109 643v203q0 100 36.5 193.5t109.5 164t182.5 113.5t256.5 47v61h97v-61q147 -2 256.5 -45t182.5 -114.5t109.5 -165t36.5 -193.5v-203q0 -104 -38 -197.5t-111.5 -165t-183 -115.5t-252.5 -46v-119h-97v119q-143 2 -252.5 46t-183.5 114.5t-111.5 165t-37.5 198.5z M207 647q0 -102 37 -183t101.5 -137.5t154.5 -87t194 -30.5v1063q-113 0 -203 -32t-153.5 -89t-97 -139t-33.5 -183v-182zM791 209q104 0 194 30.5t154.5 87t101.5 137.5t37 183v182q0 100 -34 182.5t-97.5 139.5t-153.5 89t-202 32v-1063z" />
<glyph unicode="&#x425;" horiz-adv-x="1026" d="M23 0l436 725l-406 686h115l344 -600l344 600h115l-406 -686l436 -725h-114l-375 637l-375 -637h-114z" />
<glyph unicode="&#x426;" horiz-adv-x="1251" d="M113 0v1411h96v-1323h799v1323h102v-1321h104v-391h-98v301h-1003z" />
<glyph unicode="&#x427;" horiz-adv-x="1116" d="M66 989v422h98v-397q0 -90 15.5 -159t52 -116t97 -71.5t152.5 -24.5q109 0 220.5 38t201.5 97v633h98v-1411h-98v678q-109 -68 -224.5 -96.5t-201.5 -28.5q-98 0 -174 23.5t-129 76t-80.5 135t-27.5 201.5z" />
<glyph unicode="&#x428;" horiz-adv-x="1841" d="M113 0v1411h98v-1323h659v1323h97v-1323h663v1323h99v-1411h-1616z" />
<glyph unicode="&#x429;" horiz-adv-x="1869" d="M113 0v1411h98v-1323h659v1323h97v-1323h661v1323h101v-1321h104v-391h-96v301h-1624z" />
<glyph unicode="&#x42a;" horiz-adv-x="1411" d="M12 1319v92h492v-643h444q102 0 179 -34t127.5 -87t75 -122.5t24.5 -139.5q0 -188 -116 -286.5t-306 -98.5h-526v1319h-394zM504 90h426q68 0 127 17.5t103 53.5t68.5 91t24.5 133q0 63 -22.5 116.5t-63.5 92.5t-102 61.5t-137 22.5h-424v-588z" />
<glyph unicode="&#x42b;" horiz-adv-x="1431" d="M117 0v1411h96v-643h446q102 0 178 -34t127.5 -87t76 -122.5t24.5 -139.5q0 -188 -117 -286.5t-307 -98.5h-524zM213 90h426q68 0 127 17.5t103 53.5t70 91t26 133q0 127 -86 210t-240 83h-426v-588zM1210 0v1411h99v-1411h-99z" />
<glyph unicode="&#x42c;" horiz-adv-x="1112" d="M117 0v1411h96v-643h446q102 0 178 -34t127.5 -87t76 -122.5t24.5 -139.5q0 -188 -117 -286.5t-307 -98.5h-524zM213 90h426q68 0 127 17.5t103 53.5t70 91t26 133q0 127 -86 210t-240 83h-426v-588z" />
<glyph unicode="&#x42d;" horiz-adv-x="1021" d="M35 98l51 78q143 -100 324 -100q80 0 152.5 24.5t127.5 75.5t88 127t33 180v205h-575v88h575v164q0 209 -101.5 302t-267.5 93q-86 0 -171 -24.5t-150 -71.5l-51 78q161 110 374 110q121 0 209 -32.5t144.5 -94t84 -148.5t27.5 -194v-491q0 -104 -34.5 -192.5t-100 -153 t-160 -100t-213.5 -35.5q-123 0 -216 35.5t-150 76.5z" />
<glyph unicode="&#x42e;" horiz-adv-x="1476" d="M117 0v1411h98v-649h217v196q0 102 30 188.5t89 148t147 96t203 34.5q113 0 200 -34.5t147.5 -97t92 -148.5t31.5 -187v-507q0 -104 -31.5 -190.5t-91 -147t-147.5 -94t-201 -33.5q-115 0 -202 33.5t-146 96t-90 149.5t-31 192v217h-217v-674h-98zM530 467 q0 -104 31 -178t82 -122t117.5 -70.5t140.5 -22.5q82 0 150.5 23.5t118 71.5t77 122t27.5 176v473q0 100 -28.5 175t-79 124t-118 72.5t-147.5 23.5q-82 0 -150.5 -23.5t-117.5 -72.5t-76 -124t-27 -175v-473z" />
<glyph unicode="&#x42f;" horiz-adv-x="1179" d="M78 0l123 422q27 88 63.5 148.5t114.5 88.5q-70 18 -119 53.5t-81 81.5t-46 100.5t-14 113.5q0 78 23.5 150.5t71.5 128.5t122 90t172 34h561v-1411h-98v635h-400q-43 0 -82.5 -10.5t-74.5 -36t-66 -69.5t-51 -113l-119 -406h-100zM215 1008q0 -74 25.5 -128.5t69.5 -89 t102.5 -52t124.5 -17.5h434v600h-451q-133 0 -219 -83t-86 -230z" />
<glyph unicode="&#x430;" horiz-adv-x="954" d="M66 272q0 80 32.5 135.5t81.5 89t108.5 49t114.5 15.5h365v101q0 270 -285 270q-72 0 -147.5 -20.5t-153.5 -73.5l-49 73q86 57 172 81t184 24q104 0 175 -23.5t114 -68.5t61.5 -107.5t18.5 -140.5v-676h-74l-16 125h-2q-74 -47 -132.5 -73.5t-104.5 -41t-82.5 -18.5 t-65.5 -4q-141 0 -228 71.5t-87 212.5zM162 272q0 -53 18.5 -91t50 -62.5t73.5 -36.5t89 -12q45 0 93.5 13t97.5 33.5t96 46t88 50.5v268h-330q-41 0 -89 -6t-90 -27.5t-69.5 -63.5t-27.5 -112z" />
<glyph unicode="&#x431;" horiz-adv-x="980" d="M92 354v258q0 80 4 156t16.5 146.5t37 135t65.5 124.5q43 61 111.5 104t145.5 77t156 61.5t142 58.5l35 -76q-78 -33 -126 -49.5t-99 -36.5q-109 -41 -179.5 -85t-113.5 -100.5t-63.5 -132t-33.5 -182.5q2 0 3.5 -1t3.5 -1q27 41 64.5 70.5t80.5 50t87 30t83 9.5 q180 0 277.5 -95.5t97.5 -263.5v-256q0 -86 -30 -153.5t-83 -115.5t-128 -73.5t-165 -25.5q-184 0 -286.5 100t-102.5 266zM186 373q0 -82 23.5 -139.5t64.5 -94.5t95.5 -53t115.5 -16q66 0 123.5 17t99.5 54t65.5 94.5t23.5 137.5v211q0 82 -22.5 139t-62.5 93t-95.5 52.5 t-118.5 16.5q-55 0 -110.5 -18.5t-99.5 -57.5t-73 -99.5t-29 -142.5v-194z" />
<glyph unicode="&#x432;" horiz-adv-x="950" d="M98 0v1006h453q80 0 136 -21.5t93 -56.5t54.5 -83t17.5 -100q0 -29 -7 -60.5t-24.5 -60t-47.5 -54t-75 -42.5q47 -18 80 -46.5t52.5 -62.5t28.5 -70.5t9 -67.5q0 -55 -19.5 -106.5t-57 -90.5t-94 -61.5t-130.5 -22.5h-469zM190 82h357q100 0 164.5 50.5t64.5 148.5 q0 45 -18.5 82.5t-49 65.5t-70.5 42t-85 14h-363v-403zM190 571h357q39 0 78 10.5t67.5 32t47 53t18.5 76.5q0 49 -18.5 83t-50.5 55.5t-71.5 31t-82.5 9.5h-345v-351z" />
<glyph unicode="&#x433;" horiz-adv-x="802" d="M100 0v1006h699v-86h-606v-920h-93z" />
<glyph unicode="&#x434;" horiz-adv-x="1097" d="M23 78h37.5t37.5 2q35 29 62.5 68.5t47 97t31 136.5t17.5 187q4 111 9 218.5t11 218.5h676v-926h78v-330h-86v250h-835v-250h-86v328zM221 80h641v844h-504l-18 -367q-10 -172 -35.5 -288.5t-83.5 -188.5z" />
<glyph unicode="&#x435;" horiz-adv-x="954" d="M100 354v285q0 86 29 155.5t81 120t125 77t159 26.5q84 0 153.5 -27.5t120.5 -77t78.5 -119t27.5 -151.5v-178h-681v-94q0 -84 26.5 -141.5t69.5 -93.5t98 -52t115 -16q84 0 151.5 28.5t120.5 79.5l57 -65q-63 -63 -147 -93t-186 -30q-86 0 -159 23.5t-126 69.5 t-83 114.5t-30 158.5zM193 545h589v86q0 82 -25.5 139t-66.5 94t-92 53.5t-104 16.5q-55 0 -109.5 -17.5t-96.5 -54.5t-68.5 -95t-26.5 -138v-84z" />
<glyph unicode="&#x436;" horiz-adv-x="1380" d="M45 0l98 330q23 76 54.5 129t103.5 69q-59 16 -91 67.5t-54 125.5l-93 287h93l96 -301q14 -47 36.5 -76t48 -45.5t54.5 -21.5t58 -5h196v449h90v-449h197q29 0 57.5 5t54 21.5t46 45t36.5 76.5l97 301h92l-90 -287q-23 -74 -54.5 -125t-91.5 -68q72 -16 103.5 -69 t54.5 -129l98 -330h-96l-92 317q-14 51 -33.5 82t-44.5 48.5t-55.5 23.5t-67.5 6h-211v-477h-90v477h-213q-37 0 -66.5 -6t-55 -23.5t-45 -48t-34.5 -82.5l-92 -317h-94z" />
<glyph unicode="&#x437;" horiz-adv-x="841" d="M27 92q12 16 26.5 33.5t28.5 34.5q53 -41 126 -65.5t152 -24.5q125 0 203 59t78 152q0 49 -18.5 85.5t-49 61.5t-69.5 38t-80 13h-139v78h139q33 0 69.5 12.5t67.5 36t50.5 59t19.5 83.5q0 49 -22.5 83.5t-57.5 57t-78 33t-86 10.5q-76 0 -145.5 -21.5t-118.5 -60.5 q-16 16 -29.5 32.5t-27.5 35.5q80 57 159.5 77.5t171.5 20.5q70 0 129.5 -18.5t103.5 -52.5t68.5 -82t24.5 -109q0 -66 -38 -133.5t-126 -98.5q51 -18 84 -47t52.5 -61.5t27.5 -67.5t8 -61q0 -66 -26.5 -120t-74.5 -93t-117 -59.5t-151 -20.5q-111 0 -192.5 27.5 t-142.5 72.5z" />
<glyph unicode="&#x438;" horiz-adv-x="995" d="M102 0v1004h91v-865h4l272 387l334 478h88v-1004h-90v860h-4q-68 -98 -135.5 -193.5t-137.5 -193.5q-84 -119 -166 -237.5t-165 -235.5h-91z" />
<glyph unicode="&#x439;" horiz-adv-x="995" d="M102 0v1004h91v-865h4l272 387l334 478h88v-1004h-90v860h-4q-68 -98 -135.5 -193.5t-137.5 -193.5q-84 -119 -166 -237.5t-165 -235.5h-91zM236 1380h79q12 -68 64.5 -108.5t118.5 -40.5q68 0 116 36t64 113h80q-6 -39 -23.5 -78.5t-48.5 -72.5t-78 -53.5t-110 -20.5 q-66 0 -113 20.5t-80 53.5t-49 72.5t-20 78.5z" />
<glyph unicode="&#x43a;" horiz-adv-x="966" d="M133 0v1008h92v-449h271q59 0 109 26.5t85 121.5l113 301h92l-107 -287q-27 -72 -56.5 -124t-88.5 -69q37 -8 60.5 -26.5t41 -44t30.5 -58t26 -69.5l114 -330h-96l-108 317q-16 49 -37 81t-45.5 49.5t-53 23.5t-65.5 6h-285v-477h-92z" />
<glyph unicode="&#x43b;" horiz-adv-x="972" d="M10 39q49 33 87 72t63.5 99t40 147t14.5 216v431h649v-1004h-92v922h-467v-381q0 -127 -17.5 -219.5t-50 -159t-78.5 -112.5t-104 -81z" />
<glyph unicode="&#x43c;" horiz-adv-x="1173" d="M102 0v1004h88l238 -439l162 -299l158 297l239 441h82v-1004h-92v807h-2l-166 -311l-184 -338h-72l-111 200l-243 449h-2v-807h-95z" />
<glyph unicode="&#x43d;" horiz-adv-x="997" d="M102 0v1004h93v-451h608v451h92v-1004h-92v469h-608v-469h-93z" />
<glyph unicode="&#x43e;" horiz-adv-x="980" d="M94 352v307q0 82 32 148.5t86 113t126 72t154 25.5q84 0 156.5 -25.5t125.5 -72t83 -113t30 -148.5v-305q0 -172 -108.5 -269t-289.5 -97q-88 0 -160.5 25.5t-124.5 73.5t-81 114.5t-29 150.5zM186 375q0 -84 26 -141.5t68 -93.5t97 -52t117 -16q61 0 115.5 17t96.5 54 t66.5 94.5t24.5 137.5v256q0 82 -28 139t-71 93t-97 52.5t-107 16.5q-55 0 -110.5 -16.5t-98.5 -52.5t-71 -93t-28 -139v-256z" />
<glyph unicode="&#x43f;" horiz-adv-x="989" d="M102 0v1006h787v-1006h-90v922h-606v-922h-91z" />
<glyph unicode="&#x440;" horiz-adv-x="983" d="M102 -416v1417h74l17 -131q74 45 131 75t103 45.5t82 21.5t64 6q147 0 232.5 -84t85.5 -258v-340q0 -170 -93 -260t-259 -90q-61 0 -142.5 16t-203.5 78v-496h-91zM193 174q113 -57 192.5 -79.5t144.5 -22.5q135 0 203 68.5t68 215.5v297q0 150 -61.5 213.5t-170.5 63.5 q-70 0 -172 -43t-204 -113v-600z" />
<glyph unicode="&#x441;" horiz-adv-x="839" d="M100 354v303q0 82 29 148.5t81 114t122.5 74t156.5 26.5q78 0 161 -21.5t145 -74.5l-58 -74q-59 47 -123.5 65.5t-115.5 18.5q-57 0 -111.5 -16.5t-97.5 -52.5t-68.5 -93t-25.5 -139v-256q0 -80 25.5 -137.5t68.5 -94t97 -53t110 -16.5q49 0 120.5 17.5t120.5 56.5 l56 -70q-63 -47 -143.5 -68.5t-157.5 -21.5q-90 0 -163 26.5t-124 75.5t-78 115.5t-27 146.5z" />
<glyph unicode="&#x442;" horiz-adv-x="831" d="M29 920v86h776v-86h-342v-920h-92v920h-342z" />
<glyph unicode="&#x443;" horiz-adv-x="876" d="M14 1004h97q41 -117 77.5 -234t77.5 -235l154 -455h2l166 455q43 119 86 235.5t84 233.5h96q-129 -356 -259 -705.5t-259 -704.5h-98l147 410l-57 59z" />
<glyph unicode="&#x444;" horiz-adv-x="1210" d="M94 393v236q0 84 32 158.5t92.5 130t147.5 87t195 31.5v373h90v-373q111 0 197 -31.5t146.5 -87t92 -130t31.5 -158.5v-232q0 -84 -33.5 -158.5t-95 -130t-147.5 -88t-191 -32.5v-406h-90v406q-106 0 -192 31.5t-147.5 87t-94.5 129t-33 157.5zM186 426 q0 -72 21.5 -135.5t66.5 -110.5t117 -74.5t170 -29.5v872q-102 -4 -174 -31.5t-117 -74.5t-64.5 -109.5t-19.5 -134.5v-172zM651 76q98 2 168 29.5t116 74.5t67.5 110.5t21.5 135.5v172q0 72 -21.5 135.5t-67.5 111.5t-115.5 75.5t-168.5 27.5v-872z" />
<glyph unicode="&#x445;" horiz-adv-x="821" d="M16 0l336 514l-319 492h112l261 -416l264 416h112l-323 -490l338 -516h-115l-276 438l-277 -438h-113z" />
<glyph unicode="&#x446;" horiz-adv-x="1019" d="M109 0v1006h88v-924h604v924h88v-926h78v-330h-88v250h-770z" />
<glyph unicode="&#x447;" horiz-adv-x="890" d="M55 698v308h90v-289q0 -250 242 -250q82 0 165 28.5t161 75.5v435h92v-1006h-92v477q-98 -59 -185.5 -78.5t-150.5 -19.5q-66 0 -123 17.5t-102.5 55t-71 98t-25.5 148.5z" />
<glyph unicode="&#x448;" horiz-adv-x="1488" d="M106 0v1004h91v-922h499v922h92v-922h502v922h90v-1004h-1274z" />
<glyph unicode="&#x449;" horiz-adv-x="1507" d="M119 0v1004h94v-922h496v922h92v-922h502v922h90v-924h80v-332h-89v252h-1265z" />
<glyph unicode="&#x44a;" horiz-adv-x="1110" d="M12 918v86h398v-445h340q84 0 144 -23.5t98 -62.5t55.5 -89t17.5 -103q0 -139 -89 -210t-245 -71h-412v918h-307zM410 84h329q109 0 171.5 48.5t62.5 148.5q0 84 -57.5 140t-174.5 56h-331v-393z" />
<glyph unicode="&#x44b;" horiz-adv-x="1148" d="M102 0v1006h91v-447h339q86 0 145.5 -23.5t98.5 -62.5t56.5 -89t17.5 -103q0 -139 -90 -210t-244 -71h-414zM193 84h329q111 0 172.5 48.5t61.5 148.5q0 84 -56.5 140t-175.5 56h-331v-393zM956 0v1004h91v-1004h-91z" />
<glyph unicode="&#x44c;" horiz-adv-x="886" d="M102 0v1006h91v-447h339q86 0 145.5 -23.5t98.5 -62.5t56.5 -89t17.5 -103q0 -139 -90 -210t-244 -71h-414zM193 84h329q111 0 172.5 48.5t61.5 148.5q0 84 -56.5 140t-175.5 56h-331v-393z" />
<glyph unicode="&#x44d;" horiz-adv-x="821" d="M35 80l51 74q57 -45 127 -61.5t119 -16.5q59 0 113.5 16.5t96.5 52t67.5 93t25.5 137.5v102h-438v84h438v80q0 164 -74 228.5t-201 64.5q-25 0 -57.5 -5t-66 -15.5t-66.5 -26t-59 -35.5l-58 68q68 53 154 76.5t164 23.5q184 0 271 -96.5t87 -253.5v-312 q0 -82 -27.5 -149.5t-78 -116.5t-123 -75.5t-162.5 -26.5q-78 0 -160 19.5t-143 70.5z" />
<glyph unicode="&#x44e;" horiz-adv-x="1198" d="M98 0v1004h92v-453h164v108q0 82 29 148.5t79 113t118.5 72t150.5 25.5q170 0 272.5 -96.5t102.5 -262.5v-305q0 -172 -98.5 -269t-278.5 -97q-178 0 -276.5 99t-98.5 265v117h-164v-469h-92zM446 375q0 -84 23 -141.5t60.5 -93.5t90 -52t113.5 -16t112.5 17t89.5 54 t59.5 94.5t21.5 137.5v256q0 82 -23.5 139t-63.5 93t-91.5 52.5t-104.5 16.5q-55 0 -107.5 -16.5t-92 -52.5t-63.5 -93t-24 -139v-256z" />
<glyph unicode="&#x44f;" horiz-adv-x="935" d="M55 0l84 299q16 59 44 104.5t85 67.5q-92 27 -138 95.5t-46 152.5q0 57 19.5 109.5t57.5 92.5t95 63.5t133 23.5h449v-1008h-90v444h-332q-66 -2 -114 -33.5t-73 -121.5l-79 -289h-95zM174 719q0 -49 17.5 -85t48 -60.5t70.5 -36t85 -11.5h353v396h-353q-45 0 -85 -12.5 t-70.5 -37t-48 -63.5t-17.5 -90z" />
<glyph unicode="&#x451;" horiz-adv-x="954" d="M100 354v285q0 86 29 155.5t81 120t125 77t159 26.5q84 0 153.5 -27.5t120.5 -77t78.5 -119t27.5 -151.5v-178h-681v-94q0 -84 26.5 -141.5t69.5 -93.5t98 -52t115 -16q84 0 151.5 28.5t120.5 79.5l57 -65q-63 -63 -147 -93t-186 -30q-86 0 -159 23.5t-126 69.5 t-83 114.5t-30 158.5zM193 545h589v86q0 82 -25.5 139t-66.5 94t-92 53.5t-104 16.5q-55 0 -109.5 -17.5t-96.5 -54.5t-68.5 -95t-26.5 -138v-84zM254 1335q0 29 19.5 47.5t43.5 18.5q29 0 48.5 -18.5t19.5 -47.5q0 -27 -19.5 -46t-48.5 -19q-25 0 -44 19.5t-19 45.5z M598 1335q0 29 19.5 47.5t46.5 18.5q29 0 47 -18.5t18 -47.5q0 -27 -18.5 -46t-46.5 -19q-27 0 -46.5 19.5t-19.5 45.5z" />
<glyph unicode="&#x452;" horiz-adv-x="1003" d="M8 1186v78h109v202h92v-202h479v-78h-479v-328q141 90 234.5 122t156.5 32q307 0 307 -344v-437q0 -176 -108.5 -271t-288.5 -95v86q68 0 124 16.5t97 52t63.5 93t22.5 137.5l-2 393q0 150 -57.5 214.5t-171.5 64.5q-37 0 -83 -12.5t-95.5 -34t-100.5 -49t-98 -58.5v-768 h-92v1186h-109z" />
<glyph unicode="&#x453;" horiz-adv-x="802" d="M100 0v1006h699v-86h-606v-920h-93zM362 1178l160 315l101 -39l-205 -301z" />
<glyph unicode="&#x454;" horiz-adv-x="827" d="M94 354v303q0 82 29 148.5t79 114t121.5 74t157.5 26.5q78 0 161 -21.5t144 -74.5l-57 -74q-59 47 -123.5 65.5t-116.5 18.5q-59 0 -113 -16.5t-96 -52.5t-68 -93t-26 -139v-78h412v-82h-412v-96q0 -80 26 -137.5t68 -94t96 -53t111 -16.5q25 0 58 4t65.5 13t64.5 23.5 t56 33.5l53 -70q-61 -47 -142 -68.5t-159 -21.5q-92 0 -164.5 26.5t-122 75.5t-76 115.5t-26.5 146.5z" />
<glyph unicode="&#x455;" horiz-adv-x="899" d="M78 94l49 72q76 -53 158 -78t180 -25q45 0 94 10.5t88 35t64.5 64.5t25.5 99q0 86 -67.5 130t-227.5 71q-61 10 -122.5 25.5t-111.5 43t-82 74t-32 117.5q0 125 93.5 205t252.5 80q104 0 186.5 -19.5t151.5 -66.5l-47 -70q-127 76 -285 76q-119 0 -190.5 -55.5 t-71.5 -149.5q0 -43 21.5 -73.5t59.5 -51t90.5 -34t113.5 -23.5t125.5 -25.5t117 -45t85 -80t32.5 -132.5q0 -123 -96 -201.5t-272 -78.5q-98 0 -194.5 20.5t-188.5 85.5z" />
<glyph unicode="&#x456;" horiz-adv-x="378" d="M123 1337q0 29 19.5 47.5t45.5 18.5q29 0 48.5 -18.5t19.5 -47.5t-19.5 -48t-48.5 -19q-27 0 -46 19.5t-19 47.5zM143 0v1006h90v-1006h-90z" />
<glyph unicode="&#x457;" horiz-adv-x="419" d="M-27 1331q0 29 19.5 47.5t44.5 18.5q29 0 48 -18.5t19 -47.5q0 -27 -19 -46t-48 -19q-25 0 -44.5 19.5t-19.5 45.5zM164 0v1006h90v-1006h-90zM317 1331q0 29 19.5 47.5t46.5 18.5q29 0 47.5 -18.5t18.5 -47.5q0 -27 -18.5 -46t-47.5 -19q-27 0 -46.5 19.5t-19.5 45.5z " />
<glyph unicode="&#x458;" horiz-adv-x="450" d="M-18 -344h63q82 0 115 39t33 143v1168h92v-1184q0 -131 -55.5 -190.5t-172.5 -59.5h-75v84zM174 1337q0 29 19.5 47.5t46.5 18.5q29 0 48 -18.5t19 -47.5t-19.5 -48t-47.5 -19q-27 0 -46.5 19.5t-19.5 47.5z" />
<glyph unicode="&#x459;" horiz-adv-x="1456" d="M14 39q49 33 88 74t66 100t41 145t14 207v441h525v-447h339q86 0 145.5 -23.5t98.5 -62.5t56.5 -89t17.5 -103q0 -139 -90 -210t-244 -71h-416v922h-346v-383q0 -121 -16.5 -211t-48 -158t-78.5 -116t-107 -83zM748 84h329q111 0 172.5 48.5t61.5 148.5q0 84 -56.5 140 t-175.5 56h-331v-393z" />
<glyph unicode="&#x45a;" horiz-adv-x="1468" d="M111 0v1006h90v-449h475v449h90v-447h342q84 0 144.5 -23.5t98.5 -62.5t55 -89t17 -103q0 -139 -89 -210t-242 -71h-416v477h-475v-477h-90zM766 84h332q109 0 171 48.5t62 148.5q0 84 -57 140t-174 56h-334v-393z" />
<glyph unicode="&#x45b;" horiz-adv-x="1003" d="M8 1186v78h109v202h92v-202h479v-78h-479v-328q141 90 234.5 122t156.5 32q307 0 307 -344v-668h-92v643q0 150 -57.5 214.5t-171.5 64.5q-37 0 -83 -12.5t-95.5 -34t-100.5 -49t-98 -58.5v-768h-92v1186h-109z" />
<glyph unicode="&#x45c;" horiz-adv-x="966" d="M133 0v1008h92v-449h271q59 0 109 26.5t85 121.5l113 301h92l-107 -287q-27 -72 -56.5 -124t-88.5 -69q37 -8 60.5 -26.5t41 -44t30.5 -58t26 -69.5l114 -330h-96l-108 317q-16 49 -37 81t-45.5 49.5t-53 23.5t-65.5 6h-285v-477h-92zM418 1178l160 315l100 -39 l-205 -301z" />
<glyph unicode="&#x45e;" horiz-adv-x="876" d="M14 1004h97q41 -117 77.5 -234t77.5 -235l154 -455h2l166 455q43 119 86 235.5t84 233.5h96q-129 -356 -259 -705.5t-259 -704.5h-98l147 410l-57 59zM176 1380h80q12 -68 64.5 -108.5t117.5 -40.5q68 0 116 36t64 113h80q-6 -39 -23.5 -78.5t-48 -72.5t-77.5 -53.5 t-111 -20.5q-66 0 -112.5 20.5t-79.5 53.5t-49.5 72.5t-20.5 78.5z" />
<glyph unicode="&#x45f;" horiz-adv-x="993" d="M102 0v1004h91v-922h608v922h92v-1004h-361v-256h-94v256h-336z" />
<glyph unicode="&#x490;" horiz-adv-x="1038" d="M123 0v1411h807v238h96v-328h-807v-1321h-96z" />
<glyph unicode="&#x491;" horiz-adv-x="794" d="M92 0v1006h608v206h97v-292h-611v-920h-94z" />
<glyph unicode="&#x4d9;" horiz-adv-x="954" d="M98 350v189h680v96q0 84 -23.5 141.5t-63.5 93t-92 51t-112 15.5q-86 0 -159.5 -27.5t-126.5 -79.5l-56 64q68 66 154 95.5t190 29.5q86 0 156 -23.5t121 -69.5t78.5 -116t27.5 -160v-284q0 -86 -29.5 -156t-81.5 -119t-124 -75.5t-158 -26.5q-84 0 -154.5 25.5 t-120.5 72.5t-78 113.5t-28 150.5zM190 375q0 -84 25 -141.5t66 -94.5t93 -53t105 -16q55 0 108.5 17t96.5 55t68.5 96.5t25.5 138.5v84h-588v-86z" />
<glyph unicode="&#x1e80;" horiz-adv-x="1716" d="M20 1411h107l197 -762q33 -129 65.5 -259t67.5 -259h2l137 520l201 760h104l201 -766l135 -512h4l131 514l199 764h104q-96 -356 -189 -705.5t-188 -705.5h-120l-197 741l-131 502l-180 -682l-152 -561h-119zM578 1745l71 76l279 -222l-41 -45z" />
<glyph unicode="&#x1e81;" horiz-adv-x="1374" d="M18 1006h97q29 -92 55.5 -186.5t52.5 -186.5l148 -504h2q47 137 93 274.5t93 276.5q23 59 41 117.5t39 117.5h98l133 -391l134 -395h2q37 123 73.5 247t71.5 249l109 381h94l-295 -1006h-98l-158 461l-115 334h-2l-117 -349l-151 -446h-99zM508 1454l98 39l162 -315 l-57 -25z" />
<glyph unicode="&#x1e82;" horiz-adv-x="1716" d="M20 1411h107l197 -762q33 -129 65.5 -259t67.5 -259h2l137 520l201 760h104l201 -766l135 -512h4l131 514l199 764h104q-96 -356 -189 -705.5t-188 -705.5h-120l-197 741l-131 502l-180 -682l-152 -561h-119zM788 1538l279 221l72 -76l-310 -190z" />
<glyph unicode="&#x1e83;" horiz-adv-x="1374" d="M18 1006h97q29 -92 55.5 -186.5t52.5 -186.5l148 -504h2q47 137 93 274.5t93 276.5q23 59 41 117.5t39 117.5h98l133 -391l134 -395h2q37 123 73.5 247t71.5 249l109 381h94l-295 -1006h-98l-158 461l-115 334h-2l-117 -349l-151 -446h-99zM678 1178l160 315l100 -39 l-205 -301z" />
<glyph unicode="&#x1e84;" horiz-adv-x="1716" d="M20 1411h107l197 -762q33 -129 65.5 -259t67.5 -259h2l137 520l201 760h104l201 -766l135 -512h4l131 514l199 764h104q-96 -356 -189 -705.5t-188 -705.5h-120l-197 741l-131 502l-180 -682l-152 -561h-119zM610 1608q0 27 19.5 46t44.5 19q29 0 48 -19t19 -46 q0 -29 -19.5 -47.5t-47.5 -18.5q-25 0 -44.5 18.5t-19.5 47.5zM954 1608q0 27 19.5 46t46.5 19q29 0 47 -19t18 -46q0 -29 -18 -47.5t-47 -18.5q-27 0 -46.5 18.5t-19.5 47.5z" />
<glyph unicode="&#x1e85;" horiz-adv-x="1374" d="M18 1006h97q29 -92 55.5 -186.5t52.5 -186.5l148 -504h2q47 137 93 274.5t93 276.5q23 59 41 117.5t39 117.5h98l133 -391l134 -395h2q37 123 73.5 247t71.5 249l109 381h94l-295 -1006h-98l-158 461l-115 334h-2l-117 -349l-151 -446h-99zM475 1337q0 29 19.5 47.5 t44.5 18.5q29 0 48 -18.5t19 -47.5q0 -27 -19.5 -46t-47.5 -19q-25 0 -44.5 19.5t-19.5 45.5zM819 1337q0 29 19.5 47.5t46.5 18.5q29 0 47 -18.5t18 -47.5q0 -27 -18.5 -46t-46.5 -19q-27 0 -46.5 19.5t-19.5 45.5z" />
<glyph unicode="&#x1ef2;" horiz-adv-x="1003" d="M25 1411h108l160 -332l153 -327q16 -29 29.5 -55.5t28.5 -55.5l207 442l157 328h105q-104 -221 -210 -439t-212 -437v-535h-98v530q-106 223 -213 440.5t-215 440.5zM252 1683l72 76l278 -221l-41 -45z" />
<glyph unicode="&#x1ef3;" horiz-adv-x="876" d="M14 1004h97q41 -117 77.5 -234t77.5 -235l154 -455h2l166 455q43 119 86 235.5t84 233.5h96q-129 -356 -259 -705.5t-259 -704.5h-98l147 410l-57 59zM236 1454l98 39l162 -315l-58 -25z" />
<glyph unicode="&#x2000;" horiz-adv-x="935" />
<glyph unicode="&#x2001;" horiz-adv-x="1870" />
<glyph unicode="&#x2002;" horiz-adv-x="935" />
<glyph unicode="&#x2003;" horiz-adv-x="1870" />
<glyph unicode="&#x2004;" horiz-adv-x="623" />
<glyph unicode="&#x2005;" horiz-adv-x="467" />
<glyph unicode="&#x2006;" horiz-adv-x="311" />
<glyph unicode="&#x2007;" horiz-adv-x="311" />
<glyph unicode="&#x2008;" horiz-adv-x="233" />
<glyph unicode="&#x2009;" horiz-adv-x="374" />
<glyph unicode="&#x200a;" horiz-adv-x="103" />
<glyph unicode="&#x2010;" horiz-adv-x="757" d="M109 502v88h540v-88h-540z" />
<glyph unicode="&#x2011;" horiz-adv-x="757" d="M109 502v88h540v-88h-540z" />
<glyph unicode="&#x2012;" horiz-adv-x="757" d="M109 502v88h540v-88h-540z" />
<glyph unicode="&#x2013;" horiz-adv-x="1009" d="M41 498v88h928v-88h-928z" />
<glyph unicode="&#x2014;" horiz-adv-x="2033" d="M41 498v88h1952v-88h-1952z" />
<glyph unicode="&#x2015;" horiz-adv-x="2033" d="M41 498v88h1952v-88h-1952z" />
<glyph unicode="&#x2018;" horiz-adv-x="454" d="M147 1227q0 70 43 133t103 94l33 -41q-82 -59 -84 -147h8q35 0 55.5 -20.5t20.5 -55.5t-25 -56.5t-59 -21.5q-43 0 -69 32t-26 83z" />
<glyph unicode="&#x2019;" horiz-adv-x="454" d="M156 1155q78 59 82 148q-35 -2 -58.5 18t-23.5 57q0 35 23.5 56.5t58.5 21.5q45 0 69.5 -31.5t24.5 -83.5q0 -70 -43 -133t-103 -94z" />
<glyph unicode="&#x201a;" horiz-adv-x="409" d="M123 68q0 33 24.5 54t59.5 21q43 0 67.5 -31.5t24.5 -80.5q0 -72 -42 -135.5t-101 -94.5l-33 41q80 59 84 148q-84 -4 -84 78z" />
<glyph unicode="&#x201c;" horiz-adv-x="684" d="M135 1227q0 70 42 133t104 94l30 -41q-80 -59 -82 -147h9q33 0 53 -20.5t20 -55.5t-23.5 -56.5t-58.5 -21.5q-45 0 -69.5 32t-24.5 83zM385 1227q0 70 42 133t103 94q8 -10 14.5 -20.5t16.5 -20.5q-78 -57 -82 -147h8q33 0 53.5 -20.5t20.5 -55.5t-23.5 -56.5 t-58.5 -21.5q-45 0 -69.5 32t-24.5 83z" />
<glyph unicode="&#x201d;" horiz-adv-x="684" d="M143 1155q78 59 82 148q-35 -2 -58.5 18t-23.5 57q0 35 23.5 56.5t58.5 21.5q45 0 69.5 -31.5t24.5 -83.5q0 -70 -41.5 -133t-103.5 -94zM393 1155q78 59 82 148q-35 -2 -58.5 18t-23.5 57q0 35 23.5 56.5t58.5 21.5q45 0 69.5 -31.5t24.5 -83.5q0 -70 -43 -133t-102 -94 z" />
<glyph unicode="&#x201e;" horiz-adv-x="698" d="M127 68q0 33 24.5 54t59.5 21q43 0 67.5 -31.5t24.5 -80.5q0 -72 -42 -135.5t-101 -94.5l-33 41q80 59 84 148q-84 -4 -84 78zM410 68q0 33 24.5 54t59.5 21q45 0 69.5 -31.5t24.5 -80.5q0 -72 -43 -135.5t-103 -94.5l-30 41q78 59 82 148q-39 -2 -61.5 17.5t-22.5 60.5z " />
<glyph unicode="&#x2020;" horiz-adv-x="915" d="M47 842v84h363v499h94v-499h364v-84h-364v-1239h-94v1239h-363z" />
<glyph unicode="&#x2021;" horiz-adv-x="915" d="M47 236v83h363v523h-363v84h363v499h94v-499h364v-84h-364v-523h364v-83h-364v-633h-94v633h-363z" />
<glyph unicode="&#x2022;" horiz-adv-x="724" d="M180 563q0 39 14.5 74t40 61.5t60.5 41t74 14.5t72.5 -14.5t59 -41t40 -61.5t14.5 -74t-14.5 -73.5t-40 -60.5t-59 -40t-72.5 -14t-74 15.5t-60.5 41t-40 59t-14.5 72.5z" />
<glyph unicode="&#x2023;" horiz-adv-x="817" d="M166 246v620l586 -299z" />
<glyph unicode="&#x2026;" horiz-adv-x="1312" d="M119 74q0 29 21.5 52.5t58.5 23.5q35 0 59.5 -24t24.5 -52q0 -35 -23.5 -59.5t-58.5 -24.5q-39 0 -60.5 23.5t-21.5 60.5zM575 74q0 29 23 52.5t59 23.5q35 0 59.5 -24t24.5 -52q0 -35 -23.5 -59.5t-58.5 -24.5q-39 0 -61.5 23.5t-22.5 60.5zM1040 74q0 29 22.5 52.5 t59.5 23.5q35 0 59.5 -24t24.5 -52q0 -35 -22.5 -59.5t-59.5 -24.5t-60.5 23.5t-23.5 60.5z" />
<glyph unicode="&#x202f;" horiz-adv-x="374" />
<glyph unicode="&#x2030;" horiz-adv-x="2203" d="M90 788v408q0 49 21.5 90t58.5 70.5t86 47t106 17.5q59 0 109.5 -17.5t86.5 -47t56.5 -70.5t20.5 -90v-408q0 -49 -20.5 -90t-56.5 -71.5t-86 -47t-110 -16.5q-121 0 -196.5 63.5t-75.5 161.5zM172 801q0 -45 18.5 -77t47 -51.5t61.5 -27.5t63 -8q31 0 65 8t62.5 27.5 t47 51.5t18.5 77v381q0 45 -18.5 76.5t-47 51t-62.5 28t-65 8.5t-63.5 -8.5t-61 -28t-47 -51t-18.5 -76.5v-381zM301 -35l868 1497h82l-870 -1497h-80zM920 219v408q0 47 21.5 88t58 71.5t86 48t106.5 17.5q59 0 109.5 -17.5t86 -48t56 -71.5t20.5 -88v-410q0 -49 -20.5 -90 t-56 -71.5t-86 -47t-109.5 -16.5q-121 0 -196.5 64.5t-75.5 162.5zM1001 229q0 -45 18.5 -76.5t47.5 -51t61.5 -27.5t63.5 -8t64.5 8t62.5 27.5t47 51t18 76.5v381q0 45 -18 77t-47 52.5t-62.5 28.5t-64.5 8t-63.5 -8t-61.5 -28.5t-47.5 -52.5t-18.5 -77v-381zM1567 219v408 q0 47 21.5 88t58 71.5t86 48t106.5 17.5q59 0 109.5 -17.5t86.5 -48t56 -71.5t20 -88v-410q0 -49 -20 -90t-56 -71.5t-86.5 -47t-109.5 -16.5q-121 0 -196.5 64.5t-75.5 162.5zM1649 229q0 -45 18.5 -76.5t47 -51t61 -27.5t63.5 -8t64.5 8t62.5 27.5t47.5 51t18.5 76.5v381 q0 45 -18.5 77t-47.5 52.5t-62.5 28.5t-64.5 8t-63.5 -8t-61 -28.5t-47 -52.5t-18.5 -77v-381z" />
<glyph unicode="&#x2039;" horiz-adv-x="565" d="M129 449l242 352h90l-234 -352l234 -355h-92z" />
<glyph unicode="&#x203a;" horiz-adv-x="565" d="M129 94l233 355l-233 352h90l242 -352l-240 -355h-92z" />
<glyph unicode="&#x2044;" horiz-adv-x="307" d="M-322 -35l869 1497h82l-871 -1497h-80z" />
<glyph unicode="&#x205f;" horiz-adv-x="467" />
<glyph unicode="&#x2070;" horiz-adv-x="630" d="M43 973v407q0 49 21.5 90t58.5 71t86 47.5t106 17.5q59 0 109.5 -17.5t86.5 -47.5t56.5 -70.5t20.5 -90.5v-407q0 -49 -20.5 -90t-56.5 -72t-86 -47t-110 -16q-121 0 -196.5 63t-75.5 162zM125 985q0 -45 18.5 -76.5t47 -51t61.5 -28t63 -8.5q31 0 65 8.5t62.5 28t47 51 t18.5 76.5v381q0 45 -18.5 77t-47 51t-62.5 27.5t-65 8.5t-63.5 -8.5t-61 -27.5t-47 -51t-18.5 -77v-381z" />
<glyph unicode="&#x2074;" horiz-adv-x="630" d="M29 889v63l315 645h86l-311 -636h317v258h74v-258h90v-72h-90v-133h-74v133h-407z" />
<glyph unicode="&#x2075;" horiz-adv-x="630" d="M51 838l49 55q92 -74 197 -74q29 0 63.5 7.5t64.5 24.5t50.5 48t20.5 78v119q0 72 -36 107.5t-100 35.5q-51 0 -116.5 -24.5t-116.5 -55.5l-68 31v407h494v-73h-412v-281q55 35 115.5 53.5t105.5 18.5q102 0 159 -56.5t57 -154.5v-137q0 -96 -77 -157.5t-204 -61.5 q-84 0 -144.5 27.5t-101.5 62.5z" />
<glyph unicode="&#x2076;" horiz-adv-x="630" d="M49 969v415q0 49 21.5 90.5t58.5 70t86 45t104 16.5q84 0 142.5 -26t99.5 -60l-51 -60q-39 33 -84 52.5t-104 19.5q-29 0 -62 -9.5t-61.5 -28.5t-47 -52t-18.5 -80v-168q76 43 136.5 63.5t99.5 20.5q104 0 158.5 -56.5t54.5 -152.5v-96q0 -49 -21.5 -91t-58.5 -72 t-85 -46t-104 -16q-53 0 -101 15t-84 45t-57.5 71t-21.5 90zM133 985q0 -45 17.5 -75.5t44 -50t58.5 -29t60 -9.5q29 0 63 9.5t61.5 29t46 50t18.5 75.5v74q0 74 -39 108.5t-98 34.5q-53 0 -112.5 -26.5t-119.5 -57.5v-133z" />
<glyph unicode="&#x2077;" horiz-adv-x="618" d="M43 1395v202h532v-67l-344 -776h-90l342 770h-358v-129h-82z" />
<glyph unicode="&#x2078;" horiz-adv-x="630" d="M43 985q0 53 35 111.5t112 89.5q-68 23 -103.5 77t-35.5 109t21.5 99.5t58.5 73t84 44t98 15.5t99.5 -14.5t85.5 -44t59.5 -72.5t22.5 -99q0 -53 -36 -107.5t-104 -78.5q39 -12 67 -35t46 -50.5t26.5 -57t8.5 -54.5q0 -59 -22.5 -105t-60.5 -77t-87 -46t-103 -15 q-51 0 -100 15t-87 45t-61.5 74t-23.5 103zM123 983q0 -74 54 -119t138 -45t137.5 44t53.5 122q0 74 -54.5 119t-136.5 45q-78 0 -135 -45t-57 -121zM131 1374q0 -35 15.5 -63.5t41 -49t58.5 -31.5t69 -11q33 0 66 11t59.5 31.5t42 49t15.5 63.5q0 39 -16.5 69t-42 49 t-58.5 28.5t-66 9.5q-35 0 -67.5 -9.5t-58 -28.5t-42 -49t-16.5 -69z" />
<glyph unicode="&#x2079;" horiz-adv-x="630" d="M37 1288v94q0 49 21.5 90t58.5 71t85 46.5t103 16.5q53 0 101.5 -15.5t84 -45t57 -69.5t21.5 -90v-415q0 -49 -21.5 -91t-59 -71t-87 -45t-104.5 -16q-76 0 -136.5 24.5t-99.5 58.5l50 60q37 -31 83 -50.5t103 -19.5q33 0 66.5 8.5t61.5 29t45 52t17 78.5v170 q-78 -43 -137 -63.5t-100 -20.5q-102 0 -157.5 57.5t-55.5 155.5zM119 1296q0 -74 37 -109.5t96 -35.5q49 0 103.5 22.5t107.5 49.5l24 12v135q0 8 -2 12q-2 41 -20.5 70t-44 46.5t-56 25.5t-59.5 8q-6 0 -10 -2q-29 0 -59.5 -9.5t-57 -28.5t-43 -49t-16.5 -73v-74z" />
<glyph unicode="&#x207a;" horiz-adv-x="622" d="M29 1071v62h247v229h66v-229h248v-62h-248v-233h-66v233h-247z" />
<glyph unicode="&#x207b;" horiz-adv-x="491" d="M63 1051v69h365v-69h-365z" />
<glyph unicode="&#x207c;" horiz-adv-x="622" d="M29 952v66h561v-66h-561zM29 1161v66h561v-66h-561z" />
<glyph unicode="&#x207d;" horiz-adv-x="356" d="M78 1120q0 141 60.5 277.5t156.5 238.5l47 -28q-82 -106 -129 -231.5t-47 -248.5q0 -37 6 -69q10 -113 56 -221.5t114 -198.5l-41 -31q-47 49 -87 108.5t-70.5 126t-48 136.5t-17.5 141z" />
<glyph unicode="&#x207e;" horiz-adv-x="354" d="M31 637q78 104 127 231t49 256q0 123 -48 250t-128 234l43 26q98 -102 159.5 -239.5t61.5 -276.5q0 -70 -17.5 -140.5t-48 -137t-71.5 -126t-86 -108.5q-10 10 -20.5 16.5t-20.5 14.5z" />
<glyph unicode="&#x207f;" horiz-adv-x="679" d="M61 571v662h70l10 -82q92 51 149.5 70.5t106.5 19.5q104 0 162.5 -55.5t58.5 -171.5v-443h-79v426q0 92 -41 131t-113 37q-47 0 -111.5 -26.5t-130.5 -67.5v-500h-82z" />
<glyph unicode="&#x2080;" horiz-adv-x="630" d="M43 35v407q0 47 21.5 88t58.5 72t86 48.5t106 17.5q59 0 109.5 -17.5t86.5 -48.5t56.5 -72t20.5 -88v-409q0 -49 -20.5 -90t-56.5 -72t-86 -47.5t-110 -16.5q-121 0 -196.5 65t-75.5 163zM125 45q0 -45 18.5 -76.5t47 -51t61.5 -28t63 -8.5q31 0 65 8.5t62.5 28t47 51 t18.5 76.5v381q0 45 -18.5 77t-47 52t-62.5 28.5t-65 8.5t-63.5 -8.5t-61 -28.5t-47 -52t-18.5 -77v-381z" />
<glyph unicode="&#x2081;" horiz-adv-x="528" d="M80 518l196 141h74v-843h-80v743l-143 -102z" />
<glyph unicode="&#x2082;" horiz-adv-x="630" d="M43 -102q0 59 23.5 107t62.5 89t88 75t100 64q35 20 69 44t59.5 50.5t41 56.5t15.5 62q0 39 -16.5 67t-44 45t-63.5 25.5t-73 8.5q-61 0 -114.5 -19.5t-92.5 -48.5l-41 62q45 33 109.5 56.5t136.5 23.5q53 0 104.5 -11.5t91.5 -37t63.5 -66.5t23.5 -100 q0 -78 -58.5 -144.5t-142.5 -118.5q-39 -23 -84 -50t-83 -63t-63.5 -77t-25.5 -88v-23h457v-71h-543v82z" />
<glyph unicode="&#x2083;" horiz-adv-x="630" d="M18 -109l48 58q37 -33 90 -51.5t110 -18.5q86 0 145.5 45t59.5 125t-48 122t-114 42h-108v72h108q23 0 49.5 9t50 29.5t39 50t15.5 72.5q0 39 -17.5 67t-44 45t-58.5 25.5t-62 8.5q-53 0 -105.5 -18.5t-93.5 -47.5l-43 58q53 39 115.5 59.5t134.5 20.5q47 0 93 -12.5 t83 -39t59.5 -67.5t22.5 -99q0 -57 -33 -113.5t-104 -78.5q82 -27 112.5 -84t30.5 -117q0 -57 -22.5 -103t-61.5 -78t-91 -48.5t-110 -16.5q-82 0 -144.5 25t-105.5 59z" />
<glyph unicode="&#x2084;" horiz-adv-x="630" d="M29 12q25 53 67.5 141.5t89.5 182.5t90 181t68 140h86l-311 -637h317v261h76v-261h88v-71h-88v-133h-76v133h-407v63z" />
<glyph unicode="&#x2085;" horiz-adv-x="630" d="M51 -102l49 57q88 -74 197 -74q29 0 63.5 6.5t64.5 23.5t50.5 48t20.5 78v119q0 72 -36 107.5t-100 35.5q-51 0 -116.5 -24.5t-116.5 -53.5q-4 0 -13.5 5t-20.5 9.5t-21.5 9.5t-12.5 5v409h494v-75h-412v-281q55 35 115.5 54.5t105.5 19.5q102 0 159 -57.5t57 -153.5 v-139q0 -96 -77 -158t-204 -62q-84 0 -144.5 29t-101.5 62z" />
<glyph unicode="&#x2086;" horiz-adv-x="630" d="M49 29v415q0 49 21.5 90t58.5 71t86 46.5t104 16.5q84 0 143.5 -27t100.5 -61l-53 -60q-39 35 -84 54.5t-104 19.5q-29 0 -62 -9.5t-61.5 -28.5t-47 -52t-18.5 -80v-168q76 41 136.5 62.5t99.5 21.5q104 0 158.5 -57.5t54.5 -153.5v-96q0 -49 -21.5 -91t-58.5 -71 t-85 -45t-104 -16q-53 0 -101 15t-84 45t-57.5 70t-21.5 89zM133 45q0 -45 17.5 -75.5t44 -50t58.5 -29t60 -9.5q29 0 63 9.5t61.5 29t46 51t18.5 74.5v76q0 72 -39 107.5t-98 35.5q-53 0 -112.5 -27.5t-119.5 -58.5v-133z" />
<glyph unicode="&#x2087;" horiz-adv-x="618" d="M43 455v202h532v-65l-344 -776h-90q86 193 171 384t171 384h-358v-129h-82z" />
<glyph unicode="&#x2088;" horiz-adv-x="630" d="M43 45q0 53 35 111.5t112 89.5q-68 23 -103.5 77t-35.5 109t21.5 99t58.5 73t84 44.5t98 15.5t99.5 -14.5t85.5 -43t59.5 -71.5t22.5 -99q0 -55 -36 -109.5t-104 -78.5q39 -12 67 -35t46 -50.5t26.5 -57t8.5 -54.5q0 -59 -22.5 -104t-60.5 -76t-87 -47.5t-103 -16.5 q-51 0 -100 15.5t-87 45.5t-61.5 74t-23.5 103zM123 43q0 -74 54 -118t138 -44t137.5 43t53.5 121q0 74 -54.5 120t-136.5 46q-78 0 -135 -46t-57 -122zM131 434q0 -35 15.5 -63.5t41 -48t58.5 -30.5t69 -11q33 0 66 11t59.5 30.5t42 48t15.5 65.5q0 39 -16.5 67.5t-42 48 t-58.5 29t-66 9.5q-35 0 -67.5 -9.5t-58 -29t-42 -49t-16.5 -68.5z" />
<glyph unicode="&#x2089;" horiz-adv-x="630" d="M37 348v94q0 49 21.5 90t58.5 71t85 46.5t103 16.5q53 0 101.5 -15.5t84 -45.5t57 -69.5t21.5 -89.5v-415q0 -49 -21.5 -90t-59 -71t-87 -45t-104.5 -15q-76 0 -136.5 24.5t-99.5 59.5l50 57q37 -29 83 -48.5t103 -19.5q33 0 66.5 8.5t61.5 28t45 51t17 78.5v170 q-78 -43 -137 -63.5t-100 -20.5q-102 0 -157.5 57.5t-55.5 155.5zM119 356q0 -74 37 -109.5t96 -35.5q49 0 103.5 22.5t107.5 49.5l24 12v135q0 45 -17 76t-44 50t-58.5 27.5t-62.5 8.5q-29 0 -61.5 -8.5t-60 -27.5t-46 -50t-18.5 -76v-74z" />
<glyph unicode="&#x208a;" horiz-adv-x="622" d="M29 129v61h247v230h66v-230h248v-61h-248v-233h-66v233h-247z" />
<glyph unicode="&#x208b;" horiz-adv-x="491" d="M63 109v69h365v-69h-365z" />
<glyph unicode="&#x208c;" horiz-adv-x="622" d="M29 10v66h561v-66h-561zM29 219v66h561v-66h-561z" />
<glyph unicode="&#x208d;" horiz-adv-x="356" d="M78 242q0 141 60.5 277t156.5 239l47 -29q-82 -106 -129 -231t-47 -248q0 -37 6 -70q10 -113 56 -221.5t114 -198.5l-41 -30q-47 49 -87 108.5t-70.5 126t-48 136t-17.5 141.5z" />
<glyph unicode="&#x208e;" horiz-adv-x="354" d="M31 -242q78 104 127 231.5t49 256.5q0 123 -48 250t-128 233l43 27q98 -102 159.5 -239.5t61.5 -276.5q0 -70 -17.5 -140.5t-48 -137t-71.5 -126t-86 -108.5q-10 10 -20.5 16t-20.5 14z" />
<glyph unicode="&#x20ab;" horiz-adv-x="968" d="M113 498v262q0 133 77.5 204.5t210.5 71.5q47 0 116 -11t163 -54v213h-227v69h227v172h86v-172h90v-69h-90v-946h-72l-12 98q-117 -70 -190.5 -90.5t-118.5 -20.5q-121 0 -190.5 67.5t-69.5 205.5zM139 0v78h662v-78h-662zM197 514q0 -113 47 -161t133 -48q53 0 138 33 t165 86v457q-86 41 -154.5 59t-119.5 18q-209 0 -209 -215v-229z" />
<glyph unicode="&#x20ac;" horiz-adv-x="968" d="M33 578v71h809v-71h-600v-103q0 -104 33.5 -179t88 -124t125 -72.5t144.5 -23.5q76 0 146.5 17.5t131.5 51.5l43 -77q-57 -35 -136 -58.5t-181 -23.5q-117 0 -209 35.5t-155.5 99t-96.5 150.5t-33 192v115h-110zM33 782v74h110v100q0 102 35 188.5t99.5 149t155.5 97 t204 34.5q92 0 170 -17t149 -58l-45 -82q-61 33 -131.5 50t-142.5 17q-78 0 -148.5 -22.5t-126 -70.5t-88 -123t-32.5 -179v-84h600v-74h-809z" />
<glyph unicode="&#x2103;" horiz-adv-x="1615" d="M55 1182q0 51 20.5 97t54.5 80t80 53.5t97 19.5q53 0 99.5 -19.5t80 -53.5t53 -80t19.5 -97q0 -53 -19.5 -98.5t-53 -79t-80 -53t-99.5 -19.5t-99 19.5t-80 53t-53.5 78.5t-19.5 99zM127 1182q0 -76 51 -129.5t129 -53.5q76 0 128 51.5t52 131.5q0 78 -52 131t-128 53 q-78 0 -129 -53t-51 -131zM692 459v499q0 102 36 188.5t101.5 148t156.5 96t202 34.5q106 0 195.5 -24.5t168.5 -79.5l-53 -80q-66 47 -145.5 70.5t-165.5 23.5q-74 0 -145.5 -22.5t-128 -70.5t-90 -123t-33.5 -179v-465q0 -104 34.5 -180t90 -125t125 -72.5t141.5 -23.5 q180 0 321 100l51 -76q-55 -41 -149 -76.5t-217 -35.5q-113 0 -205 34.5t-156.5 98t-99.5 149.5t-35 191z" />
<glyph unicode="&#x2105;" horiz-adv-x="1374" d="M70 948v209q0 117 77.5 187.5t200.5 70.5q53 0 112.5 -16.5t108.5 -57.5l-49 -63q-43 37 -88 50t-78 13q-39 0 -75.5 -11t-65.5 -34.5t-46 -61.5t-17 -93v-178q0 -53 17 -91t45 -63t64.5 -36t73.5 -11q33 0 83 13t85 42q14 -16 25.5 -30.5t23.5 -30.5 q-47 -35 -105.5 -52.5t-113.5 -17.5q-129 0 -203.5 74t-74.5 188zM225 -35q219 375 435.5 747.5t433.5 747.5h82l-871 -1495h-80zM752 250v215q0 57 22.5 104t61 80t90 51.5t108.5 18.5q59 0 111.5 -18.5t90.5 -51.5t59.5 -80t21.5 -104v-215q0 -121 -78 -189.5t-207 -68.5 q-125 0 -202.5 69.5t-77.5 188.5zM831 266q0 -55 16.5 -94t45.5 -62.5t65.5 -35t77.5 -11.5t78 11.5t64.5 36t44 63.5t16.5 92v178q0 55 -18.5 93t-47 62t-64.5 35t-73 11t-73.5 -11t-66.5 -35t-47.5 -61.5t-17.5 -93.5v-178z" />
<glyph unicode="&#x2109;" horiz-adv-x="1595" d="M49 1182q0 51 20.5 97t54.5 80t80 53.5t97 19.5q53 0 99 -19.5t80 -53.5t53.5 -80t19.5 -97q0 -53 -19.5 -98.5t-53.5 -79t-80 -53t-99 -19.5t-99 19.5t-80 53t-53.5 78.5t-19.5 99zM121 1182q0 -76 51 -129.5t129 -53.5q76 0 128 51.5t52 131.5q0 78 -52 131t-128 53 q-78 0 -129 -53t-51 -131zM655 0v1411h910v-90h-811v-561h696v-90h-696v-670h-99z" />
<glyph unicode="&#x2113;" horiz-adv-x="1032" d="M119 430q33 18 73.5 44t88.5 65v483q0 119 25.5 200t67.5 131t96 71.5t114 21.5q39 0 78.5 -15.5t72.5 -47t52.5 -80t19.5 -113.5q0 -84 -32 -168t-89 -169t-138 -172t-181 -177v-133q0 -86 19.5 -146.5t52 -97.5t74.5 -53.5t87 -16.5q84 0 145.5 58.5t108.5 163.5 l82 -29q-59 -125 -141 -197.5t-197 -72.5q-141 0 -230 92t-89 252v127q-41 -29 -74 -49.5t-68 -39.5zM367 602q186 174 270 316.5t84 261.5q0 37 -8 71.5t-25.5 62t-44.5 44t-65 16.5q-39 0 -77 -19.5t-68 -60.5t-48 -104.5t-18 -153.5v-434z" />
<glyph unicode="&#x2116;" horiz-adv-x="1837" d="M160 0v1409h98q113 -199 225.5 -393.5t223.5 -390.5q63 -113 125.5 -225.5t128.5 -225.5h2v1235h94v-1409h-96l-435 764q-68 119 -135 237.5t-133 239.5h-2v-1241h-96zM1180 997v187q0 55 21.5 99t60 77t89 50t109.5 17q121 0 199 -66.5t78 -176.5v-183q0 -115 -76 -184 t-203 -69q-125 0 -201.5 69.5t-76.5 179.5zM1192 541v75h528v-75h-528zM1260 1014q0 -51 16 -87t44 -59.5t64.5 -35t75.5 -11.5q80 0 139.5 47t59.5 146v149q0 51 -17.5 88t-46 59.5t-64.5 34t-71 11.5q-37 0 -72.5 -11.5t-64.5 -34t-46 -59.5t-17 -88v-149z" />
<glyph unicode="&#x2117;" horiz-adv-x="1597" d="M106 698q0 154 53.5 286t147.5 229.5t222 151.5t276 54q150 0 277.5 -54t222 -151.5t148.5 -229.5t54 -286t-54 -284.5t-148.5 -228t-222 -151.5t-277.5 -54t-278 54t-221 151.5t-146.5 228.5t-53.5 284zM184 698q0 -135 48.5 -253.5t131 -206.5t196.5 -138.5t245 -50.5 q133 0 247.5 50.5t198.5 138.5t132.5 206.5t48.5 253.5q0 137 -48.5 256t-132.5 206t-198.5 137.5t-247.5 50.5q-131 0 -245 -50.5t-196.5 -137.5t-131 -205.5t-48.5 -256.5zM569 225v883h318q55 0 104 -14.5t88 -45t61.5 -79.5t22.5 -119q0 -45 -15 -90t-48 -82t-83 -59.5 t-118 -22.5h-250v-371h-80zM649 670h244q51 0 87 15t58.5 42t33.5 58.5t11 66.5q0 94 -57 138t-139 44h-238v-364z" />
<glyph unicode="&#x2122;" horiz-adv-x="1654" d="M76 1354v71h590v-71h-258v-748h-72v748h-260zM776 606v817h80l295 -620l293 620h76v-817h-70v684l-276 -583h-48l-280 583v-684h-70z" />
<glyph unicode="&#x2126;" horiz-adv-x="1202" d="M72 0v90h243q-102 57 -158.5 157.5t-56.5 229.5v484q0 102 36 187t102.5 146.5t158.5 96t205 34.5q111 0 203 -34.5t159.5 -96t104.5 -147.5t37 -186v-488q0 -129 -55.5 -230.5t-157.5 -152.5h248v-90h-404v104q57 14 106.5 47t86.5 81.5t57.5 112t20.5 142.5v453 q0 100 -34 175t-90.5 124t-130 72.5t-151.5 23.5q-82 0 -155.5 -23.5t-129 -72.5t-87 -124t-31.5 -175v-453q0 -80 23.5 -143t62.5 -110.5t88 -79t100 -48.5v-106h-401z" />
<glyph unicode="&#x212b;" horiz-adv-x="1163" d="M41 0l487 1411h111l491 -1411h-104q-29 86 -59.5 170t-61.5 170h-645q-29 -86 -57.5 -170t-57.5 -170h-104zM293 430h581q-8 25 -29.5 91.5t-51 153.5t-63.5 185t-63.5 186.5t-52 154t-30.5 89.5h-2q-8 -25 -30 -91t-51.5 -153.5t-62 -185.5t-62.5 -185t-52.5 -153.5 t-30.5 -91.5zM393 1636q0 39 15.5 73t41 59.5t59.5 40t73 14.5t73.5 -14.5t60 -40t40 -59.5t14.5 -73t-14.5 -72.5t-40 -59t-60 -40t-73.5 -14.5q-78 0 -133.5 54.5t-55.5 131.5zM453 1636q0 -53 37.5 -91t91.5 -38q55 0 92 38t37 91t-37 91t-92 38q-53 0 -91 -37.5 t-38 -91.5z" />
<glyph unicode="&#x212e;" horiz-adv-x="1673" d="M139 666q0 141 56.5 266t155 219t229.5 148.5t278 54.5q154 0 283 -52.5t224 -144.5t150.5 -221t61.5 -283h-1184v-399q33 -59 85 -103.5t113.5 -74t130.5 -45t136 -15.5q135 0 258 59.5t213 160.5h94q-100 -123 -249.5 -191t-315.5 -68q-147 0 -278 54.5t-229.5 147.5 t-155 219t-56.5 268zM393 694h932v383q-35 55 -86 100.5t-113.5 76t-130 48t-135.5 17.5q-123 0 -245.5 -65.5t-221.5 -178.5v-381z" />
<glyph unicode="&#x2153;" horiz-adv-x="1556" d="M135 1274l197 139h74v-842h-80v744l-144 -103zM213 -35l868 1497h82l-870 -1497h-80zM887 76l47 57q37 -33 90 -51.5t111 -18.5q86 0 145 45.5t59 124.5q0 80 -48 122t-113 42h-109v72h109q23 0 49 9t49.5 29.5t39 50.5t15.5 73q0 39 -17.5 66.5t-44 45t-58 25.5t-62.5 8 q-53 0 -105.5 -18.5t-93.5 -46.5l-43 57q53 39 115.5 59.5t134.5 20.5q47 0 93 -12.5t83 -39t59.5 -67.5t22.5 -98t-32.5 -113.5t-104.5 -79.5q82 -27 112.5 -84t30.5 -116q0 -57 -22.5 -103.5t-61.5 -78t-91 -48t-109 -16.5q-82 0 -144.5 24.5t-105.5 59.5z" />
<glyph unicode="&#x2154;" horiz-adv-x="1556" d="M45 571v82q0 59 23.5 107.5t62.5 89.5t88 74.5t100 64.5q35 20 69 44t59.5 50.5t41 56t15.5 62.5q0 39 -16.5 66.5t-44 45t-63.5 26t-73 8.5q-61 0 -114.5 -19.5t-92.5 -48.5l-41 61q45 33 109.5 56.5t136.5 23.5q53 0 104.5 -11t91.5 -36.5t63.5 -67t23.5 -100.5 q0 -78 -58.5 -144.5t-142.5 -117.5q-39 -23 -84 -51.5t-83 -63t-63.5 -76.5t-25.5 -89v-21h457v-72h-543zM326 -35l868 1497h82l-870 -1497h-80zM977 76l47 57q37 -33 90 -51.5t111 -18.5q86 0 145.5 45.5t59.5 124.5q0 80 -48.5 122t-113.5 42h-109v72h109q23 0 49 9 t50 29.5t39 50.5t15 73q0 39 -17.5 66.5t-44 45t-58 25.5t-62.5 8q-53 0 -105.5 -18.5t-93.5 -46.5l-43 57q53 39 115.5 59.5t134.5 20.5q47 0 93 -12.5t83 -39t59.5 -67.5t22.5 -98t-32.5 -113.5t-104.5 -79.5q82 -27 112.5 -84t30.5 -116q0 -57 -22.5 -103.5t-61 -78 t-91 -48t-109.5 -16.5q-82 0 -144.5 24.5t-105.5 59.5z" />
<glyph unicode="&#x2155;" horiz-adv-x="1556" d="M137 1274l197 139h74v-842h-80v744l-144 -103zM207 -35l868 1497h82l-870 -1497h-80zM893 82l49 57q88 -74 197 -73q29 0 63.5 6t64 23.5t50 48t20.5 77.5v119q0 72 -35.5 107.5t-99.5 35.5q-51 0 -116.5 -24.5t-116.5 -52.5q-4 0 -13.5 5t-20.5 9t-21.5 9t-12.5 5v410 h494v-76h-412v-281q55 35 115.5 54.5t105.5 19.5q102 0 158.5 -57.5t56.5 -153.5v-139q0 -96 -76.5 -157.5t-203.5 -61.5q-84 0 -144.5 28.5t-101.5 61.5z" />
<glyph unicode="&#x2156;" horiz-adv-x="1556" d="M43 571v82q0 59 23.5 107.5t62.5 89.5t88 74.5t100 64.5q35 20 69 44t59.5 50.5t41 56t15.5 62.5q0 39 -16.5 66.5t-44 45t-63.5 26t-73 8.5q-61 0 -114.5 -19.5t-92.5 -48.5l-41 61q45 33 109.5 56.5t136.5 23.5q53 0 104.5 -11t91.5 -36.5t63.5 -67t23.5 -100.5 q0 -78 -58.5 -144.5t-142.5 -117.5q-39 -23 -84 -51.5t-83 -63t-63.5 -76.5t-25.5 -89v-21h457v-72h-543zM311 -35l869 1497h82l-871 -1497h-80zM985 82l49 57q88 -74 197 -73q29 0 63.5 6t64.5 23.5t50.5 48t20.5 77.5v119q0 72 -36 107.5t-100 35.5q-51 0 -116.5 -24.5 t-116.5 -52.5q-4 0 -13.5 5t-20.5 9t-21.5 9t-12.5 5v410h494v-76h-412v-281q55 35 115.5 54.5t105.5 19.5q102 0 158.5 -57.5t56.5 -153.5v-139q0 -96 -76.5 -157.5t-203.5 -61.5q-84 0 -144.5 28.5t-101.5 61.5z" />
<glyph unicode="&#x2157;" horiz-adv-x="1556" d="M57 645q2 2 8.5 11.5t14.5 18.5t15 17t9 13q37 -35 90.5 -52.5t110.5 -17.5q86 0 145.5 45t59.5 125t-48 121t-114 41h-108v73h108q23 0 49.5 9.5t50 30t40 50t16.5 72.5q0 39 -17.5 66.5t-45 45t-59.5 26t-63 8.5q-53 0 -106 -18.5t-94 -49.5l-43 59q55 37 117.5 58.5 t134.5 21.5q47 0 93 -12t83 -39t59.5 -67.5t22.5 -98.5q0 -59 -33 -114.5t-104 -79.5q82 -25 112.5 -82.5t30.5 -116.5q0 -57 -22.5 -103.5t-61.5 -78t-91 -49t-110 -17.5q-82 0 -144.5 24.5t-105.5 59.5zM283 -35l868 1497h82l-871 -1497h-79zM971 82l49 57q88 -74 197 -73 q29 0 63.5 6t64 23.5t50 48t20.5 77.5v119q0 72 -36 107.5t-99 35.5q-51 0 -116.5 -24.5t-116.5 -52.5q-4 0 -13.5 5t-21 9t-21.5 9t-12 5v410h494v-76h-412v-281q55 35 115.5 54.5t105.5 19.5q102 0 158.5 -57.5t56.5 -153.5v-139q0 -96 -77 -157.5t-203 -61.5 q-84 0 -144.5 28.5t-101.5 61.5z" />
<glyph unicode="&#x2158;" horiz-adv-x="1556" d="M37 705v63l315 645h86l-311 -637h317v258h74v-258h90v-71h-90v-134h-74v134h-407zM305 -35l869 1497h81l-870 -1497h-80zM991 82l49 57q88 -74 197 -73q29 0 63.5 6t64.5 23.5t50.5 48t20.5 77.5v119q0 72 -36 107.5t-100 35.5q-51 0 -116.5 -24.5t-116.5 -52.5 q-4 0 -13.5 5t-20.5 9t-21.5 9t-12.5 5v410h494v-76h-412v-281q55 35 115.5 54.5t106.5 19.5q102 0 158.5 -57.5t56.5 -153.5v-139q0 -96 -77 -157.5t-204 -61.5q-84 0 -144.5 28.5t-101.5 61.5z" />
<glyph unicode="&#x2159;" horiz-adv-x="1556" d="M150 1274l196 139h74v-842h-80v744l-143 -103zM223 -35l869 1497h82l-871 -1497h-80zM872 213v416q0 49 21.5 90t58.5 70.5t86 46t105 16.5q84 0 143.5 -26.5t99.5 -61.5l-53 -59q-39 35 -84 54t-104 19q-29 0 -61.5 -9t-61.5 -28.5t-47.5 -52.5t-18.5 -80v-168 q76 41 136.5 62.5t99.5 21.5q104 0 158.5 -57t54.5 -154v-96q0 -49 -21.5 -91t-58.5 -70.5t-85 -45t-103 -16.5q-53 0 -101.5 15.5t-84.5 45t-57.5 69.5t-21.5 89zM956 229q0 -45 17.5 -75.5t44 -50t58.5 -28.5t61 -9t62.5 9t61 28.5t46 51t18.5 74.5v76q0 72 -39 108 t-98 36q-53 0 -112.5 -28t-119.5 -59v-133z" />
<glyph unicode="&#x215a;" horiz-adv-x="1556" d="M74 653l49 56q92 -74 196 -74q29 0 64 7t64.5 24.5t50 48t20.5 78.5v118q0 72 -36 108t-99 36q-51 0 -116.5 -24.5t-116.5 -55.5l-68 31v407h493v-74h-411v-280q55 35 115.5 53t105.5 18q102 0 158.5 -56t56.5 -154v-138q0 -96 -77 -157.5t-204 -61.5q-84 0 -144 27.5 t-101 62.5zM291 -35l868 1497h82l-870 -1497h-80zM950 213v416q0 49 21.5 90t58.5 70.5t86 46t105 16.5q84 0 143 -26.5t100 -61.5l-53 -59q-39 35 -84 54t-104 19q-29 0 -62 -9t-61.5 -28.5t-47 -52.5t-18.5 -80v-168q76 41 136.5 62.5t99.5 21.5q104 0 158.5 -57 t54.5 -154v-96q0 -49 -21.5 -91t-58.5 -70.5t-85 -45t-104 -16.5q-53 0 -101 15.5t-84 45t-57.5 69.5t-21.5 89zM1034 229q0 -45 17.5 -75.5t44 -50t58.5 -28.5t60 -9q29 0 63 9t61.5 28.5t46 51t18.5 74.5v76q0 72 -39 108t-98 36q-53 0 -112.5 -28t-119.5 -59v-133z" />
<glyph unicode="&#x215b;" horiz-adv-x="1556" d="M164 1274l196 139h74v-842h-80v744l-143 -103zM201 -35l868 1497h82l-870 -1497h-80zM846 229q0 53 34.5 111.5t112.5 89.5q-68 23 -103.5 77t-35.5 109t21.5 99.5t58.5 73t84 44t98 15.5t99.5 -14.5t85 -43t59 -71.5t22.5 -98t-35.5 -109.5t-103.5 -79.5 q39 -12 66.5 -34.5t46 -50.5t27 -57.5t8.5 -53.5q0 -59 -22.5 -104.5t-60.5 -76t-87.5 -47t-102.5 -16.5q-51 0 -100 15.5t-87 45t-61.5 73.5t-23.5 103zM926 227q0 -74 54 -117.5t138 -43.5t137.5 43t53.5 120q0 74 -54.5 120t-136.5 46q-78 0 -135 -46t-57 -122zM934 618 q0 -35 15.5 -63.5t41 -48t58 -30.5t69.5 -11q33 0 66 11t59.5 30.5t41.5 48.5t15 66q0 39 -16 67.5t-41.5 48t-58.5 28.5t-66 9q-35 0 -67.5 -9t-58 -28.5t-42 -49.5t-16.5 -69z" />
<glyph unicode="&#x215c;" horiz-adv-x="1556" d="M68 645q2 2 8 11.5t14 18.5t15.5 17t9.5 13q37 -35 90 -52.5t110 -17.5q86 0 145.5 45t59.5 125t-48 121t-114 41h-108v73h108q23 0 49.5 9.5t50 30t40 50t16.5 72.5q0 39 -17.5 66.5t-45 45t-59.5 26t-62 8.5q-53 0 -106.5 -18.5t-94.5 -49.5l-43 59q55 37 117.5 58.5 t134.5 21.5q47 0 93 -12t83 -39t59.5 -67.5t22.5 -98.5q0 -59 -33 -114.5t-104 -79.5q82 -25 112.5 -82.5t30.5 -116.5q0 -57 -22.5 -103.5t-61.5 -78t-91 -49t-110 -17.5q-82 0 -144 24.5t-105 59.5zM287 -35l868 1497h82l-870 -1497h-80zM944 229q0 53 35 111.5t113 89.5 q-68 23 -104 77t-36 109t21.5 99.5t58.5 73t84 44t98 15.5t99.5 -14.5t85.5 -43t59.5 -71.5t22.5 -98t-36 -109.5t-104 -79.5q39 -12 67 -34.5t46.5 -50.5t26.5 -57.5t8 -53.5q0 -59 -22.5 -104.5t-60.5 -76t-87 -47t-102 -16.5q-51 0 -100.5 15.5t-87.5 45t-61.5 73.5 t-23.5 103zM1024 227q0 -74 54.5 -117.5t138.5 -43.5t137 43t53 120q0 74 -54 120t-136 46q-78 0 -135.5 -46t-57.5 -122zM1032 618q0 -35 15.5 -63.5t41 -48t58.5 -30.5t70 -11q33 0 65.5 11t59 30.5t42 48.5t15.5 66q0 39 -16.5 67.5t-42 48t-58 28.5t-65.5 9 q-35 0 -68 -9t-58.5 -28.5t-42 -49.5t-16.5 -69z" />
<glyph unicode="&#x215d;" horiz-adv-x="1556" d="M74 653l49 56q92 -74 196 -74q29 0 64 7t64.5 24.5t50 48t20.5 78.5v118q0 72 -36 108t-99 36q-51 0 -116.5 -24.5t-116.5 -55.5l-68 31v407h493v-74h-411v-280q55 35 115.5 53t105.5 18q102 0 158.5 -56t56.5 -154v-138q0 -96 -77 -157.5t-204 -61.5q-84 0 -144 27.5 t-101 62.5zM283 -35l868 1497h82l-871 -1497h-79zM936 229q0 53 35 111.5t112 89.5q-68 23 -103.5 77t-35.5 109t21.5 99.5t58.5 73t84 44t98 15.5t99.5 -14.5t85 -43t59.5 -71.5t23 -98t-36 -109.5t-104 -79.5q39 -12 66.5 -34.5t46 -50.5t27 -57.5t8.5 -53.5 q0 -59 -22.5 -104.5t-60.5 -76t-87 -47t-103 -16.5q-51 0 -100 15.5t-87 45t-61.5 73.5t-23.5 103zM1016 227q0 -74 54 -117.5t138 -43.5t137.5 43t53.5 120q0 74 -54.5 120t-136.5 46q-78 0 -135 -46t-57 -122zM1024 618q0 -35 15.5 -63.5t41 -48t58 -30.5t69.5 -11 q33 0 66 11t59.5 30.5t42 48.5t15.5 66q0 39 -16.5 67.5t-42 48t-58.5 28.5t-66 9q-35 0 -67.5 -9t-58 -28.5t-42 -49.5t-16.5 -69z" />
<glyph unicode="&#x215e;" horiz-adv-x="1556" d="M125 1210v203h532v-67l-344 -777h-90l342 770h-358v-129h-82zM229 -35l869 1497h82l-871 -1497h-80zM885 229q0 53 34.5 111.5t112.5 89.5q-68 23 -103.5 77t-35.5 109t21.5 99.5t58.5 73t84 44t98 15.5t99.5 -14.5t85 -43t59 -71.5t22.5 -98t-35.5 -109.5t-103.5 -79.5 q39 -12 66.5 -34.5t46 -50.5t27 -57.5t8.5 -53.5q0 -59 -23 -104.5t-60.5 -76t-87 -47t-102.5 -16.5q-51 0 -100 15.5t-87 45t-61.5 73.5t-23.5 103zM965 227q0 -74 54 -117.5t138 -43.5t137.5 43t53.5 120q0 74 -54.5 120t-136.5 46q-78 0 -135 -46t-57 -122zM973 618 q0 -35 15.5 -63.5t41 -48t58 -30.5t69.5 -11q33 0 65.5 11t59.5 30.5t42 48.5t15 66q0 39 -16 67.5t-42 48t-58.5 28.5t-65.5 9q-35 0 -67.5 -9t-58 -28.5t-42 -49.5t-16.5 -69z" />
<glyph unicode="&#x215f;" horiz-adv-x="851" d="M135 1274l197 139h74v-842h-80v744l-144 -103zM223 -35l869 1497h82l-871 -1497h-80z" />
<glyph unicode="&#x2190;" horiz-adv-x="1660" d="M123 657l434 433l61 -60l-339 -334h1269v-82h-1269l339 -331l-61 -60z" />
<glyph unicode="&#x2191;" horiz-adv-x="993" d="M61 993l435 434l434 -434l-60 -61l-335 338v-1266h-80v1266l-332 -338z" />
<glyph unicode="&#x2192;" horiz-adv-x="1660" d="M125 614v82h1268l-340 334l63 60l434 -433l-434 -434l-63 60l340 331h-1268z" />
<glyph unicode="&#x2193;" horiz-adv-x="993" d="M61 440l62 62l332 -340v1268h80v-1268l335 340l60 -62l-434 -434z" />
<glyph unicode="&#x2196;" horiz-adv-x="1720" d="M256 696v613h614v-84h-477l1157 -1145l-57 -57l-1155 1148v-475h-82z" />
<glyph unicode="&#x2198;" horiz-adv-x="1720" d="M256 1255l57 58l1153 -1149v473h82v-610h-614v84h477z" />
<glyph unicode="&#x21a9;" horiz-adv-x="1720" d="M109 655l430 435l61 -60l-336 -334h1051q66 0 112 19.5t73.5 54.5t39.5 82t12 100v170q0 106 -55 166t-182 60h-131v79h141q86 0 146.5 -23.5t97.5 -65.5t53 -99t16 -125v-162q0 -154 -82.5 -246t-257.5 -92h-1034l336 -331l-61 -60z" />
<glyph unicode="&#x21aa;" horiz-adv-x="1712" d="M111 952v162q0 68 16 125t53 99t97.5 65.5t146.5 23.5h141v-79h-131q-127 0 -182 -59.5t-55 -166.5v-170q0 -53 12 -100t39.5 -82t74 -54.5t111.5 -19.5h1053l-338 334l61 60l430 -435l-430 -432l-61 60l338 331h-1036q-174 0 -257 92.5t-83 245.5z" />
<glyph unicode="&#x21b3;" horiz-adv-x="1720" d="M264 614v803h86v-721h1147l-336 334l58 60l430 -435l-428 -432l-60 60l336 331h-1233z" />
<glyph unicode="&#x21b5;" horiz-adv-x="1720" d="M246 655l428 435l59 -60l-336 -334h1147v721h86v-803h-1233l336 -331l-59 -60z" />
<glyph unicode="&#x21de;" horiz-adv-x="993" d="M80 989l432 430l432 -430l-57 -61l-334 332l2 -515h233v-83h-233v-213h233v-84h-233v-365h-86v365h-233v84h233v213h-233v83h233v515l-332 -332z" />
<glyph unicode="&#x21df;" horiz-adv-x="993" d="M80 432l57 62l332 -334v516h-233v84h233v213h-233v84h233v364h86v-364h233v-84h-233v-213h233v-84h-233l-2 -516l334 334l57 -62l-432 -430z" />
<glyph unicode="&#x21e0;" horiz-adv-x="1652" d="M109 657q109 109 217 215.5t217 217.5l63 -60l-342 -336h363v-80h-363l342 -331l-63 -62zM737 612v82h201v-82h-201zM1053 612v82h200v-82h-200zM1368 612v82h160v-82h-160z" />
<glyph unicode="&#x21e1;" horiz-adv-x="972" d="M51 987l436 434l433 -434l-60 -63l-336 340v-361h-80v361l-331 -340zM442 0v162h82v-162h-82zM442 276v201h82v-201h-82zM442 592v199h82v-199h-82z" />
<glyph unicode="&#x21e2;" horiz-adv-x="1652" d="M111 614v82h159v-82h-159zM385 614v82h201v-82h-201zM700 614v82h201v-82h-201zM1012 614v82h362l-342 334l64 60l434 -433l-434 -434l-64 60l342 331h-362z" />
<glyph unicode="&#x21e3;" horiz-adv-x="972" d="M51 434l60 62q84 -86 166.5 -170t166.5 -170v362h80v-362q84 86 167 170t167 170l60 -62q-109 -111 -215.5 -218t-217.5 -216q-219 215 -434 434zM442 629v200h82v-200h-82zM442 942v203h82v-203h-82zM442 1260v159h82v-159h-82z" />
<glyph unicode="&#x21e4;" horiz-adv-x="1605" d="M160 223v867h84v-867h-84zM313 657l435 433l63 -60l-340 -334h1061v-82h-1061l340 -331l-63 -60z" />
<glyph unicode="&#x21e5;" horiz-adv-x="1605" d="M162 614v82h1059l-340 334l63 60l434 -433l-434 -434l-63 60l340 331h-1059zM1450 223v867h84v-867h-84z" />
</font>
</defs>
</svg>
