<?xml version="1.0" standalone="no"?>
<!DOCTYPE svg PUBLIC "-//W3C//DTD SVG 1.1//EN" "http://www.w3.org/Graphics/SVG/1.1/DTD/svg11.dtd" >
<svg xmlns="http://www.w3.org/2000/svg">
<metadata></metadata>
<defs>
<font id="pf_dindisplay_pro_extrathinRg" horiz-adv-x="3723" >
<font-face units-per-em="2048" ascent="1536" descent="-512" />
<missing-glyph horiz-adv-x="385" />
<glyph unicode="fj" horiz-adv-x="815" d="M68 954v50h122v243q0 115 63.5 172.5t154.5 57.5h129v-52h-109q-57 0 -93 -15t-56.5 -43t-27.5 -63.5t-7 -78.5v-221h418v-1217q0 -113 -45.5 -166t-147.5 -53h-66v45h56q82 0 116.5 41t34.5 145v1155h-366v-954h-54v954h-122zM590 1376q0 20 14 34.5t33 14.5 q20 0 34.5 -14.5t14.5 -34.5t-14.5 -34.5t-34.5 -14.5q-18 0 -32.5 14.5t-14.5 34.5z" />
<glyph unicode="ffj" horiz-adv-x="1232" d="M68 954v50h122v202q0 115 63.5 172.5t154.5 57.5h116v-52h-96q-57 0 -93 -15t-56.5 -43t-27.5 -63.5t-7 -78.5v-180h364v243q0 115 63.5 172.5t153.5 57.5h129v-52h-108q-57 0 -93 -15t-56.5 -43t-27.5 -63.5t-7 -78.5v-221h417v-1217q0 -113 -45 -166t-147 -53h-66v45 h56q82 0 116.5 41t34.5 145v1155h-366v-954h-54v954h-364v-954h-54v954h-122zM1008 1376q0 20 14 34.5t33 14.5q20 0 34.5 -14.5t14.5 -34.5t-14.5 -34.5t-34.5 -14.5q-18 0 -32.5 14.5t-14.5 34.5z" />
<glyph unicode="ff" horiz-adv-x="974" d="M68 954v50h122v202q0 115 63.5 172.5t154.5 57.5h129v-52h-109q-57 0 -93 -15t-56.5 -43t-27.5 -63.5t-7 -78.5v-180h364v243q0 115 63.5 172.5t153.5 57.5h129v-52h-108q-57 0 -93 -15t-56.5 -43t-27.5 -63.5t-7 -78.5v-221h292v-50h-292v-954h-54v954h-364v-954h-54 v954h-122z" />
<glyph unicode="fi" horiz-adv-x="815" d="M68 954v50h122v243q0 115 63.5 172.5t154.5 57.5h129v-52h-109q-57 0 -93 -15t-56.5 -43t-27.5 -63.5t-7 -78.5v-221h418v-1004h-52v954h-366v-954h-54v954h-122zM590 1376q0 20 14 34.5t33 14.5q20 0 34.5 -14.5t14.5 -34.5t-14.5 -34.5t-34.5 -14.5q-18 0 -32.5 14.5 t-14.5 34.5z" />
<glyph unicode="fl" horiz-adv-x="899" d="M68 954v50h122v245q0 66 19.5 110t51.5 71.5t75 39t92 11.5q53 0 105.5 -7.5t125.5 -31.5v-1229q0 -45 4.5 -77t17.5 -52.5t40 -30.5t74 -10h30v-43q-12 -2 -24.5 -2h-22.5q-55 0 -89 14.5t-51 40t-22.5 64.5t-5.5 88v1194q-43 18 -89 25.5t-83 7.5q-102 0 -149 -44.5 t-47 -148.5v-235h256v-50h-256v-954h-52v954h-122z" />
<glyph unicode="ffi" horiz-adv-x="1232" d="M68 954v50h122v202q0 115 63.5 172.5t154.5 57.5h116v-52h-96q-57 0 -93 -15t-56.5 -43t-27.5 -63.5t-7 -78.5v-180h364v243q0 115 63.5 172.5t153.5 57.5h129v-52h-108q-57 0 -93 -15t-56.5 -43t-27.5 -63.5t-7 -78.5v-221h417v-1004h-51v954h-366v-954h-54v954h-364 v-954h-54v954h-122zM1008 1376q0 20 14 34.5t33 14.5q20 0 34.5 -14.5t14.5 -34.5t-14.5 -34.5t-34.5 -14.5q-18 0 -32.5 14.5t-14.5 34.5z" />
<glyph unicode="ffl" horiz-adv-x="1316" d="M68 954v50h122v194q0 115 63.5 172t154.5 57h129v-51h-109q-57 0 -94 -15t-57.5 -43t-27.5 -63.5t-7 -78.5v-172h366v245q0 66 19.5 110t51.5 71.5t75 39t92 11.5q53 0 105.5 -7.5t125.5 -31.5v-1229q0 -45 4 -77t17.5 -52.5t40 -30.5t73.5 -10h31v-43q-12 -2 -24.5 -2 h-22.5q-55 0 -89 14.5t-51.5 40t-22.5 64.5t-5 88v1194q-43 18 -89 25.5t-83 7.5q-102 0 -149.5 -44.5t-47.5 -148.5v-235h256v-50h-256v-954h-51v954h-366v-954h-52v954h-122z" />
<glyph unicode="ft" horiz-adv-x="1040" d="M68 954v50h122v243q0 115 63.5 172.5t154.5 57.5h129v-52h-109q-57 0 -93 -15t-56.5 -43t-27.5 -63.5t-7 -78.5v-221h366l19 239h33v-239h307v-50h-307v-671q0 -66 7 -112t28.5 -75.5t60.5 -44t100 -14.5q23 0 59.5 2t73.5 10l10 -45q-41 -10 -85 -12t-66 -2 q-141 0 -190.5 66.5t-49.5 211.5v686h-366v-954h-54v954h-122z" />
<glyph unicode=" "  horiz-adv-x="385" />
<glyph unicode="&#x09;" horiz-adv-x="385" />
<glyph unicode="&#xa0;" horiz-adv-x="385" />
<glyph unicode="!" horiz-adv-x="405" d="M147 53q0 20 16.5 35.5t41.5 15.5q23 0 40 -15t17 -36q0 -25 -16.5 -41t-38.5 -16q-27 0 -43.5 16t-16.5 41zM172 1425h59q0 -131 -2 -278.5t-3 -298t-3 -296.5t-2 -278h-39q0 131 -2 277.5t-3 297t-3 298t-2 278.5z" />
<glyph unicode="&#x22;" horiz-adv-x="444" d="M117 1073v352h43v-352h-43zM285 1073v352h43v-352h-43z" />
<glyph unicode="#" horiz-adv-x="970" d="M23 467v41h208l58 416h-205v41h213l61 458h43l-61 -458h330l65 458h41l-61 -458h211v-41h-217l-60 -416h217v-41h-221l-63 -467h-45l65 467h-330l-63 -467h-45l63 467h-204zM279 508h327l58 416h-330z" />
<glyph unicode="$" horiz-adv-x="942" d="M45 109l27 47q86 -53 188 -86t213 -33q78 0 147.5 20.5t122 60.5t83 99t30.5 139q0 86 -31.5 143.5t-83 94.5t-119 57.5t-137.5 34.5q-74 14 -149.5 38t-136 64.5t-98.5 104t-38 160.5q0 154 99.5 250t269.5 106v176h49v-174q92 -2 181.5 -21.5t166.5 -60.5l-22 -47 q-78 41 -168 60.5t-182 19.5q-63 0 -124 -17.5t-109 -55.5t-76.5 -97t-28.5 -143q0 -80 32.5 -133.5t86 -88t121 -56t139.5 -36.5q92 -18 168.5 -44.5t132 -71t85 -107.5t29.5 -156q0 -84 -31.5 -151.5t-88 -115.5t-136 -73.5t-176.5 -27.5v-185h-49v187q-111 4 -206 35.5 t-181 83.5z" />
<glyph unicode="%" horiz-adv-x="1536" d="M96 788v416q0 45 19.5 85t55.5 70t84 47t105 17q59 0 107.5 -17t83.5 -47t53.5 -70t18.5 -85v-418q0 -92 -73 -155.5t-190 -63.5q-59 0 -108 17.5t-84 48.5t-53.5 70.5t-18.5 84.5zM145 797q0 -51 20.5 -86t53.5 -56.5t70 -32t71 -10.5q33 0 71 10.5t69.5 32t53 56 t21.5 86.5v395q0 51 -21.5 87t-53 57.5t-69.5 30.5t-71 9q-35 0 -71.5 -9t-69.5 -30.5t-53.5 -57.5t-20.5 -87v-395zM305 -35l866 1497h56l-871 -1497h-51zM911 213v416q0 45 19.5 85t55.5 69.5t84 47t106 17.5q59 0 107 -17.5t83 -47t53.5 -69.5t18.5 -85v-418 q0 -92 -72.5 -155.5t-189.5 -63.5q-59 0 -108.5 17.5t-84.5 48t-53.5 70.5t-18.5 85zM961 221q0 -51 20 -86t53 -56.5t70 -31.5t72 -10q33 0 70.5 10t69.5 31.5t53.5 56.5t21.5 86v395q0 51 -21.5 87t-53.5 57.5t-70 31t-70 9.5q-35 0 -72 -9.5t-70 -31t-53 -57t-20 -87.5 v-395z" />
<glyph unicode="&#x26;" horiz-adv-x="1581" d="M78 1044q0 111 49 213.5t137 179t209 123t262 46.5q176 0 312.5 -63.5t229.5 -172t141 -253t48 -304.5q0 -96 -23.5 -185t-64.5 -167t-96 -145.5t-119 -122.5q86 -84 169 -146.5t163 -93.5l-22 -39q-98 45 -182.5 107.5t-160.5 134.5q-119 -90 -244.5 -131t-242.5 -41 q-88 0 -164 22.5t-132 68.5t-88 117.5t-32 167.5q0 143 97.5 251t277.5 206q-76 100 -106.5 178t-30.5 133t18.5 104.5t52 86.5t82 59.5t107.5 22.5t107.5 -20.5t83 -54.5t54 -79t19.5 -94q0 -106 -83 -194.5t-230 -159.5q43 -68 97 -141.5t114.5 -148.5t124 -148.5 t123.5 -137.5q59 53 111 119t91 140.5t61.5 158.5t22.5 174q0 147 -44 283.5t-130 239t-215 164t-297 61.5q-131 0 -242.5 -42t-194.5 -114t-130 -165t-47 -195q0 -74 26.5 -153t83.5 -153l-34 -30q-61 82 -90 166t-29 167zM274 365q0 -88 30 -153t79 -105.5t115.5 -61 t140.5 -20.5q104 0 226 37.5t235 125.5q-133 139 -251 293t-222 299q-74 -39 -138.5 -84t-111.5 -97t-75 -110t-28 -124zM514 1130q0 -61 38 -136.5t95 -155.5q57 29 110.5 61.5t93.5 70.5t63.5 83t23.5 100q0 45 -18.5 83t-48 64.5t-68.5 41t-82 14.5q-55 0 -94 -23.5 t-63.5 -57.5t-37 -74t-12.5 -71z" />
<glyph unicode="'" horiz-adv-x="387" d="M178 1073v352h47v-352h-47z" />
<glyph unicode="(" horiz-adv-x="507" d="M150 608q0 111 20 227.5t60 228.5t96.5 214t128.5 186l18 -12q-123 -186 -191.5 -402t-68.5 -429q0 -231 70.5 -450.5t191.5 -399.5l-16 -13q-66 78 -123 176.5t-98 209t-64.5 228t-23.5 236.5z" />
<glyph unicode=")" horiz-adv-x="507" d="M61 -236q121 180 192 399.5t71 450.5q0 215 -69 430.5t-192 401.5l19 12q72 -84 128 -186.5t96 -214t60.5 -228t20.5 -227.5q0 -117 -23.5 -235.5t-64.5 -229t-97.5 -209t-121.5 -176.5z" />
<glyph unicode="*" horiz-adv-x="684" d="M63 1202l21 62l248 -103l-13 260h58l-15 -260l252 103l21 -62l-254 -78l168 -202l-51 -41l-150 227l-143 -227l-51 41l161 202z" />
<glyph unicode="+" horiz-adv-x="942" d="M61 535v49h385v395h48v-395h385v-49h-385v-402h-48v402h-385z" />
<glyph unicode="," horiz-adv-x="358" d="M119 47q0 29 19.5 43t43.5 14q29 0 50.5 -21.5t21.5 -68.5t-30.5 -97t-80.5 -79l-16 23q35 27 52.5 61.5t17.5 69.5q-33 -4 -55.5 9t-22.5 46z" />
<glyph unicode="-" horiz-adv-x="735" d="M111 518v53h514v-53h-514z" />
<glyph unicode="." horiz-adv-x="354" d="M115 53q0 23 17.5 40.5t45.5 17.5q23 0 43.5 -17.5t20.5 -40.5q0 -29 -17.5 -46t-44.5 -17q-29 0 -47 17t-18 46z" />
<glyph unicode="/" horiz-adv-x="567" d="M8 -35l494 1497h55l-498 -1497h-51z" />
<glyph unicode="0" horiz-adv-x="942" d="M72 354v707q0 76 30.5 142.5t84 115.5t126 77.5t158.5 28.5q90 0 164 -28.5t126 -77.5t80.5 -115.5t28.5 -142.5v-713q0 -76 -28.5 -141.5t-81.5 -114.5t-127 -76.5t-162 -27.5q-90 0 -164 28.5t-126 78.5t-80.5 117t-28.5 142zM125 367q0 -90 34 -153.5t85 -103.5 t111.5 -57.5t115.5 -17.5t116.5 17.5t114 57.5t86 103t33.5 154v675q0 92 -33.5 156t-86 103.5t-114 57t-116.5 17.5t-115.5 -17.5t-111.5 -57t-85 -103t-34 -156.5v-675z" />
<glyph unicode="1" horiz-adv-x="942" d="M203 1194l291 217h55v-1411h-53v1346l-263 -197z" />
<glyph unicode="2" horiz-adv-x="942" d="M74 0v96q0 100 38 185.5t100 158t142 132t164 112.5q135 84 216 179t81 210q0 80 -29.5 137.5t-79 94t-113 53t-132.5 16.5q-109 0 -193 -34.5t-143 -79.5l-35 43q57 47 154.5 83.5t208.5 36.5q80 0 155.5 -18.5t134 -58t93 -106t34.5 -161.5q0 -125 -82.5 -232.5 t-218.5 -191.5q-68 -41 -145.5 -95t-142 -122.5t-107.5 -151.5t-43 -182v-57h735v-47h-792z" />
<glyph unicode="3" horiz-adv-x="942" d="M31 117l32 39q55 -47 147.5 -85t195.5 -38q74 0 142 24.5t120.5 69.5t84 108.5t31.5 141.5q0 80 -25.5 141.5t-66.5 102.5t-91 62.5t-99 21.5h-154v49h152q35 0 81 18.5t88 57t70.5 98t28.5 143.5q0 82 -30.5 139.5t-77 94t-103.5 53t-108 16.5q-96 0 -177.5 -29.5 t-142.5 -80.5l-35 39q47 33 88 55t82 36.5t86 20.5t101 6q70 0 136 -21.5t118.5 -64.5t84 -108.5t31.5 -153.5q0 -53 -14 -106.5t-42 -99.5t-71 -81.5t-100 -54.5q66 -20 112 -57t74.5 -83t41 -100.5t12.5 -107.5q0 -90 -35 -164t-94.5 -125t-136 -78.5t-162.5 -27.5 q-131 0 -223.5 39t-151.5 90z" />
<glyph unicode="4" horiz-adv-x="942" d="M51 238v55l494 1118h53l-492 -1122h596v452h54v-452h127v-51h-127v-238h-54v238h-651z" />
<glyph unicode="5" horiz-adv-x="942" d="M94 119l33 37q63 -53 143 -89t172 -36q49 0 111.5 14t117 50t92.5 98.5t38 158.5v213q0 147 -65.5 222t-188.5 75q-43 0 -94.5 -14t-103.5 -35.5t-101 -48.5t-90 -51l-62 24v674h721v-51h-667v-592q113 68 221 106.5t174 38.5q150 0 227.5 -89t77.5 -244v-242 q0 -74 -29.5 -138.5t-83 -111.5t-128 -73.5t-167.5 -26.5q-66 0 -117 11t-93 29.5t-75.5 42t-62.5 48.5z" />
<glyph unicode="6" horiz-adv-x="942" d="M84 342v723q0 78 30.5 144.5t85 114.5t126 74.5t153.5 26.5q127 0 209 -39.5t129 -87.5l-41 -41q-53 53 -122.5 85t-174.5 32q-53 0 -113.5 -17.5t-110.5 -57t-84 -105.5t-34 -162v-352q139 86 244.5 127t173.5 41q147 0 226 -89t79 -245v-162q0 -78 -29.5 -143.5 t-83 -114.5t-125 -76.5t-155.5 -27.5q-82 0 -151.5 26.5t-121 72.5t-81 110.5t-29.5 142.5zM137 367q0 -90 32 -152.5t80 -102.5t106.5 -58.5t111.5 -18.5t113.5 18.5t110.5 58.5t84 102t34 153v133q0 147 -69.5 221t-180.5 74q-47 0 -100 -15.5t-107.5 -40t-109 -54.5 t-105.5 -60v-258z" />
<glyph unicode="7" horiz-adv-x="942" d="M80 1135v276h776v-55l-545 -1356h-57l551 1362h-672v-227h-53z" />
<glyph unicode="8" horiz-adv-x="942" d="M55 369q0 45 14.5 97t47.5 101t85 91t128 67q-61 20 -106.5 56t-76 79t-46 92t-15.5 97q0 90 32 159.5t84 116.5t121.5 71.5t147.5 24.5t148.5 -23.5t125 -69.5t86 -114.5t31.5 -154.5q0 -49 -15.5 -99.5t-47 -95.5t-79.5 -82t-116 -57q80 -23 133.5 -62.5t85 -88 t45 -100.5t13.5 -95q0 -94 -34 -167t-91.5 -123t-133 -75.5t-161.5 -25.5q-82 0 -156 24.5t-129 71.5t-88 118.5t-33 166.5zM106 367q0 -74 25 -135.5t72 -105.5t113.5 -68.5t150.5 -24.5q78 0 144.5 23.5t114.5 67.5t75.5 106.5t27.5 140.5q0 74 -26.5 134t-75.5 105 t-115.5 70t-146.5 25q-72 0 -136.5 -25t-113.5 -70t-79 -107.5t-30 -135.5zM137 1055q0 -70 26.5 -126.5t72 -97t104.5 -63.5t125 -23t128 23t110.5 62.5t78 97t29.5 129.5q0 80 -29.5 140t-78 99t-109 58.5t-121.5 19.5t-121.5 -19.5t-107.5 -59.5t-77 -99t-30 -141z" />
<glyph unicode="9" horiz-adv-x="942" d="M86 901v162q0 76 29.5 142.5t83 115.5t125 76.5t155.5 27.5q82 0 151.5 -26.5t121 -72.5t81 -111.5t29.5 -141.5v-723q0 -78 -31.5 -144.5t-85 -114.5t-125 -74.5t-153.5 -26.5q-127 0 -209 40t-129 87l41 41q53 -53 122.5 -85t174.5 -32q53 0 113.5 17.5t110.5 57.5 t84 105.5t34 161.5v352q-139 -86 -244.5 -127t-173.5 -41q-147 0 -226 89t-79 245zM137 915q0 -147 69.5 -220.5t180.5 -73.5q47 0 100.5 15t107.5 39.5t108.5 54.5t105.5 61v258q0 88 -32 151.5t-80 102t-106.5 57t-111.5 18.5t-113.5 -18.5t-111.5 -57t-84 -102 t-33 -151.5v-134z" />
<glyph unicode=":" horiz-adv-x="356" d="M113 53q0 23 17 40.5t46 17.5q23 0 43.5 -17.5t20.5 -40.5q0 -29 -17.5 -46t-44.5 -17q-29 0 -47 17t-18 46zM113 731q0 27 17 43.5t46 16.5q23 0 43.5 -16.5t20.5 -43.5t-17.5 -45t-44.5 -18q-29 0 -47 18t-18 45z" />
<glyph unicode=";" horiz-adv-x="356" d="M111 47q0 29 19.5 43t43.5 14q29 0 50.5 -21.5t21.5 -68.5t-31 -97t-80 -79l-16 23q35 27 52 61.5t17 69.5q-33 -4 -55 9t-22 46zM113 731q0 27 17 43.5t46 16.5q23 0 43.5 -16.5t20.5 -43.5t-18.5 -45t-43.5 -18q-29 0 -47 18t-18 45z" />
<glyph unicode="&#x3c;" horiz-adv-x="942" d="M61 535v49l813 350v-53l-755 -324l760 -319v-58z" />
<glyph unicode="=" horiz-adv-x="942" d="M61 332v49h818v-49h-818zM61 678v47h818v-47h-818z" />
<glyph unicode="&#x3e;" horiz-adv-x="942" d="M61 180v58l760 319l-755 324v53l813 -350v-49z" />
<glyph unicode="?" horiz-adv-x="858" d="M70 1350q80 43 155.5 61.5t163.5 18.5q176 0 266 -89.5t90 -226.5q0 -84 -46 -167t-107 -154q-72 -82 -117 -166t-45 -181v-151h-39v156q0 109 45 187.5t111 156.5q27 33 54.5 67.5t50 74.5t38 83t15.5 90q0 127 -83 206t-243 79q-78 0 -152.5 -23.5t-136.5 -58.5z M356 53q0 20 16.5 35.5t41.5 15.5q23 0 40 -15t17 -36q0 -25 -16.5 -41t-38.5 -16q-27 0 -43.5 16t-16.5 41z" />
<glyph unicode="@" horiz-adv-x="1720" d="M106 668q0 164 63.5 301t172.5 237.5t255 155.5t312 55t296 -52t221.5 -144.5t138.5 -218.5t47 -273q0 -117 -26.5 -197.5t-69.5 -131t-97.5 -73t-109.5 -22.5q-68 0 -123.5 27.5t-75.5 99.5q-117 -74 -199 -94.5t-127 -20.5q-109 0 -177 52.5t-68 162.5q0 61 23.5 104.5 t59 70t79.5 39t87 12.5h308v80q0 72 -17.5 116.5t-48.5 70.5t-76 35t-100 9q-39 0 -99.5 -15.5t-133.5 -62.5l-33 43q68 43 139.5 62.5t128.5 19.5q158 0 222.5 -66.5t64.5 -191.5v-356q0 -29 9 -56.5t28.5 -50t52.5 -36t80 -13.5q51 0 96 24.5t79 73t54.5 120t20.5 165.5 q0 141 -46.5 259t-130 203t-205.5 133t-272 48q-154 0 -292 -52t-240.5 -146.5t-162.5 -222.5t-60 -281q0 -154 53 -284t148.5 -225t223.5 -148.5t279 -53.5q68 0 127 10.5t133 40.5l19 -41q-74 -33 -151 -44t-128 -11q-164 0 -302 56.5t-238.5 157.5t-156 238.5 t-55.5 301.5zM590 535q0 -45 16.5 -78t44 -54.5t62.5 -32t73 -10.5q63 0 147.5 35t162.5 88v230h-273q-37 0 -77.5 -6.5t-75.5 -24.5t-57.5 -54t-22.5 -93z" />
<glyph unicode="A" horiz-adv-x="1134" d="M49 0l486 1411h71l490 -1411h-58l-125 352h-686l-118 -352h-60zM246 401h651l-328 959z" />
<glyph unicode="B" horiz-adv-x="1155" d="M113 0v1411l542 -2q100 0 172 -27.5t119 -74.5t69.5 -109.5t22.5 -134.5q0 -43 -11 -90t-38.5 -90t-74 -80t-117.5 -58q78 -18 129 -61t81.5 -96t43 -110.5t12.5 -106.5q0 -78 -25.5 -144.5t-75 -118t-120 -80t-160.5 -28.5h-569zM166 47h500q68 0 129 19.5t109 59.5 t76 101.5t28 143.5q0 80 -27 144.5t-73 110.5t-106.5 70.5t-127.5 24.5h-508v-674zM166 772h500q57 0 112.5 17.5t100.5 53.5t72.5 90t27.5 130q0 82 -28.5 138t-76 91t-108.5 51.5t-127 16.5h-473v-588z" />
<glyph unicode="C" horiz-adv-x="1003" d="M102 465v491q0 100 33 185.5t95.5 149t153.5 99t206 35.5q102 0 186 -21.5t162 -72.5l-33 -45q-137 90 -315 90q-82 0 -160 -24.5t-139.5 -76.5t-98 -134t-36.5 -195v-475q0 -113 36.5 -195.5t97 -137t137.5 -81t155 -26.5q94 0 175 27.5t152 74.5l33 -43 q-53 -35 -141 -69.5t-211 -34.5q-119 0 -210 36.5t-152.5 101t-93.5 151.5t-32 190z" />
<glyph unicode="D" horiz-adv-x="1165" d="M113 0v1411h518q106 0 189 -35t139.5 -96t85 -146t28.5 -186v-493q0 -100 -30.5 -183.5t-89 -143.5t-142.5 -94t-188 -34h-510zM166 45h438q74 0 148.5 22.5t133 72.5t95.5 131t37 198v469q0 115 -34 195.5t-88 131t-121.5 73t-133.5 22.5h-475v-1315z" />
<glyph unicode="E" horiz-adv-x="1064" d="M113 0v1411h891v-51h-838v-615h721v-49h-721v-649h838v-47h-891z" />
<glyph unicode="F" horiz-adv-x="1036" d="M113 0v1411h893v-51h-838v-617h721v-49h-721v-694h-55z" />
<glyph unicode="G" horiz-adv-x="1093" d="M92 465v491q0 100 34 185.5t98.5 149t156.5 99t207 35.5q102 0 190 -21.5t166 -72.5l-33 -45q-72 47 -153.5 68.5t-169.5 21.5q-82 0 -162 -24.5t-142.5 -76.5t-100.5 -134t-38 -195v-475q0 -113 37 -195.5t98.5 -137t139.5 -81t160 -26.5q27 0 67.5 4t89.5 18.5 t103.5 40t107.5 68.5v465h-252v51h308v-541q-179 -151 -417 -151h-3q-119 0 -210 36.5t-153.5 101t-95.5 151.5t-33 190z" />
<glyph unicode="H" horiz-adv-x="1200" d="M113 0v1411h53v-668h866v668h55v-1411h-55v696h-866v-696h-53z" />
<glyph unicode="I" horiz-adv-x="405" d="M176 0v1411h53v-1411h-53z" />
<glyph unicode="J" horiz-adv-x="1015" d="M63 66l29 45q61 -35 126 -57.5t142 -22.5q90 0 168 26.5t135.5 81t90 137t32.5 195.5v942h54v-948q0 -102 -29 -189.5t-88 -152t-151.5 -101t-219.5 -36.5q-96 0 -165.5 24.5t-123.5 55.5z" />
<glyph unicode="K" horiz-adv-x="1069" d="M113 0v1411h53v-942l756 942h65l-430 -537l502 -874h-62l-477 829l-354 -444v-385h-53z" />
<glyph unicode="L" horiz-adv-x="993" d="M111 0v1411h53v-1364h827v-47h-880z" />
<glyph unicode="M" horiz-adv-x="1413" d="M113 0v1411h57l545 -1114q127 270 266 557t268 557h51v-1411h-53v1292q-72 -156 -138.5 -295t-128.5 -268t-121.5 -251t-117.5 -245h-53l-522 1063v-1296h-53z" />
<glyph unicode="N" horiz-adv-x="1222" d="M113 0v1411h59l885 -1335v1335h53v-1411h-66l-878 1331v-1331h-53z" />
<glyph unicode="O" horiz-adv-x="1175" d="M102 455v508q0 100 33 185t95.5 146.5t152.5 96t205 34.5q113 0 202 -34.5t152.5 -97t97 -147.5t33.5 -183v-517q0 -102 -32.5 -187t-96 -145.5t-153.5 -94t-203 -33.5q-115 0 -204 34.5t-152.5 97t-96.5 148.5t-33 189zM156 459q0 -113 38.5 -193t101 -132t139.5 -76.5 t153 -24.5q88 0 167 25.5t138 78.5t93 133t34 189v487q0 111 -36 192t-96.5 134t-138 78.5t-161.5 25.5q-90 0 -169 -25.5t-137.5 -78.5t-92 -134t-33.5 -192v-487z" />
<glyph unicode="P" horiz-adv-x="1087" d="M113 0v1411h536q98 0 171 -35t121 -91t71.5 -127t23.5 -142q0 -72 -25.5 -141.5t-74.5 -125t-121 -89t-166 -33.5h-483v-627h-53zM166 676h477q68 0 128 22.5t107.5 66.5t75 107.5t27.5 143.5t-27.5 143.5t-75 107.5t-107.5 68.5t-128 24.5h-477v-684z" />
<glyph unicode="Q" horiz-adv-x="1175" d="M102 455v508q0 100 33 185t95.5 146.5t152.5 96t205 34.5q113 0 202 -34.5t152.5 -97t97 -147.5t33.5 -183v-517q0 -98 -30.5 -181t-89 -142.5t-141.5 -95t-189 -39.5v-88q0 -100 51 -147.5t147 -47.5q35 0 72 6v-49q-41 -6 -76 -6q-72 0 -119 19.5t-75.5 53t-41 82 t-12.5 105.5v70q-111 2 -196.5 37.5t-146 98t-92.5 146.5t-32 187zM156 459q0 -113 38.5 -193t101 -132t139.5 -76.5t153 -24.5q88 0 167 25.5t138 78.5t93 133t34 189v487q0 111 -36 192t-96.5 134t-138 78.5t-161.5 25.5q-90 0 -169 -25.5t-137.5 -78.5t-92 -134 t-33.5 -192v-487z" />
<glyph unicode="R" horiz-adv-x="1118" d="M115 0v1411h536q98 0 173 -35t124 -91t74 -127t25 -142q0 -59 -18.5 -119.5t-55.5 -113t-93.5 -91.5t-131.5 -55q68 -154 141.5 -318.5t138.5 -318.5h-59l-277 627h-524v-627h-53zM168 676h483q68 0 128.5 22.5t107.5 66.5t74.5 107.5t27.5 143.5t-27.5 143.5 t-74.5 107.5t-107.5 68.5t-128.5 24.5h-483v-684z" />
<glyph unicode="S" horiz-adv-x="1077" d="M66 111l28 47q96 -53 208 -87t233 -34q86 0 161.5 20.5t133 61.5t91 101.5t33.5 139.5q0 88 -34.5 145.5t-91 94.5t-130 57.5t-151.5 34.5q-82 14 -164 38t-147.5 66t-106.5 106.5t-41 160.5q0 82 31 148.5t88 113.5t138 73.5t183 26.5q106 0 207 -19.5t189 -62.5 l-25 -49q-86 43 -183.5 62.5t-199.5 19.5q-70 0 -136.5 -17.5t-118.5 -56t-84 -98t-32 -145.5q0 -80 36 -134.5t94.5 -89t133 -56t152.5 -36.5q100 -18 184 -45.5t142.5 -71.5t91.5 -108.5t33 -157.5q0 -86 -34 -154.5t-97.5 -117.5t-151.5 -74.5t-197 -25.5 q-135 0 -249.5 32.5t-216.5 90.5z" />
<glyph unicode="T" horiz-adv-x="1042" d="M37 1360v51h967v-51h-455v-1360h-53v1360h-459z" />
<glyph unicode="U" horiz-adv-x="1187" d="M106 453v958h56v-950q0 -113 37 -193t97 -132t138 -76.5t160 -24.5q86 0 164 24.5t137 76.5t95 132t36 193v950h55v-962q0 -102 -34.5 -187.5t-98 -147t-153.5 -95t-201 -33.5t-201 34.5t-153.5 96t-98.5 147.5t-35 189z" />
<glyph unicode="V" horiz-adv-x="1091" d="M43 1413h57l443 -1354l446 1354h58l-469 -1411h-72z" />
<glyph unicode="W" horiz-adv-x="1691" d="M23 1411h57l358 -1360l367 1360h57l367 -1356l358 1356h55l-378 -1411h-74l-356 1323l-357 -1323h-74z" />
<glyph unicode="X" horiz-adv-x="976" d="M25 0l434 725l-404 686h64l366 -633l367 633h63l-403 -686l436 -725h-63l-398 670l-399 -670h-63z" />
<glyph unicode="Y" horiz-adv-x="956" d="M27 1411h59l393 -819l389 819h58l-420 -879v-532h-53v528z" />
<glyph unicode="Z" horiz-adv-x="1050" d="M86 0v47l819 1313h-786v51h850v-51l-815 -1313h813v-47h-881z" />
<glyph unicode="[" horiz-adv-x="450" d="M160 -227v1652h262v-49h-207v-1556h207v-47h-262z" />
<glyph unicode="\" horiz-adv-x="571" d="M-10 1485h43l516 -1571h-43z" />
<glyph unicode="]" horiz-adv-x="450" d="M80 -180h207v1556h-207v49h260v-1652h-260v47z" />
<glyph unicode="^" horiz-adv-x="921" d="M115 686l317 731h49l314 -727h-54l-286 670l-283 -674h-57z" />
<glyph unicode="_" horiz-adv-x="1003" d="M0 -143h1004v-54h-1004v54z" />
<glyph unicode="`" horiz-adv-x="976" d="M434 1440l66 33l168 -291l-31 -17z" />
<glyph unicode="a" horiz-adv-x="923" d="M61 262q0 78 30 131t76 87t104.5 49.5t113.5 15.5h395v112q0 170 -79.5 239t-229.5 69q-84 0 -158.5 -21.5t-152.5 -71.5l-31 43q78 47 159 73t185 26q106 0 175 -25.5t110 -70t57 -105.5t16 -133v-680h-36l-15 139q-80 -53 -142.5 -82.5t-111.5 -46t-87 -20.5t-66 -4 q-137 0 -224.5 68.5t-87.5 207.5zM115 262q0 -61 21.5 -104t56 -71t82 -41t100.5 -13q47 0 99 14t105.5 36.5t104.5 51.5t96 58v305h-358q-45 0 -99.5 -7.5t-100.5 -32t-76.5 -70.5t-30.5 -126z" />
<glyph unicode="b" horiz-adv-x="960" d="M117 0v1464h49v-618q92 57 157.5 91t113.5 51.5t82 21.5t65 4q143 0 221 -80t78 -254v-363q0 -172 -86 -251.5t-222 -79.5q-29 0 -64.5 2t-82.5 15t-111.5 41t-150.5 79l-14 -123h-35zM166 184q117 -74 224.5 -112.5t180.5 -38.5q262 0 263 311v311q0 166 -62.5 238 t-193.5 72q-37 0 -86.5 -14.5t-103.5 -38t-111.5 -56.5t-110.5 -70v-602z" />
<glyph unicode="c" horiz-adv-x="819" d="M102 356v303q0 80 27 145.5t77 113t120.5 73t158.5 25.5q74 0 152 -19.5t135 -62.5l-33 -45q-53 41 -122.5 60.5t-122.5 19.5q-66 0 -126.5 -17.5t-107.5 -57.5t-75.5 -103.5t-28.5 -153.5v-268q0 -88 28.5 -150.5t75.5 -102.5t107.5 -59.5t121.5 -19.5q27 0 60 4 t67.5 13t68.5 22.5t58 29.5l27 -43q-59 -37 -135 -55t-150 -18q-90 0 -161.5 27.5t-120.5 75.5t-75 115.5t-26 147.5z" />
<glyph unicode="d" horiz-adv-x="960" d="M92 317v353q0 168 92 256t260 88q31 0 67 -4t80 -15.5t97 -33t121 -56.5v559h49v-1460h-35l-14 143q-80 -51 -142.5 -82.5t-112.5 -49t-88 -23.5t-67 -6q-145 0 -226 82t-81 249zM141 344q0 -166 66.5 -238.5t189.5 -72.5q76 0 185.5 46t226.5 126v641q-121 66 -209 93.5 t-154 27.5q-160 0 -232.5 -81t-72.5 -241v-301z" />
<glyph unicode="e" horiz-adv-x="935" d="M102 352v293q0 82 29 150.5t80 117t121.5 75t154.5 26.5q80 0 147.5 -24.5t117 -71t76 -112t26.5 -144.5v-185h-700v-108q0 -96 28.5 -161t75.5 -105t107.5 -57t123.5 -17q100 0 168 31.5t115 78.5l33 -37q-57 -55 -136 -85.5t-184 -30.5q-86 0 -155.5 23.5t-120.5 70.5 t-79 114.5t-28 157.5zM154 524h649v109q0 92 -29 155.5t-74 103.5t-101.5 58.5t-111.5 18.5q-59 0 -119.5 -19.5t-107.5 -60.5t-76.5 -105.5t-29.5 -156.5v-103z" />
<glyph unicode="f" horiz-adv-x="557" d="M68 954v50h122v243q0 115 63.5 172.5t154.5 57.5h129v-52h-109q-57 0 -94 -15t-57.5 -43t-27.5 -63.5t-7 -78.5v-221h295v-50h-295v-954h-52v954h-122z" />
<glyph unicode="g" horiz-adv-x="960" d="M92 319v359q0 174 86 254t221 80q29 0 67 -2t87 -15.5t112.5 -41t143.5 -79.5l14 127h35v-1091q0 -172 -104.5 -259t-288.5 -87q-78 0 -163 19.5t-142 64.5l35 45q49 -37 125.5 -59.5t148.5 -22.5t133.5 16.5t107.5 54t72.5 101t26.5 156.5v219q-80 -53 -143.5 -86 t-113.5 -51.5t-89 -25.5t-72 -7h-13q-134 0 -208 78q-78 81 -78 253zM141 346q0 -166 61.5 -237.5t190.5 -71.5q82 0 192.5 50t223.5 128v596q-119 80 -219.5 117t-186.5 37q-123 0 -192.5 -72t-69.5 -240v-307z" />
<glyph unicode="h" horiz-adv-x="962" d="M102 0v1466h52v-618q150 94 251 130t166 36q152 0 225.5 -80t73.5 -254v-680h-51v655q0 166 -61.5 238t-192.5 72q-41 0 -91 -14.5t-104.5 -39t-109.5 -55.5t-106 -63v-793h-52z" />
<glyph unicode="i" horiz-adv-x="385" d="M145 1343q0 20 14.5 35t33.5 15q20 0 34.5 -15t14.5 -35t-14.5 -34.5t-34.5 -14.5q-18 0 -33 14.5t-15 34.5zM166 0v1001h51v-1001h-51z" />
<glyph unicode="j" horiz-adv-x="425" d="M-10 -387h55q82 0 117 41t35 145v1202h51v-1214q0 -113 -45 -166t-148 -53h-65v45zM176 1343q0 20 14.5 35t32.5 15q20 0 34.5 -15t14.5 -35t-14 -34.5t-35 -14.5q-18 0 -32.5 14.5t-14.5 34.5z" />
<glyph unicode="k" horiz-adv-x="886" d="M102 0v1466h52v-864h272q59 0 122.5 28.5t104.5 117.5l119 256h53l-116 -256q-27 -55 -62 -99.5t-102 -68.5q39 -2 66.5 -19.5t47 -44.5t34 -58.5t24.5 -62.5l139 -395h-53l-131 362q-23 61 -43.5 99.5t-46 59t-62.5 26.5t-90 6h-276v-553h-52z" />
<glyph unicode="l" horiz-adv-x="485" d="M197 205v1261h49v-1253q0 -45 4 -77t17.5 -52.5t40 -30.5t73.5 -10h31v-43q-12 -2 -24.5 -2h-22.5q-55 0 -89 14.5t-51.5 40t-22.5 64.5t-5 88z" />
<glyph unicode="m" horiz-adv-x="1495" d="M94 0v1001h39l14 -151q61 49 112.5 81t94.5 50t82 25.5t76 7.5q63 0 106.5 -16.5t71 -42t44 -57.5t26.5 -64q70 61 126 97t101 54.5t80 23.5t61 5q145 0 212 -88t67 -246v-680h-51v655q0 70 -11.5 127.5t-38 97.5t-70.5 62.5t-112 22.5q-82 0 -169 -47.5t-187 -133.5 q4 -31 6 -56.5t2 -47.5v-680h-49v655q0 68 -9 125.5t-35 99.5t-70 64.5t-113 22.5q-59 0 -144.5 -39t-208.5 -137v-791h-53z" />
<glyph unicode="n" horiz-adv-x="966" d="M102 0v1001h37l15 -153q74 45 131 76.5t105 51t88 29t79 9.5q152 0 232.5 -80t80.5 -254v-680h-51v655q0 166 -68.5 238t-199.5 72q-80 0 -183.5 -49.5t-213.5 -127.5v-788h-52z" />
<glyph unicode="o" horiz-adv-x="954" d="M92 348v316q0 80 31 144t83 110.5t121.5 71t149.5 24.5t150.5 -24.5t123 -71t82 -111t29.5 -143.5v-312q0 -168 -100.5 -267t-286.5 -99q-88 0 -158.5 26.5t-121 74.5t-77 114.5t-26.5 146.5zM143 365q0 -90 28 -154t75 -103.5t107.5 -58t125.5 -18.5q70 0 131.5 19.5 t106.5 60.5t70.5 103t25.5 151v270q0 90 -29.5 153.5t-78 103.5t-107.5 57.5t-119 17.5q-61 0 -121.5 -17.5t-107.5 -57.5t-77 -103.5t-30 -153.5v-270z" />
<glyph unicode="p" horiz-adv-x="960" d="M102 -422v1417h35l15 -143q80 51 142 83t112.5 49t88 23.5t66.5 6.5q145 0 226 -82t81 -250v-352q0 -168 -92 -256t-260 -88q-31 0 -66.5 4t-79.5 15t-97.5 32.5t-120.5 56.5v-516h-50zM152 154q121 -66 209 -93.5t153 -27.5q160 0 232.5 81t72.5 240v301 q0 166 -66.5 239t-189.5 73q-76 0 -185.5 -46.5t-225.5 -125.5v-641z" />
<glyph unicode="q" horiz-adv-x="960" d="M92 319v363q0 172 86 252t221 80q29 0 66 -4t86 -17.5t112.5 -41t145.5 -77.5l14 125h35v-1421h-49v576q-82 -57 -146.5 -90t-114.5 -50.5t-88 -22.5t-69 -5q-143 0 -221 79.5t-78 253.5zM141 344q0 -311 256 -311q74 0 183.5 45t228.5 135v602q-117 78 -224.5 115 t-181.5 37q-262 0 -262 -312v-311z" />
<glyph unicode="r" horiz-adv-x="571" d="M141 0v1004h41l15 -152q33 29 75.5 55.5t92 49t101.5 38t101 19.5v-68q-70 -6 -127 -24.5t-103 -40t-81 -45t-61 -39.5v-797h-54z" />
<glyph unicode="s" horiz-adv-x="882" d="M88 84l29 41q74 -49 157 -73.5t185 -24.5q49 0 102 11t97 37.5t73 72t29 114.5q0 63 -29 103.5t-73 65t-99 36.5t-106 20q-59 8 -122 22.5t-116 42.5t-87 73t-34 116q0 57 21.5 107.5t64.5 87.5t105.5 58.5t144.5 21.5q100 0 179 -17.5t143 -58.5l-27 -39 q-63 35 -133 53.5t-154 18.5q-133 0 -213 -61.5t-80 -172.5q0 -51 25 -84.5t68 -57.5t104 -38t135 -27q59 -10 118.5 -24t108 -44t78 -79t29.5 -125q0 -57 -22.5 -107.5t-66.5 -87t-109.5 -58t-151.5 -21.5q-96 0 -191.5 19.5t-181.5 78.5z" />
<glyph unicode="t" horiz-adv-x="653" d="M63 954v50h160l19 239h32v-239h308v-50h-308v-671q0 -131 43 -188.5t160 -57.5q23 0 56.5 2t70.5 10l10 -45q-41 -10 -81.5 -12t-63.5 -2q-141 0 -193.5 66.5t-52.5 211.5v686h-160z" />
<glyph unicode="u" horiz-adv-x="966" d="M96 322v679h51v-655q0 -166 69 -237.5t200 -71.5q80 0 183 49t214 127v788h51v-1001h-37l-14 154q-74 -45 -132 -77t-105.5 -51.5t-87 -28.5t-78.5 -9q-152 0 -233 79.5t-81 254.5z" />
<glyph unicode="v" horiz-adv-x="856" d="M27 1004h55q90 -238 171 -468.5t169 -469.5l342 938h57l-368 -1004h-64q-94 250 -181 502t-181 502z" />
<glyph unicode="w" horiz-adv-x="1341" d="M8 1004h55l287 -943l291 854h59l291 -854l287 943h55l-307 -1004h-63l-293 840l-291 -840h-64z" />
<glyph unicode="x" horiz-adv-x="788" d="M27 0l331 512l-317 489h63l285 -446l289 446h63l-321 -489l336 -512h-66l-301 467l-297 -467h-65z" />
<glyph unicode="y" horiz-adv-x="837" d="M12 999h51l345 -958l356 958h49l-518 -1405h-53l145 406l-41 51z" />
<glyph unicode="z" horiz-adv-x="829" d="M51 0v45l643 913h-610v43h664v-43l-639 -913h639v-45h-697z" />
<glyph unicode="{" horiz-adv-x="450" d="M74 588v26q49 14 76.5 50t42 82.5t18.5 98.5t4 99v277q0 92 38 148t112 56h73v-32h-63q-41 0 -65.5 -20.5t-37 -50.5t-15.5 -64.5t-3 -65.5v-285q0 -123 -38 -203.5t-91 -99.5v-2q63 -20 96 -96t33 -191v-311q0 -29 3 -63.5t15.5 -64.5t37 -50.5t65.5 -20.5h63v-34h-73 q-74 0 -113 56t-39 148v287q0 72 -5 127t-19.5 94t-42 64.5t-72.5 40.5z" />
<glyph unicode="|" horiz-adv-x="325" d="M150 -332v1798h38v-1798h-38z" />
<glyph unicode="}" horiz-adv-x="450" d="M74 -195h63q41 0 65.5 20.5t37 50.5t15.5 64.5t3 63.5v311q0 115 33 191t96 96v2q-53 18 -91 99t-38 204v285q0 31 -3 65.5t-15.5 64.5t-37 50.5t-65.5 20.5h-63v32h73q74 0 112 -56t38 -148v-277q0 -47 4 -99t18.5 -98.5t42 -82t76.5 -50.5v-26q-45 -14 -72.5 -40 t-42 -65t-19.5 -94t-5 -127v-287q0 -92 -39 -148t-113 -56h-73v34z" />
<glyph unicode="~" horiz-adv-x="942" d="M41 522q37 47 92 79t115 32q57 0 114.5 -18.5t112.5 -41t111.5 -41t115.5 -18.5q57 0 90 24.5t68 73.5l37 -26q-31 -47 -76 -83t-119 -36q-59 0 -120.5 18.5t-120 41t-113.5 41t-102 18.5q-51 0 -92 -29t-78 -63z" />
<glyph unicode="&#xa1;" horiz-adv-x="405" d="M147 956q0 25 16.5 41.5t39.5 16.5q27 0 43 -16.5t16 -41.5q0 -20 -16.5 -35.5t-40.5 -15.5q-23 0 -40.5 15.5t-17.5 35.5zM178 -416q0 131 2 278.5t3 298t3 297t2 277.5h39q0 -131 2 -277.5t3 -297t3.5 -298t2.5 -278.5h-60z" />
<glyph unicode="&#xa2;" horiz-adv-x="942" d="M135 356v303q0 154 96.5 251.5t262.5 105.5v235h38v-235q72 -2 146 -21.5t127 -60.5l-33 -45q-53 41 -119.5 59.5t-120.5 20.5v-930q53 2 124 18.5t120 48.5l27 -43q-55 -35 -127 -53t-144 -20v-219h-38v219q-172 8 -265.5 109.5t-93.5 256.5zM188 369q0 -84 26 -144.5 t69 -100.5t97 -60.5t114 -24.5v928q-61 -4 -116.5 -24.5t-97.5 -60.5t-67 -100.5t-25 -144.5v-268z" />
<glyph unicode="&#xa3;" horiz-adv-x="942" d="M68 631v37h172q-6 47 -13.5 75.5t-15.5 53.5q-23 72 -51.5 148.5t-28.5 150.5q0 66 20.5 126t62.5 107t107.5 75t155.5 28q131 0 214 -45.5t136 -122.5l-39 -27q-109 150 -317 149q-43 0 -94 -12t-95 -45t-74 -89t-30 -144q0 -43 13.5 -93.5t31.5 -101.5 q20 -53 34.5 -101t29.5 -132h299v-37h-297q0 -160 -34 -306.5t-136 -277.5h753v-47h-800v47q86 113 131 253t41 331h-176z" />
<glyph unicode="&#xa4;" horiz-adv-x="1009" d="M193 354l108 109q-70 92 -70 205q-2 59 18.5 112.5t59.5 100.5l-108 108l35 35l108 -109q49 41 103.5 59.5t107.5 18.5t105.5 -18.5t99.5 -52.5l108 108l35 -35l-108 -110q90 -96 90 -215q0 -59 -21.5 -113.5t-56.5 -101.5l108 -109q-6 -8 -18 -19.5t-18 -17.5l-109 109 q-45 -39 -100.5 -59.5t-112.5 -22.5q-123 2 -221 90l-109 -109q-6 8 -18 19.5t-16 17.5zM285 670q0 -59 20.5 -109.5t57 -87.5t86 -58.5t106.5 -21.5t107.5 21.5t87 58.5t58 87t21.5 108q0 57 -20.5 107t-57 87t-87 58.5t-107.5 21.5t-107.5 -21.5t-87 -58.5t-57 -86 t-20.5 -106z" />
<glyph unicode="&#xa5;" horiz-adv-x="942" d="M59 1411h60l352 -819l348 819h58l-328 -758h332v-41h-349l-34 -80v-155h383v-41h-383v-336h-54v336h-358v41h358v151l-36 84h-324v41h307z" />
<glyph unicode="&#xa6;" horiz-adv-x="325" d="M150 -332v846h38v-846h-38zM150 625v841h38v-841h-38z" />
<glyph unicode="&#xa7;" horiz-adv-x="897" d="M98 731q0 59 33 119.5t94 107.5q-37 35 -66.5 87.5t-29.5 109.5q0 129 82 207t223 78q90 0 166 -25.5t133 -73.5l-35 -45q-113 94 -264 95q-115 0 -184.5 -61.5t-69.5 -164.5q0 -63 30 -107t77 -75t104.5 -52.5t112.5 -41.5q57 -23 112.5 -49.5t98.5 -64.5t68.5 -87 t25.5 -117q0 -66 -26.5 -127t-86.5 -108q41 -47 59.5 -95t18.5 -108q0 -63 -22.5 -117.5t-67.5 -94.5t-110.5 -62.5t-153.5 -22.5q-84 0 -170 35t-139 84l32 33q63 -51 134 -78t139 -27q63 0 120.5 13.5t98.5 44t65.5 79t24.5 117.5q0 57 -23.5 100.5t-65.5 76t-98.5 58 t-119.5 48.5q-90 33 -151.5 64.5t-98.5 66.5t-53.5 79t-16.5 101zM147 731q0 -70 30 -111.5t73 -69.5t91 -45.5t87 -35.5q59 -25 120.5 -51.5t106.5 -52.5q53 41 78 93t25 111q0 61 -23.5 104.5t-65.5 76t-98.5 57t-124.5 49.5q-47 16 -90 36.5t-86 43.5q-53 -41 -88 -96.5 t-35 -108.5z" />
<glyph unicode="&#xa8;" horiz-adv-x="931" d="M252 1343q0 20 14.5 35t32.5 15q20 0 34.5 -15t14.5 -35t-14.5 -34.5t-34.5 -14.5q-18 0 -32.5 14.5t-14.5 34.5zM569 1343q0 20 14.5 35t32.5 15q20 0 35 -15t15 -35t-14.5 -34.5t-35.5 -14.5q-18 0 -32.5 14.5t-14.5 34.5z" />
<glyph unicode="&#xa9;" horiz-adv-x="1572" d="M102 698q0 154 53.5 287t146.5 229.5t219 151.5t274 55q147 0 274 -55t221 -151.5t147.5 -229.5t53.5 -287t-53.5 -285.5t-147.5 -228t-221 -152t-274 -55.5t-273.5 55.5t-219.5 152t-146.5 228.5t-53.5 285zM152 698q0 -141 50 -265t136 -216t203.5 -145.5t253.5 -53.5 q135 0 253.5 53.5t206.5 145.5t138.5 216t50.5 265t-50.5 265t-138.5 216.5t-206.5 145.5t-253.5 53t-253 -53t-204 -145.5t-136 -216t-50 -265.5zM492 578v237q0 66 20 122t60 98t98.5 65.5t136.5 23.5q68 0 125 -14t110 -49l-28 -41q-49 33 -100.5 46t-106.5 13 q-51 0 -99.5 -15t-86 -48t-60 -84t-22.5 -123v-227q0 -72 22.5 -124t59 -87t85 -51.5t97.5 -16.5q59 0 111.5 18.5t101.5 51.5l31 -39q-39 -25 -98.5 -48.5t-141.5 -23.5q-78 0 -137.5 24.5t-99.5 66.5t-59 99.5t-19 125.5z" />
<glyph unicode="&#xaa;" horiz-adv-x="636" d="M39 750q0 51 20.5 87.5t53 58.5t73.5 32t80 10h264v68q0 109 -54 150.5t-150 41.5q-57 0 -107.5 -14.5t-105.5 -46.5l-27 39q59 33 112.5 49t127.5 16q137 0 194.5 -62.5t57.5 -158.5v-445h-37l-11 84q-53 -33 -94 -51t-74.5 -27.5t-59.5 -12.5t-44 -3q-98 0 -158.5 46 t-60.5 139zM88 750q0 -74 51 -108t119 -34q59 0 135 33t137 68v188h-239q-31 0 -67 -5t-65.5 -20.5t-50 -44t-20.5 -77.5z" />
<glyph unicode="&#xab;" horiz-adv-x="780" d="M145 434l232 338h55l-225 -338l225 -340h-59zM385 434l231 338h56l-226 -338l226 -340h-60z" />
<glyph unicode="&#xac;" horiz-adv-x="942" d="M61 535v49h818v-451h-48v402h-770z" />
<glyph unicode="&#xad;" horiz-adv-x="735" d="M111 518v53h514v-53h-514z" />
<glyph unicode="&#xae;" horiz-adv-x="1103" d="M147 1008q0 92 32 172t88.5 138t131 91t160.5 33q88 0 164 -33t131 -91t86 -138t31 -172t-32 -172t-87 -138.5t-131 -91.5t-162 -33t-160.5 33t-131 91.5t-88.5 138t-32 172.5zM184 1008q0 -84 29 -158t80 -127t118.5 -84t147.5 -31t147.5 31t119 84t80 127t28.5 158 t-28.5 156.5t-80 127t-119 85t-147.5 30.5t-147.5 -30.5t-118.5 -85t-80 -127t-29 -156.5zM406 758v499h196q66 0 108 -33.5t42 -95.5q0 -53 -33 -91t-90 -46l123 -233h-43l-121 231h-146v-231h-36zM442 1022h150q53 0 87 26.5t34 79.5q0 51 -36 74t-83 23h-152v-203z" />
<glyph unicode="&#xaf;" horiz-adv-x="952" d="M266 1208v49h508v-49h-508z" />
<glyph unicode="&#xb0;" horiz-adv-x="718" d="M121 1192q0 49 19.5 93t51 76t75.5 50.5t93 18.5q51 0 95.5 -18.5t77 -50.5t50 -76t17.5 -93t-18.5 -93t-51 -77t-76 -51.5t-94.5 -18.5t-95 18.5t-75.5 51.5t-50 77t-18.5 93zM168 1192q0 -82 55.5 -139.5t136.5 -57.5q80 0 136.5 53.5t56.5 143.5q0 41 -15.5 77 t-41 62.5t-61.5 42t-75 15.5q-82 0 -137 -57.5t-55 -139.5z" />
<glyph unicode="&#xb1;" horiz-adv-x="942" d="M59 0v49h822v-49h-822zM59 535v49h385v395h48v-395h385v-49h-385v-402h-48v402h-385z" />
<glyph unicode="&#xb2;" horiz-adv-x="561" d="M43 760v65q0 59 24.5 109.5t65.5 92.5t92 78t107 66q86 47 136 102.5t50 121.5q0 45 -18.5 75.5t-48 51t-69.5 30t-83 9.5q-66 0 -122 -20.5t-93 -47.5l-23 41q41 29 104.5 50.5t129.5 21.5q51 0 100 -11.5t88 -36t62.5 -63.5t23.5 -96q0 -76 -53 -139.5t-141 -114.5 q-43 -23 -92.5 -54.5t-91 -71.5t-68.5 -87t-27 -103v-24h471v-45h-524z" />
<glyph unicode="&#xb3;" horiz-adv-x="546" d="M23 834q6 8 15 16t15 16q37 -35 90.5 -53t116.5 -18q45 0 87 13t73 37.5t49 60.5t18 81q0 90 -53 136t-119 46h-108v45h106q23 0 51.5 10.5t53 32t42 56.5t17.5 82q0 45 -19.5 76.5t-48 51t-64.5 29t-66 9.5q-59 0 -111.5 -19.5t-93.5 -48.5l-29 35q59 37 115.5 56.5 t122.5 19.5q45 0 89 -12.5t78.5 -39t56 -65.5t21.5 -92q0 -59 -33.5 -117.5t-107.5 -83.5q84 -23 117 -83t33 -122q0 -53 -22.5 -97t-60.5 -75t-88.5 -48t-105.5 -17q-82 0 -139.5 23.5t-97.5 58.5z" />
<glyph unicode="&#xb4;" horiz-adv-x="976" d="M434 1182l168 291l66 -33l-203 -275z" />
<glyph unicode="&#xb6;" horiz-adv-x="872" d="M78 1157q0 70 26.5 133.5t72.5 110.5t109.5 74.5t137.5 27.5h180v-692h-180q-76 0 -139.5 26.5t-109.5 73.5t-71.5 110.5t-25.5 135.5zM412 -170q106 12 164.5 43t86 74t31.5 98t4 121v1337h52v-1356q0 -84 -10.5 -146t-45.5 -107.5t-100.5 -74t-175.5 -42.5z" />
<glyph unicode="&#xb7;" horiz-adv-x="335" d="M106 547q0 29 20.5 48t51.5 19q27 0 49.5 -19.5t22.5 -47.5q0 -29 -20.5 -50.5t-49.5 -21.5q-33 0 -53.5 21.5t-20.5 50.5z" />
<glyph unicode="&#xb8;" horiz-adv-x="829" d="M344 -358l14 39q35 -10 69 -15.5t60 -5.5q12 0 33 4t41.5 15.5t34.5 31t14 49.5q0 53 -53 80t-123 27l-10 8l43 133h45l-35 -102q59 -6 96 -22.5t56.5 -38t27 -45t7.5 -44.5q0 -20 -9.5 -44.5t-31 -45t-55 -34t-81.5 -13.5q-16 0 -55 3t-88 20z" />
<glyph unicode="&#xb9;" horiz-adv-x="413" d="M82 1466l194 133h46v-839h-50v778l-159 -113z" />
<glyph unicode="&#xba;" horiz-adv-x="659" d="M59 811v193q0 53 20.5 97t57.5 74.5t86 48t107 17.5q117 0 192.5 -65.5t75.5 -171.5v-189q0 -111 -69.5 -180.5t-200.5 -69.5q-123 0 -196 71t-73 175zM106 823q0 -57 18.5 -98t50.5 -66.5t72 -38t83 -12.5q94 0 158.5 52.5t64.5 162.5v160q0 57 -19.5 98t-51 67 t-71.5 38t-81 12t-81 -12t-72 -38t-51.5 -67t-19.5 -98v-160z" />
<glyph unicode="&#xbb;" horiz-adv-x="780" d="M147 94l226 340l-226 338h56l231 -338l-227 -340h-60zM387 94l225 340l-225 338h55l232 -338l-228 -340h-59z" />
<glyph unicode="&#xbc;" horiz-adv-x="1536" d="M209 1282l194 133h46v-840h-50v779l-159 -113zM258 -35l866 1497h56l-871 -1497h-51zM780 137v41l320 662h51l-317 -658h362v267h51v-267h80v-45h-80v-137h-51v137h-416z" />
<glyph unicode="&#xbd;" horiz-adv-x="1536" d="M156 1282l194 133h45v-840h-49v779l-160 -113zM203 -35l866 1497h55l-870 -1497h-51zM852 0v66q0 59 24.5 109t65.5 92t92 78t107 67q86 47 136 102t50 121q0 45 -18.5 75.5t-48 51t-69.5 30t-83 9.5q-66 0 -122 -20.5t-93 -47.5l-23 41q41 29 104.5 50.5t129.5 21.5 q51 0 100 -11.5t88 -36t62.5 -63.5t23.5 -96q0 -76 -53 -139.5t-141 -114.5q-43 -23 -92.5 -54.5t-91.5 -71.5t-68.5 -87t-26.5 -102v-25h471v-45h-524z" />
<glyph unicode="&#xbe;" horiz-adv-x="1536" d="M109 649q6 8 15 16.5t15 16.5q37 -35 90.5 -53.5t116.5 -18.5q45 0 87 13.5t73 38t49 60.5t18 81q0 90 -53 136t-119 46h-108v45h106q23 0 51.5 10.5t53 32t42 56t17.5 81.5q0 45 -19.5 77t-48 51.5t-64.5 28.5t-66 9q-59 0 -111.5 -19.5t-93.5 -47.5l-29 34 q59 37 115.5 56.5t122.5 19.5q45 0 89 -12t78.5 -39t56 -65.5t21.5 -92.5q0 -59 -33.5 -117.5t-107.5 -82.5q84 -23 117 -83.5t33 -121.5q0 -53 -22.5 -97t-60.5 -75t-88.5 -48.5t-105.5 -17.5q-82 0 -139 23.5t-98 58.5zM342 -35l866 1497h56l-871 -1497h-51zM879 137v41 l319 662h51l-317 -658h362v267h52v-267h79v-45h-79v-137h-52v137h-415z" />
<glyph unicode="&#xbf;" horiz-adv-x="858" d="M70 -104q0 84 46 166.5t107 154.5q72 82 117 166t45 180v152h39v-156q0 -55 -12.5 -100t-34 -87t-49 -80t-60.5 -77q-27 -33 -54.5 -67.5t-51 -74.5t-37.5 -83t-14 -90q0 -127 82.5 -205t242.5 -78q78 0 153 22.5t136 57.5l20 -37q-80 -43 -155.5 -61.5t-163.5 -18.5 q-176 0 -266 89t-90 227zM344 956q0 25 16.5 41.5t38.5 16.5q27 0 43.5 -16.5t16.5 -41.5q0 -20 -16.5 -35.5t-41.5 -15.5q-23 0 -40 15.5t-17 35.5z" />
<glyph unicode="&#xc0;" horiz-adv-x="1134" d="M49 0l486 1411h71l490 -1411h-58l-125 352h-686l-118 -352h-60zM246 401h651l-328 959zM330 1663l49 53l264 -207l-22 -26z" />
<glyph unicode="&#xc1;" horiz-adv-x="1134" d="M49 0l486 1411h71l490 -1411h-58l-125 352h-686l-118 -352h-60zM246 401h651l-328 959zM514 1509l264 207l49 -53l-290 -180z" />
<glyph unicode="&#xc2;" horiz-adv-x="1134" d="M49 0l486 1411h71l490 -1411h-58l-125 352h-686l-118 -352h-60zM246 401h651l-328 959zM297 1511l250 205h59l242 -205l-25 -24l-250 168l-251 -170z" />
<glyph unicode="&#xc3;" horiz-adv-x="1134" d="M49 0l486 1411h71l490 -1411h-58l-125 352h-686l-118 -352h-60zM246 401h651l-328 959zM291 1569q76 106 174 106q31 0 63.5 -13t65.5 -28.5t64.5 -28t56.5 -12.5q33 0 56.5 19.5t51.5 60.5l39 -22q-35 -61 -72.5 -85t-78.5 -24q-29 0 -61 12.5t-64.5 27.5t-64.5 27.5 t-60 12.5q-41 0 -72 -21.5t-59 -56.5z" />
<glyph unicode="&#xc4;" horiz-adv-x="1134" d="M49 0l486 1411h71l490 -1411h-58l-125 352h-686l-118 -352h-60zM246 401h651l-328 959zM367 1581q0 20 14 34.5t33 14.5q20 0 34.5 -14.5t14.5 -34.5t-14.5 -34.5t-34.5 -14.5q-18 0 -32.5 14.5t-14.5 34.5zM684 1581q0 20 14.5 34.5t32.5 14.5q20 0 34.5 -14.5 t14.5 -34.5t-14 -34.5t-35 -14.5q-18 0 -32.5 14.5t-14.5 34.5z" />
<glyph unicode="&#xc5;" horiz-adv-x="1134" d="M49 0l486 1411h71l490 -1411h-58l-125 352h-686l-118 -352h-60zM246 401h651l-328 959zM395 1661q0 74 52.5 124t123.5 50q74 0 126.5 -50t52.5 -124q0 -37 -14.5 -68.5t-38 -55.5t-56.5 -38t-70 -14t-68.5 14t-55 38t-38 55.5t-14.5 68.5zM436 1661q0 -57 39 -97t96 -40 q59 0 98.5 40t39.5 97t-39.5 97t-98.5 40q-57 0 -96 -40t-39 -97z" />
<glyph unicode="&#xc6;" horiz-adv-x="1826" d="M2 0l889 1411h919v-51h-837v-615h721v-49h-721v-649h837v-47h-890v356h-629l-225 -356h-64zM324 408h596v948z" />
<glyph unicode="&#xc7;" horiz-adv-x="1003" d="M102 465v491q0 100 33 185.5t95.5 149t153.5 99t206 35.5q102 0 186 -21.5t162 -72.5l-33 -45q-137 90 -315 90q-82 0 -160 -24.5t-139.5 -76.5t-98 -134t-36.5 -195v-475q0 -113 36.5 -195.5t97 -137t137.5 -81t155 -26.5q94 0 175 27.5t152 74.5l33 -43 q-53 -35 -141 -69.5t-211 -34.5h-6l-27 -80q59 -6 96 -22.5t56.5 -38t26.5 -45t7 -44.5q0 -20 -9 -44.5t-30.5 -45t-55.5 -34t-81 -13.5q-16 0 -55 3t-88 20l14 39q35 -10 69 -15.5t60 -5.5q12 0 33 4t41.5 15.5t34.5 31t14 49.5q0 53 -53 80t-123 27l-10 8l35 113 q-106 8 -187.5 47t-136.5 102.5t-84 147.5t-29 180z" />
<glyph unicode="&#xc8;" horiz-adv-x="1064" d="M113 0v1411h891v-51h-838v-615h721v-49h-721v-649h838v-47h-891zM332 1663l49 53l264 -207l-22 -26z" />
<glyph unicode="&#xc9;" horiz-adv-x="1064" d="M113 0v1411h891v-51h-838v-615h721v-49h-721v-649h838v-47h-891zM430 1509l264 207l49 -53l-290 -180z" />
<glyph unicode="&#xca;" horiz-adv-x="1064" d="M113 0v1411h891v-51h-838v-615h721v-49h-721v-649h838v-47h-891zM270 1511l250 205h60l241 -205l-24 -24l-250 168l-252 -170z" />
<glyph unicode="&#xcb;" horiz-adv-x="1064" d="M113 0v1411h891v-51h-838v-615h721v-49h-721v-649h838v-47h-891zM358 1581q0 20 14.5 34.5t33.5 14.5q20 0 34.5 -14.5t14.5 -34.5t-14.5 -34.5t-34.5 -14.5q-18 0 -33 14.5t-15 34.5zM676 1581q0 20 14.5 34.5t32.5 14.5q20 0 34.5 -14.5t14.5 -34.5t-14.5 -34.5 t-34.5 -14.5q-18 0 -32.5 14.5t-14.5 34.5z" />
<glyph unicode="&#xcc;" horiz-adv-x="405" d="M-51 1663l49 53l264 -207l-22 -26zM176 0v1411h53v-1411h-53z" />
<glyph unicode="&#xcd;" horiz-adv-x="405" d="M141 1509l265 207l49 -53l-291 -180zM176 0v1411h53v-1411h-53z" />
<glyph unicode="&#xce;" horiz-adv-x="405" d="M-70 1511l250 205h60l241 -205l-24 -24l-250 168l-252 -170zM176 0v1411h53v-1411h-53z" />
<glyph unicode="&#xcf;" horiz-adv-x="405" d="M-2 1581q0 20 14.5 34.5t32.5 14.5q20 0 34.5 -14.5t14.5 -34.5t-14 -34.5t-35 -14.5q-18 0 -32.5 14.5t-14.5 34.5zM176 0v1411h53v-1411h-53zM315 1581q0 20 14.5 34.5t32.5 14.5q20 0 35 -14.5t15 -34.5t-14.5 -34.5t-35.5 -14.5q-18 0 -32.5 14.5t-14.5 34.5z" />
<glyph unicode="&#xd0;" horiz-adv-x="1165" d="M12 723v47h101v641h518q106 0 189 -35t139.5 -96t85 -146t28.5 -186v-493q0 -100 -30.5 -183.5t-89 -143.5t-142.5 -94t-188 -34h-510v723h-101zM166 45h438q74 0 148.5 22.5t133 72.5t95.5 131t37 198v469q0 115 -34 195.5t-88 131t-121.5 73t-133.5 22.5h-475v-590h385 v-47h-385v-678z" />
<glyph unicode="&#xd1;" horiz-adv-x="1222" d="M113 0v1411h59l885 -1335v1335h53v-1411h-66l-878 1331v-1331h-53zM340 1573q76 106 174 106q31 0 63.5 -13t65.5 -28.5t64.5 -28t56.5 -12.5q33 0 56.5 19.5t51.5 60.5l39 -22q-35 -61 -72.5 -85t-78.5 -24q-29 0 -60.5 12.5t-64.5 28t-64.5 27.5t-60.5 12 q-41 0 -71.5 -21.5t-59.5 -56.5z" />
<glyph unicode="&#xd2;" horiz-adv-x="1175" d="M102 455v508q0 100 33 185t95.5 146.5t152.5 96t205 34.5q113 0 202 -34.5t152.5 -97t97 -147.5t33.5 -183v-517q0 -102 -32.5 -187t-96 -145.5t-153.5 -94t-203 -33.5q-115 0 -204 34.5t-152.5 97t-96.5 148.5t-33 189zM156 459q0 -113 38.5 -193t101 -132t139.5 -76.5 t153 -24.5q88 0 167 25.5t138 78.5t93 133t34 189v487q0 111 -36 192t-96.5 134t-138 78.5t-161.5 25.5q-90 0 -169 -25.5t-137.5 -78.5t-92 -134t-33.5 -192v-487zM350 1663l49 53l265 -207l-23 -26z" />
<glyph unicode="&#xd3;" horiz-adv-x="1175" d="M102 455v508q0 100 33 185t95.5 146.5t152.5 96t205 34.5q113 0 202 -34.5t152.5 -97t97 -147.5t33.5 -183v-517q0 -102 -32.5 -187t-96 -145.5t-153.5 -94t-203 -33.5q-115 0 -204 34.5t-152.5 97t-96.5 148.5t-33 189zM156 459q0 -113 38.5 -193t101 -132t139.5 -76.5 t153 -24.5q88 0 167 25.5t138 78.5t93 133t34 189v487q0 111 -36 192t-96.5 134t-138 78.5t-161.5 25.5q-90 0 -169 -25.5t-137.5 -78.5t-92 -134t-33.5 -192v-487zM508 1509l264 207l49 -53l-291 -180z" />
<glyph unicode="&#xd4;" horiz-adv-x="1175" d="M102 455v508q0 100 33 185t95.5 146.5t152.5 96t205 34.5q113 0 202 -34.5t152.5 -97t97 -147.5t33.5 -183v-517q0 -102 -32.5 -187t-96 -145.5t-153.5 -94t-203 -33.5q-115 0 -204 34.5t-152.5 97t-96.5 148.5t-33 189zM156 459q0 -113 38.5 -193t101 -132t139.5 -76.5 t153 -24.5q88 0 167 25.5t138 78.5t93 133t34 189v487q0 111 -36 192t-96.5 134t-138 78.5t-161.5 25.5q-90 0 -169 -25.5t-137.5 -78.5t-92 -134t-33.5 -192v-487zM315 1511l250 205h60l241 -205l-24 -24l-250 168l-252 -170z" />
<glyph unicode="&#xd5;" horiz-adv-x="1175" d="M102 455v508q0 100 33 185t95.5 146.5t152.5 96t205 34.5q113 0 202 -34.5t152.5 -97t97 -147.5t33.5 -183v-517q0 -102 -32.5 -187t-96 -145.5t-153.5 -94t-203 -33.5q-115 0 -204 34.5t-152.5 97t-96.5 148.5t-33 189zM156 459q0 -113 38.5 -193t101 -132t139.5 -76.5 t153 -24.5q88 0 167 25.5t138 78.5t93 133t34 189v487q0 111 -36 192t-96.5 134t-138 78.5t-161.5 25.5q-90 0 -169 -25.5t-137.5 -78.5t-92 -134t-33.5 -192v-487zM319 1546q77 107 175 107q31 0 63.5 -13.5t65 -29t64.5 -27.5t56 -12q33 0 56.5 19.5t52.5 60.5l39 -23 q-35 -61 -73 -84.5t-79 -23.5q-29 0 -60.5 12t-64 27.5t-64.5 27.5t-61 12q-41 0 -71.5 -21.5t-59.5 -55.5z" />
<glyph unicode="&#xd6;" horiz-adv-x="1175" d="M102 455v508q0 100 33 185t95.5 146.5t152.5 96t205 34.5q113 0 202 -34.5t152.5 -97t97 -147.5t33.5 -183v-517q0 -102 -32.5 -187t-96 -145.5t-153.5 -94t-203 -33.5q-115 0 -204 34.5t-152.5 97t-96.5 148.5t-33 189zM156 459q0 -113 38.5 -193t101 -132t139.5 -76.5 t153 -24.5q88 0 167 25.5t138 78.5t93 133t34 189v487q0 111 -36 192t-96.5 134t-138 78.5t-161.5 25.5q-90 0 -169 -25.5t-137.5 -78.5t-92 -134t-33.5 -192v-487zM393 1581q0 20 14.5 34.5t32.5 14.5q20 0 34.5 -14.5t14.5 -34.5t-14 -34.5t-35 -14.5q-18 0 -32.5 14.5 t-14.5 34.5zM711 1581q0 20 14 34.5t33 14.5q20 0 34.5 -14.5t14.5 -34.5t-14.5 -34.5t-34.5 -14.5q-18 0 -32.5 14.5t-14.5 34.5z" />
<glyph unicode="&#xd7;" horiz-adv-x="942" d="M111 229l327 328l-315 315l35 35l315 -315l324 321l32 -32l-323 -324l317 -315l-35 -35l-317 315l-326 -325z" />
<glyph unicode="&#xd8;" horiz-adv-x="1175" d="M100 8l97 148q-94 119 -95 299v508q0 100 33 185t95.5 146.5t152.5 96t205 34.5t205 -35.5t153 -101.5l90 137l39 -24l-98 -148q47 -59 71.5 -131.5t24.5 -158.5v-517q0 -102 -32.5 -187t-96 -145.5t-153.5 -94t-203 -33.5q-117 0 -206 34.5t-153 98.5l-90 -137zM156 459 q0 -80 19.5 -143.5t53.5 -110.5l686 1038q-61 68 -146 100.5t-181 32.5q-90 0 -169 -25.5t-137.5 -78.5t-92 -134t-33.5 -192v-487zM260 166q66 -70 153 -101.5t175 -31.5t167 25.5t138 78.5t93 133t34 189v487q0 80 -19.5 144.5t-54.5 113.5z" />
<glyph unicode="&#xd9;" horiz-adv-x="1187" d="M106 453v958h56v-950q0 -113 37 -193t97 -132t138 -76.5t160 -24.5q86 0 164 24.5t137 76.5t95 132t36 193v950h55v-962q0 -102 -34.5 -187.5t-98 -147t-153.5 -95t-201 -33.5t-201 34.5t-153.5 96t-98.5 147.5t-35 189zM375 1663l49 53l264 -207l-22 -26z" />
<glyph unicode="&#xda;" horiz-adv-x="1187" d="M106 453v958h56v-950q0 -113 37 -193t97 -132t138 -76.5t160 -24.5q86 0 164 24.5t137 76.5t95 132t36 193v950h55v-962q0 -102 -34.5 -187.5t-98 -147t-153.5 -95t-201 -33.5t-201 34.5t-153.5 96t-98.5 147.5t-35 189zM494 1509l264 207l49 -53l-291 -180z" />
<glyph unicode="&#xdb;" horiz-adv-x="1187" d="M106 453v958h56v-950q0 -113 37 -193t97 -132t138 -76.5t160 -24.5q86 0 164 24.5t137 76.5t95 132t36 193v950h55v-962q0 -102 -34.5 -187.5t-98 -147t-153.5 -95t-201 -33.5t-201 34.5t-153.5 96t-98.5 147.5t-35 189zM319 1511l250 205h60l241 -205l-24 -24l-250 168 l-252 -170z" />
<glyph unicode="&#xdc;" horiz-adv-x="1187" d="M106 453v958h56v-950q0 -113 37 -193t97 -132t138 -76.5t160 -24.5q86 0 164 24.5t137 76.5t95 132t36 193v950h55v-962q0 -102 -34.5 -187.5t-98 -147t-153.5 -95t-201 -33.5t-201 34.5t-153.5 96t-98.5 147.5t-35 189zM395 1581q0 20 14.5 34.5t32.5 14.5 q20 0 35 -14.5t15 -34.5t-14.5 -34.5t-35.5 -14.5q-18 0 -32.5 14.5t-14.5 34.5zM713 1581q0 20 14 34.5t33 14.5q20 0 34.5 -14.5t14.5 -34.5t-14.5 -34.5t-34.5 -14.5q-18 0 -32.5 14.5t-14.5 34.5z" />
<glyph unicode="&#xdd;" horiz-adv-x="956" d="M27 1411h59l393 -819l389 819h58l-420 -879v-532h-53v528zM356 1509l265 207l49 -53l-291 -180z" />
<glyph unicode="&#xde;" horiz-adv-x="1087" d="M113 0v1411h55v-287h481q98 0 171 -34.5t121 -91t71.5 -127t23.5 -142.5t-25.5 -141.5t-74.5 -124.5t-121 -89t-166 -34h-483v-340h-53zM166 389h477q68 0 128 22.5t107.5 66.5t75 107.5t27.5 143.5t-27.5 143.5t-75 107.5t-107.5 68.5t-128 24.5h-477v-684z" />
<glyph unicode="&#xdf;" horiz-adv-x="958" d="M102 0v1081q0 82 27 150.5t74 118t113.5 77t144.5 27.5q104 0 171.5 -31.5t108.5 -81t57.5 -106.5t16.5 -107q0 -29 -6 -67.5t-23.5 -78.5t-51.5 -78t-89 -62q68 -16 112 -53t68.5 -84.5t33.5 -98.5t9 -94v-182q0 -168 -92 -256t-260 -88h-37.5t-42.5 4v41h78 q160 0 232.5 82t72.5 241v152q0 147 -73.5 224t-219.5 77h-61v47h51q68 0 114 26.5t75.5 66.5t43 88t13.5 89q0 47 -15.5 97.5t-51.5 92.5t-93 69.5t-143 27.5t-144.5 -34t-94.5 -84t-52 -110.5t-16 -113.5v-1069h-50z" />
<glyph unicode="&#xe0;" horiz-adv-x="923" d="M61 262q0 78 30 131t76 87t104.5 49.5t113.5 15.5h395v112q0 170 -79.5 239t-229.5 69q-84 0 -158.5 -21.5t-152.5 -71.5l-31 43q78 47 159 73t185 26q106 0 175 -25.5t110 -70t57 -105.5t16 -133v-680h-36l-15 139q-80 -53 -142.5 -82.5t-111.5 -46t-87 -20.5t-66 -4 q-137 0 -224.5 68.5t-87.5 207.5zM115 262q0 -61 21.5 -104t56 -71t82 -41t100.5 -13q47 0 99 14t105.5 36.5t104.5 51.5t96 58v305h-358q-45 0 -99.5 -7.5t-100.5 -32t-76.5 -70.5t-30.5 -126zM311 1440l66 33l168 -291l-31 -17z" />
<glyph unicode="&#xe1;" horiz-adv-x="923" d="M61 262q0 78 30 131t76 87t104.5 49.5t113.5 15.5h395v112q0 170 -79.5 239t-229.5 69q-84 0 -158.5 -21.5t-152.5 -71.5l-31 43q78 47 159 73t185 26q106 0 175 -25.5t110 -70t57 -105.5t16 -133v-680h-36l-15 139q-80 -53 -142.5 -82.5t-111.5 -46t-87 -20.5t-66 -4 q-137 0 -224.5 68.5t-87.5 207.5zM115 262q0 -61 21.5 -104t56 -71t82 -41t100.5 -13q47 0 99 14t105.5 36.5t104.5 51.5t96 58v305h-358q-45 0 -99.5 -7.5t-100.5 -32t-76.5 -70.5t-30.5 -126zM440 1182l168 291l66 -33l-203 -275z" />
<glyph unicode="&#xe2;" horiz-adv-x="923" d="M61 262q0 78 30 131t76 87t104.5 49.5t113.5 15.5h395v112q0 170 -79.5 239t-229.5 69q-84 0 -158.5 -21.5t-152.5 -71.5l-31 43q78 47 159 73t185 26q106 0 175 -25.5t110 -70t57 -105.5t16 -133v-680h-36l-15 139q-80 -53 -142.5 -82.5t-111.5 -46t-87 -20.5t-66 -4 q-137 0 -224.5 68.5t-87.5 207.5zM115 262q0 -61 21.5 -104t56 -71t82 -41t100.5 -13q47 0 99 14t105.5 36.5t104.5 51.5t96 58v305h-358q-45 0 -99.5 -7.5t-100.5 -32t-76.5 -70.5t-30.5 -126zM209 1169l250 226h59l242 -226l-25 -24l-250 188l-252 -190z" />
<glyph unicode="&#xe3;" horiz-adv-x="923" d="M61 262q0 78 30 131t76 87t104.5 49.5t113.5 15.5h395v112q0 170 -79.5 239t-229.5 69q-84 0 -158.5 -21.5t-152.5 -71.5l-31 43q78 47 159 73t185 26q106 0 175 -25.5t110 -70t57 -105.5t16 -133v-680h-36l-15 139q-80 -53 -142.5 -82.5t-111.5 -46t-87 -20.5t-66 -4 q-137 0 -224.5 68.5t-87.5 207.5zM115 262q0 -61 21.5 -104t56 -71t82 -41t100.5 -13q47 0 99 14t105.5 36.5t104.5 51.5t96 58v305h-358q-45 0 -99.5 -7.5t-100.5 -32t-76.5 -70.5t-30.5 -126zM207 1280q76 106 174 106q31 0 63.5 -13t65.5 -28.5t64.5 -27.5t56.5 -12 q33 0 56.5 19t51.5 60l39 -22q-35 -61 -72.5 -85t-78.5 -24q-29 0 -60.5 12.5t-64.5 28t-64.5 27.5t-60.5 12q-41 0 -72 -21.5t-59 -56.5z" />
<glyph unicode="&#xe4;" horiz-adv-x="923" d="M61 262q0 78 30 131t76 87t104.5 49.5t113.5 15.5h395v112q0 170 -79.5 239t-229.5 69q-84 0 -158.5 -21.5t-152.5 -71.5l-31 43q78 47 159 73t185 26q106 0 175 -25.5t110 -70t57 -105.5t16 -133v-680h-36l-15 139q-80 -53 -142.5 -82.5t-111.5 -46t-87 -20.5t-66 -4 q-137 0 -224.5 68.5t-87.5 207.5zM115 262q0 -61 21.5 -104t56 -71t82 -41t100.5 -13q47 0 99 14t105.5 36.5t104.5 51.5t96 58v305h-358q-45 0 -99.5 -7.5t-100.5 -32t-76.5 -70.5t-30.5 -126zM289 1343q0 20 14 35t33 15q20 0 34.5 -15t14.5 -35t-14.5 -34.5t-34.5 -14.5 q-18 0 -32.5 14.5t-14.5 34.5zM606 1343q0 20 14.5 35t32.5 15q20 0 34.5 -15t14.5 -35t-14 -34.5t-35 -14.5q-18 0 -32.5 14.5t-14.5 34.5z" />
<glyph unicode="&#xe5;" horiz-adv-x="923" d="M61 262q0 78 30 131t76 87t104.5 49.5t113.5 15.5h395v112q0 170 -79.5 239t-229.5 69q-84 0 -158.5 -21.5t-152.5 -71.5l-31 43q78 47 159 73t185 26q106 0 175 -25.5t110 -70t57 -105.5t16 -133v-680h-36l-15 139q-80 -53 -142.5 -82.5t-111.5 -46t-87 -20.5t-66 -4 q-137 0 -224.5 68.5t-87.5 207.5zM115 262q0 -61 21.5 -104t56 -71t82 -41t100.5 -13q47 0 99 14t105.5 36.5t104.5 51.5t96 58v305h-358q-45 0 -99.5 -7.5t-100.5 -32t-76.5 -70.5t-30.5 -126zM322 1317q0 74 52 124t124 50q74 0 126 -50t52 -124q0 -37 -14.5 -68.5 t-38 -55.5t-56 -38t-69.5 -14t-69 14t-55.5 38t-37.5 55.5t-14 68.5zM362 1317q0 -57 39 -97t97 -40q59 0 98 40t39 97t-39 97t-98 40q-57 0 -96.5 -40t-39.5 -97z" />
<glyph unicode="&#xe6;" horiz-adv-x="1613" d="M61 262q0 78 30 128t76 80t104.5 42t113.5 12h395v133q0 170 -82 240t-227 70q-84 0 -158.5 -22.5t-152.5 -72.5l-31 43q78 47 159 73t185 26q152 0 231.5 -56.5t108.5 -148.5q45 96 137 150.5t215 54.5q80 0 147.5 -24.5t117 -71t76 -112t26.5 -144.5v-185h-701v-127 q0 -90 29 -151.5t77 -99.5t108.5 -54t121.5 -16q100 0 168 31.5t115 78.5l33 -37q-57 -55 -136 -85.5t-184 -30.5q-113 0 -199.5 43t-144.5 137q-94 -61 -164.5 -97t-124 -54.5t-91.5 -23.5t-66 -5q-137 0 -224.5 68.5t-87.5 207.5zM115 262q0 -61 21.5 -104t56 -71t82 -41 t100.5 -13q47 0 102 15t112.5 40t113 55.5t100.5 59.5q-10 27 -16.5 67.5t-6.5 83.5v123h-362q-43 0 -96.5 -4t-99.5 -24.5t-76.5 -63.5t-30.5 -123zM831 524h650v109q0 92 -29 155.5t-74 103.5t-101.5 58.5t-111.5 18.5q-59 0 -119.5 -19.5t-107.5 -60.5t-77 -105.5 t-30 -156.5v-103z" />
<glyph unicode="&#xe7;" horiz-adv-x="819" d="M102 356v303q0 80 27 145.5t77 113t120.5 73t158.5 25.5q74 0 152 -19.5t135 -62.5l-33 -45q-53 41 -122.5 60.5t-122.5 19.5q-66 0 -126.5 -17.5t-107.5 -57.5t-75.5 -103.5t-28.5 -153.5v-268q0 -88 28.5 -150.5t75.5 -102.5t107.5 -59.5t121.5 -19.5q27 0 60 4 t67.5 13t68.5 22.5t58 29.5l27 -43q-59 -37 -135 -55t-148 -18l-28 -84q59 -6 96 -22.5t56.5 -38t26.5 -45t7 -44.5q0 -20 -9 -44.5t-30.5 -45t-55.5 -34t-81 -13.5q-16 0 -55 3t-88 20l14 39q35 -10 68.5 -15.5t60.5 -5.5q12 0 32.5 4t41 15.5t35 31t14.5 49.5 q0 53 -53.5 80t-122.5 27l-10 8l36 117q-80 6 -143 34.5t-107.5 77t-67 113t-22.5 139.5z" />
<glyph unicode="&#xe8;" horiz-adv-x="935" d="M102 352v293q0 82 29 150.5t80 117t121.5 75t154.5 26.5q80 0 147.5 -24.5t117 -71t76 -112t26.5 -144.5v-185h-700v-108q0 -96 28.5 -161t75.5 -105t107.5 -57t123.5 -17q100 0 168 31.5t115 78.5l33 -37q-57 -55 -136 -85.5t-184 -30.5q-86 0 -155.5 23.5t-120.5 70.5 t-79 114.5t-28 157.5zM154 524h649v109q0 92 -29 155.5t-74 103.5t-101.5 58.5t-111.5 18.5q-59 0 -119.5 -19.5t-107.5 -60.5t-76.5 -105.5t-29.5 -156.5v-103zM305 1440l66 33l168 -291l-31 -17z" />
<glyph unicode="&#xe9;" horiz-adv-x="935" d="M102 352v293q0 82 29 150.5t80 117t121.5 75t154.5 26.5q80 0 147.5 -24.5t117 -71t76 -112t26.5 -144.5v-185h-700v-108q0 -96 28.5 -161t75.5 -105t107.5 -57t123.5 -17q100 0 168 31.5t115 78.5l33 -37q-57 -55 -136 -85.5t-184 -30.5q-86 0 -155.5 23.5t-120.5 70.5 t-79 114.5t-28 157.5zM154 524h649v109q0 92 -29 155.5t-74 103.5t-101.5 58.5t-111.5 18.5q-59 0 -119.5 -19.5t-107.5 -60.5t-76.5 -105.5t-29.5 -156.5v-103zM432 1182l168 291l66 -33l-203 -275z" />
<glyph unicode="&#xea;" horiz-adv-x="935" d="M102 352v293q0 82 29 150.5t80 117t121.5 75t154.5 26.5q80 0 147.5 -24.5t117 -71t76 -112t26.5 -144.5v-185h-700v-108q0 -96 28.5 -161t75.5 -105t107.5 -57t123.5 -17q100 0 168 31.5t115 78.5l33 -37q-57 -55 -136 -85.5t-184 -30.5q-86 0 -155.5 23.5t-120.5 70.5 t-79 114.5t-28 157.5zM154 524h649v109q0 92 -29 155.5t-74 103.5t-101.5 58.5t-111.5 18.5q-59 0 -119.5 -19.5t-107.5 -60.5t-76.5 -105.5t-29.5 -156.5v-103zM219 1169l250 226h59l242 -226l-25 -24l-249 188l-252 -190z" />
<glyph unicode="&#xeb;" horiz-adv-x="935" d="M102 352v293q0 82 29 150.5t80 117t121.5 75t154.5 26.5q80 0 147.5 -24.5t117 -71t76 -112t26.5 -144.5v-185h-700v-108q0 -96 28.5 -161t75.5 -105t107.5 -57t123.5 -17q100 0 168 31.5t115 78.5l33 -37q-57 -55 -136 -85.5t-184 -30.5q-86 0 -155.5 23.5t-120.5 70.5 t-79 114.5t-28 157.5zM154 524h649v109q0 92 -29 155.5t-74 103.5t-101.5 58.5t-111.5 18.5q-59 0 -119.5 -19.5t-107.5 -60.5t-76.5 -105.5t-29.5 -156.5v-103zM287 1343q0 20 14 35t33 15q20 0 34.5 -15t14.5 -35t-14.5 -34.5t-34.5 -14.5q-18 0 -32.5 14.5t-14.5 34.5z M604 1343q0 20 14.5 35t32.5 15q20 0 34.5 -15t14.5 -35t-14 -34.5t-35 -14.5q-18 0 -32.5 14.5t-14.5 34.5z" />
<glyph unicode="&#xec;" horiz-adv-x="385" d="M-18 1440l65 33l168 -291l-31 -17zM166 0v1001h51v-1001h-51z" />
<glyph unicode="&#xed;" horiz-adv-x="385" d="M166 0v1001h51v-1001h-51zM172 1182l168 291l66 -33l-203 -275z" />
<glyph unicode="&#xee;" horiz-adv-x="509" d="M-20 1169l249 226h60l241 -226l-24 -24l-250 188l-252 -190zM229 0v1001h52v-1001h-52z" />
<glyph unicode="&#xef;" horiz-adv-x="413" d="M0 1343q0 20 14.5 35t32.5 15q20 0 34.5 -15t14.5 -35t-14 -34.5t-35 -14.5q-18 0 -32.5 14.5t-14.5 34.5zM182 0v1001h51v-1001h-51zM317 1343q0 20 14.5 35t33.5 15q20 0 34.5 -15t14.5 -35t-14.5 -34.5t-34.5 -14.5q-18 0 -33 14.5t-15 34.5z" />
<glyph unicode="&#xf0;" horiz-adv-x="954" d="M139 348v266q0 80 29 145.5t81 114t121.5 75t153.5 26.5q111 0 201 -43t137 -135q-4 129 -20.5 239.5t-59.5 190.5l-161 -115l-23 33l164 117q-55 86 -134 127t-198 51l6 45q135 -10 224.5 -60.5t144.5 -132.5l149 107l25 -35l-154 -109q57 -102 70.5 -239t13.5 -299 v-365q0 -168 -100 -267t-287 -99q-88 0 -158.5 26.5t-120.5 74.5t-77 114.5t-27 146.5zM190 365q0 -90 28 -154t75 -103.5t107.5 -58t125.5 -18.5q70 0 131.5 19.5t106.5 60.5t70.5 103t25.5 151v231q0 90 -27.5 153.5t-73.5 103.5t-106.5 57.5t-126.5 17.5 q-61 0 -121.5 -17.5t-107.5 -57.5t-77 -103.5t-30 -153.5v-231z" />
<glyph unicode="&#xf1;" horiz-adv-x="966" d="M102 0v1001h37l15 -153q74 45 131 76.5t105 51t88 29t79 9.5q152 0 232.5 -80t80.5 -254v-680h-51v655q0 166 -68.5 238t-199.5 72q-80 0 -183.5 -49.5t-213.5 -127.5v-788h-52zM166 1280q76 106 174 106q31 0 63.5 -13t65.5 -28.5t64.5 -27.5t56.5 -12q33 0 56.5 19 t51.5 60l39 -22q-35 -61 -72.5 -85t-78.5 -24q-29 0 -60.5 12.5t-64.5 28t-64.5 27.5t-60.5 12q-41 0 -72 -21.5t-59 -56.5z" />
<glyph unicode="&#xf2;" horiz-adv-x="954" d="M92 348v316q0 80 31 144t83 110.5t121.5 71t149.5 24.5t150.5 -24.5t123 -71t82 -111t29.5 -143.5v-312q0 -168 -100.5 -267t-286.5 -99q-88 0 -158.5 26.5t-121 74.5t-77 114.5t-26.5 146.5zM143 365q0 -90 28 -154t75 -103.5t107.5 -58t125.5 -18.5q70 0 131.5 19.5 t106.5 60.5t70.5 103t25.5 151v270q0 90 -29.5 153.5t-78 103.5t-107.5 57.5t-119 17.5q-61 0 -121.5 -17.5t-107.5 -57.5t-77 -103.5t-30 -153.5v-270zM307 1440l66 33l168 -291l-31 -17z" />
<glyph unicode="&#xf3;" horiz-adv-x="954" d="M92 348v316q0 80 31 144t83 110.5t121.5 71t149.5 24.5t150.5 -24.5t123 -71t82 -111t29.5 -143.5v-312q0 -168 -100.5 -267t-286.5 -99q-88 0 -158.5 26.5t-121 74.5t-77 114.5t-26.5 146.5zM143 365q0 -90 28 -154t75 -103.5t107.5 -58t125.5 -18.5q70 0 131.5 19.5 t106.5 60.5t70.5 103t25.5 151v270q0 90 -29.5 153.5t-78 103.5t-107.5 57.5t-119 17.5q-61 0 -121.5 -17.5t-107.5 -57.5t-77 -103.5t-30 -153.5v-270zM422 1182l168 291l65 -33l-202 -275z" />
<glyph unicode="&#xf4;" horiz-adv-x="954" d="M92 348v316q0 80 31 144t83 110.5t121.5 71t149.5 24.5t150.5 -24.5t123 -71t82 -111t29.5 -143.5v-312q0 -168 -100.5 -267t-286.5 -99q-88 0 -158.5 26.5t-121 74.5t-77 114.5t-26.5 146.5zM143 365q0 -90 28 -154t75 -103.5t107.5 -58t125.5 -18.5q70 0 131.5 19.5 t106.5 60.5t70.5 103t25.5 151v270q0 90 -29.5 153.5t-78 103.5t-107.5 57.5t-119 17.5q-61 0 -121.5 -17.5t-107.5 -57.5t-77 -103.5t-30 -153.5v-270zM211 1169l250 226h59l242 -226l-25 -24l-250 188l-251 -190z" />
<glyph unicode="&#xf5;" horiz-adv-x="954" d="M92 348v316q0 80 31 144t83 110.5t121.5 71t149.5 24.5t150.5 -24.5t123 -71t82 -111t29.5 -143.5v-312q0 -168 -100.5 -267t-286.5 -99q-88 0 -158.5 26.5t-121 74.5t-77 114.5t-26.5 146.5zM143 365q0 -90 28 -154t75 -103.5t107.5 -58t125.5 -18.5q70 0 131.5 19.5 t106.5 60.5t70.5 103t25.5 151v270q0 90 -29.5 153.5t-78 103.5t-107.5 57.5t-119 17.5q-61 0 -121.5 -17.5t-107.5 -57.5t-77 -103.5t-30 -153.5v-270zM197 1280q76 106 174 106q31 0 63.5 -13t65 -28.5t64.5 -27.5t57 -12q33 0 56 19t52 60l39 -22q-35 -61 -73 -85 t-79 -24q-29 0 -60.5 12.5t-64 28t-64.5 27.5t-60 12q-41 0 -72 -21.5t-59 -56.5z" />
<glyph unicode="&#xf6;" horiz-adv-x="954" d="M92 348v316q0 80 31 144t83 110.5t121.5 71t149.5 24.5t150.5 -24.5t123 -71t82 -111t29.5 -143.5v-312q0 -168 -100.5 -267t-286.5 -99q-88 0 -158.5 26.5t-121 74.5t-77 114.5t-26.5 146.5zM143 365q0 -90 28 -154t75 -103.5t107.5 -58t125.5 -18.5q70 0 131.5 19.5 t106.5 60.5t70.5 103t25.5 151v270q0 90 -29.5 153.5t-78 103.5t-107.5 57.5t-119 17.5q-61 0 -121.5 -17.5t-107.5 -57.5t-77 -103.5t-30 -153.5v-270zM274 1343q0 20 14.5 35t33.5 15q20 0 34.5 -15t14.5 -35t-14.5 -34.5t-34.5 -14.5q-18 0 -33 14.5t-15 34.5zM592 1343 q0 20 14.5 35t32.5 15q20 0 34.5 -15t14.5 -35t-14.5 -34.5t-34.5 -14.5q-18 0 -32.5 14.5t-14.5 34.5z" />
<glyph unicode="&#xf7;" horiz-adv-x="942" d="M61 535v49h818v-49h-818zM416 219q0 29 20.5 43t42.5 14q23 0 40.5 -14t17.5 -43q0 -25 -17.5 -42t-42.5 -17q-27 0 -44 17.5t-17 41.5zM416 891q0 29 19.5 43t41.5 14q23 0 41.5 -14t18.5 -43q0 -25 -17.5 -42.5t-42.5 -17.5q-27 0 -44 17.5t-17 42.5z" />
<glyph unicode="&#xf8;" horiz-adv-x="954" d="M92 12l76 105q-76 94 -76 231v316q0 80 31 144t83 110.5t121.5 71t149.5 24.5q82 0 153.5 -26.5t125.5 -74.5l71 99l33 -27l-76 -104q35 -43 56.5 -97.5t21.5 -119.5v-312q0 -168 -100.5 -267t-286.5 -99q-174 0 -276 98l-72 -98zM143 365q0 -66 14.5 -117t41.5 -90 l526 714q-49 49 -114.5 72t-131.5 23q-61 0 -121.5 -17.5t-107.5 -57.5t-77 -103.5t-30 -153.5v-270zM227 123q47 -47 114 -69.5t138 -22.5q70 0 131.5 19.5t106.5 60.5t70.5 103t25.5 151v270q0 66 -15.5 116t-43.5 89z" />
<glyph unicode="&#xf9;" horiz-adv-x="966" d="M96 322v679h51v-655q0 -166 69 -237.5t200 -71.5q80 0 183 49t214 127v788h51v-1001h-37l-14 154q-74 -45 -132 -77t-105.5 -51.5t-87 -28.5t-78.5 -9q-152 0 -233 79.5t-81 254.5zM313 1440l66 33l168 -291l-31 -17z" />
<glyph unicode="&#xfa;" horiz-adv-x="966" d="M96 322v679h51v-655q0 -166 69 -237.5t200 -71.5q80 0 183 49t214 127v788h51v-1001h-37l-14 154q-74 -45 -132 -77t-105.5 -51.5t-87 -28.5t-78.5 -9q-152 0 -233 79.5t-81 254.5zM453 1182l168 291l65 -33l-203 -275z" />
<glyph unicode="&#xfb;" horiz-adv-x="966" d="M96 322v679h51v-655q0 -166 69 -237.5t200 -71.5q80 0 183 49t214 127v788h51v-1001h-37l-14 154q-74 -45 -132 -77t-105.5 -51.5t-87 -28.5t-78.5 -9q-152 0 -233 79.5t-81 254.5zM209 1169l250 226h59l242 -226l-25 -24l-250 188l-252 -190z" />
<glyph unicode="&#xfc;" horiz-adv-x="966" d="M96 322v679h51v-655q0 -166 69 -237.5t200 -71.5q80 0 183 49t214 127v788h51v-1001h-37l-14 154q-74 -45 -132 -77t-105.5 -51.5t-87 -28.5t-78.5 -9q-152 0 -233 79.5t-81 254.5zM281 1343q0 20 14 35t33 15q20 0 34.5 -15t14.5 -35t-14.5 -34.5t-34.5 -14.5 q-18 0 -32.5 14.5t-14.5 34.5zM598 1343q0 20 14.5 35t32.5 15q20 0 34.5 -15t14.5 -35t-14 -34.5t-35 -14.5q-18 0 -32.5 14.5t-14.5 34.5z" />
<glyph unicode="&#xfd;" horiz-adv-x="837" d="M12 999h51l345 -958l356 958h49l-518 -1405h-53l145 406l-41 51zM365 1182l167 291l66 -33l-203 -275z" />
<glyph unicode="&#xfe;" horiz-adv-x="960" d="M102 -422v1833h50v-559q80 51 142 83t112.5 49t88 23.5t66.5 6.5q145 0 226 -82t81 -250v-352q0 -168 -92 -256t-260 -88q-31 0 -66.5 4t-79.5 15t-97.5 32.5t-120.5 56.5v-516h-50zM152 154q121 -66 209 -93.5t153 -27.5q160 0 232.5 81t72.5 240v301q0 166 -66.5 239 t-189.5 73q-76 0 -185.5 -46.5t-225.5 -125.5v-641z" />
<glyph unicode="&#xff;" horiz-adv-x="837" d="M12 999h51l345 -958l356 958h49l-518 -1405h-53l145 406l-41 51zM211 1343q0 20 14.5 35t32.5 15q20 0 34.5 -15t14.5 -35t-14 -34.5t-35 -14.5q-18 0 -32.5 14.5t-14.5 34.5zM528 1343q0 20 14.5 35t32.5 15q20 0 35 -15t15 -35t-14.5 -34.5t-35.5 -14.5 q-18 0 -32.5 14.5t-14.5 34.5z" />
<glyph unicode="&#x100;" horiz-adv-x="1134" d="M49 0l486 1411h71l490 -1411h-58l-125 352h-686l-118 -352h-60zM246 401h651l-328 959zM315 1565v49h508v-49h-508z" />
<glyph unicode="&#x101;" horiz-adv-x="923" d="M61 262q0 78 30 131t76 87t104.5 49.5t113.5 15.5h395v112q0 170 -79.5 239t-229.5 69q-84 0 -158.5 -21.5t-152.5 -71.5l-31 43q78 47 159 73t185 26q106 0 175 -25.5t110 -70t57 -105.5t16 -133v-680h-36l-15 139q-80 -53 -142.5 -82.5t-111.5 -46t-87 -20.5t-66 -4 q-137 0 -224.5 68.5t-87.5 207.5zM115 262q0 -61 21.5 -104t56 -71t82 -41t100.5 -13q47 0 99 14t105.5 36.5t104.5 51.5t96 58v305h-358q-45 0 -99.5 -7.5t-100.5 -32t-76.5 -70.5t-30.5 -126zM225 1208v49h508v-49h-508z" />
<glyph unicode="&#x102;" horiz-adv-x="1134" d="M49 0l486 1411h71l490 -1411h-58l-125 352h-686l-118 -352h-60zM246 401h651l-328 959zM328 1700h43q12 -70 70 -115t130 -45q78 0 132.5 45t66.5 115h45q-6 -37 -23.5 -75t-48 -66.5t-73.5 -47t-99 -18.5q-55 0 -98 18.5t-73.5 47t-48 66.5t-23.5 75z" />
<glyph unicode="&#x103;" horiz-adv-x="923" d="M61 262q0 78 30 131t76 87t104.5 49.5t113.5 15.5h395v112q0 170 -79.5 239t-229.5 69q-84 0 -158.5 -21.5t-152.5 -71.5l-31 43q78 47 159 73t185 26q106 0 175 -25.5t110 -70t57 -105.5t16 -133v-680h-36l-15 139q-80 -53 -142.5 -82.5t-111.5 -46t-87 -20.5t-66 -4 q-137 0 -224.5 68.5t-87.5 207.5zM115 262q0 -61 21.5 -104t56 -71t82 -41t100.5 -13q47 0 99 14t105.5 36.5t104.5 51.5t96 58v305h-358q-45 0 -99.5 -7.5t-100.5 -32t-76.5 -70.5t-30.5 -126zM238 1358h45q16 -80 74 -120t124 -40q63 0 118.5 32t80.5 128h45 q-6 -37 -23.5 -75t-48 -66.5t-73.5 -47t-99 -18.5q-55 0 -98 18.5t-73.5 47t-48 66.5t-23.5 75z" />
<glyph unicode="&#x104;" horiz-adv-x="1134" d="M49 0l486 1411h71l490 -1411h-19q-39 -43 -56 -96.5t-17 -87.5q0 -61 33.5 -89t84.5 -28q27 0 56.5 7t62.5 24l19 -37q-25 -16 -64 -28.5t-82 -12.5q-78 0 -121 47.5t-43 110.5q0 39 20.5 91t67.5 99l-125 352h-686l-118 -352h-60zM246 401h651l-328 959z" />
<glyph unicode="&#x105;" horiz-adv-x="923" d="M61 262q0 78 30 131t76 87t104.5 49.5t113.5 15.5h395v112q0 170 -79.5 239t-229.5 69q-84 0 -158.5 -21.5t-152.5 -71.5l-31 43q78 47 159 73t185 26q106 0 175 -25.5t110 -70t57 -105.5t16 -133v-680q-39 -43 -56 -96.5t-17 -87.5q0 -61 33.5 -89t85.5 -28q27 0 56.5 7 t61.5 24l19 -37q-25 -16 -64 -28.5t-82 -12.5q-78 0 -120.5 47.5t-42.5 110.5q0 39 20 92t70 100l-15 137q-80 -53 -142.5 -82.5t-111.5 -46t-87 -20.5t-66 -4q-137 0 -224.5 68.5t-87.5 207.5zM115 262q0 -61 21.5 -104t56 -71t82 -41t100.5 -13q47 0 99 14t105.5 36.5 t104.5 51.5t96 58v305h-358q-45 0 -99.5 -7.5t-100.5 -32t-76.5 -70.5t-30.5 -126z" />
<glyph unicode="&#x106;" horiz-adv-x="1003" d="M102 465v491q0 100 33 185.5t95.5 149t153.5 99t206 35.5q102 0 186 -21.5t162 -72.5l-33 -45q-137 90 -315 90q-82 0 -160 -24.5t-139.5 -76.5t-98 -134t-36.5 -195v-475q0 -113 36.5 -195.5t97 -137t137.5 -81t155 -26.5q94 0 175 27.5t152 74.5l33 -43 q-53 -35 -141 -69.5t-211 -34.5q-119 0 -210 36.5t-152.5 101t-93.5 151.5t-32 190zM471 1509l264 207l49 -53l-290 -180z" />
<glyph unicode="&#x107;" horiz-adv-x="819" d="M102 356v303q0 80 27 145.5t77 113t120.5 73t158.5 25.5q74 0 152 -19.5t135 -62.5l-33 -45q-53 41 -122.5 60.5t-122.5 19.5q-66 0 -126.5 -17.5t-107.5 -57.5t-75.5 -103.5t-28.5 -153.5v-268q0 -88 28.5 -150.5t75.5 -102.5t107.5 -59.5t121.5 -19.5q27 0 60 4 t67.5 13t68.5 22.5t58 29.5l27 -43q-59 -37 -135 -55t-150 -18q-90 0 -161.5 27.5t-120.5 75.5t-75 115.5t-26 147.5zM434 1182l168 291l66 -33l-203 -275z" />
<glyph unicode="&#x108;" horiz-adv-x="1003" d="M102 465v491q0 100 33 185.5t95.5 149t153.5 99t206 35.5q102 0 186 -21.5t162 -72.5l-33 -45q-137 90 -315 90q-82 0 -160 -24.5t-139.5 -76.5t-98 -134t-36.5 -195v-475q0 -113 36.5 -195.5t97 -137t137.5 -81t155 -26.5q94 0 175 27.5t152 74.5l33 -43 q-53 -35 -141 -69.5t-211 -34.5q-119 0 -210 36.5t-152.5 101t-93.5 151.5t-32 190zM311 1511l250 205h60l241 -205l-24 -24l-250 168l-252 -170z" />
<glyph unicode="&#x109;" horiz-adv-x="819" d="M102 356v303q0 80 27 145.5t77 113t120.5 73t158.5 25.5q74 0 152 -19.5t135 -62.5l-33 -45q-53 41 -122.5 60.5t-122.5 19.5q-66 0 -126.5 -17.5t-107.5 -57.5t-75.5 -103.5t-28.5 -153.5v-268q0 -88 28.5 -150.5t75.5 -102.5t107.5 -59.5t121.5 -19.5q27 0 60 4 t67.5 13t68.5 22.5t58 29.5l27 -43q-59 -37 -135 -55t-150 -18q-90 0 -161.5 27.5t-120.5 75.5t-75 115.5t-26 147.5zM193 1169l249 226h60l241 -226l-24 -24l-250 188l-252 -190z" />
<glyph unicode="&#x10a;" horiz-adv-x="1003" d="M102 465v491q0 100 33 185.5t95.5 149t153.5 99t206 35.5q102 0 186 -21.5t162 -72.5l-33 -45q-137 90 -315 90q-82 0 -160 -24.5t-139.5 -76.5t-98 -134t-36.5 -195v-475q0 -113 36.5 -195.5t97 -137t137.5 -81t155 -26.5q94 0 175 27.5t152 74.5l33 -43 q-53 -35 -141 -69.5t-211 -34.5q-119 0 -210 36.5t-152.5 101t-93.5 151.5t-32 190zM553 1645q0 20 14.5 34.5t32.5 14.5q20 0 34.5 -14.5t14.5 -34.5t-14 -35t-35 -15q-18 0 -32.5 14.5t-14.5 35.5z" />
<glyph unicode="&#x10b;" horiz-adv-x="819" d="M102 356v303q0 80 27 145.5t77 113t120.5 73t158.5 25.5q74 0 152 -19.5t135 -62.5l-33 -45q-53 41 -122.5 60.5t-122.5 19.5q-66 0 -126.5 -17.5t-107.5 -57.5t-75.5 -103.5t-28.5 -153.5v-268q0 -88 28.5 -150.5t75.5 -102.5t107.5 -59.5t121.5 -19.5q27 0 60 4 t67.5 13t68.5 22.5t58 29.5l27 -43q-59 -37 -135 -55t-150 -18q-90 0 -161.5 27.5t-120.5 75.5t-75 115.5t-26 147.5zM434 1296q0 20 14.5 35t32.5 15q20 0 34.5 -15t14.5 -35t-14 -34.5t-35 -14.5q-18 0 -32.5 14.5t-14.5 34.5z" />
<glyph unicode="&#x10c;" horiz-adv-x="1003" d="M102 465v491q0 100 33 185.5t95.5 149t153.5 99t206 35.5q102 0 186 -21.5t162 -72.5l-33 -45q-137 90 -315 90q-82 0 -160 -24.5t-139.5 -76.5t-98 -134t-36.5 -195v-475q0 -113 36.5 -195.5t97 -137t137.5 -81t155 -26.5q94 0 175 27.5t152 74.5l33 -43 q-53 -35 -141 -69.5t-211 -34.5q-119 0 -210 36.5t-152.5 101t-93.5 151.5t-32 190zM295 1692l24 26l252 -170l250 168l25 -24l-242 -205h-59z" />
<glyph unicode="&#x10d;" horiz-adv-x="819" d="M102 356v303q0 80 27 145.5t77 113t120.5 73t158.5 25.5q74 0 152 -19.5t135 -62.5l-33 -45q-53 41 -122.5 60.5t-122.5 19.5q-66 0 -126.5 -17.5t-107.5 -57.5t-75.5 -103.5t-28.5 -153.5v-268q0 -88 28.5 -150.5t75.5 -102.5t107.5 -59.5t121.5 -19.5q27 0 60 4 t67.5 13t68.5 22.5t58 29.5l27 -43q-59 -37 -135 -55t-150 -18q-90 0 -161.5 27.5t-120.5 75.5t-75 115.5t-26 147.5zM197 1370l24 27l252 -191l250 189l25 -25l-242 -225h-60z" />
<glyph unicode="&#x10e;" horiz-adv-x="1165" d="M113 0v1411h518q106 0 189 -35t139.5 -96t85 -146t28.5 -186v-493q0 -100 -30.5 -183.5t-89 -143.5t-142.5 -94t-188 -34h-510zM166 45h438q74 0 148.5 22.5t133 72.5t95.5 131t37 198v469q0 115 -34 195.5t-88 131t-121.5 73t-133.5 22.5h-475v-1315zM272 1692l25 26 l252 -170l250 168l24 -24l-241 -205h-60z" />
<glyph unicode="&#x10f;" horiz-adv-x="1095" d="M92 317v353q0 168 92 256t260 88q31 0 67 -4t80 -15.5t97 -33t121 -56.5v559h49v-1460h-35l-14 143q-80 -51 -142.5 -82.5t-112.5 -49t-88 -23.5t-67 -6q-145 0 -226 82t-81 249zM141 344q0 -166 66.5 -238.5t189.5 -72.5q76 0 185.5 46t226.5 126v641q-121 66 -209 93.5 t-154 27.5q-160 0 -232.5 -81t-72.5 -241v-301zM969 1415q0 29 19.5 42t41.5 13q29 0 49.5 -19t20.5 -67q0 -47 -30 -104t-77 -86l-16 23q35 27 51 68.5t16 76.5q-31 -4 -53 9t-22 44z" />
<glyph unicode="&#x110;" horiz-adv-x="1165" d="M12 723v47h101v641h518q106 0 189 -35t139.5 -96t85 -146t28.5 -186v-493q0 -100 -30.5 -183.5t-89 -143.5t-142.5 -94t-188 -34h-510v723h-101zM166 45h438q74 0 148.5 22.5t133 72.5t95.5 131t37 198v469q0 115 -34 195.5t-88 131t-121.5 73t-133.5 22.5h-475v-590h385 v-47h-385v-678z" />
<glyph unicode="&#x111;" horiz-adv-x="960" d="M92 317v353q0 168 92 256t260 88q31 0 67 -4t80 -15.5t97 -33t121 -56.5v287h-399v45h399v227h49v-227h103v-45h-103v-1188h-35l-14 143q-80 -51 -142.5 -82.5t-112.5 -49t-88 -23.5t-67 -6q-145 0 -226 82t-81 249zM141 344q0 -166 66.5 -238.5t189.5 -72.5 q76 0 185.5 46t226.5 126v641q-121 66 -209 93.5t-154 27.5q-160 0 -232.5 -81t-72.5 -241v-301z" />
<glyph unicode="&#x112;" horiz-adv-x="1064" d="M113 0v1411h891v-51h-838v-615h721v-49h-721v-649h838v-47h-891zM322 1565v49h507v-49h-507z" />
<glyph unicode="&#x113;" horiz-adv-x="935" d="M102 352v293q0 82 29 150.5t80 117t121.5 75t154.5 26.5q80 0 147.5 -24.5t117 -71t76 -112t26.5 -144.5v-185h-700v-108q0 -96 28.5 -161t75.5 -105t107.5 -57t123.5 -17q100 0 168 31.5t115 78.5l33 -37q-57 -55 -136 -85.5t-184 -30.5q-86 0 -155.5 23.5t-120.5 70.5 t-79 114.5t-28 157.5zM154 524h649v109q0 92 -29 155.5t-74 103.5t-101.5 58.5t-111.5 18.5q-59 0 -119.5 -19.5t-107.5 -60.5t-76.5 -105.5t-29.5 -156.5v-103zM238 1208v49h507v-49h-507z" />
<glyph unicode="&#x114;" horiz-adv-x="1064" d="M113 0v1411h891v-51h-838v-615h721v-49h-721v-649h838v-47h-891zM330 1700h43q12 -70 70 -115t130 -45q78 0 132.5 45t66.5 115h45q-6 -37 -23.5 -75t-48 -66.5t-73.5 -47t-99 -18.5q-55 0 -98 18.5t-73.5 47t-48 66.5t-23.5 75z" />
<glyph unicode="&#x115;" horiz-adv-x="935" d="M102 352v293q0 82 29 150.5t80 117t121.5 75t154.5 26.5q80 0 147.5 -24.5t117 -71t76 -112t26.5 -144.5v-185h-700v-108q0 -96 28.5 -161t75.5 -105t107.5 -57t123.5 -17q100 0 168 31.5t115 78.5l33 -37q-57 -55 -136 -85.5t-184 -30.5q-86 0 -155.5 23.5t-120.5 70.5 t-79 114.5t-28 157.5zM154 524h649v109q0 92 -29 155.5t-74 103.5t-101.5 58.5t-111.5 18.5q-59 0 -119.5 -19.5t-107.5 -60.5t-76.5 -105.5t-29.5 -156.5v-103zM252 1358h45q16 -80 74.5 -120t124.5 -40q63 0 118.5 32t79.5 128h45q-6 -37 -23.5 -75t-48 -66.5t-73.5 -47 t-98 -18.5t-98.5 18.5t-74 47t-48 66.5t-23.5 75z" />
<glyph unicode="&#x116;" horiz-adv-x="1064" d="M113 0v1411h891v-51h-838v-615h721v-49h-721v-649h838v-47h-891zM508 1645q0 20 14.5 34.5t32.5 14.5q20 0 34.5 -14.5t14.5 -34.5t-14.5 -35t-34.5 -15q-18 0 -32.5 14.5t-14.5 35.5z" />
<glyph unicode="&#x117;" horiz-adv-x="935" d="M102 352v293q0 82 29 150.5t80 117t121.5 75t154.5 26.5q80 0 147.5 -24.5t117 -71t76 -112t26.5 -144.5v-185h-700v-108q0 -96 28.5 -161t75.5 -105t107.5 -57t123.5 -17q100 0 168 31.5t115 78.5l33 -37q-57 -55 -136 -85.5t-184 -30.5q-86 0 -155.5 23.5t-120.5 70.5 t-79 114.5t-28 157.5zM154 524h649v109q0 92 -29 155.5t-74 103.5t-101.5 58.5t-111.5 18.5q-59 0 -119.5 -19.5t-107.5 -60.5t-76.5 -105.5t-29.5 -156.5v-103zM451 1296q0 20 14 35t33 15q20 0 34.5 -15t14.5 -35t-14.5 -34.5t-34.5 -14.5q-18 0 -32.5 14.5t-14.5 34.5z " />
<glyph unicode="&#x118;" horiz-adv-x="1064" d="M113 0v1411h891v-51h-838v-615h721v-49h-721v-649h838v-47q-39 -43 -56.5 -96.5t-17.5 -87.5q0 -61 33.5 -89t85.5 -28q27 0 56.5 7t61.5 24l19 -37q-25 -16 -64 -28.5t-82 -12.5q-78 0 -120.5 47t-42.5 111q0 39 20.5 91t67.5 99h-852z" />
<glyph unicode="&#x119;" horiz-adv-x="935" d="M102 352v293q0 82 29 150.5t80 117t121.5 75t154.5 26.5q80 0 147.5 -24.5t117 -71t76 -112t26.5 -144.5v-185h-700v-108q0 -96 28.5 -161t75.5 -105t107.5 -57t123.5 -17q100 0 168 31.5t115 78.5l33 -37l-31 -28q-35 -41 -51 -91.5t-16 -84.5q0 -61 33.5 -89t84.5 -28 q27 0 56.5 7t62.5 24l19 -37q-25 -16 -64 -28.5t-82 -12.5q-78 0 -121 47t-43 110q0 29 10.5 65t32.5 71q-92 -41 -211 -41q-86 0 -155.5 23.5t-120.5 70.5t-79 114.5t-28 157.5zM154 524h649v109q0 92 -29 155.5t-74 103.5t-101.5 58.5t-111.5 18.5q-59 0 -119.5 -19.5 t-107.5 -60.5t-76.5 -105.5t-29.5 -156.5v-103z" />
<glyph unicode="&#x11a;" horiz-adv-x="1064" d="M113 0v1411h891v-51h-838v-615h721v-49h-721v-649h838v-47h-891zM289 1692l24 26l252 -170l250 168l25 -24l-242 -205h-59z" />
<glyph unicode="&#x11b;" horiz-adv-x="935" d="M102 352v293q0 82 29 150.5t80 117t121.5 75t154.5 26.5q80 0 147.5 -24.5t117 -71t76 -112t26.5 -144.5v-185h-700v-108q0 -96 28.5 -161t75.5 -105t107.5 -57t123.5 -17q100 0 168 31.5t115 78.5l33 -37q-57 -55 -136 -85.5t-184 -30.5q-86 0 -155.5 23.5t-120.5 70.5 t-79 114.5t-28 157.5zM154 524h649v109q0 92 -29 155.5t-74 103.5t-101.5 58.5t-111.5 18.5q-59 0 -119.5 -19.5t-107.5 -60.5t-76.5 -105.5t-29.5 -156.5v-103zM219 1370l25 27l252 -191l249 189l25 -25l-242 -225h-59z" />
<glyph unicode="&#x11c;" horiz-adv-x="1093" d="M92 465v491q0 100 34 185.5t98.5 149t156.5 99t207 35.5q102 0 190 -21.5t166 -72.5l-33 -45q-72 47 -153.5 68.5t-169.5 21.5q-82 0 -162 -24.5t-142.5 -76.5t-100.5 -134t-38 -195v-475q0 -113 37 -195.5t98.5 -137t139.5 -81t160 -26.5q27 0 67.5 4t89.5 18.5 t103.5 40t107.5 68.5v465h-252v51h308v-541q-180 -152 -420 -151q-119 0 -210 36.5t-153.5 101t-95.5 151.5t-33 190zM311 1511l250 205h60l241 -205l-24 -24l-250 168l-252 -170z" />
<glyph unicode="&#x11d;" horiz-adv-x="960" d="M92 319v359q0 174 86 254t221 80q29 0 67 -2t87 -15.5t112.5 -41t143.5 -79.5l14 127h35v-1091q0 -172 -104.5 -259t-288.5 -87q-78 0 -163 19.5t-142 64.5l35 45q49 -37 125.5 -59.5t148.5 -22.5t133.5 16.5t107.5 54t72.5 101t26.5 156.5v219q-80 -53 -143.5 -86 t-113.5 -51.5t-89 -25.5t-72 -7q-143 -4 -221 77.5t-78 253.5zM141 346q0 -166 61.5 -237.5t190.5 -71.5q82 0 192.5 50t223.5 128v596q-119 80 -219.5 117t-186.5 37q-123 0 -192.5 -72t-69.5 -240v-307zM215 1169l250 226h59l242 -226l-25 -24l-249 188l-252 -190z" />
<glyph unicode="&#x11e;" horiz-adv-x="1093" d="M92 465v491q0 100 34 185.5t98.5 149t156.5 99t207 35.5q102 0 190 -21.5t166 -72.5l-33 -45q-72 47 -153.5 68.5t-169.5 21.5q-82 0 -162 -24.5t-142.5 -76.5t-100.5 -134t-38 -195v-475q0 -113 37 -195.5t98.5 -137t139.5 -81t160 -26.5q27 0 67.5 4t89.5 18.5 t103.5 40t107.5 68.5v465h-252v51h308v-541q-180 -152 -420 -151q-119 0 -210 36.5t-153.5 101t-95.5 151.5t-33 190zM344 1700h43q12 -70 70.5 -115t130.5 -45q78 0 132 45t66 115h45q-6 -37 -23 -75t-48 -66.5t-74 -47t-98 -18.5t-98.5 18.5t-74 47t-48 66.5t-23.5 75z " />
<glyph unicode="&#x11f;" horiz-adv-x="960" d="M92 319v359q0 174 86 254t221 80q29 0 67 -2t87 -15.5t112.5 -41t143.5 -79.5l14 127h35v-1091q0 -172 -104.5 -259t-288.5 -87q-78 0 -163 19.5t-142 64.5l35 45q49 -37 125.5 -59.5t148.5 -22.5t133.5 16.5t107.5 54t72.5 101t26.5 156.5v219q-80 -53 -143.5 -86 t-113.5 -51.5t-89 -25.5t-72 -7q-143 -4 -221 77.5t-78 253.5zM141 346q0 -166 61.5 -237.5t190.5 -71.5q82 0 192.5 50t223.5 128v596q-119 80 -219.5 117t-186.5 37q-123 0 -192.5 -72t-69.5 -240v-307zM270 1358h45q16 -80 74.5 -120t124.5 -40q63 0 118.5 32t80.5 128 h45q-6 -37 -23.5 -75t-48.5 -66.5t-74 -47t-98 -18.5t-98 18.5t-74 47t-48.5 66.5t-23.5 75z" />
<glyph unicode="&#x120;" horiz-adv-x="1093" d="M92 465v491q0 100 34 185.5t98.5 149t156.5 99t207 35.5q102 0 190 -21.5t166 -72.5l-33 -45q-72 47 -153.5 68.5t-169.5 21.5q-82 0 -162 -24.5t-142.5 -76.5t-100.5 -134t-38 -195v-475q0 -113 37 -195.5t98.5 -137t139.5 -81t160 -26.5q27 0 67.5 4t89.5 18.5 t103.5 40t107.5 68.5v465h-252v51h308v-541q-180 -152 -420 -151q-119 0 -210 36.5t-153.5 101t-95.5 151.5t-33 190zM559 1645q0 20 14.5 34.5t32.5 14.5q20 0 34.5 -14.5t14.5 -34.5t-14 -35t-35 -15q-18 0 -32.5 14.5t-14.5 35.5z" />
<glyph unicode="&#x121;" horiz-adv-x="960" d="M92 319v359q0 174 86 254t221 80q29 0 67 -2t87 -15.5t112.5 -41t143.5 -79.5l14 127h35v-1091q0 -172 -104.5 -259t-288.5 -87q-78 0 -163 19.5t-142 64.5l35 45q49 -37 125.5 -59.5t148.5 -22.5t133.5 16.5t107.5 54t72.5 101t26.5 156.5v219q-80 -53 -143.5 -86 t-113.5 -51.5t-89 -25.5t-72 -7q-143 -4 -221 77.5t-78 253.5zM141 346q0 -166 61.5 -237.5t190.5 -71.5q82 0 192.5 50t223.5 128v596q-119 80 -219.5 117t-186.5 37q-123 0 -192.5 -72t-69.5 -240v-307zM471 1296q0 20 14.5 35t32.5 15q20 0 34.5 -15t14.5 -35t-14 -34.5 t-35 -14.5q-18 0 -32.5 14.5t-14.5 34.5z" />
<glyph unicode="&#x122;" horiz-adv-x="1093" d="M92 465v491q0 100 34 185.5t98.5 149t156.5 99t207 35.5q102 0 190 -21.5t166 -72.5l-33 -45q-72 47 -153.5 68.5t-169.5 21.5q-82 0 -162 -24.5t-142.5 -76.5t-100.5 -134t-38 -195v-475q0 -113 37 -195.5t98.5 -137t139.5 -81t160 -26.5q27 0 67.5 4t89.5 18.5 t103.5 40t107.5 68.5v465h-252v51h308v-541q-180 -152 -420 -151q-119 0 -210 36.5t-153.5 101t-95.5 151.5t-33 190zM514 -231q0 29 19.5 42t41.5 13q29 0 49.5 -19.5t20.5 -66.5t-29.5 -104.5t-76.5 -86.5l-17 23q35 27 51.5 69t16.5 76q-31 -4 -53.5 9.5t-22.5 44.5z" />
<glyph unicode="&#x123;" horiz-adv-x="960" d="M92 319v359q0 174 86 254t221 80q29 0 67 -2t87 -15.5t112.5 -41t143.5 -79.5l14 127h35v-1091q0 -172 -104.5 -259t-288.5 -87q-78 0 -163 19.5t-142 64.5l35 45q49 -37 125.5 -59.5t148.5 -22.5t133.5 16.5t107.5 54t72.5 101t26.5 156.5v219q-80 -53 -143.5 -86 t-113.5 -51.5t-89 -25.5t-72 -7q-143 -4 -221 77.5t-78 253.5zM141 346q0 -166 61.5 -237.5t190.5 -71.5q82 0 192.5 50t223.5 128v596q-119 80 -219.5 117t-186.5 37q-123 0 -192.5 -72t-69.5 -240v-307zM453 1206q0 47 29.5 104.5t76.5 86.5l16 -23q-35 -27 -51 -68.5 t-16 -76.5q31 4 53.5 -9.5t22.5 -43.5q0 -29 -19.5 -42.5t-42.5 -13.5q-29 0 -49 19.5t-20 66.5z" />
<glyph unicode="&#x124;" horiz-adv-x="1200" d="M113 0v1411h53v-668h866v668h55v-1411h-55v696h-866v-696h-53zM334 1511l250 205h59l242 -205l-25 -24l-250 168l-252 -170z" />
<glyph unicode="&#x125;" horiz-adv-x="962" d="M-147 1511l249 205h60l241 -205l-24 -24l-250 168l-252 -170zM102 0v1466h52v-618q150 94 251 130t166 36q152 0 225.5 -80t73.5 -254v-680h-51v655q0 166 -61.5 238t-192.5 72q-41 0 -91 -14.5t-104.5 -39t-109.5 -55.5t-106 -63v-793h-52z" />
<glyph unicode="&#x126;" horiz-adv-x="1200" d="M4 1178v45h109v188h53v-188h866v188h55v-188h101v-45h-101v-1178h-55v696h-866v-696h-53v1178h-109zM166 743h866v435h-866v-435z" />
<glyph unicode="&#x127;" horiz-adv-x="962" d="M0 1194v45h102v227h52v-227h520v-45h-520v-346q150 94 251 130t166 36q152 0 225.5 -80t73.5 -254v-680h-51v655q0 166 -61.5 238t-192.5 72q-41 0 -91 -14.5t-104.5 -39t-109.5 -55.5t-106 -63v-793h-52v1194h-102z" />
<glyph unicode="&#x128;" horiz-adv-x="405" d="M-80 1628q76 107 174 107q31 0 63.5 -13.5t65.5 -29t64.5 -27.5t56.5 -12q33 0 56.5 19.5t52.5 60.5l39 -23q-35 -61 -73 -84.5t-79 -23.5q-29 0 -60.5 12t-64.5 27.5t-64.5 27.5t-60.5 12q-41 0 -71.5 -21.5t-59.5 -55.5zM176 0v1411h53v-1411h-53z" />
<glyph unicode="&#x129;" horiz-adv-x="530" d="M-20 1280q76 106 174 106q31 0 63.5 -13t65 -28.5t64.5 -27.5t56 -12q33 0 56.5 19t52.5 60l39 -22q-35 -61 -73 -85t-79 -24q-29 0 -60.5 12.5t-64 28t-64.5 27.5t-60 12q-41 0 -72 -21.5t-60 -56.5zM233 0v1001h52v-1001h-52z" />
<glyph unicode="&#x12a;" horiz-adv-x="405" d="M-53 1565v49h508v-49h-508zM176 0v1411h53v-1411h-53z" />
<glyph unicode="&#x12b;" horiz-adv-x="466" d="M-20 1208v49h507v-49h-507zM209 0v1001h51v-1001h-51z" />
<glyph unicode="&#x12c;" horiz-adv-x="405" d="M-43 1698h43q12 -70 70.5 -115t130.5 -45q78 0 132 45t66 115h45q-6 -37 -23.5 -75t-48 -66.5t-73.5 -47t-98 -18.5t-98.5 18.5t-74 47t-48 66.5t-23.5 75zM176 0v1411h53v-1411h-53z" />
<glyph unicode="&#x12d;" horiz-adv-x="446" d="M-20 1370h45q16 -80 74 -120t124 -40q63 0 118.5 32t80.5 128h45q-6 -37 -23.5 -75t-48 -66.5t-73.5 -47t-99 -18.5q-55 0 -98 18.5t-74 47t-48 66.5t-23 75zM195 0v1001h51v-1001h-51z" />
<glyph unicode="&#x12e;" horiz-adv-x="405" d="M96 -190q0 39 20.5 91t67.5 99h-8v1411h53v-1411h-6q-39 -43 -56 -96.5t-17 -87.5q0 -61 33.5 -89t84.5 -28q27 0 56.5 7t62.5 24l19 -37q-25 -16 -64 -28.5t-82 -12.5q-78 0 -121 47t-43 111z" />
<glyph unicode="&#x12f;" horiz-adv-x="385" d="M84 -188q0 39 19.5 91t66.5 97h-4v1001h51v-1001h-8q-39 -43 -55.5 -95t-16.5 -87q0 -61 34 -89t85 -28q27 0 56.5 7t62.5 24l18 -37q-25 -16 -63.5 -28.5t-81.5 -12.5q-78 0 -121 47t-43 111zM145 1343q0 20 14.5 35t33.5 15q20 0 34.5 -15t14.5 -35t-14.5 -34.5 t-34.5 -14.5q-18 0 -33 14.5t-15 34.5z" />
<glyph unicode="&#x130;" horiz-adv-x="405" d="M158 1645q0 20 14 34.5t33 14.5q20 0 34.5 -14.5t14.5 -34.5t-14.5 -35t-34.5 -15q-18 0 -32.5 14.5t-14.5 35.5zM176 0v1411h53v-1411h-53z" />
<glyph unicode="&#x131;" horiz-adv-x="385" d="M166 0v1001h51v-1001h-51z" />
<glyph unicode="&#x132;" horiz-adv-x="1236" d="M123 0v1411h53v-1411h-53zM328 66l28 45q61 -35 126 -57.5t143 -22.5q90 0 167.5 26.5t135 81t90.5 137t33 195.5v942h53v-948q0 -102 -28.5 -189.5t-88 -152t-152 -101t-219.5 -36.5q-96 0 -165.5 24.5t-122.5 55.5z" />
<glyph unicode="&#x133;" horiz-adv-x="686" d="M145 1343q0 20 14.5 35t33.5 15q20 0 34.5 -15t14.5 -35t-14.5 -34.5t-34.5 -14.5q-18 0 -33 14.5t-15 34.5zM166 0v1001h51v-1001h-51zM264 -387h55q82 0 117 41t35 145v1202h51v-1214q0 -113 -45 -166t-147 -53h-66v45zM451 1343q0 20 14 35t33 15q20 0 34.5 -15 t14.5 -35t-14.5 -34.5t-34.5 -14.5q-18 0 -32.5 14.5t-14.5 34.5z" />
<glyph unicode="&#x134;" horiz-adv-x="1015" d="M63 68l29 45q61 -35 126 -57.5t142 -22.5q90 0 168 26.5t135.5 81t90 137t32.5 195.5v942h54v-948q0 -102 -29 -189.5t-88 -152t-151.5 -101t-219.5 -36.5q-96 0 -165.5 24.5t-123.5 55.5zM537 1516l249 204h60l241 -204l-24 -25l-250 168l-252 -170z" />
<glyph unicode="&#x135;" horiz-adv-x="509" d="M-20 1169l249 226h60l241 -226l-24 -24l-250 188l-252 -190zM20 -387h56q82 0 116.5 41t34.5 145v1202h52v-1214q0 -113 -45.5 -166t-147.5 -53h-66v45z" />
<glyph unicode="&#x136;" horiz-adv-x="1069" d="M113 0v1411h53v-942l756 942h65l-430 -537l502 -874h-62l-477 829l-354 -444v-385h-53zM463 -190q0 29 19.5 42t41.5 13q29 0 49.5 -19.5t20.5 -66.5t-29.5 -104.5t-77.5 -86.5l-16 23q35 27 51.5 68.5t16.5 76.5q-31 -4 -53.5 9.5t-22.5 44.5z" />
<glyph unicode="&#x137;" horiz-adv-x="864" d="M102 0v1466h52v-864h272q59 0 122.5 28.5t104.5 117.5l119 256h53l-116 -256q-27 -55 -62 -99.5t-102 -68.5q39 -2 66.5 -19.5t47 -44.5t34 -58.5t24.5 -62.5l139 -395h-53l-131 362q-23 61 -43.5 99.5t-46 59t-62.5 26.5t-90 6h-276v-553h-52zM367 -231q0 29 19.5 42 t41.5 13q29 0 49.5 -19.5t20.5 -66.5t-30 -104.5t-77 -86.5l-16 23q35 27 51 69t16 76q-31 -4 -53 9.5t-22 44.5z" />
<glyph unicode="&#x138;" horiz-adv-x="954" d="M150 0v1004h49v-457h319q57 0 109.5 30.5t87.5 120.5l119 306h49l-111 -283q-29 -72 -56.5 -124t-86.5 -69q37 -10 60.5 -27.5t39.5 -44t29.5 -58t25.5 -68.5l119 -330h-51l-119 336q-35 100 -82 132t-121 32h-331v-500h-49z" />
<glyph unicode="&#x139;" horiz-adv-x="993" d="M111 0v1411h53v-1364h827v-47h-880zM125 1509l264 207l49 -53l-291 -180z" />
<glyph unicode="&#x13a;" horiz-adv-x="485" d="M186 1550l265 207l49 -53l-291 -180zM197 205v1261h49v-1253q0 -45 4 -77t17.5 -52.5t40 -30.5t73.5 -10h31v-43q-12 -2 -24.5 -2h-22.5q-55 0 -89 14.5t-51.5 40t-22.5 64.5t-5 88z" />
<glyph unicode="&#x13b;" horiz-adv-x="993" d="M111 0v1411h53v-1364h827v-47h-880zM451 -231q0 29 19 42t42 13q29 0 49.5 -19.5t20.5 -66.5t-30 -104.5t-77 -86.5l-16 23q35 27 51 69t16 76q-31 -4 -53 9.5t-22 44.5z" />
<glyph unicode="&#x13c;" horiz-adv-x="485" d="M197 205v1261h49v-1253q0 -45 4 -77t17.5 -52.5t40 -30.5t73.5 -10h31v-43q-12 -2 -24.5 -2h-22.5q-55 0 -89 14.5t-51.5 40t-22.5 64.5t-5 88zM223 -231q0 29 19.5 42t42.5 13q29 0 49 -19.5t20 -66.5t-29.5 -104.5t-76.5 -86.5l-17 23q35 27 51.5 69t16.5 76 q-31 -4 -53.5 9.5t-22.5 44.5z" />
<glyph unicode="&#x13d;" horiz-adv-x="993" d="M111 0v1411h53v-1364h827v-47h-880zM500 1372q0 29 19.5 42t41.5 13q29 0 49.5 -19t20.5 -67q0 -47 -30 -104t-77 -86l-16 23q35 27 51 68.5t16 76.5q-31 -4 -53 9t-22 44z" />
<glyph unicode="&#x13e;" horiz-adv-x="501" d="M197 205v1261h49v-1253q0 -45 4 -77t17.5 -52.5t40 -30.5t73.5 -10h31v-43q-12 -2 -24.5 -2h-22.5q-55 0 -89 14.5t-51.5 40t-22.5 64.5t-5 88zM377 1419q0 29 19.5 42.5t41.5 13.5q29 0 49.5 -19.5t20.5 -66.5t-29.5 -104.5t-77.5 -86.5l-16 23q35 27 51.5 68.5 t16.5 76.5q-31 -4 -53.5 9.5t-22.5 43.5z" />
<glyph unicode="&#x13f;" horiz-adv-x="993" d="M111 0v1411h53v-1364h827v-47h-880zM520 711q0 20 14.5 34.5t32.5 14.5q20 0 34.5 -14.5t14.5 -34.5t-14 -34.5t-35 -14.5q-18 0 -32.5 14t-14.5 35z" />
<glyph unicode="&#x140;" horiz-adv-x="485" d="M197 205v1261h49v-1253q0 -45 4 -77t17.5 -52.5t40 -30.5t73.5 -10h31v-43q-12 -2 -24.5 -2h-22.5q-55 0 -89 14.5t-51.5 40t-22.5 64.5t-5 88zM393 766q0 20 14.5 34.5t32.5 14.5q20 0 34.5 -14.5t14.5 -34.5t-14 -34.5t-35 -14.5q-18 0 -32.5 14t-14.5 35z" />
<glyph unicode="&#x141;" horiz-adv-x="993" d="M-41 514l152 86v811h53v-780l328 190l24 -41l-352 -202v-531h827v-47h-880v547l-127 -74z" />
<glyph unicode="&#x142;" horiz-adv-x="485" d="M-6 627l203 116v723h49v-694l207 119l24 -41l-231 -133v-504q0 -45 4 -77t17.5 -52.5t40 -30.5t73.5 -10h31v-43q-12 -2 -24.5 -2h-22.5q-55 0 -89 14.5t-51.5 40t-22.5 64.5t-5 88v483l-179 -102z" />
<glyph unicode="&#x143;" horiz-adv-x="1222" d="M113 0v1411h59l885 -1335v1335h53v-1411h-66l-878 1331v-1331h-53zM535 1509l264 207l49 -53l-291 -180z" />
<glyph unicode="&#x144;" horiz-adv-x="966" d="M102 0v1001h37l15 -153q74 45 131 76.5t105 51t88 29t79 9.5q152 0 232.5 -80t80.5 -254v-680h-51v655q0 166 -68.5 238t-199.5 72q-80 0 -183.5 -49.5t-213.5 -127.5v-788h-52zM403 1182l168 291l66 -33l-203 -275z" />
<glyph unicode="&#x145;" horiz-adv-x="1222" d="M113 0v1411h59l885 -1335v1335h53v-1411h-66l-878 1331v-1331h-53zM535 -190q0 29 19 42t42 13q29 0 49.5 -19.5t20.5 -66.5t-30 -104.5t-77 -86.5l-16 23q35 27 51 68.5t16 76.5q-31 -4 -53 9.5t-22 44.5z" />
<glyph unicode="&#x146;" horiz-adv-x="966" d="M102 0v1001h37l15 -153q74 45 131 76.5t105 51t88 29t79 9.5q152 0 232.5 -80t80.5 -254v-680h-51v655q0 166 -68.5 238t-199.5 72q-80 0 -183.5 -49.5t-213.5 -127.5v-788h-52zM416 -231q0 29 19.5 42t41.5 13q29 0 49.5 -19.5t20.5 -66.5t-30 -104.5t-77 -86.5l-16 23 q35 27 51.5 69t16.5 76q-31 -4 -53.5 9.5t-22.5 44.5z" />
<glyph unicode="&#x147;" horiz-adv-x="1222" d="M113 0v1411h59l885 -1335v1335h53v-1411h-66l-878 1331v-1331h-53zM354 1692l25 26l252 -170l250 168l24 -24l-241 -205h-60z" />
<glyph unicode="&#x148;" horiz-adv-x="966" d="M102 0v1001h37l15 -153q74 45 131 76.5t105 51t88 29t79 9.5q152 0 232.5 -80t80.5 -254v-680h-51v655q0 166 -68.5 238t-199.5 72q-80 0 -183.5 -49.5t-213.5 -127.5v-788h-52zM172 1370l25 27l252 -191l249 189l25 -25l-242 -225h-59z" />
<glyph unicode="&#x149;" horiz-adv-x="1011" d="M-27 1257q0 29 19.5 42.5t42.5 13.5q29 0 49 -19.5t20 -66.5t-29.5 -104.5t-76.5 -86.5l-16 23q35 27 51 68.5t16 76.5q-31 -4 -53.5 9.5t-22.5 43.5zM147 0v1001h37l15 -153q74 45 131 76.5t105 51t88 29t79 9.5q152 0 232.5 -80t80.5 -254v-680h-51v655 q0 166 -68.5 238t-199.5 72q-80 0 -183.5 -49.5t-213.5 -127.5v-788h-52z" />
<glyph unicode="&#x14a;" horiz-adv-x="1222" d="M113 0v1411h59l885 -1335v1335h53v-1548q0 -109 -51 -155t-119 -46q-43 0 -79 11.5t-64 31.5l22 47q62 -37 115 -37q55 0 89 35t34 98v138l-891 1345v-1331h-53z" />
<glyph unicode="&#x14b;" horiz-adv-x="966" d="M102 0v1001h37l15 -153q74 45 131 76.5t105 51t88 29t79 9.5q152 0 232.5 -80t80.5 -254v-817q0 -109 -50 -155t-118 -46q-43 0 -78.5 11.5t-64.5 31.5l21 43q61 -37 116 -37t89 35t34 98v811q0 166 -68.5 238t-199.5 72q-80 0 -183.5 -49.5t-213.5 -127.5v-788h-52z" />
<glyph unicode="&#x14c;" horiz-adv-x="1175" d="M102 455v508q0 100 33 185t95.5 146.5t152.5 96t205 34.5q113 0 202 -34.5t152.5 -97t97 -147.5t33.5 -183v-517q0 -102 -32.5 -187t-96 -145.5t-153.5 -94t-203 -33.5q-115 0 -204 34.5t-152.5 97t-96.5 148.5t-33 189zM156 459q0 -113 38.5 -193t101 -132t139.5 -76.5 t153 -24.5q88 0 167 25.5t138 78.5t93 133t34 189v487q0 111 -36 192t-96.5 134t-138 78.5t-161.5 25.5q-90 0 -169 -25.5t-137.5 -78.5t-92 -134t-33.5 -192v-487zM338 1565v49h508v-49h-508z" />
<glyph unicode="&#x14d;" horiz-adv-x="954" d="M92 348v316q0 80 31 144t83 110.5t121.5 71t149.5 24.5t150.5 -24.5t123 -71t82 -111t29.5 -143.5v-312q0 -168 -100.5 -267t-286.5 -99q-88 0 -158.5 26.5t-121 74.5t-77 114.5t-26.5 146.5zM143 365q0 -90 28 -154t75 -103.5t107.5 -58t125.5 -18.5q70 0 131.5 19.5 t106.5 60.5t70.5 103t25.5 151v270q0 90 -29.5 153.5t-78 103.5t-107.5 57.5t-119 17.5q-61 0 -121.5 -17.5t-107.5 -57.5t-77 -103.5t-30 -153.5v-270zM233 1208v49h508v-49h-508z" />
<glyph unicode="&#x14e;" horiz-adv-x="1175" d="M102 455v508q0 100 33 185t95.5 146.5t152.5 96t205 34.5q113 0 202 -34.5t152.5 -97t97 -147.5t33.5 -183v-517q0 -102 -32.5 -187t-96 -145.5t-153.5 -94t-203 -33.5q-115 0 -204 34.5t-152.5 97t-96.5 148.5t-33 189zM156 459q0 -113 38.5 -193t101 -132t139.5 -76.5 t153 -24.5q88 0 167 25.5t138 78.5t93 133t34 189v487q0 111 -36 192t-96.5 134t-138 78.5t-161.5 25.5q-90 0 -169 -25.5t-137.5 -78.5t-92 -134t-33.5 -192v-487zM344 1700h43q12 -70 70.5 -115t130.5 -45q78 0 132 45t66 115h45q-6 -37 -23 -75t-48 -66.5t-74 -47 t-98 -18.5t-98.5 18.5t-74 47t-48 66.5t-23.5 75z" />
<glyph unicode="&#x14f;" horiz-adv-x="954" d="M92 348v316q0 80 31 144t83 110.5t121.5 71t149.5 24.5t150.5 -24.5t123 -71t82 -111t29.5 -143.5v-312q0 -168 -100.5 -267t-286.5 -99q-88 0 -158.5 26.5t-121 74.5t-77 114.5t-26.5 146.5zM143 365q0 -90 28 -154t75 -103.5t107.5 -58t125.5 -18.5q70 0 131.5 19.5 t106.5 60.5t70.5 103t25.5 151v270q0 90 -29.5 153.5t-78 103.5t-107.5 57.5t-119 17.5q-61 0 -121.5 -17.5t-107.5 -57.5t-77 -103.5t-30 -153.5v-270zM231 1358h45q16 -80 74.5 -120t124.5 -40q63 0 118.5 32t80.5 128h45q-6 -37 -23.5 -75t-48.5 -66.5t-74 -47t-98 -18.5 t-98 18.5t-74 47t-48 66.5t-24 75z" />
<glyph unicode="&#x150;" horiz-adv-x="1175" d="M102 455v508q0 100 33 185t95.5 146.5t152.5 96t205 34.5q113 0 202 -34.5t152.5 -97t97 -147.5t33.5 -183v-517q0 -102 -32.5 -187t-96 -145.5t-153.5 -94t-203 -33.5q-115 0 -204 34.5t-152.5 97t-96.5 148.5t-33 189zM156 459q0 -113 38.5 -193t101 -132t139.5 -76.5 t153 -24.5q88 0 167 25.5t138 78.5t93 133t34 189v487q0 111 -36 192t-96.5 134t-138 78.5t-161.5 25.5q-90 0 -169 -25.5t-137.5 -78.5t-92 -134t-33.5 -192v-487zM416 1509l264 207l49 -53l-291 -180zM621 1509l264 207l49 -53l-291 -180z" />
<glyph unicode="&#x151;" horiz-adv-x="954" d="M92 348v316q0 80 31 144t83 110.5t121.5 71t149.5 24.5t150.5 -24.5t123 -71t82 -111t29.5 -143.5v-312q0 -168 -100.5 -267t-286.5 -99q-88 0 -158.5 26.5t-121 74.5t-77 114.5t-26.5 146.5zM143 365q0 -90 28 -154t75 -103.5t107.5 -58t125.5 -18.5q70 0 131.5 19.5 t106.5 60.5t70.5 103t25.5 151v270q0 90 -29.5 153.5t-78 103.5t-107.5 57.5t-119 17.5q-61 0 -121.5 -17.5t-107.5 -57.5t-77 -103.5t-30 -153.5v-270zM344 1182l168 291l66 -33l-203 -275zM522 1182l168 291l66 -33l-203 -275z" />
<glyph unicode="&#x152;" horiz-adv-x="1677" d="M102 455v508q0 100 33 185t95.5 146.5t152.5 96t205 34.5q35 0 69.5 -4t67.5 -10h891v-51h-838v-615h721v-49h-721v-649h838v-47h-891q-33 -6 -66.5 -10t-70.5 -4q-115 0 -204 34.5t-152.5 97t-96.5 148.5t-33 189zM156 459q0 -113 38.5 -194t101 -133t139.5 -76.5 t153 -24.5q35 0 69.5 3t67.5 13v1311q-68 18 -137 18q-90 0 -169 -25.5t-137.5 -78.5t-92 -134t-33.5 -192v-487z" />
<glyph unicode="&#x153;" horiz-adv-x="1644" d="M92 348v316q0 80 31 144t83 110.5t121.5 71t149.5 24.5q127 0 223.5 -58.5t137.5 -162.5q41 102 135 161.5t223 59.5q80 0 147.5 -24.5t116.5 -71t76 -112t27 -144.5v-185h-701v-108q0 -96 29 -161t76 -105t107.5 -57t123.5 -17q100 0 168 31.5t115 78.5l32 -37 q-57 -55 -136 -85.5t-183 -30.5q-131 0 -224 54t-134 161q-39 -102 -129.5 -158.5t-231.5 -56.5q-88 0 -158.5 26.5t-121 74.5t-77 114.5t-26.5 146.5zM143 365q0 -90 28 -154t75 -103.5t107 -58t126 -18.5t126.5 19.5t106.5 56t72.5 91t26.5 126.5v331q0 80 -30.5 138.5 t-79 97.5t-106.5 57.5t-116 18.5q-61 0 -121.5 -17.5t-107.5 -57.5t-77 -103.5t-30 -153.5v-270zM862 524h649v109q0 92 -28.5 155.5t-73.5 103.5t-101.5 58.5t-111.5 18.5q-59 0 -119.5 -19.5t-107.5 -60.5t-77 -105.5t-30 -156.5v-103z" />
<glyph unicode="&#x154;" horiz-adv-x="1118" d="M115 0v1411h536q98 0 173 -35t124 -91t74 -127t25 -142q0 -59 -18.5 -119.5t-55.5 -113t-93.5 -91.5t-131.5 -55q68 -154 141.5 -318.5t138.5 -318.5h-59l-277 627h-524v-627h-53zM168 676h483q68 0 128.5 22.5t107.5 66.5t74.5 107.5t27.5 143.5t-27.5 143.5 t-74.5 107.5t-107.5 68.5t-128.5 24.5h-483v-684zM412 1509l264 207l49 -53l-291 -180z" />
<glyph unicode="&#x155;" horiz-adv-x="571" d="M141 0v1004h41l15 -152q33 29 75.5 55.5t92 49t101.5 38t101 19.5v-68q-70 -6 -127 -24.5t-103 -40t-81 -45t-61 -39.5v-797h-54zM246 1182l168 291l65 -33l-203 -275z" />
<glyph unicode="&#x156;" horiz-adv-x="1118" d="M115 0v1411h536q98 0 173 -35t124 -91t74 -127t25 -142q0 -59 -18.5 -119.5t-55.5 -113t-93.5 -91.5t-131.5 -55q68 -154 141.5 -318.5t138.5 -318.5h-59l-277 627h-524v-627h-53zM168 676h483q68 0 128.5 22.5t107.5 66.5t74.5 107.5t27.5 143.5t-27.5 143.5 t-74.5 107.5t-107.5 68.5t-128.5 24.5h-483v-684zM455 -190q0 29 19.5 42t41.5 13q29 0 49.5 -19.5t20.5 -66.5t-30 -104.5t-77 -86.5l-16 23q35 27 51 68.5t16 76.5q-31 -4 -53 9.5t-22 44.5z" />
<glyph unicode="&#x157;" horiz-adv-x="571" d="M98 -231q0 29 19.5 42t42.5 13q29 0 49 -19.5t20 -66.5t-29.5 -104.5t-76.5 -86.5l-17 23q35 27 51.5 69t16.5 76q-31 -4 -53.5 9.5t-22.5 44.5zM141 0v1004h41l15 -152q33 29 75.5 55.5t92 49t101.5 38t101 19.5v-68q-70 -6 -127 -24.5t-103 -40t-81 -45t-61 -39.5v-797 h-54z" />
<glyph unicode="&#x158;" horiz-adv-x="1118" d="M115 0v1411h536q98 0 173 -35t124 -91t74 -127t25 -142q0 -59 -18.5 -119.5t-55.5 -113t-93.5 -91.5t-131.5 -55q68 -154 141.5 -318.5t138.5 -318.5h-59l-277 627h-524v-627h-53zM168 676h483q68 0 128.5 22.5t107.5 66.5t74.5 107.5t27.5 143.5t-27.5 143.5 t-74.5 107.5t-107.5 68.5t-128.5 24.5h-483v-684zM238 1692l24 26l252 -170l250 168l24 -24l-241 -205h-60z" />
<glyph unicode="&#x159;" horiz-adv-x="571" d="M14 1370l25 27l252 -191l250 189l24 -25l-241 -225h-60zM141 0v1004h41l15 -152q33 29 75.5 55.5t92 49t101.5 38t101 19.5v-68q-70 -6 -127 -24.5t-103 -40t-81 -45t-61 -39.5v-797h-54z" />
<glyph unicode="&#x15a;" horiz-adv-x="1077" d="M66 111l28 47q96 -53 208 -87t233 -34q86 0 161.5 20.5t133 61.5t91 101.5t33.5 139.5q0 88 -34.5 145.5t-91 94.5t-130 57.5t-151.5 34.5q-82 14 -164 38t-147.5 66t-106.5 106.5t-41 160.5q0 82 31 148.5t88 113.5t138 73.5t183 26.5q106 0 207 -19.5t189 -62.5 l-25 -49q-86 43 -183.5 62.5t-199.5 19.5q-70 0 -136.5 -17.5t-118.5 -56t-84 -98t-32 -145.5q0 -80 36 -134.5t94.5 -89t133 -56t152.5 -36.5q100 -18 184 -45.5t142.5 -71.5t91.5 -108.5t33 -157.5q0 -86 -34 -154.5t-97.5 -117.5t-151.5 -74.5t-197 -25.5 q-135 0 -249.5 32.5t-216.5 90.5zM432 1509l264 207l49 -53l-290 -180z" />
<glyph unicode="&#x15b;" horiz-adv-x="882" d="M88 84l29 41q74 -49 157 -73.5t185 -24.5q49 0 102 11t97 37.5t73 72t29 114.5q0 63 -29 103.5t-73 65t-99 36.5t-106 20q-59 8 -122 22.5t-116 42.5t-87 73t-34 116q0 57 21.5 107.5t64.5 87.5t105.5 58.5t144.5 21.5q100 0 179 -17.5t143 -58.5l-27 -39 q-63 35 -133 53.5t-154 18.5q-133 0 -213 -61.5t-80 -172.5q0 -51 25 -84.5t68 -57.5t104 -38t135 -27q59 -10 118.5 -24t108 -44t78 -79t29.5 -125q0 -57 -22.5 -107.5t-66.5 -87t-109.5 -58t-151.5 -21.5q-96 0 -191.5 19.5t-181.5 78.5zM414 1182l168 291l65 -33 l-203 -275z" />
<glyph unicode="&#x15c;" horiz-adv-x="1077" d="M66 111l28 47q96 -53 208 -87t233 -34q86 0 161.5 20.5t133 61.5t91 101.5t33.5 139.5q0 88 -34.5 145.5t-91 94.5t-130 57.5t-151.5 34.5q-82 14 -164 38t-147.5 66t-106.5 106.5t-41 160.5q0 82 31 148.5t88 113.5t138 73.5t183 26.5q106 0 207 -19.5t189 -62.5 l-25 -49q-86 43 -183.5 62.5t-199.5 19.5q-70 0 -136.5 -17.5t-118.5 -56t-84 -98t-32 -145.5q0 -80 36 -134.5t94.5 -89t133 -56t152.5 -36.5q100 -18 184 -45.5t142.5 -71.5t91.5 -108.5t33 -157.5q0 -86 -34 -154.5t-97.5 -117.5t-151.5 -74.5t-197 -25.5 q-135 0 -249.5 32.5t-216.5 90.5zM246 1511l250 205h59l242 -205l-25 -24l-250 168l-252 -170z" />
<glyph unicode="&#x15d;" horiz-adv-x="882" d="M88 84l29 41q74 -49 157 -73.5t185 -24.5q49 0 102 11t97 37.5t73 72t29 114.5q0 63 -29 103.5t-73 65t-99 36.5t-106 20q-59 8 -122 22.5t-116 42.5t-87 73t-34 116q0 57 21.5 107.5t64.5 87.5t105.5 58.5t144.5 21.5q100 0 179 -17.5t143 -58.5l-27 -39 q-63 35 -133 53.5t-154 18.5q-133 0 -213 -61.5t-80 -172.5q0 -51 25 -84.5t68 -57.5t104 -38t135 -27q59 -10 118.5 -24t108 -44t78 -79t29.5 -125q0 -57 -22.5 -107.5t-66.5 -87t-109.5 -58t-151.5 -21.5q-96 0 -191.5 19.5t-181.5 78.5zM154 1169l249 226h60l242 -226 l-25 -24l-250 188l-252 -190z" />
<glyph unicode="&#x15e;" horiz-adv-x="1077" d="M66 111l28 47q96 -53 208 -87t233 -34q86 0 161.5 20.5t133 61.5t91 101.5t33.5 139.5q0 88 -34.5 145.5t-91 94.5t-130 57.5t-151.5 34.5q-82 14 -164 38t-147.5 66t-106.5 106.5t-41 160.5q0 82 31 148.5t88 113.5t138 73.5t183 26.5q106 0 207 -19.5t189 -62.5 l-25 -49q-86 43 -183.5 62.5t-199.5 19.5q-70 0 -136.5 -17.5t-118.5 -56t-84 -98t-32 -145.5q0 -80 36 -134.5t94.5 -89t133 -56t152.5 -36.5q100 -18 184 -45.5t142.5 -71.5t91.5 -109t33 -157q0 -84 -33 -152.5t-94.5 -116.5t-146.5 -74.5t-189 -28.5l-27 -82 q59 -6 96 -22.5t56.5 -38t27 -45t7.5 -44.5q0 -20 -9.5 -44.5t-31 -45t-55 -34t-81.5 -13.5q-16 0 -55 3t-88 20l14 39q35 -10 69 -15.5t60 -5.5q12 0 33 4t41.5 15.5t34.5 31t14 49.5q0 53 -53 80t-123 27l-10 8l37 113q-127 4 -235.5 36.5t-204.5 86.5z" />
<glyph unicode="&#x15f;" horiz-adv-x="882" d="M88 84l29 41q74 -49 157 -73.5t185 -24.5q49 0 102 11t97 37.5t73 72t29 114.5q0 63 -29 103.5t-73 65t-99 36.5t-106 20q-59 8 -122 22.5t-116 42.5t-87 73t-34 116q0 57 21.5 107.5t64.5 87.5t105.5 58.5t144.5 21.5q100 0 179 -17.5t143 -58.5l-27 -39 q-63 35 -133 53.5t-154 18.5q-133 0 -213 -61.5t-80 -172.5q0 -51 25 -84.5t68 -57.5t104 -38t135 -27q59 -10 118.5 -24t108 -44t78 -79t29.5 -125q0 -113 -86 -192.5t-258 -81.5l-27 -80q59 -6 96 -22.5t56.5 -38t27 -45t7.5 -44.5q0 -20 -9.5 -44.5t-31 -45t-55 -34 t-80.5 -13.5q-16 0 -55.5 3t-88.5 20l15 39q35 -10 68.5 -15.5t60.5 -5.5q12 0 32.5 4t41 15.5t34.5 31t14 49.5q0 53 -53 80t-123 27l-10 8l35 111q-86 4 -171 24.5t-163 73.5z" />
<glyph unicode="&#x160;" horiz-adv-x="1077" d="M66 111l28 47q96 -53 208 -87t233 -34q86 0 161.5 20.5t133 61.5t91 101.5t33.5 139.5q0 88 -34.5 145.5t-91 94.5t-130 57.5t-151.5 34.5q-82 14 -164 38t-147.5 66t-106.5 106.5t-41 160.5q0 82 31 148.5t88 113.5t138 73.5t183 26.5q106 0 207 -19.5t189 -62.5 l-25 -49q-86 43 -183.5 62.5t-199.5 19.5q-70 0 -136.5 -17.5t-118.5 -56t-84 -98t-32 -145.5q0 -80 36 -134.5t94.5 -89t133 -56t152.5 -36.5q100 -18 184 -45.5t142.5 -71.5t91.5 -108.5t33 -157.5q0 -86 -34 -154.5t-97.5 -117.5t-151.5 -74.5t-197 -25.5 q-135 0 -249.5 32.5t-216.5 90.5zM262 1692l25 26l252 -170l249 168l25 -24l-242 -205h-59z" />
<glyph unicode="&#x161;" horiz-adv-x="882" d="M88 84l29 41q74 -49 157 -73.5t185 -24.5q49 0 102 11t97 37.5t73 72t29 114.5q0 63 -29 103.5t-73 65t-99 36.5t-106 20q-59 8 -122 22.5t-116 42.5t-87 73t-34 116q0 57 21.5 107.5t64.5 87.5t105.5 58.5t144.5 21.5q100 0 179 -17.5t143 -58.5l-27 -39 q-63 35 -133 53.5t-154 18.5q-133 0 -213 -61.5t-80 -172.5q0 -51 25 -84.5t68 -57.5t104 -38t135 -27q59 -10 118.5 -24t108 -44t78 -79t29.5 -125q0 -57 -22.5 -107.5t-66.5 -87t-109.5 -58t-151.5 -21.5q-96 0 -191.5 19.5t-181.5 78.5zM174 1370l25 27l252 -191l249 189 l25 -25l-242 -225h-59z" />
<glyph unicode="&#x162;" horiz-adv-x="1042" d="M37 1360v51h967v-51h-455v-1360h-53v1360h-459zM457 -231q0 29 19.5 42t41.5 13q29 0 49.5 -19.5t20.5 -66.5t-30 -104.5t-77 -86.5l-16 23q35 27 51 69t16 76q-31 -4 -53 9.5t-22 44.5z" />
<glyph unicode="&#x163;" horiz-adv-x="653" d="M63 954v50h160l19 239h32v-239h308v-50h-308v-671q0 -131 43 -188.5t160 -57.5q23 0 56.5 2t70.5 10l10 -45q-41 -10 -81.5 -12t-63.5 -2q-141 0 -193.5 66.5t-52.5 211.5v686h-160zM248 -231q0 29 19.5 42t41.5 13q29 0 49.5 -19.5t20.5 -66.5t-30 -104.5t-77 -86.5 l-16 23q35 27 51.5 69t16.5 76q-31 -4 -53.5 9.5t-22.5 44.5z" />
<glyph unicode="&#x164;" horiz-adv-x="1042" d="M37 1360v51h967v-51h-455v-1360h-53v1360h-459zM250 1692l24 26l252 -170l250 168l25 -24l-242 -205h-59z" />
<glyph unicode="&#x165;" horiz-adv-x="653" d="M63 954v50h160l19 239h32v-239h308v-50h-308v-671q0 -131 43 -188.5t160 -57.5q23 0 56.5 2t70.5 10l10 -45q-41 -10 -81.5 -12t-63.5 -2q-141 0 -193.5 66.5t-52.5 211.5v686h-160zM420 1346q0 29 19.5 42t41.5 13q29 0 49.5 -19.5t20.5 -66.5t-29.5 -104.5t-77.5 -86.5 l-16 23q35 27 51.5 68.5t16.5 76.5q-31 -4 -53.5 9.5t-22.5 44.5z" />
<glyph unicode="&#x166;" horiz-adv-x="1042" d="M37 1360v51h967v-51h-455v-572h325v-45h-325v-743h-53v743h-326v45h326v572h-459z" />
<glyph unicode="&#x167;" horiz-adv-x="653" d="M63 559v45h160v350h-160v50h160l19 239h32v-239h308v-50h-308v-350h308v-45h-308v-276q0 -131 43 -188.5t160 -57.5q23 0 56.5 2t70.5 10l10 -45q-41 -10 -81.5 -12t-63.5 -2q-141 0 -193.5 66.5t-52.5 211.5v291h-160z" />
<glyph unicode="&#x168;" horiz-adv-x="1187" d="M106 453v958h56v-950q0 -113 37 -193t97 -132t138 -76.5t160 -24.5q86 0 164 24.5t137 76.5t95 132t36 193v950h55v-962q0 -102 -34.5 -187.5t-98 -147t-153.5 -95t-201 -33.5t-201 34.5t-153.5 96t-98.5 147.5t-35 189zM315 1628q76 107 174 107q31 0 64 -13.5t65.5 -29 t64.5 -27.5t56 -12q33 0 56.5 19.5t52.5 60.5l39 -23q-35 -61 -73 -84.5t-79 -23.5q-29 0 -60.5 12t-64 27.5t-64.5 27.5t-61 12q-41 0 -71.5 -21.5t-59.5 -55.5z" />
<glyph unicode="&#x169;" horiz-adv-x="966" d="M96 322v679h51v-655q0 -166 69 -237.5t200 -71.5q80 0 183 49t214 127v788h51v-1001h-37l-14 154q-74 -45 -132 -77t-105.5 -51.5t-87 -28.5t-78.5 -9q-152 0 -233 79.5t-81 254.5zM207 1280q76 106 174 106q31 0 63.5 -13t65.5 -28.5t64.5 -27.5t56.5 -12q33 0 56.5 19 t51.5 60l39 -22q-35 -61 -72.5 -85t-78.5 -24q-29 0 -60.5 12.5t-64.5 28t-64.5 27.5t-60.5 12q-41 0 -72 -21.5t-59 -56.5z" />
<glyph unicode="&#x16a;" horiz-adv-x="1187" d="M106 453v958h56v-950q0 -113 37 -193t97 -132t138 -76.5t160 -24.5q86 0 164 24.5t137 76.5t95 132t36 193v950h55v-962q0 -102 -34.5 -187.5t-98 -147t-153.5 -95t-201 -33.5t-201 34.5t-153.5 96t-98.5 147.5t-35 189zM338 1565v49h508v-49h-508z" />
<glyph unicode="&#x16b;" horiz-adv-x="966" d="M96 322v679h51v-655q0 -166 69 -237.5t200 -71.5q80 0 183 49t214 127v788h51v-1001h-37l-14 154q-74 -45 -132 -77t-105.5 -51.5t-87 -28.5t-78.5 -9q-152 0 -233 79.5t-81 254.5zM231 1208v49h508v-49h-508z" />
<glyph unicode="&#x16c;" horiz-adv-x="1187" d="M106 453v958h56v-950q0 -113 37 -193t97 -132t138 -76.5t160 -24.5q86 0 164 24.5t137 76.5t95 132t36 193v950h55v-962q0 -102 -34.5 -187.5t-98 -147t-153.5 -95t-201 -33.5t-201 34.5t-153.5 96t-98.5 147.5t-35 189zM365 1665h45q16 -80 74 -120t124 -40 q63 0 118.5 32t80.5 128h45q-6 -37 -23.5 -75t-48 -66.5t-73.5 -47t-99 -18.5q-55 0 -98 18.5t-73.5 47t-48 66.5t-23.5 75z" />
<glyph unicode="&#x16d;" horiz-adv-x="966" d="M96 322v679h51v-655q0 -166 69 -237.5t200 -71.5q80 0 183 49t214 127v788h51v-1001h-37l-14 154q-74 -45 -132 -77t-105.5 -51.5t-87 -28.5t-78.5 -9q-152 0 -233 79.5t-81 254.5zM254 1358h45q16 -80 74.5 -120t124.5 -40q63 0 118.5 32t79.5 128h45q-6 -37 -23.5 -75 t-48 -66.5t-73.5 -47t-98 -18.5t-98.5 18.5t-74 47t-48 66.5t-23.5 75z" />
<glyph unicode="&#x16e;" horiz-adv-x="1187" d="M106 453v958h56v-950q0 -113 37 -193t97 -132t138 -76.5t160 -24.5q86 0 164 24.5t137 76.5t95 132t36 193v950h55v-962q0 -102 -34.5 -187.5t-98 -147t-153.5 -95t-201 -33.5t-201 34.5t-153.5 96t-98.5 147.5t-35 189zM432 1649q0 74 52.5 124t123.5 50q74 0 126 -50.5 t52 -123.5q0 -37 -14 -69t-37.5 -55.5t-56.5 -37.5t-70 -14t-68.5 14t-55 37.5t-38 55.5t-14.5 69zM473 1649q0 -57 39 -97.5t96 -40.5q59 0 98 40t39 98q0 57 -39 97t-98 40q-57 0 -96 -40t-39 -97z" />
<glyph unicode="&#x16f;" horiz-adv-x="966" d="M96 322v679h51v-655q0 -166 69 -237.5t200 -71.5q80 0 183 49t214 127v788h51v-1001h-37l-14 154q-74 -45 -132 -77t-105.5 -51.5t-87 -28.5t-78.5 -9q-152 0 -233 79.5t-81 254.5zM313 1317q0 74 52.5 124t123.5 50q74 0 126.5 -50t52.5 -124q0 -37 -14.5 -68.5 t-38 -55.5t-56.5 -38t-70 -14t-68.5 14t-55 38t-38 55.5t-14.5 68.5zM354 1317q0 -57 39 -97t96 -40q59 0 98.5 40t39.5 97t-39.5 97t-98.5 40q-57 0 -96 -40t-39 -97z" />
<glyph unicode="&#x170;" horiz-adv-x="1187" d="M106 453v958h56v-950q0 -113 37 -193t97 -132t138 -76.5t160 -24.5q86 0 164 24.5t137 76.5t95 132t36 193v950h55v-962q0 -102 -34.5 -187.5t-98 -147t-153.5 -95t-201 -33.5t-201 34.5t-153.5 96t-98.5 147.5t-35 189zM414 1509l264 207l49 -53l-291 -180zM618 1509 l265 207l49 -53l-291 -180z" />
<glyph unicode="&#x171;" horiz-adv-x="966" d="M96 322v679h51v-655q0 -166 69 -237.5t200 -71.5q80 0 183 49t214 127v788h51v-1001h-37l-14 154q-74 -45 -132 -77t-105.5 -51.5t-87 -28.5t-78.5 -9q-152 0 -233 79.5t-81 254.5zM365 1182l167 291l66 -33l-203 -275zM543 1182l168 291l65 -33l-203 -275z" />
<glyph unicode="&#x172;" horiz-adv-x="1187" d="M106 453v958h56v-950q0 -113 37 -193t97 -132t138 -76.5t160 -24.5q86 0 164 24.5t137 76.5t95 132t36 193v950h55v-962q0 -98 -31.5 -181.5t-91 -144t-143.5 -96t-188 -39.5q-31 -41 -45.5 -88t-14.5 -80q0 -61 34 -89t85 -28q27 0 56.5 7t62.5 24l18 -37 q-25 -16 -63.5 -28.5t-81.5 -12.5q-78 0 -121 47.5t-43 110.5q0 35 15.5 82t54.5 90q-109 2 -197 36.5t-150.5 96t-96.5 146.5t-34 188z" />
<glyph unicode="&#x173;" horiz-adv-x="966" d="M96 322v679h51v-655q0 -166 69 -237.5t200 -71.5q80 0 183 49t214 127v788h51v-1001q-39 -43 -56 -96.5t-17 -87.5q0 -61 33.5 -89t84.5 -28q27 0 56.5 7t62.5 24l19 -37q-25 -16 -64 -28.5t-82 -12.5q-78 0 -121 47.5t-43 110.5q0 39 20.5 92t69.5 100l-14 152 q-74 -45 -132 -77t-105.5 -51.5t-87 -28.5t-78.5 -9q-152 0 -233 79.5t-81 254.5z" />
<glyph unicode="&#x174;" horiz-adv-x="1691" d="M23 1411h57l358 -1360l367 1360h57l367 -1356l358 1356h55l-378 -1411h-74l-356 1323l-357 -1323h-74zM561 1511l250 205h59l242 -205l-25 -24l-249 168l-252 -170z" />
<glyph unicode="&#x175;" horiz-adv-x="1341" d="M8 1004h55l287 -943l291 854h59l291 -854l287 943h55l-307 -1004h-63l-293 840l-291 -840h-64zM393 1169l250 226h59l242 -226l-24 -24l-250 188l-252 -190z" />
<glyph unicode="&#x176;" horiz-adv-x="956" d="M27 1411h59l393 -819l389 819h58l-420 -879v-532h-53v528zM207 1511l250 205h59l242 -205l-25 -24l-250 168l-252 -170z" />
<glyph unicode="&#x177;" horiz-adv-x="837" d="M12 999h51l345 -958l356 958h49l-518 -1405h-53l145 406l-41 51zM141 1169l250 226h60l241 -226l-24 -24l-250 188l-252 -190z" />
<glyph unicode="&#x178;" horiz-adv-x="956" d="M27 1411h59l393 -819l389 819h58l-420 -879v-532h-53v528zM274 1581q0 20 14.5 34.5t33.5 14.5q20 0 34.5 -14.5t14.5 -34.5t-14.5 -34.5t-34.5 -14.5q-18 0 -33 14.5t-15 34.5zM592 1581q0 20 14.5 34.5t32.5 14.5q20 0 34.5 -14.5t14.5 -34.5t-14.5 -34.5t-34.5 -14.5 q-18 0 -32.5 14.5t-14.5 34.5z" />
<glyph unicode="&#x179;" horiz-adv-x="1050" d="M86 0v47l819 1313h-786v51h850v-51l-815 -1313h813v-47h-881zM434 1509l264 207l50 -53l-291 -180z" />
<glyph unicode="&#x17a;" horiz-adv-x="829" d="M51 0v45l643 913h-610v43h664v-43l-639 -913h639v-45h-697zM369 1182l168 291l65 -33l-203 -275z" />
<glyph unicode="&#x17b;" horiz-adv-x="1050" d="M86 0v47l819 1313h-786v51h850v-51l-815 -1313h813v-47h-881zM508 1645q0 20 14.5 34.5t32.5 14.5q20 0 34.5 -14.5t14.5 -34.5t-14.5 -35t-34.5 -15q-18 0 -32.5 14.5t-14.5 35.5z" />
<glyph unicode="&#x17c;" horiz-adv-x="829" d="M51 0v45l643 913h-610v43h664v-43l-639 -913h639v-45h-697zM362 1296q0 20 14.5 35t33.5 15q20 0 34.5 -15t14.5 -35t-14.5 -34.5t-34.5 -14.5q-18 0 -33 14.5t-15 34.5z" />
<glyph unicode="&#x17d;" horiz-adv-x="1050" d="M86 0v47l819 1313h-786v51h850v-51l-815 -1313h813v-47h-881zM254 1692l25 26l251 -170l250 168l25 -24l-242 -205h-59z" />
<glyph unicode="&#x17e;" horiz-adv-x="829" d="M51 0v45l643 913h-610v43h664v-43l-639 -913h639v-45h-697zM139 1370l25 27l252 -191l250 189l24 -25l-241 -225h-60z" />
<glyph unicode="&#x192;" horiz-adv-x="921" d="M-35 -176l2 8q2 4 5 14.5t10 26.5q29 -8 61.5 -13t62.5 -5q51 0 94.5 14t76 51t56 97.5t36.5 152.5l86 604h-193v47h199l39 275q23 162 94.5 252t214.5 90q70 0 141 -19q0 -4 -2 -10t-6 -14.5t-8 -24.5q-68 20 -125 21q-45 0 -87 -14.5t-77 -49.5t-59.5 -93t-36.5 -147 l-37 -266h231v-47h-237l-82 -598q-25 -174 -96.5 -272.5t-221.5 -98.5q-33 0 -69.5 4.5t-71.5 14.5z" />
<glyph unicode="&#x1a0;" horiz-adv-x="1175" d="M102 455v508q0 100 33 185t95.5 146.5t152.5 96t205 34.5q104 0 187 -29.5t147 -82.5h22q72 0 116 52t44 151v57h49v-53q0 -43 -8 -85t-29.5 -78t-57.5 -59.5t-91 -29.5q51 -59 78.5 -137t27.5 -168v-517q0 -102 -32.5 -187t-96 -145.5t-153.5 -94t-203 -33.5 q-115 0 -204 34.5t-152.5 97t-96.5 148.5t-33 189zM156 459q0 -113 38.5 -193t101 -132t139.5 -76.5t153 -24.5q88 0 167 25.5t138 78.5t93 133t34 189v487q0 111 -36 192t-96.5 134t-138 78.5t-161.5 25.5q-90 0 -169 -25.5t-137.5 -78.5t-92 -134t-33.5 -192v-487z" />
<glyph unicode="&#x1a1;" horiz-adv-x="1005" d="M92 348v316q0 80 31 144t83 110.5t121.5 71t149.5 24.5q92 0 169 -32t130 -91h15q72 0 115.5 52t43.5 151v57h49v-53q0 -43 -9 -85t-30.5 -78t-57.5 -59.5t-91 -29.5q51 -80 51 -182v-312q0 -168 -100.5 -267t-286.5 -99q-88 0 -158.5 26.5t-121 74.5t-77 114.5 t-26.5 146.5zM143 365q0 -90 28 -154t75 -103.5t107.5 -58t125.5 -18.5q70 0 131.5 19.5t106.5 60.5t70.5 103t25.5 151v270q0 90 -29.5 153.5t-78 103.5t-107.5 57.5t-119 17.5q-61 0 -121.5 -17.5t-107.5 -57.5t-77 -103.5t-30 -153.5v-270z" />
<glyph unicode="&#x1af;" horiz-adv-x="1294" d="M106 453v958h56v-950q0 -113 37 -193t97 -132t138 -76.5t160 -24.5q86 0 164 24.5t137 76.5t95 132t36 193v950h55v-98q70 2 113 53t43 150v57h49v-53q0 -45 -9 -89.5t-32.5 -80t-63.5 -59t-100 -25.5v-817q0 -102 -34.5 -187.5t-98 -147t-153.5 -95t-201 -33.5 t-201 34.5t-153.5 96t-98.5 147.5t-35 189z" />
<glyph unicode="&#x1b0;" horiz-adv-x="1083" d="M96 322v679h51v-655q0 -166 69 -237.5t200 -71.5q80 0 183 49t214 127v788h51v-110q70 2 113 53t43 150v57h49v-53q0 -45 -9 -89t-32.5 -80t-63.5 -59.5t-100 -25.5v-844h-37l-14 154q-74 -45 -132 -77t-105.5 -51.5t-87 -28.5t-78.5 -9q-152 0 -233 79.5t-81 254.5z" />
<glyph unicode="&#x1fc;" horiz-adv-x="1826" d="M2 0l889 1411h919v-51h-837v-615h721v-49h-721v-649h837v-47h-890v356h-629l-225 -356h-64zM324 408h596v948zM1219 1509l264 207l49 -53l-291 -180z" />
<glyph unicode="&#x1fd;" horiz-adv-x="1636" d="M61 262q0 78 30 128t76 80t104.5 42t113.5 12h395v133q0 170 -82 240t-227 70q-84 0 -158.5 -22.5t-152.5 -72.5l-31 43q78 47 159 73t185 26q152 0 231.5 -56.5t108.5 -148.5q45 96 137 150.5t215 54.5q80 0 147.5 -24.5t117 -71t76 -112t26.5 -144.5v-185h-701v-127 q0 -90 29 -151.5t77 -99.5t108.5 -54t121.5 -16q100 0 168 31.5t115 78.5l33 -37q-57 -55 -136 -85.5t-184 -30.5q-113 0 -199.5 43t-144.5 137q-94 -61 -164.5 -97t-124 -54.5t-91.5 -23.5t-66 -5q-137 0 -224.5 68.5t-87.5 207.5zM115 262q0 -61 21.5 -104t56 -71t82 -41 t100.5 -13q47 0 102 15t112.5 40t113 55.5t100.5 59.5q-10 27 -16.5 67.5t-6.5 83.5v123h-362q-43 0 -96.5 -4t-99.5 -24.5t-76.5 -63.5t-30.5 -123zM827 1182l168 291l66 -33l-203 -275zM831 524h650v109q0 92 -29 155.5t-74 103.5t-101.5 58.5t-111.5 18.5 q-59 0 -119.5 -19.5t-107.5 -60.5t-77 -105.5t-30 -156.5v-103z" />
<glyph unicode="&#x1fe;" horiz-adv-x="1175" d="M100 8l97 148q-94 119 -95 299v508q0 100 33 185t95.5 146.5t152.5 96t205 34.5t205 -35.5t153 -101.5l90 137l39 -24l-98 -148q47 -59 71.5 -131.5t24.5 -158.5v-517q0 -102 -32.5 -187t-96 -145.5t-153.5 -94t-203 -33.5q-117 0 -206 34.5t-153 98.5l-90 -137zM156 459 q0 -80 19.5 -143.5t53.5 -110.5l686 1038q-61 68 -146 100.5t-181 32.5q-90 0 -169 -25.5t-137.5 -78.5t-92 -134t-33.5 -192v-487zM260 166q66 -70 153 -101.5t175 -31.5t167 25.5t138 78.5t93 133t34 189v487q0 80 -19.5 144.5t-54.5 113.5zM473 1509l264 207l49 -53 l-290 -180z" />
<glyph unicode="&#x1ff;" horiz-adv-x="954" d="M92 348v316q0 80 31 144t83 110.5t121.5 71t149.5 24.5q84 0 154.5 -26.5t124.5 -76.5l73 101l33 -27l-78 -104q37 -43 57.5 -97.5t20.5 -119.5v-312q0 -168 -100.5 -267t-286.5 -99q-172 0 -274 96l-72 -96l-35 26l76 103q-78 94 -78 233zM143 365q0 -129 58 -209 l526 716q-49 49 -115.5 72t-132.5 23q-61 0 -121.5 -17.5t-107.5 -57.5t-77 -103.5t-30 -153.5v-270zM229 123q47 -49 113 -70.5t137 -21.5q70 0 131.5 19.5t106.5 60.5t70.5 103t25.5 151v270q0 66 -15.5 116t-43.5 87zM434 1182l168 291l66 -33l-203 -275z" />
<glyph unicode="&#x218;" horiz-adv-x="1077" d="M66 111l28 47q96 -53 208 -87t233 -34q86 0 161.5 20.5t133 61.5t91 101.5t33.5 139.5q0 88 -34.5 145.5t-91 94.5t-130 57.5t-151.5 34.5q-82 14 -164 38t-147.5 66t-106.5 106.5t-41 160.5q0 82 31 148.5t88 113.5t138 73.5t183 26.5q106 0 207 -19.5t189 -62.5 l-25 -49q-86 43 -183.5 62.5t-199.5 19.5q-70 0 -136.5 -17.5t-118.5 -56t-84 -98t-32 -145.5q0 -80 36 -134.5t94.5 -89t133 -56t152.5 -36.5q100 -18 184 -45.5t142.5 -71.5t91.5 -108.5t33 -157.5q0 -86 -34 -154.5t-97.5 -117.5t-151.5 -74.5t-197 -25.5 q-135 0 -249.5 32.5t-216.5 90.5zM467 -231q0 29 19.5 42t41.5 13q29 0 49.5 -19.5t20.5 -66.5t-29.5 -104.5t-76.5 -86.5l-17 23q35 27 51.5 69t16.5 76q-31 -4 -53.5 9.5t-22.5 44.5z" />
<glyph unicode="&#x219;" horiz-adv-x="882" d="M88 84l29 41q74 -49 157 -73.5t185 -24.5q49 0 102 11t97 37.5t73 72t29 114.5q0 63 -29 103.5t-73 65t-99 36.5t-106 20q-59 8 -122 22.5t-116 42.5t-87 73t-34 116q0 57 21.5 107.5t64.5 87.5t105.5 58.5t144.5 21.5q100 0 179 -17.5t143 -58.5l-27 -39 q-63 35 -133 53.5t-154 18.5q-133 0 -213 -61.5t-80 -172.5q0 -51 25 -84.5t68 -57.5t104 -38t135 -27q59 -10 118.5 -24t108 -44t78 -79t29.5 -125q0 -57 -22.5 -107.5t-66.5 -87t-109.5 -58t-151.5 -21.5q-96 0 -191.5 19.5t-181.5 78.5zM371 -231q0 29 19.5 42t41.5 13 q29 0 49.5 -19.5t20.5 -66.5t-30 -104.5t-77 -86.5l-16 23q35 27 51 69t16 76q-31 -4 -53 9.5t-22 44.5z" />
<glyph unicode="&#x259;" horiz-adv-x="935" d="M109 338v184h700v109q0 94 -26.5 159.5t-70.5 105.5t-102.5 57.5t-122.5 17.5q-100 0 -174.5 -32t-122.5 -79l-32 37q57 55 142 86t189 31q172 0 271.5 -93.5t99.5 -273.5v-293q0 -84 -28.5 -151.5t-80 -115.5t-122 -74.5t-154.5 -26.5q-80 0 -147.5 24.5t-116.5 70.5 t-75.5 111.5t-26.5 145.5zM160 367q0 -92 28.5 -157t73.5 -104.5t101.5 -57t111.5 -17.5q59 0 118.5 19.5t108 60.5t78 105.5t29.5 156.5v102h-649v-108z" />
<glyph unicode="&#x2b9;" horiz-adv-x="319" d="M47 893l189 504l92 -21l-238 -491z" />
<glyph unicode="&#x2c6;" horiz-adv-x="976" d="M209 1169l250 226h59l242 -226l-25 -24l-250 188l-252 -190z" />
<glyph unicode="&#x2c7;" horiz-adv-x="976" d="M209 1370l24 27l252 -191l250 189l25 -25l-242 -225h-59z" />
<glyph unicode="&#x2d8;" horiz-adv-x="1005" d="M258 1358h45q16 -80 74.5 -120t124.5 -40q63 0 118.5 32t79.5 128h45q-6 -37 -23 -75t-48 -66.5t-74 -47t-98 -18.5t-98.5 18.5t-74 47t-48 66.5t-23.5 75z" />
<glyph unicode="&#x2d9;" horiz-adv-x="952" d="M451 1296q0 20 14 35t33 15q20 0 34.5 -15t14.5 -35t-14.5 -34.5t-34.5 -14.5q-18 0 -32.5 14.5t-14.5 34.5z" />
<glyph unicode="&#x2da;" horiz-adv-x="952" d="M330 1317q0 74 52 124t124 50q74 0 126 -50t52 -124q0 -37 -14.5 -68.5t-38 -55.5t-56 -38t-69.5 -14t-68.5 14t-55.5 38t-38 55.5t-14 68.5zM371 1317q0 -57 39 -97t96 -40q59 0 98 40t39 97t-39 97t-98 40q-57 0 -96 -40t-39 -97z" />
<glyph unicode="&#x2db;" horiz-adv-x="952" d="M315 -190q0 39 20.5 92t70.5 100h34l2 -2q-39 -43 -56 -96.5t-17 -87.5q0 -61 33.5 -89t84.5 -28q27 0 56.5 7t62.5 24l19 -37q-25 -16 -64 -28.5t-82 -12.5q-78 0 -121 47.5t-43 110.5z" />
<glyph unicode="&#x2dc;" horiz-adv-x="976" d="M219 1280q76 106 174 106q31 0 63.5 -13t65.5 -28.5t64.5 -27.5t56.5 -12q33 0 56.5 19t52.5 60l39 -22q-35 -61 -73 -85t-79 -24q-29 0 -60.5 12.5t-64.5 28t-64.5 27.5t-60.5 12q-41 0 -71.5 -21.5t-59.5 -56.5z" />
<glyph unicode="&#x2dd;" horiz-adv-x="952" d="M387 1182l168 291l66 -33l-203 -275zM565 1182l168 291l66 -33l-203 -275z" />
<glyph unicode="&#x384;" horiz-adv-x="976" d="M434 1182l168 291l66 -33l-203 -275z" />
<glyph unicode="&#x385;" horiz-adv-x="931" d="M252 1343q0 20 14.5 35t32.5 15q20 0 34.5 -15t14.5 -35t-14.5 -34.5t-34.5 -14.5q-18 0 -32.5 14.5t-14.5 34.5zM367 1214l168 291l65 -32l-203 -275zM598 1343q0 20 14.5 35t32.5 15q20 0 34.5 -15t14.5 -35t-14 -34.5t-35 -14.5q-18 0 -32.5 14.5t-14.5 34.5z" />
<glyph unicode="&#x386;" horiz-adv-x="1134" d="M45 1141l168 291l66 -33l-203 -275zM49 0l486 1411h71l490 -1411h-58l-125 352h-686l-118 -352h-60zM246 401h651l-328 959z" />
<glyph unicode="&#x387;" horiz-adv-x="356" d="M113 731q0 27 17 43.5t46 16.5q23 0 43.5 -16.5t20.5 -43.5t-17.5 -45t-44.5 -18q-29 0 -47 18t-18 45z" />
<glyph unicode="&#x388;" horiz-adv-x="1064" d="M-242 1141l168 291l66 -33l-203 -275zM113 0v1411h891v-51h-838v-615h721v-49h-721v-649h838v-47h-891z" />
<glyph unicode="&#x389;" horiz-adv-x="1200" d="M-248 1141l168 291l66 -33l-203 -275zM113 0v1411h53v-668h866v668h55v-1411h-55v696h-866v-696h-53z" />
<glyph unicode="&#x38a;" horiz-adv-x="405" d="M-205 1141l168 291l66 -33l-203 -275zM176 0v1411h53v-1411h-53z" />
<glyph unicode="&#x38c;" horiz-adv-x="1175" d="M-168 1141l168 291l66 -33l-203 -275zM102 455v508q0 100 33 185t95.5 146.5t152.5 96t205 34.5q113 0 202 -34.5t152.5 -97t97 -147.5t33.5 -183v-517q0 -102 -32.5 -187t-96 -145.5t-153.5 -94t-203 -33.5q-115 0 -204 34.5t-152.5 97t-96.5 148.5t-33 189zM156 459 q0 -113 38.5 -193t101 -132t139.5 -76.5t153 -24.5q88 0 167 25.5t138 78.5t93 133t34 189v487q0 111 -36 192t-96.5 134t-138 78.5t-161.5 25.5q-90 0 -169 -25.5t-137.5 -78.5t-92 -134t-33.5 -192v-487z" />
<glyph unicode="&#x38e;" horiz-adv-x="956" d="M-246 1141l168 291l66 -33l-203 -275zM27 1411h59l393 -819l389 819h58l-420 -879v-532h-53v528z" />
<glyph unicode="&#x38f;" horiz-adv-x="1167" d="M-182 1141l168 291l65 -33l-203 -275zM63 0v51h273q-117 57 -179.5 166t-62.5 250v496q0 100 34 185t97.5 146.5t154.5 96t206 34.5q113 0 204 -34.5t155.5 -97t100 -147.5t35.5 -183v-504q0 -141 -61.5 -251t-177.5 -157h274v-51h-381v55q129 33 211 138.5t82 277.5v475 q0 111 -38 192t-99.5 134t-141 78.5t-163.5 25.5q-90 0 -170 -25.5t-139.5 -78.5t-94.5 -134t-35 -192v-475q0 -86 26 -154.5t68 -120t95 -86t108 -53.5v-57h-381z" />
<glyph unicode="&#x390;" horiz-adv-x="358" d="M-25 1343q0 20 14.5 35t33.5 15q20 0 34.5 -15t14.5 -35t-14.5 -34.5t-34.5 -14.5q-18 0 -33 14.5t-15 34.5zM90 1214l168 291l66 -32l-203 -275zM154 0v1001h51v-1001h-51zM322 1343q0 20 14 35t33 15q20 0 34.5 -15t14.5 -35t-14.5 -34.5t-34.5 -14.5q-18 0 -32.5 14.5 t-14.5 34.5z" />
<glyph unicode="&#x391;" horiz-adv-x="1134" d="M49 0l486 1411h71l490 -1411h-58l-125 352h-686l-118 -352h-60zM246 401h651l-328 959z" />
<glyph unicode="&#x392;" horiz-adv-x="1155" d="M113 0v1411l542 -2q100 0 172 -27.5t119 -74.5t69.5 -109.5t22.5 -134.5q0 -43 -11 -90t-38.5 -90t-74 -80t-117.5 -58q78 -18 129 -61t81.5 -96t43 -110.5t12.5 -106.5q0 -78 -25.5 -144.5t-75 -118t-120 -80t-160.5 -28.5h-569zM166 47h500q68 0 129 19.5t109 59.5 t76 101.5t28 143.5q0 80 -27 144.5t-73 110.5t-106.5 70.5t-127.5 24.5h-508v-674zM166 772h500q57 0 112.5 17.5t100.5 53.5t72.5 90t27.5 130q0 82 -28.5 138t-76 91t-108.5 51.5t-127 16.5h-473v-588z" />
<glyph unicode="&#x393;" horiz-adv-x="1015" d="M121 0v1411h891v-51h-838v-1360h-53z" />
<glyph unicode="&#x394;" horiz-adv-x="1134" d="M31 0l501 1411h72l506 -1411h-1079zM106 49h928l-467 1311z" />
<glyph unicode="&#x395;" horiz-adv-x="1064" d="M113 0v1411h891v-51h-838v-615h721v-49h-721v-649h838v-47h-891z" />
<glyph unicode="&#x396;" horiz-adv-x="1050" d="M86 0v47l819 1313h-786v51h850v-51l-815 -1313h813v-47h-881z" />
<glyph unicode="&#x397;" horiz-adv-x="1200" d="M113 0v1411h53v-668h866v668h55v-1411h-55v696h-866v-696h-53z" />
<glyph unicode="&#x398;" horiz-adv-x="1159" d="M100 455v508q0 100 33 185t95.5 146.5t152.5 96t205 34.5q113 0 202 -34.5t152.5 -97t97 -147.5t33.5 -183v-517q0 -102 -32.5 -187t-96 -145.5t-153.5 -94t-203 -33.5q-115 0 -204 34.5t-152.5 97t-96.5 148.5t-33 189zM154 459q0 -113 38.5 -194t101 -133t139.5 -76.5 t153 -24.5q88 0 166.5 26.5t138 79.5t93.5 133t34 189v487q0 111 -36 192t-96.5 134t-138 78.5t-161.5 25.5q-90 0 -169 -25.5t-137.5 -78.5t-92 -134t-33.5 -192v-487zM240 694v49h684v-49h-684z" />
<glyph unicode="&#x399;" horiz-adv-x="405" d="M176 0v1411h53v-1411h-53z" />
<glyph unicode="&#x39a;" horiz-adv-x="1069" d="M113 0v1411h53v-942l756 942h65l-430 -537l502 -874h-62l-477 829l-354 -444v-385h-53z" />
<glyph unicode="&#x39b;" horiz-adv-x="1112" d="M29 0l485 1411h72l489 -1411h-57l-469 1360l-461 -1360h-59z" />
<glyph unicode="&#x39c;" horiz-adv-x="1413" d="M113 0v1411h57l545 -1114q127 270 266 557t268 557h51v-1411h-53v1292q-72 -156 -138.5 -295t-128.5 -268t-121.5 -251t-117.5 -245h-53l-522 1063v-1296h-53z" />
<glyph unicode="&#x39d;" horiz-adv-x="1222" d="M113 0v1411h59l885 -1335v1335h53v-1411h-66l-878 1331v-1331h-53z" />
<glyph unicode="&#x39e;" horiz-adv-x="1034" d="M82 0v47h395v645h-274v49h274v617h-395v55h866v-55h-418v-617h297v-49h-297v-645h418v-47h-866z" />
<glyph unicode="&#x39f;" horiz-adv-x="1175" d="M102 455v508q0 100 33 185t95.5 146.5t152.5 96t205 34.5q113 0 202 -34.5t152.5 -97t97 -147.5t33.5 -183v-517q0 -102 -32.5 -187t-96 -145.5t-153.5 -94t-203 -33.5q-115 0 -204 34.5t-152.5 97t-96.5 148.5t-33 189zM156 459q0 -113 38.5 -193t101 -132t139.5 -76.5 t153 -24.5q88 0 167 25.5t138 78.5t93 133t34 189v487q0 111 -36 192t-96.5 134t-138 78.5t-161.5 25.5q-90 0 -169 -25.5t-137.5 -78.5t-92 -134t-33.5 -192v-487z" />
<glyph unicode="&#x3a0;" horiz-adv-x="1181" d="M104 0v1411h975v-1411h-55v1362h-866v-1362h-54z" />
<glyph unicode="&#x3a1;" horiz-adv-x="1087" d="M113 0v1411h536q98 0 171 -35t121 -91t71.5 -127t23.5 -142q0 -72 -25.5 -141.5t-74.5 -125t-121 -89t-166 -33.5h-483v-627h-53zM166 676h477q68 0 128 22.5t107.5 66.5t75 107.5t27.5 143.5t-27.5 143.5t-75 107.5t-107.5 68.5t-128 24.5h-477v-684z" />
<glyph unicode="&#x3a3;" horiz-adv-x="983" d="M68 0v59l393 676l-393 621v57h831v-53h-774l395 -623l-403 -688h798v-49h-847z" />
<glyph unicode="&#x3a4;" horiz-adv-x="1042" d="M37 1360v51h967v-51h-455v-1360h-53v1360h-459z" />
<glyph unicode="&#x3a5;" horiz-adv-x="956" d="M27 1411h59l393 -819l389 819h58l-420 -879v-532h-53v528z" />
<glyph unicode="&#x3a6;" horiz-adv-x="1439" d="M102 643v207q0 100 35 192.5t107.5 163t184.5 113.5t265 45v61h51v-61q154 -2 265.5 -45t184.5 -113.5t107.5 -163t34.5 -192.5v-207q0 -102 -37.5 -196.5t-112.5 -165t-185.5 -113.5t-256.5 -45v-123h-51v123q-145 2 -255.5 45t-185.5 113.5t-113 165t-38 196.5z M156 647q0 -113 41 -201t112.5 -149t170 -94t214.5 -33v1145q-127 0 -227 -34t-169 -97.5t-105.5 -151.5t-36.5 -198v-187zM745 170q117 0 215.5 33t170 94t112.5 149.5t41 200.5v187q0 111 -37 198.5t-105.5 151t-169 97.5t-227.5 34v-1145z" />
<glyph unicode="&#x3a7;" horiz-adv-x="976" d="M25 0l434 725l-404 686h64l366 -633l367 633h63l-403 -686l436 -725h-63l-398 670l-399 -670h-63z" />
<glyph unicode="&#x3a8;" horiz-adv-x="1363" d="M102 776v635h56v-623q0 -113 47 -193.5t118.5 -134.5t159.5 -80t172 -28v1073h54v-1073q82 0 170 27t160.5 80t119.5 135t47 194v623h56v-635q0 -102 -44 -188t-120 -148.5t-176.5 -99.5t-212.5 -39v-301h-54v301q-113 2 -213 38t-176 99.5t-120 149.5t-44 188z" />
<glyph unicode="&#x3a9;" horiz-adv-x="1167" d="M63 0v51h273q-117 57 -179.5 166t-62.5 250v496q0 100 34 185t97.5 146.5t154.5 96t206 34.5q113 0 204 -34.5t155.5 -97t100 -147.5t35.5 -183v-504q0 -141 -61.5 -251t-177.5 -157h274v-51h-381v55q129 33 211 138.5t82 277.5v475q0 111 -38 192t-99.5 134t-141 78.5 t-163.5 25.5q-90 0 -170 -25.5t-139.5 -78.5t-94.5 -134t-35 -192v-475q0 -86 26 -154.5t68 -120t95 -86t108 -53.5v-57h-381z" />
<glyph unicode="&#x3aa;" horiz-adv-x="405" d="M6 1649q0 20 14.5 34.5t32.5 14.5q20 0 34.5 -14.5t14.5 -34.5t-14 -35t-35 -15q-18 0 -32.5 14.5t-14.5 35.5zM176 0v1411h53v-1411h-53zM324 1649q0 20 14 34.5t33 14.5q20 0 34.5 -14.5t14.5 -34.5t-14.5 -35t-34.5 -15q-18 0 -32.5 14.5t-14.5 35.5z" />
<glyph unicode="&#x3ab;" horiz-adv-x="956" d="M27 1411h59l393 -819l389 819h58l-420 -879v-532h-53v528zM272 1647q0 20 14.5 34.5t32.5 14.5q20 0 35 -14.5t15 -34.5t-14.5 -35t-35.5 -15q-18 0 -32.5 14.5t-14.5 35.5zM590 1647q0 20 14 34.5t33 14.5q20 0 34.5 -14.5t14.5 -34.5t-14.5 -35t-34.5 -15 q-18 0 -32.5 14.5t-14.5 35.5z" />
<glyph unicode="&#x3ac;" horiz-adv-x="960" d="M92 319v363q0 172 86 252t221 80q29 0 66 -4t86 -17.5t112.5 -41t145.5 -77.5l14 125h35v-999h-35l-14 154q-82 -57 -146.5 -90t-114.5 -50.5t-88 -22.5t-69 -5q-143 0 -221 79.5t-78 253.5zM141 344q0 -311 256 -311q74 0 183.5 45t228.5 135v602q-117 78 -224.5 115 t-181.5 37q-262 0 -262 -312v-311zM430 1182l168 291l66 -33l-203 -275z" />
<glyph unicode="&#x3ad;" horiz-adv-x="847" d="M102 276q0 20 5.5 54.5t24 70t52 69.5t90.5 54q-55 20 -85.5 51t-45 63t-17.5 60.5t-3 49.5q0 47 21.5 94t65.5 86t110.5 62.5t154.5 23.5q84 0 163 -25.5t142 -75.5l-32 -45q-53 45 -119 72t-152 27q-61 0 -116.5 -17.5t-96.5 -47.5t-64.5 -69.5t-23.5 -87.5 q0 -98 62.5 -147t164.5 -49h170v-51h-186q-43 0 -85 -14.5t-74.5 -42t-53 -70.5t-20.5 -101q0 -55 25.5 -99t68.5 -74.5t99 -47t118 -16.5q90 0 167 25.5t130 66.5l29 -39q-76 -53 -159 -75.5t-171 -22.5q-86 0 -152.5 23.5t-112.5 62.5t-70 91t-24 111zM406 1182l167 291 l66 -33l-203 -275z" />
<glyph unicode="&#x3ae;" horiz-adv-x="950" d="M102 0v1001h37l15 -153q74 45 131 76.5t105 51t88 29t79 9.5q152 0 232.5 -80t80.5 -254v-680h-51v655q0 166 -68.5 238t-199.5 72q-80 0 -183.5 -49.5t-213.5 -127.5v-788h-52zM373 1182l168 291l65 -33l-203 -275z" />
<glyph unicode="&#x3af;" horiz-adv-x="358" d="M154 0v1001h51v-1001h-51zM156 1182l168 291l65 -33l-203 -275z" />
<glyph unicode="&#x3b0;" horiz-adv-x="964" d="M98 352v652h52v-635q0 -90 30.5 -153.5t79.5 -103.5t108.5 -57.5t116.5 -17.5q61 0 121 17.5t108 57.5t76.5 103.5t28.5 153.5v635h49v-648q0 -90 -30.5 -158.5t-83 -114.5t-123 -69.5t-150.5 -23.5t-150.5 25.5t-121.5 72.5t-81 113.5t-30 150.5zM258 1343q0 20 14.5 35 t32.5 15q20 0 34.5 -15t14.5 -35t-14 -34.5t-35 -14.5q-18 0 -32.5 14.5t-14.5 34.5zM373 1214l168 291l65 -32l-203 -275zM604 1343q0 20 14.5 35t32.5 15q20 0 34.5 -15t14.5 -35t-14 -34.5t-35 -14.5q-18 0 -32.5 14.5t-14.5 34.5z" />
<glyph unicode="&#x3b1;" horiz-adv-x="960" d="M92 319v363q0 172 86 252t221 80q29 0 66 -4t86 -17.5t112.5 -41t145.5 -77.5l14 125h35v-999h-35l-14 154q-82 -57 -146.5 -90t-114.5 -50.5t-88 -22.5t-69 -5q-143 0 -221 79.5t-78 253.5zM141 344q0 -311 256 -311q74 0 183.5 45t228.5 135v602q-117 78 -224.5 115 t-181.5 37q-262 0 -262 -312v-311z" />
<glyph unicode="&#x3b2;" horiz-adv-x="958" d="M102 0v1081q0 82 27 150.5t74 118t113.5 77t144.5 27.5q104 0 171.5 -31.5t108.5 -81t57.5 -106.5t16.5 -107q0 -29 -6 -67.5t-23.5 -78.5t-51.5 -78t-89 -62q68 -16 112 -53t68.5 -84.5t33.5 -98.5t9 -94v-182q0 -168 -76.5 -256t-242.5 -88q-63 0 -161.5 26.5 t-235.5 110.5l-15 -123h-35zM152 176q102 -61 205.5 -102t207.5 -41q119 0 186.5 75.5t67.5 235.5v162q0 299 -293 299h-157v49h147q68 0 114 26.5t75.5 66.5t43 88t13.5 89q0 47 -15.5 97.5t-51.5 92.5t-93 69.5t-143 27.5t-144.5 -34t-94.5 -84t-52 -110.5t-16 -113.5 v-893z" />
<glyph unicode="&#x3b3;" horiz-adv-x="858" d="M2 1004q25 6 45 6q33 0 54.5 -18.5t37.5 -65.5l310 -830l346 905h59l-379 -962v-461h-51v453q-70 178 -120 307t-86 220t-57.5 150.5t-35.5 97.5t-22.5 60.5t-14.5 40.5q-10 31 -22.5 42.5t-34.5 11.5q-14 0 -23 -3z" />
<glyph unicode="&#x3b4;" horiz-adv-x="954" d="M92 348v236q0 160 80 260t211 135q-61 25 -99 55.5t-58.5 63t-28 63.5t-7.5 53q0 51 18.5 97.5t58.5 81t101.5 54t147.5 19.5q78 0 147.5 -20.5t122.5 -48.5l-28 -47q-57 31 -113.5 48t-128.5 17q-51 0 -99 -11t-85 -34.5t-58.5 -61.5t-21.5 -94q0 -74 56.5 -128 t187.5 -93q90 -27 158.5 -57.5t114.5 -75.5t69.5 -111.5t23.5 -164.5v-240q0 -80 -26.5 -145.5t-76.5 -113.5t-122 -73.5t-162 -25.5q-86 0 -156.5 26.5t-121 74.5t-78 114.5t-27.5 146.5zM143 367q0 -90 29 -155t76 -104.5t107.5 -58t121.5 -18.5q70 0 130.5 18.5t106.5 58 t72.5 104t26.5 155.5v204q0 92 -21.5 154.5t-66.5 105.5t-111.5 71t-156.5 48q-88 -16 -148.5 -52t-97.5 -87t-52.5 -114.5t-15.5 -135.5v-194z" />
<glyph unicode="&#x3b5;" horiz-adv-x="847" d="M102 276q0 20 5.5 54.5t24 70t52 69.5t90.5 54q-55 20 -85.5 51t-45 63t-17.5 60.5t-3 49.5q0 47 21.5 94t65.5 86t110.5 62.5t154.5 23.5q84 0 163 -25.5t142 -75.5l-32 -45q-53 45 -119 72t-152 27q-61 0 -116.5 -17.5t-96.5 -47.5t-64.5 -69.5t-23.5 -87.5 q0 -98 62.5 -147t164.5 -49h170v-51h-186q-43 0 -85 -14.5t-74.5 -42t-53 -70.5t-20.5 -101q0 -55 25.5 -99t68.5 -74.5t99 -47t118 -16.5q90 0 167 25.5t130 66.5l29 -39q-76 -53 -159 -75.5t-171 -22.5q-86 0 -152.5 23.5t-112.5 62.5t-70 91t-24 111z" />
<glyph unicode="&#x3b6;" horiz-adv-x="774" d="M82 408q0 94 38 202.5t120 230.5t213 259t319 291h-639v43h705v-43q-154 -127 -283 -255t-222 -252t-145.5 -241t-52.5 -221q0 -133 58.5 -211t147.5 -118t196.5 -51t203.5 -11h17q6 -14 13 -30.5t15 -29.5q-23 -33 -44 -75.5t-39.5 -90t-34 -95.5t-25.5 -87l-49 12 q8 33 21.5 79t32 95.5t40 96.5t45.5 82q-127 -4 -243.5 13t-208 64.5t-145.5 131.5t-54 211z" />
<glyph unicode="&#x3b7;" horiz-adv-x="966" d="M102 0v1001h37l15 -153q74 45 131 76.5t105 51t88 29t79 9.5q152 0 232.5 -80t80.5 -254v-680h-51v655q0 166 -68.5 238t-199.5 72q-80 0 -183.5 -49.5t-213.5 -127.5v-788h-52z" />
<glyph unicode="&#x3b8;" horiz-adv-x="952" d="M92 348v756q0 80 31 144.5t83 110.5t121.5 70.5t149.5 24.5t150.5 -24.5t123 -70.5t82 -110.5t29.5 -144.5v-752q0 -168 -100.5 -267t-286.5 -99q-88 0 -158.5 26.5t-121 74.5t-77 114.5t-26.5 146.5zM143 365q0 -90 28 -154t75 -103.5t107.5 -58t125.5 -18.5 q70 0 131.5 19.5t106.5 60.5t70.5 103t25.5 151v378h-670v-378zM143 788h670v287q0 90 -29.5 153.5t-78 103.5t-107.5 57.5t-119 17.5q-61 0 -121.5 -17.5t-107.5 -57.5t-77 -103.5t-30 -153.5v-287z" />
<glyph unicode="&#x3b9;" horiz-adv-x="358" d="M154 0v1001h51v-1001h-51z" />
<glyph unicode="&#x3ba;" horiz-adv-x="954" d="M150 0v1004h49v-457h319q57 0 109.5 30.5t87.5 120.5l119 306h49l-111 -283q-29 -72 -56.5 -124t-86.5 -69q37 -10 60.5 -27.5t39.5 -44t29.5 -58t25.5 -68.5l119 -330h-51l-119 336q-35 100 -82 132t-121 32h-331v-500h-49z" />
<glyph unicode="&#x3bb;" horiz-adv-x="962" d="M90 12v596q0 168 93 256t261 88q31 0 67 -4t80 -15t97 -32.5t121 -56.5v235q0 92 -20.5 155.5t-59.5 101.5t-96.5 54.5t-130.5 16.5q-35 0 -74 -7t-76 -19.5t-69.5 -28t-57.5 -29.5l-24 41q33 20 72.5 37.5t81.5 29t81 17.5t70 6q188 0 270 -87t82 -259v-1108h-49v784 q-121 66 -209 93.5t-154 27.5q-160 0 -233.5 -81t-73.5 -240v-572h-49z" />
<glyph unicode="&#x3bc;" horiz-adv-x="972" d="M102 107.5v186.5v186.5v223v297.5h52v-655q0 -166 68.5 -237.5t199.5 -71.5q80 0 183.5 49t213.5 127v788h51v-1001h-36l-15 154q-74 -45 -132 -77t-105 -51.5t-87 -28.5t-79 -9q-188 0 -262 118v-526h-50q0 176 -1 302t-1 225.5z" />
<glyph unicode="&#x3bd;" horiz-adv-x="856" d="M27 1004h55q90 -238 171 -468.5t169 -469.5l342 938h57l-368 -1004h-64q-94 250 -181 502t-181 502z" />
<glyph unicode="&#x3be;" horiz-adv-x="839" d="M104 412q0 41 11.5 97t44.5 113.5t90 106.5t149 78q-84 23 -135 62.5t-77.5 85.5t-35 91.5t-8.5 77.5q0 70 29 131.5t83 106.5t132 70.5t174 25.5q55 0 136 -12t153 -43l-21 -49q-66 31 -135 43t-133 12q-72 0 -138.5 -18.5t-116.5 -55.5t-80.5 -92t-30.5 -127 q0 -76 32.5 -130t86 -90t119 -52.5t130.5 -16.5h182v-47h-217q-86 0 -154.5 -28.5t-117.5 -78.5t-75.5 -118t-26.5 -145q0 -123 58 -198t148.5 -115t200 -52t211.5 -12h35l31 -47q-23 -35 -45.5 -80t-42 -93.5t-35 -96.5t-23.5 -87l-49 13q6 31 18.5 73.5t30 90t39 94.5 t47.5 86q-145 -4 -269 15t-214 69.5t-140.5 134.5t-50.5 207z" />
<glyph unicode="&#x3bf;" horiz-adv-x="954" d="M92 348v316q0 80 31 144t83 110.5t121.5 71t149.5 24.5t150.5 -24.5t123 -71t82 -111t29.5 -143.5v-312q0 -168 -100.5 -267t-286.5 -99q-88 0 -158.5 26.5t-121 74.5t-77 114.5t-26.5 146.5zM143 365q0 -90 28 -154t75 -103.5t107.5 -58t125.5 -18.5q70 0 131.5 19.5 t106.5 60.5t70.5 103t25.5 151v270q0 90 -29.5 153.5t-78 103.5t-107.5 57.5t-119 17.5q-61 0 -121.5 -17.5t-107.5 -57.5t-77 -103.5t-30 -153.5v-270z" />
<glyph unicode="&#x3c0;" horiz-adv-x="968" d="M102 0v1001h764v-1001h-49v954h-665v-954h-50z" />
<glyph unicode="&#x3c1;" horiz-adv-x="956" d="M98 -422v1088q0 80 31 143t83 109.5t120.5 71t144.5 24.5t145.5 -24.5t123 -71t85 -110t31.5 -142.5v-332q0 -168 -92 -258t-258 -90q-57 0 -145 19.5t-220 88.5v-516h-49zM145 635l2 -483q127 -66 212 -92.5t151 -26.5q160 0 232.5 83t72.5 242l-2 277q0 90 -30.5 153.5 t-79 103.5t-107.5 57.5t-117 17.5q-57 0 -116.5 -17.5t-107.5 -57.5t-79 -103.5t-31 -153.5z" />
<glyph unicode="&#x3c2;" horiz-adv-x="882" d="M88 84l29 41q74 -49 157 -73.5t185 -24.5q49 0 102 11t97 37.5t73 72t29 114.5q0 63 -29 103.5t-73 65t-99 36.5t-106 20q-59 8 -122 22.5t-116 42.5t-87 73t-34 116q0 57 21.5 107.5t64.5 87.5t105.5 57.5t144.5 20.5q100 0 179 -16.5t143 -57.5l-27 -39 q-63 35 -133 53.5t-154 18.5q-133 0 -213 -61.5t-80 -172.5q0 -51 25 -84.5t68 -57.5t104 -38t135 -27q59 -10 118.5 -24t108 -44t78 -79t29.5 -125q0 -57 -22.5 -107.5t-66.5 -87t-109.5 -58t-151.5 -21.5q-96 0 -191.5 19.5t-181.5 78.5z" />
<glyph unicode="&#x3c3;" horiz-adv-x="989" d="M92 340v317q0 80 32 143.5t85 109.5t122.5 71t145.5 25h492v-52h-281q94 -47 135 -130t41 -167v-290q0 -98 -31.5 -169t-85 -117t-124 -68.5t-148.5 -22.5t-147.5 24.5t-121.5 70.5t-83 110.5t-31 144.5zM145 369q0 -90 31 -154.5t80 -104.5t108.5 -58.5t114.5 -18.5 q57 0 116.5 18.5t108 58.5t79 104.5t30.5 154.5v258q0 90 -28.5 153.5t-75.5 103.5t-107.5 57t-122.5 17q-59 0 -119.5 -17t-107.5 -57t-77 -103.5t-30 -153.5v-258z" />
<glyph unicode="&#x3c4;" horiz-adv-x="686" d="M35 954v50h588v-50h-308v-671q0 -131 45.5 -188.5t167.5 -57.5q23 0 51.5 2t65.5 10l10 -45q-41 -10 -76.5 -12t-58.5 -2q-141 0 -198.5 65.5t-57.5 212.5v686h-229z" />
<glyph unicode="&#x3c5;" horiz-adv-x="964" d="M98 352v652h52v-635q0 -90 30.5 -153.5t79.5 -103.5t108.5 -57.5t116.5 -17.5q61 0 121 17.5t108 57.5t76.5 103.5t28.5 153.5v635h49v-648q0 -90 -30.5 -158.5t-83 -114.5t-123 -69.5t-150.5 -23.5t-150.5 25.5t-121.5 72.5t-81 113.5t-30 150.5z" />
<glyph unicode="&#x3c6;" horiz-adv-x="1200" d="M96 365v301q0 59 17.5 113.5t48.5 98.5t74 75.5t92 43.5l12 -49q-90 -31 -140 -108.5t-50 -204.5v-236q0 -80 25.5 -145.5t76.5 -113.5t129 -75.5t184 -27.5v909q78 37 134.5 51.5t97.5 14.5q135 0 220 -79t85 -253v-301q0 -92 -36 -164t-100.5 -123t-154.5 -77.5 t-197 -26.5v-410h-49v410q-106 0 -193 27.5t-148.5 76.5t-94.5 119t-33 154zM614 37q215 4 326 102.5t111 259.5v254q0 166 -68 235.5t-190 67.5q-29 0 -81.5 -15t-97.5 -34v-870z" />
<glyph unicode="&#x3c7;" horiz-adv-x="788" d="M27 0l331 512l-317 489h63l285 -446l289 446h63l-321 -489l336 -512h-66l-301 467l-297 -467h-65z" />
<glyph unicode="&#x3c8;" horiz-adv-x="1189" d="M100 403v596h52v-579q0 -80 25.5 -149.5t76.5 -122t129 -84t184 -31.5v966h51v-966q113 2 193 31.5t130 82t73.5 123t23.5 150.5v579h52v-596q0 -96 -33 -172.5t-94.5 -131t-148.5 -83t-196 -28.5v-410h-51v410q-111 0 -197.5 31.5t-147 88t-91.5 132t-31 163.5z" />
<glyph unicode="&#x3c9;" horiz-adv-x="1497" d="M90 354v297q0 133 69.5 221.5t184.5 120.5l12 -45q-106 -39 -160.5 -111.5t-54.5 -215.5v-238q0 -90 24.5 -155.5t64.5 -107.5t93.5 -62.5t110.5 -20.5t109.5 20.5t92.5 62.5t64.5 107.5t24.5 155.5v375h53v-375q0 -68 16.5 -131.5t51.5 -110.5t89 -75.5t132 -28.5 q57 0 110.5 18.5t93.5 58.5t64.5 104.5t24.5 154.5v248q0 141 -57.5 214.5t-147.5 110.5l12 45q109 -35 175.5 -123t66.5 -217v-303q0 -80 -24.5 -145.5t-70.5 -113.5t-109.5 -73.5t-141.5 -25.5q-109 0 -192 54t-119 167q-39 -113 -125 -167t-195 -54q-78 0 -140.5 26.5 t-107.5 75.5t-69.5 115.5t-24.5 146.5z" />
<glyph unicode="&#x3ca;" horiz-adv-x="358" d="M-31 1343q0 20 14.5 35t32.5 15q20 0 35 -15t15 -35t-14.5 -34.5t-35.5 -14.5q-18 0 -32.5 14.5t-14.5 34.5zM154 0v1001h51v-1001h-51zM287 1343q0 20 14 35t33 15q20 0 34.5 -15t14.5 -35t-14.5 -34.5t-34.5 -14.5q-18 0 -32.5 14.5t-14.5 34.5z" />
<glyph unicode="&#x3cb;" horiz-adv-x="964" d="M98 352v652h52v-635q0 -90 30.5 -153.5t79.5 -103.5t108.5 -57.5t116.5 -17.5q61 0 121 17.5t108 57.5t76.5 103.5t28.5 153.5v635h49v-648q0 -90 -30.5 -158.5t-83 -114.5t-123 -69.5t-150.5 -23.5t-150.5 25.5t-121.5 72.5t-81 113.5t-30 150.5zM279 1343q0 20 14 35 t33 15q20 0 34.5 -15t14.5 -35t-14.5 -34.5t-34.5 -14.5q-18 0 -32.5 14.5t-14.5 34.5zM596 1343q0 20 14.5 35t32.5 15q20 0 34.5 -15t14.5 -35t-14 -34.5t-35 -14.5q-18 0 -32.5 14.5t-14.5 34.5z" />
<glyph unicode="&#x3cc;" horiz-adv-x="954" d="M92 348v316q0 80 31 144t83 110.5t121.5 71t149.5 24.5t150.5 -24.5t123 -71t82 -111t29.5 -143.5v-312q0 -168 -100.5 -267t-286.5 -99q-88 0 -158.5 26.5t-121 74.5t-77 114.5t-26.5 146.5zM143 365q0 -90 28 -154t75 -103.5t107.5 -58t125.5 -18.5q70 0 131.5 19.5 t106.5 60.5t70.5 103t25.5 151v270q0 90 -29.5 153.5t-78 103.5t-107.5 57.5t-119 17.5q-61 0 -121.5 -17.5t-107.5 -57.5t-77 -103.5t-30 -153.5v-270zM434 1182l168 291l66 -33l-203 -275z" />
<glyph unicode="&#x3cd;" horiz-adv-x="964" d="M98 352v652h52v-635q0 -90 30.5 -153.5t79.5 -103.5t108.5 -57.5t116.5 -17.5q61 0 121 17.5t108 57.5t76.5 103.5t28.5 153.5v635h49v-648q0 -90 -30.5 -158.5t-83 -114.5t-123 -69.5t-150.5 -23.5t-150.5 25.5t-121.5 72.5t-81 113.5t-30 150.5zM434 1182l168 291 l66 -33l-203 -275z" />
<glyph unicode="&#x3ce;" horiz-adv-x="1497" d="M90 354v297q0 133 69.5 221.5t184.5 120.5l12 -45q-106 -39 -160.5 -111.5t-54.5 -215.5v-238q0 -90 24.5 -155.5t64.5 -107.5t93.5 -62.5t110.5 -20.5t109.5 20.5t92.5 62.5t64.5 107.5t24.5 155.5v375h53v-375q0 -68 16.5 -131.5t51.5 -110.5t89 -75.5t132 -28.5 q57 0 110.5 18.5t93.5 58.5t64.5 104.5t24.5 154.5v248q0 141 -57.5 214.5t-147.5 110.5l12 45q109 -35 175.5 -123t66.5 -217v-303q0 -80 -24.5 -145.5t-70.5 -113.5t-109.5 -73.5t-141.5 -25.5q-109 0 -192 54t-119 167q-39 -113 -125 -167t-195 -54q-78 0 -140.5 26.5 t-107.5 75.5t-69.5 115.5t-24.5 146.5zM692 1182l168 291l66 -33l-203 -275z" />
<glyph unicode="&#x401;" horiz-adv-x="1064" d="M113 0v1411h891v-51h-838v-615h721v-49h-721v-649h838v-47h-891zM350 1581q0 20 14.5 34.5t32.5 14.5q20 0 34.5 -14.5t14.5 -34.5t-14 -34.5t-35 -14.5q-18 0 -32.5 14.5t-14.5 34.5zM668 1581q0 20 14 34.5t33 14.5q20 0 34.5 -14.5t14.5 -34.5t-14.5 -34.5 t-34.5 -14.5q-18 0 -32.5 14.5t-14.5 34.5z" />
<glyph unicode="&#x402;" horiz-adv-x="1366" d="M16 1360v51h1049v-51h-598v-557q74 49 139.5 79.5t121.5 48t101 22.5t78 5q164 0 263.5 -83.5t99.5 -258.5v-278q0 -102 -33 -187t-96.5 -145.5t-153.5 -94.5t-203 -34v49q88 0 167 25.5t138.5 78t93.5 132.5t34 188v238q0 166 -79 241.5t-237 75.5q-94 0 -208.5 -43 t-225.5 -121v-741h-53v1360h-398z" />
<glyph unicode="&#x403;" horiz-adv-x="1015" d="M121 0v1411h891v-51h-838v-1360h-53zM473 1509l264 207l49 -53l-290 -180z" />
<glyph unicode="&#x404;" horiz-adv-x="987" d="M102 465v491q0 100 33 185.5t95.5 149t153.5 99t206 35.5q102 0 186 -21.5t162 -72.5l-33 -45q-137 90 -315 90q-82 0 -160 -24.5t-139.5 -76.5t-98 -134t-36.5 -195v-192h616v-49h-616v-234q0 -113 36.5 -194.5t97 -136t138.5 -81t158 -26.5q94 0 175 25.5t152 72.5 l29 -41q-53 -35 -141 -69.5t-211 -34.5q-119 0 -210 36.5t-152.5 101t-93.5 151.5t-32 190z" />
<glyph unicode="&#x405;" horiz-adv-x="1077" d="M66 111l28 47q96 -53 208 -87t233 -34q86 0 161.5 20.5t133 61.5t91 101.5t33.5 139.5q0 88 -34.5 145.5t-91 94.5t-130 57.5t-151.5 34.5q-82 14 -164 38t-147.5 66t-106.5 106.5t-41 160.5q0 82 31 148.5t88 113.5t138 73.5t183 26.5q106 0 207 -19.5t189 -62.5 l-25 -49q-86 43 -183.5 62.5t-199.5 19.5q-70 0 -136.5 -17.5t-118.5 -56t-84 -98t-32 -145.5q0 -80 36 -134.5t94.5 -89t133 -56t152.5 -36.5q100 -18 184 -45.5t142.5 -71.5t91.5 -108.5t33 -157.5q0 -86 -34 -154.5t-97.5 -117.5t-151.5 -74.5t-197 -25.5 q-135 0 -249.5 32.5t-216.5 90.5z" />
<glyph unicode="&#x406;" horiz-adv-x="405" d="M176 0v1411h53v-1411h-53z" />
<glyph unicode="&#x407;" horiz-adv-x="405" d="M-4 1710q0 20 14.5 34.5t32.5 14.5q20 0 34.5 -14.5t14.5 -34.5t-14.5 -34.5t-34.5 -14.5q-18 0 -32.5 14.5t-14.5 34.5zM176 0v1411h53v-1411h-53zM313 1710q0 20 14.5 34.5t32.5 14.5q20 0 35 -14.5t15 -34.5t-14.5 -34.5t-35.5 -14.5q-18 0 -32.5 14.5t-14.5 34.5z " />
<glyph unicode="&#x408;" horiz-adv-x="1015" d="M63 66l29 45q61 -35 126 -57.5t142 -22.5q90 0 168 26.5t135.5 81t90 137t32.5 195.5v942h54v-948q0 -102 -29 -189.5t-88 -152t-151.5 -101t-219.5 -36.5q-96 0 -165.5 24.5t-123.5 55.5z" />
<glyph unicode="&#x409;" horiz-adv-x="1841" d="M45 -2q55 49 100 110.5t78 152.5t50.5 221t17.5 315v614h620v-674h471q106 0 183 -31.5t126.5 -84t73 -119t23.5 -133.5q0 -102 -34 -173t-92 -114t-137 -62.5t-171 -19.5h-496v1362h-514v-631q0 -158 -18.5 -278.5t-52 -214t-83 -163t-110.5 -120.5zM911 51h459 q76 0 141.5 16.5t114.5 54.5t77 98.5t28 148.5q0 66 -24 124t-69 101t-112.5 68.5t-153.5 25.5h-461v-637z" />
<glyph unicode="&#x40a;" horiz-adv-x="1804" d="M113 0v1411h53v-676h663v676h54v-676h471q106 0 183 -31.5t126 -83t72.5 -118t23.5 -133.5q0 -102 -33.5 -173t-92 -114t-137.5 -62.5t-171 -19.5h-496v688h-663v-688h-53zM883 51h458q76 0 141.5 16.5t115 54.5t77 98.5t27.5 148.5q0 66 -23.5 124t-68.5 101 t-112.5 68.5t-154.5 25.5h-460v-637z" />
<glyph unicode="&#x40b;" horiz-adv-x="1366" d="M16 1360v51h1049v-51h-598v-557q76 51 143.5 81.5t125 47t102.5 21.5t77 5q164 0 259.5 -83.5t95.5 -258.5v-616h-53v588q0 166 -75 241.5t-233 75.5q-94 0 -212.5 -43t-229.5 -121v-741h-53v1360h-398z" />
<glyph unicode="&#x40c;" horiz-adv-x="1056" d="M113 0v1411h53v-645h344q82 0 156.5 48t121.5 177l148 420h49l-133 -389q-35 -102 -81 -176t-130 -96q51 -10 88 -36t62.5 -62t43 -82t33.5 -97l148 -473h-55l-150 481q-23 70 -50.5 116t-61 72.5t-73.5 37t-85 10.5h-375v-717h-53zM434 1509l264 207l50 -53l-291 -180z " />
<glyph unicode="&#x40e;" horiz-adv-x="966" d="M31 1411h55l389 -993h4l389 993h58l-451 -1139q-33 -82 -64.5 -137t-68.5 -88t-78 -47t-92 -14h-39v53h33q35 0 66.5 7t60.5 27.5t54.5 56.5t49.5 91l56 131zM233 1638h46q16 -80 74 -119.5t124 -39.5q63 0 118.5 31.5t80.5 127.5h45q-6 -37 -23.5 -74.5t-48.5 -66.5 t-74 -47t-98 -18t-98 18t-74 47t-48 67t-24 74z" />
<glyph unicode="&#x40f;" horiz-adv-x="1181" d="M104 0v1411h54v-1364h866v1364h55v-1411h-479v-319h-57v319h-439z" />
<glyph unicode="&#x410;" horiz-adv-x="1134" d="M49 0l486 1411h71l490 -1411h-58l-125 352h-686l-118 -352h-60zM246 401h651l-328 959z" />
<glyph unicode="&#x411;" horiz-adv-x="1087" d="M113 0v1411h794v-53h-741v-621h471q106 0 183 -31.5t126 -84t72.5 -119t23.5 -133.5q0 -102 -33.5 -173t-92 -114t-137.5 -62.5t-171 -19.5h-495zM166 51h459q76 0 141 16.5t114.5 54.5t77 98.5t27.5 148.5q0 66 -23.5 124t-68.5 101t-112.5 68.5t-153.5 25.5h-461v-637z " />
<glyph unicode="&#x412;" horiz-adv-x="1155" d="M113 0v1411l542 -2q100 0 172 -27.5t119 -74.5t69.5 -109.5t22.5 -134.5q0 -43 -11 -90t-38.5 -90t-74 -80t-117.5 -58q78 -18 129 -61t81.5 -96t43 -110.5t12.5 -106.5q0 -78 -25.5 -144.5t-75 -118t-120 -80t-160.5 -28.5h-569zM166 47h500q68 0 129 19.5t109 59.5 t76 101.5t28 143.5q0 80 -27 144.5t-73 110.5t-106.5 70.5t-127.5 24.5h-508v-674zM166 772h500q57 0 112.5 17.5t100.5 53.5t72.5 90t27.5 130q0 82 -28.5 138t-76 91t-108.5 51.5t-127 16.5h-473v-588z" />
<glyph unicode="&#x413;" horiz-adv-x="1021" d="M121 0v1411h891v-51h-838v-1360h-53z" />
<glyph unicode="&#x414;" horiz-adv-x="1341" d="M20 53h101q55 66 95 130.5t66.5 146.5t42 193.5t21.5 273.5l21 614h815v-1358h98v-352h-53v299h-1155v-299h-52v352zM184 53h942v1309h-708l-21 -617q-4 -141 -22.5 -248.5t-46 -189.5t-64.5 -143.5t-80 -110.5z" />
<glyph unicode="&#x415;" horiz-adv-x="1064" d="M113 0v1411h891v-51h-838v-615h721v-49h-721v-649h838v-47h-891z" />
<glyph unicode="&#x416;" horiz-adv-x="1669" d="M41 0l137 473q14 51 32.5 97t44.5 82t61.5 61.5t89.5 36.5q-84 23 -131.5 95.5t-79.5 176.5l-123 389h49l137 -420q20 -66 52 -108.5t69 -69.5t77 -37t81 -10h270v645h55v-645h271q41 0 80.5 10t76.5 37t68 70t53 108l137 420h49l-122 -389q-33 -104 -80 -177t-131 -95 q51 -10 88 -36t62.5 -62t43 -82t33.5 -97l137 -473h-55l-139 481q-20 72 -48 118t-62 71.5t-75 36t-86 10.5h-301v-717h-55v717h-301q-47 0 -87 -10.5t-74 -36t-61.5 -71.5t-47.5 -118l-140 -481h-55z" />
<glyph unicode="&#x417;" horiz-adv-x="1024" d="M29 115l34 41q68 -53 161 -88t210 -35q82 0 158 24.5t132 69.5t90 108.5t34 143.5t-24.5 144.5t-68.5 108.5t-105.5 67.5t-133.5 23.5h-156v51h170q45 0 98.5 18.5t99.5 57.5t77 99.5t31 144.5q0 82 -33 138t-85 91t-114.5 49t-120.5 14q-106 0 -201.5 -32.5 t-158.5 -81.5l-35 41q102 70 195.5 95.5t210.5 25.5q78 0 149.5 -19.5t126.5 -60.5t89 -105.5t34 -152.5q0 -53 -16.5 -107.5t-48 -101.5t-81 -83t-112.5 -54q82 -18 134 -60.5t82 -94.5t41 -108.5t11 -101.5q0 -92 -36 -166t-99 -126t-149.5 -79.5t-184.5 -27.5 q-145 0 -243.5 41t-161.5 88z" />
<glyph unicode="&#x418;" horiz-adv-x="1222" d="M115 0v1411h53v-1345l885 1345h59v-1411h-53v1333l-879 -1333h-65z" />
<glyph unicode="&#x419;" horiz-adv-x="1222" d="M115 0v1411h53v-1345l885 1345h59v-1411h-53v1333l-879 -1333h-65zM344 1667h45q16 -80 74.5 -120t124.5 -40q63 0 118.5 32t79.5 128h45q-6 -37 -23 -75t-48 -66.5t-74 -47t-98 -18.5t-98.5 18.5t-74 47t-48 66.5t-23.5 75z" />
<glyph unicode="&#x41a;" horiz-adv-x="1056" d="M113 0v1411h53v-645h344q82 0 156.5 48t121.5 177l148 420h49l-133 -389q-35 -102 -81 -176t-130 -96q51 -10 88 -36t62.5 -62t43 -82t33.5 -97l148 -473h-55l-150 481q-23 70 -50.5 116t-61 72.5t-73.5 37t-85 10.5h-375v-717h-53z" />
<glyph unicode="&#x41b;" horiz-adv-x="1181" d="M4 -2q55 49 100.5 110.5t78 152.5t50 221t17.5 315v614h829v-1411h-55v1362h-721v-631q0 -158 -18.5 -278.5t-52 -214t-83 -163t-110.5 -120.5z" />
<glyph unicode="&#x41c;" horiz-adv-x="1413" d="M113 0v1411h57l545 -1114q127 270 266 557t268 557h51v-1411h-53v1292q-72 -156 -138.5 -295t-128.5 -268t-121.5 -251t-117.5 -245h-53l-522 1063v-1296h-53z" />
<glyph unicode="&#x41d;" horiz-adv-x="1200" d="M113 0v1411h53v-668h866v668h55v-1411h-55v696h-866v-696h-53z" />
<glyph unicode="&#x41e;" horiz-adv-x="1175" d="M102 455v508q0 100 33 185t95.5 146.5t152.5 96t205 34.5q113 0 202 -34.5t152.5 -97t97 -147.5t33.5 -183v-517q0 -102 -32.5 -187t-96 -145.5t-153.5 -94t-203 -33.5q-115 0 -204 34.5t-152.5 97t-96.5 148.5t-33 189zM156 459q0 -113 38.5 -193t101 -132t139.5 -76.5 t153 -24.5q88 0 167 25.5t138 78.5t93 133t34 189v487q0 111 -36 192t-96.5 134t-138 78.5t-161.5 25.5q-90 0 -169 -25.5t-137.5 -78.5t-92 -134t-33.5 -192v-487z" />
<glyph unicode="&#x41f;" horiz-adv-x="1181" d="M104 0v1411h975v-1411h-55v1362h-866v-1362h-54z" />
<glyph unicode="&#x420;" horiz-adv-x="1087" d="M113 0v1411h536q98 0 171 -35t121 -91t71.5 -127t23.5 -142q0 -72 -25.5 -141.5t-74.5 -125t-121 -89t-166 -33.5h-483v-627h-53zM166 676h477q68 0 128 22.5t107.5 66.5t75 107.5t27.5 143.5t-27.5 143.5t-75 107.5t-107.5 68.5t-128 24.5h-477v-684z" />
<glyph unicode="&#x421;" horiz-adv-x="1003" d="M102 465v491q0 100 33 185.5t95.5 149t153.5 99t206 35.5q102 0 186 -21.5t162 -72.5l-33 -45q-137 90 -315 90q-82 0 -160 -24.5t-139.5 -76.5t-98 -134t-36.5 -195v-475q0 -113 36.5 -195.5t97 -137t137.5 -81t155 -26.5q94 0 175 27.5t152 74.5l33 -43 q-53 -35 -141 -69.5t-211 -34.5q-119 0 -210 36.5t-152.5 101t-93.5 151.5t-32 190z" />
<glyph unicode="&#x422;" horiz-adv-x="1042" d="M37 1360v51h967v-51h-455v-1360h-53v1360h-459z" />
<glyph unicode="&#x423;" horiz-adv-x="966" d="M31 1411h55l389 -993h4l389 993h58l-451 -1139q-33 -82 -64.5 -137t-68.5 -88t-78 -47t-92 -14h-39v53h33q35 0 66.5 7t60.5 27.5t54.5 56.5t49.5 91l56 131z" />
<glyph unicode="&#x424;" horiz-adv-x="1439" d="M102 643v207q0 100 35 192.5t107.5 163t184.5 113.5t265 45v61h51v-61q154 -2 265.5 -45t184.5 -113.5t107.5 -163t34.5 -192.5v-207q0 -102 -37.5 -196.5t-112.5 -165t-185.5 -113.5t-256.5 -45v-123h-51v123q-145 2 -255.5 45t-185.5 113.5t-113 165t-38 196.5z M156 647q0 -113 41 -201t112.5 -149t170 -94t214.5 -33v1145q-127 0 -227 -34t-169 -97.5t-105.5 -151.5t-36.5 -198v-187zM745 170q117 0 215.5 33t170 94t112.5 149.5t41 200.5v187q0 111 -37 198.5t-105.5 151t-169 97.5t-227.5 34v-1145z" />
<glyph unicode="&#x425;" horiz-adv-x="976" d="M25 0l434 725l-404 686h64l366 -633l367 633h63l-403 -686l436 -725h-63l-398 670l-399 -670h-63z" />
<glyph unicode="&#x426;" horiz-adv-x="1226" d="M113 0v1411h53v-1362h866v1362h55v-1362h99v-348h-53v299h-1020z" />
<glyph unicode="&#x427;" horiz-adv-x="1073" d="M70 985v426h53v-401q0 -92 15.5 -165t53 -123t101 -77t162.5 -27q117 0 233.5 37t218.5 107v649h54v-1411h-54v707q-125 -80 -246.5 -108t-207.5 -28q-80 0 -150 18.5t-122 64.5t-81.5 127t-29.5 204z" />
<glyph unicode="&#x428;" horiz-adv-x="1871" d="M113 0v1411h53v-1364h741v1364h54v-1364h743v1364h55v-1411h-1646z" />
<glyph unicode="&#x429;" horiz-adv-x="1898" d="M113 0v1411h53v-1362h741v1362h54v-1362h743v1362h55v-1362h99v-348h-54v299h-1691z" />
<glyph unicode="&#x42a;" horiz-adv-x="1353" d="M12 1358v53h420v-674h471q106 0 183 -31.5t126.5 -84t73 -119t23.5 -133.5q0 -102 -34 -173t-92.5 -114t-137 -62.5t-171.5 -19.5h-495v1358h-367zM432 51h459q76 0 141.5 16.5t114.5 54.5t76.5 98.5t27.5 148.5q0 66 -23.5 124t-68.5 101t-112.5 68.5t-153.5 25.5h-461 v-637z" />
<glyph unicode="&#x42b;" horiz-adv-x="1357" d="M113 0v1411h53v-674h471q106 0 183 -31.5t126 -84t72.5 -119t23.5 -133.5q0 -102 -33.5 -173t-92 -114t-137.5 -62.5t-171 -19.5h-495zM166 51h459q76 0 141 16.5t114.5 54.5t77 98.5t27.5 148.5q0 66 -23.5 124t-68.5 101t-112.5 68.5t-153.5 25.5h-461v-637zM1182 0 v1411h53v-1411h-53z" />
<glyph unicode="&#x42c;" horiz-adv-x="1087" d="M113 0v1411h53v-674h471q106 0 183 -31.5t126 -84t72.5 -119t23.5 -133.5q0 -102 -33.5 -173t-92 -114t-137.5 -62.5t-171 -19.5h-495zM166 51h459q76 0 141 16.5t114.5 54.5t77 98.5t27.5 148.5q0 66 -23.5 124t-68.5 101t-112.5 68.5t-153.5 25.5h-461v-637z" />
<glyph unicode="&#x42d;" horiz-adv-x="997" d="M27 90l32 45q72 -47 153 -73.5t175 -26.5q88 0 168 27.5t141.5 83t98 139.5t36.5 196v228h-595v49h595v188q0 113 -28.5 195t-80.5 134t-126 76.5t-164 24.5q-88 0 -176 -23.5t-160 -70.5l-30 45q86 53 176 76.5t190 23.5q125 0 212 -35.5t140.5 -99t77 -149.5t23.5 -187 v-481q0 -102 -32 -191t-95.5 -155t-158.5 -104.5t-220 -38.5q-123 0 -211 34.5t-141 69.5z" />
<glyph unicode="&#x42e;" horiz-adv-x="1425" d="M113 0v1411h53v-668h227v220q0 100 30 185t88 146.5t145 96t202 34.5q113 0 199 -34.5t145.5 -97t90 -147.5t30.5 -183v-517q0 -102 -29.5 -187t-89 -145.5t-146.5 -94t-200 -33.5q-115 0 -201 34.5t-145 97t-89 148.5t-30 189v241h-227v-696h-53zM446 459 q0 -113 36 -194t94.5 -133t132 -76.5t149.5 -24.5q88 0 164 26.5t131 79.5t86 133t31 189v487q0 111 -33 192t-89 134t-131 78.5t-159 25.5q-90 0 -166 -25.5t-130 -78.5t-85 -134t-31 -192v-487z" />
<glyph unicode="&#x42f;" horiz-adv-x="1159" d="M72 0l127 430q27 88 67.5 149.5t122.5 88.5q-74 18 -126 54t-85 83t-48 102.5t-15 110.5q0 72 22.5 142.5t68.5 125.5t118.5 90t171.5 35h551v-1411h-54v647h-456q-47 0 -89 -9t-78 -36t-67 -72t-51 -114l-125 -416h-55zM172 1018q0 -80 28.5 -140.5t77 -100.5t111 -59.5 t131.5 -19.5h473v662h-497q-68 0 -126.5 -23.5t-102.5 -68.5t-69.5 -107.5t-25.5 -142.5z" />
<glyph unicode="&#x430;" horiz-adv-x="923" d="M61 262q0 78 30 131t76 87t104.5 49.5t113.5 15.5h395v112q0 170 -79.5 239t-229.5 69q-84 0 -158.5 -21.5t-152.5 -71.5l-31 43q78 47 159 73t185 26q106 0 175 -25.5t110 -70t57 -105.5t16 -133v-680h-36l-15 139q-80 -53 -142.5 -82.5t-111.5 -46t-87 -20.5t-66 -4 q-137 0 -224.5 68.5t-87.5 207.5zM115 262q0 -61 21.5 -104t56 -71t82 -41t100.5 -13q47 0 99 14t105.5 36.5t104.5 51.5t96 58v305h-358q-45 0 -99.5 -7.5t-100.5 -32t-76.5 -70.5t-30.5 -126z" />
<glyph unicode="&#x431;" horiz-adv-x="954" d="M92 348v244q0 80 3 158.5t15.5 152.5t36 141.5t64.5 126.5q29 41 71 76t91 63.5t102 51t107 41.5q45 16 88 31.5t82 31.5l18 -41q-53 -23 -106.5 -40t-102.5 -35q-121 -45 -197.5 -94.5t-121.5 -116t-65.5 -153.5t-33.5 -206h7q25 47 64.5 83t85.5 59.5t97.5 36 t98.5 12.5q174 0 270 -93.5t96 -256.5v-269q0 -168 -105.5 -267t-291.5 -99q-88 0 -157.5 26.5t-117 74.5t-73 114.5t-25.5 146.5zM143 365q0 -90 27 -154t71 -103.5t103 -58t125 -18.5q76 0 138.5 19.5t108.5 60.5t71.5 103t25.5 151v227q0 90 -25.5 153.5t-68.5 103.5 t-102.5 57.5t-127.5 17.5q-61 0 -122.5 -21.5t-111.5 -64.5t-81 -109.5t-31 -157.5v-206z" />
<glyph unicode="&#x432;" horiz-adv-x="931" d="M102 0v1001h435q80 0 136 -20t92 -55t52.5 -80t16.5 -96q0 -31 -7.5 -63t-26 -61.5t-51 -55t-83.5 -42.5q51 -18 86.5 -48.5t57 -66.5t31 -75t9.5 -72q0 -111 -75 -188.5t-216 -77.5h-457zM152 45h393q51 0 98 13.5t82 41t55.5 69.5t20.5 97q0 53 -20.5 97.5t-55.5 75 t-82 48t-98 17.5h-393v-459zM152 553h387q43 0 86 11t77.5 36t56 61.5t21.5 88.5q0 55 -21.5 94t-56 62.5t-82 34.5t-96.5 11h-372v-399z" />
<glyph unicode="&#x433;" horiz-adv-x="794" d="M102 0v999h689v-49h-637v-950h-52z" />
<glyph unicode="&#x434;" horiz-adv-x="1062" d="M20 45h80q33 31 60.5 74t47 104.5t33 144.5t17.5 195l18 441h650v-959h75v-291h-49v246h-884v-246h-48v291zM168 45h709v911h-553l-21 -413q-10 -176 -41 -300t-94 -198z" />
<glyph unicode="&#x435;" horiz-adv-x="935" d="M102 352v293q0 82 29 150.5t80 117t121.5 75t154.5 26.5q80 0 147.5 -24.5t117 -71t76 -112t26.5 -144.5v-185h-700v-108q0 -96 28.5 -161t75.5 -105t107.5 -57t123.5 -17q100 0 168 31.5t115 78.5l33 -37q-57 -55 -136 -85.5t-184 -30.5q-86 0 -155.5 23.5t-120.5 70.5 t-79 114.5t-28 157.5zM154 524h649v109q0 92 -29 155.5t-74 103.5t-101.5 58.5t-111.5 18.5q-59 0 -119.5 -19.5t-107.5 -60.5t-76.5 -105.5t-29.5 -156.5v-103z" />
<glyph unicode="&#x436;" horiz-adv-x="1351" d="M41 0l98 330q20 76 52 128t104 70q-59 16 -90 67.5t-53 125.5l-91 283h50l98 -306q31 -92 84 -121.5t113 -29.5h245v457h49v-457h246q59 0 112.5 29.5t84.5 121.5l98 306h49l-90 -283q-23 -74 -53.5 -125t-89.5 -68q37 -10 61.5 -27.5t42 -43t29.5 -58t22 -69.5l99 -330 h-51l-99 336q-29 100 -79 132t-124 32h-258v-500h-49v500h-258q-74 0 -124 -32t-79 -132l-98 -336h-51z" />
<glyph unicode="&#x437;" horiz-adv-x="827" d="M27 82l30 39q53 -35 127 -61.5t164 -26.5q63 0 118.5 17.5t97.5 48t65.5 74.5t23.5 99t-20.5 96.5t-54 70t-74.5 43t-82 14.5h-139v47h137q29 0 67.5 12t72.5 37.5t57.5 66.5t23.5 99q0 55 -24.5 95t-63.5 65.5t-86 38t-92 12.5q-84 0 -156 -24.5t-121 -59.5l-30 41 q84 51 156.5 69.5t160.5 18.5q61 0 117.5 -15.5t99.5 -47t68.5 -80t25.5 -111.5q0 -74 -44 -141.5t-130 -96.5q51 -18 86 -47t56.5 -62.5t31 -69.5t9.5 -67q0 -66 -27 -119t-75 -89.5t-113.5 -57t-141.5 -20.5q-117 0 -192.5 29.5t-128.5 62.5z" />
<glyph unicode="&#x438;" horiz-adv-x="968" d="M102 0v999h50v-929l665 929h49v-999h-47v924l-661 -924h-56z" />
<glyph unicode="&#x439;" horiz-adv-x="968" d="M102 0v999h50v-929l665 929h49v-999h-47v924l-661 -924h-56zM227 1358h45q16 -80 74.5 -120t124.5 -40q63 0 118.5 32t80.5 128h45q-6 -37 -23.5 -75t-48.5 -66.5t-74 -47t-98 -18.5t-98 18.5t-74 47t-48.5 66.5t-23.5 75z" />
<glyph unicode="&#x43a;" horiz-adv-x="954" d="M150 0v1004h49v-457h319q57 0 109.5 30.5t87.5 120.5l119 306h49l-111 -283q-29 -72 -56.5 -124t-86.5 -69q37 -10 60.5 -27.5t39.5 -44t29.5 -58t25.5 -68.5l119 -330h-51l-119 336q-35 100 -82 132t-121 32h-331v-500h-49z" />
<glyph unicode="&#x43b;" horiz-adv-x="931" d="M12 4q43 35 79 79t61.5 108.5t40 154.5t14.5 217v436h622v-999h-51v952h-522v-434q0 -111 -14.5 -196.5t-42 -151.5t-66.5 -115t-90 -88z" />
<glyph unicode="&#x43c;" horiz-adv-x="1140" d="M102 0v999h52l424 -776l415 776h45v-999h-49v891l-387 -727h-47l-401 733v-897h-52z" />
<glyph unicode="&#x43d;" horiz-adv-x="972" d="M102 0v999h50v-467h669v467h49v-999h-49v487h-669v-487h-50z" />
<glyph unicode="&#x43e;" horiz-adv-x="954" d="M92 348v316q0 80 31 144t83 110.5t121.5 71t149.5 24.5t150.5 -24.5t123 -71t82 -111t29.5 -143.5v-312q0 -168 -100.5 -267t-286.5 -99q-88 0 -158.5 26.5t-121 74.5t-77 114.5t-26.5 146.5zM143 365q0 -90 28 -154t75 -103.5t107.5 -58t125.5 -18.5q70 0 131.5 19.5 t106.5 60.5t70.5 103t25.5 151v270q0 90 -29.5 153.5t-78 103.5t-107.5 57.5t-119 17.5q-61 0 -121.5 -17.5t-107.5 -57.5t-77 -103.5t-30 -153.5v-270z" />
<glyph unicode="&#x43f;" horiz-adv-x="968" d="M102 0v1001h764v-1001h-49v954h-665v-954h-50z" />
<glyph unicode="&#x440;" horiz-adv-x="960" d="M102 -422v1417h35l15 -143q80 51 142 83t112.5 49t88 23.5t66.5 6.5q145 0 226 -82t81 -250v-352q0 -168 -92 -256t-260 -88q-31 0 -66.5 4t-79.5 15t-97.5 32.5t-120.5 56.5v-516h-50zM152 154q121 -66 209 -93.5t153 -27.5q160 0 232.5 81t72.5 240v301 q0 166 -66.5 239t-189.5 73q-76 0 -185.5 -46.5t-225.5 -125.5v-641z" />
<glyph unicode="&#x441;" horiz-adv-x="819" d="M102 356v303q0 80 27 145.5t77 113t120.5 73t158.5 25.5q74 0 152 -19.5t135 -62.5l-33 -45q-53 41 -122.5 60.5t-122.5 19.5q-66 0 -126.5 -17.5t-107.5 -57.5t-75.5 -103.5t-28.5 -153.5v-268q0 -88 28.5 -150.5t75.5 -102.5t107.5 -59.5t121.5 -19.5q27 0 60 4 t67.5 13t68.5 22.5t58 29.5l27 -43q-59 -37 -135 -55t-150 -18q-90 0 -161.5 27.5t-120.5 75.5t-75 115.5t-26 147.5z" />
<glyph unicode="&#x442;" horiz-adv-x="821" d="M31 950v49h760v-49h-355v-950h-49v950h-356z" />
<glyph unicode="&#x443;" horiz-adv-x="837" d="M12 999h51l345 -958l356 958h49l-518 -1405h-53l145 406l-41 51z" />
<glyph unicode="&#x444;" horiz-adv-x="1171" d="M92 385v260q0 84 31 156.5t91 126t147.5 84t199.5 30.5v367h49v-367q111 0 198 -30.5t147.5 -84t92 -126t31.5 -156.5v-254q0 -84 -32.5 -157.5t-94 -128t-148.5 -86t-194 -31.5v-410h-49v410q-106 0 -193 30.5t-148.5 84t-94.5 126t-33 156.5zM145 420 q0 -80 22.5 -147.5t73 -119t129.5 -82t191 -32.5v952q-117 -4 -196.5 -34.5t-129 -81t-70 -118t-20.5 -147.5v-190zM610 39q111 2 190 32.5t129 81t73.5 119t23.5 148.5v190q0 80 -23.5 148.5t-73.5 120t-129 82t-190 30.5v-952z" />
<glyph unicode="&#x445;" horiz-adv-x="788" d="M27 0l331 512l-317 489h63l285 -446l289 446h63l-321 -489l336 -512h-66l-301 467l-297 -467h-65z" />
<glyph unicode="&#x446;" horiz-adv-x="997" d="M102 0v999h50v-954h669v954h49v-954h76v-291h-49v246h-795z" />
<glyph unicode="&#x447;" horiz-adv-x="845" d="M53 694v305h49v-286q0 -127 62.5 -198t210.5 -71q90 0 173 26t161 73v456h51v-999h-51v489q-88 -53 -179.5 -72.5t-156.5 -19.5q-55 0 -112.5 13.5t-103.5 47.5t-75 91t-29 145z" />
<glyph unicode="&#x448;" horiz-adv-x="1497" d="M102 0v999h50v-954h569v954h51v-954h574v954h49v-999h-1293z" />
<glyph unicode="&#x449;" horiz-adv-x="1521" d="M127 0v999h51v-954h567v954h52v-954h573v954h49v-954h76v-291h-49v246h-1319z" />
<glyph unicode="&#x44a;" horiz-adv-x="1067" d="M10 948v51h336v-471h375q84 0 141.5 -23.5t92 -60t50 -84t15.5 -96.5q0 -137 -88 -200.5t-236 -63.5h-399v948h-287zM346 49h363q119 0 188.5 51.5t69.5 163.5q0 96 -63.5 156.5t-192.5 60.5h-365v-432z" />
<glyph unicode="&#x44b;" horiz-adv-x="1089" d="M102 0v999h50v-471h374q84 0 141.5 -23.5t92.5 -60t50 -84t15 -96.5q0 -137 -88 -200.5t-235 -63.5h-400zM152 49h362q119 0 188.5 51.5t69.5 163.5q0 96 -63.5 156.5t-192.5 60.5h-364v-432zM936 0v999h51v-999h-51z" />
<glyph unicode="&#x44c;" horiz-adv-x="868" d="M102 0v999h50v-471h374q84 0 141.5 -23.5t92.5 -60t50 -84t15 -96.5q0 -137 -88 -200.5t-235 -63.5h-400zM152 49h362q119 0 188.5 51.5t69.5 163.5q0 96 -63.5 156.5t-192.5 60.5h-364v-432z" />
<glyph unicode="&#x44d;" horiz-adv-x="792" d="M33 63l26 43q25 -16 59 -29.5t68.5 -22.5t67.5 -13t59 -4q70 0 130.5 19.5t105.5 59.5t71.5 102.5t26.5 150.5v120h-463v52h463v108q0 90 -20.5 151.5t-60.5 98.5t-96 53.5t-126 16.5q-27 0 -60.5 -5.5t-69.5 -15.5t-69.5 -24.5t-62.5 -34.5l-31 41q66 45 147 65.5 t154 20.5q182 0 265 -92.5t83 -251.5v-316q0 -80 -25.5 -147.5t-74.5 -115.5t-121 -75.5t-162 -27.5q-74 0 -149.5 18.5t-134.5 54.5z" />
<glyph unicode="&#x44e;" horiz-adv-x="1144" d="M102 0v999h52v-467h170v132q0 80 27.5 144t75.5 110.5t114.5 71t146.5 24.5t147.5 -24.5t115.5 -71t75 -111t27 -143.5v-312q0 -168 -90.5 -267t-276.5 -99q-178 0 -270 101t-92 261v139h-170v-487h-52zM375 365q0 -90 24.5 -154t67.5 -103.5t100.5 -58t122.5 -18.5 q141 0 227.5 78.5t86.5 255.5v270q0 90 -27 153.5t-71 103.5t-100 57.5t-116 17.5q-61 0 -118.5 -17.5t-100.5 -57.5t-69.5 -103.5t-26.5 -153.5v-270z" />
<glyph unicode="&#x44f;" horiz-adv-x="915" d="M51 0l94 311q18 59 44 100.5t81 65.5q-94 27 -142 96.5t-48 153.5q0 55 17.5 104.5t54 88t93 61.5t134.5 23h434v-1004h-47v457h-387q-66 -4 -112 -35t-74 -123l-91 -299h-51zM131 727q0 -55 20.5 -96t54.5 -68.5t78 -42t91 -14.5h391v448h-387q-51 0 -96 -13t-79 -42 t-53.5 -72t-19.5 -100z" />
<glyph unicode="&#x451;" horiz-adv-x="935" d="M102 352v293q0 82 29 150.5t80 117t121.5 75t154.5 26.5q80 0 147.5 -24.5t117 -71t76 -112t26.5 -144.5v-185h-700v-108q0 -96 28.5 -161t75.5 -105t107.5 -57t123.5 -17q100 0 168 31.5t115 78.5l33 -37q-57 -55 -136 -85.5t-184 -30.5q-86 0 -155.5 23.5t-120.5 70.5 t-79 114.5t-28 157.5zM154 524h649v109q0 92 -29 155.5t-74 103.5t-101.5 58.5t-111.5 18.5q-59 0 -119.5 -19.5t-107.5 -60.5t-76.5 -105.5t-29.5 -156.5v-103zM274 1343q0 20 14.5 35t33.5 15q20 0 34.5 -15t14.5 -35t-14.5 -34.5t-34.5 -14.5q-18 0 -33 14.5t-15 34.5z M592 1343q0 20 14.5 35t32.5 15q20 0 34.5 -15t14.5 -35t-14.5 -34.5t-34.5 -14.5q-18 0 -32.5 14.5t-14.5 34.5z" />
<glyph unicode="&#x452;" horiz-adv-x="997" d="M10 1194v45h117v227h51v-227h496v-45h-496v-356q150 94 251 130t167 36q152 0 225.5 -80t73.5 -254v-424q0 -168 -100.5 -267.5t-286.5 -99.5v51q152 0 245 77t93 253l-2 385q0 166 -61.5 237.5t-192.5 71.5q-41 0 -91 -14t-104.5 -38.5t-110 -55.5t-106.5 -64v-782h-51 v1194h-117z" />
<glyph unicode="&#x453;" horiz-adv-x="794" d="M102 0v999h689v-49h-637v-950h-52zM375 1182l168 291l65 -33l-202 -275z" />
<glyph unicode="&#x454;" horiz-adv-x="802" d="M92 356v303q0 80 26.5 145.5t77 113t121 73t158.5 25.5q74 0 152 -19.5t135 -62.5l-33 -45q-53 41 -122.5 60.5t-123.5 19.5q-66 0 -126 -17.5t-107 -57.5t-76 -103.5t-29 -153.5v-96h437v-52h-437v-120q0 -88 29 -150.5t76 -102.5t107.5 -59.5t121.5 -19.5q27 0 59.5 4 t67.5 13t69 22.5t58 29.5l27 -43q-59 -37 -135 -55t-150 -18q-90 0 -161.5 27.5t-121 75.5t-75 115.5t-25.5 147.5z" />
<glyph unicode="&#x455;" horiz-adv-x="882" d="M88 84l29 41q74 -49 157 -73.5t185 -24.5q49 0 102 11t97 37.5t73 72t29 114.5q0 63 -29 103.5t-73 65t-99 36.5t-106 20q-59 8 -122 22.5t-116 42.5t-87 73t-34 116q0 57 21.5 107.5t64.5 87.5t105.5 58.5t144.5 21.5q100 0 179 -17.5t143 -58.5l-27 -39 q-63 35 -133 53.5t-154 18.5q-133 0 -213 -61.5t-80 -172.5q0 -51 25 -84.5t68 -57.5t104 -38t135 -27q59 -10 118.5 -24t108 -44t78 -79t29.5 -125q0 -57 -22.5 -107.5t-66.5 -87t-109.5 -58t-151.5 -21.5q-96 0 -191.5 19.5t-181.5 78.5z" />
<glyph unicode="&#x456;" horiz-adv-x="385" d="M145 1343q0 20 14.5 35t33.5 15q20 0 34.5 -15t14.5 -35t-14.5 -34.5t-34.5 -14.5q-18 0 -33 14.5t-15 34.5zM166 0v1001h51v-1001h-51z" />
<glyph unicode="&#x457;" horiz-adv-x="385" d="M-16 1343q0 20 14 35t33 15q20 0 34.5 -15t14.5 -35t-14.5 -34.5t-34.5 -14.5q-18 0 -32.5 14.5t-14.5 34.5zM166 0v1001h51v-1001h-51zM301 1343q0 20 14.5 35t32.5 15q20 0 34.5 -15t14.5 -35t-14 -34.5t-35 -14.5q-18 0 -32.5 14.5t-14.5 34.5z" />
<glyph unicode="&#x458;" horiz-adv-x="425" d="M-10 -387h55q82 0 117 41t35 145v1202h51v-1214q0 -113 -45 -166t-148 -53h-65v45zM176 1343q0 20 14.5 35t32.5 15q20 0 34.5 -15t14.5 -35t-14 -34.5t-35 -14.5q-18 0 -32.5 14.5t-14.5 34.5z" />
<glyph unicode="&#x459;" horiz-adv-x="1433" d="M14 4q43 35 79 79t61.5 108.5t40 154.5t14.5 217v436h493v-471h375q84 0 141.5 -23.5t92.5 -60t50 -84t15 -96.5q0 -137 -88 -200.5t-235 -63.5h-402v952h-393v-434q0 -111 -14.5 -196.5t-42 -151.5t-66.5 -115t-90 -88zM702 49h363q119 0 188.5 51.5t69.5 163.5 q0 96 -63.5 156.5t-192.5 60.5h-365v-432z" />
<glyph unicode="&#x45a;" horiz-adv-x="1433" d="M102 0v999h50v-473h510v473h49v-471h376q84 0 141.5 -23.5t92.5 -60t50 -84t15 -96.5q0 -137 -88 -200.5t-235 -63.5h-401v481h-510v-481h-50zM711 49h364q119 0 188.5 51.5t69.5 163.5q0 96 -63.5 156.5t-192.5 60.5h-366v-432z" />
<glyph unicode="&#x45b;" horiz-adv-x="997" d="M10 1194v45h117v227h51v-227h496v-45h-496v-356q150 94 251 130t167 36q152 0 225.5 -80t73.5 -254v-670h-51v645q0 166 -61.5 237.5t-192.5 71.5q-41 0 -91 -14t-104.5 -38.5t-110 -55.5t-106.5 -64v-782h-51v1194h-117z" />
<glyph unicode="&#x45c;" horiz-adv-x="954" d="M150 0v1004h49v-457h319q57 0 109.5 30.5t87.5 120.5l119 306h49l-111 -283q-29 -72 -56.5 -124t-86.5 -69q37 -10 60.5 -27.5t39.5 -44t29.5 -58t25.5 -68.5l119 -330h-51l-119 336q-35 100 -82 132t-121 32h-331v-500h-49zM432 1182l168 291l66 -33l-203 -275z" />
<glyph unicode="&#x45e;" horiz-adv-x="837" d="M12 999h51l345 -958l356 958h49l-518 -1405h-53l145 406l-41 51zM174 1358h45q16 -80 74.5 -120t124.5 -40q63 0 118.5 32t79.5 128h46q-6 -37 -23.5 -75t-48.5 -66.5t-74 -47t-98 -18.5t-98.5 18.5t-74 47t-48 66.5t-23.5 75z" />
<glyph unicode="&#x45f;" horiz-adv-x="972" d="M102 0v999h50v-954h669v954h49v-999h-366v-256h-53v256h-349z" />
<glyph unicode="&#x490;" horiz-adv-x="1021" d="M121 0v1411h844v242h47v-293h-838v-1360h-53z" />
<glyph unicode="&#x491;" horiz-adv-x="770" d="M92 0v999h643v215h45v-264h-637v-950h-51z" />
<glyph unicode="&#x4d9;" horiz-adv-x="935" d="M102 338v184h701v109q0 94 -26.5 159.5t-70.5 105.5t-102.5 57.5t-122.5 17.5q-100 0 -175 -32t-122 -79l-32 37q57 55 142 86t189 31q172 0 271.5 -93.5t99.5 -273.5v-293q0 -84 -28.5 -151.5t-80 -115.5t-122 -74.5t-154.5 -26.5q-80 0 -147.5 24.5t-116.5 70.5 t-76 111.5t-27 145.5zM154 367q0 -92 28.5 -157t73.5 -104.5t101.5 -57t111.5 -17.5q59 0 118.5 19.5t107.5 60.5t78 105.5t30 156.5v102h-649v-108z" />
<glyph unicode="&#x1e80;" horiz-adv-x="1691" d="M23 1411h57l358 -1360l367 1360h57l367 -1356l358 1356h55l-378 -1411h-74l-356 1323l-357 -1323h-74zM598 1724l49 54l264 -207l-22 -27z" />
<glyph unicode="&#x1e81;" horiz-adv-x="1341" d="M8 1004h55l287 -943l291 854h59l291 -854l287 943h55l-307 -1004h-63l-293 840l-291 -840h-64zM479 1440l66 33l168 -291l-31 -17z" />
<glyph unicode="&#x1e82;" horiz-adv-x="1691" d="M23 1411h57l358 -1360l367 1360h57l367 -1356l358 1356h55l-378 -1411h-74l-356 1323l-357 -1323h-74zM776 1509l264 207l50 -53l-291 -180z" />
<glyph unicode="&#x1e83;" horiz-adv-x="1341" d="M8 1004h55l287 -943l291 854h59l291 -854l287 943h55l-307 -1004h-63l-293 840l-291 -840h-64zM643 1182l168 291l66 -33l-203 -275z" />
<glyph unicode="&#x1e84;" horiz-adv-x="1691" d="M23 1411h57l358 -1360l367 1360h57l367 -1356l358 1356h55l-378 -1411h-74l-356 1323l-357 -1323h-74zM625 1581q0 20 14 34.5t33 14.5q20 0 34.5 -14.5t14.5 -34.5t-14.5 -34.5t-34.5 -14.5q-18 0 -32.5 14.5t-14.5 34.5zM942 1581q0 20 14.5 34.5t32.5 14.5 q20 0 34.5 -14.5t14.5 -34.5t-14 -34.5t-35 -14.5q-18 0 -32.5 14.5t-14.5 34.5z" />
<glyph unicode="&#x1e85;" horiz-adv-x="1341" d="M8 1004h55l287 -943l291 854h59l291 -854l287 943h55l-307 -1004h-63l-293 840l-291 -840h-64zM463 1350q0 20 14.5 34.5t32.5 14.5q20 0 34.5 -14.5t14.5 -34.5t-14.5 -35t-34.5 -15q-18 0 -32.5 14.5t-14.5 35.5zM780 1350q0 20 14.5 34.5t32.5 14.5q20 0 35 -14.5 t15 -34.5t-14.5 -35t-35.5 -15q-18 0 -32.5 14.5t-14.5 35.5z" />
<glyph unicode="&#x1ef2;" horiz-adv-x="956" d="M27 1411h59l393 -819l389 819h58l-420 -879v-532h-53v528zM256 1663l49 53l264 -207l-22 -26z" />
<glyph unicode="&#x1ef3;" horiz-adv-x="837" d="M12 999h51l345 -958l356 958h49l-518 -1405h-53l145 406l-41 51zM242 1440l65 33l168 -291l-31 -17z" />
<glyph unicode="&#x2000;" horiz-adv-x="935" />
<glyph unicode="&#x2001;" horiz-adv-x="1870" />
<glyph unicode="&#x2002;" horiz-adv-x="935" />
<glyph unicode="&#x2003;" horiz-adv-x="1870" />
<glyph unicode="&#x2004;" horiz-adv-x="623" />
<glyph unicode="&#x2005;" horiz-adv-x="467" />
<glyph unicode="&#x2006;" horiz-adv-x="311" />
<glyph unicode="&#x2007;" horiz-adv-x="311" />
<glyph unicode="&#x2008;" horiz-adv-x="233" />
<glyph unicode="&#x2009;" horiz-adv-x="374" />
<glyph unicode="&#x200a;" horiz-adv-x="103" />
<glyph unicode="&#x2010;" horiz-adv-x="735" d="M111 518v53h514v-53h-514z" />
<glyph unicode="&#x2011;" horiz-adv-x="735" d="M111 518v53h514v-53h-514z" />
<glyph unicode="&#x2012;" horiz-adv-x="735" d="M111 518v53h514v-53h-514z" />
<glyph unicode="&#x2013;" horiz-adv-x="1003" d="M41 512v51h922v-51h-922z" />
<glyph unicode="&#x2014;" horiz-adv-x="2027" d="M41 512v51h1946v-51h-1946z" />
<glyph unicode="&#x2015;" horiz-adv-x="2027" d="M41 512v51h1946v-51h-1946z" />
<glyph unicode="&#x2018;" horiz-adv-x="382" d="M141 1264q0 47 31 97t80 79l16 -23q-35 -27 -52 -61.5t-17 -69.5q33 4 55 -9t22 -46q0 -29 -19 -43t-44 -14q-29 0 -50.5 21.5t-21.5 68.5z" />
<glyph unicode="&#x2019;" horiz-adv-x="382" d="M141 1382q0 29 19.5 43.5t44.5 14.5q29 0 50 -21.5t21 -68.5t-30.5 -97.5t-79.5 -78.5l-16 22q35 27 52 61.5t17 69.5q-33 -4 -55.5 9.5t-22.5 45.5z" />
<glyph unicode="&#x201a;" horiz-adv-x="358" d="M119 47q0 29 19.5 43t43.5 14q29 0 50.5 -21.5t21.5 -68.5t-30.5 -97t-80.5 -79l-16 23q35 27 52.5 61.5t17.5 69.5q-33 -4 -55.5 9t-22.5 46z" />
<glyph unicode="&#x201c;" horiz-adv-x="614" d="M141 1264q0 47 31 97t80 79l16 -23q-35 -27 -52 -61.5t-17 -69.5q33 4 55 -9t22 -46q0 -29 -19 -43t-44 -14q-29 0 -50.5 21.5t-21.5 68.5zM360 1264q0 47 31 97t80 79l16 -23q-35 -27 -52 -61.5t-17 -69.5q33 4 55.5 -9t22.5 -46q0 -29 -19.5 -43t-44.5 -14 q-29 0 -50.5 21.5t-21.5 68.5z" />
<glyph unicode="&#x201d;" horiz-adv-x="614" d="M143 1382q0 29 19.5 43.5t44.5 14.5q29 0 50.5 -21.5t21.5 -68.5t-31 -97.5t-80 -78.5l-16 22q35 27 52 61.5t17 69.5q-33 -4 -55.5 9.5t-22.5 45.5zM362 1382q0 29 19.5 43.5t44.5 14.5q29 0 50.5 -21.5t21.5 -68.5t-31 -97.5t-80 -78.5l-16 22q35 27 52 61.5t17 69.5 q-33 -4 -55.5 9.5t-22.5 45.5z" />
<glyph unicode="&#x201e;" horiz-adv-x="616" d="M125 47q0 29 19.5 43t43.5 14q29 0 50.5 -21.5t21.5 -68.5t-30.5 -97t-79.5 -79l-17 23q35 27 52.5 61.5t17.5 69.5q-33 -4 -55.5 9t-22.5 46zM369 47q0 29 19.5 43t43.5 14q29 0 50.5 -21.5t21.5 -68.5t-31 -97t-80 -79l-16 23q35 27 52 61.5t17 69.5q-33 -4 -55 9 t-22 46z" />
<glyph unicode="&#x2020;" horiz-adv-x="897" d="M47 864v58h371v503h59v-503h373v-58h-373v-1270h-59v1270h-371z" />
<glyph unicode="&#x2021;" horiz-adv-x="897" d="M47 217v57h371v590h-371v58h371v503h59v-503h373v-58h-373v-590h373v-57h-373v-623h-59v623h-371z" />
<glyph unicode="&#x2022;" horiz-adv-x="671" d="M195 565q0 63 43 107.5t104 44.5q59 0 102 -44t43 -108q0 -63 -43 -106t-102 -43q-61 0 -104 44t-43 105z" />
<glyph unicode="&#x2023;" horiz-adv-x="708" d="M166 299v514l477 -246z" />
<glyph unicode="&#x2026;" horiz-adv-x="1175" d="M113 53q0 23 17 40.5t46 17.5q23 0 43.5 -17.5t20.5 -40.5q0 -29 -18.5 -46t-43.5 -17q-29 0 -47 17t-18 46zM532 53q0 23 17.5 40.5t46.5 17.5q23 0 43 -17.5t20 -40.5q0 -29 -18 -46t-43 -17q-29 0 -47.5 17t-18.5 46zM956 53q0 23 18.5 40.5t45.5 17.5q23 0 43 -17.5 t20 -40.5q0 -29 -17 -46t-44 -17t-46.5 17t-19.5 46z" />
<glyph unicode="&#x202f;" horiz-adv-x="374" />
<glyph unicode="&#x2030;" horiz-adv-x="2164" d="M96 788v416q0 45 19.5 85t55.5 70t84 47t105 17q59 0 107.5 -17t83.5 -47t53.5 -70t18.5 -85v-418q0 -92 -73 -155.5t-190 -63.5q-59 0 -108 17.5t-84 48.5t-53.5 70.5t-18.5 84.5zM145 797q0 -51 20.5 -86t53.5 -56.5t70 -32t71 -10.5q33 0 71 10.5t69.5 32t53 56 t21.5 86.5v395q0 51 -21.5 87t-53 57.5t-69.5 30.5t-71 9q-35 0 -71.5 -9t-69.5 -30.5t-53.5 -57.5t-20.5 -87v-395zM305 -35l866 1497h56l-871 -1497h-51zM911 213v416q0 45 19.5 85t55.5 69.5t84 47t106 17.5q59 0 107 -17.5t83 -47t53.5 -69.5t18.5 -85v-418 q0 -92 -72.5 -155.5t-189.5 -63.5q-59 0 -108.5 17.5t-84.5 48t-53.5 70.5t-18.5 85zM961 221q0 -51 20 -86t53 -56.5t70 -31.5t72 -10q33 0 70.5 10t69.5 31.5t53.5 56.5t21.5 86v395q0 51 -21.5 87t-53.5 57.5t-70 31t-70 9.5q-35 0 -72 -9.5t-70 -31t-53 -57t-20 -87.5 v-395zM1542 213v416q0 45 19.5 85t55.5 69.5t84 47t105 17.5q59 0 107.5 -17.5t83.5 -47t53 -69.5t18 -85v-418q0 -92 -72.5 -155.5t-189.5 -63.5q-59 0 -108 17.5t-84 48t-53.5 70.5t-18.5 85zM1591 221q0 -51 20.5 -86t53.5 -56.5t70 -31.5t71 -10q33 0 71 10t69.5 31.5 t53 56.5t21.5 86v395q0 51 -21.5 87t-53 57.5t-69.5 31t-71 9.5q-35 0 -71.5 -9.5t-69.5 -31t-53.5 -57t-20.5 -87.5v-395z" />
<glyph unicode="&#x2039;" horiz-adv-x="540" d="M147 434l232 338h55l-225 -338l225 -340h-59z" />
<glyph unicode="&#x203a;" horiz-adv-x="540" d="M147 94l226 340l-226 338h56l231 -338l-227 -340h-60z" />
<glyph unicode="&#x2044;" horiz-adv-x="307" d="M-307 -35l866 1497h55l-870 -1497h-51z" />
<glyph unicode="&#x205f;" horiz-adv-x="467" />
<glyph unicode="&#x2070;" horiz-adv-x="612" d="M43 973v416q0 45 19.5 84.5t55.5 69.5t84 47.5t105 17.5q59 0 107.5 -17.5t83 -47.5t53 -69.5t18.5 -84.5v-418q0 -92 -72.5 -155.5t-189.5 -63.5q-59 0 -108 17t-84 48t-53.5 71t-18.5 85zM92 981q0 -51 20.5 -86t53.5 -56.5t69.5 -31.5t71.5 -10q33 0 71 10t69.5 31.5 t53 56.5t21.5 86v395q0 51 -21.5 87t-53 57.5t-69.5 31t-71 9.5q-35 0 -71.5 -9.5t-69.5 -31t-53.5 -57.5t-20.5 -87v-395z" />
<glyph unicode="&#x2074;" horiz-adv-x="612" d="M31 897v41l319 661h51l-317 -657h362v266h52v-266h80v-45h-80v-137h-52v137h-415z" />
<glyph unicode="&#x2075;" horiz-adv-x="612" d="M53 838l31 30q88 -74 203 -73q35 0 74.5 7t72.5 27.5t54.5 55.5t21.5 88v125q0 82 -40 124t-114 42q-57 0 -126.5 -25t-129.5 -57l-41 16v401h476v-47h-429v-323q59 39 129 59.5t119 20.5q98 0 150.5 -54.5t52.5 -148.5v-141q0 -92 -70.5 -152.5t-199.5 -60.5 q-80 0 -139.5 28.5t-94.5 57.5z" />
<glyph unicode="&#x2076;" horiz-adv-x="612" d="M51 969v422q0 47 20.5 87t55.5 68.5t83 45t101 16.5q80 0 136.5 -26t91.5 -54l-35 -37q-35 33 -82 53.5t-111 20.5q-33 0 -69.5 -10.5t-68.5 -34t-52.5 -60.5t-20.5 -90v-194q86 47 152.5 70.5t107.5 23.5q98 0 150.5 -54.5t52.5 -148.5v-94q0 -47 -19.5 -87t-55 -70 t-83 -46t-102.5 -16q-109 0 -180.5 60t-71.5 155zM100 981q0 -49 19.5 -85t49.5 -57.5t65.5 -31.5t68.5 -10t71 10t69.5 31.5t52 57.5t20.5 85v78q0 84 -43 124t-111 40q-59 0 -127.5 -31t-134.5 -66v-145z" />
<glyph unicode="&#x2077;" horiz-adv-x="593" d="M43 1421v178h514v-45l-350 -794h-55l352 792h-412v-131h-49z" />
<glyph unicode="&#x2078;" horiz-adv-x="612" d="M41 983q0 25 8 54.5t27.5 58t50.5 53.5t76 41q-76 23 -115 80t-39 110t20.5 95.5t55.5 71t81 43t97 14.5t98.5 -14.5t82 -42t56 -68.5t21.5 -93q0 -55 -38 -112t-111 -82q43 -10 73.5 -34.5t49 -53.5t26.5 -59.5t8 -55.5q0 -57 -21.5 -101t-57 -75t-84 -46t-101.5 -15 q-49 0 -97 14t-85 44t-59.5 73t-22.5 100zM88 981q0 -84 61.5 -135t157.5 -51q94 0 154.5 50t60.5 138q0 84 -60.5 136t-156.5 52q-43 0 -82 -14t-69.5 -38.5t-48 -59.5t-17.5 -78zM96 1384q0 -39 17.5 -70.5t47 -55t66.5 -36t78 -12.5q39 0 76 12.5t66.5 35t48 54 t18.5 72.5q0 45 -18.5 79t-48 55.5t-67.5 32t-75 10.5t-74.5 -10.5t-67.5 -32t-48.5 -55t-18.5 -79.5z" />
<glyph unicode="&#x2079;" horiz-adv-x="612" d="M39 1294v95q0 45 19.5 86t55.5 69.5t83 46t102 17.5q53 0 100 -16.5t81 -44t53.5 -67.5t19.5 -85v-422q0 -47 -20.5 -88t-56.5 -70t-84 -45t-101 -16q-72 0 -129.5 23.5t-91.5 53.5l30 35q35 -29 82 -48t109 -19q37 0 74.5 10t68.5 32.5t50.5 58.5t19.5 89v195 q-90 -49 -154.5 -71.5t-107.5 -22.5q-98 0 -150.5 54t-52.5 150zM88 1303q0 -86 42 -126t110 -40q55 0 119.5 27.5t125.5 58.5q2 2 9.5 5t9.5 3v149q0 49 -19.5 84t-50.5 56.5t-66.5 32t-68.5 10.5t-69.5 -10.5t-68.5 -32t-52.5 -56t-20.5 -84.5v-77z" />
<glyph unicode="&#x207a;" horiz-adv-x="600" d="M29 1077v41h247v232h43v-232h248v-41h-248v-235h-43v235h-247z" />
<glyph unicode="&#x207b;" horiz-adv-x="477" d="M68 1067v45h342v-45h-342z" />
<glyph unicode="&#x207c;" horiz-adv-x="600" d="M29 958v41h538v-41h-538zM29 1159v41h538v-41h-538z" />
<glyph unicode="&#x207d;" horiz-adv-x="329" d="M90 1120q0 66 13.5 134.5t40 135t63.5 128t84 112.5l24 -16q-78 -111 -123 -236t-45 -250q0 -131 47.5 -261t122.5 -234l-20 -19q-43 49 -81 108.5t-65.5 125t-44 135.5t-16.5 137z" />
<glyph unicode="&#x207e;" horiz-adv-x="329" d="M33 629q76 106 123 235t47 260q0 125 -46 252t-124 238l22 14q47 -51 85 -112.5t63.5 -129t40 -136t14.5 -134.5q0 -68 -16.5 -136.5t-44 -135t-64.5 -126t-80 -106.5z" />
<glyph unicode="&#x207f;" horiz-adv-x="667" d="M66 575v658h38l11 -94q96 55 155.5 78.5t114.5 23.5q104 0 161.5 -52t57.5 -169v-445h-47v429q0 104 -45 148t-131 44q-53 0 -124 -30.5t-142 -78.5v-512h-49z" />
<glyph unicode="&#x2080;" horiz-adv-x="612" d="M43 29v415q0 45 19.5 85t55.5 70t84 47.5t105 17.5q59 0 107.5 -17.5t83 -47.5t53 -70t18.5 -85v-417q0 -92 -72.5 -156t-189.5 -64q-59 0 -108 17.5t-84 48.5t-53.5 71t-18.5 85zM92 37q0 -51 20.5 -86t53.5 -56.5t69.5 -31.5t71.5 -10q33 0 71 10t69.5 31.5t53 56.5 t21.5 86v395q0 51 -21.5 87t-53 57.5t-69.5 30.5t-71 9q-35 0 -71.5 -9t-69.5 -30.5t-53.5 -57.5t-20.5 -87v-395z" />
<glyph unicode="&#x2081;" horiz-adv-x="499" d="M82 522l194 133h46v-839h-50v778l-159 -113z" />
<glyph unicode="&#x2082;" horiz-adv-x="612" d="M43 -119q0 59 24.5 109.5t65.5 92.5t92 78t107 66q86 47 136 102.5t50 121.5q0 45 -18.5 75.5t-48 51t-69.5 29.5t-83 9q-66 0 -122 -20.5t-93 -46.5l-23 41q41 29 104.5 50.5t129.5 21.5q51 0 100 -11.5t88 -36t62.5 -63.5t23.5 -96q0 -76 -53 -139.5t-141 -114.5 q-43 -23 -92.5 -54.5t-91 -71.5t-68.5 -87t-27 -103v-24h471v-45h-524v65z" />
<glyph unicode="&#x2083;" horiz-adv-x="612" d="M23 -111q6 8 15 16.5t15 16.5q78 -72 207 -72q45 0 87 13.5t73 38t49 60.5t18 81q0 90 -53 136t-119 46h-108v45h106q23 0 51.5 10.5t53 32t42 56t17.5 82.5q0 45 -19.5 76.5t-48 51t-64.5 28.5t-66 9q-59 0 -111.5 -19t-93.5 -48l-29 35q59 37 115.5 56t122.5 19 q45 0 89 -12t78.5 -38.5t56 -65.5t21.5 -92q0 -59 -33.5 -118t-107.5 -83q84 -23 117 -83.5t33 -121.5q0 -53 -22.5 -97t-60.5 -75t-88.5 -48.5t-105.5 -17.5q-82 0 -139.5 24t-97.5 58z" />
<glyph unicode="&#x2084;" horiz-adv-x="612" d="M31 -6l319 661h51l-317 -657h362v266h52v-266h80v-45h-80v-137h-52v137h-415v41z" />
<glyph unicode="&#x2085;" horiz-adv-x="612" d="M53 -106l31 30q88 -74 203 -74q35 0 74.5 7.5t72.5 28t54.5 55t21.5 88.5v125q0 82 -40 123.5t-114 41.5q-57 0 -126.5 -24.5t-129.5 -56.5l-41 16v401h476v-47h-429v-323q59 39 129 59.5t119 20.5q98 0 150.5 -54.5t52.5 -148.5v-142q0 -92 -70.5 -152.5t-199.5 -60.5 q-80 0 -139.5 29t-94.5 58z" />
<glyph unicode="&#x2086;" horiz-adv-x="612" d="M51 25v421q0 47 20.5 87t55.5 69t83 45.5t101 16.5q80 0 136.5 -26t91.5 -54l-35 -37q-35 33 -82 53.5t-111 20.5q-33 0 -69.5 -10.5t-68.5 -34t-52.5 -60.5t-20.5 -90v-195q86 47 152.5 71t107.5 24q98 0 150.5 -54.5t52.5 -148.5v-94q0 -47 -19.5 -87t-55 -70t-83 -46 t-102.5 -16q-109 0 -180.5 60t-71.5 155zM100 37q0 -49 19.5 -85t49.5 -57.5t65.5 -31.5t68.5 -10t71 10t69.5 31.5t52 57.5t20.5 85v78q0 84 -43 124t-111 40q-59 0 -127.5 -31t-134.5 -66v-145z" />
<glyph unicode="&#x2087;" horiz-adv-x="593" d="M43 477v178h514v-45l-350 -794h-55l352 792h-412v-131h-49z" />
<glyph unicode="&#x2088;" horiz-adv-x="612" d="M41 39q0 25 8 54.5t27.5 58t50.5 53t76 41.5q-76 23 -115 80t-39 110t20.5 95t55.5 71t81 43t97 14t98.5 -14t82 -42t56 -68.5t21.5 -92.5q0 -55 -38 -112.5t-111 -81.5q43 -10 73.5 -35t49 -53.5t26.5 -59t8 -55.5q0 -57 -21.5 -101t-57 -75t-84 -46.5t-101.5 -15.5 q-49 0 -97 14.5t-85 44.5t-59.5 73t-22.5 100zM88 37q0 -84 61.5 -135.5t157.5 -51.5q94 0 154.5 50.5t60.5 138.5q0 84 -60.5 136t-156.5 52q-43 0 -82 -14t-69.5 -38.5t-48 -59.5t-17.5 -78zM96 440q0 -39 17.5 -70.5t47 -55t66.5 -36t78 -12.5q39 0 76 12.5t66.5 35 t48 54t18.5 72.5q0 45 -18.5 79t-48 55.5t-67.5 31.5t-75 10t-74.5 -10t-67.5 -31.5t-48.5 -55.5t-18.5 -79z" />
<glyph unicode="&#x2089;" horiz-adv-x="612" d="M39 350v94q0 45 19.5 86t55.5 70t83 46.5t102 17.5q53 0 100 -16.5t81 -44.5t53.5 -67.5t19.5 -84.5v-422q0 -47 -20.5 -88t-56.5 -70t-84 -45t-101 -16q-72 0 -129.5 23.5t-91.5 53.5l30 35q35 -29 82 -48t109 -19q37 0 74.5 10t68.5 32.5t50.5 58.5t19.5 89v195 q-90 -49 -154.5 -72t-107.5 -23q-98 0 -150.5 54.5t-52.5 150.5zM88 358q0 -86 42 -125.5t110 -39.5q55 0 119.5 27.5t125.5 58.5q2 2 9.5 5t9.5 3v149q0 49 -19.5 84t-50.5 56.5t-66.5 31.5t-68.5 10t-69.5 -10t-68.5 -31.5t-52.5 -56.5t-20.5 -84v-78z" />
<glyph unicode="&#x208a;" horiz-adv-x="600" d="M29 129v41h247v231h43v-231h248v-41h-248v-235h-43v235h-247z" />
<glyph unicode="&#x208b;" horiz-adv-x="477" d="M68 119v45h342v-45h-342z" />
<glyph unicode="&#x208c;" horiz-adv-x="600" d="M29 10v41h538v-41h-538zM29 211v41h538v-41h-538z" />
<glyph unicode="&#x208d;" horiz-adv-x="329" d="M90 242q0 66 13.5 134t40 135t63.5 128t84 113l24 -17q-78 -111 -123 -235.5t-45 -249.5q0 -131 47.5 -261t122.5 -235l-20 -18q-43 49 -81 108.5t-65.5 125t-44 135t-16.5 137.5z" />
<glyph unicode="&#x208e;" horiz-adv-x="329" d="M33 -250q76 106 123 235.5t47 260.5q0 125 -46 252t-124 237l22 15q47 -51 85 -113t63.5 -129.5t40 -135.5t14.5 -134q0 -68 -16.5 -136.5t-44 -135t-64.5 -126t-80 -106.5z" />
<glyph unicode="&#x20ab;" horiz-adv-x="921" d="M147 477v273q0 131 75 200.5t214 69.5q53 0 120 -13.5t173 -66.5v258h-254v45h254v180h49v-180h92v-45h-92v-971h-37l-10 109q-129 -78 -205.5 -100.5t-124.5 -22.5q-121 0 -187.5 65.5t-66.5 198.5zM188 0v45h621v-45h-621zM195 498q0 -129 53 -184.5t151 -55.5 q59 0 147.5 36t182.5 97v492q-98 51 -167.5 71.5t-123.5 20.5q-127 0 -185 -60.5t-58 -183.5v-233z" />
<glyph unicode="&#x20ac;" horiz-adv-x="942" d="M51 598v45h809v-45h-637v-127q0 -113 38 -194.5t99.5 -136t138 -80t154.5 -25.5q152 0 281 69l22 -45q-53 -29 -126.5 -51t-172.5 -22q-119 0 -210 36.5t-152.5 101t-93 151.5t-31.5 190v133h-119zM51 795v45h119v116q0 100 33 185.5t95 149t153.5 99t205.5 35.5 q88 0 162 -16t142 -51l-23 -49q-127 68 -281 67q-82 0 -159.5 -24.5t-139 -76.5t-98.5 -134t-37 -195v-106h637v-45h-809z" />
<glyph unicode="&#x2103;" horiz-adv-x="1572" d="M51 1192q0 49 19.5 93t51.5 76t76 50.5t93 18.5q51 0 95 -18.5t77 -50.5t50 -76t17 -93t-18 -93t-51 -77t-76 -51.5t-94 -18.5t-95 18.5t-76 51.5t-50.5 77t-18.5 93zM98 1192q0 -82 55.5 -139.5t137.5 -57.5q80 0 136 53.5t56 143.5q0 41 -15 77t-41 62.5t-61.5 42 t-74.5 15.5q-82 0 -137.5 -57.5t-55.5 -139.5zM672 465v491q0 100 32.5 185.5t95 149t153.5 99t206 35.5q102 0 186.5 -21.5t161.5 -72.5l-32 -45q-137 90 -316 90q-82 0 -159.5 -24.5t-139 -76.5t-98.5 -134t-37 -195v-475q0 -113 37 -195.5t97.5 -137t137 -81t154.5 -26.5 q94 0 175 27.5t153 74.5l32 -43q-53 -35 -141 -69.5t-211 -34.5q-119 0 -210 36.5t-152.5 101t-93 151.5t-31.5 190z" />
<glyph unicode="&#x2105;" horiz-adv-x="1290" d="M51 952v209q0 115 73 184.5t200 69.5q51 0 106 -14.5t100 -48.5l-28 -41q-41 31 -89 45t-83 14q-45 0 -86 -12t-73 -39t-51.5 -69t-19.5 -103v-186q0 -59 19.5 -101.5t51.5 -70t72 -40t83 -12.5q35 0 87 12.5t89 36.5l28 -38q-43 -29 -98 -43.5t-108 -14.5 q-131 0 -202 74t-71 188zM190 -35l867 1497h55l-870 -1497h-52zM690 248v219q0 55 21.5 101t59.5 79t88 51.5t106 18.5q57 0 107 -18.5t87 -51.5t58.5 -79t21.5 -101v-217q0 -119 -71.5 -189.5t-204.5 -70.5q-125 0 -199 71.5t-74 186.5zM739 260q0 -61 19.5 -104t51.5 -70 t73 -39t84 -12q96 0 160.5 53t64.5 172v186q0 61 -19.5 104.5t-52.5 69t-72.5 38t-80.5 12.5t-82 -12.5t-74 -38t-52.5 -68.5t-19.5 -105v-186z" />
<glyph unicode="&#x2109;" horiz-adv-x="1564" d="M51 1192q0 49 19.5 93t51.5 76t76 50.5t93 18.5q51 0 95 -18.5t77 -50.5t50 -76t17 -93t-18 -93t-51 -77t-76 -51.5t-94 -18.5t-95 18.5t-76 51.5t-50.5 77t-18.5 93zM98 1192q0 -82 55.5 -139.5t137.5 -57.5q80 0 136 53.5t56 143.5q0 41 -15 77t-41 62.5t-61.5 42 t-74.5 15.5q-82 0 -137.5 -57.5t-55.5 -139.5zM641 0v1411h893v-51h-838v-617h721v-49h-721v-694h-55z" />
<glyph unicode="&#x2113;" horiz-adv-x="1032" d="M147 428q29 16 67 40t85 62v500q0 117 25.5 197t67.5 128t95.5 68.5t108.5 20.5q37 0 75 -15.5t67.5 -47t48 -81t18.5 -114.5q0 -84 -34 -168t-93.5 -169t-142 -171t-181.5 -174v-148q0 -90 20.5 -152.5t55.5 -100t81 -55t97 -17.5q92 0 153.5 59.5t108.5 163.5l64 -21 q-59 -117 -136 -185t-188 -68q-139 0 -226 88t-87 258v141q-41 -29 -75 -50.5t-68 -37.5zM354 575q211 182 300 334t89 265q0 88 -36.5 153.5t-114.5 65.5q-45 0 -87 -20.5t-76 -63.5t-54.5 -112t-20.5 -163v-459z" />
<glyph unicode="&#x2116;" horiz-adv-x="1789" d="M170 0v1411h59l738 -1325v1325h53v-1411h-59l-738 1323v-1323h-53zM1137 995v193q0 53 20.5 97t57 75t86 48t106.5 17q117 0 192.5 -65.5t75.5 -171.5v-189q0 -111 -69.5 -180t-200.5 -69q-123 0 -195.5 70.5t-72.5 174.5zM1147 571v43h516v-43h-516zM1184 1008 q0 -57 18.5 -98.5t50 -67t71.5 -37.5t83 -12q94 0 158.5 52t64.5 163v159q0 57 -19.5 98.5t-51 67t-71.5 37.5t-81 12t-81 -12t-71.5 -37.5t-51 -66.5t-19.5 -99v-159z" />
<glyph unicode="&#x2117;" horiz-adv-x="1572" d="M102 698q0 154 53.5 287t146.5 229.5t219 151.5t274 55q147 0 274 -55t221 -151.5t147.5 -229.5t53.5 -287t-53.5 -285.5t-147.5 -228t-221 -152t-274 -55.5t-273.5 55.5t-219.5 152t-146.5 228.5t-53.5 285zM156 698q0 -141 49 -265t135 -215t202.5 -144.5t252.5 -53.5 q135 0 253.5 53.5t205.5 144.5t137.5 215t50.5 265t-50.5 265t-137.5 216.5t-205.5 144.5t-253.5 52t-252 -52t-203 -144.5t-135 -216t-49 -265.5zM567 225v879h314q53 0 101 -13.5t85 -43t58.5 -77.5t21.5 -118q0 -43 -14.5 -87t-45 -80t-80 -57.5t-118.5 -21.5h-268v-381 h-54zM621 655h264q55 0 95 17.5t65.5 45t37 63.5t11.5 73q0 102 -63.5 151.5t-151.5 49.5h-258v-400z" />
<glyph unicode="&#x2122;" horiz-adv-x="1603" d="M76 1378v47h569v-47h-262v-762h-45v762h-262zM768 616v807h43l311 -635l312 635h39v-807h-43v715l-293 -598h-31l-295 598v-715h-43z" />
<glyph unicode="&#x2126;" horiz-adv-x="1167" d="M63 0v51h273q-117 57 -179.5 166t-62.5 250v496q0 100 34 185t97.5 146.5t154.5 96t206 34.5q113 0 204 -34.5t155.5 -97t100 -147.5t35.5 -183v-504q0 -141 -61.5 -251t-177.5 -157h274v-51h-381v55q129 33 211 138.5t82 277.5v475q0 111 -38 192t-99.5 134t-141 78.5 t-163.5 25.5q-90 0 -170 -25.5t-139.5 -78.5t-94.5 -134t-35 -192v-475q0 -86 26 -154.5t68 -120t95 -86t108 -53.5v-57h-381z" />
<glyph unicode="&#x212b;" horiz-adv-x="1134" d="M49 0l486 1411h71l490 -1411h-58l-125 352h-686l-118 -352h-60zM246 401h651l-328 959zM391 1636q0 74 52.5 124t123.5 50q74 0 126 -50t52 -124q0 -37 -14 -68.5t-37.5 -55t-56.5 -38t-70 -14.5t-68.5 14.5t-55 38t-38 55t-14.5 68.5zM432 1636q0 -57 39 -97t96 -40 q59 0 98.5 40t39.5 97t-39.5 97.5t-98.5 40.5q-57 0 -96 -40t-39 -98z" />
<glyph unicode="&#x212e;" horiz-adv-x="1673" d="M145 662q0 141 56.5 267t155 220t229.5 149.5t278 55.5q154 0 284 -51.5t225 -144.5t149.5 -221t60.5 -282h-1194v-409q35 -61 87 -105.5t115.5 -74t133.5 -44t139 -14.5q137 0 262 59.5t220 157.5h77q-98 -121 -247.5 -184.5t-311.5 -63.5q-147 0 -278 53.5 t-229.5 146.5t-155 218t-56.5 267zM389 692h957v391q-35 55 -88.5 101.5t-117 79t-134 50t-140.5 17.5q-125 0 -252 -65.5t-225 -182.5v-391z" />
<glyph unicode="&#x2153;" horiz-adv-x="1536" d="M145 1282l195 133h45v-840h-49v779l-160 -113zM209 -35l866 1497h55l-870 -1497h-51zM874 74q6 8 15.5 16t15.5 16q78 -72 207 -71q45 0 87 13t73 38t49 60.5t18 80.5q0 90 -53 136.5t-119 46.5h-108v45h106q23 0 51.5 10t53 31.5t42 56.5t17.5 82q0 45 -19.5 76.5 t-48 51t-64.5 29t-67 9.5q-59 0 -111 -19.5t-93 -48.5l-29 35q59 37 115.5 56.5t122.5 19.5q45 0 89 -12.5t78.5 -39t56 -65.5t21.5 -92q0 -59 -33.5 -117.5t-107.5 -83.5q84 -23 117 -83t33 -122q0 -53 -23 -97t-60.5 -74.5t-88 -48t-105.5 -17.5q-82 0 -139.5 23.5 t-98.5 58.5z" />
<glyph unicode="&#x2154;" horiz-adv-x="1536" d="M53 575v66q0 59 24.5 109.5t65.5 92.5t92.5 77.5t106.5 66.5q86 47 136 102.5t50 120.5q0 45 -18 76t-48 51.5t-70 29.5t-83 9q-66 0 -122 -20.5t-93 -46.5l-22 41q41 29 104 50t129 21q51 0 100.5 -11t88 -35.5t62.5 -63.5t24 -97q0 -76 -53.5 -139t-141.5 -114 q-43 -23 -92 -55t-91 -71.5t-69 -87t-27 -102.5v-24h472v-46h-525zM332 -35l866 1497h55l-870 -1497h-51zM967 74q6 8 15 16t15 16q78 -72 207 -71q45 0 87 13t73 38t49.5 60.5t18.5 80.5q0 90 -53.5 136.5t-118.5 46.5h-109v45h106q23 0 51.5 10t53 31.5t42 56.5t17.5 82 q0 45 -19.5 76.5t-48 51t-64.5 29t-66 9.5q-59 0 -111.5 -19.5t-93.5 -48.5l-29 35q59 37 115.5 56.5t122.5 19.5q45 0 89 -12.5t79 -39t56.5 -65.5t21.5 -92q0 -59 -34 -117.5t-108 -83.5q84 -23 117 -83t33 -122q0 -53 -22.5 -97t-60.5 -74.5t-88.5 -48t-105.5 -17.5 q-82 0 -139 23.5t-98 58.5z" />
<glyph unicode="&#x2155;" horiz-adv-x="1536" d="M150 1282l194 133h45v-840h-49v779l-160 -113zM209 -35l866 1497h55l-870 -1497h-51zM881 78l30 31q88 -74 203 -74q35 0 75 7t72.5 27.5t54 55.5t21.5 88v125q0 82 -40 124t-113 42q-57 0 -127 -24.5t-129 -57.5l-41 16v402h475v-47h-428v-324q59 39 129 59.5t119 20.5 q98 0 150 -54.5t52 -148.5v-141q0 -92 -70.5 -152.5t-199.5 -60.5q-80 0 -139.5 28.5t-93.5 57.5z" />
<glyph unicode="&#x2156;" horiz-adv-x="1536" d="M68 575v66q0 59 24.5 109.5t65.5 92.5t92 77.5t106 66.5q86 47 136.5 102.5t50.5 120.5q0 45 -18.5 76t-48.5 51.5t-69.5 29.5t-82.5 9q-66 0 -122.5 -20.5t-92.5 -46.5l-23 41q41 29 104 50t129 21q51 0 100.5 -11t88.5 -35.5t62.5 -63.5t23.5 -97q0 -76 -53.5 -139 t-141.5 -114q-43 -23 -92 -55t-91 -71.5t-68.5 -87t-26.5 -102.5v-24h471v-46h-524zM317 -35l867 1497h55l-870 -1497h-52zM965 78l30 31q88 -74 203 -74q35 0 75 7t72.5 27.5t54 55.5t21.5 88v125q0 82 -40 124t-113 42q-57 0 -127 -24.5t-129 -57.5l-41 16v402h475v-47 h-428v-324q59 39 129 59.5t119 20.5q98 0 150 -54.5t52 -148.5v-141q0 -92 -70.5 -152.5t-199.5 -60.5q-80 0 -139.5 28.5t-93.5 57.5z" />
<glyph unicode="&#x2157;" horiz-adv-x="1536" d="M82 649q6 8 15 16.5t16 16.5q37 -35 90 -53.5t116 -18.5q45 0 87.5 13.5t73 38t49 60.5t18.5 81q0 90 -53.5 136t-118.5 46h-109v45h107q23 0 51.5 10.5t53 32t42 56t17.5 81.5q0 45 -19.5 77t-48.5 51.5t-64.5 28.5t-66.5 9q-59 0 -111.5 -19.5t-93.5 -47.5l-29 34 q59 37 115.5 56.5t122.5 19.5q45 0 89 -12t79 -39t56.5 -65.5t21.5 -92.5q0 -59 -34 -117.5t-108 -82.5q84 -23 117 -83.5t33 -121.5q0 -53 -22.5 -97t-60.5 -75t-88.5 -48.5t-105.5 -17.5q-82 0 -139 23.5t-98 58.5zM281 -35l866 1497h55l-870 -1497h-51zM950 78l31 31 q88 -74 203 -74q35 0 74.5 7t72.5 27.5t54.5 55.5t21.5 88v125q0 82 -40 124t-114 42q-57 0 -126.5 -24.5t-129.5 -57.5l-41 16v402h476v-47h-428v-324q59 39 128.5 59.5t118.5 20.5q98 0 150.5 -54.5t52.5 -148.5v-141q0 -92 -70.5 -152.5t-199.5 -60.5q-80 0 -139.5 28.5 t-94.5 57.5z" />
<glyph unicode="&#x2158;" horiz-adv-x="1536" d="M57 713v41l320 661h51l-317 -657h362v266h51v-266h80v-45h-80v-138h-51v138h-416zM305 -35l866 1497h56l-871 -1497h-51zM973 78l31 31q88 -74 202 -74q35 0 75 7t72.5 27.5t54.5 55.5t22 88v125q0 82 -40 124t-114 42q-57 0 -127 -24.5t-129 -57.5l-41 16v402h475v-47 h-428v-324q59 39 129 59.5t119 20.5q98 0 150.5 -54.5t52.5 -148.5v-141q0 -92 -71 -152.5t-200 -60.5q-80 0 -139 28.5t-94 57.5z" />
<glyph unicode="&#x2159;" horiz-adv-x="1536" d="M190 1282l195 133h45v-840h-49v779l-160 -113zM217 -35l866 1497h56l-871 -1497h-51zM834 209v422q0 47 20 87t55 68.5t83 45t102 16.5q80 0 136 -25.5t91 -54.5l-35 -37q-35 33 -82 53.5t-110 20.5q-33 0 -70 -10.5t-68.5 -34t-52 -60t-20.5 -90.5v-194 q86 47 152.5 70.5t107.5 23.5q98 0 150.5 -54.5t52.5 -148.5v-94q0 -47 -19.5 -87t-55.5 -69.5t-83.5 -46t-102.5 -16.5q-109 0 -180 60.5t-71 154.5zM883 221q0 -49 19.5 -85t49 -57.5t65.5 -31.5t68 -10q33 0 71 10t69.5 31.5t52 57.5t20.5 85v78q0 84 -43 124t-110 40 q-59 0 -128 -31t-134 -65v-146z" />
<glyph unicode="&#x215a;" horiz-adv-x="1536" d="M96 653l31 31q88 -74 203 -74q35 0 74.5 7.5t72.5 28t54.5 55t21.5 87.5v125q0 82 -40 124t-114 42q-57 0 -126.5 -24.5t-129.5 -57.5l-41 17v401h476v-47h-428v-324q59 39 128.5 59.5t118.5 20.5q98 0 150.5 -54t52.5 -148v-142q0 -92 -70.5 -152.5t-199.5 -60.5 q-80 0 -139.5 29t-94.5 57zM297 -35l866 1497h56l-871 -1497h-51zM928 209v422q0 47 20.5 87t55 68.5t83 45t101.5 16.5q80 0 136 -25.5t91 -54.5l-35 -37q-35 33 -82 53.5t-110 20.5q-33 0 -70 -10.5t-68.5 -34t-52 -60t-20.5 -90.5v-194q86 47 152.5 70.5t107.5 23.5 q98 0 150.5 -54.5t52.5 -148.5v-94q0 -47 -19.5 -87t-55.5 -69.5t-83 -46t-102 -16.5q-109 0 -180.5 60.5t-71.5 154.5zM977 221q0 -49 19.5 -85t49 -57.5t65.5 -31.5t69 -10t70.5 10t69.5 31.5t52.5 57.5t20.5 85v78q0 84 -43 124t-111 40q-59 0 -128 -31t-134 -65v-146z " />
<glyph unicode="&#x215b;" horiz-adv-x="1536" d="M197 1282l194 133h45v-840h-49v779l-160 -113zM201 -35l866 1497h55l-870 -1497h-51zM809 223q0 25 8 54.5t27.5 58.5t50.5 53.5t76 40.5q-76 23 -115 80t-39 111q0 53 20.5 95t55.5 70.5t81 43t97 14.5t98.5 -14.5t82 -42t56 -68.5t21.5 -92q0 -55 -38 -112.5 t-111 -82.5q43 -10 73.5 -34.5t49 -53.5t26.5 -59.5t8 -55.5q0 -57 -21.5 -101t-57 -74.5t-84 -46t-101.5 -15.5q-49 0 -97 14t-85 44t-59.5 73t-22.5 100zM856 221q0 -84 61.5 -135t157.5 -51q94 0 154.5 50t60.5 138q0 84 -60.5 136.5t-156.5 52.5q-43 0 -82 -14.5 t-69.5 -39t-48 -59.5t-17.5 -78zM864 625q0 -39 17.5 -71t47 -55.5t66.5 -35.5t78 -12q39 0 76 12t66.5 34.5t48 54.5t18.5 73q0 45 -18.5 78.5t-48 55t-67.5 32t-75 10.5t-74.5 -10.5t-67.5 -32t-48.5 -55t-18.5 -78.5z" />
<glyph unicode="&#x215c;" horiz-adv-x="1536" d="M92 649q6 8 15.5 16.5t15.5 16.5q37 -35 90 -53.5t117 -18.5q45 0 87 13.5t72.5 38t49 60.5t18.5 81q0 90 -53 136t-119 46h-109v45h107q23 0 51.5 10.5t53 32t42 56t17.5 81.5q0 45 -19.5 77t-48 51.5t-64.5 28.5t-67 9q-59 0 -111.5 -19.5t-93.5 -47.5l-28 34 q59 37 115.5 56.5t121.5 19.5q45 0 89 -12t79 -39t56.5 -65.5t21.5 -92.5q0 -59 -34 -117.5t-107 -82.5q84 -23 116.5 -83.5t32.5 -121.5q0 -53 -22.5 -97t-60.5 -75t-88 -48.5t-105 -17.5q-82 0 -139.5 23.5t-98.5 58.5zM289 -35l866 1497h55l-870 -1497h-51zM915 223 q0 25 8.5 54.5t28 58.5t50 53.5t75.5 40.5q-76 23 -114.5 80t-38.5 111q0 53 20.5 95t55 70.5t80.5 43t98 14.5q51 0 98 -14.5t82 -42t56.5 -68.5t21.5 -92q0 -55 -38 -112.5t-112 -82.5q43 -10 74 -34.5t49 -53.5t26.5 -59.5t8.5 -55.5q0 -57 -21.5 -101t-57.5 -74.5 t-84 -46t-101 -15.5q-49 0 -97.5 14t-85 44t-59.5 73t-23 100zM963 221q0 -84 61 -135t158 -51q94 0 154.5 50t60.5 138q0 84 -60.5 136.5t-156.5 52.5q-43 0 -82 -14.5t-70 -39t-48 -59.5t-17 -78zM971 625q0 -39 17.5 -71t47 -55.5t66.5 -35.5t78 -12q39 0 75.5 12 t66.5 34.5t48.5 54.5t18.5 73q0 45 -18.5 78.5t-48.5 55t-67.5 32t-74.5 10.5t-75 -10.5t-67.5 -32t-48 -55t-18.5 -78.5z" />
<glyph unicode="&#x215d;" horiz-adv-x="1536" d="M98 653l31 31q88 -74 203 -74q35 0 74.5 7.5t72.5 28t54.5 55t21.5 87.5v125q0 82 -40 124t-114 42q-57 0 -126.5 -24.5t-129.5 -57.5l-41 17v401h476v-47h-428v-324q59 39 128.5 59.5t118.5 20.5q98 0 150.5 -54t52.5 -148v-142q0 -92 -70.5 -152.5t-199.5 -60.5 q-80 0 -139.5 29t-94.5 57zM281 -35l866 1497h55l-870 -1497h-51zM909 223q0 25 8.5 54.5t28 58.5t50 53.5t75.5 40.5q-76 23 -114.5 80t-38.5 111q0 53 20 95t55 70.5t81 43t97 14.5t98.5 -14.5t82 -42t56.5 -68.5t22 -92q0 -55 -38 -112.5t-112 -82.5q43 -10 73.5 -34.5 t49 -53.5t27 -59.5t8.5 -55.5q0 -57 -21.5 -101t-57.5 -74.5t-84 -46t-101 -15.5q-49 0 -97.5 14t-85.5 44t-59.5 73t-22.5 100zM956 221q0 -84 61.5 -135t158.5 -51q94 0 154.5 50t60.5 138q0 84 -60.5 136.5t-156.5 52.5q-43 0 -82 -14.5t-70 -39t-48.5 -59.5t-17.5 -78z M965 625q0 -39 17 -71t47 -55.5t67 -35.5t78 -12q39 0 75.5 12t66.5 34.5t48 54.5t18 73q0 45 -18 78.5t-48 55t-67.5 32t-74.5 10.5t-75 -10.5t-68 -32t-48 -55t-18 -78.5z" />
<glyph unicode="&#x215e;" horiz-adv-x="1536" d="M154 1237v178h514v-45l-351 -795h-55l352 793h-411v-131h-49zM231 -35l867 1497h55l-870 -1497h-52zM854 223q0 25 8 54.5t27.5 58.5t50.5 53.5t76 40.5q-76 23 -115 80t-39 111q0 53 20.5 95t55.5 70.5t81 43t97 14.5t98.5 -14.5t82 -42t56 -68.5t21.5 -92 q0 -55 -38 -112.5t-111 -82.5q43 -10 73.5 -34.5t49 -53.5t26.5 -59.5t8 -55.5q0 -57 -21.5 -101t-57 -74.5t-84 -46t-101.5 -15.5q-49 0 -97 14t-85 44t-59.5 73t-22.5 100zM901 221q0 -84 61.5 -135t157.5 -51q94 0 154.5 50t60.5 138q0 84 -60.5 136.5t-156.5 52.5 q-43 0 -82 -14.5t-69.5 -39t-48 -59.5t-17.5 -78zM909 625q0 -39 17.5 -71t47.5 -55.5t66.5 -35.5t77.5 -12q39 0 76 12t66.5 34.5t48 54.5t18.5 73q0 45 -18.5 78.5t-48 55t-67.5 32t-75 10.5t-74.5 -10.5t-67.5 -32t-48.5 -55t-18.5 -78.5z" />
<glyph unicode="&#x215f;" horiz-adv-x="808" d="M145 1282l195 133h45v-840h-49v779l-160 -113zM195 -35l866 1497h55l-870 -1497h-51z" />
<glyph unicode="&#x2190;" horiz-adv-x="1630" d="M100 657l426 422l47 -43l-360 -354h1311v-55h-1311l360 -351l-47 -45z" />
<glyph unicode="&#x2191;" horiz-adv-x="993" d="M66 1001l426 426l421 -426l-43 -47l-354 361v-1311h-55v1311l-350 -361z" />
<glyph unicode="&#x2192;" horiz-adv-x="1630" d="M102 627v55h1311l-360 354l47 43l426 -422l-426 -426l-47 45l360 351h-1311z" />
<glyph unicode="&#x2193;" horiz-adv-x="993" d="M66 432l45 47l350 -360v1311h55v-1311l354 360l43 -47l-421 -426z" />
<glyph unicode="&#x2196;" horiz-adv-x="1720" d="M258 709v594h602v-60h-506l1186 -1169l-41 -41l-1184 1175v-501z" />
<glyph unicode="&#x2198;" horiz-adv-x="1720" d="M258 1270l41 41l1184 -1176v500h57v-596h-602v61h506z" />
<glyph unicode="&#x21a9;" horiz-adv-x="1720" d="M129 655l420 422l43 -41l-354 -352h1081q70 0 118 20.5t78.5 57.5t44 87t13.5 107v172q0 115 -59.5 178.5t-194.5 63.5h-121v57h131q84 0 142.5 -23.5t94.5 -64.5t52 -97t16 -122v-164q0 -152 -80.5 -240.5t-253.5 -88.5h-1062l354 -353l-43 -41z" />
<glyph unicode="&#x21aa;" horiz-adv-x="1720" d="M131 956v164q0 66 16.5 122t52.5 97t94 64.5t142 23.5h131v-57h-121q-135 0 -194 -63.5t-59 -178.5v-172q0 -57 13 -107t44 -87t79 -57.5t117 -20.5h1082l-354 352l43 41l419 -422l-419 -422l-43 41l354 353h-1063q-172 0 -253 89t-81 240z" />
<glyph unicode="&#x21b3;" horiz-adv-x="1720" d="M281 625v792h63v-733h1196l-354 352l41 41l420 -424l-418 -420l-43 41l354 351h-1259z" />
<glyph unicode="&#x21b5;" horiz-adv-x="1720" d="M283 653l419 424l41 -41l-354 -352h1196v733h64v-792h-1260l354 -351l-43 -41z" />
<glyph unicode="&#x21de;" horiz-adv-x="993" d="M92 993l422 422l422 -422l-41 -43l-352 350l2 -567h237v-59h-237v-242h237v-61h-237v-371h-62v371h-237v61h237v242h-237v59h237v567l-350 -350z" />
<glyph unicode="&#x21df;" horiz-adv-x="993" d="M92 424l41 43l350 -350v567h-237v59h237v242h-237v62h237v370h62v-370h237v-62h-237v-242h237v-59h-237l-2 -567l352 350l41 -43l-422 -422z" />
<glyph unicode="&#x21e0;" horiz-adv-x="1619" d="M100 657l426 422l47 -43l-360 -354h408v-55h-408l360 -351l-47 -45zM719 625v57h217v-57h-217zM1038 625v57h219v-57h-219zM1360 625v57h158v-57h-158z" />
<glyph unicode="&#x21e1;" horiz-adv-x="962" d="M53 991l426 426l422 -426l-43 -47l-354 361v-408h-55v408l-351 -361zM446 0v158h58v-158h-58zM446 260v219h58v-219h-58zM446 582v217h58v-217h-58z" />
<glyph unicode="&#x21e2;" horiz-adv-x="1619" d="M100 625v57h158v-57h-158zM360 625v57h220v-57h-220zM682 625v57h217v-57h-217zM997 627v55h408l-361 354l48 43l426 -422l-426 -426l-48 45l361 351h-408z" />
<glyph unicode="&#x21e3;" horiz-adv-x="962" d="M53 426l45 47l351 -360v407h55v-407l354 360l43 -47l-422 -426zM446 618v218h58v-218h-58zM446 938v219h58v-219h-58zM446 1260v157h58v-157h-58z" />
<glyph unicode="&#x21e4;" horiz-adv-x="1548" d="M162 227v854h59v-854h-59zM264 657l426 422l47 -43l-360 -354h1085v-55h-1085l360 -351l-47 -45z" />
<glyph unicode="&#x21e5;" horiz-adv-x="1548" d="M164 627v55h1085l-360 354l47 43l426 -422l-426 -426l-47 45l360 351h-1085zM1405 227v854h59v-854h-59z" />
<glyph unicode="&#x21e7;" horiz-adv-x="1556" d="M49 674l717 749l717 -749h-353v-674h-729v674h-352zM164 719h289v-670h628v670h287l-602 622z" />
<glyph unicode="&#x21ea;" horiz-adv-x="1585" d="M68 674l716 749l717 -749h-352v-586h-729v586h-352zM182 719h289v-582h629v582h286l-602 622zM422 -63h727v-338h-727v338zM473 -113v-237h627v237h-627z" />
<glyph unicode="&#x2202;" horiz-adv-x="1085" d="M117 426q0 104 34.5 187t89 141.5t121 89t130.5 30.5q31 0 76.5 -7t101 -29.5t118 -65.5t123.5 -113q6 180 -32.5 320.5t-109.5 237t-168 146.5t-208 50q-18 0 -48 -2t-52 -6v41q29 6 56.5 8t49.5 2q150 0 256.5 -63.5t175 -167t100.5 -235.5t32 -271q0 -174 -34 -311.5 t-95.5 -232.5t-146.5 -145t-185 -50q-82 0 -152.5 28.5t-122 83.5t-81 139t-29.5 195zM170 430q0 -102 26.5 -177t72.5 -124t106.5 -73.5t130.5 -24.5q92 0 163.5 50t122 131t80 182.5t35.5 205.5q-53 61 -107.5 104.5t-106.5 70t-98 38.5t-81 12q-80 0 -144.5 -34.5 t-108.5 -92t-67.5 -128t-23.5 -140.5z" />
<glyph unicode="&#x2207;" horiz-adv-x="1183" d="M51 1411h1079l-505 -1411h-72zM127 1362l461 -1311l467 1311h-928z" />
<glyph unicode="&#x220f;" horiz-adv-x="1181" d="M104 -213v1624h975v-1624h-55v1575h-866v-1575h-54z" />
<glyph unicode="&#x2211;" horiz-adv-x="983" d="M68 -154l393 803l-393 707v57h831v-53h-774l395 -709l-403 -815h798v-49h-847v59z" />
<glyph unicode="&#x2212;" horiz-adv-x="942" d="M61 535v49h818v-49h-818z" />
<glyph unicode="&#x221a;" horiz-adv-x="1150" d="M68 717l196 80l342 -903l426 1748h51l-442 -1824h-57l-348 913l-148 -59z" />
<glyph unicode="&#x221e;" horiz-adv-x="1490" d="M111 557q0 59 20.5 109.5t57 87.5t86 57t108.5 20q43 0 91 -20t96 -55t93.5 -79t81.5 -91q37 47 82 91t93.5 79t96.5 55t91 20q57 0 107.5 -20t87 -57t57 -87.5t20.5 -109.5q0 -66 -21.5 -118t-58 -89t-87 -57.5t-105.5 -20.5q-104 0 -186 69t-177 181 q-94 -113 -176 -181.5t-186 -68.5q-55 0 -105.5 20.5t-87 57.5t-58 89.5t-21.5 117.5zM150 557q0 -49 19 -94t51 -79t75 -53.5t92 -19.5q43 0 88 23.5t88 58.5t83 78t71 82q-31 39 -71 82t-84 78t-90 57.5t-89 22.5q-47 0 -89 -19.5t-75 -52.5t-51 -76t-18 -88zM774 553 q31 -39 71 -82t83 -78t88 -58.5t88 -23.5q49 0 92 19.5t75 53.5t51 79t19 94q0 45 -18 88t-51 76t-75 52.5t-89 19.5q-43 0 -89 -22.5t-90 -57.5t-84 -78t-71 -82z" />
<glyph unicode="&#x2227;" horiz-adv-x="993" d="M66 -2l405 1034h51l404 -1034h-49l-379 991l-383 -991h-49z" />
<glyph unicode="&#x2228;" horiz-adv-x="993" d="M66 1034h49l383 -991l379 991h49l-404 -1034h-51z" />
<glyph unicode="&#x2229;" horiz-adv-x="993" d="M59 0v639q0 80 29 154.5t84 132t134 91.5t181 34t184.5 -32t140.5 -87t89 -130t31 -163v-639h-45v639q0 68 -28 133.5t-79 117.5t-124.5 84t-166.5 32q-90 0 -161.5 -32t-121.5 -83t-77 -116.5t-27 -135.5v-639h-43z" />
<glyph unicode="&#x222a;" horiz-adv-x="993" d="M59 414v639h43v-639q0 -70 27 -135.5t77 -116.5t121.5 -83t161.5 -32q92 0 166 32t125 84t79 117.5t28 133.5v639h45v-639q0 -88 -31 -163t-89 -130t-140 -87t-185 -32q-102 0 -181 34t-134 91t-84 132t-29 155z" />
<glyph unicode="&#x222b;" horiz-adv-x="647" d="M-20 -322l12 41q12 -4 38.5 -5t37.5 -1q70 2 116.5 51.5t74.5 168t38 322.5t8 517q0 25 1 77t3 116.5t4 132t6 125.5q10 193 79 283.5t180 90.5q10 0 35.5 -1t45.5 -7l-8 -45q-16 4 -36.5 5t-30.5 1q-106 0 -158.5 -96t-63.5 -307q-2 -47 -4 -126t-3 -171t-2 -186.5 t-3 -169.5q-4 -219 -18.5 -376t-45 -257.5t-83.5 -146.5t-135 -46q-10 0 -40 2t-48 8z" />
<glyph unicode="&#x2248;" horiz-adv-x="942" d="M47 350q37 47 89 79t112 32q57 0 114.5 -18.5t112.5 -42t111.5 -42t115.5 -18.5q57 0 90 24.5t68 73.5l35 -26q-31 -47 -75 -83t-118 -36q-59 0 -120.5 18.5t-120 41t-113.5 41t-102 18.5q-51 0 -92 -29t-78 -64zM47 653q37 47 89 79t112 32q57 0 114.5 -18.5t112.5 -42 t111.5 -42t115.5 -18.5q57 0 90 24.5t68 73.5l35 -26q-31 -47 -75 -83t-118 -36q-59 0 -120.5 18.5t-120 41t-113.5 41t-102 18.5q-51 0 -92 -29t-78 -63z" />
<glyph unicode="&#x2260;" horiz-adv-x="942" d="M61 332v49h271l198 297h-469v47h502l193 289h55l-193 -289h261v-47h-293l-199 -297h492v-49h-525l-192 -289h-56l193 289h-238z" />
<glyph unicode="&#x2264;" horiz-adv-x="942" d="M59 537v47l824 358v-55l-760 -326l760 -330v-53zM61 0v49h818v-49h-818z" />
<glyph unicode="&#x2265;" horiz-adv-x="942" d="M59 178v53l760 330l-760 326v55l824 -358v-47zM63 0v49h818v-49h-818z" />
<glyph unicode="&#x2303;" horiz-adv-x="1628" d="M221 846l592 590l584 -580l-43 -45l-541 532l-547 -540z" />
<glyph unicode="&#x2318;" horiz-adv-x="1687" d="M109 246q0 51 18 98t52 83t83 56.5t111 20.5h205v420h-205q-53 0 -101.5 20.5t-84 56t-57 81.5t-21.5 100q0 53 19 100t55 83t84 56.5t106 20.5q63 0 112.5 -20.5t81 -56.5t48 -83t16.5 -100v-209h413v209q0 53 19.5 100t54.5 83t83 56.5t106 20.5q63 0 111 -20.5 t81 -56.5t50.5 -83t17.5 -100q0 -51 -20.5 -98.5t-56.5 -82t-83 -56t-100 -21.5h-207v-420h207q66 0 114.5 -21.5t80.5 -56.5t48.5 -82t16.5 -98q0 -53 -16.5 -100.5t-48.5 -82t-81 -56t-114 -21.5q-61 0 -110.5 20.5t-83.5 56t-51.5 83t-17.5 100.5v209h-413v-209 q0 -51 -16.5 -98.5t-48 -83t-81 -57t-112.5 -21.5q-61 0 -110.5 20.5t-83.5 55t-52 81.5t-18 103zM162 246q0 -88 59.5 -149.5t151.5 -61.5q43 0 79.5 16.5t64.5 45t44.5 67.5t16.5 82v209h-205q-92 0 -151.5 -61.5t-59.5 -147.5zM162 1182q0 -90 59.5 -149.5t151.5 -59.5 h205v209q0 43 -16.5 80.5t-44.5 65.5t-64.5 44.5t-79.5 16.5q-90 0 -150.5 -59.5t-60.5 -147.5zM631 504h413v420h-413v-420zM1100 246q0 -43 16.5 -82t44 -67.5t65.5 -45t81 -16.5q88 0 147 61.5t59 149.5q0 43 -16 81t-44 66.5t-65.5 45t-80.5 16.5h-207v-209zM1100 973 h207q88 0 147 60.5t59 148.5q0 43 -16 80.5t-44 65.5t-65.5 44.5t-80.5 16.5t-81 -16.5t-65.5 -44.5t-44 -65.5t-16.5 -80.5v-209z" />
<glyph unicode="&#x2324;" horiz-adv-x="1628" d="M287 1366v59h1169v-59h-1169zM305 688l565 604l566 -602l-43 -45l-523 555l-520 -555z" />
<glyph unicode="&#x2325;" horiz-adv-x="2433" d="M84 1303v61h448l818 -1307h944v-57h-987l-813 1303h-410zM1063 1303v61h1231v-61h-1231z" />
<glyph unicode="&#x2326;" horiz-adv-x="2267" d="M158 0v1423h1360l696 -712l-694 -711h-1362zM209 51h1276l651 660l-651 659h-1276v-1319zM639 371l340 340l-340 340l33 36l340 -342l340 342l32 -36l-337 -340l337 -340l-32 -35l-340 344l-340 -344z" />
</font>
</defs>
</svg>
